<svg width="211" height="60" xmlns="http://www.w3.org/2000/svg"><g fill="#FFF" fill-rule="evenodd"><path d="M14.02 37.529c.73 0 1.392-.097 1.987-.29a4.214 4.214 0 0 0 1.53-.86c.424-.38.752-.86.982-1.44.231-.581.346-1.266.346-2.055 0-.79-.141-1.47-.424-2.044a5.601 5.601 0 0 0-1.06-1.496 8.272 8.272 0 0 0-1.385-1.116c-.499-.32-.96-.63-1.385-.927a6.025 6.025 0 0 1-1.06-.927 1.62 1.62 0 0 1-.425-1.105c0-.462.157-.812.47-1.05.312-.238.759-.357 1.34-.357.58 0 1.12.074 1.618.223.499.15.875.313 1.128.492l.87-2.48c-.431-.252-.974-.453-1.63-.602a9.562 9.562 0 0 0-2.12-.223 6.45 6.45 0 0 0-1.765.234 3.837 3.837 0 0 0-1.43.737 3.449 3.449 0 0 0-.948 1.295c-.231.529-.346 1.173-.346 1.932 0 .819.141 1.51.424 2.077a5.484 5.484 0 0 0 1.06 1.473 8.14 8.14 0 0 0 1.385 1.095c.499.312.96.617 1.385.915.424.298.778.614 1.06.95.283.334.425.74.425 1.216 0 1.162-.745 1.742-2.233 1.742a5.13 5.13 0 0 1-1.675-.268c-.521-.178-.93-.357-1.228-.536L10 36.658c.372.223.904.424 1.597.603.692.178 1.5.268 2.423.268zm10.004-.023c.52 0 1.042-.074 1.563-.223a3.778 3.778 0 0 0 1.34-.67l-.558-2.054a3.5 3.5 0 0 1-.726.368c-.26.097-.577.145-.95.145-.699 0-1.209-.32-1.529-.96-.32-.64-.48-1.467-.48-2.479 0-1.206.156-2.08.469-2.624.313-.543.782-.815 1.407-.815.342 0 .636.034.882.1.246.068.502.168.77.302l.626-2.21a5.397 5.397 0 0 0-1.128-.447c-.424-.12-.972-.179-1.641-.179-1.355 0-2.382.491-3.082 1.474-.7.983-1.05 2.449-1.05 4.4 0 .892.071 1.7.212 2.422.142.722.376 1.34.704 1.854a3.37 3.37 0 0 0 1.262 1.183c.513.275 1.15.413 1.909.413zm6.788-.29v-7.682c.105-.387.306-.707.603-.96.298-.253.626-.38.983-.38.491 0 .83.179 1.016.536.186.357.28.938.28 1.742v6.744h2.657V29.89c0-.804-.06-1.47-.18-1.998-.118-.529-.297-.95-.535-1.262a2 2 0 0 0-.87-.67c-.343-.134-.745-.2-1.207-.2-.64 0-1.172.118-1.596.356a3.549 3.549 0 0 0-1.084.938h-.067v-5.47h-2.657v15.63h2.657zm10.206.29c.714 0 1.314-.171 1.797-.513a3.77 3.77 0 0 0 1.15-1.296h.067l.47 1.519h2.01a9.604 9.604 0 0 1-.246-1.597 23.733 23.733 0 0 1-.067-1.797V26.05H43.54v7.459c-.119.432-.32.8-.603 1.105a1.374 1.374 0 0 1-1.05.458c-.431 0-.729-.171-.893-.513-.163-.343-.245-.953-.245-1.832V26.05h-2.658v7.258c0 .834.067 1.522.201 2.066.134.543.328.971.581 1.284.253.312.558.532.916.658.357.127.766.19 1.228.19zm9.401-.022a5.61 5.61 0 0 0 1.318-.156c.431-.105.737-.216.915-.335l-.245-2.144a2.737 2.737 0 0 1-.48.156 2 2 0 0 1-.414.045.53.53 0 0 1-.513-.335c-.105-.223-.157-.596-.157-1.117V21.584h-2.657v13.443c0 .894.186 1.526.558 1.899.372.372.93.558 1.675.558zm7.838-5.404v-2.546h-4.645v2.546h4.645zm7.392 5.449c.64 0 1.284-.075 1.931-.224.648-.149 1.165-.387 1.552-.714l-.558-2.367a5.277 5.277 0 0 1-1.005.502c-.372.141-.818.212-1.34.212-.595 0-1.105-.134-1.53-.402-.424-.268-.773-.647-1.049-1.139-.275-.491-.476-1.075-.603-1.753a12.255 12.255 0 0 1-.19-2.244c0-1.906.276-3.305.827-4.198.55-.893 1.34-1.34 2.367-1.34.52 0 .971.04 1.35.123.38.082.712.197.995.346l.558-2.479a7.338 7.338 0 0 0-1.329-.402c-.543-.119-1.18-.178-1.91-.178a6.17 6.17 0 0 0-2.12.38c-.7.252-1.322.688-1.865 1.306-.544.617-.983 1.447-1.318 2.49-.335 1.042-.502 2.352-.502 3.93 0 1.518.149 2.799.446 3.84.298 1.043.708 1.884 1.229 2.524.52.64 1.127 1.098 1.82 1.373.692.276 1.44.414 2.244.414zm7.056-.045a5.61 5.61 0 0 0 1.318-.156c.432-.105.737-.216.916-.335l-.246-2.144a2.737 2.737 0 0 1-.48.156c-.142.03-.28.045-.413.045a.53.53 0 0 1-.514-.335c-.104-.223-.156-.596-.156-1.117V21.584h-2.658v13.443c0 .894.186 1.526.559 1.899.372.372.93.558 1.674.558zm7.146.022c1.4 0 2.487-.48 3.26-1.44.775-.96 1.162-2.438 1.162-4.433 0-1.95-.365-3.416-1.094-4.4-.73-.982-1.839-1.473-3.328-1.473-1.384 0-2.464.484-3.238 1.452-.774.967-1.16 2.441-1.16 4.421 0 3.916 1.466 5.873 4.398 5.873zm0-2.367c-.595 0-1.02-.305-1.273-.915-.253-.61-.38-1.474-.38-2.59 0-1.281.146-2.186.436-2.714.29-.529.696-.793 1.217-.793.61 0 1.042.298 1.296.893.253.596.38 1.467.38 2.613 0 1.28-.139 2.185-.414 2.713-.275.529-.696.793-1.262.793zm8.776 2.367c.715 0 1.314-.171 1.798-.513a3.77 3.77 0 0 0 1.15-1.296h.067l.47 1.519h2.009a9.604 9.604 0 0 1-.246-1.597 23.733 23.733 0 0 1-.067-1.797V26.05h-2.657v7.459c-.12.432-.32.8-.603 1.105a1.374 1.374 0 0 1-1.05.458c-.431 0-.73-.171-.893-.513-.164-.343-.246-.953-.246-1.832V26.05h-2.657v7.258c0 .834.067 1.522.201 2.066.134.543.328.971.58 1.284.254.312.559.532.916.658.358.127.767.19 1.228.19zm10.362 0c1.265 0 2.151-.52 2.657-1.563h.09l.357 1.295h1.876a18.651 18.651 0 0 1-.179-2.077 78.803 78.803 0 0 1-.022-1.875V21.584h-2.658v4.511a2.891 2.891 0 0 0-.692-.223 4.968 4.968 0 0 0-.893-.067c-1.385 0-2.427.51-3.126 1.53-.7 1.02-1.05 2.512-1.05 4.477 0 2.01.324 3.461.971 4.354.648.894 1.538 1.34 2.669 1.34zm.625-2.434c-.52 0-.904-.272-1.15-.815-.245-.543-.368-1.329-.368-2.356 0-1.37.149-2.322.446-2.858.298-.536.745-.804 1.34-.804.298 0 .54.03.726.09.186.059.354.155.502.29v5.27c-.119.387-.297.68-.535.882-.239.2-.559.301-.96.301zm49.419 2.144v-7.213h5.761v7.213h1.675V21.584h-1.675v6.878h-5.761v-6.878h-1.675v15.632h1.675zm13.756.268c.61 0 1.19-.09 1.741-.268.551-.179 1.005-.432 1.363-.76l-.58-1.183c-.21.209-.51.387-.905.536a3.36 3.36 0 0 1-1.195.223c-.521 0-.957-.1-1.306-.301a2.406 2.406 0 0 1-.86-.849c-.223-.364-.387-.807-.491-1.328a8.91 8.91 0 0 1-.157-1.742h5.672c.03-.313.056-.614.078-.905.023-.29.034-.562.034-.815 0-.908-.1-1.645-.301-2.21-.201-.566-.466-1.005-.793-1.318a2.465 2.465 0 0 0-1.106-.625 5.006 5.006 0 0 0-1.239-.157c-1.28 0-2.27.5-2.97 1.497-.7.997-1.05 2.449-1.05 4.354 0 .893.079 1.697.235 2.412.156.714.402 1.329.737 1.842.335.514.76.908 1.273 1.184.513.275 1.12.413 1.82.413zm1.853-7.012h-4.22c.074-1.117.312-1.935.714-2.456.402-.522.946-.782 1.63-.782.596 0 1.065.26 1.407.782.343.52.499 1.34.47 2.456zm6.03 7.012c.55 0 1.03-.082 1.44-.246.41-.164.752-.383 1.027-.659.276-.275.48-.599.614-.97.134-.373.201-.768.201-1.184 0-.64-.104-1.173-.312-1.597a3.826 3.826 0 0 0-.793-1.094 5.901 5.901 0 0 0-1.039-.793 23.292 23.292 0 0 1-1.038-.659 3.533 3.533 0 0 1-.793-.714 1.471 1.471 0 0 1-.312-.95c0-.476.122-.826.368-1.05.246-.222.637-.334 1.172-.334.388 0 .767.048 1.14.145.372.097.699.22.982.369l.424-1.34a4.345 4.345 0 0 0-1.161-.458c-.447-.112-.975-.168-1.586-.168-.937 0-1.663.242-2.177.726-.513.484-.77 1.202-.77 2.155 0 .596.104 1.087.312 1.474.209.387.473.722.793 1.005.32.283.666.525 1.039.726.372.2.718.42 1.038.658.32.239.584.507.793.804.208.298.312.678.312 1.14 0 .55-.17.948-.513 1.194-.343.246-.76.368-1.25.368a4.24 4.24 0 0 1-1.263-.19 4.835 4.835 0 0 1-1.06-.457l-.492 1.407a4.3 4.3 0 0 0 1.206.502c.477.127 1.042.19 1.698.19zm7.547 0c.551 0 1.031-.082 1.44-.246.41-.164.753-.383 1.028-.659.275-.275.48-.599.614-.97.134-.373.201-.768.201-1.184 0-.64-.104-1.173-.313-1.597a3.826 3.826 0 0 0-.792-1.094 5.901 5.901 0 0 0-1.039-.793 23.291 23.291 0 0 1-1.038-.659 3.533 3.533 0 0 1-.793-.714 1.471 1.471 0 0 1-.313-.95c0-.476.123-.826.369-1.05.246-.222.636-.334 1.172-.334.387 0 .767.048 1.14.145.371.097.699.22.982.369l.424-1.34a4.345 4.345 0 0 0-1.161-.458c-.447-.112-.975-.168-1.586-.168-.938 0-1.663.242-2.177.726s-.77 1.202-.77 2.155c0 .596.104 1.087.312 1.474.209.387.473.722.793 1.005.32.283.666.525 1.038.726.373.2.719.42 1.039.658.32.239.584.507.793.804.208.298.312.678.312 1.14 0 .55-.171.948-.513 1.194-.343.246-.76.368-1.25.368a4.24 4.24 0 0 1-1.263-.19 4.835 4.835 0 0 1-1.06-.457l-.492 1.407a4.3 4.3 0 0 0 1.206.502c.477.127 1.042.19 1.697.19zm8.888 0c.61 0 1.191-.09 1.742-.268.55-.179 1.005-.432 1.362-.76l-.58-1.183c-.209.209-.51.387-.905.536a3.36 3.36 0 0 1-1.195.223c-.52 0-.956-.1-1.306-.301a2.406 2.406 0 0 1-.86-.849c-.223-.364-.387-.807-.491-1.328a8.91 8.91 0 0 1-.156-1.742h5.672c.03-.313.056-.614.078-.905.022-.29.033-.562.033-.815 0-.908-.1-1.645-.301-2.21-.201-.566-.465-1.005-.793-1.318a2.465 2.465 0 0 0-1.105-.625 5.005 5.005 0 0 0-1.24-.157c-1.28 0-2.27.5-2.97 1.497-.7.997-1.05 2.449-1.05 4.354 0 .893.079 1.697.235 2.412.157.714.402 1.329.737 1.842.335.514.76.908 1.273 1.184.514.275 1.12.413 1.82.413zm1.854-7.012h-4.221c.074-1.117.313-1.935.715-2.456.402-.522.945-.782 1.63-.782.595 0 1.064.26 1.407.782.342.52.498 1.34.469 2.456zm5.404 6.744v-8.129c.178-.52.461-.96.848-1.317.387-.357.879-.536 1.474-.536.67 0 1.135.25 1.396.748.26.499.39 1.306.39 2.423v6.81h1.608v-7.234c0-.82-.063-1.497-.19-2.032-.126-.536-.312-.964-.558-1.284a2.01 2.01 0 0 0-.915-.682 3.648 3.648 0 0 0-1.262-.2c-.67 0-1.247.14-1.73.424a3.597 3.597 0 0 0-1.15 1.027h-.068l-.29-1.184h-1.161v11.166h1.608z" fill-rule="nonzero"/><path d="M128.227 47.705c.348 0 .485.515.372.983-.119.094-.353.337-.573.856-.165-.11-.307-.48-.307-.877 0-.502.105-.726.239-.887a.571.571 0 0 1 .269-.075zm14.195-34.992c.177.516.238 1.004.238 1.719 0 1.888-1.238 3.629-3.874 4.061l-.08.013c-1.438.219-2.453.87-3.036 2.724.77-.71 1.37-.914 2.247-.986-.324.276-.46.515-.53.882 1.398-.941 2.52.076 4.026-1.096-.53 2.162-4.795 1.243-4.795 4.366 0 1.05.652 1.84 1.463 2.137-.174-.313-.183-.62-.183-1.002 0-.381.44-1.151 1.521-1.151.579 0 1.158.272 1.595.272.44 0 .748-.172 1-.548 0 1.503-2.524 1.113-2.524 2.527 0 .985 1.055 1.594 1.727 2.072-.117-.562.329-1.06.807-1.268.422-.182.71-.141 1.186-.616.112.216.12.42.12.658 0 .861-1.043 1.542-1.043 2.585 0 .714.425 2.264-.717 3.685.43-.329.951-.398 1.367-.159-.529.448-.77.823-1.068 1.203-.302.38-.685.558-1.29.558-.348 0-.601-.213-.716-.334-.303.288-.944.532-1.775.532-.834 0-1.625-.246-2.113-.46l-.047.023-.046.023-.045.023c-.729.386-1.315.997-1.315 1.98 0 1.098.925 2.096 1.823 2.096.208-.239.615-.425 1.087-.425.716 0 1.283.655 1.283 1.46 0 .785-.29 1.127-.29 1.99 0 .335.175.589.348.737-.232.408-.897.453-1.547.24-.036.445-.12.61-.357.811-.345-.072-.523-.345-.572-.69-.178.532-.776 1.355-1.402 1.76.207.113.44.324.44.6a.643.643 0 0 1-.077.302.914.914 0 0 0-.374-.088l.065.033c.09.094.116.223.116.276 0 .251-.344.52-.54.548-.138-.267-.25-.343-.376-.393a.546.546 0 0 1-.001-.022.997.997 0 0 0-.137.564c-.326.15-.628-.088-.859-.392-.016.343-.362.842-.707.937.198.437-.204 1.07-.544 1.145-.11-.366-.312-.505-.56-.535.028.093.044.192.051.287a1.927 1.927 0 0 1-.649 1.167c-.014-.42-.118-.863-.269-1.311l.083.266a1.279 1.279 0 0 0-.035.058.802.802 0 0 1-.527-.506l-.024.02c-.232.205-.554.401-.992.307.134-.45-.168-1.144-.9-.995l-.004-.03-.002-.03c-.03-.406.06-.707.62-1.004-.243-.144-.467-.394-.467-.753 0-.575.578-.986 1.068-.986.496 0 .54.347 1.154.347.764 0 2.914-1.25 2.817-3.477-.34.218-.583.552-.868 1.1-.526-.168-.877-.846-.885-1.628l-.02.047-.026.06c-.13.295-.294.52-.764.658 0-1.015-.252-1.144-1.209-2.18-1.027-1.118-1.196-2.025-1.196-3.084 0-.206.02-.412.055-.613a4.68 4.68 0 0 1-.22-.006l-.095-.006-.04-.002-.054-.003a6.282 6.282 0 0 0-.151-.002h-.164c-1.007 0-1.63.943-1.63 1.634 0 .696.492.684.492 1.969 0 1.408-.853 2.197-1.717 2.802l-.006-.097-.004-.05-.003-.049c-.023-.283-.069-.522-.248-.767-.238.376-.652.758-1.087.937l-.025.01-.273-.548c-.622.433-1.782.86-2.316.999.16.472.048.695-.141.957l-.012-.02a.645.645 0 0 0-.395-.29.745.745 0 0 1 .108.153c.042.297-.401.585-.809.596.103-.268.066-.405-.042-.53-.091.09-.162.189-.204.27-.386-.152-.58-.473-.653-.799-.134.154-.458.243-.765.243.106.995-.458 1.32-.849 1.415.09-.506-.294-.847-.65-.847-.476 0-.72.279-.79.454-.37-.359-.294-.799.054-1.281-.185.05-.364.068-.591.068-.389 0-.71-.508-.71-1.005 0-.534.464-.925.88-.925.236 0 .518.035.769.175-.09-.147-.145-.41-.145-.648 0-.523.567-.73 1.016-.73.693 0 .71.58 1.322.58.437 0 2.243-.349 2.636-1.423a1.11 1.11 0 0 1-.685-.221c.407-.45.46-.741.46-2.056 0-2.151 2.189-4.029 5.158-4.029.674 0 1.157.04 1.89.04.183 0 .38-.176.557-.38.068-.187.144-.355.228-.503-2.382-.167-4.225-.703-6.119-2.572-.02.366-.147.776-.498.95l-.05-.03-.047-.03-.048-.028a3.415 3.415 0 0 0-1.678-.541c.06.438-.32.93-.563 1.067l-.041-.057c-.375-.524-.676-1.004-1.078-.958a.883.883 0 0 1-.386.684l-.233-.153-.064-.041c-.474-.305-.905-.53-1.693-.53-.64 0-1.217.289-1.332.42.147.13.19.243.2.515.01.273-.126.516-.344.6-.142-.277-.304-.441-.679-.441h-.017a.553.553 0 0 0-.52.42l.062-.012.098-.006c.25 0 .431.12.528.354-.062.202-.13.336-.566.565-.14-.118-.292-.292-.345-.409-.006-.076-.015-.176.007-.267-.16-.073-.307-.187-.356-.405-.211.012-.46.35-.46.85 0 .251-.209.43-.395.473-.068-.195-.312-.467-.595-.467-.225 0-.397.06-.533.225h.017c.22 0 .383.148.472.365-.07.147-.116.36-.094.554-.45.017-.865-.323-.822-.635.027-.05.084-.17.223-.237-.253-.32-.13-.779-.077-1.008-.194.057-.375-.046-.411-.146.116-.392-.181-1.033-.653-1.11-.035-.518.233-.773 1.07-.745-.326-.15-.658-.512-.658-.908 0-.187.155-.442.372-.63-.524.22-.797.584-.833.822-.213-.087-.485-.132-.872-.118.232-.424.657-.802 1.364-.802.202 0 .37.027.472.046l-.054-.01a.867.867 0 0 1 .5-.19c.383 0 .71.57 1.25.57.35 0 1.688-.7 2.286-.853.6-.155 1.515-.752 2.126-1.155l.023-.018c.354.493.869.821 1.439.937l.02.004-.006.013c-.104.269-.13.591-.083.917.068.472.27.853.572.898l.104.015.077-.072c.367-.34.76-.462 1.331-.462h.053l.053.001c.408.007.724.058 1.282.187l.268.062c.596.137.937.187 1.41.187h.062c1.958-.012 3.427-.58 4.705-1.657l.052-.044.012.006c.47.193 1.115.326 1.51.326.381 0 .74-.078 1.043-.22l.053.059c.308.37.577.606.94.837 2.727 1.746 5.919 2.913 5.919 5.063 0 .375-.093.687-.274.882.418.331.789.438 1.35.438 1.68 0 2.93-1.274 2.93-3.036 0-1.812-1.988-2.62-3.331-3.454-1.341-.835-3.376-3.52-3.376-5.479 0-2.559 1.374-3.783 2.183-4.498-.335-2.609 1.575-3.406 2.225-3.712l.02-.009c.298-.138.812-.46 1.028-.57a2.046 2.046 0 0 1-.16 1.492c1.04-.35 2.176-1.133 2.607-2.261zm-14.316 31.314c.21 0 .43.041.532.097-.576.197-1.04.809-.97 1.303-.28.059-.55.158-.808.439-.23-1.048.221-1.84 1.246-1.84zm-11.798 0c.368 0 .448.336.36.521-.057.103-.2.296-.373.398-.227-.101-.519-.353-.512-.596.033-.102.197-.323.525-.323zm-2.467-2.76c-.236.33-.185.893.105 1.263-.177.116-.376.239-.524.577-.194-.213-.394-.511-.394-.916 0-.55.5-.874.813-.923zm2.227-1.839c.341 0 .527.07.633.128-.564.15-.98.39-.975.792-.23-.068-.64-.062-.862-.036.055-.434.456-.884 1.204-.884zm-7.23-9.196c.418.08.583.753.494 1.083-.125.093-.332.293-.422.756-.284-.314-.473-.656-.473-1.086 0-.318.13-.629.4-.753zm21.46-20.156c.21.122.513.494.513.874 0 .268-.207.599-.39.816l-.012.014.204.175c.299-.334.397-.59.453-.87.351.172.705.315 1.076.365a1.088 1.088 0 0 1-.49.617c.713.364 1.018.794 1.727 1.132-.237.34-.434.461-.709.55.41.155.743.944.892 1.455l.006.018c.176.618.73 1.32 1.076 1.66-.31.137-.651.193-1.052.215l.01.022c.147.383.2 1.37-.067 3.45-.063.477.094.845.25 1.094l.018.027h-1.11c-.07.343-.256.852-.548 1.256l-.02.027c-.267.356-.5 1.17-.414 2.097-.396.087-.909-.078-1.183-.304-.198.546.082 1.294.31 1.599-.288.404-.857.657-1.522.657-.338 0-1.063-.13-1.558-.369-1.09.964-2.525 1.736-4.778 1.736-1.184 0-1.843-.436-3.063-.436-.53 0-1.02.095-1.48.52-.35-.052-.626-1.243-.152-1.786a2.142 2.142 0 0 1-1.905-1.37c.638-.275.722-.661 1.034-1.388.487-1.143 1.51-2.118 2.504-2.26-.1-.283-.14-.689-.14-1.182 0-.711.437-1.34.835-1.666l.084.078c.442.402.844.69 1.912.695h.035v-1.152c.365 0 1.227.921 2.481.921h.035l.034-.001c.52-.018 1.02-.242 1.02-.745 0-.528-.321-.628-.51-.628-.32 0-.35.333-.75.333-.408 0-.783-.294-.783-.621 0-.241.164-.368.52-.368s.594.1.917.1h.03l.033-.001c.363-.013 1.176-.139 1.176-.932 0-1.351-1.309-1.82-1.77-1.782.05.364-.25 1.156-1.1 1.156-.594 0-1.168-.48-1.168-1.037 0-.188.025-.407.124-.54l.025-.016.031-.021c.148-.105.398-.306.537-.444l.013-.014-.122-.138-.052.046-.053.047a2.562 2.562 0 0 1-.482.353.614.614 0 0 1-.048-.274c0-.5.85-1.197 1.62-1.653.217-.543 1.248-1.69 3.25-1.69.307-.24.689-.297 1.08-.3h.027c.089 0 .201.007.34.035l-.052.044-.15.126c-.118.1-.257.22-.379.337l-.019.018.15.18.063-.056.33-.292c.138-.123.27-.237.35-.293l.04-.027c.448-.301.646-.317.867-.189zm-16.51 2.766c.319 0 .825.183.825.596 0 .412-.218.877-.223 1.204-.012.79.853 1.333 1.872 2.785.354.505 2.215 1.636 3.395 2.254l.044.023c-.075.22-.116.449-.116.678v.038c.002.372.026.684.077.937l.008.037-.009.002c-.966.258-1.925 1.183-2.417 2.306l-.031.072-.177.419-.03.07-.01.024-.02.042a1.998 1.998 0 0 1-.146.268l-.003-.057-.002-.047-.003-.036c-.021-.258-.093-.497-.424-1.056-.153.464-.767.668-1.188.6.312-.869.37-1.78-.022-2.928-.079.616-.441.722-.843.722v-.051l-.001-.051-.001-.05c-.025-.829-.223-1.876-1.22-3.238-.085.128-.276.227-.469.227-.879 0-1.377-.88-1.329-1.448l-.038-.005c-.622-.092-1.166-.392-1.166-1.15 0-.612.476-.784.828-.788h.011c.353 0 .575.057.868.224-.111-.412-.303-.552-.477-.667l-.106-.068c-.233-.15-.452-.31-.452-.651 0-.451.614-.917 1-.936.38-.017.708.255.716.633v.015c0 .376.329.803.665 1.172l.008-.054c.036-.254.058-.563-.002-.785-.048-.177-.184-.482-.167-.825.018-.344.404-.457.774-.457zm-2.773 5.435c.221.195.502.402 1.095.396a1.173 1.173 0 0 1-.954.523c-.445 0-.785-.4-.883-.577.456-.092.558-.19.742-.342zm-.941-2.76c-.144.466-.003.867.2 1.13-.21.095-.441.33-.534.71-.163-.188-.385-.502-.385-.9 0-.497.339-.865.719-.94zm11.18-.919c.13 0 .265.035.363.12-.209.27-.318.534-.318.862 0 .5.464 1.119 1.655 1.119.607 0 .849-.102 1.281-.233.431-.132.998-.339 1.618-.339.502 0 .719.023.903.051a1.26 1.26 0 0 1 .034.481c-.264-.065-.481-.112-1.077-.112-.332 0-.865.13-1.246.271-.38.143-1.232.54-2.126.54-.976 0-1.967-.524-1.967-1.656 0-.737.47-1.104.88-1.104zm-10.929-1.84c.377 0 .67.11.867.377-.562-.028-1.034.306-1.248.544a1.312 1.312 0 0 0-.589-.139c.056-.385.405-.781.97-.781zm14.635-.691a.662.662 0 0 0-.15.391c0 .243.197.513.51.513.217 0 .432-.206.486-.346.125.111.245.304.245.304l.125-.095a.489.489 0 0 1 .038-.028c-.383-.51-.88-.706-1.254-.74zm-11.955-.228c.489 0 .775.262.941.696a1.873 1.873 0 0 0-.53-.054c-.244 0-.517.076-.718.278-.124-.202-.284-.332-.588-.498.149-.235.42-.422.895-.422z"/></g></svg>
