<svg width="48" height="48" xmlns="http://www.w3.org/2000/svg"><path d="M26.15 40.326c.319 0 .444.468.34.894-.108.086-.323.307-.525.78-.15-.1-.28-.438-.28-.799 0-.457.095-.66.218-.807a.527.527 0 0 1 .246-.068zM39.167 8.47c.162.47.219.914.219 1.565 0 1.719-1.136 3.303-3.554 3.697l-.074.011c-1.318.2-2.248.793-2.783 2.48.705-.646 1.256-.832 2.061-.897-.298.251-.422.469-.487.803 1.282-.857 2.312.069 3.692-.998-.485 1.968-4.396 1.132-4.396 3.975 0 .956.598 1.674 1.341 1.945-.16-.284-.168-.564-.168-.912 0-.347.404-1.048 1.395-1.048.53 0 1.062.248 1.463.248.403 0 .686-.157.917-.5 0 1.369-2.315 1.014-2.315 2.301 0 .897.968 1.451 1.584 1.887-.107-.512.301-.966.74-1.155.387-.166.652-.128 1.088-.56.103.197.109.383.109.599 0 .784-.955 1.403-.955 2.353 0 .65.39 2.06-.658 3.354.394-.299.872-.362 1.253-.144-.485.408-.705.75-.979 1.095-.277.346-.628.508-1.182.508-.32 0-.552-.194-.658-.304-.277.262-.866.484-1.628.484-.765 0-1.49-.224-1.937-.42l-.044.022-.042.021-.04.021c-.67.351-1.207.907-1.207 1.803 0 1 .848 1.908 1.672 1.908.19-.218.564-.387.997-.387.657 0 1.176.596 1.176 1.328 0 .716-.265 1.027-.265 1.813 0 .305.16.536.318.67-.212.372-.822.413-1.418.22-.033.404-.11.554-.327.737-.317-.065-.48-.314-.525-.628-.163.485-.712 1.234-1.286 1.603.19.103.404.294.404.546a.582.582 0 0 1-.07.275.842.842 0 0 0-.343-.08l.058.03a.403.403 0 0 1 .107.25c0 .23-.316.475-.496.5-.126-.243-.228-.313-.344-.358a.493.493 0 0 1-.001-.018.903.903 0 0 0-.126.511c-.298.137-.576-.08-.787-.357-.016.313-.332.767-.649.853.182.398-.187.975-.498 1.043-.101-.334-.287-.46-.515-.487.026.084.041.174.048.26-.06.394-.261.778-.596 1.064-.013-.383-.108-.786-.246-1.194l.076.242a1.163 1.163 0 0 0-.032.053.733.733 0 0 1-.484-.46l-.022.018c-.212.186-.508.365-.91.28.124-.411-.154-1.043-.826-.907l-.002-.027-.002-.027c-.028-.37.054-.644.568-.915-.223-.13-.428-.358-.428-.685 0-.524.53-.897.979-.897.455 0 .495.316 1.059.316.7 0 2.672-1.139 2.583-3.166-.311.198-.535.502-.796 1.001-.483-.152-.804-.77-.811-1.482l-.018.043-.012.028-.012.028c-.12.267-.27.473-.701.598 0-.924-.231-1.042-1.11-1.984-.941-1.019-1.096-1.845-1.096-2.809 0-.187.018-.374.05-.558-.067 0-.134-.002-.202-.005l-.086-.006-.037-.002-.05-.002a7.828 7.828 0 0 0-.227-.002H25.6c-.923 0-1.495.859-1.495 1.488 0 .633.452.623.452 1.792 0 1.282-.782 2-1.575 2.551l-.006-.088-.003-.046-.003-.044c-.021-.258-.063-.476-.227-.699-.219.343-.598.69-.998.854l-.022.009-.251-.5c-.57.395-1.633.784-2.123.91.146.43.043.633-.13.871l-.01-.017a.591.591 0 0 0-.362-.265c.064.072.098.14.098.14.038.27-.368.532-.742.542.094-.244.06-.368-.039-.482a1.023 1.023 0 0 0-.186.245c-.355-.138-.532-.43-.6-.727-.122.14-.42.222-.7.222.096.905-.42 1.2-.78 1.287a.634.634 0 0 0-.595-.77c-.437 0-.66.253-.726.413-.338-.327-.269-.728.05-1.167-.17.046-.334.062-.542.062-.356 0-.652-.462-.652-.915 0-.486.426-.842.808-.842.216 0 .475.032.705.16-.082-.134-.133-.374-.133-.59 0-.476.52-.665.932-.665.636 0 .65.529 1.212.529.401 0 2.057-.319 2.418-1.297a1.024 1.024 0 0 1-.628-.2c.373-.41.422-.675.422-1.873 0-1.957 2.007-3.667 4.73-3.667.618 0 1.061.036 1.734.036.167 0 .347-.16.51-.346.062-.17.132-.322.21-.458-2.185-.152-3.875-.64-5.612-2.341-.018.333-.135.707-.457.865l-.045-.028-.044-.026-.044-.027a3.162 3.162 0 0 0-1.54-.492c.056.399-.293.846-.515.972l-.038-.052c-.343-.477-.62-.914-.989-.873a.803.803 0 0 1-.354.623l-.214-.139-.058-.038c-.435-.277-.83-.481-1.553-.481-.587 0-1.115.262-1.22.38.134.12.173.223.182.47.01.25-.116.47-.315.547-.13-.253-.28-.402-.623-.402H12.9a.507.507 0 0 0-.477.383l.049-.01.097-.007c.23 0 .396.11.485.323-.057.183-.12.305-.52.514-.129-.108-.268-.266-.316-.372-.006-.07-.014-.16.006-.243-.145-.066-.281-.17-.326-.37-.194.012-.422.319-.422.774 0 .229-.191.392-.362.431-.063-.178-.286-.425-.546-.425-.207 0-.364.054-.489.205h.016c.202 0 .35.134.432.332a.985.985 0 0 0-.086.505c-.412.015-.792-.294-.753-.578.024-.046.077-.155.204-.216-.231-.292-.12-.71-.07-.918-.178.052-.344-.042-.378-.133.107-.357-.165-.94-.598-1.01-.032-.472.214-.704.982-.68-.3-.135-.605-.465-.605-.826 0-.17.143-.403.342-.574-.48.201-.731.533-.765.75-.195-.08-.444-.121-.799-.108a1.36 1.36 0 0 1 1.251-.73c.185 0 .339.024.433.042l-.05-.01a.798.798 0 0 1 .458-.173c.353 0 .652.52 1.147.52.321 0 1.548-.638 2.097-.777.55-.14 1.39-.685 1.95-1.051l.02-.017c.325.449.798.748 1.32.853l.018.004-.004.011c-.096.245-.12.539-.077.835.063.43.248.777.525.818l.095.014.071-.066c.336-.309.696-.42 1.22-.42h.098c.374.007.663.053 1.175.17l.246.057c.546.125.86.17 1.293.17h.057c1.795-.01 3.143-.528 4.315-1.508l.048-.04.011.005c.43.176 1.023.297 1.384.297.35 0 .68-.07.957-.2l.05.053c.281.337.528.552.86.762 2.502 1.59 5.43 2.653 5.43 4.61 0 .341-.086.625-.252.803.383.301.723.398 1.239.398 1.54 0 2.686-1.16 2.686-2.764 0-1.65-1.823-2.384-3.055-3.144-1.23-.76-3.096-3.204-3.096-4.988 0-2.33 1.26-3.444 2.002-4.095-.307-2.375 1.445-3.1 2.04-3.379l.019-.008c.274-.126.745-.42.943-.52a1.85 1.85 0 0 1-.147 1.359c.955-.318 1.996-1.031 2.391-2.058zm-13.13 28.507c.194 0 .395.038.488.088-.527.18-.953.737-.888 1.186-.257.054-.505.145-.742.4-.21-.954.203-1.674 1.143-1.674zm-10.82 0c.338 0 .411.306.331.475-.053.093-.183.27-.342.362-.209-.092-.476-.322-.47-.543.03-.093.181-.294.482-.294zm-2.262-2.512c-.216.3-.17.813.097 1.15-.163.105-.345.216-.481.525-.178-.195-.361-.466-.361-.834 0-.5.458-.796.745-.84zm2.042-1.674c.313 0 .484.063.58.116-.516.137-.897.355-.893.72-.211-.06-.587-.056-.79-.032.05-.395.418-.804 1.103-.804zm-6.63-8.372c.383.073.534.685.453.985-.115.085-.305.268-.387.689-.26-.286-.434-.597-.434-.989 0-.29.12-.572.368-.685zM28.05 6.069c.191.111.47.45.47.796 0 .244-.19.545-.358.742l-.011.013.187.16c.274-.304.364-.538.416-.792.322.157.646.286.986.332a.992.992 0 0 1-.449.562c.654.332.934.722 1.584 1.03-.218.31-.398.42-.65.5.375.142.681.86.818 1.325l.005.017c.162.562.67 1.202.987 1.51-.285.125-.597.176-.965.197l.008.02c.136.348.185 1.246-.06 3.141-.058.434.086.769.23.995l.016.025h-1.019a3.162 3.162 0 0 1-.502 1.143l-.019.025c-.244.324-.457 1.065-.379 1.91-.363.078-.834-.072-1.085-.277-.182.497.075 1.178.285 1.455-.265.368-.787.598-1.396.598a4.01 4.01 0 0 1-1.43-.335c-.998.877-2.315 1.58-4.381 1.58-1.086 0-1.69-.397-2.81-.397-.485 0-.935.086-1.356.473-.321-.048-.575-1.131-.14-1.626a1.964 1.964 0 0 1-1.747-1.247c.585-.25.662-.602.948-1.264.447-1.04 1.385-1.928 2.296-2.057-.09-.257-.128-.627-.128-1.076 0-.647.4-1.22.766-1.516l.077.07c.405.366.774.628 1.754.633h.031v-1.049c.335 0 1.126.839 2.276.839h.032l.031-.001c.476-.017.936-.22.936-.678 0-.481-.295-.572-.468-.572-.294 0-.321.303-.688.303-.374 0-.718-.268-.718-.565 0-.22.15-.335.477-.335.326 0 .545.09.84.09h.059c.333-.012 1.078-.126 1.078-.849 0-1.23-1.2-1.656-1.623-1.622.045.332-.23 1.052-1.008 1.052-.546 0-1.073-.436-1.073-.943 0-.172.023-.37.115-.491l.022-.015.029-.02a4.65 4.65 0 0 0 .492-.404l.013-.013-.113-.126-.047.043-.05.042a2.35 2.35 0 0 1-.441.321.556.556 0 0 1-.044-.25c0-.454.78-1.088 1.486-1.504.199-.494 1.144-1.538 2.98-1.538.282-.22.632-.27.992-.273h.023c.082 0 .185.006.313.031l-.048.04-.138.115c-.108.091-.236.2-.347.307l-.018.017.137.163.058-.05.303-.267c.127-.111.248-.215.32-.267l.037-.024c.411-.274.593-.289.796-.172zM12.907 8.587c.293 0 .757.167.757.543 0 .375-.2.798-.204 1.096-.011.72.782 1.213 1.717 2.535.324.46 2.03 1.49 3.113 2.053l.04.02a1.92 1.92 0 0 0-.106.618v.034c.002.339.024.622.071.853l.007.034-.008.002c-.886.235-1.766 1.076-2.217 2.099l-.029.066-.161.38-.028.064a2.237 2.237 0 0 1-.01.022l-.017.039a1.815 1.815 0 0 1-.135.244l-.002-.052-.002-.043-.003-.033c-.02-.235-.085-.453-.39-.961-.14.422-.702.608-1.088.545.286-.79.339-1.62-.02-2.665-.073.561-.405.658-.773.658v-.047l-.002-.046v-.046c-.023-.754-.205-1.708-1.12-2.948a.538.538 0 0 1-.429.207c-.807 0-1.264-.8-1.22-1.318l-.034-.005c-.57-.084-1.07-.356-1.07-1.047 0-.556.437-.713.76-.716h.01c.324 0 .527.05.796.203-.102-.375-.278-.502-.438-.607l-.097-.062c-.214-.137-.415-.282-.415-.593 0-.41.564-.834.918-.852.349-.015.649.232.657.576v.014c0 .343.301.731.61 1.067l.007-.049c.033-.231.053-.512-.002-.714-.044-.162-.169-.44-.154-.752.017-.313.372-.416.71-.416zm-2.543 4.948c.203.178.46.366 1.004.36a1.078 1.078 0 0 1-.874.477c-.408 0-.72-.365-.81-.526.418-.083.511-.172.68-.311zm-.863-2.512c-.131.424-.002.789.183 1.029-.192.086-.404.299-.49.646-.149-.172-.352-.457-.352-.82 0-.452.31-.788.66-.855zm10.254-.837c.119 0 .243.032.333.109-.192.247-.292.486-.292.785 0 .454.426 1.018 1.517 1.018.558 0 .78-.092 1.176-.212.395-.12.915-.308 1.484-.308.46 0 .659.02.828.046a1.14 1.14 0 0 1 .031.439c-.243-.06-.441-.103-.988-.103-.305 0-.793.118-1.142.247-.349.13-1.13.49-1.95.49-.896 0-1.805-.476-1.805-1.506 0-.671.432-1.005.808-1.005zM9.732 8.512c.345 0 .613.098.794.342-.515-.026-.948.278-1.144.495a1.21 1.21 0 0 0-.54-.126c.052-.351.372-.711.89-.711zm13.422-.63a.6.6 0 0 0-.139.356c0 .221.181.467.468.467.2 0 .397-.187.447-.316.114.102.224.277.224.277l.114-.086a.448.448 0 0 1 .036-.025c-.351-.465-.808-.644-1.15-.673zM12.19 7.674c.448 0 .71.238.863.633a1.73 1.73 0 0 0-.486-.048.926.926 0 0 0-.659.253c-.114-.184-.26-.302-.54-.453.137-.214.386-.385.822-.385z" fill="#FFF" fill-rule="evenodd"/></svg>
