<?xml version="1.0" encoding="UTF-8"?>
<svg width="48px" height="48px" viewBox="0 0 48 48" version="1.1" xmlns="http://www.w3.org/2000/svg" xmlns:xlink="http://www.w3.org/1999/xlink">
    <!-- Generator: Sketch 62 (91390) - https://sketch.com -->
    <title>H_Logo_Bildmarke-mono</title>
    <desc>Created with Sketch.</desc>
    <g id="H_Logo_Bildmarke-mono" stroke="none" stroke-width="1" fill="none" fill-rule="evenodd">
        <path d="M26.1494859,40.3255814 C26.4690471,40.3255814 26.5941755,40.7938689 26.4908782,41.2200272 C26.3817204,41.3060169 26.1667019,41.5272732 25.9651635,42 C25.8143937,41.899498 25.6842105,41.5620366 25.6842105,41.2010746 C25.6842105,40.7439423 25.7804014,40.540339 25.9025996,40.3941345 C25.993735,40.3435592 26.0848703,40.3255814 26.1494859,40.3255814 Z M39.1684083,8.46962744 C39.3300452,8.93925717 39.3866283,9.3835138 39.3866274,10.0346 C39.3866274,11.7535631 38.2507695,13.3381335 35.8331265,13.7317283 L35.759472,13.7432898 C34.4410342,13.942925 33.5108387,14.5362039 32.975704,16.2236237 C33.6814147,15.5765504 34.2324902,15.3910309 35.0369899,15.3259791 C34.7390578,15.5774726 34.6149282,15.7948699 34.5504203,16.1291348 C35.8323662,15.2720911 36.8617168,16.1976015 38.2424516,15.1310957 C37.7565274,17.0993526 33.8456318,16.2630256 33.8456315,19.1055355 C33.8456315,20.0618209 34.4436143,20.7803155 35.1873841,21.0514165 C35.0273137,20.7665665 35.0192964,20.4865146 35.0192964,20.139008 C35.0192964,19.792057 35.4226522,19.0907726 36.4141294,19.0907716 C36.9449326,19.0907716 37.4759198,19.3388059 37.8767871,19.338805 C38.2803259,19.338805 38.563052,19.1819855 38.7938971,18.8397854 C38.7938971,20.2080293 36.4790053,19.85342 36.4790053,21.1399999 C36.4790053,22.0367223 37.4467072,22.5912919 38.0625682,23.0268253 C37.9558546,22.5151641 38.3643702,22.0608066 38.8027438,21.8722889 C39.1899716,21.7061954 39.4550968,21.7436593 39.8908904,21.311261 C39.9939172,21.5085435 40,21.6946592 40,21.9106751 C40,22.6945456 39.0445533,23.3144429 39.0445542,24.2640395 C39.0445542,24.913835 39.4343638,26.3245261 38.386948,27.6183958 C38.7809955,27.3193347 39.2589025,27.2558513 39.6402334,27.4737097 C39.1553217,27.8820237 38.9348001,28.223345 38.6611963,28.5691905 C38.3843681,28.9148498 38.0328017,29.0770694 37.4786847,29.0770684 C37.1590968,29.0770684 36.9266862,28.8826452 36.8210785,28.7729322 C36.5437888,29.0349915 35.9554823,29.2571888 35.1932819,29.2571879 C34.4284101,29.2571879 33.7032544,29.0327758 33.2558502,28.8378933 L33.212422,28.8589447 L33.1701634,28.880099 L33.1290605,28.9013405 C32.4603364,29.2524488 31.9229441,29.8084753 31.9229443,30.7040493 C31.9229443,31.7031042 32.7710314,32.6115433 33.5949745,32.6115442 C33.7851785,32.3944229 34.1585834,32.2247293 34.591705,32.2247303 C35.2487582,32.2247303 35.7683188,32.8214674 35.7683188,33.5534806 C35.7683188,34.2690678 35.5029172,34.5800308 35.5029172,35.3664866 C35.5029172,35.6706227 35.6628951,35.9016765 35.8213991,36.0367673 C35.6090778,36.4080794 34.9987466,36.449047 34.4029749,36.2552729 C34.370168,36.6600804 34.2927592,36.8104859 34.0756463,36.9934675 C33.7587308,36.9275832 33.596173,36.6794563 33.5507409,36.3645257 C33.3875375,36.850073 32.8391328,37.5989704 32.2650175,37.9678844 C32.45513,38.0706779 32.6690176,38.2624224 32.6690177,38.5141484 C32.6690177,38.6207253 32.6367643,38.7191808 32.598244,38.7887568 C32.50524,38.7408524 32.3912525,38.7154845 32.2560195,38.7082672 L32.3142282,38.7384146 C32.3972745,38.824433 32.4210526,38.941944 32.4210526,38.9899479 C32.4210526,39.2186248 32.1050761,39.4636355 31.9249875,39.4883721 C31.799311,39.2458871 31.6969849,39.1762031 31.5811629,39.1312551 C31.5805637,39.1249882 31.580089,39.1187757 31.5797353,39.1126179 C31.495293,39.2565629 31.4429334,39.4308594 31.4540681,39.6243931 C31.1556756,39.7608663 30.8780179,39.544482 30.66671,39.2671069 C30.6514125,39.5799162 30.3348662,40.0342747 30.0179505,40.1204599 C30.2001383,40.5181618 29.8306953,41.0950601 29.5195853,41.1627907 C29.4188151,40.8291144 29.2330143,40.7033297 29.004971,40.6758035 C29.0307753,40.7595305 29.0463727,40.8499354 29.0526316,40.9367451 C28.9925578,41.329604 28.7917913,41.7138255 28.45729,42 C28.4441947,41.61735 28.3489268,41.2142823 28.2105263,40.8059419 L28.2868933,41.0478617 C28.2756806,41.0651209 28.2648802,41.0827755 28.2545043,41.1007823 C28.026793,41.0394194 27.8374185,40.8440739 27.7708836,40.6401489 L27.7491906,40.6594007 C27.5366325,40.8453428 27.2408755,41.0237416 26.839029,40.9383795 C26.9626982,40.5276665 26.6852254,39.8964163 26.0133351,40.0318765 L26.0107722,40.0046536 L26.0085669,39.9777717 C25.9806589,39.6082277 26.063144,39.3343254 26.5765763,39.0633652 C26.3542099,38.9329818 26.1489848,38.7052475 26.1489848,38.3783206 C26.1489848,37.8544788 26.6785896,37.4806741 27.1280219,37.4806759 C27.583351,37.4806759 27.6230701,37.7966223 28.1866794,37.7966232 C28.8875982,37.7966232 30.8586656,36.6579563 30.7699218,34.6312447 C30.4588116,34.8293577 30.2352486,35.1332152 29.9737169,35.6322366 C29.4914787,35.4796153 29.1695872,34.8621133 29.1627676,34.1499418 L29.1446659,34.1932535 L29.1326904,34.2211371 L29.1205675,34.2485939 C29.0004412,34.5164731 28.8504199,34.7218361 28.4196431,34.8467975 C28.4196431,33.9231316 28.188799,33.8050195 27.3108541,32.8625304 C26.3685864,31.8441913 26.2138608,31.0183365 26.2138608,30.0544381 C26.2138608,29.8672017 26.2321455,29.6798094 26.2639922,29.4963629 C26.1971037,29.4958323 26.130324,29.4944883 26.0619716,29.4907664 L25.9755216,29.4853008 L25.9391261,29.4834062 L25.8889193,29.4814706 C25.8283333,29.4795736 25.758923,29.4788762 25.6619585,29.478697 L25.6004882,29.4786463 C24.6769274,29.4786463 24.1053925,30.3377215 24.1053924,30.9668466 C24.1053924,31.6001255 24.5565752,31.5895125 24.5565752,32.7591832 C24.5565752,34.0409659 23.7747006,34.7590429 22.981859,35.3103838 L22.976305,35.2216701 L22.9731765,35.1763247 L22.969756,35.1318009 C22.9487305,34.8743784 22.9069978,34.6563598 22.7429975,34.4334086 C22.5241164,34.7757467 22.1449134,35.1235051 21.7453154,35.2865873 L21.7226758,35.2956199 L21.4720187,34.7966003 C20.90182,35.1906125 19.8385546,35.580469 19.3488058,35.7060561 C19.4949612,36.1357784 19.3921638,36.3385951 19.2190539,36.5771257 L19.2080603,36.5599019 C19.1353465,36.4487836 19.0294932,36.3422139 18.8471932,36.2951898 C18.9113509,36.3665811 18.9448536,36.4343863 18.9448536,36.4343863 C18.9831655,36.7051591 18.5767374,36.9667727 18.2029715,36.9767442 C18.297134,36.7334635 18.2634907,36.608849 18.1644471,36.495105 C18.0802315,36.5769193 18.0161523,36.6666824 17.9775642,36.7395285 C17.6230036,36.6020396 17.4456551,36.3100831 17.3789361,36.013145 C17.2560039,36.153033 16.9582558,36.2346015 16.6770963,36.2346034 C16.774179,37.1403685 16.2572453,37.4352759 15.8985849,37.5220148 C15.9803248,37.0612897 15.6284375,36.7513378 15.3029057,36.7513397 C14.865823,36.7513397 14.6424431,37.0049999 14.5774746,37.1647286 C14.2386268,36.8380776 14.3080644,36.4373294 14.627606,35.9983811 C14.4572612,36.0438719 14.2929971,36.0603876 14.0850072,36.0603895 C13.7287425,36.0603895 13.4332988,35.598093 13.4332988,35.1450282 C13.4332988,34.6590197 13.8594154,34.3034854 14.2412993,34.3034863 C14.4573527,34.3034863 14.7163035,34.3349502 14.946088,34.4629363 C14.8642093,34.3285844 14.8133872,34.0886705 14.8133872,33.8723806 C14.8133872,33.3966139 15.332993,33.2080036 15.7452417,33.2080055 C16.3805466,33.2080055 16.3954749,33.7365509 16.9572424,33.7365528 C17.358155,33.7365528 19.0144733,33.4184843 19.375346,32.4402831 C19.161043,32.4490498 18.9107089,32.3672006 18.7472288,32.2394942 C19.1198508,31.8296116 19.1689225,31.5648755 19.1689225,30.3674326 C19.1689225,28.4095562 21.1762061,26.7000827 23.898969,26.7000817 C24.5169494,26.7000817 24.9600225,26.7355141 25.6329262,26.7355151 C25.8003684,26.7355151 25.9803442,26.5759743 26.143087,26.39004 C26.2052607,26.2197889 26.2753117,26.0675616 26.3524594,25.9323593 C24.1676506,25.7803597 22.4779782,25.2928366 20.7406898,23.590806 C20.7228586,23.9240089 20.6062378,24.2978108 20.2836093,24.4559701 L20.2387263,24.4282843 L20.1948968,24.4015469 L20.1513434,24.3753317 C19.7169468,24.1158255 19.3130312,23.9362066 18.6115791,23.8831311 C18.6670091,24.2816645 18.3180245,24.7292878 18.0955204,24.8545952 L18.0580114,24.8027123 C17.7145708,24.3255155 17.4377292,23.888964 17.0693009,23.9303755 C17.0487038,24.233958 16.8877585,24.4346553 16.715432,24.5534118 L16.5013175,24.4141756 L16.4426757,24.376498 C16.0081372,24.0991926 15.6131622,23.894943 14.8900588,23.8949422 C14.303365,23.8949422 13.7745888,24.1570951 13.6692113,24.2758506 C13.8035248,24.3948849 13.8434733,24.497584 13.8520436,24.7453424 C13.8614433,24.9942063 13.7363917,25.2154786 13.5365105,25.2916064 C13.4061594,25.0393276 13.25761,24.8900276 12.9142912,24.8900285 L12.8987922,24.8902904 C12.7286409,24.896001 12.4981329,24.9959581 12.4218032,25.2728779 L12.4707855,25.2628042 L12.4707855,25.2628042 L12.5678313,25.255814 C12.7982943,25.255814 12.9636569,25.3660465 13.0526316,25.5786044 C12.9959987,25.7624612 12.9334444,25.8841469 12.5329908,26.0930233 C12.4042255,25.9853806 12.265143,25.8270879 12.2166072,25.7208086 C12.2114294,25.6509753 12.2034763,25.5602597 12.2229629,25.477516 C12.0776612,25.4115441 11.9415211,25.3079112 11.8969184,25.1085341 C11.7033502,25.1198841 11.4752238,25.4269712 11.4752247,25.8821621 C11.4752247,26.1109094 11.2836854,26.2744215 11.1125092,26.3132678 C11.0502141,26.1353631 10.8265567,25.8880667 10.5669614,25.8880677 C10.3603562,25.8880677 10.2027624,25.9419874 10.0782882,26.0926322 L10.0942701,26.0930233 C10.2960705,26.0930233 10.4446983,26.2274928 10.5263158,26.4247974 C10.4623466,26.558387 10.4203806,26.7521719 10.440388,26.9296803 C10.0279409,26.9450776 9.64752532,26.6357396 9.68704116,26.3516238 C9.71117315,26.3058753 9.76397636,26.1967412 9.89054271,26.1358845 C9.65955128,25.8442594 9.77129812,25.4263262 9.82088799,25.2177869 C9.64261738,25.2696453 9.47669443,25.1760776 9.44342793,25.0849119 C9.55000378,24.7276257 9.27764275,24.1443608 8.84479985,24.0750617 C8.81296109,23.6032634 9.0586876,23.3711023 9.82678581,23.3959226 C9.52678055,23.2602791 9.22226086,22.9298438 9.22225992,22.5691447 C9.22225992,22.3990886 9.36487136,22.1661891 9.56428889,21.9949705 C9.08314318,22.1959563 8.83297224,22.5279912 8.79947659,22.744186 C8.60432237,22.6648847 8.35463987,22.6238414 8,22.6369349 C8.21304897,22.2510167 8.60257509,21.9069767 9.2514838,21.9069767 C9.43645546,21.9069767 9.58979603,21.9313988 9.68421053,21.9486704 L9.63449963,21.9390602 C9.77470505,21.8358151 9.93563027,21.7659886 10.0921874,21.7659889 C10.4445813,21.7659889 10.7438496,22.285677 11.2393122,22.2856779 C11.56019,22.2856779 12.787073,21.6481537 13.3359849,21.5090972 C13.8866472,21.3681018 14.7250577,20.8241461 15.2852123,20.457908 L15.3066837,20.4409124 C15.6314426,20.8899789 16.1037189,21.1886084 16.6260311,21.2940663 L16.6443658,21.2976297 L16.6396714,21.3093495 C16.5437305,21.5544044 16.5202391,21.8479904 16.563263,22.1440326 C16.6257327,22.5738783 16.8113786,22.9206433 17.0876004,22.9615948 L17.1829961,22.9757377 L17.2540314,22.9104308 C17.5904308,22.6011597 17.9500222,22.4895817 18.4744158,22.4895817 L18.522745,22.4897778 L18.5719661,22.4904082 C18.9456497,22.4969501 19.2352095,22.5432053 19.747454,22.6603429 L19.9934902,22.7172029 C20.5394021,22.8415547 20.8526616,22.8876531 21.2860139,22.8876531 L21.3428434,22.8874846 C23.1384793,22.8768146 24.4862315,22.3593365 25.6583694,21.3791432 L25.7056216,21.3392188 L25.7171337,21.3439983 C26.1474404,21.5200722 26.7398553,21.64075 27.1008891,21.64075 C27.4513031,21.64075 27.7801865,21.5701315 28.0581466,21.4404786 L28.1070589,21.4943333 C28.3891405,21.83095 28.636388,22.0464112 28.9681397,22.2561501 C31.4697346,23.8457598 34.3970768,24.9087591 34.3970771,26.8654373 C34.3970771,27.2071291 34.3122962,27.4911505 34.14642,27.6685931 C34.529409,27.9703302 34.8694552,28.0672172 35.3849609,28.0672182 C36.9241062,28.0672182 38.0714159,26.907054 38.071415,25.3034175 C38.071415,23.6538292 36.2476081,22.9190475 35.0163475,22.1587084 C33.786192,21.3984601 31.9199953,18.9551762 31.9199954,17.1714656 C31.9199954,14.841678 33.1807452,13.7267741 33.9223031,13.0759619 C33.615399,10.7011411 35.366605,9.97518736 35.9629265,9.6974066 L35.9806401,9.68912495 C36.2547034,9.56298603 36.7257,9.26992112 36.9242902,9.16943594 C37.0732095,9.72741847 36.9500934,10.1969121 36.7768449,10.527714 C37.7317377,10.2095982 38.7732538,9.4967323 39.1684083,8.46962744 Z M26.0386663,36.9767442 C26.2319333,36.9767442 26.4328248,37.0146652 26.5263158,37.0652258 C25.9988098,37.2449713 25.5733535,37.8017195 25.6378201,38.2513153 C25.3810219,38.3051236 25.1333191,38.3955753 24.8956473,38.6511628 C24.6856603,37.6973505 25.0988123,36.9767442 26.0386663,36.9767442 Z M15.2187582,36.9767442 C15.5564052,36.9767442 15.6294473,37.2832688 15.5491915,37.4515643 C15.4961838,37.5450757 15.3655082,37.7212066 15.2069565,37.8139535 C14.998417,37.7217799 14.7307529,37.4923324 14.7369477,37.2714206 C14.7677248,37.1779725 14.9181997,36.9767442 15.2187582,36.9767442 Z M12.9558615,34.4651163 C12.7396078,34.765258 12.7866007,35.2776344 13.0526316,35.6143742 C12.8898185,35.7195296 12.7075142,35.8314253 12.5715675,36.1395349 C12.3941002,35.9453356 12.2105263,35.6743504 12.2105263,35.3057402 C12.2105263,34.8050963 12.6685816,34.5102954 12.9558615,34.4651163 Z M14.9984177,32.7906977 C15.3114074,32.7906977 15.4816009,32.8541014 15.5789474,32.906923 C15.0619831,33.043695 14.6808518,33.2620363 14.6847203,33.627907 C14.4737178,33.5662677 14.0977449,33.5711177 13.8947368,33.595103 C13.9449568,33.2001315 14.3130013,32.7906977 14.9984177,32.7906977 Z M8.3675567,24.4186047 C8.75104427,24.4920288 8.90220949,25.1041037 8.82067836,25.4041783 C8.70586961,25.4893162 8.51610142,25.6715169 8.43369622,26.0930233 C8.17383646,25.807068 8,25.4959063 8,25.1041037 C8,24.8149055 8.11992623,24.5318784 8.3675567,24.4186047 Z M28.0496619,6.06922272 C28.2412076,6.18012519 28.5199613,6.5193267 28.5199613,6.86511474 C28.5199613,7.10863526 28.3295149,7.40976177 28.1616549,7.60736641 L28.1505,7.62038492 L28.3378088,7.78010681 C28.6117749,7.47599986 28.7020223,7.24208203 28.7537766,6.98789996 C29.0757204,7.14467427 29.4003347,7.27432145 29.7397757,7.3199622 C29.6795495,7.54462322 29.4985023,7.7613621 29.2911172,7.88198262 C29.9445827,8.21353929 30.2248103,8.60423144 30.8745916,8.91202262 C30.6571692,9.22142578 30.4765821,9.33205188 30.2248103,9.41228163 C30.6002834,9.55365326 30.9061865,10.2726679 31.0427973,10.7372382 L31.0477196,10.7541196 C31.2097967,11.3160938 31.7175762,11.9562708 32.0348239,12.2646157 C31.750268,12.3894731 31.4378098,12.4404101 31.0699129,12.4607215 L31.0783545,12.4813443 C31.2144701,12.8293492 31.2628083,13.7274695 31.017606,15.6221814 C30.9601914,16.0561406 31.104161,16.3906225 31.2473774,16.6172619 L31.2635765,16.642458 L30.2454383,16.642458 C30.1819578,16.9545329 30.0109784,17.4177686 29.7429162,17.7853839 L29.7244889,17.8102975 C29.4795321,18.1344848 29.2668058,18.8752019 29.3449895,19.7191758 C28.9817897,19.7983916 28.5114894,19.6478812 28.2597176,19.442794 C28.0781177,19.9398753 28.3352307,20.6206741 28.5447337,20.8981142 C28.279793,21.2655483 27.7582919,21.4962884 27.1486605,21.4962884 C26.8387804,21.4962884 26.1737114,21.3785692 25.7192515,21.1607249 C24.720636,22.0382738 23.4036678,22.740995 21.3378293,22.740995 C20.2520973,22.740995 19.6477155,22.3436248 18.5281866,22.3436248 C18.0429681,22.3436248 17.5932958,22.4300252 17.1719416,22.8169869 C16.8510106,22.7694578 16.5967059,21.6858549 17.0320579,21.1911222 C16.3409745,21.1652382 15.6121807,20.7536829 15.2845271,19.9438368 C15.8696162,19.6940756 15.9471086,19.3422085 16.2331837,18.6801544 C16.6795866,17.6403049 17.6184823,16.7522551 18.5293832,16.6226541 C18.4382155,16.3655697 18.4012417,15.9962473 18.4012417,15.5472025 C18.4012417,14.8996571 18.8018755,14.3278734 19.166733,14.0306284 L19.2443087,14.1013619 C19.6492093,14.4670317 20.018234,14.7287975 20.9975605,14.7343198 L21.0293298,14.7344089 L21.0293298,13.6853469 C21.364121,13.6853469 22.1547987,14.5237491 23.3052239,14.5237491 L23.3366594,14.5234806 L23.3680745,14.5226723 C23.8442381,14.5062997 24.3036093,14.3022502 24.3036093,13.8450688 C24.3036093,13.3635544 24.0089699,13.2730087 23.8359343,13.2730087 C23.5418013,13.2730087 23.5150495,13.5760564 23.1475214,13.5760564 C22.7740996,13.5760564 22.4301916,13.3083796 22.4301916,13.0106281 C22.4301916,12.7912642 22.5806199,12.6756183 22.9071221,12.6756183 C23.2331641,12.6756183 23.4516916,12.7664404 23.7478049,12.7664404 L23.7757426,12.7662045 L23.8054544,12.7654633 C24.1387944,12.7544294 24.8841861,12.6397365 24.8841861,11.9174458 C24.8841861,10.6872931 23.6838029,10.2607235 23.2610211,10.2947589 C23.3064215,10.6265909 23.0313964,11.347274 22.2527362,11.347274 C21.7068304,11.347274 21.1804484,10.9111703 21.1804484,10.4038192 C21.1804484,10.2324909 21.2033792,10.0331612 21.2946855,9.91254064 L21.3174073,9.8975784 L21.345882,9.87796549 C21.4813631,9.7828918 21.7111365,9.59941348 21.8381896,9.47357224 L21.8506285,9.46110105 L21.7384631,9.33518433 L21.6906371,9.37759186 L21.6418963,9.42035544 C21.5025624,9.54164228 21.3529934,9.66235865 21.1998335,9.74121331 C21.1731732,9.68788056 21.1564133,9.61184156 21.1564133,9.4917285 C21.1564133,9.03664995 21.9362712,8.40282845 22.6415825,7.98703615 C22.8408635,7.49262608 23.7864827,6.44881499 25.6226503,6.44881499 C25.9036751,6.22974637 26.254035,6.1780565 26.6137259,6.17595611 L26.6371966,6.17588822 C26.7189721,6.17588822 26.8219282,6.18169094 26.9496558,6.20729854 L26.901811,6.24756568 L26.7642263,6.36232224 C26.6555221,6.4534726 26.5282697,6.56240872 26.4166064,6.66888216 L26.3991463,6.68563513 L26.5363595,6.84876489 L26.5943618,6.79846988 L26.8965943,6.53233456 C27.0240075,6.42076803 27.1451466,6.317251 27.2178197,6.26537477 L27.2541568,6.24089262 C27.6653268,5.96690756 27.8474927,5.95249221 28.0496619,6.06922272 Z M12.9067147,8.58722875 C13.1997339,8.58722875 13.6643034,8.75396028 13.6643034,9.12961844 C13.6643034,9.50504454 13.4639932,9.92837356 13.4601096,10.2261889 C13.4490119,10.9458598 14.2420207,11.4391496 15.1765215,12.7612711 C15.5011279,13.2212668 17.2076564,14.2503284 18.2896943,14.8136781 L18.3300356,14.8345671 C18.2620553,15.0344337 18.2240827,15.242928 18.2240827,15.4516853 L18.2241532,15.4858956 C18.2255583,15.8249131 18.2480229,16.1082691 18.2950265,16.3394142 L18.3020183,16.3725129 L18.2938143,16.374636 C17.4077017,16.6096843 16.5280805,17.4510934 16.0768577,18.4740088 L16.0484742,18.5397505 L15.8867159,18.9207916 L15.8591578,18.9843273 C15.8553953,18.9928762 15.8521033,19.0002713 15.8493643,19.006312 L15.8315157,19.0450461 C15.7870089,19.1400147 15.7436904,19.2200141 15.6972934,19.2889477 L15.6950676,19.2367169 L15.6925927,19.1936915 L15.6901899,19.1614359 C15.6706151,18.9259262 15.6051242,18.7084329 15.3008134,18.1999069 C15.1606149,18.622037 14.5979254,18.8077936 14.2117796,18.7452443 C14.4980023,17.9551042 14.5507153,17.1256272 14.1910643,16.0804602 C14.1192534,16.6414572 13.7868386,16.737812 13.418679,16.7378129 L13.4182115,16.6910604 L13.4173958,16.6447268 L13.4162229,16.5988196 C13.3938847,15.8449351 13.2118033,14.891143 12.2970926,13.6514977 C12.2192721,13.7679351 12.0442559,13.8578425 11.8679896,13.8578416 C11.0613878,13.8578416 10.6043099,13.0571065 10.6487453,12.5401884 L10.6137324,12.5352835 C10.0432673,12.4513556 9.54491492,12.1788944 9.54491492,11.4878345 C9.54491492,10.9317575 9.98141118,10.7748554 10.3039758,10.7715791 L10.3143409,10.7715263 C10.6375548,10.7715263 10.8412391,10.8228374 11.1104009,10.9749225 C11.0078414,10.5997728 10.8320846,10.4727432 10.67242,10.3676819 L10.5752633,10.3058704 C10.3612724,10.169296 10.1604557,10.0243014 10.1604557,9.7132769 C10.1604557,9.30275394 10.7238839,8.87850616 11.0778483,8.86137136 C11.4267431,8.84573639 11.7268253,9.09312712 11.7346627,9.43711474 L11.7348197,9.45092537 C11.7348197,9.7936034 12.0360701,10.1824779 12.3444419,10.5180181 L12.3517261,10.4692288 C12.3848683,10.2377911 12.4046521,9.95684767 12.3503605,9.75454568 C12.3058323,9.59324748 12.1810792,9.31542133 12.1964753,9.00286432 C12.2131678,8.69026298 12.5675934,8.58722875 12.9067147,8.58722875 Z M10.3641997,13.5348837 C10.567455,13.7127545 10.8248902,13.9013656 11.3684211,13.8956075 C11.1545175,14.2120459 10.8051413,14.372093 10.4935269,14.372093 C10.085515,14.372093 9.77418207,14.0069365 9.68421053,13.8460666 C10.1024491,13.762798 10.1953286,13.6737255 10.3641997,13.5348837 Z M9.50111234,11.0232558 C9.36966333,11.4470418 9.49876267,11.8118567 9.68421053,12.0518933 C9.49180436,12.1376886 9.28005764,12.3509878 9.19483478,12.6976744 C9.04540189,12.5260403 8.84210526,12.2406171 8.84210526,11.8777932 C8.84210526,11.4257121 9.15263054,11.0904479 9.50111234,11.0232558 Z M19.754506,10.1860465 C19.8735791,10.1860465 19.9976816,10.2175403 20.0877975,10.2946721 C19.895955,10.5415238 19.7958738,10.781377 19.7958738,11.0799904 C19.7958738,11.5343744 20.2217247,12.0982111 21.3133584,12.0982111 C21.8708326,12.0982111 22.0924313,12.0059645 22.488808,11.8862076 C22.8841969,11.7666946 23.4036892,11.5780685 23.9728693,11.5780685 C24.432801,11.5780685 24.6317889,11.5987245 24.8008318,11.6243376 C24.8237719,11.7104129 24.8421053,11.8023201 24.8421053,11.9402536 C24.8421053,11.9842394 24.836558,12.0355143 24.832139,12.0625378 C24.5894805,12.0026588 24.3906341,11.9602776 23.8442064,11.9602776 C23.539356,11.9602776 23.0509832,12.07843 22.7016631,12.2071293 C22.3533761,12.3369465 21.5713408,12.6976744 20.7512766,12.6976744 C19.8561854,12.6976744 18.9473684,12.2210298 18.9473684,11.1911442 C18.9473684,10.5200416 19.3790486,10.1860465 19.754506,10.1860465 Z M9.73184877,8.51162791 C10.0773737,8.51162791 10.3452853,8.61032657 10.5263158,8.85363427 C10.0111765,8.82828155 9.57805529,9.13230067 9.38248417,9.34883721 C9.23181314,9.27307282 9.08288262,9.23245877 8.84210526,9.22311888 C8.89376295,8.87202284 9.21374113,8.51162791 9.73184877,8.51162791 Z M23.1539237,7.88162091 C23.0691262,7.97287649 23.0154333,8.13525727 23.0154333,8.23795341 C23.0154333,8.45930868 23.1964169,8.70483005 23.4832798,8.70483005 C23.6825687,8.70483005 23.8801642,8.51752944 23.9296686,8.3894258 C24.0443007,8.49083603 24.1544629,8.66647452 24.1544629,8.66647452 L24.2684716,8.58003273 C24.2887294,8.5649061 24.3036072,8.55407217 24.3039177,8.55464356 C23.9525854,8.08976207 23.4960802,7.91137469 23.1539237,7.88162091 Z M12.1896119,7.6744186 C12.6378928,7.6744186 12.8998171,7.91233674 13.0526316,8.30737543 C12.9108667,8.26654424 12.7614556,8.25856022 12.5669113,8.25856022 C12.3422779,8.25856022 12.0917973,8.32800722 11.9081542,8.51162791 C11.7939125,8.32800722 11.6470674,8.20950566 11.3684211,8.05868487 C11.505155,7.84452476 11.7542052,7.6744186 12.1896119,7.6744186 Z" id="Combined-Shape-Copy" fill="#FFFFFF"></path>
    </g>
</svg>