<?xml version="1.0" encoding="UTF-8"?>
<svg width="223px" height="60px" viewBox="0 0 223 60" version="1.1" xmlns="http://www.w3.org/2000/svg" xmlns:xlink="http://www.w3.org/1999/xlink">
    <!-- Generator: Sketch 62 (91390) - https://sketch.com -->
    <title>H_Logo_Bild-Wort-Marke-long </title>
    <desc>Created with Sketch.</desc>
    <g id="H_Logo_Bild-Wort-Marke-long-" stroke="none" stroke-width="1" fill="none" fill-rule="evenodd">
        <g id="Group" transform="translate(22.000000, 11.000000)" fill="#FFFFFF">
            <path d="M3.76704012,25.7989928 C4.45068814,25.7989928 5.07155216,25.7083048 5.62963217,25.5269288 C6.18771219,25.3455528 6.6655682,25.0769768 7.06320022,24.7212008 C7.46083223,24.3654247 7.76777624,23.9154727 7.98403224,23.3713447 C8.20028825,22.8272167 8.30841625,22.1854247 8.30841625,21.4459687 C8.30841625,20.7065126 8.17587225,20.0682086 7.91078424,19.5310566 C7.64569623,18.9939046 7.31433622,18.5265126 6.91670421,18.1288806 C6.5190722,17.7312485 6.08656019,17.3824485 5.61916817,17.0824805 C5.15177616,16.7825125 4.71926414,16.4930085 4.32163213,16.2139685 C3.92400012,15.9349285 3.59264011,15.6454245 3.3275521,15.3454565 C3.06246409,15.0454885 2.92992009,14.7001765 2.92992009,14.3095204 C2.92992009,13.8770084 3.07641609,13.5491364 3.3694081,13.3259044 C3.66240011,13.1026724 4.08096012,12.9910564 4.62508814,12.9910564 C5.16921616,12.9910564 5.67497617,13.0608164 6.14236819,13.2003364 C6.6097602,13.3398564 6.96204821,13.4933284 7.19923222,13.6607524 L7.19923222,13.6607524 L8.01542425,11.3377443 C7.61081623,11.1005603 7.10156822,10.9122083 6.4876802,10.7726883 C5.87379218,10.6331683 5.21107216,10.5634083 4.49952014,10.5634083 C3.91353612,10.5634083 3.3624321,10.6366563 2.84620809,10.7831523 C2.32998407,10.9296483 1.88352006,11.1598563 1.50681605,11.4737764 C1.13011203,11.7876964 0.833632026,12.1923044 0.617376019,12.6876004 C0.401120012,13.1828964 0.292992009,13.7863204 0.292992009,14.4978724 C0.292992009,15.2652325 0.425536013,15.9140005 0.690624021,16.4441765 C0.955712029,16.9743525 1.28707204,17.4347685 1.68470405,17.8254245 C2.08233606,18.2160806 2.51484808,18.5579046 2.98224009,18.8508966 C3.44963211,19.1438886 3.88214412,19.4299046 4.27977613,19.7089446 C4.67740814,19.9879846 5.00876815,20.2844646 5.27385616,20.5983846 C5.53894417,20.9123046 5.67148817,21.2924967 5.67148817,21.7389607 C5.67148817,22.8272167 4.97388815,23.3713447 3.57868811,23.3713447 C3.02060809,23.3713447 2.49740808,23.2876327 2.00908806,23.1202087 C1.52076805,22.9527847 1.13708803,22.7853607 0.858048026,22.6179367 L0.858048026,22.6179367 L1.08428825e-13,24.9828008 C0.348800011,25.1920808 0.847584026,25.3804328 1.49635205,25.5478568 C2.14512007,25.7152808 2.90201609,25.7989928 3.76704012,25.7989928 Z M13.1427844,25.7780648 C13.6311044,25.7780648 14.1194244,25.7083048 14.6077444,25.5687848 C15.0960645,25.4292648 15.5146245,25.2199848 15.8634245,24.9409448 L15.8634245,24.9409448 L15.3402245,23.0155687 C15.1309445,23.1550887 14.9042245,23.2701927 14.6600644,23.3608807 C14.4159044,23.4515687 14.1194244,23.4969127 13.7706244,23.4969127 C13.1148804,23.4969127 12.6370244,23.1969447 12.3370564,22.5970087 C12.0370884,21.9970727 11.8871044,21.2227366 11.8871044,20.2740006 C11.8871044,19.1438886 12.0336004,18.3242086 12.3265924,17.8149605 C12.6195844,17.3057125 13.0590724,17.0510885 13.6450564,17.0510885 C13.9659524,17.0510885 14.2415044,17.0824805 14.4717124,17.1452645 C14.7019205,17.2080485 14.9425925,17.3022245 15.1937285,17.4277925 L15.1937285,17.4277925 L15.7797125,15.3559205 C15.4727685,15.1884965 15.1204805,15.0489765 14.7228485,14.9373605 C14.3252164,14.8257445 13.8124804,14.7699365 13.1846404,14.7699365 C11.9150084,14.7699365 10.9523203,15.2303525 10.2965763,16.1511845 C9.6408323,17.0720165 9.31296029,18.4462886 9.31296029,20.2740006 C9.31296029,21.1111206 9.37923229,21.8680167 9.51177629,22.5446887 C9.6443203,23.2213607 9.8640643,23.8003687 10.1710083,24.2817127 C10.4779523,24.7630568 10.8720963,25.1327848 11.3534403,25.3908968 C11.8347844,25.6490088 12.4312324,25.7780648 13.1427844,25.7780648 Z M19.5048966,25.5060008 L19.5048966,18.3067686 C19.6025606,17.9440165 19.7909126,17.6440485 20.0699526,17.4068645 C20.3489926,17.1696805 20.6559366,17.0510885 20.9907846,17.0510885 C21.4512007,17.0510885 21.7686087,17.2185125 21.9430087,17.5533605 C22.1174087,17.8882085 22.2046087,18.4323366 22.2046087,19.1857446 L22.2046087,19.1857446 L22.2046087,25.5060008 L24.6950408,25.5060008 L24.6950408,18.6416166 C24.6950408,17.8882085 24.6392328,17.2638565 24.5276168,16.7685605 C24.4160007,16.2732645 24.2485767,15.8791205 24.0253447,15.5861285 C23.8021127,15.2931365 23.5300487,15.0838565 23.2091527,14.9582885 C22.8882567,14.8327205 22.5115527,14.7699365 22.0790407,14.7699365 C21.4791047,14.7699365 20.9803206,14.8815525 20.5826886,15.1047845 C20.1850566,15.3280165 19.8467206,15.6210085 19.5676806,15.9837605 L19.5676806,15.9837605 L19.5048966,15.9837605 L19.5048966,10.8564003 L17.0144645,10.8564003 L17.0144645,25.5060008 L19.5048966,25.5060008 Z M29.0689929,25.7780648 C29.7386889,25.7780648 30.3002569,25.6176168 30.7536969,25.2967208 C31.207137,24.9758248 31.566401,24.5712168 31.831489,24.0828967 L31.831489,24.0828967 L31.894273,24.0828967 L32.333761,25.5060008 L34.217281,25.5060008 C34.105665,25.0595368 34.028929,24.5607528 33.987073,24.0096487 C33.945217,23.4585447 33.924289,22.8969767 33.924289,22.3249447 L33.924289,22.3249447 L33.924289,15.0420005 L31.433857,15.0420005 L31.433857,22.0319527 C31.322241,22.4365607 31.133889,22.7818727 30.8688009,23.0678887 C30.6037129,23.3539047 30.2758409,23.4969127 29.8851849,23.4969127 C29.4805769,23.4969127 29.2015369,23.3364647 29.0480649,23.0155687 C28.8945929,22.6946727 28.8178569,22.1226407 28.8178569,21.2994727 L28.8178569,21.2994727 L28.8178569,15.0420005 L26.3274248,15.0420005 L26.3274248,21.8436007 C26.3274248,22.6249127 26.3902088,23.2701927 26.5157768,23.7794407 C26.6413448,24.2886887 26.8227208,24.6898088 27.0599048,24.9828008 C27.2970888,25.2757928 27.5831048,25.4815848 27.9179529,25.6001768 C28.2528009,25.7187688 28.6364809,25.7780648 29.0689929,25.7780648 Z M37.8796812,25.7571368 C38.2982412,25.7571368 38.7098252,25.7083048 39.1144332,25.6106408 C39.5190412,25.5129768 39.8050572,25.4083368 39.9724812,25.2967208 L39.9724812,25.2967208 L39.7422732,23.2876327 C39.5748492,23.3573927 39.4248652,23.4062247 39.2923212,23.4341287 C39.1597772,23.4620327 39.0307212,23.4759847 38.9051532,23.4759847 C38.6819212,23.4759847 38.5214732,23.3713447 38.4238092,23.1620647 C38.3261452,22.9527847 38.2773132,22.6039847 38.2773132,22.1156647 L38.2773132,22.1156647 L38.2773132,10.8564003 L35.7868811,10.8564003 L35.7868811,23.4550567 C35.7868811,24.2921767 35.9612811,24.8851368 36.3100811,25.2339368 C36.6588811,25.5827368 37.1820811,25.7571368 37.8796812,25.7571368 Z M45.2254094,20.6925606 L45.2254094,18.3067686 L40.8723853,18.3067686 L40.8723853,20.6925606 L45.2254094,20.6925606 Z M52.1525776,25.7989928 C52.7525136,25.7989928 53.3559376,25.7292328 53.9628497,25.5897128 C54.5697617,25.4501928 55.0545937,25.2269608 55.4173457,24.9200168 L55.4173457,24.9200168 L54.8941457,22.7016487 C54.6151057,22.8830247 54.3011857,23.0399847 53.9523857,23.1725287 C53.6035856,23.3050727 53.1850256,23.3713447 52.6967056,23.3713447 C52.1386256,23.3713447 51.6607696,23.2457767 51.2631376,22.9946407 C50.8655056,22.7435047 50.5376335,22.3877287 50.2795215,21.9273127 C50.0214095,21.4668967 49.8330575,20.9192806 49.7144655,20.2844646 C49.5958735,19.6496486 49.5365775,18.9485606 49.5365775,18.1812006 C49.5365775,16.3953445 49.7946895,15.0838565 50.3109135,14.2467364 C50.8271376,13.4096164 51.5665936,12.9910564 52.5292816,12.9910564 C53.0176016,12.9910564 53.4396496,13.0294244 53.7954256,13.1061604 C54.1512017,13.1828964 54.4616337,13.2910244 54.7267217,13.4305444 L54.7267217,13.4305444 L55.2499217,11.1075363 C54.9290257,10.9680163 54.5139537,10.8424483 54.0047057,10.7308323 C53.4954576,10.6192163 52.8990096,10.5634083 52.2153616,10.5634083 C51.5456656,10.5634083 50.8829456,10.6820003 50.2272015,10.9191843 C49.5714575,11.1563683 48.9889615,11.5644644 48.4797135,12.1434724 C47.9704655,12.7224804 47.5588815,13.5003044 47.2449614,14.4769444 C46.9310414,15.4535845 46.7740814,16.6813605 46.7740814,18.1602726 C46.7740814,19.5833766 46.9136014,20.7832486 47.1926414,21.7598887 C47.4716815,22.7365287 47.8553615,23.5248167 48.3436815,24.1247527 C48.8320015,24.7246888 49.4005455,25.1537128 50.0493135,25.4118248 C50.6980816,25.6699368 51.3991696,25.7989928 52.1525776,25.7989928 Z M58.7658258,25.7571368 C59.1843858,25.7571368 59.5959698,25.7083048 60.0005778,25.6106408 C60.4051858,25.5129768 60.6912019,25.4083368 60.8586259,25.2967208 L60.8586259,25.2967208 L60.6284179,23.2876327 C60.4609939,23.3573927 60.3110098,23.4062247 60.1784658,23.4341287 C60.0459218,23.4620327 59.9168658,23.4759847 59.7912978,23.4759847 C59.5680658,23.4759847 59.4076178,23.3713447 59.3099538,23.1620647 C59.2122898,22.9527847 59.1634578,22.6039847 59.1634578,22.1156647 L59.1634578,22.1156647 L59.1634578,10.8564003 L56.6730257,10.8564003 L56.6730257,23.4550567 C56.6730257,24.2921767 56.8474257,24.8851368 57.1962258,25.2339368 C57.5450258,25.5827368 58.0682258,25.7571368 58.7658258,25.7571368 Z M65.462786,25.7780648 C66.774274,25.7780648 67.7927701,25.3281128 68.5182741,24.4282087 C69.2437781,23.5283047 69.6065301,22.1435687 69.6065301,20.2740006 C69.6065301,18.4462886 69.2647061,17.0720165 68.5810581,16.1511845 C67.8974101,15.2303525 66.857986,14.7699365 65.462786,14.7699365 C64.16525,14.7699365 63.1537299,15.2233765 62.4282259,16.1302565 C61.7027219,17.0371365 61.3399699,18.4183846 61.3399699,20.2740006 C61.3399699,23.9433767 62.7142419,25.7780648 65.462786,25.7780648 Z M65.462786,23.5596967 C64.904706,23.5596967 64.507074,23.2736807 64.26989,22.7016487 C64.032706,22.1296167 63.914114,21.3204007 63.914114,20.2740006 C63.914114,19.0741286 64.050146,18.2265446 64.32221,17.7312485 C64.594274,17.2359525 64.974466,16.9883045 65.462786,16.9883045 C66.034818,16.9883045 66.439426,17.2673445 66.67661,17.8254245 C66.913794,18.3835046 67.0323861,19.1996966 67.0323861,20.2740006 C67.0323861,21.4738727 66.90333,22.3214567 66.645218,22.8167527 C66.387106,23.3120487 65.992962,23.5596967 65.462786,23.5596967 Z M73.6874903,25.7780648 C74.3571863,25.7780648 74.9187543,25.6176168 75.3721943,25.2967208 C75.8256343,24.9758248 76.1848983,24.5712168 76.4499863,24.0828967 L76.4499863,24.0828967 L76.5127703,24.0828967 L76.9522584,25.5060008 L78.8357784,25.5060008 C78.7241624,25.0595368 78.6474264,24.5607528 78.6055704,24.0096487 C78.5637144,23.4585447 78.5427864,22.8969767 78.5427864,22.3249447 L78.5427864,22.3249447 L78.5427864,15.0420005 L76.0523543,15.0420005 L76.0523543,22.0319527 C75.9407383,22.4365607 75.7523863,22.7818727 75.4872983,23.0678887 C75.2222103,23.3539047 74.8943383,23.4969127 74.5036823,23.4969127 C74.0990743,23.4969127 73.8200343,23.3364647 73.6665623,23.0155687 C73.5130903,22.6946727 73.4363542,22.1226407 73.4363542,21.2994727 L73.4363542,21.2994727 L73.4363542,15.0420005 L70.9459222,15.0420005 L70.9459222,21.8436007 C70.9459222,22.6249127 71.0087062,23.2701927 71.1342742,23.7794407 C71.2598422,24.2886887 71.4412182,24.6898088 71.6784022,24.9828008 C71.9155862,25.2757928 72.2016022,25.4815848 72.5364502,25.6001768 C72.8712982,25.7187688 73.2549782,25.7780648 73.6874903,25.7780648 Z M83.3980826,25.7780648 C84.5840026,25.7780648 85.4141466,25.2897448 85.8885146,24.3131047 L85.8885146,24.3131047 L85.9722266,24.3131047 L86.3070746,25.5269288 L88.0650267,25.5269288 C87.9673627,24.8153768 87.9115547,24.1666087 87.8976027,23.5806247 C87.8836507,22.9946407 87.8766747,22.4086567 87.8766747,21.8226727 L87.8766747,21.8226727 L87.8766747,10.8564003 L85.3862426,10.8564003 L85.3862426,15.0838565 C85.1769626,14.9861925 84.9607066,14.9164325 84.7374746,14.8745765 C84.5142426,14.8327205 84.2352026,14.8117925 83.9003546,14.8117925 C82.6028185,14.8117925 81.6261785,15.2896485 80.9704345,16.2453605 C80.3146905,17.2010725 79.9868184,18.5997606 79.9868184,20.4414246 C79.9868184,22.3249447 80.2902745,23.6852647 80.8971865,24.5223848 C81.5040985,25.3595048 82.3377305,25.7780648 83.3980826,25.7780648 Z M83.9840666,23.4969127 C83.4957466,23.4969127 83.1364825,23.2422887 82.9062745,22.7330407 C82.6760665,22.2237927 82.5609625,21.4878247 82.5609625,20.5251366 C82.5609625,19.2415526 82.7004825,18.3486246 82.9795225,17.8463525 C83.2585625,17.3440805 83.6771226,17.0929445 84.2352026,17.0929445 C84.5142426,17.0929445 84.7409626,17.1208485 84.9153626,17.1766565 C85.0897626,17.2324645 85.2467226,17.3231525 85.3862426,17.4487205 L85.3862426,17.4487205 L85.3862426,22.3877287 C85.2746266,22.7504807 85.1072026,23.0260327 84.8839706,23.2143847 C84.6607386,23.4027367 84.3607706,23.4969127 83.9840666,23.4969127 Z M130.297732,25.5060008 L130.297732,18.7462566 L135.697156,18.7462566 L135.697156,25.5060008 L137.266756,25.5060008 L137.266756,10.8564003 L135.697156,10.8564003 L135.697156,17.3022245 L130.297732,17.3022245 L130.297732,10.8564003 L128.728132,10.8564003 L128.728132,25.5060008 L130.297732,25.5060008 Z M143.18938,25.7571368 C143.761412,25.7571368 144.30554,25.6734248 144.821764,25.5060008 C145.337988,25.3385768 145.763524,25.1013928 146.098372,24.7944488 L146.098372,24.7944488 L145.554244,23.6852647 C145.358916,23.8805927 145.076388,24.0480167 144.70666,24.1875367 C144.336932,24.3270567 143.963716,24.3968167 143.587012,24.3968167 C143.098692,24.3968167 142.690596,24.3026407 142.362724,24.1142887 C142.034852,23.9259367 141.766276,23.6608487 141.556996,23.3190247 C141.347716,22.9772007 141.194244,22.5621287 141.09658,22.0738087 C140.998916,21.5854887 140.950084,21.0413606 140.950084,20.4414246 L140.950084,20.4414246 L146.265796,20.4414246 C146.2937,20.1484326 146.318116,19.8659046 146.339044,19.5938406 C146.359972,19.3217766 146.370436,19.0671526 146.370436,18.8299686 C146.370436,17.9788966 146.27626,17.2882725 146.087908,16.7580965 C145.899556,16.2279205 145.651908,15.8163365 145.344964,15.5233445 C145.03802,15.2303525 144.692708,15.0350245 144.309028,14.9373605 C143.925348,14.8396965 143.53818,14.7908645 143.147524,14.7908645 C141.947652,14.7908645 141.019844,15.2582565 140.3641,16.1930405 C139.708356,17.1278245 139.380484,18.4881446 139.380484,20.2740006 C139.380484,21.1111206 139.453732,21.8645287 139.600228,22.5342247 C139.746724,23.2039207 139.976932,23.7794407 140.290852,24.2607847 C140.604772,24.7421288 141.002404,25.1118568 141.483748,25.3699688 C141.965092,25.6280808 142.533636,25.7571368 143.18938,25.7571368 Z M144.926404,19.1857446 L140.971012,19.1857446 C141.040772,18.1393446 141.264004,17.3719845 141.640708,16.8836645 C142.017412,16.3953445 142.52666,16.1511845 143.168452,16.1511845 C143.726532,16.1511845 144.16602,16.3953445 144.486916,16.8836645 C144.807812,17.3719845 144.954308,18.1393446 144.926404,19.1857446 L144.926404,19.1857446 Z M150.576965,25.7571368 C151.093189,25.7571368 151.543141,25.6804008 151.926821,25.5269288 C152.310501,25.3734568 152.631397,25.1676648 152.889509,24.9095528 C153.147621,24.6514408 153.339461,24.3479847 153.465029,23.9991847 C153.590597,23.6503847 153.653381,23.2806567 153.653381,22.8900007 C153.653381,22.2900647 153.555717,21.7912807 153.360389,21.3936487 C153.165061,20.9960166 152.917413,20.6541926 152.617445,20.3681766 C152.317477,20.0821606 151.993093,19.8345126 151.644293,19.6252326 C151.295493,19.4159526 150.971109,19.2101606 150.671141,19.0078566 C150.371173,18.8055526 150.123525,18.5823206 149.928197,18.3381606 C149.732869,18.0940006 149.635205,17.7975205 149.635205,17.4487205 C149.635205,17.0022565 149.750309,16.6743845 149.980517,16.4651045 C150.210725,16.2558245 150.576965,16.1511845 151.079237,16.1511845 C151.441989,16.1511845 151.797765,16.1965285 152.146565,16.2872165 C152.495365,16.3779045 152.802309,16.4930085 153.067397,16.6325285 L153.067397,16.6325285 L153.465029,15.3768485 C153.158085,15.1954725 152.795333,15.0524645 152.376773,14.9478245 C151.958213,14.8431845 151.462917,14.7908645 150.890885,14.7908645 C150.011909,14.7908645 149.331749,15.0175845 148.850405,15.4710245 C148.369061,15.9244645 148.128389,16.5976485 148.128389,17.4905765 C148.128389,18.0486566 148.226053,18.5090726 148.421381,18.8718246 C148.616709,19.2345766 148.864357,19.5484966 149.164325,19.8135846 C149.464293,20.0786726 149.788677,20.3053926 150.137477,20.4937446 C150.486277,20.6820966 150.810661,20.8878886 151.110629,21.1111206 C151.410597,21.3343527 151.658245,21.5854887 151.853573,21.8645287 C152.048901,22.1435687 152.146565,22.4993447 152.146565,22.9318567 C152.146565,23.4480807 151.986117,23.8212967 151.665221,24.0515047 C151.344325,24.2817127 150.953669,24.3968167 150.493253,24.3968167 C150.088645,24.3968167 149.694501,24.3375207 149.310821,24.2189287 C148.927141,24.1003367 148.595781,23.9573287 148.316741,23.7899047 L148.316741,23.7899047 L147.856325,25.1083688 C148.163269,25.3036968 148.539973,25.4606568 148.986437,25.5792488 C149.432901,25.6978408 149.963077,25.7571368 150.576965,25.7571368 Z M157.650629,25.7571368 C158.166853,25.7571368 158.616805,25.6804008 159.000485,25.5269288 C159.384165,25.3734568 159.705061,25.1676648 159.963173,24.9095528 C160.221285,24.6514408 160.413125,24.3479847 160.538693,23.9991847 C160.664261,23.6503847 160.727045,23.2806567 160.727045,22.8900007 C160.727045,22.2900647 160.629381,21.7912807 160.434053,21.3936487 C160.238725,20.9960166 159.991077,20.6541926 159.691109,20.3681766 C159.391141,20.0821606 159.066757,19.8345126 158.717957,19.6252326 C158.369157,19.4159526 158.044773,19.2101606 157.744805,19.0078566 C157.444837,18.8055526 157.197189,18.5823206 157.001861,18.3381606 C156.806533,18.0940006 156.708869,17.7975205 156.708869,17.4487205 C156.708869,17.0022565 156.823973,16.6743845 157.054181,16.4651045 C157.284389,16.2558245 157.650629,16.1511845 158.152901,16.1511845 C158.515653,16.1511845 158.871429,16.1965285 159.220229,16.2872165 C159.569029,16.3779045 159.875973,16.4930085 160.141061,16.6325285 L160.141061,16.6325285 L160.538693,15.3768485 C160.231749,15.1954725 159.868997,15.0524645 159.450437,14.9478245 C159.031877,14.8431845 158.536581,14.7908645 157.964549,14.7908645 C157.085573,14.7908645 156.405413,15.0175845 155.924069,15.4710245 C155.442725,15.9244645 155.202053,16.5976485 155.202053,17.4905765 C155.202053,18.0486566 155.299717,18.5090726 155.495045,18.8718246 C155.690373,19.2345766 155.938021,19.5484966 156.237989,19.8135846 C156.537957,20.0786726 156.862341,20.3053926 157.211141,20.4937446 C157.559941,20.6820966 157.884325,20.8878886 158.184293,21.1111206 C158.484261,21.3343527 158.731909,21.5854887 158.927237,21.8645287 C159.122565,22.1435687 159.220229,22.4993447 159.220229,22.9318567 C159.220229,23.4480807 159.059781,23.8212967 158.738885,24.0515047 C158.417989,24.2817127 158.027333,24.3968167 157.566917,24.3968167 C157.162309,24.3968167 156.768165,24.3375207 156.384485,24.2189287 C156.000805,24.1003367 155.669445,23.9573287 155.390405,23.7899047 L155.390405,23.7899047 L154.929989,25.1083688 C155.236933,25.3036968 155.613637,25.4606568 156.060101,25.5792488 C156.506565,25.6978408 157.036741,25.7571368 157.650629,25.7571368 Z M165.979973,25.7571368 C166.552005,25.7571368 167.096133,25.6734248 167.612357,25.5060008 C168.128581,25.3385768 168.554117,25.1013928 168.888965,24.7944488 L168.888965,24.7944488 L168.344837,23.6852647 C168.149509,23.8805927 167.866981,24.0480167 167.497253,24.1875367 C167.127525,24.3270567 166.754309,24.3968167 166.377605,24.3968167 C165.889285,24.3968167 165.481189,24.3026407 165.153317,24.1142887 C164.825445,23.9259367 164.556869,23.6608487 164.347589,23.3190247 C164.138309,22.9772007 163.984837,22.5621287 163.887173,22.0738087 C163.789509,21.5854887 163.740677,21.0413606 163.740677,20.4414246 L163.740677,20.4414246 L169.056389,20.4414246 C169.084293,20.1484326 169.108709,19.8659046 169.129637,19.5938406 C169.150565,19.3217766 169.161029,19.0671526 169.161029,18.8299686 C169.161029,17.9788966 169.066853,17.2882725 168.878501,16.7580965 C168.690149,16.2279205 168.442501,15.8163365 168.135557,15.5233445 C167.828613,15.2303525 167.483301,15.0350245 167.099621,14.9373605 C166.715941,14.8396965 166.328773,14.7908645 165.938117,14.7908645 C164.738245,14.7908645 163.810437,15.2582565 163.154693,16.1930405 C162.498949,17.1278245 162.171077,18.4881446 162.171077,20.2740006 C162.171077,21.1111206 162.244325,21.8645287 162.390821,22.5342247 C162.537317,23.2039207 162.767525,23.7794407 163.081445,24.2607847 C163.395365,24.7421288 163.792997,25.1118568 164.274341,25.3699688 C164.755685,25.6280808 165.324229,25.7571368 165.979973,25.7571368 Z M167.716997,19.1857446 L163.761605,19.1857446 C163.831365,18.1393446 164.054597,17.3719845 164.431301,16.8836645 C164.808005,16.3953445 165.317253,16.1511845 165.959045,16.1511845 C166.517125,16.1511845 166.956613,16.3953445 167.277509,16.8836645 C167.598405,17.3719845 167.744901,18.1393446 167.716997,19.1857446 L167.716997,19.1857446 Z M172.781573,25.5060008 L172.781573,17.8882085 C172.948997,17.3998885 173.214085,16.9883045 173.576837,16.6534565 C173.939589,16.3186085 174.400005,16.1511845 174.958085,16.1511845 C175.585925,16.1511845 176.021925,16.3848805 176.266085,16.8522725 C176.510245,17.3196645 176.632325,18.0765606 176.632325,19.1229606 L176.632325,19.1229606 L176.632325,25.5060008 L178.139141,25.5060008 L178.139141,18.7253286 C178.139141,17.9579685 178.079845,17.3231525 177.961253,16.8208805 C177.842661,16.3186085 177.668261,15.9174885 177.438053,15.6175205 C177.207845,15.3175525 176.921829,15.1047845 176.580005,14.9792165 C176.238181,14.8536485 175.844037,14.7908645 175.397573,14.7908645 C174.769733,14.7908645 174.229093,14.9234085 173.775653,15.1884965 C173.322213,15.4535845 172.962949,15.7744805 172.697861,16.1511845 L172.697861,16.1511845 L172.635077,16.1511845 L172.363013,15.0420005 L171.274757,15.0420005 L171.274757,25.5060008 L172.781573,25.5060008 Z" id="Schul-CloudHessen" fill-rule="nonzero"></path>
            <path d="M110.798877,35.3362802 C111.125429,35.3362802 111.253295,35.8183562 111.147738,36.2570624 C111.036192,36.3455841 110.81647,36.5733551 110.610523,37.0600011 C110.456455,36.95654 110.323424,36.6091421 110.323424,36.2375518 C110.323424,35.7669595 110.421719,35.5573611 110.54659,35.4068518 C110.639719,35.3547873 110.732848,35.3362802 110.798877,35.3362802 Z M124.102589,2.54234433 C124.267762,3.02580206 124.325583,3.48313959 124.325582,4.15339671 C124.325582,5.92297376 123.164877,7.55420104 120.694348,7.959385 L120.619082,7.9712869 C119.271804,8.17680029 118.32126,8.78754794 117.774419,10.524653 C118.495567,9.85852693 119.058698,9.66754487 119.880796,9.60057762 C119.576346,9.85947629 119.449501,10.0832747 119.383582,10.4273819 C120.693571,9.54510295 121.745439,10.4978645 123.156377,9.399956 C122.659823,11.4261672 118.663377,10.565215 118.663376,13.4914211 C118.663376,14.4758639 119.27444,15.2155142 120.03448,15.4945976 C119.870908,15.2013603 119.862715,14.9130624 119.862715,14.5553236 C119.862715,14.1981569 120.274894,13.4762235 121.28806,13.4762225 C121.830475,13.4762225 122.373077,13.7315601 122.782714,13.7315591 C123.19508,13.7315591 123.483991,13.5701222 123.719885,13.2178462 C123.719885,14.6263773 121.354355,14.2613266 121.354355,15.5857892 C121.354355,16.5089152 122.343226,17.0798138 122.972559,17.5281713 C122.863511,17.0014444 123.280963,16.5337086 123.728926,16.3396402 C124.124624,16.1686561 124.395549,16.2072231 124.840876,15.7620931 C124.946156,15.9651844 124.952372,16.1567802 124.952372,16.3791565 C124.952372,17.1861078 123.976025,17.8242576 123.976026,18.8018146 C123.976026,19.470743 124.374362,20.9229711 123.304034,22.2549382 C123.706702,21.9470713 124.195063,21.8817187 124.584735,22.1059918 C124.089216,22.5263284 123.863871,22.8776998 123.584282,23.2337285 C123.301398,23.5895656 122.942141,23.7565616 122.375903,23.7565606 C122.049324,23.7565606 121.811829,23.5564127 121.703911,23.4434693 C121.420556,23.7132448 120.81938,23.9419846 120.040507,23.9419836 C119.258903,23.9419836 118.517885,23.7109638 118.060694,23.5103432 L118.016315,23.5320143 L117.973132,23.5537915 L117.93113,23.5756585 C117.247778,23.937105 116.69863,24.5095034 116.69863,25.4314471 C116.69863,26.4599187 117.565269,27.3951062 118.407236,27.3951072 C118.601601,27.1715928 118.983174,26.9969027 119.42577,26.9969037 C120.097196,26.9969037 120.628122,27.6112115 120.628122,28.3647784 C120.628122,29.1014357 120.356915,29.4215548 120.356915,30.2311674 C120.356915,30.5442587 120.520393,30.7821157 120.682364,30.9211841 C120.465398,31.3034294 119.841716,31.3456032 119.232912,31.1461235 C119.199387,31.5628504 119.120285,31.7176846 118.898423,31.9060539 C118.574575,31.8382297 118.408461,31.5827968 118.362035,31.2585932 C118.195262,31.7584372 117.63486,32.5293855 117.048186,32.909162 C117.242458,33.0149822 117.461024,33.2123725 117.461024,33.4715105 C117.461024,33.5812254 117.428065,33.68258 117.388702,33.7542046 C117.293656,33.7048859 117.177165,33.6787708 117.03896,33.6713433 L117.098473,33.7023801 C117.183336,33.7909313 117.207635,33.9119023 117.207635,33.9613196 C117.207635,34.1967298 116.884746,34.4489547 116.700718,34.4744197 C116.572292,34.2247949 116.467728,34.153059 116.349372,34.1067875 C116.348772,34.1004665 116.348295,34.0941991 116.347936,34.0879858 C116.261752,34.2353558 116.208106,34.4149752 116.219497,34.6144457 C115.914578,34.7549373 115.630846,34.5321816 115.414916,34.2466394 C115.399284,34.5686593 115.075813,35.0363961 114.751965,35.125119 C114.938138,35.534531 114.560613,36.1284158 114.242698,36.1981406 C114.139665,35.8544461 113.949644,35.7250054 113.716433,35.6967666 C113.743218,35.783144 113.759138,35.8761394 113.765529,35.9654393 C113.704141,36.3698656 113.498983,36.7654004 113.157165,37.0600011 C113.143783,36.6660842 113.046431,36.2511483 112.905003,35.8307846 L112.982572,36.0805553 C112.971281,36.0980912 112.960401,36.1160224 112.949943,36.1343065 C112.717251,36.0711367 112.523733,35.8700394 112.455743,35.6601099 L112.433576,35.6799286 C112.216368,35.8713457 111.914141,36.0549973 111.503504,35.9671218 C111.629879,35.5443155 111.346336,34.8944785 110.659748,35.0339273 L110.657129,35.0059028 L110.654876,34.9782294 C110.626357,34.5978044 110.710647,34.3158372 111.23531,34.0368987 C111.00808,33.9026762 110.798365,33.6682364 110.798365,33.3316833 C110.798365,32.7924172 111.339555,32.407606 111.798819,32.4076079 C112.264108,32.4076079 112.304696,32.7328572 112.880635,32.7328581 C113.596886,32.7328581 115.61107,31.5606637 115.520385,29.4742767 C115.20247,29.6782231 114.974016,29.9910274 114.706764,30.5047423 C114.213976,30.3476271 113.885043,29.7119431 113.878075,28.9788021 L113.859577,29.0233891 L113.84734,29.0520937 L113.834951,29.0803589 C113.712197,29.3561257 113.558894,29.5675355 113.118694,29.6961764 C113.118694,28.7453136 112.8828,28.6237237 111.98565,27.6534835 C111.022771,26.60516 110.86466,25.7549883 110.86466,24.7627084 C110.86466,24.5699589 110.883345,24.377049 110.915888,24.188201 C110.847537,24.1876548 110.779296,24.1862712 110.709449,24.1824397 L110.621108,24.1768132 L110.583916,24.1748628 L110.532611,24.1728702 C110.470699,24.1709174 110.399771,24.1701994 110.300685,24.170015 L110.23787,24.1699627 C109.294107,24.1699627 108.710069,25.054333 108.710069,25.7019823 C108.710069,26.3539078 109.171122,26.3429823 109.171122,27.5470933 C109.171122,28.8666174 108.372144,29.6058378 107.561958,30.1734127 L107.556283,30.0820869 L107.553086,30.0354063 L107.549591,29.9895715 C107.528105,29.7245694 107.48546,29.5001313 107.317872,29.2706154 C107.094203,29.6230334 106.706705,29.9810315 106.298365,30.1489155 L106.275231,30.158214 L106.01909,29.6445011 C105.436419,30.0501147 104.349894,30.4514504 103.849432,30.5807353 C103.998785,31.0231106 103.893739,31.2318991 103.716842,31.4774532 L103.705608,31.4597222 C103.631155,31.3451039 103.522703,31.235187 103.335731,31.1869269 C103.402356,31.2606028 103.436643,31.3305108 103.436643,31.3305108 C103.475793,31.6092564 103.060475,31.8785731 102.678533,31.8888382 C102.774603,31.6387903 102.740484,31.5105166 102.639645,31.393573 C102.55352,31.4766586 102.487751,31.5694106 102.448195,31.6446379 C102.085878,31.5031006 101.90465,31.2025476 101.836471,30.8968664 C101.71085,31.0408733 101.406589,31.1248435 101.119279,31.1248455 C101.218485,32.0572803 100.690244,32.3608711 100.323737,32.450164 C100.407265,31.9758731 100.047681,31.6567948 99.7150278,31.6567967 C99.2683839,31.6567967 99.0401175,31.9179258 98.9737279,32.0823577 C98.6274678,31.7460887 98.6984243,31.3335406 99.024956,30.8816678 C98.8508848,30.928498 98.6830275,30.9455 98.4704877,30.9455019 C98.1064297,30.9455019 97.8045232,30.4695934 97.8045232,30.0031883 C97.8045232,29.5028695 98.2399611,29.1368667 98.6301987,29.1368676 C98.8509783,29.1368676 99.1155937,29.1692579 99.3504047,29.3010126 C99.266735,29.1627048 99.2148011,28.9157267 99.2148011,28.6930683 C99.2148011,28.2032928 99.7457733,28.009129 100.16704,28.009131 C100.816242,28.009131 100.831497,28.5532392 101.405553,28.5532411 C101.815236,28.5532411 103.507786,28.2258072 103.876553,27.2188034 C103.657562,27.2278282 103.401752,27.143569 103.234696,27.0121023 C103.615469,26.590151 103.665614,26.3176198 103.665614,25.0849189 C103.665614,23.0693939 105.716807,21.3095858 108.49913,21.3095848 C109.130629,21.3095848 109.583394,21.3460605 110.271018,21.3460615 C110.442123,21.3460615 110.626036,21.1818231 110.792338,20.990414 C110.855872,20.81515 110.927456,20.6584405 111.006291,20.5192572 C108.773689,20.3627821 107.047055,19.8609041 105.271764,18.1087581 C105.253542,18.4517719 105.13437,18.8365802 104.804684,18.9993965 L104.75882,18.9708954 L104.714031,18.9433708 L104.669525,18.9163837 C104.225626,18.6492365 103.812875,18.4643288 103.096079,18.4096905 C103.152721,18.8199585 102.796102,19.2807618 102.568731,19.4097589 L102.530402,19.3563483 C102.179448,18.8651007 101.896551,18.4156951 101.520063,18.458326 C101.499015,18.7708473 101.334549,18.9774541 101.158453,19.0997073 L100.939655,18.9563714 L100.87973,18.9175844 C100.435686,18.6321138 100.032071,18.4218502 99.2931498,18.4218494 C98.6936222,18.4218494 98.1532789,18.6917212 98.0455963,18.8139735 C98.182848,18.9365127 98.2236703,19.0422356 98.232428,19.2972892 C98.2420333,19.5534808 98.1142463,19.7812683 97.9099927,19.8596376 C97.7767902,19.5999306 97.6249912,19.4462345 97.2741623,19.4462355 L97.2583242,19.4465051 C97.0842997,19.4523889 96.8484911,19.555463 96.7706982,19.8411013 L96.8209549,19.8299874 L96.8209549,19.8299874 L96.9201236,19.8227913 C97.155628,19.8227913 97.3246079,19.9362696 97.4155289,20.1550862 C97.3576571,20.3443565 97.2937345,20.4696252 96.8845209,20.6846518 C96.7529389,20.5738397 96.610814,20.4108862 96.5612164,20.3014775 C96.5559052,20.2293133 96.5477361,20.1354875 96.5679406,20.0500454 C96.4189523,19.982893 96.2800672,19.8762168 96.2345344,19.6711749 C96.036732,19.6828591 95.8036152,19.9989882 95.8036162,20.4675819 C95.8036162,20.7030645 95.607887,20.8713912 95.4329662,20.9113813 C95.3693085,20.7282383 95.1407586,20.4736604 94.8754846,20.4736614 C94.6646448,20.4736614 94.5037535,20.529019 94.3766368,20.6836219 L94.3924532,20.6846518 C94.5986679,20.6846518 94.750547,20.8230807 94.8339499,21.0261949 C94.7685813,21.163718 94.7256973,21.3632088 94.7461423,21.5459437 C94.324673,21.5617945 93.9359358,21.2433481 93.9763161,20.9508667 C94.0009603,20.903801 94.0548658,20.7915662 94.1840232,20.7288943 C93.9483293,20.4281694 94.0624393,19.9982259 94.1130908,19.7836446 C93.9309205,19.8370299 93.761368,19.7407072 93.7273738,19.6468571 C93.836281,19.2790508 93.557962,18.678612 93.1156507,18.6072724 C93.0831155,18.1215823 93.3342172,17.8825853 94.1191176,17.9081364 C93.8125497,17.7684989 93.5013687,17.4283342 93.5013677,17.0570144 C93.5013677,16.8818459 93.647274,16.641906 93.851246,16.4656164 C93.3595449,16.6723871 93.1035869,17.0145025 93.069336,17.2372098 C92.8699128,17.1555734 92.6147685,17.1133217 92.2523708,17.1268007 C92.4700803,16.7295194 92.8681273,16.3753493 93.5312309,16.3753493 C93.7202488,16.3753493 93.8769437,16.4004905 93.9734235,16.4182706 L93.921498,16.4092147 C94.0650347,16.3024701 94.2299234,16.2302098 94.3903249,16.2302102 C94.7504274,16.2302102 95.0562422,16.7652002 95.562543,16.7652012 C95.8904401,16.7652012 97.1441612,16.1089054 97.7050805,15.9657544 C98.2677886,15.8206075 99.1245394,15.2606353 99.6969473,14.8836136 L99.7188885,14.8661175 C100.050751,15.3284065 100.533359,15.635829 101.067097,15.7443921 L101.085832,15.7480604 L101.081035,15.7601253 C100.982996,16.0123956 100.95899,16.3146262 101.002956,16.6193852 C101.066792,17.0618874 101.256499,17.4188628 101.538763,17.46102 L101.636245,17.4755794 L101.708834,17.4083496 C102.052593,17.0899722 102.42005,16.9751088 102.955915,16.9751088 L103.055599,16.9759596 C103.437457,16.9826941 103.733351,17.0303113 104.256801,17.150898 L104.508219,17.2094322 C105.066073,17.3374455 105.386185,17.3849012 105.829017,17.3849012 L105.887089,17.3847278 C107.722005,17.3737436 109.099239,16.8410285 110.297018,15.831974 L110.345303,15.790874 L110.357067,15.7957943 C110.796787,15.9770526 111.402161,16.1012837 111.771092,16.1012837 C112.129172,16.1012837 112.46525,16.0285859 112.74929,15.8951154 L112.799272,15.9505558 C113.087524,16.2970841 113.34018,16.5188894 113.679189,16.734804 C116.235507,18.3712188 119.226885,19.4655176 119.226885,21.4798092 C119.226885,21.8315619 119.140249,22.1239461 118.970745,22.3066134 C119.362111,22.617235 119.709596,22.7169749 120.236379,22.7169758 C121.809193,22.7169758 122.9816,21.5226513 122.981599,19.8717965 C122.981599,18.1736369 121.117896,17.41722 119.859702,16.6344931 C118.602637,15.8518597 116.695617,13.3366346 116.695617,11.5004036 C116.695617,9.10201661 117.983946,7.95428489 118.741725,7.28430985 C118.428107,4.8395637 120.217621,4.09223467 120.826987,3.8062748 L120.845088,3.7977493 C121.125147,3.66789629 121.606446,3.36620223 121.809381,3.26275832 C121.961558,3.83717035 121.835748,4.32048802 121.65871,4.6610302 C122.634491,4.33354763 123.698791,3.59969175 124.102589,2.54234433 Z M110.685634,31.8888382 C110.883128,31.8888382 111.088414,31.9278758 111.18395,31.9799251 C110.644905,32.1649631 110.210142,32.7381044 110.276019,33.2009384 C110.013603,33.2563311 109.760482,33.349446 109.517611,33.6125592 C109.30303,32.6306624 109.72522,31.8888382 110.685634,31.8888382 Z M99.6290396,31.8888382 C99.9740726,31.8888382 100.048713,32.2043882 99.9667011,32.3776392 C99.9125339,32.4739039 99.7789997,32.6552209 99.6169797,32.7506987 C99.4038784,32.6558111 99.1303592,32.4196076 99.1366895,32.1921912 C99.1681399,32.0959915 99.3219063,31.8888382 99.6290396,31.8888382 Z M97.316642,29.3032567 C97.0956577,29.612236 97.1436786,30.139699 97.4155289,30.486354 C97.2491543,30.5946055 97.062862,30.709796 96.9239415,31.0269777 C96.7425921,30.8270604 96.5550025,30.5480961 96.5550025,30.1686323 C96.5550025,29.6532473 97.0230778,29.3497661 97.316642,29.3032567 Z M99.4038791,27.5795357 C99.7237155,27.5795357 99.897632,27.6448064 99.9971079,27.6991832 C99.4688351,27.8399824 99.0793665,28.0647527 99.0833196,28.4413962 C98.8677014,28.377942 98.4835041,28.3829348 98.2760552,28.4076263 C98.3273737,28.0010251 98.7034693,27.5795357 99.4038791,27.5795357 Z M92.6279678,18.9609308 C93.0198442,19.0365169 93.1743162,19.6666141 93.0910016,19.9755241 C92.9736814,20.0631689 92.779762,20.2507344 92.6955542,20.6846518 C92.43001,20.3902768 92.2523708,20.069953 92.2523708,19.6666141 C92.2523708,19.3689005 92.3749204,19.0775399 92.6279678,18.9609308 Z M112.74062,0.0712609427 C112.936355,0.185428877 113.221207,0.534617998 113.221207,0.890587595 C113.221207,1.14127844 113.026594,1.45127147 112.855063,1.65469447 L112.843664,1.6680963 L113.03507,1.83252112 C113.315029,1.5194599 113.40725,1.27865448 113.460137,1.01698815 C113.789123,1.17837861 114.120839,1.31184317 114.467705,1.3588278 C114.406161,1.59010385 114.221153,1.81322449 114.009232,1.93739661 C114.676992,2.2787158 114.96335,2.68091167 115.627345,2.9977656 C115.405166,3.31627897 115.220629,3.43016241 114.96335,3.51275448 C115.347036,3.65828872 115.659631,4.39847442 115.79923,4.8767237 L115.80426,4.8941022 C115.969883,5.47262344 116.48877,6.13165007 116.812957,6.44907398 C116.522177,6.57760782 116.202883,6.63004459 115.826939,6.65095405 L115.835565,6.67218414 C115.974658,7.03043582 116.024054,7.95500077 115.773488,9.90550145 C115.714817,10.3522384 115.861936,10.6965689 116.008285,10.9298816 L116.024839,10.9558196 L114.984429,10.9558196 C114.91956,11.2770833 114.74484,11.7539588 114.470914,12.1323984 L114.452084,12.1580455 C114.201768,12.4917783 113.984389,13.2543055 114.064283,14.1231297 C113.693138,14.204678 113.21255,14.0497359 112.95527,13.83861 C112.769698,14.3503276 113.032435,15.0511722 113.246521,15.3367813 C112.975785,15.7150344 112.442876,15.9525685 111.819909,15.9525685 C111.50325,15.9525685 110.823633,15.8313832 110.359231,15.6071245 C109.338771,16.5105123 107.992994,17.2339248 105.881966,17.2339248 C104.772483,17.2339248 104.15488,16.8248543 103.010862,16.8248543 C102.515029,16.8248543 102.05552,16.9137986 101.624949,17.3121542 C101.296998,17.2632257 101.03713,16.1477166 101.482005,15.6384168 C100.775804,15.6117707 100.031068,15.1880974 99.6962472,14.3544058 C100.294135,14.0972905 100.373323,13.7350628 100.665656,13.0535149 C101.121824,11.9830475 102.081258,11.0688496 103.012085,10.9354326 C102.918923,10.6707785 102.88114,10.2905815 102.88114,9.82831492 C102.88114,9.16170286 103.290538,8.57308325 103.663376,8.26708604 L103.742649,8.3399023 C104.156407,8.71633897 104.533504,8.98581241 105.534253,8.99149728 L105.566718,8.99158897 L105.566718,7.91163787 C105.908832,7.91163787 106.716806,8.7747264 107.892397,8.7747264 L107.92452,8.77445001 L107.956622,8.77361797 C108.443202,8.75676328 108.912622,8.54670561 108.912622,8.07606269 C108.912622,7.58037045 108.611537,7.48715858 108.434717,7.48715858 C108.134149,7.48715858 108.106812,7.79912937 107.731245,7.79912937 C107.349654,7.79912937 106.998223,7.52357098 106.998223,7.21705234 C106.998223,6.99122942 107.151942,6.87217833 107.485587,6.87217833 C107.818761,6.87217833 108.042069,6.96567471 108.344659,6.96567471 L108.373208,6.96543182 L108.40357,6.96466878 C108.744202,6.95331003 109.505899,6.8352401 109.505899,6.09168187 C109.505899,4.82530801 108.279257,4.38617831 107.847227,4.42121578 C107.893621,4.7628185 107.612579,5.5047217 106.816886,5.5047217 C106.259039,5.5047217 105.721142,5.05577716 105.721142,4.53348735 C105.721142,4.35711441 105.744574,4.15191547 105.837878,4.02774335 L105.861097,4.01234056 L105.890194,3.99215016 C106.028639,3.89427707 106.263439,3.70539632 106.393271,3.57584976 L106.405982,3.56301136 L106.291363,3.43338709 L106.242491,3.47704329 L106.192684,3.52106601 C106.050302,3.64592408 105.897461,3.77019488 105.740951,3.85137138 C105.713708,3.79646827 105.696581,3.71819034 105.696581,3.59454062 C105.696581,3.12606252 106.493498,2.47357847 107.214238,2.04554339 C107.417879,1.53657567 108.384183,0.462030115 110.260517,0.462030115 C110.547689,0.23651113 110.905713,0.183299285 111.273273,0.181137042 L111.297257,0.181067157 C111.380821,0.181067157 111.486029,0.187040733 111.616551,0.213402342 L111.56766,0.25485512 L111.427065,0.372990627 C111.315983,0.466824863 111.185947,0.578968552 111.071841,0.688577046 L111.053999,0.705823293 L111.194214,0.873756325 L111.253485,0.821980403 L111.562329,0.548008868 C111.692529,0.433157319 111.816318,0.326592286 111.890581,0.273188595 L111.927713,0.247985576 C112.347877,-0.0340668275 112.534028,-0.0489066346 112.74062,0.0712609427 Z M97.2664201,2.66340834 C97.5658491,2.66340834 98.0405811,2.8350492 98.0405811,3.22176841 C98.0405811,3.60824874 97.835889,4.04404246 97.8319205,4.35062681 C97.82058,5.09148808 98.6309359,5.59930248 99.5858789,6.96035321 C99.9175862,7.43389326 101.661445,8.49325495 102.767153,9.07319225 L102.808376,9.09469633 C102.738909,9.30044783 102.700106,9.51508113 102.700106,9.7299852 L102.700178,9.76520278 C102.701614,10.1142025 102.72457,10.4059018 102.772601,10.6438528 L102.779746,10.6779261 L102.771363,10.6801117 C101.865866,10.9220809 100.967003,11.7882648 100.50591,12.8412994 L100.476906,12.9089769 L100.311609,13.3012376 L100.283448,13.366644 C100.279603,13.3754446 100.276239,13.3830574 100.27344,13.3892761 L100.255201,13.4291507 C100.209721,13.5269155 100.165455,13.6092705 100.118043,13.6802338 L100.115768,13.6264651 L100.113239,13.5821729 L100.110784,13.5489675 C100.090781,13.3065233 100.023857,13.0826261 99.7128897,12.5591267 C99.5696244,12.9936862 98.9946261,13.1849124 98.6000333,13.1205214 C98.8925171,12.307116 98.9463832,11.4532155 98.5788648,10.3772741 C98.5054831,10.9547893 98.1657967,11.0539812 97.7895836,11.0539822 L97.7891059,11.005853 L97.7882724,10.9581552 L97.7870738,10.9108963 C97.764247,10.1348141 97.5781825,9.15293802 96.6434624,7.87679202 C96.5639397,7.99665785 96.3850949,8.08921258 96.2049728,8.08921161 C95.3807266,8.08921161 94.9136501,7.2648993 94.9590575,6.7327608 L94.9232787,6.72771155 C94.3403347,6.64131242 93.8310808,6.36082871 93.8310808,5.64942088 C93.8310808,5.07697054 94.2771254,4.91544849 94.6067462,4.9120757 L94.617338,4.91202144 C94.9476222,4.91202144 95.1557621,4.96484328 95.4308119,5.12140647 C95.3260089,4.73521066 95.1464074,4.60444079 94.9832501,4.49628596 L94.883968,4.43265447 C94.6652961,4.29205877 94.4600866,4.1427948 94.4600866,3.8226124 C94.4600866,3.4000018 95.0358398,2.96326226 95.3975471,2.94562294 C95.754074,2.92952761 96.0607205,3.18420263 96.0687294,3.53831878 L96.0688898,3.55253606 C96.0688898,3.90530407 96.3767301,4.30562881 96.6918475,4.6510488 L96.6992911,4.60082289 C96.7331582,4.36257069 96.7533748,4.07335497 96.6978956,3.86509631 C96.6523933,3.69904877 96.5249113,3.41304218 96.5406442,3.09128209 C96.5577019,2.76947636 96.9198805,2.66340834 97.2664201,2.66340834 Z M94.6682875,7.75674442 C94.8759889,7.93985255 95.1390556,8.13401717 95.6944762,8.12808954 C95.4758935,8.45384528 95.1188747,8.61860492 94.8004437,8.61860492 C94.3835065,8.61860492 94.0653632,8.24269652 93.9734235,8.07708994 C94.400811,7.99136957 94.4957223,7.89967435 94.6682875,7.75674442 Z M93.78632,5.17116295 C93.6519956,5.60742709 93.783919,5.98298376 93.9734235,6.23008809 C93.7768085,6.31840962 93.5604298,6.5379893 93.4733427,6.89488393 C93.3206409,6.71819619 93.1128972,6.42436881 93.1128972,6.05086179 C93.1128972,5.5854694 93.4302152,5.24033352 93.78632,5.17116295 Z M104.264007,4.30930246 C104.385685,4.30930246 104.512502,4.34172353 104.604589,4.42112646 C104.40855,4.67524659 104.30628,4.92216215 104.30628,5.22956801 C104.30628,5.69733112 104.741446,6.27776974 105.856959,6.27776974 C106.426628,6.27776974 106.653074,6.18280695 107.058122,6.05952388 C107.46216,5.93649185 107.993016,5.74231177 108.574647,5.74231177 C109.04464,5.74231177 109.247981,5.76357606 109.420721,5.78994328 C109.444163,5.87855302 109.462898,5.9731664 109.462898,6.11516126 C109.462898,6.16044215 109.457229,6.21322681 109.452713,6.24104601 C109.204747,6.17940396 109.001551,6.13577487 108.44317,6.13577487 C108.131651,6.13577487 107.632595,6.25740615 107.275633,6.389895 C106.919727,6.52353458 106.120585,6.89488393 105.282582,6.89488393 C104.367911,6.89488393 103.439213,6.40420475 103.439213,5.34399472 C103.439213,4.65313181 103.880336,4.30930246 104.264007,4.30930246 Z M94.0221038,2.58558147 C94.3751872,2.58558147 94.6489593,2.68718626 94.8339499,2.93765803 C94.3075418,2.91155882 93.8649461,3.22452963 93.6650969,3.44744197 C93.5111299,3.36944673 93.3589415,3.32763682 93.1128972,3.31802193 C93.1656849,2.95658805 93.4926626,2.58558147 94.0221038,2.58558147 Z M107.737787,1.93702425 C107.651135,2.03096681 107.596267,2.19812881 107.596267,2.30384877 C107.596267,2.53172174 107.78121,2.78447236 108.074348,2.78447236 C108.277996,2.78447236 108.479914,2.59165677 108.530501,2.45978119 C108.647641,2.56417739 108.760213,2.74498746 108.760213,2.74498746 L108.876716,2.65600044 C108.897417,2.64042842 108.91262,2.62927549 108.912937,2.6298637 C108.55392,2.15129402 108.087428,1.96765411 107.737787,1.93702425 Z M96.5336306,1.72372098 C96.9917176,1.72372098 97.2593715,1.9686445 97.4155289,2.37531489 C97.2706629,2.33328145 97.1179834,2.32506234 96.9191835,2.32506234 C96.6896362,2.32506234 96.4336763,2.39655418 96.246016,2.58558147 C96.1292753,2.39655418 95.9792179,2.2745634 95.6944762,2.11930177 C95.8342012,1.89883583 96.0886994,1.72372098 96.5336306,1.72372098 Z" id="Combined-Shape"></path>
        </g>
    </g>
</svg>