<?xml version="1.0" encoding="UTF-8"?>
<svg width="900px" height="650px" viewBox="0 0 900 650" version="1.1" xmlns="http://www.w3.org/2000/svg" xmlns:xlink="http://www.w3.org/1999/xlink">
    <!-- Generator: Sketch 61.2 (89653) - https://sketch.com -->
    <title>final - preview BBB not permission</title>
    <desc>Created with Sketch.</desc>
    <defs>
        <linearGradient x1="116.978433%" y1="-14.1340229%" x2="50%" y2="38.9689701%" id="linearGradient-1">
            <stop stop-color="#C8C7C7" offset="0%"></stop>
            <stop stop-color="#565555" offset="100%"></stop>
        </linearGradient>
    </defs>
    <g id="final---preview-BBB-not-permission" stroke="none" stroke-width="1" fill="none" fill-rule="evenodd" opacity="0.8">
        <g id="Group-2" transform="translate(125.000000, 0.000000)" fill="url(#linearGradient-1)">
            <path d="M585,0 C620.75,0 650,29.25 650,65 L650,65 L650,455 C650,490.75 620.75,520 585,520 L585,520 L130,520 L0,650 L0.325,65 C0.325,29.25 29.25,0 65,0 L65,0 Z M190.582623,120.775087 C186.590456,117.879306 181.021241,118.613614 177.932432,122.545176 L177.932432,122.545176 L166.717355,136.965849 L166.549578,137.190129 C163.654055,141.182633 164.388297,146.751306 168.319508,149.784225 L168.319508,149.784225 L189.204729,165.921645 L402.806178,331.072685 L504.94349,410.043037 L505.16775,410.210829 C509.159917,413.106609 514.729133,412.372302 517.817941,408.44074 L517.817941,408.44074 L529.033019,393.962842 L529.203858,393.741624 C532.151438,389.801183 531.362076,384.177385 527.430865,381.144466 L527.430865,381.144466 L495.959984,356.823886 L496.274292,356.792628 C504.95872,355.854737 512.668161,348.865539 512.668161,339.026945 L512.668161,339.026945 L512.668161,191.958971 L512.663187,191.523031 C512.335588,177.197781 495.895326,168.923662 483.82939,177.194948 L483.82939,177.194948 L421.116508,220.456967 L421.116508,298.96952 L402.806178,284.834971 L402.806178,182.974663 L402.802514,182.522309 C402.560991,167.623593 390.410084,155.621164 375.455122,155.621164 L375.455122,155.621164 L235.667193,155.621164 L190.806883,120.942879 Z M183.098592,210.56338 L183.098592,356.158911 L183.102278,356.627712 C183.345247,372.068179 195.568917,384.507042 210.613435,384.507042 L210.613435,384.507042 L376.623492,384.507042 L377.144948,384.501861 C383.387014,384.377731 389.069423,382.030628 393.661972,378.279942 L393.661972,378.279942 L183.098592,210.56338 Z" id="Combined-Shape"></path>
        </g>
    </g>
</svg>