<?xml version="1.0" encoding="UTF-8"?>
<svg width="900px" height="650px" viewBox="0 0 900 650" version="1.1" xmlns="http://www.w3.org/2000/svg" xmlns:xlink="http://www.w3.org/1999/xlink">
    <!-- Generator: Sketch 61.2 (89653) - https://sketch.com -->
    <title>final - preview BBB not avable</title>
    <desc>Created with Sketch.</desc>
    <defs>
        <linearGradient x1="116.978433%" y1="-14.1340229%" x2="50%" y2="38.9689701%" id="linearGradient-1">
            <stop stop-color="#C8C7C7" offset="0%"></stop>
            <stop stop-color="#565555" offset="100%"></stop>
        </linearGradient>
    </defs>
    <g id="final---preview-BBB-not-avable" stroke="none" stroke-width="1" fill="none" fill-rule="evenodd" opacity="0.8">
        <path d="M710,0 L190,0 C154.25,0 125.325,29.25 125.325,65 L125,650 L255,520 L710,520 C745.75,520 775,490.75 775,455 L775,65 C775,29.25 745.75,0 710,0 Z M593.68662,352.007042 L515.610329,291.126761 L515.610329,361.619718 C515.610329,379.242958 500.848005,393.661972 482.805164,393.661972 L285.974178,393.661972 C267.931338,393.661972 253.169014,379.242958 253.169014,361.619718 L253.169014,169.366197 C253.169014,151.742958 267.931338,137.323944 285.974178,137.323944 L482.805164,137.323944 C500.848005,137.323944 515.610329,151.742958 515.610329,169.366197 L515.610329,239.859155 L593.68662,178.978873 C615.009977,162.316901 646.830986,177.056338 646.830986,203.971831 L646.830986,327.014085 C646.830986,353.929577 615.009977,368.669014 593.68662,352.007042 L593.68662,352.007042 Z" id="Shape" fill="url(#linearGradient-1)"></path>
    </g>
</svg>