<svg xmlns="http://www.w3.org/2000/svg" xmlns:xlink="http://www.w3.org/1999/xlink" viewBox="0 0 265.69 216.9"><defs><style>.cls-1,.cls-38{fill:#1f1d1c;}.cls-1{opacity:0.15;}.cls-11,.cls-2{fill:#fff;}.cls-3{fill:#c21d47;}.cls-4{fill:#a0d0a4;}.cls-5{fill:#f69f41;}.cls-6{fill:#bebfe0;}.cls-7{fill:#ffb9b9;}.cls-8{fill:#e3e2e2;}.cls-9{fill:#cfd4d9;}.cls-10{fill:#d45964;}.cls-11{stroke:#fff;stroke-width:3.56px;}.cls-11,.cls-29,.cls-39,.cls-53,.cls-55,.cls-60,.cls-70{stroke-linecap:round;stroke-linejoin:round;}.cls-12{fill:#201e1d;}.cls-13{fill:#fbb800;}.cls-14{fill:#68aa61;}.cls-15{fill:#9f9e9e;}.cls-16{fill:#e1e0e0;}.cls-17{fill:#e87601;}.cls-18{fill:#00779b;}.cls-19{fill:#006192;}.cls-20{fill:#d04f70;}.cls-21{fill:url(#linear-gradient);}.cls-22{fill:#66a0be;}.cls-23{fill:url(#linear-gradient-2);}.cls-24{fill:url(#linear-gradient-3);}.cls-25{fill:url(#linear-gradient-4);}.cls-26{fill:url(#linear-gradient-5);}.cls-27{fill:#86283c;}.cls-28{fill:#f2746b;}.cls-29,.cls-39,.cls-53,.cls-55,.cls-60,.cls-70{fill:none;}.cls-29{stroke:#fb3847;stroke-width:7px;}.cls-30{fill:#ffd8ca;}.cls-31{fill:url(#linear-gradient-6);}.cls-32{fill:#ffb69f;}.cls-33{fill:url(#linear-gradient-7);}.cls-34{fill:#9e5363;}.cls-35{fill:url(#linear-gradient-8);}.cls-36{fill:url(#linear-gradient-9);}.cls-37{opacity:0.1;}.cls-39,.cls-70{stroke:#68aa61;}.cls-39{stroke-width:8px;}.cls-40{fill:#ae3e5a;}.cls-41{fill:#a01c3d;}.cls-42{fill:#ffc9b8;}.cls-43{fill:#fdd66e;}.cls-44{fill:url(#linear-gradient-10);}.cls-45{fill:url(#linear-gradient-11);}.cls-46{fill:url(#linear-gradient-12);}.cls-47{fill:#97c492;}.cls-48{fill:#ce8e27;}.cls-49{fill:#ffcbba;}.cls-50{fill:url(#linear-gradient-13);}.cls-51{fill:url(#linear-gradient-14);}.cls-52{fill:#d69f48;}.cls-53,.cls-55{stroke:#86283c;}.cls-53{stroke-width:4px;}.cls-54{fill:url(#linear-gradient-15);}.cls-55{stroke-width:0.25px;}.cls-56{fill:#713f2c;}.cls-57{fill:#93533d;}.cls-58{fill:url(#linear-gradient-16);}.cls-59{fill:url(#linear-gradient-17);}.cls-60{stroke:#437381;stroke-width:6px;}.cls-61{fill:url(#linear-gradient-18);}.cls-62{fill:url(#linear-gradient-19);}.cls-63{fill:#437381;}.cls-64{fill:#ffd6c9;}.cls-65{fill:url(#linear-gradient-20);}.cls-66{fill:#9f5565;}.cls-67{fill:url(#linear-gradient-21);}.cls-68{fill:#ffb097;}.cls-69{fill:#76bde2;}.cls-70{stroke-width:9px;}.cls-71{fill:#bb890e;}.cls-72{fill:url(#linear-gradient-22);}.cls-73{fill:url(#linear-gradient-23);}.cls-74{fill:url(#linear-gradient-24);}.cls-75{fill:url(#linear-gradient-25);}.cls-76{fill:url(#linear-gradient-26);}.cls-77{fill:#ff9676;}.cls-78{fill:url(#linear-gradient-27);}.cls-79{fill:url(#linear-gradient-28);}.cls-80{fill:url(#linear-gradient-29);}.cls-81{fill:#cb3f63;}.cls-82{fill:#f7a89a;}.cls-83{fill:url(#linear-gradient-30);}</style><linearGradient id="linear-gradient" x1="-4551.93" y1="137.89" x2="-4551.93" y2="93.77" gradientTransform="matrix(-1, 0, 0, 1, -4318.16, 0)" gradientUnits="userSpaceOnUse"><stop offset="0" stop-color="#3381a8"/><stop offset="0.79" stop-color="#006192"/></linearGradient><linearGradient id="linear-gradient-2" x1="-4553.2" y1="139.54" x2="-4553.2" y2="98.37" gradientTransform="matrix(-1, 0, 0, 1, -4318.16, 0)" gradientUnits="userSpaceOnUse"><stop offset="0" stop-color="#ffe4da"/><stop offset="0.97" stop-color="#ff9676"/></linearGradient><linearGradient id="linear-gradient-3" x1="630.1" y1="137.89" x2="630.1" y2="93.77" gradientTransform="translate(-381.52)" xlink:href="#linear-gradient"/><linearGradient id="linear-gradient-4" x1="628.84" y1="139.54" x2="628.84" y2="98.37" gradientTransform="translate(-381.52)" xlink:href="#linear-gradient-2"/><linearGradient id="linear-gradient-5" x1="240.93" y1="71.69" x2="240.93" y2="101.72" gradientUnits="userSpaceOnUse"><stop offset="0" stop-color="#fb3847"/><stop offset="1" stop-color="#86283c"/></linearGradient><linearGradient id="linear-gradient-6" x1="240.91" y1="59.85" x2="240.91" y2="44.06" gradientUnits="userSpaceOnUse"><stop offset="0.12" stop-color="#ffd8ca"/><stop offset="0.66" stop-color="#ffa183"/></linearGradient><linearGradient id="linear-gradient-7" x1="240.85" y1="28.68" x2="240.85" y2="85.73" gradientUnits="userSpaceOnUse"><stop offset="0" stop-color="#ffede6"/><stop offset="0.97" stop-color="#ff9676"/></linearGradient><linearGradient id="linear-gradient-8" x1="239" y1="46.37" x2="243.93" y2="46.37" xlink:href="#linear-gradient-5"/><linearGradient id="linear-gradient-9" x1="241.25" y1="75.85" x2="241.25" y2="106.55" xlink:href="#linear-gradient-5"/><linearGradient id="linear-gradient-10" x1="193.05" y1="138.15" x2="193.05" y2="97.17" gradientUnits="userSpaceOnUse"><stop offset="0" stop-color="#3381a8"/><stop offset="0.59" stop-color="#076c97"/><stop offset="0.79" stop-color="#006192"/></linearGradient><linearGradient id="linear-gradient-11" x1="1478.02" y1="135.86" x2="1478.02" y2="94.87" gradientTransform="matrix(-1, 0, 0, 1, 1686.07, 0)" xlink:href="#linear-gradient"/><linearGradient id="linear-gradient-12" x1="200.56" y1="73.89" x2="200.56" y2="14.81" gradientUnits="userSpaceOnUse"><stop offset="0" stop-color="#68aa61"/><stop offset="0.1" stop-color="#7cb576"/><stop offset="0.41" stop-color="#b4d5b0"/><stop offset="0.67" stop-color="#ddecdb"/><stop offset="0.88" stop-color="#f6faf5"/><stop offset="1" stop-color="#fff"/></linearGradient><linearGradient id="linear-gradient-13" x1="213" y1="57.84" x2="213" y2="46.46" gradientTransform="matrix(1, 0, -0.01, 1, -11.45, 2.86)" gradientUnits="userSpaceOnUse"><stop offset="0.25" stop-color="#ffd8ca"/><stop offset="1" stop-color="#ffa183"/></linearGradient><linearGradient id="linear-gradient-14" x1="200.96" y1="33.47" x2="200.96" y2="65.22" gradientUnits="userSpaceOnUse"><stop offset="0.01" stop-color="#ffe9e1"/><stop offset="0.97" stop-color="#ffa082"/></linearGradient><linearGradient id="linear-gradient-15" x1="199.29" y1="46.03" x2="203.48" y2="46.03" xlink:href="#linear-gradient-5"/><linearGradient id="linear-gradient-16" x1="-3754.05" y1="1880.79" x2="-3754.05" y2="1837.91" gradientTransform="matrix(-1.36, 0.01, 0.01, 1.36, -4970.16, -2383.38)" xlink:href="#linear-gradient"/><linearGradient id="linear-gradient-17" x1="243.7" y1="1880.87" x2="243.7" y2="1838.01" gradientTransform="matrix(1.36, -0.01, 0.01, 1.36, -170.11, -2405.6)" xlink:href="#linear-gradient"/><linearGradient id="linear-gradient-18" x1="191.98" y1="58.39" x2="191.98" y2="103.01" gradientTransform="matrix(1, 0, 0, 1, -28.02, -10.32)" gradientUnits="userSpaceOnUse"><stop offset="0" stop-color="#437381"/><stop offset="1" stop-color="#201e1d"/></linearGradient><linearGradient id="linear-gradient-19" x1="1845.31" y1="68.39" x2="1845.31" y2="51.74" gradientTransform="matrix(-1, 0, 0, 1, 2008.94, -19.75)" gradientUnits="userSpaceOnUse"><stop offset="0" stop-color="#ffd8ca"/><stop offset="0.81" stop-color="#ff9676"/></linearGradient><linearGradient id="linear-gradient-20" x1="1844.99" y1="40.98" x2="1844.99" y2="101.4" gradientTransform="matrix(-1, 0, 0, 1, 2008.94, -19.75)" gradientUnits="userSpaceOnUse"><stop offset="0.01" stop-color="#ffe0d4"/><stop offset="0.36" stop-color="#ffc1ac"/><stop offset="0.76" stop-color="#ffa285"/><stop offset="0.97" stop-color="#ff9676"/></linearGradient><linearGradient id="linear-gradient-21" x1="188.74" y1="57.04" x2="195.36" y2="57.04" gradientTransform="matrix(1, 0, 0, 1, -28.02, -10.32)" xlink:href="#linear-gradient-5"/><linearGradient id="linear-gradient-22" x1="147.35" y1="61.02" x2="147.35" y2="166.54" gradientTransform="matrix(1, 0, 0, 1, -28.02, -10.32)" gradientUnits="userSpaceOnUse"><stop offset="0" stop-color="#68aa61"/><stop offset="0.37" stop-color="#40632f"/></linearGradient><linearGradient id="linear-gradient-23" x1="-11610.49" y1="497.89" x2="-11610.49" y2="495.71" gradientTransform="matrix(-1.04, 0, 0, 1.04, -11972.46, -243.8)" gradientUnits="userSpaceOnUse"><stop offset="0" stop-color="#ffd8ca"/><stop offset="0.97" stop-color="#ff9676"/></linearGradient><linearGradient id="linear-gradient-24" x1="-9421.02" y1="497.89" x2="-9421.02" y2="495.71" gradientTransform="matrix(1.04, 0, 0, 1.04, 9931.51, -345.18)" xlink:href="#linear-gradient-23"/><linearGradient id="linear-gradient-25" x1="129.82" y1="27.89" x2="129.82" y2="170.86" xlink:href="#linear-gradient-22"/><linearGradient id="linear-gradient-26" x1="-2916.07" y1="27.26" x2="-2916.07" y2="170.23" gradientTransform="matrix(-1, 0, 0, 1, -2780.88, 2.42)" xlink:href="#linear-gradient-22"/><linearGradient id="linear-gradient-27" x1="159.75" y1="60.24" x2="159.75" y2="45.47" gradientTransform="matrix(1, 0, -0.01, 1, -39.46, -7.4)" xlink:href="#linear-gradient-19"/><linearGradient id="linear-gradient-28" x1="147.87" y1="21.21" x2="147.87" y2="60.52" gradientTransform="matrix(1, 0, 0, 1, -28.02, -10.32)" xlink:href="#linear-gradient-23"/><linearGradient id="linear-gradient-29" x1="-2629.9" y1="45.47" x2="-2622.58" y2="45.47" gradientTransform="matrix(-1, 0, 0, 1, -2505.93, 1.15)" xlink:href="#linear-gradient-5"/><linearGradient id="linear-gradient-30" x1="148.33" y1="108.22" x2="148.33" y2="78.81" gradientTransform="matrix(1, 0, 0, 1, -28.02, -10.32)" gradientUnits="userSpaceOnUse"><stop offset="0.19" stop-color="#003f4f"/><stop offset="1" stop-color="#105364"/></linearGradient></defs><title>einladen</title><g id="Layer_2" data-name="Layer 2"><g id="Layer_1-2" data-name="Layer 1"><path class="cls-1" d="M205.72,144.28,8.36,144.05c-3.9-2.41-7.09-5.26-7.08-8.73L1.44,28.74c0-3.47,3.2-6.31,7.1-6.31l197.36.23c3.9,0,7.09,2.85,7.08,6.33l-.16,106.58C212.82,139,209.63,141.88,205.72,144.28Z"/><path class="cls-2" d="M.94,29.72H213.88a0,0,0,0,1,0,0V134.28a2.75,2.75,0,0,1-2.75,2.75H3.68a2.75,2.75,0,0,1-2.75-2.75V29.72a0,0,0,0,1,0,0Z" transform="translate(0.1 -0.12) rotate(0.07)"/><rect class="cls-3" x="0.85" y="40.06" width="52.74" height="16.45" transform="translate(0.06 -0.03) rotate(0.07)"/><rect class="cls-4" x="63.33" y="68.91" width="25.33" height="23.73" transform="matrix(1, 0, 0, 1, 0.09, -0.09)"/><rect class="cls-5" x="63.28" y="103.93" width="27.69" height="10.77" transform="matrix(1, 0, 0, 1, 0.13, -0.09)"/><rect class="cls-5" x="100.93" y="103.97" width="27.69" height="10.77" transform="translate(0.13 -0.13) rotate(0.07)"/><rect class="cls-6" x="138.36" y="104.02" width="27.69" height="10.77" transform="matrix(1, 0, 0, 1, 0.13, -0.18)"/><rect class="cls-4" x="175.74" y="104.06" width="27.69" height="10.77" transform="translate(0.13 -0.22) rotate(0.07)"/><rect class="cls-7" x="97.31" y="68.95" width="25.33" height="23.73" transform="translate(0.09 -0.13) rotate(0.07)"/><rect class="cls-5" x="147.94" y="69.01" width="25.33" height="23.73" transform="translate(0.09 -0.19) rotate(0.07)"/><rect class="cls-6" x="178.85" y="69.04" width="25.33" height="23.73" transform="translate(0.09 -0.22) rotate(0.07)"/><rect class="cls-8" x="0.89" y="60.29" width="52.14" height="72.72" transform="translate(0.11 -0.03) rotate(0.07)"/><rect class="cls-9" x="163.25" y="45.68" width="17.55" height="2.32" transform="translate(0.05 -0.2) rotate(0.07)"/><rect class="cls-9" x="63.27" y="117.24" width="27.52" height="1.72" transform="translate(0.14 -0.09) rotate(0.07)"/><rect class="cls-9" x="63.3" y="97.69" width="140.23" height="1.26" transform="translate(0.11 -0.15) rotate(0.07)"/><rect class="cls-9" x="63.27" y="121.39" width="27.52" height="1.72" transform="translate(0.14 -0.09) rotate(0.07)"/><rect class="cls-9" x="63.26" y="125.53" width="20.06" height="1.72" transform="translate(0.15 -0.08) rotate(0.07)"/><rect class="cls-9" x="101.21" y="117.29" width="27.52" height="1.72" transform="translate(0.14 -0.13) rotate(0.07)"/><rect class="cls-9" x="101.2" y="121.43" width="27.52" height="1.72" transform="translate(0.14 -0.13) rotate(0.07)"/><rect class="cls-9" x="101.2" y="125.57" width="20.06" height="1.72" transform="translate(0.15 -0.13) rotate(0.07)"/><rect class="cls-9" x="138.64" y="117.33" width="27.52" height="1.72" transform="translate(0.14 -0.18) rotate(0.07)"/><rect class="cls-9" x="138.63" y="121.48" width="27.52" height="1.72" transform="translate(0.14 -0.18) rotate(0.07)"/><rect class="cls-9" x="138.63" y="125.62" width="20.06" height="1.72" transform="translate(0.15 -0.17) rotate(0.07)"/><rect class="cls-9" x="175.72" y="117.37" width="27.52" height="1.72" transform="translate(0.14 -0.22) rotate(0.07)"/><rect class="cls-9" x="175.72" y="121.52" width="27.52" height="1.72" transform="translate(0.14 -0.22) rotate(0.07)"/><rect class="cls-9" x="175.71" y="125.66" width="20.06" height="1.72" transform="translate(0.15 -0.21) rotate(0.07)"/><rect class="cls-9" x="186.64" y="45.71" width="17.55" height="2.32" transform="translate(0.05 -0.23) rotate(0.07)"/><rect class="cls-9" x="186.64" y="51.27" width="17.55" height="2.32" transform="translate(0.06 -0.23) rotate(0.07)"/><rect class="cls-10" x="63.35" y="59.64" width="19.93" height="3.27" transform="translate(0.07 -0.08) rotate(0.07)"/><polygon class="cls-11" points="175.45 89.76 164.24 85.32 169.19 95.32 170.69 92.74 174.92 96.52 176.78 94.87 172.5 91.05 175.45 89.76"/><polygon class="cls-12" points="175.45 89.76 164.24 85.32 169.19 95.32 170.69 92.74 174.92 96.52 176.78 94.87 172.5 91.05 175.45 89.76"/><path class="cls-12" d="M2.82,20.55H210.16a2.8,2.8,0,0,1,2.8,2.8v5.58a0,0,0,0,1,0,0H0a0,0,0,0,1,0,0V23.35a2.8,2.8,0,0,1,2.8-2.8Z" transform="translate(0.03 -0.12) rotate(0.07)"/><ellipse class="cls-3" cx="6.82" cy="25.04" rx="1.89" ry="2.12" transform="translate(-18.23 31.83) rotate(-89.93)"/><ellipse class="cls-13" cx="13.66" cy="25.05" rx="1.89" ry="2.12" transform="translate(-11.41 38.68) rotate(-89.93)"/><ellipse class="cls-14" cx="20.5" cy="25.06" rx="1.89" ry="2.12" transform="translate(-4.58 45.53) rotate(-89.93)"/><rect class="cls-15" x="17.73" y="66.68" width="21.94" height="2.74" transform="translate(0.08 -0.03) rotate(0.07)"/><rect class="cls-15" x="17.71" y="76.93" width="17.36" height="2.74" transform="translate(0.09 -0.03) rotate(0.07)"/><rect class="cls-15" x="17.7" y="87.18" width="21.94" height="2.74" transform="translate(0.1 -0.03) rotate(0.07)"/><rect class="cls-15" x="17.68" y="97.43" width="15.03" height="2.74" transform="translate(0.11 -0.03) rotate(0.07)"/><rect class="cls-15" x="17.67" y="107.68" width="19.07" height="2.74" transform="translate(0.13 -0.03) rotate(0.07)"/><rect class="cls-15" x="17.65" y="117.93" width="21.94" height="2.74" transform="translate(0.14 -0.03) rotate(0.07)"/><rect class="cls-15" x="8.85" y="66.66" width="4.57" height="2.74" transform="translate(22.2 136.07) rotate(-179.93)"/><rect class="cls-15" x="8.84" y="76.91" width="4.57" height="2.74" transform="translate(22.16 156.57) rotate(-179.93)"/><rect class="cls-15" x="8.82" y="87.16" width="4.57" height="2.74" transform="translate(22.12 177.07) rotate(-179.93)"/><rect class="cls-15" x="8.81" y="97.41" width="4.57" height="2.74" transform="translate(22.08 197.58) rotate(-179.93)"/><rect class="cls-15" x="8.79" y="107.66" width="4.57" height="2.74" transform="translate(22.03 218.08) rotate(-179.93)"/><rect class="cls-15" x="8.78" y="117.91" width="4.57" height="2.74" transform="translate(21.99 238.58) rotate(-179.93)"/><rect class="cls-16" x="0.01" y="28.82" width="212.94" height="9.48" transform="translate(0.04 -0.12) rotate(0.07)"/><path class="cls-16" d="M28.61,23.08H59.46a3.19,3.19,0,0,1,3.19,3.19v6.35a0,0,0,0,1,0,0H25.42a0,0,0,0,1,0,0V26.27a3.19,3.19,0,0,1,3.19-3.19Z" transform="translate(0.03 -0.05) rotate(0.07)"/><rect class="cls-2" x="32.3" y="31.65" width="134.39" height="3.2" transform="translate(0.04 -0.11) rotate(0.07)"/><rect class="cls-2" x="174.5" y="31.75" width="34.35" height="3.2" transform="translate(0.04 -0.22) rotate(0.07)"/><path class="cls-2" d="M8,50.84v-.31c0-.07,0-.14,0-.21a1.93,1.93,0,0,1,.23-.58,2.12,2.12,0,0,1,.6-.64,2.64,2.64,0,0,1,.74-.36,2.56,2.56,0,0,1,.52-.11c.15,0,.29,0,.44,0l.52,0,.31,0,.31.05c0-.07,0-.15,0-.22a1.53,1.53,0,0,1,0-.19c0-.11,0-.22.08-.33a2.15,2.15,0,0,1,.79-1.12,2,2,0,0,1,.39-.23,2.79,2.79,0,0,1,.41-.14,2.72,2.72,0,0,1,.46-.07,3.55,3.55,0,0,1,.44,0,2.21,2.21,0,0,1,.52.1l.42.14v0c0-.1,0-.19.06-.29a3.08,3.08,0,0,1,.29-.74,3.5,3.5,0,0,1,.34-.52,3.44,3.44,0,0,1,.42-.45l.35-.28a4.7,4.7,0,0,1,.4-.26,3.7,3.7,0,0,1,.67-.31l.62-.19A3.17,3.17,0,0,1,19,43.5l.5,0h.3l.37,0,.48.1a3.78,3.78,0,0,1,.85.33,3.83,3.83,0,0,1,.65.44,3.66,3.66,0,0,1,.39.39,3.75,3.75,0,0,1,.45.63,3.42,3.42,0,0,1,.2.39,6.13,6.13,0,0,1,.22.61c.06.22.1.44.15.66a0,0,0,0,1,0,0l-.28.28-.32.32-.32.32-.33.33-.29.29a.36.36,0,0,0-.07.09c0,.06,0,.12-.07.18l-.24.59-.34.87-.21.52a.11.11,0,0,1,0,0l-.26.19a3,3,0,0,1-.62.34.79.79,0,0,1-.36.07,1.18,1.18,0,0,1-.42-.13,2.18,2.18,0,0,1-.42-.3l-.27-.25-.42-.41L18,50.26a1.83,1.83,0,0,0-.36-.23,1.34,1.34,0,0,0-.75-.13,1.3,1.3,0,0,0-.35.09,1.67,1.67,0,0,0-.44.27l-.41.36-.4.39c-.1.1-.22.18-.33.27a1.25,1.25,0,0,1-.41.21.79.79,0,0,1-.5,0,1.14,1.14,0,0,1-.36-.22l-.32-.3L13,50.63a1.26,1.26,0,0,0-.37-.22.94.94,0,0,0-.47-.07,1.3,1.3,0,0,0-.47.17,2.81,2.81,0,0,0-.44.31l-.43.38a.11.11,0,0,0,0,.17.15.15,0,0,0,.2,0l.05-.05.47-.39a2.08,2.08,0,0,1,.47-.28.6.6,0,0,1,.47,0,1.32,1.32,0,0,1,.39.25l.27.25.29.26a1.67,1.67,0,0,0,.36.26,1,1,0,0,0,.39.12,1.71,1.71,0,0,0,.31,0,1.26,1.26,0,0,0,.46-.16,1.87,1.87,0,0,0,.33-.22l.32-.27.39-.38a3.34,3.34,0,0,1,.49-.4,1.16,1.16,0,0,1,.54-.19,1,1,0,0,1,.44.08,2,2,0,0,1,.53.34l.28.26.41.39.3.24a2.1,2.1,0,0,0,.28.18,1.21,1.21,0,0,0,.5.15,1.64,1.64,0,0,0,.29,0,1.39,1.39,0,0,0,.47-.17,4.69,4.69,0,0,0,.66-.43.52.52,0,0,1,.1-.07l.31-.13.38-.16.72-.3.38-.16.72-.3.09-.06.34-.33.33-.32.34-.33.3-.29.11-.11.14-.13.16.31a2.49,2.49,0,0,1,.18.51,2.2,2.2,0,0,1,.06.43v.36a2.26,2.26,0,0,1-.06.43,2.58,2.58,0,0,1-.25.68c-.06.11-.12.21-.19.32a2.75,2.75,0,0,1-.39.46,3.34,3.34,0,0,1-.47.37,3.56,3.56,0,0,1-.88.42,3.1,3.1,0,0,1-.63.14c-.15,0-.3,0-.45,0H10.94l-.4,0-.48-.05a2.59,2.59,0,0,1-.66-.19,2.2,2.2,0,0,1-.5-.3A2.68,2.68,0,0,1,8.47,52a2.26,2.26,0,0,1-.32-.54A1.76,1.76,0,0,1,8,50.94S8,50.87,8,50.84Z"/><path class="cls-2" d="M23.46,49.85l-.95.39-.16-.13L22,49.83l-.08-.07a0,0,0,0,1,0,0l.23-.58.11-.27a.31.31,0,0,0,.22,0l.14-.11.09-.09.27-.26.29-.29.29-.29.29-.29.07-.07h0l.13.06-.1.1-.19.18-.37.36-.21.21-.38.37a.68.68,0,0,0-.14.17.41.41,0,0,0,0,.27.4.4,0,0,0,.14.25.49.49,0,0,0,.28.1.58.58,0,0,0,.24,0,.64.64,0,0,0,.23-.16l.09-.09.27-.26.29-.29.22-.22.29-.28.12-.12.1.11a0,0,0,0,1,0,0l-.11.11-.37.37-.26.25-.34.33-.26.25-.1.11A.24.24,0,0,0,23.46,49.85Z"/><rect class="cls-14" x="66.41" y="72.11" width="14.63" height="2.98" transform="translate(0.09 -0.09) rotate(0.07)"/><rect class="cls-3" x="100.69" y="72.15" width="14.63" height="2.98" transform="translate(0.09 -0.12) rotate(0.07)"/><rect class="cls-17" x="152.1" y="72.21" width="14.63" height="2.98" transform="translate(0.09 -0.18) rotate(0.07)"/><rect class="cls-18" x="183.45" y="72.24" width="14.63" height="2.98" transform="translate(0.09 -0.22) rotate(0.07)"/><g id="Kid2"><rect class="cls-19" x="219.46" y="47.89" width="42.64" height="35.29" rx="8.85" ry="8.85"/><polygon class="cls-19" points="254.13 102.56 228.34 102.56 227.41 94.32 255.07 94.32 254.13 102.56"/><path class="cls-3" d="M233.19,145.61c-.48-.15-13.17,5.45-13.17,5.45v1.67h20.12v-4.07Z"/><polygon class="cls-20" points="233.06 145.49 220.02 151.07 224.44 151.39 235.18 146.16 233.06 145.49"/><rect class="cls-2" x="220.02" y="151.07" width="20.12" height="1.66"/><path class="cls-21" d="M240.14,120.32V100l-12.73-5.66,2.53,26Z"/><polygon class="cls-22" points="229.59 116.73 229.94 120.32 240.14 120.32 240.14 116.73 229.59 116.73"/><path class="cls-23" d="M229.94,120.34l2.93,25.28s7.27,5.19,7.27,4.65V120.34Z"/><path class="cls-2" d="M231.75,136.72l1.12,8.9s7.27,5.19,7.27,4.65V136.72Z"/><path class="cls-3" d="M249.17,145.61c.48-.15,13.17,5.45,13.17,5.45v1.67H242.22v-4.07Z"/><polygon class="cls-20" points="249.3 145.49 262.34 151.07 257.92 151.39 247.18 146.16 249.3 145.49"/><rect class="cls-2" x="242.22" y="151.07" width="20.12" height="1.66"/><path class="cls-24" d="M242.22,120.32V100L255,94.32l-2.53,26Z"/><polygon class="cls-22" points="252.77 116.73 252.43 120.32 242.22 120.32 242.22 116.73 252.77 116.73"/><path class="cls-25" d="M252.42,120.34l-2.93,25.28s-7.27,5.19-7.27,4.65V120.34Z"/><path class="cls-2" d="M250.61,136.72l-1.12,8.9s-7.27,5.19-7.27,4.65V136.72Z"/><path class="cls-26" d="M252.54,53.86l-6.19-2.46v.4l-10.82-.18V51.5l-6.2,2.34a6.2,6.2,0,0,0-4.15,6.05l2.23,34.43h27.66l1.61-34.51A6.21,6.21,0,0,0,252.54,53.86Z"/><polygon class="cls-27" points="255.27 90.71 255.09 94.32 227.46 94.32 227.23 90.71 255.27 90.71"/><ellipse class="cls-28" cx="241.15" cy="67.41" rx="5.44" ry="4.84"/><path class="cls-29" d="M227.31,60.17c-3.92,2.4-11.44,16.58-3.53,23.21"/><path class="cls-30" d="M228.4,81.32h0c0,.35.41,7.56.41,7.56l10.22,0A4.2,4.2,0,0,0,243.15,86a3.42,3.42,0,0,0,.12-1.13,4.18,4.18,0,0,0-4.39-3.58Z"/><polygon class="cls-27" points="230.1 89.21 232.08 81.19 226.35 79.83 224.44 88.1 230.1 89.21"/><path class="cls-29" d="M254.95,60.17c4.89,3.37,11.5,14.2,3.53,23.21"/><path class="cls-30" d="M253.85,81.32h0c0,.35-.41,7.56-.41,7.56l-10.22,0A4.2,4.2,0,0,1,239.1,86a3.42,3.42,0,0,1-.12-1.13,4.18,4.18,0,0,1,4.39-3.58Z"/><polygon class="cls-27" points="252.15 89.21 250.17 81.19 255.9 79.83 257.81 88.1 252.15 89.21"/><path class="cls-22" d="M226.39,78.79l-1.28-19.13c0-3.49,2.48-5.67,5.71-6.45Z"/><path class="cls-22" d="M255.86,78.79l1.28-19.13c0-3.49-2.48-5.67-5.71-6.45Z"/><path class="cls-27" d="M251.06,50.83c0,4.47-10.15,10.29-10.15,10.29s-10.15-5.82-10.15-10.29S235.31,46,240.91,46,251.06,46.36,251.06,50.83Z"/><path class="cls-31" d="M240.91,60.55s-5.38-5.38-5.38-8V47h10.75v5.53C246.29,55.17,240.91,60.55,240.91,60.55Z"/><path class="cls-32" d="M251.67,43.5l-.15,0a1.08,1.08,0,0,1-.94-1.19l.41-4a1.06,1.06,0,0,1,1.16-1l.15,0a1.08,1.08,0,0,1,.94,1.19l-.41,4A1.06,1.06,0,0,1,251.67,43.5Z"/><path class="cls-32" d="M230,43.4l.15,0a1.08,1.08,0,0,0,.94-1.19l-.41-4a1.06,1.06,0,0,0-1.16-1l-.15,0a1.08,1.08,0,0,0-.94,1.19l.41,4A1.06,1.06,0,0,0,230,43.4Z"/><path class="cls-33" d="M232.7,25.23a2.12,2.12,0,0,0-2.23,2l0,14.61c0,4.86,4.56,7.17,6.56,8.79a3.34,3.34,0,0,0,2.09.72h3.17a3.94,3.94,0,0,0,2.49-.86c2.08-1.7,6.39-3.79,6.39-8.65V27.37a2.28,2.28,0,0,0-2.4-2.14Z"/><path class="cls-34" d="M251.23,37.67H249l0-11.88h.9A1.21,1.21,0,0,1,251.23,27Z"/><rect class="cls-34" x="230.46" y="27.33" width="2.21" height="10.34"/><path class="cls-27" d="M251.21,28.53l.1-1.74c0-3.45-2.17-4.73-4.34-4.73H236.15c-1.84,0-4.21.59-4.21,2.58-2.18.18-1.5,3.06-1.41,3.93Z"/><path class="cls-27" d="M252.93,26.78c0-3.45-3.79-4.73-6-4.73H236.15c-1.84,0-4.21.59-4.21,2.58-3,.25-2.14,3.21-2.14,3.21.4,2.16,6.06,4.48,10.56,4.59a18.35,18.35,0,0,1-1-2.63c2.74,2.33,7.88,3.52,13.58,3.25Z"/><path class="cls-27" d="M237.13,44.34s0,0,0,.06c0,1.36,1.77,2.47,4,2.47s4-1.1,4-2.47c0,0,0,0,0-.06Z"/><path class="cls-35" d="M241.61,45.89a9.32,9.32,0,0,0-2,.39,5.15,5.15,0,0,0-.58.22,5.83,5.83,0,0,0,2.09.37,5.35,5.35,0,0,0,2.83-.74A6.15,6.15,0,0,0,241.61,45.89Z"/><path class="cls-27" d="M239.1,38.26a.93.93,0,0,0,0-.29c0-.67-.73-1.22-1.64-1.22s-1.64.55-1.64,1.22a.93.93,0,0,0,0,.29Z"/><path class="cls-27" d="M246.56,38.23a.93.93,0,0,0,0-.29c0-.67-.73-1.22-1.64-1.22s-1.64.55-1.64,1.22a.93.93,0,0,0,0,.29Z"/><path class="cls-27" d="M247.72,36.28l-4.05-.89a.21.21,0,0,1-.18-.26l.18-.65a.24.24,0,0,1,.29-.16l4.05.89a.21.21,0,0,1,.18.26l-.18.65A.24.24,0,0,1,247.72,36.28Z"/><path class="cls-27" d="M238.88,35.4l-4.08.8a.24.24,0,0,1-.29-.16l-.16-.65a.22.22,0,0,1,.18-.26l4.08-.8a.24.24,0,0,1,.29.16l.16.65A.22.22,0,0,1,238.88,35.4Z"/><polygon class="cls-36" points="232.34 78.16 229.45 90.77 253.05 90.77 250.56 78.16 232.34 78.16"/></g><g id="Kid4"><g class="cls-37"><path class="cls-38" d="M239.24,114.87a18.22,18.22,0,0,0-7.22-8,11,11,0,0,0-4.48-4.44l0-1.33c-.12-1.37,0-2.63-2.44-3.17L225,98q.84-1.61,1.6-3.24l.35.17a18.31,18.31,0,0,0,1.47-4.49l-.08,0c1.46-5.41,1.25-12.18-.61-18.77-2.11-7.48-6-13.49-10.89-16.92a3.83,3.83,0,0,0-.39-.23l.19-.42a11.91,11.91,0,0,0-4.63-2.6c0-2.25-1.45-3.37-3.61-3.9a7.78,7.78,0,0,0,1.37-1.58h3.91v-10a32.72,32.72,0,0,0,0-4.24,7.51,7.51,0,0,0-.11-1.07A7.73,7.73,0,0,0,212,26.57c-6.2-6.4-14.15-2.88-16.45-.32A8,8,0,0,0,193,32v14h3.87a7.39,7.39,0,0,0,1.35,1.58c-2.13.54-3.5,1.67-3.51,4A14.06,14.06,0,0,0,189.23,54l.25.41a3.84,3.84,0,0,0-.41.24c-5.15,3.6-8.45,9.43-9.3,16.42a30,30,0,0,0,3.12,17.24l-.07,0A16,16,0,0,0,185,92.12l.32-.2q1.36,1.77,2.86,3.48a3.19,3.19,0,0,0,.51.47,17,17,0,0,0,.14,3.68h-.09l7.34,48.51h0l.55,3.54,0,0h0l-.62.12-.37.08-.3.06-.46.1-.17,0-.52.12-.07,0c-4,1-6,2.08-6.77,3h0l-.11.16v0l-.07.13,0,0,0,.1,0,.05,0,.09v.05s0,.06,0,.09V156s0,.06,0,.09,0,0,0,0,0,.06,0,.09v0a1,1,0,0,0,0,.12h13.7a1.34,1.34,0,0,0,.69-.19l.1-.06a1.06,1.06,0,0,0,.45-.82h0V99.67h1.74v55.67h0a1.06,1.06,0,0,0,.45.82l.1.06a1.34,1.34,0,0,0,.69.19h13.7l0-.12v0s0-.06,0-.09,0,0,0,0,0-.06,0-.09V156s0-.06,0-.09v-.05l0-.09,0-.05,0-.1,0,0-.07-.13v0l-.11-.16h0c-.73-.94-2.72-2-6.77-3l-.07,0-.52-.12-.17,0-.46-.1-.31-.06-.37-.08-.62-.12h0l0,0,.55-3.54h0l2.51-16.61a3.17,3.17,0,0,0,.84.14l16.76.52a2.9,2.9,0,0,0,2.8-1.71,6.94,6.94,0,0,0,4.37-.17C241.5,128.42,242.51,121.54,239.24,114.87Zm-13.82-13.29a12,12,0,0,0-3.2-.54h-.33c-.28,0-.55,0-.83,0l0-.3h.07a3.37,3.37,0,0,0,2.83-1.07l1,.25C225.31,100.09,225.42,100.79,225.42,101.58ZM192.1,61.28a54,54,0,0,1,.28,21.46q-.25,1.35-.57,2.66v0q-.15.62-.32,1.22l0,.09q-.17.6-.35,1.19l-.18-.26a3.19,3.19,0,0,0-.22-.42q-.26-.42-.5-.85a17.82,17.82,0,0,1-.8-1.87l-.12.07C185.52,76.41,186.7,66.52,192.1,61.28Zm25,38.38c.55-2.26-.5-10.18-2.31-11.68h0q-.2-.61-.39-1.23l-.08-.27c-.1-.34-.19-.68-.28-1l-.06-.22q-.14-.56-.27-1.12l0-.12q-.14-.63-.26-1.27h0A51.31,51.31,0,0,1,214,61.49c6,5.91,8.82,17.8,7.3,25.88l-.14-.07a17.22,17.22,0,0,1-1.1,4.22l.48.24c-.64,1.38-1.32,2.75-2.05,4.12a3.31,3.31,0,0,0,.56,3.9l.12,1.48a11.58,11.58,0,0,0-2.51.81l.36-2.39Zm19,27.17a4.44,4.44,0,0,1-3.17-.07l.3-15.15a9.39,9.39,0,0,0-.05-1.17,15.85,15.85,0,0,1,3.92,5.14C239.49,120.59,239,125.63,236,126.83Z"/></g><path class="cls-39" d="M222,90.42c3.24-10.19-.87-26.79-9.91-33.11"/><path class="cls-39" d="M185.05,88.89c-6.67-10.7-5.05-25.27,4-31.58"/><path class="cls-40" d="M222.79,106.07c4.51-1.81,10.82,2.13,14.09,8.8s2.26,13.55-2.25,15.36-10.82-2.13-14.09-8.8S218.27,107.88,222.79,106.07Zm1,13.89c2.45,5,6.88,8.08,9.88,6.87s3.46-6.24,1-11.24-6.88-8.08-9.88-6.87S221.33,115,223.79,120Z"/><path class="cls-40" d="M222.81,104.12c.11-.6.61-3.82-.21-4.18l-2.81-.7c-1.26-.13-1.24.59-1.06,1.92l.25,1.92-2.05-.5-.23-2.88c-.21-1.84,1-2.79,2.57-2.47l3.43.73c2.39.55,2.32,1.8,2.44,3.17l.13,3.55-1.2-.37Z"/><path class="cls-41" d="M210.69,131.59l16.76.52a2.79,2.79,0,0,0,3-2.6l.36-17.89c.11-5.63-4.81-10.38-10.95-10.58h-.33c-6.13-.19-11.24,4.26-11.36,9.88l-.36,17.89A2.87,2.87,0,0,0,210.69,131.59Z"/><path class="cls-40" d="M219.25,128.91l7.6.24a1.52,1.52,0,0,0,1.63-1.42l.25-12.35a5,5,0,0,0-5-4.82l-.64,0a4.83,4.83,0,0,0-5.17,4.5l-.25,12.35A1.56,1.56,0,0,0,219.25,128.91Z"/><path class="cls-41" d="M220.59,114.77l6.37.29a.59.59,0,0,0,.64-.54h0a.6.6,0,0,0-.6-.6l-6.37-.29a.59.59,0,0,0-.64.54h0A.6.6,0,0,0,220.59,114.77Z"/><path class="cls-40" d="M211.45,120.18h.07a2.23,2.23,0,0,0,2.42-2l.25-6.54a2.28,2.28,0,0,0-2.25-2.25h-.07a2.23,2.23,0,0,0-2.42,2l-.25,6.54A2.28,2.28,0,0,0,211.45,120.18Z"/><path class="cls-42" d="M187.18,86.74c-.47.32-.93.65-1.38,1-.87.67-1.69,1.39-2.59,2a9.51,9.51,0,0,1-1.27.77c1.21,1.65,2.52,3.29,3.91,4.88a3.6,3.6,0,0,0,3.56,1,3.52,3.52,0,0,0,1.15-.52,2.77,2.77,0,0,0,.58-4.19C189.72,90.1,188.39,88.43,187.18,86.74Z"/><path class="cls-2" d="M185.52,85.49c-1.65,1-3.33,2-5.06,2.89a16,16,0,0,0,2.22,3.75l6.17-4A14.79,14.79,0,0,1,187,84.55Z"/><path class="cls-42" d="M219.09,89.73c.52.27,1,.55,1.54.85,1,.58,1.93,1.24,2.94,1.78A9.42,9.42,0,0,0,225,93c-.88,2-1.86,4-2.93,6a3.37,3.37,0,0,1-4.54,1.36,3.32,3.32,0,0,1-1.37-4.51C217.23,93.84,218.22,91.79,219.09,89.73Z"/><path class="cls-2" d="M220.49,88.08c1.82.83,3.66,1.63,5.53,2.32a18.31,18.31,0,0,1-1.47,4.49l-6.84-3.36a17.22,17.22,0,0,0,1.1-4.22Z"/><path class="cls-43" d="M198.44,156.4a1.18,1.18,0,0,0,1.24-1.1l-5.3-3.69c-8.12,1.55-10.14,3.56-9.64,4.79Z"/><path class="cls-13" d="M194.39,151.61a43.58,43.58,0,0,0-4.72,1.14v3.65h8.78a1.18,1.18,0,0,0,1.24-1.1Z"/><path class="cls-2" d="M185,155.2a1.19,1.19,0,0,0-.26,1.2h13.7a1.18,1.18,0,0,0,1.24-1.1v-.1Z"/><polygon class="cls-44" points="199.68 153.03 199.68 99.55 186.42 99.55 194.29 151.59 199.68 153.03"/><polygon class="cls-22" points="193.74 148.05 194.29 151.59 199.68 155.34 199.68 151.92 193.74 148.05"/><path class="cls-43" d="M202.66,156.4a1.18,1.18,0,0,1-1.24-1.1l5.3-3.69c8.12,1.55,10.14,3.56,9.64,4.79Z"/><path class="cls-13" d="M206.71,151.61a43.58,43.58,0,0,1,4.72,1.14v3.65h-8.78a1.18,1.18,0,0,1-1.24-1.1Z"/><path class="cls-2" d="M216.09,155.2a1.19,1.19,0,0,1,.26,1.2h-13.7a1.18,1.18,0,0,1-1.24-1.1v-.1Z"/><polygon class="cls-45" points="201.42 153.03 201.42 99.55 214.68 99.55 206.81 151.59 201.42 153.03"/><polygon class="cls-22" points="207.37 148.05 206.81 151.59 201.42 155.34 201.42 151.92 207.37 148.05"/><path class="cls-46" d="M212.39,88c-3.94-11.83-2.11-25.73,1.86-34-6.11-5.91-23-4-27.38,0,4.67,7.32,5.41,22.64,1.86,34Z"/><path class="cls-47" d="M190,82.75a45.53,45.53,0,0,1-1.3,5.24h23.67A41,41,0,0,1,211,82.75Z"/><path class="cls-19" d="M214.71,99.67c.55-2.26-.5-10.18-2.31-11.68H188.72c-2.34,2-2.7,9.4-2.2,11.68Z"/><path class="cls-48" d="M190.63,45.94V32c0-4.8,4.57-8.73,10.15-8.73h.36c5.58,0,10.15,3.93,10.15,8.73v14Z"/><path class="cls-14" d="M209.62,51.48C209.62,55.29,201,58,201,58s-8.64-2.66-8.64-6.47,3.78-4.42,8.55-4.42S209.62,47.67,209.62,51.48Z"/><path class="cls-49" d="M194,43l-1.28.16a.41.41,0,0,1-.47-.31l-.68-4.26a.38.38,0,0,1,.35-.42l1.28-.16a.41.41,0,0,1,.47.31l.68,4.26A.38.38,0,0,1,194,43Z"/><path class="cls-49" d="M208,43l1.28.16a.41.41,0,0,0,.47-.31l.68-4.26a.38.38,0,0,0-.35-.42L208.77,38a.41.41,0,0,0-.47.31l-.68,4.26A.38.38,0,0,0,208,43Z"/><path class="cls-50" d="M200.9,57.9s-3.61-4.27-3.59-6.06l.05-3.75h7.25l-.05,3.75C204.55,53.63,200.9,57.9,200.9,57.9Z"/><path class="cls-51" d="M202.34,49.76a3.19,3.19,0,0,1-2.61,0c-2.18-1-6.29-2.74-6.29-7.72V33.75c0-3.64,3.34-6.61,7.43-6.61H201c4.08,0,7.43,3,7.43,6.61v8.32C208.47,46.85,204.47,48.76,202.34,49.76Z"/><path class="cls-52" d="M192.9,26.54c-4.34,8.93,7.71,8.29,7.71,8.29l-.1-4.49c1.57,3.11,4.79,4.93,10.76,6,.31-5.12-.2-8.06-1.67-9.79C203.16,19.93,194.84,24,192.9,26.54Z"/><path class="cls-53" d="M199.09,36.59"/><path class="cls-53" d="M195.78,37.38"/><path class="cls-53" d="M203.18,36.62"/><path class="cls-27" d="M199.37,39.12a.79.79,0,0,0,0-.25c0-.57-.62-1-1.39-1s-1.39.47-1.39,1a.79.79,0,0,0,0,.25Z"/><path class="cls-27" d="M205.73,39.1a.79.79,0,0,0,0-.25c0-.57-.62-1-1.39-1s-1.39.47-1.39,1a.79.79,0,0,0,0,.25Z"/><path class="cls-27" d="M197.7,44.3s0,0,0,.05c0,1.16,1.51,2.1,3.37,2.1s3.37-.94,3.37-2.1c0,0,0,0,0-.05Z"/><path class="cls-54" d="M201.51,45.62a7.93,7.93,0,0,0-1.72.33,4.39,4.39,0,0,0-.5.19,5,5,0,0,0,1.78.32,4.56,4.56,0,0,0,2.41-.63A5.24,5.24,0,0,0,201.51,45.62Z"/><path class="cls-55" d="M203.16,37a2.49,2.49,0,0,1,2.93.46"/><path class="cls-55" d="M196.24,37.54a2.47,2.47,0,0,1,2.91-.58"/></g><g id="Lehrer_1" data-name="Lehrer 1"><polygon class="cls-56" points="164.68 179.37 156.75 179.4 156.74 177.94 164.67 176.5 164.68 179.37"/><path class="cls-57" d="M155.51,170c-.38-.13-8.35,4.79-12.52,6.37a3.64,3.64,0,0,0-2.48,3.36v.3l10.43-.19,13.72-2.55,0-3.88Z"/><polygon class="cls-19" points="180.24 107.42 150.72 107.55 149.35 97.48 180.84 97.36 180.24 107.42"/><path class="cls-58" d="M149.6,98.28,155.16,170s9.49,5.8,9.49,5.19l-.37-70.57Z"/><polygon class="cls-56" points="166.65 179.36 174.59 179.32 174.58 177.86 166.64 176.5 166.65 179.36"/><path class="cls-57" d="M175.73,169.88c.38-.13,8.4,4.72,12.58,6.26a3.65,3.65,0,0,1,2.52,3.34v.3l-10.43-.11-13.75-2.44,0-3.88Z"/><path class="cls-59" d="M180.89,98.15l-4.81,71.73s-9.43,5.88-9.43,5.27l-.37-70.57Z"/><path class="cls-60" d="M151.47,58.53c-14.71,4.33-14.65,22.82-3.82,26.68"/><path class="cls-61" d="M148.89,99.68l32.36-.13,1.24-38c0-4.79-4.41-8.66-9.79-8.64l-16.92.07c-5.38,0-9.72,3.92-9.7,8.72Z"/><path class="cls-62" d="M159.46,59.13l9,0a2.74,2.74,0,0,0,2.88-2.59l-.06-11.72-14.83.06.06,11.72A2.75,2.75,0,0,0,159.46,59.13Z"/><path class="cls-63" d="M171.33,50.46c-.57.78-6,8.64-6,8.64L170,64l4.53-10.93Z"/><polygon class="cls-63" points="156.22 50.73 162.45 59.02 157.84 64 153.21 53.13 156.22 50.73"/><path class="cls-60" d="M179.56,58.83c12.11,7.75,14.16,21-9.87,17.88"/><path class="cls-64" d="M174.11,41.85l1.64.4a.56.56,0,0,0,.67-.34l1.8-5.92a.48.48,0,0,0-.38-.59L176.2,35a.56.56,0,0,0-.67.34l-1.8,5.92A.48.48,0,0,0,174.11,41.85Z"/><path class="cls-64" d="M152,42.43l1.69-.21a.5.5,0,0,0,.46-.55l-1-6.07a.54.54,0,0,0-.62-.41l-1.69.21a.5.5,0,0,0-.46.55l1,6.07A.54.54,0,0,0,152,42.43Z"/><path class="cls-27" d="M150.76,21.77a5.54,5.54,0,0,1,2-4.14,6.29,6.29,0,0,1,4.13-1.53L171.31,16a6.26,6.26,0,0,1,4.39,1.73,5.67,5.67,0,0,1,1.77,3.9l-2,17.55-.19-13.77a6.31,6.31,0,0,1-3.9,1.34l-14.43.06a6.32,6.32,0,0,1-4-1.36l-.14,14Z"/><path class="cls-65" d="M175.58,25.37l.07,14c0,5.2-4,10.05-9,10.07l-4.7,0c-5,0-9.11-4.8-9.14-10l-.07-14a3.56,3.56,0,0,1,3.47-3.64l15.9-.07A3.56,3.56,0,0,1,175.58,25.37Z"/><polygon class="cls-66" points="177.51 21.95 175.46 39.21 175.34 23.94 177.51 21.95"/><polygon class="cls-66" points="152.95 24.15 152.82 39.51 150.77 21.89 152.95 24.15"/><path class="cls-27" d="M155.67,30.95l5.2-1.17a.28.28,0,0,0,.22-.33l-.24-.83a.31.31,0,0,0-.37-.2l-5.2,1.17a.28.28,0,0,0-.22.33l.24.83A.31.31,0,0,0,155.67,30.95Z"/><path class="cls-27" d="M167.34,29.77l5.24,1a.31.31,0,0,0,.37-.21l.2-.84a.28.28,0,0,0-.24-.33l-5.24-1a.31.31,0,0,0-.37.21l-.2.84A.28.28,0,0,0,167.34,29.77Z"/><path class="cls-27" d="M156.26,40.8c2.81-1.17,3-3.64,5.15-4a3.19,3.19,0,0,0,4.69,0c1.89.28,2.14,2.35,5,4-2.84.09-5.89,0-7.33-1.46C162.67,40.62,159,41.15,156.26,40.8Z"/><path class="cls-27" d="M166.09,20.42l-6.46,4.26a26,26,0,0,0,1.47-3c-.18.06-4.19,1.89-4.19,1.89l2.64-3,6.6-.47"/><polygon class="cls-27" points="169.1 16.05 149.26 16.13 153.68 18.55 169.1 16.05"/><path class="cls-27" d="M171,16s-18.45-1.77-18.16-1.5,3,3.52,3,3.52Z"/><path class="cls-27" d="M161.28,34.08a1.25,1.25,0,0,0,.06-.39c0-.91-1-1.64-2.21-1.63s-2.2.74-2.19,1.65a1.25,1.25,0,0,0,.07.39Z"/><path class="cls-27" d="M171.33,34a1.25,1.25,0,0,0,.06-.39c0-.91-1-1.64-2.21-1.63s-2.2.74-2.19,1.65a1.25,1.25,0,0,0,.07.39Z"/><path class="cls-27" d="M158.45,43.12s0,.05,0,.08c0,1.83,2.4,3.31,5.35,3.3s5.32-1.51,5.32-3.34c0,0,0-.05,0-.08Z"/><path class="cls-67" d="M164.48,45.18a12.53,12.53,0,0,0-2.72.53,6.93,6.93,0,0,0-.78.3,7.84,7.84,0,0,0,2.82.49,7.19,7.19,0,0,0,3.81-1A8.28,8.28,0,0,0,164.48,45.18Z"/><path class="cls-68" d="M147.45,83.78l-.33-8.13a.65.65,0,0,0-.7-.58l-2.11.07a.64.64,0,0,0-.65.62l.33,8.13a.65.65,0,0,0,.7.58l2.11-.07A.64.64,0,0,0,147.45,83.78Z"/><path class="cls-69" d="M148.76,86.94l8.43,0a.78.78,0,0,0,.85-1l-3.78-15.9a1.36,1.36,0,0,0-1.3-1l-8.43,0a.78.78,0,0,0-.85,1L147.46,86A1.36,1.36,0,0,0,148.76,86.94Z"/><path class="cls-42" d="M157,90.61l-11.38.27A1.48,1.48,0,0,1,144,89.55l-.22-7.32a1.46,1.46,0,0,1,1.5-1.41l11.38-.27a2.11,2.11,0,0,1,2.26,1.91l.19,6.14A2.08,2.08,0,0,1,157,90.61Z"/><path class="cls-42" d="M161.15,84.25,146,84.62a.82.82,0,0,1-.87-.74L145,81.52a.8.8,0,0,1,.83-.78L161,80.37a.82.82,0,0,1,.87.74l.07,2.37A.8.8,0,0,1,161.15,84.25Z"/><path class="cls-42" d="M159.78,74.16c-.32,3.32,2.43,6.25,6.16,6.54s7-2.17,7.34-5.49-2.43-6.25-6.16-6.54S160.1,70.84,159.78,74.16Z"/><path class="cls-42" d="M157.79,75.8l10.34-5.26a.72.72,0,0,0,.32-1l-1.32-2.06a.91.91,0,0,0-1.16-.28l-10.34,5.26a.72.72,0,0,0-.32,1l1.32,2.06A.91.91,0,0,0,157.79,75.8Z"/></g><g id="Lehrerin_1" data-name="Lehrerin 1"><path class="cls-3" d="M131.86,52l4.78-37.7C136.6,6.43,129.31,0,120.43,0h0c-8.88,0-16.11,6.54-16.07,14.44l-2.53,37.88Z"/><path class="cls-70" d="M97.68,73c-12.52-.83-5.12-17.46,7.68-22.29"/><path class="cls-70" d="M143.07,84.14c9.13-14,10.07-26.26-6.08-32.81"/><path class="cls-71" d="M141.73,122.4c1.37-7.78-1.45-16.62-3.61-19.38l-36.2-.14c-5.08,7.28-4.08,12.2-3.23,19.4Z"/><path class="cls-72" d="M138.45,103.21c-9.77-17.56-1.61-38.85,2.63-54.14-9.63-9.23-36.05-6.09-42.95.18,6.1,18.37,11.72,36.6,3.19,53.84Z"/><path class="cls-73" d="M115.27,216.82a3.54,3.54,0,0,0,3.77-3.25l0-4.82-7.79,0-5.72,1.49c-1.67.69-11.18,6.63-9.33,6.63Z"/><path class="cls-12" d="M105.4,210.18l-9.83,3c-1.67.69-1.24,3.7.61,3.69l19.09-.08a3.54,3.54,0,0,0,3.77-3.25V211C117.32,211.25,111.81,215,105.4,210.18Z"/><polygon class="cls-71" points="119.09 210.97 118.63 121.2 98.52 121.28 110.91 208.82 119.09 210.97"/><path class="cls-74" d="M126.12,216.77a3.55,3.55,0,0,1-3.81-3.22l0-4.82,7.79,0,5.74,1.44c1.68.67,11.25,6.54,9.4,6.55Z"/><path class="cls-12" d="M135.92,210l9.87,2.95c1.68.67,1.28,3.69-.58,3.7l-19.09.08a3.55,3.55,0,0,1-3.81-3.22V211C124,211.23,129.56,214.9,135.92,210Z"/><polygon class="cls-71" points="122.23 210.95 121.77 121.19 141.87 121.1 130.4 208.74 122.23 210.95"/><path class="cls-75" d="M111.92,124.11l-.42-80c-5.86,1.14-14.33,3-16.82,5.57,6.11,20.76,6.76,54.9-1.77,74.38Z"/><path class="cls-76" d="M126.31,123.41l-.42-80c5.87,1.09,14.36,2.9,16.87,5.43-5.89,20.81-6.19,55,2.54,74.36Z"/><path class="cls-77" d="M109,27.87l-1.69.18a.54.54,0,0,1-.61-.42l-.78-5.74a.5.5,0,0,1,.47-.54l1.69-.18a.54.54,0,0,1,.61.42l.78,5.74A.5.5,0,0,1,109,27.87Z"/><path class="cls-77" d="M132.26,28.65l-1.69-.17a.5.5,0,0,1-.48-.53l.72-5.75a.53.53,0,0,1,.6-.43l1.69.17a.5.5,0,0,1,.48.53l-.72,5.75A.53.53,0,0,1,132.26,28.65Z"/><path class="cls-78" d="M119.87,49.57h0a5.58,5.58,0,0,1-5.33-5.87l0-6.83,10.75,0,0,6.83A5.72,5.72,0,0,1,119.87,49.57Z"/><path class="cls-79" d="M108.57,9.93c0,.38-.05.78-.05,1.19l.08,16.33c0,6.8,5.15,12.35,11.36,12.32h.27c6.21,0,11.27-5.61,11.23-12.41L131.38,11c0-.42,0-.81-.06-1.19Z"/><path class="cls-27" d="M118.52,23.33a1.3,1.3,0,0,0,.07-.41c0-.94-1-1.71-2.3-1.7S114,22,114,22.94a1.3,1.3,0,0,0,.07.41Z"/><path class="cls-27" d="M128.78,23.38a1.3,1.3,0,0,0,.07-.41c0-.94-1-1.71-2.3-1.7s-2.29.78-2.29,1.72a1.3,1.3,0,0,0,.07.41Z"/><path class="cls-2" d="M114.59,42.06c.52.65,5.37,7.23,5.37,7.23l-4.1,4.18-4.12-9.17Z"/><polygon class="cls-2" points="125.29 42.3 119.83 49.32 123.97 53.47 127.98 44.3 125.29 42.3"/><path class="cls-27" d="M126.91,31.43s0,.06,0,.09c0,2-2.62,3.68-5.87,3.69s-5.89-1.62-5.9-3.64c0,0,0-.06,0-.09Z"/><path class="cls-80" d="M120.28,33.76a13.84,13.84,0,0,1,3,.56,7.66,7.66,0,0,1,.87.32,8.65,8.65,0,0,1-3.1.56,8,8,0,0,1-4.21-1.09A9.13,9.13,0,0,1,120.28,33.76Z"/><path class="cls-81" d="M106.18,15.93c.5,1,3.82,22.15,3.82,22.15l2.73-36.27C107.94,4.47,104.32,8,106.18,15.93Z"/><path class="cls-81" d="M135.72,15.59c-2.58,4.66-10.27,6-17.18,2.93s-10.41-9.29-7.82-13.95,10.27-6,17.18-2.93S138.3,10.93,135.72,15.59Z"/><path class="cls-82" d="M106,69.56c.35,3.21-2.29,6.06-5.89,6.37s-6.8-2-7.15-5.25,2.29-6.06,5.89-6.37S105.63,66.35,106,69.56Z"/><path class="cls-82" d="M107.92,71.13l-10.05-5a.69.69,0,0,1-.32-1l1.26-2a.88.88,0,0,1,1.12-.28l10.05,5a.69.69,0,0,1,.32,1l-1.26,2A.88.88,0,0,1,107.92,71.13Z"/><path class="cls-68" d="M142.07,82.52l.28-9a.72.72,0,0,1,.77-.65l2.33.06a.7.7,0,0,1,.72.68l-.28,9a.72.72,0,0,1-.77.65l-2.33-.06A.7.7,0,0,1,142.07,82.52Z"/><path class="cls-83" d="M98.57,89.46l-.11-17.95a5,5,0,0,1,5.27-4.74l33.84-.17a5,5,0,0,1,5.33,4.69L143,89.24A5,5,0,0,1,137.74,94l-33.84.17A5,5,0,0,1,98.57,89.46Z"/><path class="cls-82" d="M131.62,90.16l12.58.2a1.63,1.63,0,0,0,1.74-1.49l.16-8.09a1.61,1.61,0,0,0-1.68-1.55L131.85,79a2.33,2.33,0,0,0-2.48,2.13L129.23,88A2.3,2.3,0,0,0,131.62,90.16Z"/><path class="cls-82" d="M126.95,83.17l16.76.27a.9.9,0,0,0,1-.82l.05-2.61a.89.89,0,0,0-.92-.85L127,78.89a.9.9,0,0,0-1,.82L126,82.32A.89.89,0,0,0,126.95,83.17Z"/></g></g></g></svg>