<svg xmlns="http://www.w3.org/2000/svg" xmlns:xlink="http://www.w3.org/1999/xlink" viewBox="0 0 265.69 216.9"><style>.Af{fill:#fff}.Ag{fill:#86283c}.Ah{stroke-linejoin:round}.Ai{stroke-linecap:round}.Aj{fill:none}.Ak{fill:#c21d47}.Al{fill:#66a0be}.Am{fill:#201e1d}.An{fill:#fbb800}.Ao{fill:#68aa61}.Ap{fill:#006192}.Aq{fill:#ae3e5a}.Ar{fill:#ffc9b8}.As{fill:#bb890e}</style><defs><linearGradient id="B" x1="235.04" y1="139.54" x2="235.04" y2="98.37" xlink:href="#o"><stop offset="0" stop-color="#ffe4da"/><stop offset=".97" stop-color="#ff9676"/></linearGradient><linearGradient id="U" x1="160.72" y1="46.72" x2="167.34" y2="46.72" xlink:href="#E"/><linearGradient id="C" x1="248.58" x2="248.58" xlink:href="#A"/><linearGradient id="D" x1="247.32" x2="247.32" xlink:href="#B"/><linearGradient id="E" x1="240.93" y1="71.69" x2="240.93" y2="101.72" xlink:href="#o"><stop offset="0" stop-color="#fb3847"/><stop offset="1" stop-color="#86283c"/></linearGradient><linearGradient id="F" x1="240.91" y1="59.85" x2="240.91" y2="44.06" xlink:href="#o"><stop offset=".12" stop-color="#ffd8ca"/><stop offset=".66" stop-color="#ffa183"/></linearGradient><linearGradient id="G" x1="240.85" y1="28.68" x2="240.85" y2="85.73" xlink:href="#o"><stop offset="0" stop-color="#ffede6"/><stop offset=".97" stop-color="#ff9676"/></linearGradient><linearGradient id="H" x1="239" y1="46.37" x2="243.93" y2="46.37" xlink:href="#E"/><linearGradient id="I" x1="241.25" y1="75.85" x2="241.25" y2="106.55" xlink:href="#E"/><linearGradient id="J" x1="193.05" y1="138.15" x2="193.05" y2="97.17" xlink:href="#o"><stop offset="0" stop-color="#3381a8"/><stop offset=".59" stop-color="#076c97"/><stop offset=".79" stop-color="#006192"/></linearGradient><linearGradient id="K" x1="208.05" y1="135.86" x2="208.05" y2="94.87" xlink:href="#A"/><linearGradient id="L" x1="200.56" y1="73.89" x2="200.56" y2="14.81" xlink:href="#o"><stop offset="0" stop-color="#68aa61"/><stop offset=".1" stop-color="#7cb576"/><stop offset=".41" stop-color="#b4d5b0"/><stop offset=".67" stop-color="#ddecdb"/><stop offset=".88" stop-color="#f6faf5"/><stop offset="1" stop-color="#fff"/></linearGradient><linearGradient id="M" x1="200.972" y1="60.7" x2="201.085" y2="49.32" xlink:href="#o"><stop offset=".25" stop-color="#ffd8ca"/><stop offset="1" stop-color="#ffa183"/></linearGradient><linearGradient id="N" x1="200.96" y1="33.47" x2="200.96" y2="65.22" xlink:href="#o"><stop offset=".01" stop-color="#ffe9e1"/><stop offset=".97" stop-color="#ffa082"/></linearGradient><linearGradient id="O" x1="199.29" y1="46.03" x2="203.48" y2="46.03" xlink:href="#E"/><linearGradient id="P" x1="154.156" y1="136.954" x2="153.727" y2="78.637" xlink:href="#A"/><linearGradient id="Q" x1="180.131" y1="149.946" x2="179.702" y2="91.657" xlink:href="#A"/><linearGradient id="R" x1="163.96" y1="48.07" x2="163.96" y2="92.69" xlink:href="#o"><stop offset="0" stop-color="#437381"/><stop offset="1" stop-color="#201e1d"/></linearGradient><linearGradient id="S" x1="163.63" y1="48.64" x2="163.63" y2="31.99" xlink:href="#o"><stop offset="0" stop-color="#ffd8ca"/><stop offset=".81" stop-color="#ff9676"/></linearGradient><linearGradient id="T" x1="163.95" y1="21.23" x2="163.95" y2="81.65" xlink:href="#o"><stop offset=".01" stop-color="#ffe0d4"/><stop offset=".36" stop-color="#ffc1ac"/><stop offset=".76" stop-color="#ffa285"/><stop offset=".97" stop-color="#ff9676"/></linearGradient><linearGradient id="A" x1="233.77" y1="137.89" x2="233.77" y2="93.77" xlink:href="#o"><stop offset="0" stop-color="#3381a8"/><stop offset=".79" stop-color="#006192"/></linearGradient><linearGradient id="V" x1="119.33" y1="50.7" x2="119.33" y2="156.22" xlink:href="#o"><stop offset="0" stop-color="#68aa61"/><stop offset=".37" stop-color="#40632f"/></linearGradient><linearGradient id="W" x1="102.45" y1="274.006" x2="102.45" y2="271.738" xlink:href="#o"><stop offset="0" stop-color="#ffd8ca"/><stop offset=".97" stop-color="#ff9676"/></linearGradient><linearGradient id="X" x1="133.649" y1="172.626" x2="133.649" y2="170.358" xlink:href="#W"/><linearGradient id="Y" x1="101.8" y1="17.57" x2="101.8" y2="160.54" xlink:href="#V"/><linearGradient id="Z" x1="135.19" y1="29.68" x2="135.19" y2="172.65" xlink:href="#V"/><linearGradient id="a" x1="119.688" y1="52.84" x2="119.835" y2="38.07" xlink:href="#S"/><linearGradient id="b" x1="119.85" y1="10.89" x2="119.85" y2="50.2" xlink:href="#W"/><linearGradient id="c" x1="123.97" y1="46.62" x2="116.65" y2="46.62" xlink:href="#E"/><linearGradient id="d" x1="120.31" y1="97.9" x2="120.31" y2="68.49" xlink:href="#o"><stop offset=".19" stop-color="#003f4f"/><stop offset="1" stop-color="#105364"/></linearGradient><linearGradient id="o" gradientUnits="userSpaceOnUse"/><path id="e" d="M163.244 45.68l17.55.02-.003 2.32-17.55-.02z"/><path id="g" d="M63.257 125.527l20.06.025-.002 1.72-20.06-.025z"/><path id="h" d="M175.45 89.76l-11.2-4.44 4.95 10 1.5-2.58 4.23 3.78 1.86-1.65-4.28-3.82 2.95-1.3z"/><path id="i" d="M17.73 66.672l21.94.027-.003 2.74-21.94-.027z"/><path id="f" d="M63.267 117.227l27.52.034-.002 1.72-27.52-.034z"/><path id="k" d="M66.412 72.1l14.63.018-.004 2.98-14.63-.018z"/><path id="l" d="M199.37 39.12a.79.79 0 000-.25c0-.57-.62-1-1.4-1s-1.4.47-1.4 1a.79.79 0 000 .25z"/><path id="m" d="M161.28 34.08a1.25 1.25 0 00.06-.39c0-.9-1-1.64-2.2-1.63s-2.2.74-2.2 1.65a1.25 1.25 0 00.07.39z"/><path id="n" d="M118.52 23.33a1.3 1.3 0 00.07-.41c0-.94-1-1.7-2.3-1.7s-2.3.78-2.3 1.72a1.3 1.3 0 00.07.41z"/><path id="j" d="M13.43 69.4l-4.57-.006.003-2.74 4.57.006z"/></defs><path d="M205.72 144.28l-197.36-.23c-3.9-2.4-7.1-5.26-7.08-8.73l.16-106.58c0-3.47 3.2-6.3 7.1-6.3l197.36.23c3.9 0 7.1 2.85 7.08 6.33l-.16 106.58c0 3.43-3.2 6.3-7.1 8.7z" fill="#1f1d1c" opacity=".15"/><path d="M1.004 29.6l212.94.26-.128 104.56a2.75 2.75 0 01-2.753 2.747l-207.45-.253a2.75 2.75 0 01-2.747-2.753L.994 29.6z" class="Af"/><path d="M.86 40.03l52.74.064-.02 16.45L.84 56.48z" class="Ak"/><path d="M63.42 68.82h25.33v23.73H63.42z" fill="#a0d0a4"/><path d="M63.4 103.84h27.7v10.77H63.4zm37.533.123l27.7.034-.013 10.77-27.7-.034z" fill="#f69f41"/><path d="M138.5 103.84h27.7v10.77h-27.7z" fill="#bebfe0"/><path d="M175.743 104.055l27.7.034-.013 10.77-27.7-.034z" fill="#a0d0a4"/><path d="M97.316 68.94l25.33.03-.03 23.73-25.33-.03z" fill="#ffb9b9"/><path d="M147.946 69l25.33.03-.03 23.73-25.33-.03z" fill="#f69f41"/><path d="M178.856 69.038l25.33.03-.03 23.73-25.33-.03z" fill="#bebfe0"/><path d="M.926 60.26l52.14.064-.09 72.72-52.14-.064z" fill="#e3e2e2"/><g fill="#cfd4d9"><use xlink:href="#e"/><use xlink:href="#f"/><path d="M63.29 97.617l140.23.17v1.26l-140.23-.17z"/><use xlink:href="#f" x="-.005" y="4.15"/><use xlink:href="#g"/><use xlink:href="#f" x="37.94" y=".057"/><use xlink:href="#f" x="37.925" y="4.197"/><use xlink:href="#g" x="37.94" y=".037"/><use xlink:href="#f" x="75.37" y=".093"/><path d="M138.62 121.47l27.52.034v1.72l-27.52-.034z"/><use xlink:href="#g" x="75.369" y=".093"/><use xlink:href="#f" x="112.449" y=".138"/><path d="M175.71 121.515l27.52.034v1.72l-27.52-.034z"/><use xlink:href="#g" x="112.449" y=".138"/><use xlink:href="#e" x="23.39" y=".028"/><use xlink:href="#e" x="23.393" y="5.588"/></g><path d="M63.347 59.637l19.93.024-.004 3.27-19.93-.024z" fill="#d45964"/><use xlink:href="#h" stroke="#fff" stroke-width="3.56" class="Af Ah"/><g class="Am"><use xlink:href="#h"/><path d="M2.825 20.433l207.34.253a2.8 2.8 0 012.797 2.803l-.007 5.58-212.96-.26.007-5.58a2.8 2.8 0 012.803-2.797z"/></g><ellipse cx="6.82" cy="25.04" rx="1.89" ry="2.12" transform="rotate(-89.93 6.82 25.041)" class="Ak"/><ellipse cx="13.66" cy="25.05" rx="1.89" ry="2.12" transform="rotate(-89.93 13.659 25.052)" class="An"/><ellipse cx="20.5" cy="25.06" rx="1.89" ry="2.12" transform="rotate(-89.93 20.503 25.058)" class="Ao"/><g fill="#9f9e9e"><use xlink:href="#i"/><path d="M17.706 76.922l17.36.02-.003 2.74-17.36-.02z"/><use xlink:href="#i" x="-.037" y="20.5"/><path d="M17.67 97.422l15.03.018-.003 2.74-15.03-.018zm-.002 10.25l19.07.023-.003 2.74-19.07-.023z"/><use xlink:href="#i" x="-.084" y="51.248"/><use xlink:href="#j"/><use xlink:href="#j" x="-.016" y="10.25"/><use xlink:href="#j" x="-.024" y="20.5"/><use xlink:href="#j" x="-.04" y="30.76"/><use xlink:href="#j" x="-.058" y="41.01"/><use xlink:href="#j" x="-.076" y="51.26"/></g><g fill="#e1e0e0"><path d="M.015 28.7l212.94.26-.012 9.48-212.94-.26z"/><path d="M28.612 23.065l30.85.038a3.19 3.19 0 013.186 3.194l-.008 6.35L25.4 32.6l.008-6.35a3.19 3.19 0 013.194-3.186z"/></g><path d="M32.3 31.58l134.4.164-.004 3.2-134.4-.164zm142.2.163l34.35.042-.004 3.2-34.35-.042zM8 50.84v-.52a1.93 1.93 0 01.23-.58 2.12 2.12 0 01.6-.64 2.64 2.64 0 01.74-.36 2.56 2.56 0 01.52-.11h1.27l.3.05v-.22a1.53 1.53 0 010-.19c0-.1 0-.22.08-.33a2.15 2.15 0 01.79-1.12 2 2 0 01.39-.23 2.79 2.79 0 01.41-.14 2.72 2.72 0 01.46-.07 3.55 3.55 0 01.44 0 2.21 2.21 0 01.52.1l.42.14c0-.1 0-.2.06-.3a3.08 3.08 0 01.29-.74 3.5 3.5 0 01.34-.52 3.44 3.44 0 01.42-.45l.35-.28a4.7 4.7 0 01.4-.26 3.7 3.7 0 01.67-.31l.62-.2a3.17 3.17 0 01.67-.08h1.17l.48.1a3.78 3.78 0 01.85.33 3.83 3.83 0 01.65.44 3.66 3.66 0 01.39.39 3.75 3.75 0 01.45.63 3.42 3.42 0 01.2.39 6.13 6.13 0 01.22.61l.15.66L22 48.57a.36.36 0 00-.07.09c0 .06 0 .12-.07.18l-.24.6-.34.87-.2.52-.26.2a3 3 0 01-.62.34.79.79 0 01-.36.07 1.18 1.18 0 01-.42-.13 2.18 2.18 0 01-.42-.3l-.27-.25-.42-.4-.32-.1a1.83 1.83 0 00-.36-.23 1.34 1.34 0 00-.75-.13 1.3 1.3 0 00-.35.09 1.67 1.67 0 00-.44.27l-.4.36-.4.4c-.1.1-.22.18-.33.27a1.25 1.25 0 01-.41.21.79.79 0 01-.5 0 1.14 1.14 0 01-.36-.22l-.32-.3-.37-.34a1.26 1.26 0 00-.37-.22.94.94 0 00-.47-.07 1.3 1.3 0 00-.47.17 2.81 2.81 0 00-.44.31l-.43.38a.11.11 0 000 .17.15.15 0 00.2 0l.05-.05.47-.4a2.08 2.08 0 01.47-.28.6.6 0 01.47 0 1.32 1.32 0 01.39.25l.27.25.3.26a1.67 1.67 0 00.36.26 1 1 0 00.39.12 1.71 1.71 0 00.31 0 1.26 1.26 0 00.46-.16 1.87 1.87 0 00.33-.22l.32-.27.4-.38a3.34 3.34 0 01.49-.4 1.16 1.16 0 01.54-.19 1 1 0 01.44.08 2 2 0 01.53.34l.28.26.4.4.3.24a2.1 2.1 0 00.28.18 1.21 1.21 0 00.5.15 1.64 1.64 0 00.29 0 1.39 1.39 0 00.47-.17 4.69 4.69 0 00.66-.43.52.52 0 01.1-.07l.3-.13.38-.16.72-.3.38-.16.72-.3.1-.06 1.3-1.27.1-.1.14-.13.16.3a2.49 2.49 0 01.18.51 2.2 2.2 0 01.06.43v.36a2.26 2.26 0 01-.06.43 2.58 2.58 0 01-.25.68l-.2.32a2.75 2.75 0 01-.39.46 3.34 3.34 0 01-.47.37 3.56 3.56 0 01-.88.42 3.1 3.1 0 01-.63.14h-12.4l-.48-.05a2.59 2.59 0 01-.66-.19 2.2 2.2 0 01-.5-.3 2.68 2.68 0 01-.43-.41 2.26 2.26 0 01-.32-.54 1.76 1.76 0 01-.15-.52v-.1zm15.46-1l-.95.4-.16-.13-.35-.28-.08-.07.23-.58.1-.27a.31.31 0 00.22 0l.14-.1.1-.1.27-.26.94-.94.13.06-.1.1-.2.18-.37.36-.2.2-.38.37a.68.68 0 00-.14.17.41.41 0 000 .27.4.4 0 00.14.25.49.49 0 00.28.1.58.58 0 00.24 0 .64.64 0 00.23-.16l.1-.1.27-.26.5-.5.3-.28.12-.12.1.1-.48.48-.26.25-.34.33-.26.25-.1.1a.24.24 0 00-.03.16z" class="Af"/><use xlink:href="#k" class="Ao"/><use xlink:href="#k" x="34.28" y=".053" class="Ak"/><use xlink:href="#k" x="85.69" y=".116" fill="#e87601"/><use xlink:href="#k" x="117.04" y=".144" fill="#00779b"/><g class="Ap"><rect x="219.46" y="47.89" width="42.64" height="35.29" rx="8.85"/><path d="M254.13 102.56h-25.8l-.93-8.24h27.66l-.94 8.24z"/></g><path d="M233.2 145.6c-.48-.15-13.17 5.45-13.17 5.45v1.67h20.12v-4.07z" class="Ak"/><path d="M233.06 145.5l-13.04 5.58 4.42.32 10.74-5.23-2.12-.67z" fill="#d04f70"/><path d="M220.02 151.07h20.12v1.66h-20.12z" class="Af"/><path d="M240.14 120.32V100l-12.73-5.66 2.53 26z" fill="url(#A)"/><path d="M229.6 116.73l.35 3.6h10.2v-3.6H229.6z" class="Al"/><path d="M229.94 120.34l2.93 25.28s7.27 5.2 7.27 4.65v-29.93z" fill="url(#B)"/><path d="M231.75 136.72l1.12 8.9s7.27 5.2 7.27 4.65v-13.55z" class="Af"/><path d="M249.17 145.6c.48-.15 13.17 5.45 13.17 5.45v1.67h-20.12v-4.07z" class="Ak"/><path d="M249.3 145.5l13.04 5.58-4.42.32-10.74-5.23 2.12-.67z" fill="#d04f70"/><path d="M242.22 151.07h20.12v1.66h-20.12z" class="Af"/><path d="M242.22 120.32V100L255 94.32l-2.53 26z" fill="url(#C)"/><path d="M252.77 116.73l-.34 3.6h-10.2v-3.6h10.55z" class="Al"/><path d="M252.42 120.34l-2.93 25.28s-7.27 5.2-7.27 4.65v-29.93z" fill="url(#D)"/><path d="M250.6 136.72l-1.12 8.9s-7.27 5.2-7.27 4.65v-13.55z" class="Af"/><path d="M252.54 53.86l-6.2-2.46v.4l-10.82-.18v-.12l-6.2 2.34a6.2 6.2 0 00-4.15 6.05l2.23 34.43h27.66l1.6-34.5a6.21 6.21 0 00-4.14-5.95z" fill="url(#E)"/><path d="M255.27 90.7l-.18 3.6h-27.63l-.23-3.6h28.04z" class="Ag"/><ellipse cx="241.15" cy="67.41" rx="5.44" ry="4.84" fill="#f2746b"/><path d="M227.3 60.17c-3.92 2.4-11.44 16.58-3.53 23.2" stroke="#fb3847" stroke-width="7" class="Ah Ai Aj"/><path d="M228.4 81.32c0 .35.4 7.56.4 7.56h10.22a4.2 4.2 0 004.12-2.88 3.42 3.42 0 00.12-1.13 4.18 4.18 0 00-4.39-3.58z" fill="#ffd8ca"/><path d="M230.1 89.2l1.98-8.02-5.73-1.36-1.9 8.27 5.66 1.1z" class="Ag"/><path d="M254.95 60.17c4.9 3.37 11.5 14.2 3.53 23.2" stroke="#fb3847" stroke-width="7" class="Ah Ai Aj"/><path d="M253.85 81.32c0 .35-.4 7.56-.4 7.56h-10.22A4.2 4.2 0 01239.1 86a3.42 3.42 0 01-.12-1.13 4.18 4.18 0 014.39-3.58z" fill="#ffd8ca"/><path d="M252.15 89.2l-1.98-8.02 5.73-1.36 1.9 8.27-5.66 1.1z" class="Ag"/><path d="M226.4 78.8l-1.28-19.13c0-3.5 2.48-5.67 5.7-6.45zm29.46 0l1.28-19.13c0-3.5-2.48-5.67-5.7-6.45z" class="Al"/><path d="M251.06 50.83c0 4.47-10.15 10.3-10.15 10.3s-10.15-5.82-10.15-10.3S235.3 46 240.9 46s10.15.36 10.15 4.83z" class="Ag"/><path d="M240.9 60.55s-5.38-5.38-5.38-8V47h10.75v5.53c.01 2.64-5.37 8.02-5.37 8.02z" fill="url(#F)"/><path d="M251.67 43.5h-.15a1.08 1.08 0 01-.94-1.19l.4-4a1.06 1.06 0 011.16-1h.15a1.08 1.08 0 01.94 1.19l-.4 4a1.06 1.06 0 01-1.16 1zM230 43.4h.15a1.08 1.08 0 00.94-1.19l-.4-4a1.06 1.06 0 00-1.16-1h-.15a1.08 1.08 0 00-.94 1.19l.4 4a1.06 1.06 0 001.16 1z" fill="#ffb69f"/><path d="M232.7 25.23a2.12 2.12 0 00-2.23 2v14.6c0 4.86 4.56 7.17 6.56 8.8a3.34 3.34 0 002.09.72h3.17a3.94 3.94 0 002.49-.86c2.08-1.7 6.4-3.8 6.4-8.65V27.37a2.28 2.28 0 00-2.4-2.14z" fill="url(#G)"/><path d="M251.23 37.67H249V25.8h.9a1.21 1.21 0 011.33 1.21zm-20.77-10.34h2.2v10.34h-2.2z" fill="#9e5363"/><g class="Ag"><path d="M251.2 28.53l.1-1.74c0-3.45-2.17-4.73-4.34-4.73h-10.82c-1.84 0-4.2.6-4.2 2.58-2.18.18-1.5 3.06-1.4 3.93z"/><path d="M252.93 26.78c0-3.45-3.8-4.73-6-4.73h-10.78c-1.84 0-4.2.6-4.2 2.58-3 .25-2.14 3.2-2.14 3.2.4 2.16 6.06 4.48 10.56 4.6a18.35 18.35 0 01-1-2.63c2.74 2.33 7.88 3.52 13.58 3.25zm-15.8 17.56v.06c0 1.36 1.77 2.47 4 2.47s4-1.1 4-2.47v-.06z"/></g><path d="M241.6 45.9a9.32 9.32 0 00-2 .39 5.15 5.15 0 00-.58.22 5.83 5.83 0 002.09.37 5.35 5.35 0 002.83-.74 6.15 6.15 0 00-2.34-.24z" fill="url(#H)"/><path d="M239.1 38.26a.93.93 0 000-.29c0-.67-.73-1.22-1.64-1.22s-1.64.55-1.64 1.22a.93.93 0 000 .29zm7.46-.03a.93.93 0 000-.29c0-.67-.73-1.22-1.64-1.22s-1.64.55-1.64 1.22a.93.93 0 000 .29zm1.16-1.95l-4.05-.9a.21.21 0 01-.18-.26l.18-.65a.24.24 0 01.29-.16l4.05.9a.21.21 0 01.18.26l-.18.65a.24.24 0 01-.29.16zm-8.84-.88l-4.08.8a.24.24 0 01-.29-.16l-.16-.65a.22.22 0 01.18-.26l4.08-.8a.24.24 0 01.29.16l.16.65a.22.22 0 01-.18.26z" class="Ag"/><path d="M232.34 78.16l-2.9 12.6h23.6l-2.5-12.6h-18.22z" fill="url(#I)"/><path d="M239.24 114.87a18.22 18.22 0 00-7.22-8 11 11 0 00-4.48-4.44v-1.33c-.12-1.37 0-2.63-2.44-3.17l-.1.07q.84-1.6 1.6-3.24l.35.17a18.31 18.31 0 001.47-4.49h-.08c1.46-5.4 1.25-12.18-.6-18.77-2.1-7.48-6-13.5-10.9-16.92a3.83 3.83 0 00-.39-.23l.2-.42a11.91 11.91 0 00-4.63-2.6c0-2.25-1.45-3.37-3.6-3.9a7.78 7.78 0 001.37-1.58h3.9v-10a32.72 32.72 0 000-4.24 7.51 7.51 0 00-.11-1.07 7.73 7.73 0 00-1.57-4.14c-6.2-6.4-14.15-2.88-16.45-.32A8 8 0 00193 32v14h3.87a7.39 7.39 0 001.35 1.58c-2.13.54-3.5 1.67-3.5 4a14.06 14.06 0 00-5.48 2.42l.25.4a3.84 3.84 0 00-.41.24c-5.15 3.6-8.45 9.43-9.3 16.42a30 30 0 003.12 17.24h-.07a16 16 0 002.18 3.81l.32-.2q1.36 1.77 2.86 3.48a3.19 3.19 0 00.51.47 17 17 0 00.14 3.68h-.1l7.34 48.5.55 3.54-.62.12-.37.08-.3.06-.46.1h-.17l-.52.12h-.07c-4 1-6 2.08-6.77 3l-.1.16-.07.13v.72c0 .03 0 0 0 0v.1a1 1 0 000 .12h13.7a1.34 1.34 0 00.69-.19l.1-.06a1.06 1.06 0 00.45-.82V99.67h1.74v55.67a1.06 1.06 0 00.45.82l.1.06a1.34 1.34 0 00.69.19h13.7v-.2c0-.03 0 0 0 0v-.58l-.07-.13-.1-.16c-.73-.94-2.72-2-6.77-3h-.07l-.52-.12h-.17l-.46-.1-.3-.06-.37-.08-.62-.12.55-3.54 2.5-16.6a3.17 3.17 0 00.84.14l16.76.52a2.9 2.9 0 002.8-1.71 6.94 6.94 0 004.37-.17c4.35-2.06 5.36-8.94 2.1-15.6zm-13.82-13.3a12 12 0 00-3.2-.54h-1.16v-.3h.07a3.37 3.37 0 002.83-1.07l1 .25c.35.17.46.87.46 1.66zm-33.32-40.3a54 54 0 01.28 21.46q-.25 1.35-.57 2.66-.15.62-.32 1.22v.1q-.17.6-.35 1.2l-.18-.26a3.19 3.19 0 00-.22-.42q-.26-.42-.5-.85a17.82 17.82 0 01-.8-1.87l-.12.07c-3.8-8.16-2.62-18.05 2.78-23.3zm25 38.38c.55-2.26-.5-10.18-2.3-11.68q-.2-.6-.4-1.23l-.08-.27-.28-1-.06-.22q-.14-.56-.27-1.12v-.12q-.14-.63-.26-1.27a51.31 51.31 0 01.55-21.26c6 5.9 8.82 17.8 7.3 25.88l-.14-.07a17.22 17.22 0 01-1.1 4.22l.48.24a83.03 83.03 0 01-2.05 4.12 3.31 3.31 0 00.56 3.9l.12 1.48a11.58 11.58 0 00-2.51.81l.36-2.4zm19 27.17a4.44 4.44 0 01-3.17-.07l.3-15.15a9.39 9.39 0 00-.05-1.17 15.85 15.85 0 013.92 5.14c2.4 5 1.9 10.05-1.1 11.25z" fill="#1f1d1c" opacity=".1"/><path d="M222 90.42c3.24-10.2-.87-26.8-9.9-33.1M185.05 88.9c-6.67-10.7-5.05-25.27 4-31.58" stroke="#68aa61" stroke-width="8" class="Ah Ai Aj"/><path d="M222.8 106.07c4.5-1.8 10.82 2.13 14.1 8.8s2.26 13.55-2.25 15.36-10.82-2.13-14.1-8.8-2.27-13.55 2.25-15.36zm1 13.9c2.45 5 6.88 8.08 9.88 6.87s3.46-6.24 1-11.24-6.88-8.08-9.88-6.87-3.46 6.28-1 11.28zm-1-15.85c.1-.6.6-3.82-.2-4.18l-2.8-.7c-1.26-.13-1.24.6-1.06 1.92l.25 1.92-2.05-.5-.23-2.88c-.2-1.84 1-2.8 2.57-2.47l3.43.73c2.4.55 2.32 1.8 2.44 3.17l.13 3.55-1.2-.37z" class="Aq"/><path d="M210.7 131.6l16.76.52a2.79 2.79 0 003-2.6l.36-17.9c.1-5.63-4.8-10.38-10.95-10.58h-.33c-6.13-.2-11.24 4.26-11.36 9.88l-.36 17.9a2.87 2.87 0 002.88 2.78z" fill="#a01c3d"/><path d="M219.25 128.9l7.6.24a1.52 1.52 0 001.63-1.42l.25-12.35a5 5 0 00-5-4.82h-.64a4.83 4.83 0 00-5.17 4.5l-.25 12.35a1.56 1.56 0 001.58 1.5z" class="Aq"/><path d="M220.6 114.77l6.37.3a.59.59 0 00.64-.54.6.6 0 00-.6-.6l-6.37-.3a.59.59 0 00-.64.54.6.6 0 00.6.6z" fill="#a01c3d"/><path d="M211.45 120.18h.07a2.23 2.23 0 002.42-2l.25-6.54a2.28 2.28 0 00-2.25-2.25h-.07a2.23 2.23 0 00-2.42 2l-.25 6.54a2.28 2.28 0 002.25 2.25z" class="Aq"/><path d="M187.18 86.74l-1.38 1-2.6 2a9.51 9.51 0 01-1.27.77l3.9 4.88a3.6 3.6 0 003.56 1 3.52 3.52 0 001.15-.52 2.77 2.77 0 00.58-4.19 57.474 57.474 0 01-3.96-4.94z" class="Ar"/><path d="M185.52 85.5l-5.06 2.9a16 16 0 002.22 3.75l6.17-4a14.79 14.79 0 01-1.85-3.58z" class="Af"/><path d="M219.1 89.73l1.54.85 2.94 1.78A9.42 9.42 0 00225 93l-2.93 6a3.37 3.37 0 01-4.54 1.36 3.32 3.32 0 01-1.37-4.51l2.93-6.12z" class="Ar"/><path d="M220.5 88.08l5.53 2.32a18.31 18.31 0 01-1.47 4.49l-6.84-3.36a17.22 17.22 0 001.1-4.22z" class="Af"/><path d="M198.44 156.4a1.18 1.18 0 001.24-1.1l-5.3-3.7c-8.12 1.55-10.14 3.56-9.64 4.8z" fill="#fdd66e"/><path d="M194.4 151.6a43.58 43.58 0 00-4.72 1.14v3.65h8.78a1.18 1.18 0 001.24-1.1z" class="An"/><path d="M185 155.2a1.19 1.19 0 00-.26 1.2h13.7a1.18 1.18 0 001.24-1.1v-.1z" class="Af"/><path d="M199.68 153.03V99.55h-13.26l7.87 52.04 5.4 1.44z" fill="url(#J)"/><path d="M193.74 148.05l.55 3.54 5.4 3.75v-3.42l-5.94-3.87z" class="Al"/><path d="M202.66 156.4a1.18 1.18 0 01-1.24-1.1l5.3-3.7c8.12 1.55 10.14 3.56 9.64 4.8z" fill="#fdd66e"/><path d="M206.7 151.6a43.58 43.58 0 014.72 1.14v3.65h-8.78a1.18 1.18 0 01-1.24-1.1z" class="An"/><path d="M216.1 155.2a1.19 1.19 0 01.26 1.2h-13.7a1.18 1.18 0 01-1.24-1.1v-.1z" class="Af"/><path d="M201.42 153.03V99.55h13.26l-7.87 52.04-5.4 1.44z" fill="url(#K)"/><path d="M207.37 148.05l-.56 3.54-5.4 3.75v-3.42l5.95-3.87z" class="Al"/><path d="M212.4 88c-3.94-11.83-2.1-25.73 1.86-34-6.1-5.9-23-4-27.38 0 4.67 7.32 5.4 22.64 1.86 34z" fill="url(#L)"/><path d="M190 82.75a45.53 45.53 0 01-1.3 5.24h23.67a41 41 0 01-1.37-5.24z" fill="#97c492"/><path d="M214.7 99.67c.55-2.26-.5-10.18-2.3-11.68h-23.68c-2.34 2-2.7 9.4-2.2 11.68z" class="Ap"/><path d="M190.63 45.94V32c0-4.8 4.57-8.73 10.15-8.73h.36c5.58 0 10.15 3.93 10.15 8.73v14z" fill="#ce8e27"/><path d="M209.62 51.48c0 3.8-8.62 6.52-8.62 6.52s-8.64-2.66-8.64-6.47 3.78-4.42 8.55-4.42 8.7.56 8.7 4.37z" class="Ao"/><path d="M194 43l-1.28.16a.41.41 0 01-.47-.31l-.68-4.26a.38.38 0 01.35-.42l1.28-.16a.41.41 0 01.47.31l.68 4.26a.38.38 0 01-.35.42zm14 0l1.28.16a.41.41 0 00.47-.31l.68-4.26a.38.38 0 00-.35-.42l-1.3-.17a.41.41 0 00-.47.31l-.68 4.26a.38.38 0 00.38.43z" fill="#ffcbba"/><path d="M200.9 57.9s-3.6-4.27-3.6-6.06l.05-3.75h7.25l-.05 3.75c-.01 1.8-3.66 6.06-3.66 6.06z" fill="url(#M)"/><path d="M202.34 49.76a3.19 3.19 0 01-2.61 0c-2.18-1-6.3-2.74-6.3-7.72v-8.3c0-3.64 3.34-6.6 7.43-6.6h.13c4.08 0 7.43 3 7.43 6.6v8.32c.04 4.78-3.96 6.7-6.1 7.7z" fill="url(#N)"/><path d="M192.9 26.54c-4.34 8.93 7.7 8.3 7.7 8.3l-.1-4.5c1.57 3.1 4.8 4.93 10.76 6 .3-5.12-.2-8.06-1.67-9.8-6.44-6.62-14.76-2.55-16.7-.01z" fill="#d69f48"/><g class="Ag"><use xlink:href="#l"/><use xlink:href="#l" x="6.36" y="-.02"/><path d="M197.7 44.3v.05c0 1.16 1.5 2.1 3.37 2.1s3.37-.94 3.37-2.1v-.05z"/></g><path d="M201.5 45.62a7.93 7.93 0 00-1.72.33 4.39 4.39 0 00-.5.19 5 5 0 001.78.32 4.56 4.56 0 002.41-.63 5.24 5.24 0 00-1.97-.21z" fill="url(#O)"/><path d="M203.16 37a2.49 2.49 0 012.93.46m-9.85.08a2.47 2.47 0 012.91-.58" stroke="#86283c" stroke-width=".25" class="Ah Ai Aj"/><path d="M164.68 179.37l-7.93.03-.01-1.46 7.93-1.44.01 2.87z" fill="#713f2c"/><path d="M155.5 170c-.38-.13-8.35 4.8-12.52 6.37a3.64 3.64 0 00-2.48 3.36v.3l10.43-.2 13.72-2.55v-3.88z" fill="#93533d"/><path d="M180.24 107.42l-29.52.13-1.37-10.07 31.5-.12-.6 10.06z" class="Ap"/><path d="M149.6 98.28l5.56 71.72s9.5 5.8 9.5 5.2l-.37-70.57z" fill="url(#P)"/><path d="M166.65 179.36l7.94-.04-.01-1.46-7.94-1.36.01 2.86z" fill="#713f2c"/><path d="M175.73 169.88c.38-.13 8.4 4.72 12.58 6.26a3.65 3.65 0 012.52 3.34v.3l-10.43-.1-13.75-2.44v-3.88z" fill="#93533d"/><path d="M180.9 98.15l-4.8 71.73s-9.43 5.88-9.43 5.27l-.37-70.57z" fill="url(#Q)"/><path d="M151.47 58.53c-14.7 4.33-14.65 22.82-3.82 26.68" stroke="#437381" stroke-width="6" class="Ah Ai Aj"/><path d="M148.9 99.68l32.36-.13 1.24-38c0-4.8-4.4-8.66-9.8-8.64l-16.92.07c-5.38 0-9.72 3.92-9.7 8.72z" fill="url(#R)"/><path d="M159.46 59.13h9a2.74 2.74 0 002.88-2.59l-.06-11.72-14.83.06.06 11.72a2.75 2.75 0 002.95 2.53z" fill="url(#S)"/><path d="M171.33 50.46c-.57.78-6 8.64-6 8.64L170 64l4.53-10.93zm-15.1.27l6.23 8.3-4.6 4.98-4.63-10.87 3-2.4z" fill="#437381"/><path d="M179.56 58.83c12.1 7.75 14.16 21-9.87 17.88" stroke="#437381" stroke-width="6" class="Ah Ai Aj"/><path d="M174.1 41.85l1.64.4a.56.56 0 00.67-.34l1.8-5.92a.48.48 0 00-.38-.59l-1.64-.4a.56.56 0 00-.67.34l-1.8 5.92a.48.48 0 00.38.59zm-22.1.58l1.7-.2a.5.5 0 00.46-.55l-1-6.07a.54.54 0 00-.62-.41l-1.7.2a.5.5 0 00-.46.55l1 6.07a.54.54 0 00.62.41z" fill="#ffd6c9"/><path d="M150.76 21.77a5.54 5.54 0 012-4.14 6.29 6.29 0 014.13-1.53l14.42-.1a6.26 6.26 0 014.39 1.73 5.67 5.67 0 011.77 3.9l-2 17.55-.2-13.77a6.31 6.31 0 01-3.9 1.34l-14.43.06a6.32 6.32 0 01-4-1.36l-.14 14z" class="Ag"/><path d="M175.58 25.37l.07 14c0 5.2-4 10.05-9 10.07h-4.7c-5 0-9.1-4.8-9.14-10l-.07-14a3.56 3.56 0 013.47-3.64l15.9-.07a3.56 3.56 0 013.47 3.64z" fill="url(#T)"/><path d="M177.5 21.95l-2.05 17.26-.12-15.27 2.17-2zm-24.55 2.2l-.13 15.36-2.05-17.62 2.18 2.26z" fill="#9f5565"/><g class="Ag"><path d="M155.67 30.95l5.2-1.17a.28.28 0 00.22-.33l-.24-.83a.31.31 0 00-.37-.2l-5.2 1.17a.28.28 0 00-.22.33l.24.83a.31.31 0 00.37.2zm11.67-1.18l5.24 1a.31.31 0 00.37-.21l.2-.84a.28.28 0 00-.24-.33l-5.24-1a.31.31 0 00-.37.21l-.2.84a.28.28 0 00.24.33zM156.26 40.8c2.8-1.17 3-3.64 5.15-4a3.19 3.19 0 004.69 0c1.9.28 2.14 2.35 5 4-2.84.1-5.9 0-7.33-1.46-1.1 1.28-4.77 1.8-7.5 1.46zm9.84-20.38l-6.46 4.26a26 26 0 001.47-3c-.18.06-4.2 1.9-4.2 1.9l2.64-3 6.6-.47m2.95-4.06l-19.84.08 4.42 2.42 15.42-2.5z"/><path d="M171 16l-18.16-1.5c.3.27 3 3.52 3 3.52z"/><use xlink:href="#m"/><use xlink:href="#m" x="10.05" y="-.08"/><path d="M158.45 43.12v.08c0 1.83 2.4 3.3 5.35 3.3s5.32-1.5 5.32-3.34v-.08z"/></g><path d="M164.48 45.18a12.53 12.53 0 00-2.72.53 6.93 6.93 0 00-.78.3 7.84 7.84 0 002.82.49 7.19 7.19 0 003.81-1 8.28 8.28 0 00-3.13-.32z" fill="url(#U)"/><path d="M147.45 83.78l-.33-8.13a.65.65 0 00-.7-.58l-2.1.07a.64.64 0 00-.65.62l.33 8.13a.65.65 0 00.7.58l2.1-.07a.64.64 0 00.65-.62z" fill="#ffb097"/><path d="M148.76 86.94h8.43a.78.78 0 00.85-1l-3.78-15.9a1.36 1.36 0 00-1.3-1h-8.43a.78.78 0 00-.85 1L147.46 86a1.36 1.36 0 001.3.94z" fill="#76bde2"/><g class="Ar"><path d="M157 90.6l-11.38.27a1.48 1.48 0 01-1.62-1.33l-.22-7.32a1.46 1.46 0 011.5-1.41l11.38-.27a2.11 2.11 0 012.26 1.91l.2 6.14a2.08 2.08 0 01-2.11 2.01z"/><path d="M161.15 84.25l-15.15.37a.82.82 0 01-.87-.74l-.13-2.36a.8.8 0 01.83-.78l15.17-.37a.82.82 0 01.87.74l.07 2.37a.8.8 0 01-.79.77zm-1.37-10.1c-.32 3.32 2.43 6.25 6.16 6.54s7-2.17 7.34-5.5-2.43-6.25-6.16-6.54-7.02 2.17-7.34 5.5z"/><path d="M157.8 75.8l10.34-5.26a.72.72 0 00.32-1l-1.32-2.06a.91.91 0 00-1.16-.28l-10.34 5.26a.72.72 0 00-.32 1l1.32 2.06a.91.91 0 001.16.28z"/></g><path d="M131.86 52l4.78-37.7C136.6 6.43 129.3 0 120.43 0s-16.1 6.54-16.07 14.44l-2.53 37.88z" class="Ak"/><path d="M97.68 73c-12.52-.83-5.12-17.46 7.68-22.3m37.7 33.44c9.13-14 10.07-26.26-6.08-32.8" stroke="#68aa61" stroke-width="9" class="Ah Ai Aj"/><path d="M141.73 122.4c1.37-7.78-1.45-16.62-3.6-19.38l-36.2-.14c-5.08 7.28-4.08 12.2-3.23 19.4z" class="As"/><path d="M138.45 103.2c-9.77-17.56-1.6-38.85 2.63-54.14-9.63-9.23-36.05-6.1-42.95.18 6.1 18.37 11.72 36.6 3.2 53.84z" fill="url(#V)"/><path d="M115.27 216.82a3.54 3.54 0 003.77-3.25v-4.82h-7.8l-5.72 1.5c-1.67.7-11.18 6.63-9.33 6.63z" fill="url(#W)"/><path d="M105.4 210.18l-9.83 3c-1.67.7-1.24 3.7.6 3.7l19.1-.08a3.54 3.54 0 003.77-3.25V211c-1.72.25-7.23 4-13.64-.82z" class="Am"/><path d="M119.1 210.97l-.46-89.77-20.1.08 12.4 87.54 8.18 2.15z" class="As"/><path d="M126.12 216.77a3.55 3.55 0 01-3.81-3.22v-4.82h7.8l5.74 1.44c1.68.67 11.25 6.54 9.4 6.55z" fill="url(#X)"/><path d="M135.92 210l9.87 2.95c1.68.67 1.28 3.7-.58 3.7l-19.1.08a3.55 3.55 0 01-3.81-3.22V211c1.7.23 7.25 3.9 13.6-1z" class="Am"/><path d="M122.23 210.95l-.46-89.76 20.1-.1-11.47 87.64-8.17 2.2z" class="As"/><path d="M111.92 124.1l-.42-80c-5.86 1.14-14.33 3-16.82 5.57 6.1 20.76 6.76 54.9-1.77 74.38z" fill="url(#Y)"/><path d="M126.3 123.4l-.42-80c5.87 1.1 14.36 2.9 16.87 5.43-5.9 20.8-6.2 55 2.54 74.36z" fill="url(#Z)"/><path d="M109 27.87l-1.7.18a.54.54 0 01-.61-.42l-.78-5.74a.5.5 0 01.47-.54l1.7-.18a.54.54 0 01.61.42l.78 5.74a.5.5 0 01-.47.54zm23.26.78l-1.7-.17a.5.5 0 01-.48-.53l.72-5.75a.53.53 0 01.6-.43l1.7.17a.5.5 0 01.48.53l-.72 5.75a.53.53 0 01-.6.43z" fill="#ff9676"/><path d="M119.87 49.57a5.58 5.58 0 01-5.33-5.87v-6.83h10.75v6.83a5.72 5.72 0 01-5.42 5.87z" fill="url(#a)"/><path d="M108.57 9.93l-.05 1.2.08 16.33c0 6.8 5.15 12.35 11.36 12.32h.27c6.2 0 11.27-5.6 11.23-12.4L131.38 11c0-.42 0-.8-.06-1.2z" fill="url(#b)"/><g class="Ag"><use xlink:href="#n"/><use xlink:href="#n" x="10.26" y=".05"/></g><g class="Af"><path d="M114.6 42.06l5.37 7.23-4.1 4.18-4.12-9.17z"/><path d="M125.3 42.3l-5.46 7.02 4.14 4.15 4-9.17-2.7-2z"/></g><path d="M126.9 31.43v.1c0 2-2.62 3.68-5.87 3.7s-5.9-1.62-5.9-3.64v-.1z" class="Ag"/><path d="M120.28 33.76a13.84 13.84 0 013 .56 7.66 7.66 0 01.87.32 8.65 8.65 0 01-3.1.56 8 8 0 01-4.21-1.09 9.13 9.13 0 013.44-.35z" fill="url(#c)"/><g fill="#cb3f63"><path d="M106.18 15.93c.5 1 3.82 22.15 3.82 22.15l2.73-36.27c-4.8 2.66-8.4 6.2-6.55 14.12z"/><path d="M135.72 15.6c-2.58 4.66-10.27 6-17.18 2.93s-10.4-9.3-7.82-13.95 10.27-6 17.18-2.93 10.4 9.3 7.82 13.95z"/></g><g fill="#f7a89a"><path d="M106 69.56c.35 3.2-2.3 6.06-5.9 6.37s-6.8-2-7.15-5.25 2.3-6.06 5.9-6.37 6.78 2.04 7.15 5.25z"/><path d="M107.92 71.13l-10.05-5a.69.69 0 01-.32-1l1.26-2a.88.88 0 011.12-.28l10.05 5a.69.69 0 01.32 1l-1.26 2a.88.88 0 01-1.12.28z"/></g><path d="M142.07 82.52l.28-9a.72.72 0 01.77-.65l2.33.06a.7.7 0 01.72.68l-.28 9a.72.72 0 01-.77.65l-2.33-.06a.7.7 0 01-.72-.68z" fill="#ffb097"/><path d="M98.57 89.46l-.1-17.95a5 5 0 015.27-4.74l33.84-.17a5 5 0 015.33 4.69l.1 17.95a5 5 0 01-5.26 4.76l-33.84.17a5 5 0 01-5.33-4.71z" fill="url(#d)"/><g fill="#f7a89a"><path d="M131.62 90.16l12.58.2a1.63 1.63 0 001.74-1.49l.16-8.1a1.61 1.61 0 00-1.68-1.55L131.85 79a2.33 2.33 0 00-2.48 2.13l-.14 6.87a2.3 2.3 0 002.39 2.16z"/><path d="M126.95 83.17l16.76.27a.9.9 0 001-.82l.05-2.6a.89.89 0 00-.92-.85L127 78.9a.9.9 0 00-1 .82v2.6a.89.89 0 00.95.85z"/></g></svg>