<svg width="1200" height="780" viewBox="0 0 1200 780" xmlns="http://www.w3.org/2000/svg"><g fill="none" fill-rule="evenodd"><path d="M1110.521 587.063c-31.052-49.74-826.883-60.828-952.662 4.192-125.779 65.02 40.37 140.636 345.01 129.756 304.64-10.88 638.704-84.208 607.652-133.948z" fill="#ECEEF0" opacity=".421"/><g transform="rotate(18 33.51 1298.94)"><path d="M122.343 18.394c9.622 9.622 5.535 30.293-8.52 51.904 14.055 21.61 18.142 42.28 8.52 51.902-9.621 9.622-30.292 5.536-51.902-8.52-21.612 14.056-42.282 18.142-51.904 8.52-9.621-9.621-5.535-30.292 8.52-51.902-14.055-21.61-18.142-42.282-8.52-51.904 9.622-9.621 30.293-5.535 51.904 8.52 21.61-14.055 42.28-18.141 51.902-8.52zm-57.897 91.147l-.253-.185c-5.946-4.367-11.89-9.456-17.623-15.189-5.814-5.814-10.966-11.845-15.374-17.876-3.404 5.515-6.123 10.965-8.044 16.157-4.412 11.927-4.04 20.84.129 25.009 4.168 4.168 13.081 4.541 25.009.128 5.191-1.92 10.642-4.64 16.156-8.044zm25.12-58.37C83.411 45.016 76.93 39.57 70.44 35.011c-6.49 4.558-12.97 10.005-19.126 16.16-6.156 6.156-11.603 12.636-16.16 19.127 4.558 6.49 10.005 12.97 16.16 19.126 6.156 6.155 12.636 11.602 19.126 16.16 6.49-4.558 12.97-10.005 19.126-16.16 6.156-6.156 11.602-12.636 16.16-19.126-4.557-6.49-10.004-12.971-16.16-19.127zm-25.12-20.118l-.473-.289c-5.353-3.27-10.64-5.889-15.683-7.754-11.928-4.413-20.84-4.04-25.01.128-4.168 4.168-4.54 13.081-.128 25.01 1.921 5.19 4.64 10.641 8.045 16.155 4.407-6.03 9.559-12.06 15.373-17.875 5.815-5.815 11.846-10.967 17.876-15.375zm45.237 45.239l-.184.253c-4.367 5.946-9.456 11.89-15.189 17.622-5.815 5.815-11.846 10.966-17.876 15.375 5.515 3.404 10.965 6.122 16.156 8.043 11.928 4.413 20.841 4.04 25.01-.128 4.168-4.169 4.54-13.082.128-25.01-1.92-5.19-4.64-10.641-8.045-16.155zm7.917-53.154c-4.169-4.168-13.082-4.541-25.01-.128-5.191 1.92-10.641 4.64-16.155 8.044 6.03 4.407 12.06 9.559 17.875 15.374 5.815 5.814 10.966 11.845 15.374 17.875 3.405-5.514 6.123-10.964 8.044-16.156 4.413-11.928 4.04-20.84-.128-25.009z" fill="#ECEEF0"/><circle fill="#B4BDC3" cx="70.44" cy="70.44" r="18.784"/></g><path d="M664.072 156.302l-18.006 58.896-52.647-16.096a6.54 6.54 0 01-4.339-8.16l16.096-52.647 58.896 18.007zm64.657 19.767l-16.096 52.646a6.54 6.54 0 01-8.16 4.34l-52.647-16.096 18.007-58.897 58.896 18.007zm-44.89-84.424l-18.006 58.897-58.896-18.007 16.096-52.646a6.54 6.54 0 018.16-4.34l52.647 16.096zm58.407 17.856a6.545 6.545 0 014.34 8.16l-16.096 52.647-58.896-18.006L689.6 93.406z" fill="#ECEEF0"/><path d="M622.75 165.877l3.63 6.83 6.828-3.617a3.02 3.02 0 014.08 1.25 3.015 3.015 0 01-1.246 4.079l-6.83 3.631 3.63 6.82a3.01 3.01 0 11-5.317 2.828l-3.638-6.836-6.829 3.631a3.015 3.015 0 11-2.831-5.324l6.829-3.632-3.631-6.829a3.015 3.015 0 115.325-2.831zm77.022 37.19a3.012 3.012 0 11-1.76 5.76l-20.565-6.287a3.012 3.012 0 111.761-5.76l20.564 6.288zm3.693-12.078a3.012 3.012 0 11-1.76 5.76l-20.565-6.287a3.012 3.012 0 111.761-5.76l20.564 6.287zm-54.26-92.914a3.012 3.012 0 011.999 3.76l-2.263 7.402 7.402 2.263a3.012 3.012 0 11-1.761 5.76l-7.402-2.263-2.263 7.402a3.012 3.012 0 01-5.76-1.76l2.263-7.403-7.402-2.263a3.012 3.012 0 111.761-5.76l7.402 2.263 2.263-7.401a3.012 3.012 0 013.76-2zm72.456 33.395a3.012 3.012 0 01-1.76 5.76l-20.565-6.287a3.012 3.012 0 111.761-5.76l20.564 6.287z" fill="#B4BDC3"/><path d="M761.038 184.82c11.046 0 20 8.954 20 20v197.362c0 11.046-8.954 20-20 20H499.455l-73.626 60.621v-60.621h-18.282c-11.045 0-20-8.954-20-20V204.82c0-11.046 8.955-20 20-20h353.491z" fill="#E3E7E9"/><path d="M406.547 184.82h355.491c10.494 0 19 8.506 19 19v6.787h-393.49v-6.787c0-10.494 8.506-19 19-19z" fill="#B4BDC3"/><g transform="translate(402.027 192.826)" fill="#ECEEF0"><circle cx="6.012" cy="6.508" r="5.977"/><circle cx="23.943" cy="6.508" r="5.977"/><circle cx="41.873" cy="6.508" r="5.977"/></g><path d="M614.173 293.49a33.837 33.837 0 01-17.071 12.802s-.992.35-.992.93v18.205h-19.877v-18.204a21.033 21.033 0 014.076-12.216 21.006 21.006 0 0110.435-7.544 14.106 14.106 0 009.598-13.86c-.425-7.609-6.665-13.594-14.288-13.698a14.074 14.074 0 00-12.65 8.03c-2.386 4.946-8.328 7.02-13.274 4.64-4.946-2.386-7.02-8.329-4.639-13.275a33.912 33.912 0 0112.433-14.033A33.871 33.871 0 01585.916 240h.232a34.328 34.328 0 0123.655 9.679 34.315 34.315 0 0110.397 23.35 33.838 33.838 0 01-6.027 20.462zm-15.3 55.05c0-5.134-3.093-9.758-7.832-11.728a12.703 12.703 0 00-16.611 16.57 12.703 12.703 0 0011.71 7.86 12.721 12.721 0 0012.732-12.702z" fill="#B4BDC3"/><path d="M521.008 264.081a2.955 2.955 0 014.025-.132l.11.102 18.114 17.574a2.852 2.852 0 01.034 4.076 2.955 2.955 0 01-4.026.132l-.11-.102-18.114-17.574a2.852 2.852 0 01-.033-4.076zm-18.973 29.457c.315-1.514 1.782-2.501 3.316-2.259l.135.025 27.553 5.651c1.582.325 2.601 1.851 2.277 3.41-.315 1.513-1.782 2.5-3.316 2.258l-.136-.024-27.553-5.652c-1.581-.325-2.6-1.851-2.276-3.41zm12.096 35.481l.118-.09 19.651-14.282a2.955 2.955 0 014.09.614 2.852 2.852 0 01-.492 3.939l-.119.09-19.65 14.282a2.955 2.955 0 01-4.09-.614 2.852 2.852 0 01.492-3.939zm129.015-17.106l.121.088 20.121 15.236a2.852 2.852 0 01.53 4.04 2.955 2.955 0 01-3.98.622l-.121-.087-20.12-15.236a2.852 2.852 0 01-.53-4.041 2.955 2.955 0 013.979-.622zm5.165-17.55l.137.007 28.037 2.252c1.61.13 2.807 1.52 2.675 3.107-.128 1.54-1.464 2.699-3.016 2.645l-.137-.007-28.037-2.252c-1.61-.13-2.807-1.52-2.675-3.107.128-1.54 1.464-2.7 3.016-2.645zm14.527-32.346a2.852 2.852 0 01-.008 3.969l-.107.104-17.764 16.57a2.955 2.955 0 01-4.134-.111 2.852 2.852 0 01.008-3.97l.107-.104 17.764-16.57a2.955 2.955 0 014.134.112z" fill="#A1ADB4"/><path d="M314.912 311.28a3.188 3.188 0 01-1.785 4.011l-.153.06-114.535 40.64a3.188 3.188 0 01-2.285-5.95l.153-.058 114.535-40.641a3.188 3.188 0 014.07 1.938zm11.35-31.451a3.188 3.188 0 01-1.785 4.011l-.153.059-139.413 49.468a3.188 3.188 0 01-2.285-5.95l.154-.058 139.412-49.468a3.188 3.188 0 014.07 1.938zm-.476-27.255a3.188 3.188 0 01-1.785 4.011l-.153.059-139.412 49.468a3.188 3.188 0 01-2.285-5.95l.153-.059 139.412-49.467a3.188 3.188 0 014.07 1.938zm-.476-27.255a3.188 3.188 0 01-1.785 4.01l-.153.06-139.412 49.468a3.188 3.188 0 01-2.285-5.95l.153-.059L321.24 223.38a3.188 3.188 0 014.07 1.939zm-13.098-22.777a3.188 3.188 0 01-1.784 4.011l-.154.06-115.602 41.019a3.188 3.188 0 01-2.285-5.95l.153-.058 115.602-41.02a3.188 3.188 0 014.07 1.938z" fill="#ECEEF0"/><path d="M255.54 219.279c-.27.009-.532.064-.783.16l-38.955 15.388a2.441 2.441 0 00-1.545 2.325l.76 43.536a12.87 12.87 0 00-4.048-1.502c-3.407-.616-7.227-.099-10.833 1.596s-6.396 4.285-8.003 7.291c-1.602 3.011-1.972 6.589-.397 9.673 1.58 3.08 4.682 4.928 8.085 5.544 3.403.616 7.223.1 10.829-1.595 3.61-1.695 6.4-4.285 8.003-7.292a11.36 11.36 0 001.318-5.874l.082-.001-.612-35.058 34.085-13.465.441 25.294a12.827 12.827 0 00-4.047-1.501c-3.403-.616-7.223-.1-10.833 1.595-3.606 1.695-6.397 4.285-7.999 7.292-1.602 3.01-1.972 6.588-.397 9.672 1.576 3.08 4.678 4.928 8.08 5.545 3.408.616 7.228.099 10.834-1.596 3.606-1.694 6.396-4.285 8.003-7.291a11.4 11.4 0 001.313-5.874l.087-.002-.898-51.46a2.474 2.474 0 00-.78-1.743 2.464 2.464 0 00-1.79-.658zm38.034 41.006a2.446 2.446 0 00-2.36 2.481l.845 48.439a12.827 12.827 0 00-4.048-1.502c-3.403-.616-7.222-.099-10.833 1.596-3.606 1.694-6.396 4.285-7.998 7.291-1.602 3.011-1.972 6.589-.397 9.673 1.575 3.08 4.678 4.928 8.08 5.544 3.408.616 7.227.1 10.833-1.595s6.397-4.285 8.004-7.292a11.4 11.4 0 001.313-5.874l.087-.001-.824-47.193c1.618 2.39 3.035 4.805 5.83 7.252 6.166 5.385 4.447 17.246 4.447 17.246l4.823.863s2.886-13.996-6.038-21.795c-7.015-6.124-9.34-13.433-9.34-13.433a2.45 2.45 0 00-2.424-1.7z" fill="#B4BDC3"/><path d="M849.227 225.428l12.584 36.541c24.81-1.43 48.55 13.64 57.039 38.293 10.23 29.709-5.562 62.086-35.271 72.315-29.71 10.23-62.086-5.561-72.316-35.27-8.489-24.654.941-51.145 21.373-65.292l-12.582-36.542 29.173-10.045zm-3.485-9.338a4.973 4.973 0 013.238 9.404l-28.69 9.878a4.973 4.973 0 11-3.238-9.404l28.69-9.878z" fill="#ECEEF0"/><path d="M893.351 319.842c-43.879 15.109-92.317-12.245-82.088 17.465 10.23 29.709 42.607 45.5 72.316 35.27 29.71-10.23 45.5-42.606 35.27-72.315l-.313-.887c-.11-.306-.224-.61-.34-.914-1.691 6.762-7.797 15.51-24.845 21.38zm6.704-68.988a8.007 8.007 0 115.213 15.142 8.007 8.007 0 01-5.213-15.142zM796.473 271.7a9.482 9.482 0 116.174 17.931 9.482 9.482 0 01-6.174-17.93zm76.44-46.6c7.042-2.425 14.716 1.318 17.141 8.36 2.425 7.043-1.318 14.717-8.36 17.142-7.043 2.425-14.717-1.318-17.142-8.36-2.425-7.042 1.318-14.717 8.36-17.142zm-66.187 22.79a8.007 8.007 0 115.213 15.142 8.007 8.007 0 01-5.213-15.142zm-28.444-3.132c6.272-2.16 13.107 1.175 15.267 7.446 2.16 6.272-1.174 13.108-7.446 15.267-6.272 2.16-13.107-1.174-15.267-7.446s1.174-13.107 7.446-15.267zm-79.63 118.527c-6.99 8.568-10.581 30.294-4.28 33.293 3.61 1.53 7.829 2.016 12.088 1.503l-6.276 24.2 21.254 4.13-.662-34.232c5.017-3.943 8.782-9.752 9.706-17.292 2.355-19.21-24.838-20.17-31.83-11.602z" fill="#B4BDC3"/><path d="M721.554 395.469c4.975-11.35 14.147-17.963 14.018-23.493-.087-3.687-1.722-6.287-4.905-7.8-.37-7.348-5.38-11.416-15.03-12.206-14.473-1.183-24.265 3.02-23.047 16.693 3.433.668 7.818.232 13.136 3.473 1.687 1.028 2.58 3.374 2.68 7.037l2.59.504c3.324-3.678 6.1-4.728 8.328-3.149 2.228 1.58 2.262 4.37.102 8.372l-.627 10.033 2.755.536z" fill="#344450"/><path fill="#A1ADB4" d="M766.585 533.92h-69.698l-9.132 111.87h103.751z"/><path fill-opacity=".1" fill="#000" d="M766.585 533.92H745.15l-12.83 111.87h59.187z"/><path d="M617.426 514.754l-.26-.152c-7.458-4.178-19.638 1.496-19.63 7.804.026 19.094 17.452 109.085 18.361 114.774.91 5.69 10.657 7.192 11.224.019.903-11.413 2.581-50.923.902-69.21a955.034 955.034 0 00-2.174-21.153c9.143 16.511 23.285 40.154 42.425 70.927l10.39-4.747c-8.16-26.882-14.85-45.86-20.07-56.933-8.941-18.961-17.325-35.199-20.853-40.918-5.55-8.998-15.211-5.858-20.315-.41z" fill="#B4BDC3"/><path d="M677.921 598.087L642.26 513.61c-8.543-13.743-32.496 2.796-29.582 10.767 6.614 18.095 40.253 76.679 42.223 82.07l23.02-8.359z" fill="#A1ADB4"/><path d="M680.07 607.827c2.126 1.766 3.515 3.213 4.167 4.342.813 1.409 1.766 3.6 2.857 6.575l-44.068 25.442c-3.33-3.125-3.85-5.55-1.557-7.277a281.813 281.813 0 005.677-4.367l15.151-20.875a1 1 0 011.42-.205l3.08 2.372c2.9-.253 5.063-.792 6.491-1.616 1.13-.653 2.424-1.992 3.88-4.019a2 2 0 012.902-.372z" fill="#E4E4E4"/><path d="M652.825 630.098c-1 .577-.103 2.126.895 1.55.998-.577.102-2.126-.895-1.55zm3.029-3.566c-1 .577-.103 2.126.895 1.55.998-.577.102-2.126-.895-1.55zm2.869-4.345c-.999.576-.102 2.125.895 1.55 1-.577.103-2.126-.895-1.55zm2.815-4.315c-.999.577-.102 2.126.895 1.55.999-.576.102-2.125-.895-1.55z" fill="#A1ADB4"/><path d="M629.48 632.824c.958 2.592 1.437 4.54 1.437 5.844 0 1.627-.27 4-.813 7.122H579.22c-1.322-4.371-.559-6.731 2.29-7.08 2.85-.349 5.216-.663 7.1-.944l23.56-10.503a1 1 0 011.33.532l1.483 3.595c2.637 1.23 4.78 1.846 6.43 1.846 1.304 0 3.094-.514 5.368-1.54a2 2 0 012.7 1.128z" fill="#E4E4E4"/><path d="M594.75 638.489c-1.154 0-1.153 1.79 0 1.79 1.152 0 1.15-1.79 0-1.79zm4.406-1.574c-1.154 0-1.153 1.79 0 1.79s1.15-1.79 0-1.79zm4.657-2.329c-1.153 0-1.151 1.79 0 1.79 1.154 0 1.152-1.79 0-1.79zm4.595-2.328c-1.154 0-1.152 1.79 0 1.79 1.153 0 1.151-1.79 0-1.79zm-13.371-103.361c0 23.968 11.383 79.877 11.39 85.154l24.49.02c-3.584-49.888-4.856-75.1-3.813-75.637 1.564-.806 64.1 6.244 82.857 6.244 27.046 0 38.234-17.056 39.142-48.65h-53.577c-10.909 1.167-69.025 8.478-89.1 14.892-7.036 2.249-11.39 11.374-11.39 17.977z" fill="#A1ADB4"/><path d="M741.869 496.027l.033.636c.15 3.287.072 8.153-1.053 13.312-2.652 12.062-9.562 19.93-20.543 23.376-8.212 2.583-24.237 1.53-40.73.093l-12.654-1.128c-20.514-1.797-38.976-2.937-45.215 2.334-1.417 1.2-2.202 2.688-2.337 4.439-1.326 16.88 5.234 62.17 7.172 74.98h2.743l-.599-4.039c-2.356-16.091-7.8-55.669-6.618-70.734.072-1.01.532-1.85 1.389-2.58 5.332-4.505 23.383-3.428 42.32-1.788l13.65 1.213c16.735 1.46 33.025 2.518 41.691-.2 22.717-7.137 23.917-30.513 23.44-39.914h-2.69zm-15.4 0c.686 4.692.911 11.882-2.4 17.782-2.625 4.674-7.092 7.831-13.262 9.374-8.902 2.226-24.347 2.178-40.106 1.88L661 524.87c-29.104-.543-46.83-.096-48.666 7.344-4.041 16.32 5.837 70.389 8.02 81.846h2.753l-.6-3.217c-2.824-15.348-11.15-63.421-7.548-77.98 1.427-5.772 24.615-5.7 45.112-5.306l11.494.23c15.623.282 30.852.286 39.9-1.978 6.93-1.733 11.964-5.332 14.968-10.691 3.619-6.451 3.491-14.02 2.806-19.09h-2.77zm-14.083 0c.415 2.924.379 6.307-.984 9.284-1.542 3.347-4.592 5.693-9.066 6.965-5.89 1.679-17.302 2.195-29.995 2.573l-12.227.347c-23.908.71-47.112 1.936-52.905 9.43-8.399 10.881 3.934 74.494 6.973 89.434h2.753l-.45-2.21c-4.974-24.692-13.789-76.952-7.13-85.572 4.899-6.343 28.09-7.67 49.327-8.33l13.219-.379c13.08-.388 24.911-.91 31.174-2.686 5.278-1.506 8.904-4.348 10.79-8.453 1.57-3.41 1.679-7.164 1.264-10.402h-2.743zm-14.571 0c.18 1.254.117 2.599-.432 3.853-1.28 2.946-4.957 4.892-10.922 5.787l-.41.059c-3.927.544-9.258.935-15.443 1.33l-10.873.68c-26.456 1.687-56.54 4.372-60.592 16.52-4.727 14.192 5.62 73.05 8.724 89.795h2.743l-.714-3.929c-3.588-19.978-12.377-72.414-8.182-85.008 3.516-10.538 35.153-13.211 58.884-14.724l10.902-.68c5.705-.367 10.662-.737 14.47-1.243l.45-.062c7.218-1.001 11.747-3.51 13.452-7.46.713-1.652.848-3.348.669-4.918h-2.726zm-70.607 43.306l-.028.299c-.077.959-.1 2.479-.067 4.555l.013.721 32.136 60.032 2.571-.93-34.625-64.677zm7.866-.586l30.936 63.748 2.553-.92-30.358-62.567-3.13-.261zm9.428.82l27.932 60.6 2.553-.928-27.372-59.391-3.113-.28z" fill="#000" fill-opacity=".1"/><path d="M766.1 460.133l-18.401.069c14.015 45.406 21.454 69.18 22.318 71.321 1.945 4.82-2.17 12.158-3.93 16.102 5.731 2.565 5.12-6.933 12.35-3.57 6.599 3.07 11.619 8.633 19.243 3.93.937-.58 1.964-2.757-.518-4.459-6.182-4.24-15.092-11.659-16.296-14.101-1.642-3.33-6.564-26.428-14.766-69.292zM649.696 481.15l-23.805 23.222c-6.926 2.955-12.601 6.217-17.025 9.787-.995 1.2-2.078 3.5 2.603 2.47 4.68-1.028 9.65-1.9 10.53-.378.88 1.522-1.712 3.855-.087 5.847 1.084 1.328 4.73-2.896 10.936-12.674l24.754-14.594-7.906-13.68z" fill="#B4BDC3"/><path d="M710.03 407.934l-7.267-1.246c-11.447 40.463-70.26 68.044-73.87 83.17-1.324 5.547 2.668 8.351.606 10.041l9.445 6.914c1.599-1.866 5.012 1.547 12.14-.84 7.127-2.388 58.945-50.127 58.945-98.039z" fill="#617480"/><path d="M722.316 399.53l-21.36 1.495a4 4 0 00-3.71 4.269l.56 7.98c.853 53.603-30.131 67.27-23.232 88.765 5.696 17.746 60.217 36.823 69.652 19.427 3.82-7.042 5.552-15.559 5.748-24.819 2.411 7.115 4.318 13.24 5.721 18.374 2.42 8.857 11.803 10.265 11.803 13.677l12.36-3.412c-.838-4.636 4.99-6.893 3.427-17.249-7-46.4-25.81-80.034-56.427-100.902l-.273-3.893a4 4 0 00-4.27-3.711z" fill="#617480"/><path d="M746.282 517.357c5.046-13.285 3.711-21.042 3.711-21.042l-19.305-52.222s10.547 86.55 15.594 73.264z" fill-opacity=".2" fill="#000"/><path d="M899.07 396.642c-4.726 8.811-4.164 28.714 1.945 30.288 3.468.736 7.297.439 10.989-.75l-1.396 22.56h19.578l-6.494-30.27c3.773-4.365 6.113-10.17 5.632-17.022-1.225-17.457-25.526-13.616-30.253-4.806z" fill="#B4BDC3"/><path d="M910.23 386.488c2.58-.424 9.528-.714 10.809-.714.819 0 1.706.187 2.19-.565.398-.616.253-1.657.371-2.371.138-.83.333-1.65.53-2.467.563-2.325 1.414-4.537 2.605-6.614 2.233-3.897 5.506-6.95 9.637-8.725 4.562-1.962 9.724-2.41 14.631-2.013 5.251.426 10.005 2.16 14.963 3.79 4.725 1.555 9.673 2.167 14.615 1.408 4.979-.765 8.74-3.463 12.94-6.025 4.3-2.622 9.212-4.336 14.295-3.942 4.744.368 9.116 2.327 13.04 4.943 3.67 2.449 6.698 5.394 8.408 9.54 1.84 4.46 1.838 9.355-1.187 13.296-4.385 5.713-12.524 7.19-19.295 7.043a36.865 36.865 0 01-11.462-2.1c-4.931-1.734-9.193-4.674-13.807-7.06-2.165-1.12-4.403-2.039-6.749-2.7-2.276-.644-4.518-.939-6.58.437-2.18 1.454-4.134 2.883-6.628 3.794-2.393.874-4.927 1.363-7.477 1.343-4.96-.038-9.85-1.584-14.667-2.62-3.929-.843-8.132-1.684-12.137-.873-1.672.339-4.113 1.038-4.717 2.774 10.16 1.842 14.15 14.406 11.286 23.63-1.546 4.978-10.838 10.798-14.45 8.18-2.29-1.657-.9-3.834 0-5.271 1.721-2.752 2.31-6.287-.876-8.203-2.749-1.652-5.639 2.272-5.694 2.268-.755-.06-7.283-3.752-11.781-9.14-4.437.264-5.11-2.662-4.05-5.055 1.059-2.392 7.672-5.403 11.237-5.988z" fill="#344450"/><ellipse cx="94.626" cy="47.721" rx="62.812" ry="59.957" transform="matrix(-1 0 0 1 1032.97 550.708)" fill="#A1ADB4"/><path d="M829.776 547.039c-4.142 10.726-11.373 45.967-20.062 99.198l9.932 2.898c10.452-23.133 18.01-43.276 21.044-53.904 5.195-18.197 9.147-34.21 10.146-40.19 2.382-14.259-18.323-15.09-21.06-8.002zm31.334 29.903c30.237 4.352 73.103 8.845 76.772 9.35 5.141.707 9.026-7.373 3-9.755-9.59-3.79-43.172-15.653-59.369-19.008a877.367 877.367 0 00-13.407-2.67c-12.606-2.407-19.137 20.335-6.996 22.083z" fill="#B4BDC3"/><path d="M906.07 516.447c-50.181 12.787-75.825 20.982-76.929 24.585l-.033.12-.074.096c-9.945 13.677-15.9 80.451-17.856 85.451l19.057 2.843c7.29-27.032 30.613-45.863 29.994-78.24.167-.949.21-1.85.14-2.701l51.87-26.406v-5.748h-6.168z" fill="#A1ADB4"/><path d="M903.314 516.447c-7.27 2.088-45.055 17.934-64.66 26.362-12.974 5.577-8.884 25.685-1.537 30.918.04.321.172.54.408.637 39.526 16.383 70.795 7.787 81.24 10.533l4.832-15.24-15.661-5.376c4.743-.95 9.112-1.797 12.85-2.453 24.157-4.237 31.202-17.168 27.037-45.381h-44.509z" fill="#B4BDC3"/><path d="M938.012 574.156c2.375.248 4.077.624 5.106 1.125 1.322.645 3.144 1.807 5.466 3.484l-20.17 41.353c-4.076-.658-5.692-2.214-4.846-4.667a254.81 254.81 0 002.047-6.145l.8-23.21a1 1 0 011.062-.963l3.41.214c2.046-1.656 3.395-3.153 4.049-4.493.502-1.03.792-2.624.87-4.781a2 2 0 012.206-1.917z" fill="#E4E4E4"/><path d="M928.637 604.603c-.458.938.998 1.646 1.454.71.457-.938-.998-1.646-1.454-.71zm.467-4.205c-.457.938.998 1.646 1.455.71.457-.937-.998-1.645-1.455-.71zm-.046-4.707c-.457.937.998 1.645 1.454.71.458-.939-.998-1.647-1.454-.71zm-.071-4.658c-.457.938.998 1.646 1.455.71.457-.937-.999-1.645-1.455-.71z" fill="#A1ADB4"/><path d="M824.545 645.232c.818 2.244 1.226 3.938 1.226 5.082 0 1.471-.245 3.618-.735 6.44h-46.009c-1.196-3.953-.505-6.086 2.07-6.402 2.576-.315 4.716-.6 6.42-.853l21.212-9.457a1 1 0 011.331.533l1.303 3.159c2.384 1.112 4.322 1.669 5.813 1.669 1.146 0 2.706-.438 4.678-1.314a2 2 0 012.691 1.143z" fill="#E4E4E4"/><path d="M793.07 650.152c-1.044 0-1.043 1.619 0 1.619 1.042 0 1.04-1.619 0-1.619zm3.983-1.423c-1.043 0-1.042 1.619 0 1.619 1.043 0 1.04-1.619 0-1.619zm4.211-2.105c-1.043 0-1.04 1.618 0 1.618 1.043 0 1.042-1.618 0-1.618zm4.155-2.106c-1.043 0-1.042 1.619 0 1.619 1.043 0 1.041-1.619 0-1.619z" fill="#A1ADB4"/><path d="M920.44 579.732c-6.436-1.232-18.851-3.679-31.112-6.542-10.368-2.414-18.624-4.657-24.538-6.664-8.263-2.807-13.304-5.393-12.904-9.618.635-6.664 12.048-8.851 35.745-12.782 14.97-2.48 31.937-5.303 39.286-9.651 10.483-6.216 10.303-14.227 9.471-18.028h6.632c.971 6.77-.971 16.641-12.782 23.64-8.394 4.976-25.247 7.774-41.538 10.474-10.254 1.705-25.24 4.193-29.49 6.648 6.576 4.055 36.073 11.2 63.213 16.266l-1.982 6.257z" fill="#000" fill-opacity=".2"/><path d="M981.163 497.685l-16.716 3.317c16.81 31.328 25.826 47.932 27.046 49.812 2.745 4.23.184 11.981-.762 16.063 5.934 1.381 3.594-7.55 11.104-5.686 6.854 1.702 12.666 6.07 19.058.18.786-.725 1.361-2.99-1.318-4.15-6.675-2.893-16.537-8.31-18.136-10.414-2.18-2.868-8.94-19.242-20.276-49.122zm-165.334-25.08c2.628 3.839 5.22 7.995 4.17 9.34-1.05 1.346-4.092-.14-5.294 2.049-.802 1.458 4.326 3.203 15.384 5.234l22.137 16.973 9.438-12.091-29.558-12.981c-5.178-5.16-10.178-9.081-15-11.765-1.442-.459-3.905-.598-1.277 3.241z" fill="#B4BDC3"/><path d="M919.014 435.144l-7.053-1.21c-15.364 14.904-21.634 50.71-31.873 55.449-9.68 4.48-23.403.144-39.715-5.71l-4.995 11.16c14.82 16.035 46.394 29.581 59.193 21.848 20.461-12.364 25.185-56.525 24.443-81.537z" fill="#617480"/><path d="M949.764 523.789H887.35c-2.852 0-2.314-4.119-1.902-6.197 4.758-23.983 23.332-49.835 23.332-83.975l18.003-2.823c14.89 23.95 20.04 53.435 22.98 92.995z" fill="#E3E7E9"/><path d="M920.816 430.794c-16.162 55.093-20.617 91.801-13.367 110.125h56.182c-.889-13.408-3.739-27.588-7.642-41.413 12.723 22.95 23.418 39.474 32.084 49.57l13.082-2.562c-8.427-52.263-32.83-90.836-73.21-115.72z" fill="#617480"/><path d="M945.666 528.369a8.973 8.973 0 100 17.946 8.973 8.973 0 000-17.946zm-30.454-2.448a7.75 7.75 0 100 15.5 7.75 7.75 0 000-15.5zm83.595-15.67c-5.34 0-9.67 4.33-9.67 9.67 0 5.342 4.33 9.671 9.67 9.671 5.341 0 9.67-4.33 9.67-9.67a9.67 9.67 0 00-9.67-9.67zm-38.934-2.684a7.75 7.75 0 100 15.5 7.75 7.75 0 000-15.5zm-28.959-9.348c-6.645 0-12.032 5.387-12.032 12.032 0 6.645 5.387 12.032 12.032 12.032 6.645 0 12.032-5.387 12.032-12.032 0-6.645-5.387-12.032-12.032-12.032zm-53.974-.204c-5.52 0-9.993 4.474-9.993 9.993S871.421 518 876.94 518s9.993-4.474 9.993-9.993-4.474-9.993-9.993-9.993zm100.165-14.92c-6.646 0-12.033 5.387-12.033 12.032 0 6.645 5.387 12.032 12.033 12.032 6.645 0 12.032-5.387 12.032-12.032 0-6.645-5.387-12.032-12.032-12.032zm-121.578-2.04a7.75 7.75 0 100 15.5 7.75 7.75 0 000-15.5zm35.453-1.427a7.75 7.75 0 100 15.5 7.75 7.75 0 000-15.5zm58.288-.546a7.75 7.75 0 100 15.499 7.75 7.75 0 000-15.5zm-26.953-7a8.973 8.973 0 100 17.947 8.973 8.973 0 000-17.946zm42.757-14.584a8.973 8.973 0 100 17.946 8.973 8.973 0 000-17.946zm-23.553-8.664c-5.857 0-10.605 4.748-10.605 10.605 0 5.856 4.748 10.604 10.605 10.604 5.856 0 10.604-4.748 10.604-10.604 0-5.857-4.748-10.605-10.604-10.605zm-40.312-1.224a7.75 7.75 0 100 15.5 7.75 7.75 0 000-15.5zm33.99-19.577a7.75 7.75 0 100 15.499 7.75 7.75 0 000-15.5z" fill="#FFF" fill-opacity=".2"/><path d="M228.556 396.642c4.727 8.811 4.165 28.714-1.944 30.288-3.469.736-7.297.439-10.989-.75l1.395 22.56h-19.577l6.493-30.27c-3.772-4.365-6.112-10.17-5.631-17.022 1.224-17.457 25.526-13.616 30.253-4.806z" fill="#344450"/><path d="M224.144 390.832c-.449-.267-1.387-.832-1.862-1.036-.113-.05-.9-.612-.921-.604-.597.2-2.323.943-2.471 1.585a2.465 2.465 0 01-.068.134c-.245.445-.469.9-.683 1.362-.47 1.013-.876 2.072-1.263 3.122-.755 2.045-1.41 4.138-2.013 6.235-.614 2.136-1.135 4.296-1.718 6.44-.839 3.086-1.912 6.095-2.746 9.18-.532 1.969-.828 3.961-.688 5.988a.926.926 0 00.005.073l.003.03c.023.312.057.624.102.938.04.267.08.536.122.805.76-1.518 1.342-3.19 1.958-4.777.06-.155.118-.312.174-.469.2-.322.402-.641.607-.96 1.293-2.007 2.59-4.007 3.83-6.051 2.23-3.676 4.439-7.43 7.082-10.806.78-.996 1.58-1.978 2.35-2.983a48.81 48.81 0 001.28-1.745c.295-.423 1.58-1.898 1.114-2.785-.238-.453-3.03-2.981-4.194-3.676z" fill="#2C2C2C"/><path d="M222.423 389.87c.437.146.224-.761-.198-1.08-1.957-1.48-9.438-2.017-15.949-.666-4.361.906-9.433 3.16-12.917 6.056-3.14 2.612-5.3 6.798-6.412 10.843-1.167 4.247-1.344 8.675-.694 13.03.143.957.45 1.869.621 2.805.193 1.055.292 2.07.635 3.096.21.628.568 1.244.747 1.875.205.721.08 1.388-.069 2.121-.243 1.195-.545 2.387-.974 3.529-.644 1.713-1.426 3.318-1.916 5.097-.652 2.366-3.38 10.066-1.386 12.165h37.947c-.956-2.607-3.824-5.675-4.405-8.465-.342-1.643-.505-5.233-.54-5.363-.855-5.895-2.525-8.71-3.571-9.732-1.046-1.021-2.439-1.336-2.51-2.222-.297-3.665 1.16-7.177 2.23-10.597 1.273-4.077 2.206-8.255 3.52-12.318.58-1.799 3.577-10.935 5.841-10.174z" fill="#E3E7E9"/><path d="M194.482 425.802c7.837 2.455 6.964 7.523 16.835 12.655l-.825.5c-8.643-3.567-10.663-11.217-16.584-12.457l.574-.698zm6.396-26.583c1.21 9.184 1.564 14.43 7.874 24.476l-.671.206c-6.494-8.748-7.523-15.887-7.83-24.632l.627-.05zm-10.957 6.585c2.667 6.47 3.883 10.29 11.33 15.527l-.576.403c-7.392-4.19-9.545-9.187-11.315-15.66l.561-.27zm19.198-11.718c-1.431 4.54-1.739 6.964-1.431 13.168h-.702c-1.312-5.855-.144-11.366 1.25-13.168h.883z" fill-opacity=".2" fill="#000"/><path d="M233.648 550.708c8.836 0 16 7.163 16 16v69.152c0 8.836-7.164 16-16 16h-87.914c-8.836 0-16-7.164-16-16v-69.152c0-8.837 7.164-16 16-16h87.914zm-10.84 22.84h-66.233a4 4 0 00-4 4v47.47a4 4 0 004 4h66.232a4 4 0 004-4v-47.47a4 4 0 00-4-4z" fill="#B4BDC3"/><path d="M295.958 554.726c6.777 9.289 21.251 38.517 43.421 87.685l-8.843 5.37c-16.083-19.64-26.965-34.2-32.647-43.68-4.894-8.167-9.341-15.881-12.872-22.233-.237.28-.502.554-.796.82-22.634 20.517-55.66 48.213-58.418 50.682-3.868 3.461-11.606-1.064-7.942-6.41 5.83-8.504 27.038-37.117 38.59-48.957a877.366 877.366 0 019.62-9.71c3.094-3.072 7.229-3.347 10.984-2.047-3.683-12.004 14.618-17.393 18.903-11.52z" fill="#344450"/><path d="M297.579 642.07l-29.932-75.344c-6.401-13.734 24.514-22.763 29.219-16.37 10.68 14.51 36.068 71.757 39.25 76.08l-38.537 15.635z" fill="#B4BDC3"/><path d="M218.908 623.382c-1.83 1.534-3.03 2.797-3.603 3.788-.736 1.274-1.597 3.256-2.583 5.945l39.845 23.004c3.011-2.825 3.48-5.018 1.407-6.579a254.81 254.81 0 01-5.132-3.95L235.2 626.797a1 1 0 00-1.42-.205l-2.707 2.085c-2.621-.23-4.578-.716-5.869-1.462-.992-.573-2.124-1.732-3.394-3.477a2 2 0 00-2.902-.355z" fill="#E4E4E4"/><path d="M243.707 643.38c.903.523.093 1.923-.81 1.403-.902-.522-.092-1.923.81-1.402zm-2.739-3.223c.904.522.093 1.922-.81 1.401-.902-.52-.091-1.922.81-1.401zm-2.594-3.929c.903.521.092 1.922-.81 1.402-.903-.522-.092-1.923.81-1.402zm-2.546-3.9c.904.52.093 1.922-.809 1.4-.903-.52-.092-1.921.81-1.4z" fill="#A1ADB4"/><path d="M323.475 645.232c-.818 2.244-1.226 3.938-1.226 5.082 0 1.471.245 3.618.735 6.44h46.01c1.195-3.953.504-6.086-2.071-6.402a254.81 254.81 0 01-6.42-.853l-21.212-9.457a1 1 0 00-1.331.533l-1.303 3.159c-2.384 1.112-4.322 1.669-5.813 1.669-1.146 0-2.706-.438-4.678-1.314a2 2 0 00-2.691 1.143z" fill="#E4E4E4"/><path d="M354.95 650.152c1.044 0 1.043 1.619 0 1.619-1.042 0-1.04-1.619 0-1.619zm-3.983-1.423c1.043 0 1.042 1.619 0 1.619-1.043 0-1.04-1.619 0-1.619zm-4.211-2.105c1.043 0 1.04 1.618 0 1.618-1.043 0-1.042-1.618 0-1.618zm-4.155-2.106c1.043 0 1.042 1.619 0 1.619-1.043 0-1.041-1.619 0-1.619zm-85.724-74.028c-24.877-4.053-41.54-6.825-49.99-8.314-24.083-4.247-31.106-17.207-26.953-45.483h44.372c5.872 1.696 30.408 12.184 73.607 31.463 7.773 3.858 6.325 15.235 4.904 18.983-.058.152-13.16 22.605-39.308 67.356L227.21 611.37l29.735-38.156c.785-1.582.763-2.49-.068-2.725z" fill="#A1ADB4"/><path d="M160.168 506.674l17.047.067c-10.526 33.979-16.208 52.008-17.047 54.087-1.888 4.678 2.107 11.802 3.815 15.63-5.564 2.49-4.97-6.73-11.989-3.464-6.406 2.98-11.279 8.38-18.68 3.813-.91-.561-1.907-2.675.503-4.327 6.002-4.116 14.65-11.319 15.82-13.69 1.593-3.233 5.104-20.605 10.53-52.116zm102.568-3.179l23.108 22.543c6.724 2.868 12.233 6.035 16.527 9.5.966 1.165 2.017 3.397-2.526 2.399-4.544-1-9.369-1.845-10.223-.368-.854 1.478 1.663 3.742.084 5.676-1.052 1.29-4.59-2.811-10.616-12.303l-24.03-14.167 7.676-13.28z" fill="#344450"/><path d="M208.612 435.144l7.054-1.21c12.144 30.337 33.347 57.903 63.608 82.696l-22.867 27.782c-30.257-35.303-48.908-71.726-47.795-109.268z" fill="#617480"/><path d="M177.863 523.789h62.812c-14.552-35.383-21.828-65.44-21.828-90.172l-18.948-2.823c-14.89 23.95-19.096 53.435-22.036 92.995z" fill="#ECEEF0"/><path d="M200.742 430.794c1.48.051 3.735.143 6.763.276l4.578 13.084c.484 15.952 3.313 48.1 8.485 96.444h-41.175c.108 3.339.286 6.709.534 10.11h-30.615c4.58-51.666 21.303-91.637 50.171-119.914l.015.013.008-.013z" fill="#617480"/><path d="M170.2 442.155c4.911-6.574 14.341-5.131 21.634-2.962a88.08 88.08 0 013.149 1.005c7.187 2.447 14.194 6.957 17.554 13.859.245 4.11.58 8.818.995 14.12-1.158 3.458-3.36 6.543-6.558 8.517-7.121 4.405-14.014 1.362-20.402-2.635-4.641-2.905-9.315-4.887-14.903-4.74-.106 0-.212.009-.327.017-4.641.187-10.441 1.868-13.157 5.914-3.41 5.081 1.517 8.443 5.979 9.796.653.197 1.305.352 1.91.466 5.407.994 10.947.432 16.395.163 7.635-.384 15.834-.18 22.506 4.062 6.51 4.136 9.324 11.486 7.48 18.941a20.38 20.38 0 01-1.484 4.07c2.162 2.733 3.778 5.882 4.6 9.423 1.82 7.758-2.128 14.927-8.997 18.632-.065.032-.121.065-.187.097-7.22 3.818-16.348 3.778-24.277 2.978a73.673 73.673 0 01-2.618-.318c-9.993-1.38-19.578-4.935-28.063-10.28a71.425 71.425 0 01-14.625-12.194c-1.778-1.934 1.893-5.18 3.67-3.239a67.827 67.827 0 0011.796 10.214 67.955 67.955 0 0028.519 11.127c7.888 1.15 18.264 1.72 25.247-2.725 7.374-4.69 6.2-12.954 2.007-19.154-7.897 9.773-23.55 14.846-34.849 10.988-6.314-2.154-11.436-8.524-10.383-15.45 1.133-7.473 8.825-10.94 15.49-12.015 9.91-1.6 21.723 1.533 29.497 8.548 1.15-3.548 1.076-7.398-.93-10.89-3.206-5.571-9.993-7.79-16.054-8.41-7.733-.791-15.507.906-23.257.179-1.614-.147-3.36-.4-5.073-.832-3.606-.905-7.057-2.61-8.868-5.874-6.403-11.526 11.681-18.786 20.117-18.647 6.868.122 12.073 3.084 17.758 6.55 3.353 2.04 7.065 3.842 11.078 2.766 3.9-1.044 6.346-4.405 7.154-8.214 1.55-7.335-3.336-14.228-9.267-18.029-3.107-1.998-7.366-3.94-11.73-5.115-3.81-1.027-7.7-1.467-10.98-.848-4.772.898-6.355 5.597-5.073 9.903.781 2.651 2.782 4.748 5.122 6.151.285.171.571.335.865.482 7.66 3.915 16.388.987 23.991-1.543 3.025-1.002 2.977 3.37.432 4.218-8.786 2.92-19.26 5.906-27.793.971a20.113 20.113 0 01-1.484-.963c-6.004-4.266-8.198-12.922-3.606-19.08zm17.653 63.015c-5.93-.954-16.527-.79-19.83 5.36-3.81 7.09 4.535 13.542 10.726 14.35 7.456.962 16.526-1.803 22.458-6.34a20.062 20.062 0 004.217-4.445c-4.674-4.788-10.996-7.872-17.571-8.925zm63.823-4.298c5.172-2.244 11.192-2.912 16.642-1.272 5.016 1.508 10.025 5.832 8.157 11.615-1.844 5.694-8.778 6.78-13.843 7.66-6.975 1.216-14.365 1.942-21.422.97a36.257 36.257 0 00-.619 4.031 376.885 376.885 0 01-4.03-10.165c.611.311 1.248.58 1.925.808 2.284-5.799 6.33-10.678 13.19-13.647zm17.996 4.486c-4.422-3.107-11.111-2.724-15.94-.92-5.906 2.201-9.316 6.214-11.233 11.052 4.699.75 9.675.36 14.292-.106 3.654-.367 7.448-.84 10.972-1.876 1.713-.498 4.078-1.07 4.56-3.206.44-1.974-1.174-3.899-2.65-4.944zm-23.925-36.821c3.09-.066 1.85 4.348-.72 4.404-6.386.156-12.431 3.263-15.84 8.769a17.269 17.269 0 00-1.933 4.413 243.684 243.684 0 01-1.657-6.004c4.186-6.803 11.56-11.378 20.15-11.582z" fill="#FFF" fill-opacity=".1"/><path fill-opacity=".2" fill="#FFF" d="M188.558 515.631l20.303-9.439v9.44z"/><path d="M190.915 540.92l-11.511-.001c-.504-14.975.399-29.323 2.71-43.044 1.17 20.814 4.105 35.162 8.8 43.044z" fill-opacity=".1" fill="#000"/><path d="M457.298 415.905l10.377 216.875h-12.298l-14.022-99.354-14.938-66.702-4.928 66.702-14.022 99.354H395.17l10.376-216.875h51.752z" fill="#455B6A"/><path d="M461.864 621.682c4.442 0 8.09 2.737 8.48 6.23.317-.15.618-.308.901-.473.781-.456 3.03 1.629 3.248 2.237 1.13 3.162 2.596 7.261 4.4 12.298h-34.057c1.803-5.247 3.21-9.444 4.223-12.592.17-.53 2.218-2.045 3.148-1.582.36.18.744.348 1.147.506.15-3.68 3.903-6.624 8.51-6.624zm-62.507 0c4.442 0 8.09 2.737 8.48 6.23.316-.15.618-.308.901-.473.781-.456 3.03 1.629 3.248 2.237 1.13 3.162 2.596 7.261 4.4 12.298h-34.057c1.802-5.247 3.21-9.444 4.223-12.592.17-.53 2.218-2.045 3.148-1.582.36.18.743.348 1.147.506.15-3.68 3.903-6.624 8.51-6.624z" fill="#E4E4E4"/><path d="M461.391 415.905l20.626 197.018-17.37 3.278-29.028-1.667-7.882-136.842-.119-.394-1.101 135.603-24.297 3.3-25.35-3.3 18.3-196.996h66.221z" fill="#617480"/><path d="M415.527 427.382c8.844-5.307 20.206-11.163 30.848-9.195 8.998 1.666 16.612 10.587 13.037 19.933-3.49 9.148-14.086 12.488-22.913 13.679-8.155 1.107-16.45.351-24.255-2.014.993 1.532 2.337 2.922 3.87 4.105 7.396 5.723 16.837 7.842 25.38 11.598 7-5.553 15.704-9.404 23.765-11.125l.757 7.265c-6.026 1.06-12.431 3.595-17.834 7.36 7.92 5.061 14.636 13.405 14.05 23.282-.54 9.006-7.74 17.558-17.085 17.813-.607.01-1.202-.01-1.79-.057-1.4 6.67.048 13.453 3.625 18.93 3.395-3.112 7.614-5.429 12.477-6.48 4.247-.917 9.101-.596 13.056 1.173l2.222 21.257c-3.292 2.186-7.586 3.198-11.513 2.933-6.48-.425-12.052-2.82-16.488-6.48a19.471 19.471 0 001.192 15.874c.785 1.448 1.731 2.743 2.78 3.954 9.091-3.623 18.902-1.816 26.13 3.765l1.683 16.101c-2.98-8.891-12.165-15.144-21.408-14.094 4.532 3.452 9.432 6.592 12.752 11.18 11.693 16.13-2.185 40.632-23.791 33.178-5.554-1.912-9.452-7.72-11.524-14.068-1.257-3.85-1.844-7.889-1.73-11.39.056-1.854.322-3.661.765-5.41 1.477-5.885 4.976-11.079 9.735-14.91-7.095-8.96-6.943-20.69-1.778-29.753-5.658-7.795-7.776-18.277-5.212-28.153-3.416-2.138-6.046-5.515-7.483-9.385a19.255 19.255 0 01-1.165-5.23 26.676 26.676 0 01.436-7.465c1.031-5.165 3.537-9.839 6.991-13.925a133.9 133.9 0 00-5.477-2.213c-9.281-3.568-21.627-7.361-25.893-17.417-.89-2.082-1.259-4.134-1.23-6.12a59.407 59.407 0 01-9.384-5.913l.964-10.397a52.29 52.29 0 0010.804 8.155c2.44-4.248 6.47-7.843 10.634-10.34zm-31.03 105.51c8.391.88 16.65 2.79 23.443 8.164 8.22 6.51 11.191 16.63 8.721 26.715-.416 1.703-1.021 3.454-1.778 5.203a19.019 19.019 0 012.62 3.718c3.85 7.237 2.187 16.519-2.592 22.914-9.28 12.43-24.35 12.582-37.292 7.35l.776-8.42c4.513 2.44 9.413 4.105 14.635 4.172 7.87.095 16.139-3.66 18.277-11.826.955-3.65.426-6.943-1.107-9.687-7.436 10.274-19.582 17.918-31.274 11.637l.964-10.33c.728 1.124 1.693 2.108 2.762 2.808 3.633 2.375 8.448 2.27 12.317.558 4.286-1.892 7.89-5.524 10.463-9.743a20.305 20.305 0 00-5.108-2.488c-4.361-1.419-14.928-3.784-19.582-.35l.746-8.004c4.835-1.495 10.416-1.22 15.288-.577 4.115.54 8.344 1.665 12.043 3.633a36.86 36.86 0 00.416-1.703c1.798-8.836-2.09-16.669-9.744-21.21-4.806-2.857-10.207-4.134-15.713-4.795zm63.865 37.566c-7.927 5.913-10.86 21.54-3.745 29.686 3.604 4.116 9.611 5.07 14.88 2.876 4.419-1.844 7.427-9.139 6.49-13.803-1.75-8.674-10.813-13.31-17.625-18.759zm-56.25-119.549c12.204 11.77 18.787 28.656 17.861 45.637a39.628 39.628 0 01-.132 1.807c5.034 4.976 9.214 10.85 12.109 15.96a66.301 66.301 0 015.316 12.08l-.284 34.908c-2.487 1.238-5.762.576-5.155-2.923 2.374-13.803-.35-27.842-7.247-40.007a58.773 58.773 0 00-7.228-10.057c-1.286 2.545-3.15 4.73-5.913 6.197-4.71 2.497-10.244 1.835-15.249.15l.786-8.494c2.477 1.088 5.003 1.807 6.385 2.053 4.238.728 6.878-.303 8.004-4.494.085-.341.16-.69.236-1.03-2.952-2.517-8.552-6.889-13.575-7.825l.71-7.615c4.7.256 9.242 2.09 13.433 4.815-.615-10.89-4.58-21.143-11.136-29.61zm80.251 85.465c.067-7.635-10.813-7.465-15.571-5.535a17.862 17.862 0 00-5.288 3.33 25.529 25.529 0 006.395 4.106c3.188 1.42 14.417 4.607 14.464-1.901zm-30.755-61.53c-2.365 2.734-4.22 5.827-5.308 9.262-1.9 5.989-.642 13.461 5.138 16.868 6.802 4.01 13.301-1.57 12.979-8.846-.359-8.041-6.083-13.424-12.809-17.284zm2.29-49.013c-5.875-1.296-11.74 1.06-16.953 3.557-5.193 2.497-11.92 5.062-15.05 10.217a9.565 9.565 0 00-.625 1.201c2.403.966 4.89 1.77 7.445 2.375a51.548 51.548 0 0016.98 1.202c4.985-.493 12.336-1.647 15.534-6.036 4.012-5.486-2.233-11.39-7.331-12.516z" fill="#000" fill-opacity=".1"/><path d="M430.172 261.705c14.078 0 16.789 9.203 17.266 17.584 2.805.22 4.121 2.05 3.95 5.487-.255 5.122-3.1 9.66-6.423 9.024-1.578 3.514-3.81 6.844-6.477 9.23l2.407 27.52h-22.259l2.352-28.345c-2.643-2.661-4.8-6.234-6.233-9.89-2.483 1.313-5.79-2.259-6.053-7.539-.18-3.606 1.223-5.442 4.207-5.508.48-8.375 3.197-17.563 17.263-17.563z" fill="#617480"/><path d="M426.407 233.999c1.224-.582 2.595-.756 3.907-.665 1.348.094 2.706.45 3.875 1.123 1.043.6 2.158 1.511 2.707 2.633l.158.334c.152.317.317.564.73.626.538.08 1.078.042 1.616.148 1.218.24 2.394.713 3.4 1.446.982.716 1.797 1.687 2.278 2.838.429 1.028.555 2.158.605 3.281l.08 2.215c.066 2.026.056 4.026-.519 6.043a16.259 16.259 0 01-3.432 6.245c5.117 2.676 8.453 8.323 6.84 19.526l-1.092.653c-1.513.89-2.28 1.265-2.304 1.126-.089-4.534-.659-8.128-1.709-10.782-.73-1.844-6.07-3.703-11.763-4.106-.916-.016-1.845-.04-2.771-.074-5.679.105-11.02 1.895-11.8 6.827-.937 6.152-1.426 9.24-1.469 9.266-1.443-2.014-4.03-3.674-4.49-3.117l-.092-1.016c-.177-2.052-.463-6.512.396-8.858 1.67-4.564 4.003-7.388 6.933-9.106-1.964-1.556-3.688-3.716-4.503-6.14-.993-2.952-.532-9.696.355-11.98.887-2.282 1.995-4.185 3.015-5.1 1.75-1.567 4.084-2.376 6.34-2.207.234.018.466.114.695.125.247.013.316-.108.496-.285.439-.43.974-.76 1.518-1.02z" fill="#344450"/><path d="M374.996 399.323l17.84 4.856c-20.565 32.643-31.58 49.936-33.042 51.879-3.29 4.37-1.106 12.956-.39 17.447-6.528 1.046-3.32-8.446-11.588-6.996-7.548 1.324-14.169 5.613-20.64-1.248-.796-.844-1.248-3.339 1.74-4.393 7.444-2.627 18.527-7.745 20.417-9.9 2.577-2.94 11.132-20.155 25.663-51.645zm150.339-37.03c8.283-12.558 13.113-17.962 14.49-16.212 2.067 2.624-1.353 5.595-.245 7.592 1.109 1.997 7.583.977 13.686-.253 6.102-1.23 4.644 1.732 3.324 3.268-5.826 4.536-13.271 8.645-22.334 12.325l-31.443 29.62-7.558-15.138z" fill="#617480"/><path d="M406.174 415.847l-.014.001-.072 1.128-.062.822c-.497 7.464-2.475 33.868-5.255 34.48l-.098.012h-13.754c-3.92-.542-2.953-5.61-2.423-8.22a1309.24 1309.24 0 014.299-20.356c-7.15 10.777-15.052 21.35-23.798 31.097l-1.145 1.267-15.613-9.797c17.571-24.655 29.026-73.237 38.03-92.78 8.918-19.356 19.785-29.294 31.179-30.278-2.425 29.449-7.916 49.059-11.274 92.624zm46.64-91.516c5.327 1.595 11.57 7.451 16.951 16.116 7.26 11.69 16.764 36.797 21.296 38.74 4.53 1.943 33.007-19.072 33.007-18.705l11.284 10.381c-8.835 17.206-39.848 42.23-54.051 33.6-7.625-4.634-13.79-9.62-18.882-14.89 7.65 20.083 13.9 34.186 18.635 53.178.761 3.055 1.215 9.314-2.275 9.533l-.19.006H458.89c-2.393 0-8.563-29.214-9.828-35.328-.452-2.407-1.98-11.462-6.53-44.106-2.334-16.74-1.82-35.334-1.453-50.356 3.712-.01 7.624.601 11.734 1.831z" fill="#B4BDC3"/><path d="M388.74 423.848c-2.935 4.332-5.145 7.52-6.628 9.563-1.829 2.517-4.588 6.168-8.277 10.954l5.381-30.866c4.24-13.623 12.95-38.045 25.829-59.595-4.504 27.422-9.94 50.737-16.305 69.944z" fill-opacity=".1" fill="#000"/><path d="M406.026 417.798h43.208s-.857-3.011-6.702-44.942c-3.044-21.838-1.243-46.83-1.243-62.933l-23.006.028c-1.675 38.11-8.446 56.605-12.257 107.847z" fill="#FFF"/></g></svg>