<svg xmlns="http://www.w3.org/2000/svg" viewBox="0 0 123.48 131.46"><defs><style>.cls-1{fill:#201e1d;opacity:0.15;}.cls-2{fill:#fff;}.cls-3{fill:#c21d47;}.cls-4{fill:#f9d9b8;}.cls-5{fill:#fbe5cf;}.cls-6{fill:#f4bd85;}</style></defs><title>aufgabe</title><g id="Layer_2" data-name="Layer 2"><g id="Ebene_11" data-name="Ebene 11"><rect class="cls-1" width="123.48" height="131.46" rx="13.2" ry="13.2"/><rect class="cls-2" x="11" y="9.08" width="101.17" height="111.59" rx="11.39" ry="11.39"/><path class="cls-3" d="M112.17,23.92V20.46A11.39,11.39,0,0,0,100.79,9.08H22.38A11.39,11.39,0,0,0,11,20.46v3.46Z"/><polygon class="cls-1" points="112.24 28.52 10.96 28.27 10.96 19.76 112.24 20.01 112.24 28.52"/><path class="cls-4" d="M36.41,39.24h50.4a3.28,3.28,0,0,1,3.28,3.28v65.86a3.28,3.28,0,0,1-3.28,3.28H45.33l-12.2-11.06V42.52A3.28,3.28,0,0,1,36.41,39.24Z"/><path class="cls-5" d="M45.33,111.67h15.6V39.24H36.41a3.28,3.28,0,0,0-3.28,3.28v58.09Z"/><polygon class="cls-6" points="33.13 100.61 45.37 100.61 45.38 111.67 33.13 100.61"/><rect class="cls-6" x="40.23" y="48.16" width="42.47" height="3.37" rx="1.68" ry="1.68"/><rect class="cls-6" x="40.23" y="63.63" width="42.47" height="3.37" rx="1.68" ry="1.68"/><rect class="cls-6" x="40.23" y="80.14" width="42.47" height="3.37" rx="1.68" ry="1.68"/><rect class="cls-6" x="40.23" y="94.82" width="32.57" height="3.37" rx="1.68" ry="1.68"/></g></g></svg>