<svg xmlns="http://www.w3.org/2000/svg" viewBox="0 0 123.48 131.46"><rect width="123.48" height="131.46" rx="13.2" fill="#201e1d" opacity=".15"/><rect x="11" y="9.08" width="101.17" height="111.59" rx="11.39" fill="#fff"/><path d="M112.17,23.92V20.46A11.39,11.39,0,0,0,100.79,9.08H22.38A11.39,11.39,0,0,0,11,20.46v3.46Z" fill="#c21d47"/><path d="M112.24 28.52l-101.28-.25v-8.5l101.28.25v8.5z" fill="#201e1d" opacity=".15"/><path d="M36.4 39.24h50.4a3.28 3.28 0 0 1 3.28 3.28v65.86a3.28 3.28 0 0 1-3.28 3.28H45.33l-12.2-11.06V42.52a3.28 3.28 0 0 1 3.28-3.28z" fill="#f9d9b8"/><path d="M45.33 111.67h15.6V39.24H36.4a3.28 3.28 0 0 0-3.28 3.28v58.1z" fill="#fbe5cf"/><g fill="#f4bd85"><path d="M33.13 100.6h12.24l.01 11.06-12.25-11.06z"/><rect x="40.23" y="48.16" width="42.47" height="3.37" rx="1.68"/><rect x="40.23" y="63.63" width="42.47" height="3.37" rx="1.68"/><rect x="40.23" y="80.14" width="42.47" height="3.37" rx="1.68"/><rect x="40.23" y="94.82" width="32.57" height="3.37" rx="1.68"/></g></svg>