<svg xmlns="http://www.w3.org/2000/svg" viewBox="0 0 305.3 213.2"><path d="M52.6 190.4h19.8v22.8H52.6zm177.3 0h19.8v22.8h-19.8z" fill="#f9b833"/><path d="M281.6 193.9h-261C9.2 193.9 0 184.7 0 173.3v-5.1h302.1v5.1c.1 11.4-9.1 20.6-20.5 20.6z" fill="#fcd466"/><path d="M207.6 51.9c-12.1-22.1-.1-51.9-.1-51.9s31.7 6.2 43.8 28.3c12.1 22.2.1 51.9.1 51.9s-31.7-6.1-43.8-28.3z" fill="#84b97e"/><path d="M255.6 44.5c16.8-18.9 49.1-17.7 49.1-17.7s5 31.9-11.8 50.8-49.1 17.7-49.1 17.7-5-31.9 11.8-50.8z" fill="#96c391"/><path d="M275.4 168.2H221l-7.5-75h72.8z" fill="#e6a54c"/></svg>