<svg xmlns="http://www.w3.org/2000/svg" viewBox="0 0 302.1 190.6"><style>.K{enable-background:new}.L{fill:#fcd466}</style><path d="M93.9 145.2H55.1V27.7c0-2.2 1.8-4 4-4h30.8c2.2 0 4 1.8 4 4v117.5z" fill="#ec8d2c"/><path d="M64.9 44.8H84v18.8H64.9z" fill="#f2b271"/><path d="M90.1 23.7H75.2v121.5h18.6V27.9c.1-2.3-1.6-4.2-3.7-4.2z" opacity=".6" fill="#e87601" class="K"/><path d="M217.5 145.8l-35 16.7-50.6-106c-.9-2-.1-4.4 1.9-5.3l27.8-13.3c2-.9 4.4-.1 5.3 1.9l50.6 106z" fill="#f9bc3d"/><path d="M148.174 67.718L165.4 59.5l8.1 16.965-17.236 8.228z" class="L"/><path d="M161.8 37.8l-13.5 6.4 52.3 109.6 16.8-8L166.9 40c-.9-2.1-3.2-3.1-5.1-2.2z" opacity=".07" fill="#201e1d" class="K"/><path d="M259.8 145.8l-35 16.7-50.6-106c-.9-2-.1-4.4 1.9-5.3l27.8-13.3c2-.9 4.4-.1 5.3 1.9l50.6 106z" fill="#f9bc3d"/><path d="M190.48 67.714l17.236-8.228 8.1 16.965-17.236 8.228z" class="L"/><path d="M204.1 37.8l-13.5 6.4 52.3 109.6 16.8-8L209.2 40c-.9-2.1-3.2-3.1-5.1-2.2z" opacity=".07" fill="#201e1d" class="K"/><path d="M137.9 145.2H91.6V4.8c0-2.6 2.1-4.7 4.7-4.7h36.8c2.6 0 4.7 2.1 4.7 4.7l.1 140.4z" fill="#ed973e"/><path d="M103.4 25.3h22.8v44.6h-22.8z" fill="#f2b271"/><path d="M133.5 0h-17.8v145.2H138V5.1c-.1-2.8-2.1-5.1-4.5-5.1z" opacity=".6" fill="#e87601" class="K"/><path d="M55.3 145.2H24.9v-92c0-1.7 1.4-3.1 3.1-3.1h24.1c1.7 0 3.1 1.4 3.1 3.1v92h.1z" fill="#f2b16e"/><path d="M32.7 69h15v32.2h-15z" fill="#ed973e"/><path d="M52.4 50.1H40.7v95.1h14.6V53.4c0-1.8-1.3-3.3-2.9-3.3z" opacity=".47" fill="#e87906" class="K"/><path d="M52.6 167.8h19.8v22.8H52.6zm177.3 0h19.8v22.8h-19.8z" fill="#f9b833"/><path d="M281.6 171.3h-261C9.2 171.3 0 162.1 0 150.7v-5.1h302.1v5.1c.1 11.4-9.1 20.6-20.5 20.6z" class="L"/></svg>