<?xml version="1.0" encoding="utf-8"?>
<!-- Generator: Adobe Illustrator 22.1.0, SVG Export Plug-In . SVG Version: 6.00 Build 0)  -->
<svg version="1.1" id="Ebene_1" xmlns="http://www.w3.org/2000/svg" xmlns:xlink="http://www.w3.org/1999/xlink" x="0px" y="0px"
	 viewBox="0 0 1366 768" style="enable-background:new 0 0 1366 768;" xml:space="preserve">
<style type="text/css">
	.st0{fill:#EC8D2C;}
	.st1{fill:#F2B271;}
	.st2{opacity:0.59;fill:#E87601;}
	.st3{fill:#F9BC3D;}
	.st4{fill:#FCD466;}
	.st5{opacity:7.000000e-02;fill:#201E1D;}
	.st6{fill:#ED973E;}
	.st7{fill:#F2B16E;}
	.st8{opacity:0.47;fill:#E87906;}
	.st9{fill:#F9B833;}
</style>
<g>
	<g>
		<path class="st0" d="M626.1,433.8h-38.8V316.3c0-2.2,1.8-4,4-4h30.8c2.2,0,4,1.8,4,4V433.8z"/>
		<rect x="597.1" y="333.4" class="st1" width="19.1" height="18.8"/>
		<path class="st2" d="M622.3,312.3h-14.9v121.5h18.6V316.5C626.1,314.2,624.4,312.3,622.3,312.3z"/>
	</g>
	<g>
		<path class="st3" d="M749.7,434.4l-35,16.7l-50.6-106c-0.9-2-0.1-4.4,1.9-5.3l27.8-13.3c2-0.9,4.4-0.1,5.3,1.9L749.7,434.4z"/>
		
			<rect x="683.5" y="351.3" transform="matrix(0.9024 -0.4308 0.4308 0.9024 -87.7782 333.7659)" class="st4" width="19.1" height="18.8"/>
		<path class="st5" d="M694,326.4l-13.5,6.4l52.3,109.6l16.8-8l-50.5-105.8C698.2,326.5,695.9,325.5,694,326.4z"/>
	</g>
	<g>
		<path class="st3" d="M792,434.4l-35,16.7l-50.6-106c-0.9-2-0.1-4.4,1.9-5.3l27.8-13.3c2-0.9,4.4-0.1,5.3,1.9L792,434.4z"/>
		
			<rect x="725.8" y="351.3" transform="matrix(0.9024 -0.4308 0.4308 0.9024 -83.6565 351.9672)" class="st4" width="19.1" height="18.8"/>
		<path class="st5" d="M736.3,326.4l-13.5,6.4l52.3,109.6l16.8-8l-50.5-105.8C740.5,326.5,738.2,325.5,736.3,326.4z"/>
	</g>
	<g>
		<path class="st6" d="M670.1,433.8h-46.3V293.4c0-2.6,2.1-4.7,4.7-4.7h36.8c2.6,0,4.7,2.1,4.7,4.7V433.8z"/>
		<rect x="635.6" y="313.9" class="st1" width="22.8" height="44.6"/>
		<path class="st2" d="M665.7,288.6h-17.8v145.2h22.3V293.7C670.1,290.9,668.1,288.6,665.7,288.6z"/>
	</g>
	<g>
		<path class="st7" d="M587.5,433.8h-30.4v-92c0-1.7,1.4-3.1,3.1-3.1h24.1c1.7,0,3.1,1.4,3.1,3.1V433.8z"/>
		<rect x="564.9" y="357.6" class="st6" width="15" height="32.2"/>
		<path class="st8" d="M584.6,338.7h-11.7v95.1h14.6V342C587.5,340.2,586.2,338.7,584.6,338.7z"/>
	</g>
	<rect x="584.8" y="456.4" class="st9" width="19.8" height="22.8"/>
	<rect x="762.1" y="456.4" class="st9" width="19.8" height="22.8"/>
	<path class="st4" d="M813.8,459.9h-261c-11.4,0-20.6-9.2-20.6-20.6v-5.1h302.1v5.1C834.4,450.7,825.2,459.9,813.8,459.9z"/>
</g>
</svg>
