<svg width="334" height="334" viewBox="0 0 334 334" xmlns="http://www.w3.org/2000/svg" xmlns:xlink="http://www.w3.org/1999/xlink"><defs><path id="a" d="M0 .325h181.746V127H0z"/></defs><g fill="none" fill-rule="evenodd"><g opacity=".528" fill-rule="nonzero"><circle fill="#F4F2F2" cx="167" cy="167" r="167"/><circle fill="#E2E2E2" cx="167" cy="167" r="144"/></g><g opacity=".8"><g transform="translate(76 104)"><mask id="b" fill="#fff"><use xlink:href="#a"/></mask><path d="M169.106 127H12.64C5.688 127 0 121.276 0 114.28V13.046C0 6.049 5.688.325 12.64.325h156.466c6.952 0 12.64 5.724 12.64 12.72V114.28c0 6.995-5.688 12.72-12.64 12.72" fill="#F8B66E" mask="url(#b)"/></g><path d="M238.647 222H94.353C88.083 222 83 216.93 83 210.675v-88.35C83 116.071 88.083 111 94.353 111h144.294c6.27 0 11.353 5.07 11.353 11.325v88.35c0 6.254-5.083 11.325-11.353 11.325" fill="#FFF"/><path d="M250 126v-3.496c0-6.353-5.083-11.504-11.353-11.504H94.353C88.083 111 83 116.15 83 122.504V126h167z" fill="#C21D47"/><path fill="#F8B66E" d="M250 131l-167-.26V122l167 .26z"/><path fill="#FCE0C2" d="M93 214h22v-23H93z"/><path fill="#FACD9C" d="M93 163h22v-23H93zm0 20h22v-16H93z"/><path fill="#F8B66E" d="M128 213h5v-49h-5z"/><path fill="#FCE0C2" d="M135 213h5v-15h-5z"/><path fill="#F8B66E" d="M145 213h5v-36h-5z"/><path fill="#FCE0C2" d="M152 213h5v-15h-5z"/><path fill="#F8B66E" d="M161 213h5v-32h-5z"/><path fill="#FCE0C2" d="M169 213h5v-10h-5z"/><path fill="#F8B66E" d="M178 213h5v-25h-5z"/><path fill="#FCE0C2" d="M187 213h5v-8h-5z"/><path fill="#F8B66E" d="M195 213h5v-20h-5z"/><path fill="#FCE0C2" d="M203 213h5v-10h-5z"/><path fill="#F8B66E" d="M212 213h5v-22h-5z"/><path fill="#FCE0C2" d="M220 213h5v-15h-5z"/><path fill="#F8B66E" d="M229 213h5v-36h-5z"/><path d="M123 157.607c52.871-23.657 65.14 54.412 111-3.473" stroke="#F6CB9F" stroke-width="3.564" stroke-linecap="round" stroke-linejoin="round"/><path d="M123 162.204c54.075-18.623 87.66 32.677 116-.905" stroke="#FBE9D6" stroke-width="3.564" stroke-linecap="round" stroke-linejoin="round"/><path d="M238.535 149h-14.069c-.806 0-1.466-.675-1.466-1.5s.66-1.5 1.466-1.5h14.069c.806 0 1.465.675 1.465 1.5s-.659 1.5-1.465 1.5m-92.001-5h-14.068c-.806 0-1.466-.675-1.466-1.5s.66-1.5 1.466-1.5h14.068c.806 0 1.466.675 1.466 1.5s-.66 1.5-1.466 1.5" fill="#F8B66E"/></g></g></svg>