<svg xmlns="http://www.w3.org/2000/svg" viewBox="0 0 123.48 131.46"><rect width="123.48" height="131.46" rx="13.2" fill="#201e1d" opacity=".15"/><rect x="11" y="9.08" width="101.17" height="111.59" rx="11.39" fill="#fff"/><path d="M112.17 23.92v-3.46a11.39 11.39 0 00-11.38-11.38H22.38A11.39 11.39 0 0011 20.46v3.46z" fill="#c21d47"/><path d="M112.24 28.52l-101.28-.25v-8.5l101.28.25v8.5z" fill="#201e1d" opacity=".15"/><g fill="#7bdb86"><path d="M99.85 43.67H55.2a3.11 3.11 0 00-3.11 3.11v24.3a3.11 3.11 0 003.11 3.11h29.4l8.17 8.17V74.2h7.07a3.11 3.11 0 003.15-3.11v-24.3a3.11 3.11 0 00-3.15-3.11z"/><path d="M99.85 43.67H77.38V74.2h7.23l8.17 8.17V74.2h7.07a3.11 3.11 0 003.15-3.11v-24.3a3.11 3.11 0 00-3.15-3.11z"/></g><g fill="#3caf52"><path d="M26.24 63.64H70.9a3.11 3.11 0 013.1 3.11v24.3a3.11 3.11 0 01-3.11 3.11h-29.4l-8.17 8.17v-8.17h-7.07a3.11 3.11 0 01-3.11-3.11v-24.3a3.11 3.11 0 013.11-3.11z"/><path d="M70.9 63.64H47v30.53h23.9a3.11 3.11 0 003.1-3.11v-24.3a3.11 3.11 0 00-3.1-3.11z"/></g><circle cx="63.03" cy="68.02" r="18.78" fill="#7bdb86"/><g fill="#179933"><path d="M63 49.24h-.38V86.8H63a18.78 18.78 0 100-37.56z"/><path d="M59.5 79.33a1.67 1.67 0 01-1.35-2.65l5.1-7H59.5A1.67 1.67 0 0158.15 67l7-9.64a1.67 1.67 0 112.69 2l-5.1 7h3.76A1.67 1.67 0 0167.9 69l-7 9.64a1.66 1.66 0 01-1.4.69z"/></g><path d="M66.55 66.35H62.8l5.1-7a1.67 1.67 0 10-2.69-2l-2.56 3.5v8.8h.62l-.62.84v5.66L67.9 69a1.67 1.67 0 00-1.35-2.65z" fill="#9ee8a4"/></svg>