<svg width="676" height="676" viewBox="0 0 676 676" xmlns="http://www.w3.org/2000/svg"><g fill="none" fill-rule="evenodd"><circle fill="#ECEEF0" cx="337.914" cy="361.112" r="263.719"/><path d="M171.318 278.829c2.513.97 4.954 2.615 6.659 4.88 1.517 2.021 2.601 5.226 4.698 6.636.82.55 1.42-.083 2.143-.644l.182-.136c1.216-.88 2.378-1.85 3.608-2.706 1.73-1.2 3.603-2.099 5.609-2.57 2.934-.688 6.991-.528 7.83 3.371.313 1.465.074 3.032-.029 4.509a363.304 363.304 0 01-.458 6.075 52.065 52.065 0 01-.361 3.198c1.985-.5 4.05-.697 6.074-.54 3.845.306 8.014 1.706 10.789 4.829 3.464 3.895 3.454 9.66 2.364 14.672-.434 2.007-1.032 3.97-1.67 5.907l-.489 1.45c-.79 2.322-1.702 4.763-3.375 6.476 5.52.3 12.247 2.833 15.138 8.496 3.758 7.355-1.616 15.698-7.464 19.112 10.659 9.718-8.618 23.018-16.56 23.564 1.457 5.895-5.218 7.924-8.882 9.5 5.94 10.422-17.345 24.019-23.679 9.848l-.19-.442c-1.104-2.717-2.274-4.513-3.37-5.684l-.401-.403-.02-.18-.065-.183 1.652-1.731c1.493-1.597 2.488-2.736 2.205-2.564-1.486.907-2.727 1.578-3.752 2.069l-.2.094.022-.071c.966-2.826 5.306-5.483 3.647-7.844l-.242-.291 2.948-1.29c2.802-1.256 5.618-2.774 7.384-5.549 4.132-6.487-.418-15.508-6.875-17.216-5.849-1.544-12.445 1.768-16.18 6.795-1.242-3.546-3.031-6.916-5.44-9.63l-.6-.665-.564.604c-2.545 2.822-4.438 6.319-5.75 10-3.948-5.218-10.924-8.66-17.105-7.053-6.83 1.768-11.642 11.136-7.275 17.87 2.538 3.912 7.115 5.421 10.926 7.101-2.971 3.134.728 6.01-1.061 9.91-.883 1.923-2.12 4.099-4.094 4.768-.73.247-1.588.27-2.163.872-.712.748-.88 1.583-1.794 2.224-3.637 2.565-9.314 2.368-12.536-.976-2.809-2.919-2.207-7.476.023-10.547l.187-.247-.267.215c-2.017 1.506-12.397 7.454-13.477-8.417l-.627-.063c-8.509-1.088-23.065-12.736-12.073-22.58-6.184-3.544-11.866-12.207-7.893-19.842 3.058-5.88 9.271-9.666 15.106-9.977-1.769-1.78-7.213-5.237-7.213-11.86 0-5.31 4.014-19.492 13.908-20.246l1.414-.097c8.53-.54 9.052.594 11.423 1.606.096-5.61 1.043-11.48 3.85-16.27 2.699-4.61 7.005-7.195 11.906-7.88 5.032-.7 10.001.493 14.506 2.964 1.13.618 2.245 1.266 3.315 2l.776.544c.66.456 1.351.882 2.1 1.06 1.172.28 1.752-.408 2.514-1.273a19.141 19.141 0 012.962-2.706c4.703-3.506 10.875-4.948 16.326-2.846zm-2.583 119.72l.52-.535.229.213.009.049c.066 1.7-3.332 3.358-1.62 3.95.447.155-2.3.739-4.153 1.29l-.3.09.06-.047c1.312-1.071 3.364-3.075 5.255-5.01zm.569-2.817l-.078.285c-.116.493-.119.99.043 1.495l.13.352-.143.15-.053-.046c-.805-.704-1.547-1.08-2.159-1.264l-.114-.032.126-.037.6-.206a19.4 19.4 0 001.517-.634l.13-.063zM129.69 350.62c8.068 1.85 16.406 2.61 24.404 4.789l.36.11c7.398-1.994 15.093-2.735 22.543-4.473-7.884-.012-15.786.84-23.66.076-.094-.009-.13-.113-.121-.303l1.49-.118c-8.327.792-16.68-.092-25.016-.08z" fill="#A1ADB4"/><path d="M119.574 331.632l.679.411 2.53 1.562c2.223 1.352 4.612 2.672 8.308 4.005l.538.191c24.153 8.44 42.344 3.464 50.673.781l2.386-.78 5.734 22.338c.062.378 1.856-.866 5.385-3.726l.55-.447.172-.816c4.662 1.33 6.872 5.332 6.633 12.01l-.016.388-.02.37c-.701 11.706-7.113 22-14.635 20.787l-.238-.042-.317.703c-3.53 7.72-8.39 15.016-14.16 20.398l-.543.499 5.585 64.392h-51.617l5.452-66.325-.523-.539c-5.712-5.98-10.408-13.804-13.63-21.849l-.297-.754-.175.09c-5.68 2.784-13.108-5.329-13.844-17.353l-.02-.377-.017-.387c-.236-6.505 1.773-10.472 6.031-11.902l.02.224c1.034-1.283 4.48-.117 7.746 4.382l.196.274.022-.02.096-.122c.534-.72 2.778-4.124 6.731-10.217l5.725-8.85-11.478-7.813.338-1.486zM328.258 191.84c22.324 6.966 7.926 29.627 13.24 48.103 5.828 20.237-4 26.318-10.107 38.581-2.714 5.45 17.431 59.007-32.576 141.56l-28.48-33.328c28.48-79.99 34.592-117.082 38.303-126.15 2.721-6.652-2.754-32.373 11.769-59.971l1.114-2.11c3.219-6.056 4.258-7.457 6.737-6.685z" fill="#455B6A"/><path d="M289.549 275.916l52.563-2.22.026.851c.28 10.66 1.896 119.158-45.958 195.065l-5.18 8.213c-6.725 10.632-25.006 26.172-29.325 31.518-5.03 7.768-1.899 66.428-4.298 102.96-80.096-25.655-143.523-88.559-169.902-168.327 21.491-17.206 43.877-18.856 43.877-18.856l.043.134.1.28.156.39c1.184 2.828 6.276 12.156 21.913 12.156 18.432 0 21.86-12.96 21.86-12.96a79.86 79.86 0 018.55 1.367l1.017-.226.772-.179.84-.2c14.373-3.482 60.479-17.285 78.854-54.527 21.67-43.924 23.887-89.6 24.075-94.924l.016-.515zm251.202-6.528c60.674 0 62.894 53.07 60.674 84.287-2.177 30.634-22.891 54.82-62.375 55.713-31.315-.884-52.605-24.247-57.361-53.224l-.307-3.533-.909-9.79c-3.914-46.963 28.76-73.453 60.278-73.453zM257.77 78.633l.182.187 38.151 41.139c2.023 2.18 1.867 5.588-.35 7.61-2.15 1.964-5.45 1.9-7.492-.1l-.182-.187-38.151-41.138c-2.023-2.181-1.867-5.589.35-7.611 2.15-1.963 5.45-1.9 7.492.1zm168.329-2.2c1.98 2.102 1.914 5.375-.104 7.43l-.189.183-46.033 42.637c-2.2 2.038-5.638 1.935-7.677-.231-1.98-2.103-1.914-5.376.104-7.43l.189-.184 46.033-42.637c2.2-2.038 5.638-1.935 7.677.232zM334.94 50c2.91.06 5.22 2.38 5.275 5.236v.262l-1.632 56.41c-.087 2.973-2.587 5.333-5.587 5.271-2.91-.06-5.22-2.38-5.275-5.236v-.261l1.632-56.41c.087-2.974 2.587-5.334 5.587-5.272z" fill="#B1063A"/><path d="M540.694 311.272c32.645 0 38.93 21.585 40.038 41.24 6.503.518 9.554 4.808 9.16 12.871-.59 12.012-7.19 22.657-14.894 21.164-3.661 8.242-8.836 16.052-15.02 21.647l5.582 64.542h-51.616l5.451-66.478c-6.13-6.242-11.129-14.621-14.452-23.194-5.759 3.077-13.428-5.299-14.038-17.68-.417-8.456 2.837-12.763 9.751-12.922 1.117-19.64 7.42-41.19 40.038-41.19zM361.187 201.215c15.773 26.88 11.483 52.833 14.507 59.35 4.122 8.883 17.942 43.489 59.4 136.354l-40.245-10.543c-53.74-80.104-38.1-101.522-41.06-106.839-6.667-11.962-16.762-17.573-11.87-38.065 4.463-18.702-10.958-40.661 11.02-48.674 2.703-.984 3.763.778 8.248 8.417z" fill="#A1ADB4"/><path d="M350.65 273.098l52.564 2.22.022.698c.23 6.112 2.63 51.284 24.069 94.74 19.724 39.978 71.4 52.944 81.485 55.13a80.314 80.314 0 018.55-1.367l.072.236c.572 1.755 4.828 12.724 21.786 12.724 18.432 0 22.214-12.96 22.214-12.96l.572.056c2.752.297 15.077 1.996 29.379 9.63-21.61 75.097-75.696 136.437-146.073 167.848-5.753-31.706-11.609-85.22-17.985-95.069-5.657-7.002-29.315-27.717-39.444-44.959-45.842-78.031-37.725-175.96-37.251-187.967l.04-.96z" fill="#344450"/></g></svg>