<svg xmlns="http://www.w3.org/2000/svg" xmlns:xlink="http://www.w3.org/1999/xlink" viewBox="0 0 1345.45 1086.58"><defs><style>.cls-1{fill:#fda947;}.cls-12,.cls-14,.cls-2,.cls-40,.cls-72{fill:#201e1d;}.cls-2{opacity:0.1;}.cls-3{fill:#f2f2f2;}.cls-4{fill:#db7f00;}.cls-5{fill:#fec600;}.cls-16,.cls-6{fill:#fff;}.cls-7{fill:#f9bc3d;}.cls-8{fill:#ec9134;}.cls-9{fill:#ed973e;}.cls-10{fill:#f2b271;}.cls-11{fill:#e87601;opacity:0.59;}.cls-12{opacity:0.14;}.cls-13{fill:#c21d47;}.cls-14{opacity:0.15;}.cls-15{opacity:0.8;}.cls-16{opacity:0.35;}.cls-17{fill:#fef0e1;}.cls-18{fill:#fce0c2;}.cls-19{fill:#f8ae5f;}.cls-20{fill:#fbd1a4;}.cls-21{fill:#f9bc7c;}.cls-22{fill:#f69f41;}.cls-23{fill:url(#linear-gradient);}.cls-24{fill:url(#linear-gradient-2);}.cls-25{fill:url(#linear-gradient-3);}.cls-26{fill:url(#linear-gradient-4);}.cls-27{fill:url(#linear-gradient-5);}.cls-28{fill:url(#linear-gradient-6);}.cls-29{fill:url(#linear-gradient-7);}.cls-30{fill:url(#linear-gradient-8);}.cls-31{fill:url(#linear-gradient-9);}.cls-32{fill:url(#linear-gradient-10);}.cls-33{fill:url(#linear-gradient-11);}.cls-34{fill:url(#linear-gradient-12);}.cls-35{fill:url(#linear-gradient-13);}.cls-36{fill:url(#linear-gradient-14);}.cls-37{fill:url(#linear-gradient-15);}.cls-38{fill:#5591a8;}.cls-39{fill:#f8b66e;}.cls-40{opacity:0.06;}.cls-41{fill:#de8914;}.cls-42{fill:#fac352;}.cls-43{fill:#ae3a58;}.cls-44{fill:#9f173b;}.cls-45{fill:url(#linear-gradient-16);}.cls-46,.cls-48,.cls-53,.cls-66,.cls-70{fill:none;stroke-linecap:round;}.cls-46{stroke:#19719d;}.cls-46,.cls-48,.cls-53,.cls-66,.cls-85{stroke-miterlimit:10;}.cls-46,.cls-48{stroke-width:53.1px;}.cls-47{fill:#66a0be;}.cls-48{stroke:#006192;}.cls-49{fill:#006192;}.cls-50{fill:url(#linear-gradient-17);}.cls-51{fill:#68aa61;}.cls-52{fill:#ffbfab;}.cls-53{stroke:#68aa61;}.cls-53,.cls-66{stroke-width:47.2px;}.cls-54{fill:#a6cda2;}.cls-55{fill:url(#linear-gradient-18);}.cls-56{fill:#ce8e27;}.cls-57{fill:#d7a34e;}.cls-58{fill:#ffcbba;}.cls-59{fill:url(#linear-gradient-19);}.cls-60{fill:url(#linear-gradient-20);}.cls-61{fill:#8ebcd1;}.cls-62{fill:#5b9ebd;}.cls-63{fill:url(#linear-gradient-21);}.cls-64{fill:url(#linear-gradient-22);}.cls-65{fill:#86283c;}.cls-66{stroke:#fb3847;}.cls-67{fill:url(#linear-gradient-23);}.cls-68{fill:#923d50;}.cls-69{fill:#ffb69f;}.cls-70{stroke:#268baa;stroke-linejoin:round;stroke-width:30.42px;}.cls-71{fill:#ffded3;}.cls-73{fill:#3a3938;}.cls-74{fill:url(#linear-gradient-24);}.cls-75{fill:#fdd66e;}.cls-76{fill:#fbb800;}.cls-77{fill:url(#linear-gradient-25);}.cls-78{fill:url(#linear-gradient-26);}.cls-79{fill:#298cab;}.cls-80{fill:#ffc9b8;}.cls-81{fill:#ffe0d6;}.cls-82{fill:#ff9676;}.cls-83{fill:url(#linear-gradient-27);}.cls-84{fill:#a81b5b;}.cls-85{fill:#a9dff9;stroke:#a81b5b;stroke-width:3.26px;}.cls-86{fill:url(#linear-gradient-28);}.cls-87{fill:#f9dabb;opacity:0.4;}.cls-88{fill:#eaeaea;}</style><linearGradient id="linear-gradient" x1="620.12" y1="275.55" x2="815.57" y2="275.55" gradientUnits="userSpaceOnUse"><stop offset="0.13" stop-color="#c32045"/><stop offset="0.81" stop-color="#fbb800"/></linearGradient><linearGradient id="linear-gradient-2" x1="620.12" y1="282.14" x2="815.57" y2="282.14" xlink:href="#linear-gradient"/><linearGradient id="linear-gradient-3" x1="648.36" y1="356.04" x2="792.19" y2="356.04" gradientUnits="userSpaceOnUse"><stop offset="0.31" stop-color="#c21d47"/><stop offset="0.71" stop-color="#fbb800"/></linearGradient><linearGradient id="linear-gradient-4" x1="648.36" y1="355.97" x2="792.19" y2="355.97" xlink:href="#linear-gradient-3"/><linearGradient id="linear-gradient-5" x1="648.36" y1="356.06" x2="792.19" y2="356.06" xlink:href="#linear-gradient-3"/><linearGradient id="linear-gradient-6" x1="648.36" y1="359.53" x2="792.19" y2="359.53" xlink:href="#linear-gradient-3"/><linearGradient id="linear-gradient-7" x1="648.36" y1="355.97" x2="792.19" y2="355.97" xlink:href="#linear-gradient-3"/><linearGradient id="linear-gradient-8" x1="648.36" y1="359.6" x2="792.19" y2="359.6" xlink:href="#linear-gradient-3"/><linearGradient id="linear-gradient-9" x1="648.36" y1="359.61" x2="792.19" y2="359.61" xlink:href="#linear-gradient-3"/><linearGradient id="linear-gradient-10" x1="648.36" y1="359.54" x2="792.19" y2="359.54" xlink:href="#linear-gradient-3"/><linearGradient id="linear-gradient-11" x1="648.36" y1="356.06" x2="792.19" y2="356.06" xlink:href="#linear-gradient-3"/><linearGradient id="linear-gradient-12" x1="648.36" y1="356.04" x2="792.19" y2="356.04" xlink:href="#linear-gradient-3"/><linearGradient id="linear-gradient-13" x1="648.36" y1="359.17" x2="792.19" y2="359.17" xlink:href="#linear-gradient-3"/><linearGradient id="linear-gradient-14" x1="1374.33" y1="702.81" x2="1283.91" y2="895.64" gradientTransform="matrix(-1, 0, 0, 1, 2466.66, 0)" gradientUnits="userSpaceOnUse"><stop offset="0" stop-color="#c1e5ef"/><stop offset="1" stop-color="#5591a8"/></linearGradient><linearGradient id="linear-gradient-15" x1="1213.88" y1="786.19" x2="1485.54" y2="786.19" xlink:href="#linear-gradient-14"/><linearGradient id="linear-gradient-16" x1="1953.92" y1="499.94" x2="1953.92" y2="408.09" gradientTransform="matrix(0.99, -0.12, 0.11, 1, -747.62, 436.09)" gradientUnits="userSpaceOnUse"><stop offset="0.12" stop-color="#ffd8ca"/><stop offset="0.66" stop-color="#ffa183"/></linearGradient><linearGradient id="linear-gradient-17" x1="1244.9" y1="730.63" x2="1244.9" y2="353.9" gradientUnits="userSpaceOnUse"><stop offset="0" stop-color="#68aa61"/><stop offset="0.1" stop-color="#7cb576"/><stop offset="0.41" stop-color="#b4d5b0"/><stop offset="0.67" stop-color="#ddecdb"/><stop offset="0.88" stop-color="#f6faf5"/><stop offset="1" stop-color="#fff"/></linearGradient><linearGradient id="linear-gradient-18" x1="1981.02" y1="293.5" x2="1981.02" y2="469.7" gradientTransform="matrix(0.99, -0.13, 0.13, 0.99, -773.97, 460.1)" gradientUnits="userSpaceOnUse"><stop offset="0.01" stop-color="#ffe9e1"/><stop offset="0.97" stop-color="#ffa082"/></linearGradient><linearGradient id="linear-gradient-19" x1="318.52" y1="703.77" x2="228.1" y2="896.61" gradientTransform="matrix(1, 0, 0, 1, 0, 0)" xlink:href="#linear-gradient-14"/><linearGradient id="linear-gradient-20" x1="157.35" y1="786.82" x2="429.01" y2="786.82" gradientTransform="matrix(1, 0, 0, 1, 0, 0)" xlink:href="#linear-gradient-14"/><linearGradient id="linear-gradient-21" x1="94.55" y1="657.03" x2="94.55" y2="612.62" gradientUnits="userSpaceOnUse"><stop offset="0" stop-color="#ffede6"/><stop offset="0.97" stop-color="#ff9676"/></linearGradient><linearGradient id="linear-gradient-22" x1="162.51" y1="729.69" x2="162.51" y2="890.09" gradientTransform="matrix(1, -0.01, 0.01, 1, -76.02, 20.33)" gradientUnits="userSpaceOnUse"><stop offset="0" stop-color="#fb3847"/><stop offset="1" stop-color="#86283c"/></linearGradient><linearGradient id="linear-gradient-23" x1="1287.22" y1="105.52" x2="1287.22" y2="416.31" gradientTransform="matrix(0.98, -0.21, 0.21, 0.98, -1219.3, 587.33)" xlink:href="#linear-gradient-21"/><linearGradient id="linear-gradient-24" x1="574.85" y1="509.29" x2="574.85" y2="616.75" gradientUnits="userSpaceOnUse"><stop offset="0.01" stop-color="#268baa"/><stop offset="0.42" stop-color="#00779b"/></linearGradient><linearGradient id="linear-gradient-25" x1="543.05" y1="894.43" x2="543.05" y2="679.15" gradientUnits="userSpaceOnUse"><stop offset="0" stop-color="#3381a8"/><stop offset="0.79" stop-color="#006192"/></linearGradient><linearGradient id="linear-gradient-26" x1="6108.56" y1="895.74" x2="6108.56" y2="680.45" gradientTransform="matrix(-1, 0, 0, 1, 6716.79, 0)" xlink:href="#linear-gradient-25"/><linearGradient id="linear-gradient-27" x1="5318.94" y1="363.12" x2="5318.94" y2="458.32" gradientTransform="matrix(-1, 0, 0, 1, 5897.87, 0)" gradientUnits="userSpaceOnUse"><stop offset="0" stop-color="#ffd8ca"/><stop offset="0.97" stop-color="#ff9676"/></linearGradient><linearGradient id="linear-gradient-28" x1="569.94" y1="414.77" x2="591.12" y2="414.77" gradientTransform="matrix(1, 0, 0, 1, 0, 0)" xlink:href="#linear-gradient-22"/></defs><title>Version2</title><g id="Layer_2" data-name="Layer 2"><g id="Deko"><rect class="cls-1" x="81" y="473.33" width="19.83" height="22.8"/><rect class="cls-2" x="220.04" y="74.2" width="1016.08" height="530.5" rx="39.58" ry="39.58"/><rect class="cls-3" x="200.6" y="76.43" width="1015.38" height="509.81" rx="50.09" ry="50.09"/><path class="cls-4" d="M523.79,586.7H447.44a5.41,5.41,0,0,1-5.41-5.41v-4.14a5.41,5.41,0,0,1,5.41-5.41h76.36l9,4.35a3.56,3.56,0,0,1,0,6.44Z"/><path class="cls-5" d="M642.8,584.23H566.45a5.41,5.41,0,0,1-5.41-5.41v-4.14a5.41,5.41,0,0,1,5.41-5.41H642.8l9,4.35a3.56,3.56,0,0,1,0,6.44Z"/><rect class="cls-2" x="323.31" y="577.65" width="825.6" height="45.55" rx="17.82" ry="17.82"/><rect class="cls-6" x="334.08" y="584.61" width="799" height="27" rx="13.5" ry="13.5"/><rect class="cls-7" x="699.26" y="692.11" width="167.44" height="89.3" rx="11.85" ry="11.85"/><rect class="cls-8" x="509.26" y="749.23" width="522.6" height="224.92"/><rect class="cls-2" x="510.28" y="746.18" width="522.6" height="17.58"/><path class="cls-1" d="M514.93,721.76H1017a27.59,27.59,0,0,1,27.59,27.59v0a0,0,0,0,1,0,0H487.34a0,0,0,0,1,0,0v0a27.59,27.59,0,0,1,27.59-27.59Z"/><path class="cls-9" d="M860.86,628.7h45a0,0,0,0,1,0,0V765.2a4.62,4.62,0,0,1-4.62,4.62h-35.8a4.62,4.62,0,0,1-4.62-4.62V628.7a0,0,0,0,1,0,0Z" transform="matrix(0, 1, -1, 0, 1582.63, -184.12)"/><rect class="cls-10" x="847.92" y="677.59" width="22.21" height="43.34" transform="matrix(0, 1, -1, 0, 1558.28, -159.77)"/><path class="cls-11" d="M812.81,717.45V700.12H953.93v21.66H817.73A4.65,4.65,0,0,1,812.81,717.45Z"/><path class="cls-4" d="M593.69,709.17l-9-75.82a5.41,5.41,0,0,1,4.73-6l4.11-.49a5.41,5.41,0,0,1,6,4.73l9,75.82-3.25,9.43a3.56,3.56,0,0,1-6.4.72Z"/><path class="cls-5" d="M578.34,704.66l34.55-68.13a5.41,5.41,0,0,1,7.27-2.37l3.69,1.88a5.42,5.42,0,0,1,2.38,7.28l-34.55,68.13-7.94,6a3.57,3.57,0,0,1-5.72-3Z"/><path class="cls-6" d="M574.78,666.56h37.37a5.25,5.25,0,0,1,5.25,5.25v49.27a0,0,0,0,1,0,0H569.53a0,0,0,0,1,0,0V671.81A5.25,5.25,0,0,1,574.78,666.56Z"/><rect class="cls-2" x="591.88" y="671.2" width="21.46" height="49.88"/><path class="cls-6" d="M569.37,681a12.81,12.81,0,1,0,12.81,12.81A12.81,12.81,0,0,0,569.37,681Zm0,19.67a6.86,6.86,0,1,1,6.86-6.86A6.86,6.86,0,0,1,569.37,700.72Z"/></g><g id="Webseite"><rect class="cls-12" x="416.11" y="117.11" width="593.62" height="411.17" rx="41.28" ry="41.28"/><rect class="cls-6" x="424.4" y="125.73" width="570.51" height="380.11" rx="38.78" ry="38.78"/><path class="cls-13" d="M994.9,176.3V164.51a38.78,38.78,0,0,0-38.78-38.78H463.18a38.78,38.78,0,0,0-38.78,38.78V176.3Z"/><polygon class="cls-14" points="995.13 191.94 424.26 191.08 424.26 162.11 995.13 162.97 995.13 191.94"/><g class="cls-15"><path class="cls-16" d="M723.74,265.48a84.91,84.91,0,0,0,0,169.83"/></g><rect class="cls-17" x="449.9" y="255.59" width="113.59" height="219.55"/><rect class="cls-6" x="465.5" y="280.44" width="71.55" height="18.13" rx="9.06" ry="9.06"/><rect class="cls-6" x="465.5" y="318.17" width="71.55" height="18.13" rx="9.06" ry="9.06"/><rect class="cls-6" x="465.5" y="355.9" width="71.55" height="18.13" rx="9.06" ry="9.06"/><rect class="cls-6" x="465.5" y="393.63" width="71.55" height="18.13" rx="9.06" ry="9.06"/><rect class="cls-6" x="465.5" y="431.36" width="71.55" height="18.13" rx="9.06" ry="9.06"/><path class="cls-18" d="M600.74,216.52a21.13,21.13,0,1,0,21.13,21.13A21.13,21.13,0,0,0,600.74,216.52Zm0,36.28a15.15,15.15,0,1,1,15.15-15.15A15.15,15.15,0,0,1,600.74,252.8Z"/><rect class="cls-18" x="596.77" y="230.21" width="7.88" height="16.17" rx="3.94" ry="3.94"/><path class="cls-18" d="M600.74,444.69a21.13,21.13,0,1,0,21.13,21.13A21.13,21.13,0,0,0,600.74,444.69Zm0,36.28a15.15,15.15,0,1,1,15.15-15.15A15.15,15.15,0,0,1,600.74,481Z"/><rect class="cls-18" x="596.77" y="458.38" width="7.88" height="16.17" rx="3.94" ry="3.94"/><rect class="cls-18" x="864.41" y="226.8" width="101.95" height="18.13" rx="9.06" ry="9.06"/><rect class="cls-18" x="864.41" y="254.3" width="75.39" height="18.13" rx="9.06" ry="9.06"/><path class="cls-18" d="M836.17,218a21.13,21.13,0,1,0,21.13,21.13A21.13,21.13,0,0,0,836.17,218Zm0,36.28a15.15,15.15,0,1,1,15.15-15.15A15.15,15.15,0,0,1,836.17,254.3Z"/><rect class="cls-18" x="832.2" y="231.71" width="7.88" height="16.17" rx="3.94" ry="3.94"/><rect class="cls-17" x="839.88" y="336.64" width="142.49" height="144.01"/><rect class="cls-19" x="861.05" y="405.11" width="24.52" height="47.8"/><rect class="cls-20" x="898.41" y="352.51" width="24.52" height="100.41"/><rect class="cls-21" x="935.77" y="388.66" width="24.52" height="64.25"/><rect class="cls-22" x="845.29" y="460.5" width="131.93" height="8.76"/><rect class="cls-13" x="450.21" y="218.03" width="113.23" height="39.66"/><path class="cls-6" d="M465.55,244.07v-.71a.2.2,0,0,0,0,0c0-.17,0-.34.06-.51a5,5,0,0,1,.49-1.41,4.92,4.92,0,0,1,1.28-1.54A5.43,5.43,0,0,1,469,239a5,5,0,0,1,1.12-.27c.31,0,.63-.08.94-.09s.75,0,1.13.05c.22,0,.44.05.66.09l.67.12c0-.18,0-.35,0-.53a4.13,4.13,0,0,1,0-.45c0-.27.1-.53.17-.79a5.32,5.32,0,0,1,.65-1.5,4.84,4.84,0,0,1,1-1.2,4.15,4.15,0,0,1,.83-.55,5.55,5.55,0,0,1,.88-.35,5.25,5.25,0,0,1,1-.17,6.79,6.79,0,0,1,.93,0,4.29,4.29,0,0,1,1.11.24c.3.1.6.23.9.34a.23.23,0,0,0,0-.05c0-.23.08-.47.13-.7a8,8,0,0,1,.62-1.79,8.6,8.6,0,0,1,.73-1.25,8,8,0,0,1,.9-1.08,9.71,9.71,0,0,1,.76-.68,10.06,10.06,0,0,1,.86-.63,7.56,7.56,0,0,1,1.43-.75c.44-.17.89-.32,1.34-.45a6.12,6.12,0,0,1,1.25-.23c.36,0,.71-.06,1.07-.07a5.19,5.19,0,0,1,.65,0c.27,0,.54,0,.8.1s.7.14,1,.24a7.61,7.61,0,0,1,1.82.8,8.23,8.23,0,0,1,1.39,1.05,8.38,8.38,0,0,1,.84.93,9.09,9.09,0,0,1,1,1.52,8.7,8.7,0,0,1,.42.94c.18.48.35,1,.48,1.47s.22,1.06.32,1.59a.1.1,0,0,1,0,.08l-.61.68-.69.77-.69.76-.71.79-.63.69a.86.86,0,0,0-.15.22c-.06.14-.11.28-.16.43l-.5,1.43-.74,2.11-.44,1.26a.28.28,0,0,1-.07.12c-.18.16-.36.31-.55.46a6.16,6.16,0,0,1-1.34.82,1.53,1.53,0,0,1-.77.17,2.33,2.33,0,0,1-.91-.32,4.72,4.72,0,0,1-.9-.72c-.2-.19-.38-.4-.57-.61s-.6-.66-.91-1c-.15-.16-.32-.3-.49-.45a3.9,3.9,0,0,0-.78-.56,2.6,2.6,0,0,0-1.6-.31,2.55,2.55,0,0,0-.75.22,3.53,3.53,0,0,0-1,.64c-.3.28-.6.57-.89.87s-.56.64-.86.94-.46.44-.71.65a2.59,2.59,0,0,1-.89.51,1.52,1.52,0,0,1-1.07,0,2.41,2.41,0,0,1-.78-.52c-.24-.23-.46-.48-.69-.72l-.83-.83a2.66,2.66,0,0,0-.79-.53,1.81,1.81,0,0,0-1-.16,2.59,2.59,0,0,0-1,.41,6.07,6.07,0,0,0-1,.75l-.92.92a.28.28,0,0,0,0,.41.3.3,0,0,0,.43,0l.11-.13c.33-.32.66-.64,1-.95a4.37,4.37,0,0,1,1-.66,1.16,1.16,0,0,1,1,0,2.82,2.82,0,0,1,.84.6c.2.2.39.41.58.61l.62.64a3.62,3.62,0,0,0,.77.61,1.91,1.91,0,0,0,.83.29,3.28,3.28,0,0,0,.66,0,2.51,2.51,0,0,0,1-.38,4,4,0,0,0,.7-.53c.23-.22.46-.43.68-.66s.55-.62.83-.92a7.41,7.41,0,0,1,1.05-1,2.32,2.32,0,0,1,1.15-.46,1.87,1.87,0,0,1,.94.18,4.21,4.21,0,0,1,1.13.82c.21.2.4.42.6.63s.58.64.88,1a7.87,7.87,0,0,0,.64.58,4.47,4.47,0,0,0,.6.42,2.4,2.4,0,0,0,1.07.36,3.13,3.13,0,0,0,.62,0,2.77,2.77,0,0,0,1-.41,10,10,0,0,0,1.42-1,1.14,1.14,0,0,1,.21-.18l.66-.31.81-.38,1.54-.72.81-.38,1.54-.72a.69.69,0,0,0,.2-.16l.72-.79.7-.78.72-.79.65-.7.24-.27.29-.31c.12.26.23.51.34.75a6.5,6.5,0,0,1,.38,1.23,5.91,5.91,0,0,1,.14,1,.37.37,0,0,0,0,.08v.77s0,0,0,0a6.07,6.07,0,0,1-.13,1,6.7,6.7,0,0,1-.54,1.64c-.13.26-.27.51-.41.76a6.49,6.49,0,0,1-.84,1.11,7.33,7.33,0,0,1-2.89,1.91,6,6,0,0,1-1.35.33,8.79,8.79,0,0,1-1,.09l-23.18,0h-1.55c-.28,0-.57,0-.85,0s-.69-.08-1-.13a5.11,5.11,0,0,1-1.43-.46,4.65,4.65,0,0,1-1.07-.71,6.13,6.13,0,0,1-.93-1,5.62,5.62,0,0,1-.69-1.29,4.65,4.65,0,0,1-.29-1.22C465.58,244.24,465.56,244.15,465.55,244.07Z"/><path class="cls-6" d="M498.75,241.65l-2,.95-.34-.3-.78-.7-.17-.16a.11.11,0,0,1,0-.09l.5-1.4.23-.65a.6.6,0,0,0,.48-.07,2.46,2.46,0,0,0,.29-.28l.19-.22.59-.64.62-.69.63-.7.62-.69.15-.17a.08.08,0,0,1,.07,0l.29.15-.21.24-.4.44-.79.87-.45.5-.81.89a1.61,1.61,0,0,0-.31.42,1.11,1.11,0,0,0-.08.66,1,1,0,0,0,.31.6,1,1,0,0,0,.59.25,1.13,1.13,0,0,0,.51-.08,1.38,1.38,0,0,0,.48-.38l.2-.23.59-.64.63-.7.47-.52.62-.68.25-.29.21.26a0,0,0,0,1,0,0l-.23.26-.8.88-.55.61-.72.8-.55.61c-.08.09-.16.17-.22.26A.63.63,0,0,0,498.75,241.65Z"/><path class="cls-23" d="M803.33,291.34a25.39,25.39,0,0,0-.61-4.49,28,28,0,0,0-1.64-5.3c-.45-1.06-.94-2.1-1.46-3.23-.47.5-.87.92-1.26,1.35s-.67.79-1,1.17l-2.77,3-3.1,3.42-3,3.33c-1,1.14-2.06,2.29-3.1,3.41a3,3,0,0,1-.84.67c-2.2,1.05-4.41,2.08-6.61,3.11l-3.49,1.63-6.62,3.1-3.49,1.63c-.95.44-1.92.85-2.85,1.33a4.9,4.9,0,0,0-.91.76,43.11,43.11,0,0,1-6.1,4.44,11.93,11.93,0,0,1-4.38,1.77,13.44,13.44,0,0,1-2.68.07,10.31,10.31,0,0,1-4.61-1.56,19.22,19.22,0,0,1-2.56-1.82,33.84,33.84,0,0,1-2.73-2.49c-1.3-1.33-2.52-2.73-3.79-4.09-.85-.92-1.67-1.86-2.58-2.72a18.1,18.1,0,0,0-4.86-3.53,8.06,8.06,0,0,0-4-.77,10,10,0,0,0-4.94,2,31.86,31.86,0,0,0-4.51,4.14c-1.23,1.28-2.36,2.65-3.58,3.94-.93,1-1.94,1.91-2.92,2.85a17.31,17.31,0,0,1-3,2.29,10.77,10.77,0,0,1-4.21,1.64,14.1,14.1,0,0,1-2.85.15,8.2,8.2,0,0,1-3.57-1.25,15.59,15.59,0,0,1-3.29-2.64c-.88-.92-1.78-1.82-2.66-2.74s-1.63-1.79-2.49-2.63a12.13,12.13,0,0,0-3.61-2.57,5,5,0,0,0-4.37.18,18.8,18.8,0,0,0-4.36,2.86c-1.47,1.32-2.89,2.71-4.33,4.08-.17.16-.3.37-.47.54a1.3,1.3,0,0,1-1.84,0,1.19,1.19,0,0,1-.15-1.75c1.31-1.34,2.62-2.66,4-4a26.07,26.07,0,0,1,4.09-3.22,11.15,11.15,0,0,1,4.33-1.76,7.8,7.8,0,0,1,4.38.67,11.42,11.42,0,0,1,3.39,2.27c1.21,1.18,2.4,2.38,3.59,3.58,1,1,1.93,2.1,3,3.08a10.36,10.36,0,0,0,3.35,2.25,6.55,6.55,0,0,0,4.59,0,11.14,11.14,0,0,0,3.82-2.21c1-.9,2.08-1.82,3-2.81,1.27-1.31,2.43-2.73,3.69-4.05s2.52-2.52,3.81-3.74a15.16,15.16,0,0,1,4.1-2.75,10.94,10.94,0,0,1,3.22-.95,11.17,11.17,0,0,1,6.9,1.32,16.77,16.77,0,0,1,3.36,2.39c.7.65,1.44,1.26,2.1,2,1.33,1.39,2.62,2.82,3.93,4.23.81.88,1.6,1.78,2.46,2.61a20.26,20.26,0,0,0,3.89,3.09,10,10,0,0,0,3.9,1.36,6.59,6.59,0,0,0,3.33-.72,26.48,26.48,0,0,0,5.75-3.51c.82-.62,1.59-1.3,2.37-2a1.2,1.2,0,0,0,.29-.51c.64-1.81,1.26-3.62,1.9-5.44l3.17-9.06,2.16-6.13c.22-.62.4-1.24.67-1.84a3.72,3.72,0,0,1,.66-.93c.89-1,1.81-2,2.71-3l3.07-3.39,3-3.27,3-3.3q1.31-1.46,2.61-2.94a.43.43,0,0,0,.08-.33c-.45-2.28-.81-4.59-1.4-6.84s-1.31-4.24-2.07-6.32a37.38,37.38,0,0,0-1.82-4,39.07,39.07,0,0,0-4.19-6.54,36,36,0,0,0-3.63-4,35.39,35.39,0,0,0-6-4.53,32.72,32.72,0,0,0-7.81-3.44c-1.47-.42-3-.75-4.46-1-1.13-.21-2.29-.3-3.45-.41a22.26,22.26,0,0,0-2.78-.15c-1.53.05-3.06.19-4.59.31a26.33,26.33,0,0,0-5.36,1c-1.94.56-3.86,1.22-5.75,1.93a32.49,32.49,0,0,0-6.16,3.21,43.23,43.23,0,0,0-3.71,2.72,41.79,41.79,0,0,0-3.25,2.92,34.4,34.4,0,0,0-3.87,4.64,37,37,0,0,0-3.13,5.35,34.34,34.34,0,0,0-2.65,7.69c-.21,1-.37,2-.56,3a1,1,0,0,1-.09.23c-1.3-.5-2.57-1-3.87-1.47a18.42,18.42,0,0,0-4.78-1,29.21,29.21,0,0,0-4-.13,22.54,22.54,0,0,0-4.29.74,23.85,23.85,0,0,0-3.79,1.48,17.82,17.82,0,0,0-3.57,2.36,20.8,20.8,0,0,0-4.5,5.17,22.86,22.86,0,0,0-2.78,6.47c-.29,1.12-.51,2.27-.72,3.41a17.78,17.78,0,0,0-.17,1.93c0,.75-.08,1.51-.12,2.27-.95-.18-1.9-.37-2.86-.52s-1.89-.32-2.85-.39c-1.61-.12-3.23-.25-4.85-.23-1.35,0-2.7.23-4.05.38a21.43,21.43,0,0,0-4.83,1.16,23.34,23.34,0,0,0-6.83,3.74,21.17,21.17,0,0,0-5.51,6.64,21.54,21.54,0,0,0-2.11,6c-.14.72-.17,1.46-.26,2.19a.87.87,0,0,1-.08.2v3c.05.36.13.71.16,1.07a20,20,0,0,0,1.25,5.25,24.15,24.15,0,0,0,3,5.56,26.38,26.38,0,0,0,4,4.4,20,20,0,0,0,4.6,3.07,22,22,0,0,0,6.13,2q2.22.35,4.46.56c1.21.11,2.44.15,3.66.16,2.22,0,4.44,0,6.67,0q49.82,0,99.65-.1a37.81,37.81,0,0,0,4.17-.39,25.94,25.94,0,0,0,5.81-1.44A31.51,31.51,0,0,0,795,314.66a27.88,27.88,0,0,0,3.62-4.76c.64-1.07,1.24-2.16,1.78-3.28a28.81,28.81,0,0,0,2.33-7,26.11,26.11,0,0,0,.56-4.46c0-.05,0-.11.08-.16v-3.29A1.58,1.58,0,0,1,803.33,291.34Z"/><path class="cls-24" d="M779.45,273.3l-3,3.36-2.86,3.1c-.32.35-.6.74-.93,1.08a12,12,0,0,1-1.43,1.35,2.9,2.9,0,0,1-2.31.33c-.38,1.07-.74,2.13-1.12,3.19-.81,2.27-1.63,4.55-2.44,6.82a.51.51,0,0,0,.07.43c.26.28.56.53.85.78l3.82,3.42,1.65,1.48L781.6,294a3.06,3.06,0,0,1,.35-2.83c.32-.45.72-.85,1.08-1.26l2.67-3,3.5-3.9,2.67-3,3.9-4.3q.57-.63,1.12-1.29a.24.24,0,0,0,0-.23c-.32-.41-.66-.81-1-1.26-.44.5-.83,1-1.23,1.4l-3,3.33-2.29,2.53-3.07,3.39-2.86,3.1c-.33.36-.63.75-1,1.1a6.73,6.73,0,0,1-2.35,1.84,5.49,5.49,0,0,1-2.49.37,4.76,4.76,0,0,1-2.88-1.21,4.91,4.91,0,0,1-1.51-2.91,5.39,5.39,0,0,1,.39-3.21,7.81,7.81,0,0,1,1.49-2c1.29-1.46,2.61-2.89,3.92-4.33L781.2,274l3.84-4.24c.65-.72,1.32-1.42,2-2.14.34-.37.66-.76,1-1.19-.5-.27-.95-.53-1.4-.75a.38.38,0,0,0-.33.1c-.26.26-.5.54-.75.82l-3,3.36Z"/><path class="cls-25" d="M803.17,343.73A1.57,1.57,0,1,0,800,344q0,2.57,0,5.13v.41c-.88-.07-1.71-.12-2.53-.22a10.28,10.28,0,0,0-3.7.18,6.2,6.2,0,0,0-4.22,3.32,10.22,10.22,0,0,0-1.07,4.43,32.39,32.39,0,0,0,.12,5.54,8.9,8.9,0,0,0,1.82,4.61,6.05,6.05,0,0,0,3.52,2.15l1.17.24h2.25l1.23-.16c1.18-.18,2.36-.35,3.53-.57a1.15,1.15,0,0,0,1-1.28Q803.17,355.76,803.17,343.73ZM800,366.49c-.69.09-1.37.2-2.06.25a16.9,16.9,0,0,1-2.07.08,4.6,4.6,0,0,1-2.37-.6,3.68,3.68,0,0,1-1.5-2.41,16.29,16.29,0,0,1-.33-2.57,25.57,25.57,0,0,1-.08-2.91,11.88,11.88,0,0,1,.55-3.73,3.25,3.25,0,0,1,3-2.29,23.94,23.94,0,0,1,4.87.24Z"/><path class="cls-26" d="M652.46,356.84c-2-1.37-4-2.6-6-3.88a15.41,15.41,0,0,1-2.94-2.17,3.4,3.4,0,0,1-.89-3.23,2.52,2.52,0,0,1,1.85-1.82,10.2,10.2,0,0,1,3.54-.48l2.79.1c.93,0,1.86.13,2.78.13a1.21,1.21,0,0,0,1.19-1.07,1.4,1.4,0,0,0-.69-1.66,5.09,5.09,0,0,0-1.4-.31c-1.31-.13-2.63-.27-3.95-.31-.86,0-1.72.09-2.57.14a9.33,9.33,0,0,0-4,1.16,5.25,5.25,0,0,0-2.49,2.93,7.19,7.19,0,0,0-.25,2.47,5.28,5.28,0,0,0,.54,2.28,8.16,8.16,0,0,0,3,3.28c1.66,1.09,3.36,2.13,5,3.21a14.59,14.59,0,0,1,3.59,2.69,3.05,3.05,0,0,1,.56.93,4.9,4.9,0,0,1,0,2.69,3,3,0,0,1-1.36,1.94,5.67,5.67,0,0,1-3,.8c-1.3,0-2.61,0-3.91-.08a21.07,21.07,0,0,1-2.16-.23A1.6,1.6,0,0,0,640,367c-.4.68-.28,2.08.82,2.28s2.26.29,3.4.43l.48.08h3.13a.7.7,0,0,1,.2-.08,9.37,9.37,0,0,0,4-1,5.8,5.8,0,0,0,3.09-3.77,8.26,8.26,0,0,0,.17-4.09A6.68,6.68,0,0,0,652.46,356.84Z"/><path class="cls-27" d="M687.06,353.46a5.53,5.53,0,0,0-1.53-2.39,7.17,7.17,0,0,0-4.6-1.79,18,18,0,0,0-4.6.39V344a1.39,1.39,0,0,0-1.31-1.62,1.43,1.43,0,0,0-1.82,1.44q0,12.13,0,24.26a1.68,1.68,0,0,0,1.06,1.74h1a1.71,1.71,0,0,0,1.05-1.75c0-5,0-9.92,0-14.88,0-.37.09-.57.46-.61.73-.08,1.46-.18,2.19-.25a10.62,10.62,0,0,1,1.55-.07,5.15,5.15,0,0,1,2.27.54,3.15,3.15,0,0,1,1.46,2.15,5.89,5.89,0,0,1,.17,1.45q0,5.69,0,11.39a1.91,1.91,0,0,0,1.05,2h1a1.69,1.69,0,0,0,1.06-1.74c0-3.85,0-7.7,0-11.55A9.85,9.85,0,0,0,687.06,353.46Z"/><path class="cls-28" d="M768,355.2a7.49,7.49,0,0,0-1.94-3.83,6.91,6.91,0,0,0-4.82-2.09,12.86,12.86,0,0,0-2.73.16,6.43,6.43,0,0,0-4.45,2.81,9.33,9.33,0,0,0-1.51,5c-.06,1.23,0,2.46,0,3.69a11.24,11.24,0,0,0,.8,4.55,6.46,6.46,0,0,0,4.51,4c.52.14,1.06.22,1.59.33h1.93a1,1,0,0,1,.24-.08,7.09,7.09,0,0,0,2.89-.81,6.51,6.51,0,0,0,2.8-3,10.61,10.61,0,0,0,1-4.4c0-1.16,0-2.33,0-3.49A21.41,21.41,0,0,0,768,355.2Zm-3.51,9.33a3.58,3.58,0,0,1-3.21,2.23,6.85,6.85,0,0,1-2.62-.17,3.52,3.52,0,0,1-2.44-2.37,9.07,9.07,0,0,1-.56-3.2c0-.49,0-1,0-1.48,0-.65,0-1.31,0-2a7.5,7.5,0,0,1,1.09-3.77,3.54,3.54,0,0,1,2.53-1.49,7.18,7.18,0,0,1,2.6.07,3.44,3.44,0,0,1,2.58,2.09,7.44,7.44,0,0,1,.66,2.93c0,1.26.1,2.53.06,3.79A8.69,8.69,0,0,1,764.5,364.53Z"/><path class="cls-29" d="M731.45,348a5,5,0,0,1,4.35-2.76c1.42-.1,2.85,0,4.27.06l.16,0c.8.07,1.6.16,2.4.21a1.17,1.17,0,0,0,.56-.15,1.35,1.35,0,0,0,.69-1.51,1.33,1.33,0,0,0-1-1.29,6.83,6.83,0,0,0-1.2-.17c-1.38-.11-2.76-.28-4.15-.3a20,20,0,0,0-3.28.24,7.32,7.32,0,0,0-3.81,1.81,9.48,9.48,0,0,0-2.55,4,15.53,15.53,0,0,0-.78,5c0,2,0,4.08.07,6.12a21,21,0,0,0,.24,2.6,10.31,10.31,0,0,0,1.82,4.5,7.57,7.57,0,0,0,4.61,3.09c.53.12,1.06.22,1.59.32h3.21s.05-.07.08-.07c1.13-.09,2.27-.19,3.4-.25a1.62,1.62,0,0,0,1.73-1.91,1.37,1.37,0,0,0-1.39-1.22c-.84.09-1.68.16-2.52.23-.25,0-.51,0-.76,0-1.33,0-2.66.09-4,0a4.87,4.87,0,0,1-4-3.06,9,9,0,0,1-.89-3.88c0-2.59,0-5.18.07-7.76A8.57,8.57,0,0,1,731.45,348Z"/><path class="cls-30" d="M783.58,349.52a1.55,1.55,0,0,0-1,1.49q0,7.12,0,14.24c0,.24,0,.44-.28.54-.72.23-1.43.49-2.16.71a7.81,7.81,0,0,1-2.91.25,3.48,3.48,0,0,1-1.34-.39,3.44,3.44,0,0,1-1.73-3.24c0-4,0-7.91,0-11.87a2.52,2.52,0,0,0-.15-.88,1.51,1.51,0,0,0-1.78-.92A1.6,1.6,0,0,0,771,351c0,3.57,0,7.14,0,10.71a12.06,12.06,0,0,0,.41,3.56,6.13,6.13,0,0,0,2.26,3.28,6.31,6.31,0,0,0,3.8,1.21,1.12,1.12,0,0,1,.28.08h.32l.4-.08c.7-.1,1.41-.15,2.1-.3s1.47-.42,2.2-.64a1.72,1.72,0,0,0,2.28.61,1.59,1.59,0,0,0,.78-1.6q0-8.26,0-16.52a1.91,1.91,0,0,0-.42-1.35A1.71,1.71,0,0,0,783.58,349.52Z"/><path class="cls-31" d="M705.19,350.19a1.58,1.58,0,0,0-2.95.85c0,4.65,0,9.31,0,14,0,.47-.09.72-.58.89a11,11,0,0,1-4.73.86,3.49,3.49,0,0,1-1.21-.3,3.46,3.46,0,0,1-1.9-3.33c0-3.88,0-7.75,0-11.63a5.6,5.6,0,0,0-.08-.82,1.58,1.58,0,0,0-3.13.43c0,2.18,0,4.36,0,6.54,0,1.91,0,3.82.1,5.72a8.87,8.87,0,0,0,.48,2.33,5.68,5.68,0,0,0,2.34,3,6.46,6.46,0,0,0,3.42,1,2.52,2.52,0,0,1,.4.08h.32l.4-.08c.7-.1,1.41-.16,2.1-.3s1.32-.39,2-.58a.41.41,0,0,1,.35.09,1.66,1.66,0,0,0,1.9.59,1.59,1.59,0,0,0,1-1.72q0-8.3,0-16.61A2.19,2.19,0,0,0,705.19,350.19Z"/><path class="cls-32" d="M664.71,352.25a18.93,18.93,0,0,1,2.63.07c.31,0,.62.1.93.13a7.59,7.59,0,0,0,1.62.06c.61-.09,1.07-.66,1-1.65a1.46,1.46,0,0,0-1.26-1.27c-1.13-.12-2.25-.28-3.38-.31a13.26,13.26,0,0,0-2.89.17,6.46,6.46,0,0,0-4.73,3.68,10.63,10.63,0,0,0-1,4.49,27.07,27.07,0,0,0,.21,5.53,8.31,8.31,0,0,0,2.66,5.1,5.5,5.5,0,0,0,2.37,1.25l1.47.32h2a.52.52,0,0,1,.16-.08c1-.08,2-.15,3-.25a1.39,1.39,0,0,0,1.39-1.16,1.38,1.38,0,0,0-1.41-1.8c-.8.09-1.6.2-2.4.23s-1.74,0-2.61,0a3.19,3.19,0,0,1-2.62-1.46,6.47,6.47,0,0,1-1-3.58c-.06-1.31,0-2.62,0-3.93a11.09,11.09,0,0,1,.24-2.19C661.58,353.24,662.69,352.44,664.71,352.25Z"/><path class="cls-33" d="M748.2,342.36a1.43,1.43,0,0,0-1.84,1.46q0,12.11,0,24.23a1.72,1.72,0,0,0,1.05,1.75h1a1.69,1.69,0,0,0,1.06-1.74q0-12.05,0-24.11C749.5,343,749.18,342.54,748.2,342.36Z"/><path class="cls-34" d="M709.75,342.48a1.38,1.38,0,0,0-.76,1.4q0,12.09,0,24.19A1.68,1.68,0,0,0,710,369.8h1a1.55,1.55,0,0,0,1-1.43q0-12.33,0-24.67a1.34,1.34,0,0,0-.55-1.08A1.73,1.73,0,0,0,709.75,342.48Z"/><path class="cls-35" d="M723.32,357.61q-3.35,0-6.69,0a1.52,1.52,0,0,0-1.33.61,1.66,1.66,0,0,0-.14,1.75,1.44,1.44,0,0,0,1.45.76h3.33c1.19,0,2.38,0,3.57,0a1.87,1.87,0,0,0,1-.39,1.59,1.59,0,0,0-1.17-2.71Z"/></g><g id="Kid_3" data-name="Kid 3"><path class="cls-36" d="M987.26,641.31h224.62a5.85,5.85,0,0,1,5.85,5.85V794.42H987.54c-1,0-6.12-4.94-6.12-5.91V647.16A5.85,5.85,0,0,1,987.26,641.31Z"/><rect class="cls-37" x="981.12" y="782.37" width="271.66" height="7.64"/><path class="cls-38" d="M981.12,790h271.66a4.41,4.41,0,0,1-4.41,4.41H985.53a4.41,4.41,0,0,1-4.41-4.41Z"/><path class="cls-38" d="M1167.69,782.37a4.4,4.4,0,0,1-4.35,3.82h-35.87a4.39,4.39,0,0,1-4.35-3.82Z"/><rect class="cls-6" x="990.64" y="649.34" width="217.86" height="125.69"/><rect class="cls-12" x="1011.15" y="658.01" width="163.84" height="113.49" rx="11.4" ry="11.4"/><rect class="cls-6" x="1013.44" y="660.38" width="157.47" height="104.91" rx="10.7" ry="10.7"/><path class="cls-13" d="M1170.91,674.34v-3.25a10.7,10.7,0,0,0-10.7-10.7H1024.14a10.7,10.7,0,0,0-10.7,10.7v3.25Z"/><polygon class="cls-14" points="1170.97 678.66 1013.4 678.42 1013.4 670.42 1170.97 670.66 1170.97 678.66"/><g class="cls-15"><circle class="cls-22" cx="1096.15" cy="722.39" r="26.03"/><circle class="cls-39" cx="1096.15" cy="722.39" r="23.44"/><path class="cls-16" d="M1096.06,745.83V699a23.44,23.44,0,0,0,0,46.87Z"/><rect class="cls-22" x="1095" y="697.48" width="2.32" height="49.35" transform="translate(2192.31 1444.31) rotate(-180)"/><rect class="cls-22" x="1094.81" y="697.72" width="2.32" height="49.35" transform="translate(373.57 1818.36) rotate(-90)"/><path class="cls-22" d="M1095.89,698c4.06,0,7.83,2.66,10.62,7.5a38.16,38.16,0,0,1,0,34.56c-2.78,4.84-6.55,7.5-10.62,7.5s-7.83-2.66-10.62-7.5a38.16,38.16,0,0,1,0-34.56C1088.06,700.65,1091.83,698,1095.89,698Zm0,47.24c3.2,0,6.26-2.25,8.61-6.34a35.87,35.87,0,0,0,0-32.25c-2.35-4.09-5.41-6.34-8.61-6.34s-6.26,2.25-8.61,6.34a35.87,35.87,0,0,0,0,32.25C1089.64,743,1092.69,745.22,1095.89,745.22Z"/><rect class="cls-22" x="1074.78" y="734.83" width="42.49" height="2.32"/><rect class="cls-22" x="1074.78" y="707.42" width="42.49" height="2.32"/></g><rect class="cls-17" x="1020.48" y="696.23" width="31.35" height="60.6"/><rect class="cls-18" x="1069.91" y="687.87" width="19.75" height="5" rx="2.5" ry="2.5"/><rect class="cls-6" x="1024.78" y="703.09" width="19.75" height="5" rx="2.5" ry="2.5"/><rect class="cls-6" x="1024.78" y="713.5" width="19.75" height="5" rx="2.5" ry="2.5"/><rect class="cls-6" x="1024.78" y="723.91" width="19.75" height="5" rx="2.5" ry="2.5"/><rect class="cls-6" x="1024.78" y="734.33" width="19.75" height="5" rx="2.5" ry="2.5"/><rect class="cls-6" x="1024.78" y="744.74" width="19.75" height="5" rx="2.5" ry="2.5"/><path class="cls-18" d="M1062.11,685.44a5.83,5.83,0,1,0,5.83,5.83A5.83,5.83,0,0,0,1062.11,685.44Zm0,10a4.18,4.18,0,1,1,4.18-4.18A4.18,4.18,0,0,1,1062.11,695.46Z"/><rect class="cls-18" x="1061.02" y="689.22" width="2.17" height="4.46" rx="1.09" ry="1.09"/><rect class="cls-18" x="1069.91" y="750.84" width="19.75" height="5" rx="2.5" ry="2.5"/><path class="cls-18" d="M1062.11,748.42a5.83,5.83,0,1,0,5.83,5.83A5.83,5.83,0,0,0,1062.11,748.42Zm0,10a4.18,4.18,0,1,1,4.18-4.18A4.18,4.18,0,0,1,1062.11,758.43Z"/><rect class="cls-18" x="1061.02" y="752.2" width="2.17" height="4.46" rx="1.09" ry="1.09"/><rect class="cls-18" x="1134.89" y="688.28" width="28.14" height="5" rx="2.5" ry="2.5"/><rect class="cls-18" x="1134.89" y="695.87" width="20.81" height="5" rx="2.5" ry="2.5"/><path class="cls-18" d="M1127.09,685.86a5.83,5.83,0,1,0,5.83,5.83A5.83,5.83,0,0,0,1127.09,685.86Zm0,10a4.18,4.18,0,1,1,4.18-4.18A4.18,4.18,0,0,1,1127.09,695.87Z"/><rect class="cls-18" x="1126" y="689.64" width="2.17" height="4.46" rx="1.09" ry="1.09"/><rect class="cls-17" x="1128.12" y="718.6" width="39.33" height="39.75"/><rect class="cls-19" x="1133.96" y="737.5" width="6.77" height="13.19"/><rect class="cls-20" x="1144.27" y="722.98" width="6.77" height="27.71"/><rect class="cls-21" x="1154.59" y="732.95" width="6.77" height="17.74"/><rect class="cls-22" x="1129.61" y="752.78" width="36.41" height="2.42"/><rect class="cls-13" x="1020.57" y="685.86" width="31.25" height="10.95"/><path class="cls-6" d="M1024.8,693v-.2h0s0-.09,0-.14a1.38,1.38,0,0,1,.14-.39,1.36,1.36,0,0,1,.35-.43,1.5,1.5,0,0,1,.44-.24,1.38,1.38,0,0,1,.31-.07l.26,0h.31l.18,0,.18,0s0-.1,0-.15a1.14,1.14,0,0,1,0-.12c0-.07,0-.15,0-.22a1.47,1.47,0,0,1,.18-.42,1.34,1.34,0,0,1,.29-.33,1.15,1.15,0,0,1,.23-.15l.24-.1.28,0h.26a1.18,1.18,0,0,1,.31.07l.25.09h0l0-.19a2.2,2.2,0,0,1,.17-.49,2.37,2.37,0,0,1,.2-.34,2.21,2.21,0,0,1,.25-.3l.21-.19.24-.17a2.09,2.09,0,0,1,.4-.21l.37-.12a1.69,1.69,0,0,1,.34-.06l.29,0h.18l.22,0,.29.07a2.1,2.1,0,0,1,.5.22,2.27,2.27,0,0,1,.38.29,2.31,2.31,0,0,1,.23.26,2.51,2.51,0,0,1,.27.42,2.4,2.4,0,0,1,.12.26c0,.13.1.27.13.41s.06.29.09.44a0,0,0,0,1,0,0l-.17.19-.19.21-.19.21-.2.22-.17.19,0,.06,0,.12-.14.39-.2.58-.12.35,0,0-.15.13a1.7,1.7,0,0,1-.37.23.42.42,0,0,1-.21,0,.64.64,0,0,1-.25-.09,1.3,1.3,0,0,1-.25-.2l-.16-.17-.25-.27-.13-.13a1.08,1.08,0,0,0-.22-.15.72.72,0,0,0-.44-.09.7.7,0,0,0-.21.06,1,1,0,0,0-.26.18l-.24.24-.24.26-.2.18a.72.72,0,0,1-.25.14.42.42,0,0,1-.29,0,.67.67,0,0,1-.21-.14l-.19-.2-.23-.23a.73.73,0,0,0-.22-.15.5.5,0,0,0-.28,0,.72.72,0,0,0-.28.11,1.68,1.68,0,0,0-.26.21l-.25.25a.08.08,0,0,0,0,.11.08.08,0,0,0,.12,0l0,0,.28-.26a1.21,1.21,0,0,1,.28-.18.32.32,0,0,1,.28,0,.78.78,0,0,1,.23.17l.16.17.17.18a1,1,0,0,0,.21.17.53.53,0,0,0,.23.08h.18a.69.69,0,0,0,.27-.11,1.11,1.11,0,0,0,.19-.15l.19-.18.23-.25a2,2,0,0,1,.29-.27.64.64,0,0,1,.32-.13.52.52,0,0,1,.26,0,1.16,1.16,0,0,1,.31.23l.17.17.24.26.18.16.16.12a.66.66,0,0,0,.3.1h.17a.77.77,0,0,0,.28-.11,2.77,2.77,0,0,0,.39-.29l.06,0,.18-.09.22-.1.43-.2.22-.1.42-.2.05,0,.2-.22.19-.21.2-.22.18-.19.07-.07.08-.09.09.21a1.8,1.8,0,0,1,.11.34,1.63,1.63,0,0,1,0,.29v.23h0a1.68,1.68,0,0,1,0,.29,1.85,1.85,0,0,1-.15.45l-.11.21a1.79,1.79,0,0,1-.23.31,2,2,0,0,1-.8.53,1.66,1.66,0,0,1-.37.09l-.27,0h-7.06l-.29,0a1.41,1.41,0,0,1-.39-.13,1.28,1.28,0,0,1-.3-.2,1.69,1.69,0,0,1-.26-.28,1.55,1.55,0,0,1-.19-.36,1.28,1.28,0,0,1-.08-.34Z"/><path class="cls-6" d="M1034,692.38l-.56.26-.09-.08-.22-.19,0,0a0,0,0,0,1,0,0l.14-.39.06-.18a.16.16,0,0,0,.13,0l.08-.08.05-.06.16-.18.17-.19.17-.19.17-.19,0,0h0l.08,0-.06.07-.11.12-.22.24-.12.14-.22.25a.44.44,0,0,0-.08.11.31.31,0,0,0,0,.18.28.28,0,0,0,.09.16.27.27,0,0,0,.16.07.31.31,0,0,0,.14,0,.38.38,0,0,0,.13-.1l.05-.06.16-.18.17-.19.13-.14.17-.19.07-.08.06.07h0l-.06.07-.22.24-.15.17-.2.22-.15.17-.06.07A.17.17,0,0,0,1034,692.38Z"/><polygon class="cls-40" points="995.16 652.56 995.16 771.98 1202.83 652.56 995.16 652.56"/><rect class="cls-4" x="868.8" y="816.28" width="18.29" height="236.31" transform="translate(1755.89 1868.87) rotate(180)"/><rect class="cls-4" x="1032.12" y="816.28" width="18.29" height="236.31" transform="translate(2082.52 1868.87) rotate(180)"/><path class="cls-41" d="M868.12,794.44h401.2a0,0,0,0,1,0,0v.77a26.37,26.37,0,0,1-26.37,26.37H894.49a26.37,26.37,0,0,1-26.37-26.37v-.77A0,0,0,0,1,868.12,794.44Z" transform="translate(2137.44 1616.02) rotate(180)"/><path class="cls-42" d="M868.51,794.44h184.11a0,0,0,0,1,0,0v.77a26.37,26.37,0,0,1-26.37,26.37H894.88a26.76,26.76,0,0,1-26.76-26.76v0A.38.38,0,0,1,868.51,794.44Z" transform="translate(1920.74 1616.02) rotate(180)"/><path class="cls-43" d="M890.49,951c20.79-9.93,50.61,10,66.6,44.5s12.12,70.54-8.67,80.47-50.61-10-66.6-44.5S869.7,961,890.49,951Zm6.28,72.47c12,25.87,32.94,41.49,46.79,34.87s15.35-33,3.35-58.83S914,958,900.12,964.66,884.77,997.62,896.77,1023.49Z"/><path class="cls-44" d="M837.23,1085.61l78.06,1a13.62,13.62,0,0,0,13.59-13.89l-.44-93.51c-.14-29.4-23.62-53.74-52.17-54.09l-1.52,0c-28.56-.35-51.81,23.41-51.67,52.81l.44,93.51A14.19,14.19,0,0,0,837.23,1085.61Z"/><path class="cls-43" d="M876.74,1070.7l35.4.44a7.43,7.43,0,0,0,7.41-7.58l-.3-64.52c-.06-13.39-10.76-24.48-23.77-24.64l-3,0c-13-.16-23.6,10.66-23.54,24.06l.3,64.52A7.74,7.74,0,0,0,876.74,1070.7Z"/><path class="cls-44" d="M881.27,996.71l29.65.87a2.87,2.87,0,0,0,2.92-2.88h0a3,3,0,0,0-2.85-3.05l-29.65-.87a2.87,2.87,0,0,0-2.92,2.88h0A3,3,0,0,0,881.27,996.71Z"/><path class="cls-43" d="M839.41,1026h.31a10.84,10.84,0,0,0,11-10.88l.39-34.19a11.32,11.32,0,0,0-10.75-11.52H840a10.84,10.84,0,0,0-11,10.88l-.39,34.19A11.32,11.32,0,0,0,839.41,1026Z"/><path class="cls-45" d="M1245.15,678.84s-22.44-23.24-23.63-34l-4.91-42.23,38.75-4.76,4.91,42.23C1261.46,650.84,1245.15,678.84,1245.15,678.84Z"/><path class="cls-46" d="M1191,1045.6c-11.84-22.31-106.78-157.81,56-157.09"/><polygon class="cls-47" points="1211.56 1027.85 1232.31 1054.02 1183.48 1084.44 1165.85 1054.36 1211.56 1027.85"/><path class="cls-48" d="M1114.81,1043.63c-9.27-23.49-87.42-161.94,72.59-152.13"/><polygon class="cls-47" points="1137.22 1028.29 1154.92 1056.61 1103.01 1081.38 1088.85 1049.53 1137.22 1028.29"/><path class="cls-49" d="M1196.92,919.41h70.41a39.14,39.14,0,0,0,38.73-35.53l1.56-15.7h-151l1.57,15.74A39.14,39.14,0,0,0,1196.92,919.41Z"/><path class="cls-50" d="M1307.67,882.14l-2.35-182.91c-.62-47.62-10.09-51.35-36.17-55.43-40.72-6.37-73.33,3.92-73.33,3.92-47.28,78.28,48.06,109.29-12.4,217.8Z"/><path class="cls-51" d="M1304.24,672.21l1.07,23.42-109.51-46.69h0a7.4,7.4,0,0,1,7.4-7.4h64.19C1287.27,642,1304.24,651.61,1304.24,672.21Z"/><rect class="cls-52" x="1041.52" y="737.98" width="55.98" height="16.19" rx="8.09" ry="8.09" transform="translate(2354.29 969.32) rotate(154.96)"/><rect class="cls-52" x="1054.19" y="748.98" width="55.98" height="16.19" rx="8.09" ry="8.09" transform="translate(2390.57 937.06) rotate(152.86)"/><circle class="cls-52" cx="1097.25" cy="751.42" r="24.37"/><path class="cls-53" d="M1224.84,675.76c1.29,21.8,12.46,119.5-90.72,88.63"/><polygon class="cls-54" points="1096.72 777.8 1112.76 731.78 1138.85 740.57 1123.16 787.02 1096.72 777.8"/><path class="cls-55" d="M1193.73,594.37l-7.49-57.82a46.47,46.47,0,0,1,40-51.91l1.1-.14a46.47,46.47,0,0,1,51.91,40l7.49,57.82c2.92,22.5-67.32,31.51-67.32,31.51C1201.45,612.75,1195.17,605.54,1193.73,594.37Z"/><path class="cls-56" d="M1184.78,495.23C1158,563.77,1229.27,548,1229.27,548l-4.54-31.13c10.34,20.64,27.43,31.25,57.11,35.1-3.1-35.76,2.2-54.48-6.42-65.57C1238.51,444.31,1191.76,476.18,1184.78,495.23Z"/><path class="cls-57" d="M1222,651.27l-15.11-112.36c-4.32-33.35,11.24-63.11,34.59-66.14l1.49-.19c23.35-3,46,21.78,50.31,55.13l13.11,105.81Z"/><rect class="cls-58" x="1211.02" y="557.27" width="13.18" height="35.29" rx="6.59" ry="6.59" transform="translate(-53 129.2) rotate(-5.94)"/><rect class="cls-4" x="1303.91" y="824.1" width="13.58" height="108.68" transform="translate(2621.4 1756.88) rotate(180)"/><rect class="cls-4" x="1303.91" y="938.72" width="13.58" height="138.68" transform="translate(2621.4 2016.11) rotate(180)"/><rect class="cls-4" x="1241.22" y="824.1" width="13.58" height="108.68" transform="translate(2496.02 1756.88) rotate(180)"/><rect class="cls-4" x="1241.22" y="938.78" width="13.58" height="138.68" transform="translate(2496.02 2016.24) rotate(180)"/><rect class="cls-4" x="1166.22" y="938.78" width="13.58" height="138.68" transform="translate(2346.02 2016.24) rotate(180)"/><rect class="cls-4" x="1191.63" y="725.49" width="153.82" height="115.64" rx="18.76" ry="18.76" transform="translate(2537.09 1566.61) rotate(180)"/><rect class="cls-7" x="1203.06" y="725.49" width="142.4" height="115.64" rx="18.05" ry="18.05" transform="translate(2548.51 1566.61) rotate(180)"/><rect class="cls-4" x="1144.59" y="915.07" width="176.29" height="31.67" rx="15.83" ry="15.83" transform="translate(2465.47 1861.81) rotate(-180)"/><path class="cls-7" d="M1144.61,930.13a15.88,15.88,0,0,1,15.81-15.06H1305a15.88,15.88,0,0,1,15.81,15.06Z"/></g><g id="Kid_2" data-name="Kid 2"><path class="cls-59" d="M422.86,641.93H198.24a5.86,5.86,0,0,0-5.85,5.85V795.05H428.72V647.79A5.86,5.86,0,0,0,422.86,641.93Z"/><rect class="cls-60" x="157.35" y="783" width="271.66" height="7.64"/><path class="cls-38" d="M429,790.64H157.35a4.41,4.41,0,0,0,4.41,4.41H424.6a4.41,4.41,0,0,0,4.41-4.41Z"/><path class="cls-38" d="M242.44,783a4.4,4.4,0,0,0,4.35,3.82h35.87A4.39,4.39,0,0,0,287,783Z"/><rect class="cls-6" x="201.62" y="649.96" width="217.86" height="125.69"/><rect class="cls-12" x="228.61" y="658.63" width="163.84" height="113.49" rx="11.4" ry="11.4"/><rect class="cls-6" x="230.89" y="661.01" width="157.47" height="104.91" rx="10.7" ry="10.7"/><path class="cls-13" d="M388.36,675v-3.25a10.7,10.7,0,0,0-10.7-10.7H241.6a10.7,10.7,0,0,0-10.7,10.7V675Z"/><polygon class="cls-14" points="388.43 679.28 230.86 679.05 230.86 671.05 388.43 671.29 388.43 679.28"/><g class="cls-15"><circle class="cls-22" cx="313.61" cy="723.02" r="26.03"/><circle class="cls-39" cx="313.61" cy="723.02" r="23.44"/><path class="cls-16" d="M313.52,746.46V699.58a23.44,23.44,0,0,0,0,46.87Z"/><rect class="cls-22" x="312.45" y="698.11" width="2.32" height="49.35" transform="translate(627.22 1445.57) rotate(-180)"/><rect class="cls-22" x="312.26" y="698.34" width="2.32" height="49.35" transform="translate(-409.6 1036.44) rotate(-90)"/><path class="cls-22" d="M313.35,698.61c4.06,0,7.83,2.66,10.62,7.5a38.16,38.16,0,0,1,0,34.56c-2.78,4.84-6.55,7.5-10.62,7.5s-7.83-2.66-10.62-7.5a38.16,38.16,0,0,1,0-34.56C305.51,701.27,309.28,698.61,313.35,698.61Zm0,47.24c3.2,0,6.26-2.25,8.61-6.34a35.87,35.87,0,0,0,0-32.25c-2.35-4.09-5.41-6.34-8.61-6.34s-6.26,2.25-8.61,6.34a35.87,35.87,0,0,0,0,32.25C307.09,743.6,310.15,745.85,313.35,745.85Z"/><rect class="cls-22" x="292.23" y="735.46" width="42.49" height="2.32"/><rect class="cls-22" x="292.23" y="708.05" width="42.49" height="2.32"/></g><rect class="cls-17" x="237.94" y="696.85" width="31.35" height="60.6"/><rect class="cls-18" x="287.37" y="688.49" width="19.75" height="5" rx="2.5" ry="2.5"/><rect class="cls-6" x="242.24" y="703.71" width="19.75" height="5" rx="2.5" ry="2.5"/><rect class="cls-6" x="242.24" y="714.13" width="19.75" height="5" rx="2.5" ry="2.5"/><rect class="cls-6" x="242.24" y="724.54" width="19.75" height="5" rx="2.5" ry="2.5"/><rect class="cls-6" x="242.24" y="734.95" width="19.75" height="5" rx="2.5" ry="2.5"/><rect class="cls-6" x="242.24" y="745.37" width="19.75" height="5" rx="2.5" ry="2.5"/><path class="cls-18" d="M279.57,686.07a5.83,5.83,0,1,0,5.83,5.83A5.83,5.83,0,0,0,279.57,686.07Zm0,10a4.18,4.18,0,1,1,4.18-4.18A4.18,4.18,0,0,1,279.57,696.08Z"/><rect class="cls-18" x="278.47" y="689.85" width="2.17" height="4.46" rx="1.09" ry="1.09"/><rect class="cls-18" x="287.37" y="751.47" width="19.75" height="5" rx="2.5" ry="2.5"/><path class="cls-18" d="M279.57,749a5.83,5.83,0,1,0,5.83,5.83A5.83,5.83,0,0,0,279.57,749Zm0,10a4.18,4.18,0,1,1,4.18-4.18A4.18,4.18,0,0,1,279.57,759.06Z"/><rect class="cls-18" x="278.47" y="752.83" width="2.17" height="4.46" rx="1.09" ry="1.09"/><rect class="cls-18" x="352.35" y="688.91" width="28.14" height="5" rx="2.5" ry="2.5"/><rect class="cls-18" x="352.35" y="696.5" width="20.81" height="5" rx="2.5" ry="2.5"/><path class="cls-18" d="M344.55,686.48a5.83,5.83,0,1,0,5.83,5.83A5.83,5.83,0,0,0,344.55,686.48Zm0,10a4.18,4.18,0,1,1,4.18-4.18A4.18,4.18,0,0,1,344.55,696.5Z"/><rect class="cls-18" x="343.45" y="690.26" width="2.17" height="4.46" rx="1.09" ry="1.09"/><rect class="cls-17" x="345.57" y="719.22" width="39.33" height="39.75"/><rect class="cls-19" x="351.42" y="738.12" width="6.77" height="13.19"/><rect class="cls-20" x="361.73" y="723.6" width="6.77" height="27.71"/><rect class="cls-21" x="372.04" y="733.58" width="6.77" height="17.74"/><rect class="cls-22" x="347.07" y="753.41" width="36.41" height="2.42"/><rect class="cls-13" x="238.02" y="686.49" width="31.25" height="10.95"/><path class="cls-6" d="M242.25,693.67v-.2h0s0-.09,0-.14a1.38,1.38,0,0,1,.14-.39,1.36,1.36,0,0,1,.35-.43,1.5,1.5,0,0,1,.44-.24,1.38,1.38,0,0,1,.31-.07l.26,0h.31l.18,0,.18,0s0-.1,0-.15a1.14,1.14,0,0,1,0-.12c0-.07,0-.15,0-.22a1.47,1.47,0,0,1,.18-.42A1.34,1.34,0,0,1,245,691a1.15,1.15,0,0,1,.23-.15l.24-.1.28,0H246a1.18,1.18,0,0,1,.31.07l.25.09h0l0-.19a2.2,2.2,0,0,1,.17-.49,2.37,2.37,0,0,1,.2-.34,2.21,2.21,0,0,1,.25-.3l.21-.19.24-.17a2.09,2.09,0,0,1,.4-.21l.37-.12a1.69,1.69,0,0,1,.34-.06l.29,0h.18l.22,0,.29.07a2.1,2.1,0,0,1,.5.22,2.27,2.27,0,0,1,.38.29,2.31,2.31,0,0,1,.23.26,2.51,2.51,0,0,1,.27.42,2.4,2.4,0,0,1,.12.26c0,.13.1.27.13.41s.06.29.09.44a0,0,0,0,1,0,0l-.17.19-.19.21-.19.21-.2.22-.17.19,0,.06,0,.12-.14.39-.2.58-.12.35,0,0-.15.13a1.7,1.7,0,0,1-.37.23.42.42,0,0,1-.21,0A.64.64,0,0,1,249,694a1.3,1.3,0,0,1-.25-.2l-.16-.17-.25-.27-.13-.13a1.08,1.08,0,0,0-.22-.15.72.72,0,0,0-.44-.09.7.7,0,0,0-.21.06,1,1,0,0,0-.26.18l-.24.24-.24.26-.2.18a.72.72,0,0,1-.25.14.42.42,0,0,1-.29,0,.67.67,0,0,1-.21-.14l-.19-.2-.23-.23a.73.73,0,0,0-.22-.15.5.5,0,0,0-.28,0,.72.72,0,0,0-.28.11,1.68,1.68,0,0,0-.26.21l-.25.25a.08.08,0,0,0,0,.11.08.08,0,0,0,.12,0l0,0,.28-.26a1.21,1.21,0,0,1,.28-.18.32.32,0,0,1,.28,0,.78.78,0,0,1,.23.17l.16.17.17.18a1,1,0,0,0,.21.17.53.53,0,0,0,.23.08h.18a.69.69,0,0,0,.27-.11,1.11,1.11,0,0,0,.19-.15l.19-.18.23-.25a2,2,0,0,1,.29-.27.64.64,0,0,1,.32-.13.52.52,0,0,1,.26,0,1.16,1.16,0,0,1,.31.23l.17.17.24.26.18.16.16.12a.66.66,0,0,0,.3.1h.17a.77.77,0,0,0,.28-.11,2.77,2.77,0,0,0,.39-.29l.06,0,.18-.09.22-.1.43-.2.22-.1.42-.2.05,0,.2-.22.19-.21.2-.22.18-.19.07-.07.08-.09.09.21a1.8,1.8,0,0,1,.11.34,1.63,1.63,0,0,1,0,.29v.23h0a1.68,1.68,0,0,1,0,.29,1.85,1.85,0,0,1-.15.45l-.11.21a1.79,1.79,0,0,1-.23.31,2,2,0,0,1-.8.53,1.66,1.66,0,0,1-.37.09l-.27,0h-7.06l-.29,0a1.41,1.41,0,0,1-.39-.13,1.28,1.28,0,0,1-.3-.2,1.69,1.69,0,0,1-.26-.28,1.55,1.55,0,0,1-.19-.36,1.28,1.28,0,0,1-.08-.34Z"/><path class="cls-6" d="M251.42,693l-.56.26-.09-.08-.22-.19,0,0a0,0,0,0,1,0,0l.14-.39.06-.18a.16.16,0,0,0,.13,0l.08-.08.05-.06.16-.18.17-.19.17-.19.17-.19,0,0h0l.08,0-.06.07-.11.12-.22.24-.12.14-.22.25a.44.44,0,0,0-.08.11.31.31,0,0,0,0,.18.28.28,0,0,0,.09.16.27.27,0,0,0,.16.07.31.31,0,0,0,.14,0,.38.38,0,0,0,.13-.1l.05-.06.16-.18.17-.19.13-.14.17-.19.07-.08.06.07h0l-.06.07-.22.24-.15.17-.2.22-.15.17-.06.07A.17.17,0,0,0,251.42,693Z"/><polygon class="cls-40" points="206.68 653.96 206.68 773.38 414.35 653.96 206.68 653.96"/><rect class="cls-4" x="457.77" y="816.28" width="18.29" height="236.31"/><rect class="cls-4" x="294.45" y="816.28" width="18.29" height="236.31"/><path class="cls-4" d="M101.91,794.44H450.36a26.37,26.37,0,0,1,26.37,26.37v.77a0,0,0,0,1,0,0H75.54a0,0,0,0,1,0,0v-.77a26.37,26.37,0,0,1,26.37-26.37Z"/><path class="cls-7" d="M319,794.44H450.36a26.37,26.37,0,0,1,26.37,26.37v.77a0,0,0,0,1,0,0H292.62a.38.38,0,0,1-.38-.38v0A26.76,26.76,0,0,1,319,794.44Z"/><path class="cls-61" d="M439,957.72c-19.69-9.7-48.33,8.94-64,41.63s-12.36,67.06,7.33,76.76,48.33-8.94,64-41.63S458.73,967.42,439,957.72Zm-6.82,69c-11.73,24.51-31.86,39.14-45,32.68s-14.24-31.57-2.52-56.09,31.86-39.14,45-32.68S443.94,1002.18,432.22,1026.69Z"/><path class="cls-62" d="M488.22,1086.56l-74.38,0a13,13,0,0,1-12.78-13.39l1.5-89.09c.47-28,23.12-50.92,50.33-50.93h1.45c27.21,0,49.09,22.9,48.62,50.91l-1.5,89.09A13.52,13.52,0,0,1,488.22,1086.56Z"/><path class="cls-61" d="M450.75,1071.9H417a7.08,7.08,0,0,1-7-7.3l1-61.47c.21-12.76,10.53-23.2,22.93-23.2h2.85c12.4,0,22.36,10.43,22.15,23.19l-1,61.47A7.38,7.38,0,0,1,450.75,1071.9Z"/><path class="cls-62" d="M447.29,1001.35l-28.26.49a2.74,2.74,0,0,1-2.75-2.78h0a2.86,2.86,0,0,1,2.75-2.88l28.26-.49a2.74,2.74,0,0,1,2.75,2.78h0A2.86,2.86,0,0,1,447.29,1001.35Z"/><path class="cls-61" d="M486.84,1029.7h-.3a10.33,10.33,0,0,1-10.36-10.49l0-32.58a10.79,10.79,0,0,1,10.38-10.85h.3a10.33,10.33,0,0,1,10.36,10.49l0,32.58A10.79,10.79,0,0,1,486.84,1029.7Z"/><path class="cls-63" d="M94.55,694.08s-28.43-31.95-28.43-47.65V613.58H123v32.85C123,662.13,94.55,694.08,94.55,694.08Z"/><path class="cls-46" d="M134.91,1043.63c9.27-23.49,88.5-168.74-73.16-149.86"/><polygon class="cls-47" points="112.49 1028.29 94.79 1056.61 146.71 1081.38 160.87 1049.53 112.49 1028.29"/><path class="cls-48" d="M222.23,1043.63c9.27-23.49,87.42-161.94-72.59-152.13"/><polygon class="cls-47" points="199.81 1028.29 182.11 1056.61 234.03 1081.38 248.19 1049.53 199.81 1028.29"/><path class="cls-49" d="M139.54,919.41H68.12a39.48,39.48,0,0,1-39.28-35.53l-1.58-15.7H180.41l-1.6,15.74A39.48,39.48,0,0,1,139.54,919.41Z"/><path class="cls-64" d="M153,653.78l-34.91-14.27-52,.6L34.68,655C21.17,661.67,12.91,676.76,14,692.86L27.36,869.77l30.07-.35,11.17-.13,55.31-.64,10.31-.12,34.17-.39,6.15-177.65C175,674.64,166.42,660.09,153,653.78Z"/><path class="cls-65" d="M129.87,645.52c0-.49.07-1,.07-1.5,0-6.67-3.93-12.12-8.73-12.12H68.55c-4.8,0-8.73,5.45-8.73,12.12,0,.51,0,1,.07,1.5Z"/><rect class="cls-52" x="280.56" y="748.98" width="55.98" height="16.19" rx="8.09" ry="8.09" transform="translate(349.46 -59.44) rotate(25.04)"/><rect class="cls-52" x="267.89" y="759.98" width="55.98" height="16.19" rx="8.09" ry="8.09" transform="translate(382.99 -50.4) rotate(27.14)"/><circle class="cls-52" cx="280.81" cy="762.42" r="24.37"/><path class="cls-66" d="M153.23,686.76c-1.29,21.8-12.46,119.5,90.72,88.63"/><polygon class="cls-65" points="281.34 788.8 265.31 742.78 239.22 751.57 254.91 798.02 281.34 788.8"/><path class="cls-67" d="M32.8,491.39a11.55,11.55,0,0,0-8.92,13.7l17.65,83.37a45.52,45.52,0,0,0,53.87,35.12l15.76-3.31a45.52,45.52,0,0,0,35.2-53.89l-17.31-82.51a12.4,12.4,0,0,0-14.69-9.59Z"/><path class="cls-68" d="M117.28,473.67,32.8,491.39a11.55,11.55,0,0,0-8.92,13.7L41.53,588A45.67,45.67,0,0,0,47,602.17l46.12-9.68a27.24,27.24,0,0,0,21.06-32.25l-2.89-13.8,20.44-3.85Z"/><path class="cls-65" d="M101.94,458.5,42.89,472.19a16.17,16.17,0,0,0-12.1,19.41h0A11.4,11.4,0,0,0,23,505.05l2.62,8.34,103.9-24.09-3.89-16.78C123.31,462.29,112.17,456.12,101.94,458.5Z"/><path class="cls-69" d="M122.3,570.84l-.77.14c-3,.54-6-1.78-6.66-5.15L110,543c-.71-3.37,1.12-6.56,4.07-7.09l.77-.14c3-.54,6,1.78,6.66,5.15l4.84,22.87C127.08,567.11,125.25,570.31,122.3,570.84Z"/><polygon class="cls-65" points="84.19 462.79 137.25 450.29 129.76 489.14 84.19 462.79"/><rect class="cls-4" x="27.96" y="824.1" width="13.58" height="108.68"/><rect class="cls-4" x="27.96" y="938.72" width="13.58" height="138.68"/><rect class="cls-4" x="90.65" y="824.1" width="13.58" height="108.68"/><rect class="cls-4" x="90.65" y="938.78" width="13.58" height="138.68"/><rect class="cls-4" x="165.65" y="938.78" width="13.58" height="138.68"/><rect class="cls-4" y="725.49" width="153.82" height="115.64" rx="18.76" ry="18.76"/><rect class="cls-7" y="725.49" width="142.4" height="115.64" rx="18.05" ry="18.05"/><rect class="cls-4" x="24.57" y="915.07" width="176.29" height="31.67" rx="15.83" ry="15.83"/><path class="cls-7" d="M200.84,930.13A15.88,15.88,0,0,0,185,915.07H40.41a15.88,15.88,0,0,0-15.81,15.06Z"/></g><g id="Lehrerin"><path class="cls-70" d="M502.63,619.53c-29.54-49.64-12-117.78,24.57-146.49"/><path class="cls-71" d="M505.74,669.44l16.41-19.59a4.31,4.31,0,0,0,.86-1.72,17.06,17.06,0,0,0,5.54-9c2.38-9.85-3.88-20.26-14-23.25s-20.24,2.58-22.62,12.44a19,19,0,0,0,2.88,15.05l-6,6.51c-1.73,1.89-1,5.36,1.62,7.72h0c2.47,2.22,5.76,2.66,7.58,1.13l-2.07,2.47c-1.83,2.19-1.13,5.85,1.56,8.12h0C500.2,671.56,503.91,671.63,505.74,669.44Z"/><path class="cls-72" d="M532.6,375.21c3.21,35.09,17.27,65.6,47.17,65.08,25.79-.44,41.82-29,46.24-63.87,6.94-54.7-20.91-64-46.71-64.3S528.06,325.73,532.6,375.21Z"/><path class="cls-73" d="M623.82,339.75c8.85,19.27-.35,63.1-6.54,86.12l-9.09-40Z"/><path class="cls-72" d="M537.13,337.83c-3.47,12.23-6.6,27.27-9.24,46.4l9.64-20.92Z"/><path class="cls-49" d="M635.45,692.38c3.93-24.32-3.79-52-9.77-60.7l-100.9-.89c-14.26,22.73-11.54,38.14-9.3,60.68Z"/><path class="cls-74" d="M626.58,632.31c-27-55.07-3.92-121.61,8.11-169.39-26.7-29-100.39-19.53-119.7,0,16.72,57.57,32.15,114.68,8.11,168.52Z"/><path class="cls-75" d="M565.84,985.25a5.23,5.23,0,0,0,5.23-5.23l-22.37-17.5c-34.32,7.35-42.83,16.91-40.73,22.73Z"/><path class="cls-76" d="M548.69,962.52a167.63,167.63,0,0,0-20,5.42v17.3h37.1a5.23,5.23,0,0,0,5.23-5.23Z"/><path class="cls-6" d="M509.07,979.55c-1.44,2.11-1.7,4-1.1,5.69h57.87a5.23,5.23,0,0,0,5.23-5.23v-.46Z"/><polygon class="cls-77" points="571.07 969.25 571.07 688.33 515.03 688.33 548.29 962.41 571.07 969.25"/><polygon class="cls-47" points="545.95 945.61 548.29 962.41 571.07 980.19 571.07 964 545.95 945.61"/><path class="cls-75" d="M585.44,985.25a5.23,5.23,0,0,1-5.23-5.23l22.37-17.5c34.32,7.35,42.83,16.91,40.73,22.73Z"/><path class="cls-76" d="M602.59,962.52a167.63,167.63,0,0,1,20,5.42v17.3h-37.1a5.23,5.23,0,0,1-5.23-5.23Z"/><path class="cls-6" d="M642.21,979.55c1.44,2.11,1.7,4,1.1,5.69H585.44a5.23,5.23,0,0,1-5.23-5.23v-.46Z"/><polygon class="cls-78" points="580.21 969.25 580.21 688.33 636.25 688.33 602.99 962.41 580.21 969.25"/><polygon class="cls-47" points="605.33 945.61 602.99 962.41 580.21 980.19 580.21 964 605.33 945.61"/><path class="cls-79" d="M576.52,488.09s-15.9-33.87-15.79-42L561,410h32l-.23,36.13C592.65,454.22,576.52,488.09,576.52,488.09Z"/><path class="cls-70" d="M624.75,471.43c43.8,37.64,89.49,5.73,105.67-32.52"/><path class="cls-80" d="M751.15,426.57l-7.26,20-28.64-10.32,7.26-20A15.22,15.22,0,0,1,742,407.09h0A15.22,15.22,0,0,1,751.15,426.57Z"/><rect class="cls-80" x="711.93" y="394.19" width="43.7" height="10.24" rx="4.9" ry="4.9" transform="translate(109.44 954.36) rotate(-70.19)"/><rect class="cls-81" x="726.62" y="404.66" width="28.64" height="10.24" rx="4.04" ry="4.04" transform="translate(104.33 968.03) rotate(-70.19)"/><path class="cls-81" d="M757.52,408.72l-8,21.34a4.06,4.06,0,0,1-5.17,2.43l-2-.73a4.05,4.05,0,0,1-2.44-5.17l7-19.34a4.06,4.06,0,0,1,5.17-2.43l2,.73C756.18,406.3,758.28,406.62,757.52,408.72Z"/><rect class="cls-80" x="706.97" y="407.24" width="31.92" height="10.53" rx="5.27" ry="5.27" transform="translate(421.32 1188.28) rotate(-98.46)"/><rect class="cls-82" x="612.27" y="377.79" width="8.07" height="21.96" rx="4.04" ry="4.04" transform="translate(1112.68 922.25) rotate(-165.18)"/><rect class="cls-82" x="538.18" y="377.79" width="8.07" height="21.96" rx="4.04" ry="4.04" transform="translate(-81.4 151.61) rotate(-14.82)"/><path class="cls-83" d="M543,373.58c0,31.82,16.1,57.62,36,57.62s36-25.8,36-57.62-16.1-46.21-36-46.21S543,341.76,543,373.58Z"/><path class="cls-84" d="M572.42,375.62c4.57-2.31,9.72-2.12,15.31,0a2.14,2.14,0,0,0,2.13-2.13h0a2.14,2.14,0,0,0-2.13-2.13c-5.55-2-10.68-2.16-15.31,0a2.14,2.14,0,0,0-2.13,2.13h0A2.14,2.14,0,0,0,572.42,375.62Z"/><circle class="cls-85" cx="600.15" cy="375.64" r="16.56"/><circle class="cls-85" cx="558.74" cy="375.64" r="16.56"/><path class="cls-65" d="M561.9,405c0,.1,0,.19,0,.29,0,6.58,7.63,11.91,17,11.91s17-5.33,17-11.91c0-.1,0-.19,0-.29Z"/><path class="cls-86" d="M581.16,412.47a36.2,36.2,0,0,0-8.71,1.88,20.7,20.7,0,0,0-2.51,1.05,22.63,22.63,0,0,0,9,1.79,21.12,21.12,0,0,0,12.19-3.59A23.7,23.7,0,0,0,581.16,412.47Z"/><path class="cls-49" d="M590.43,378.37a4.32,4.32,0,0,1-.18-1.23c0-2.82,2.73-5.11,6.1-5.11s6.1,2.29,6.1,5.11a4.32,4.32,0,0,1-.18,1.23Z"/><path class="cls-49" d="M556.54,378.37a4.32,4.32,0,0,1-.18-1.23c0-2.82,2.73-5.11,6.1-5.11s6.1,2.29,6.1,5.11a4.32,4.32,0,0,1-.18,1.23Z"/><path class="cls-72" d="M581.16,305.22c3.88,4.39-3,17.19-15.37,28.58s-25,18.22-28.93,13.83,1.7-19.54,14.06-30.94S577.28,300.83,581.16,305.22Z"/><path class="cls-73" d="M568,305.34c11.71-7.78,35.08.51,47.29,17s12.63,36.21.91,44c-23-.37-40.7-28.89-40.7-28.89L580.69,359a54,54,0,0,1-7.78-8.47C560.69,334,556.32,313.12,568,305.34Z"/></g><g id="leuchten"><polygon class="cls-87" points="572.17 43.06 455.46 118.26 979.96 118.26 749.16 41.56 572.17 43.06"/></g><g id="Beam"><path class="cls-88" d="M605.87,0H741.3a37.89,37.89,0,0,1,37.89,37.89V55.71a0,0,0,0,1,0,0H568a0,0,0,0,1,0,0V37.89A37.89,37.89,0,0,1,605.87,0Z"/></g></g></svg>