<svg xmlns="http://www.w3.org/2000/svg" viewBox="0 0 1442.69 974.92"><defs><linearGradient id="linear-gradient" x1="690.52" y1="684.45" x2="690.52" y2="946.81" gradientUnits="userSpaceOnUse"><stop offset=".19" stop-color="#85bbcb"/><stop offset="1" stop-color="#007193"/></linearGradient><style>.cls-1{fill:#f4f4f4}.cls-2{fill:#201e1d;opacity:.1}.cls-3{fill:#fff}.cls-8{fill:#daeff6}.cls-9{fill:#c1e5ef}.cls-15{fill:#336673}.cls-22{fill:#5591a8}</style></defs><g id="Layer_2" data-name="Layer 2"><g id="Para"><path class="cls-1" d="M1442 571.2c-.36-13.33-2.61-26.41-5.31-39.41a246.26 246.26 0 00-14.45-46.57c-4-9.28-8.29-18.41-12.81-28.38-4.12 4.4-7.64 8.05-11 11.82-3 3.35-5.85 6.9-8.89 10.24-8.08 8.87-16.27 17.64-24.36 26.5q-13.64 15-27.19 30-13.23 14.61-26.44 29.25c-9 10-18 20.07-27.23 30a26 26 0 01-7.4 5.88c-19.29 9.25-38.7 18.25-58.08 27.33l-30.63 14.32-58.12 27.23q-15.32 7.17-30.63 14.32c-8.34 3.87-16.82 7.47-25 11.64-3 1.54-5.37 4.34-8 6.63a377.61 377.61 0 01-53.6 39c-11.93 7.24-24.49 13.5-38.42 15.59-7.7 1.15-15.7 1-23.52.59-14.7-.76-28-6.46-40.49-13.68a168.76 168.76 0 01-22.47-16 297.3 297.3 0 01-24-21.87c-11.39-11.67-22.16-23.94-33.26-35.89-7.46-8-14.67-16.37-22.63-23.89-12.86-12.13-26.28-23.6-42.66-31-11.29-5.12-23.06-7.81-35.33-6.81-16.09 1.33-30.26 8-43.38 17.21-14.8 10.41-27.22 23.4-39.65 36.33-10.79 11.23-20.69 23.31-31.39 34.62-8.2 8.67-17 16.74-25.6 25.06a152 152 0 01-26.4 20.09c-11.44 7-23.55 12.61-36.94 14.41-8.27 1.11-16.76 1.89-25 1.3-11.23-.79-21.62-5.22-31.3-10.94a136.66 136.66 0 01-28.91-23.2c-7.75-8-15.6-16-23.31-24.06-7.34-7.68-14.29-15.74-21.9-23.13-9.38-9.12-19.54-17.34-31.73-22.58-13-5.6-25.78-4.58-38.37 1.59-13.83 6.77-26.89 14.79-38.32 25.09-12.93 11.64-25.38 23.8-38 35.78-1.5 1.43-2.62 3.26-4.09 4.73-4.44 4.44-11.38 4.39-16.19-.14-4.09-3.84-6.18-10.36-1.31-15.34 11.46-11.75 23-23.4 34.8-34.83A228.49 228.49 0 01299 641.71c11.7-7.53 24.17-13.31 38-15.45 13.34-2.06 26.2.52 38.44 5.9a100.31 100.31 0 0129.76 19.9c10.65 10.34 21.11 20.87 31.49 31.48 8.73 8.93 16.92 18.42 25.91 27.08 8.58 8.25 18.16 15.33 29.39 19.78 13.45 5.33 26.88 4.23 40.29-.15a97.75 97.75 0 0033.52-19.43c9.17-7.91 18.28-16 26.69-24.66 11.15-11.52 21.32-24 32.42-35.58 10.81-11.28 22.11-22.09 33.45-32.84a133.22 133.22 0 0136-24.18 96.2 96.2 0 0128.28-8.3c21.5-2.75 41.64 1.37 60.57 11.63a147.29 147.29 0 0129.52 21c6.18 5.68 12.63 11.1 18.42 17.15 11.69 12.2 23 24.77 34.48 37.15 7.15 7.69 14.07 15.63 21.64 22.9 10.5 10.08 21.41 19.84 34.13 27.11 10.62 6.08 21.79 10.55 34.26 11.94 10.68 1.19 19.94-2.43 29.22-6.3 18.4-7.66 34.72-18.88 50.5-30.85 7.18-5.45 14-11.4 20.82-17.29a10.43 10.43 0 002.52-4.44c5.59-15.89 11.09-31.83 16.64-47.74q13.91-39.76 27.83-79.53 9.45-26.93 19-53.85c1.91-5.4 3.55-10.92 5.87-16.14a32.91 32.91 0 015.76-8.14c7.85-8.75 15.9-17.33 23.83-26q13.51-14.83 26.94-29.75 13-14.37 25.94-28.76t26.18-29q11.52-12.84 22.91-25.81a3.82 3.82 0 00.67-2.86c-4-20-7.11-40.3-12.26-60-4.92-18.8-11.48-37.23-18.2-55.49a327.32 327.32 0 00-16-35.52 342.13 342.13 0 00-36.78-57.45A316.2 316.2 0 001145.21 84a310.88 310.88 0 00-52.65-39.78A287.11 287.11 0 001024 14.05c-12.9-3.67-26-6.6-39.2-9.05-10-1.87-20.14-2.67-30.25-3.61-8.1-.77-16.27-1.61-24.37-1.34-13.45.44-26.88 1.69-40.31 2.68a231 231 0 00-47.09 8.62c-17 4.92-33.89 10.67-50.5 16.92-19.09 7.19-36.95 17.09-54 28.15a381.43 381.43 0 00-32.59 23.85 368.77 368.77 0 00-28.51 25.67 302.26 302.26 0 00-34 40.78 324.65 324.65 0 00-27.49 47c-10.24 21.64-18.35 44-23.25 67.51-1.83 8.77-3.29 17.61-5 26.41a8.21 8.21 0 01-.82 2c-11.45-4.38-22.57-9-33.95-12.89-13.6-4.67-27.56-8.18-42-9.12-11.74-.76-23.6-2-35.26-1.17a198.05 198.05 0 00-37.62 6.54c-11.42 3.14-22.48 8-33.24 13-11.36 5.34-21.52 12.76-31.33 20.68-15.88 12.83-28.71 28.26-39.51 45.39a200.64 200.64 0 00-24.37 56.79c-2.57 9.87-4.52 19.92-6.3 30-1 5.57-1.14 11.3-1.52 17-.43 6.63-.7 13.27-1 19.94-8.32-1.53-16.7-3.23-25.15-4.6s-16.62-2.79-25-3.41c-14.16-1.06-28.38-2.18-42.55-2-11.87.15-23.73 2-35.57 3.32a188.26 188.26 0 00-42.43 10.2c-21.7 7.69-41.82 18.3-59.95 32.8a185.82 185.82 0 00-48.37 58.28 189.22 189.22 0 00-18.56 53C1.7 629.75 1.43 636.27.68 642.7a7.93 7.93 0 01-.68 1.78v26.76c.47 3.13 1.1 6.24 1.38 9.39 1.39 15.92 5.4 31.25 11 46.12a212.08 212.08 0 0026.08 48.87 231.6 231.6 0 0035.09 38.6 175.75 175.75 0 0040.4 27 193.21 193.21 0 0053.85 17.37c13 2.07 26 3.7 39.12 4.91 10.66 1 21.41 1.32 32.12 1.44 19.51.22 39 .08 58.53.06q437.51-.35 875-.85c12.21 0 24.43-2 36.62-3.39 17.53-2 34.44-6.7 51-12.63a276.59 276.59 0 00109-72.14 245.24 245.24 0 0031.8-41.8c5.59-9.37 10.91-19 15.64-28.79a253.39 253.39 0 0020.46-61.89c2.5-13 4.65-25.91 4.91-39.13 0-.48.44-1 .67-1.43V574a13.87 13.87 0 01-.67-2.8z"/><path class="cls-1" d="M1232.3 412.83c-8.9 9.84-17.76 19.71-26.7 29.5-8.33 9.12-16.77 18.14-25.09 27.26-2.82 3.07-5.28 6.48-8.18 9.46-4 4.12-8 8.46-12.59 11.84-6 4.4-13.19 4.18-20.3 2.93-3.3 9.4-6.51 18.71-9.82 28-7.14 20-14.35 39.92-21.42 59.91a4.53 4.53 0 00.62 3.81c2.27 2.48 4.91 4.62 7.42 6.87l33.51 30 14.52 13c29-13.53 57.86-27 86.88-40.55-2.68-9-2.35-17.34 3-24.81 2.85-3.93 6.29-7.44 9.52-11.08q11.7-13.17 23.45-26.27 15.36-17.14 30.74-34.27c7.83-8.75 15.6-17.54 23.46-26.26q17.07-18.92 34.21-37.77c3.34-3.7 6.61-7.48 9.82-11.29a2.08 2.08 0 00.15-2c-2.83-3.61-5.79-7.14-9-11-3.83 4.36-7.29 8.38-10.83 12.33q-13.18 14.66-26.43 29.26l-20.14 22.25c-9 9.92-17.93 19.87-27 29.75-8.33 9.12-16.76 18.14-25.1 27.25-2.89 3.17-5.5 6.59-8.45 9.69-6.07 6.38-12.05 12.74-20.64 16.13a48.28 48.28 0 01-21.71 3.23 41.86 41.86 0 01-25.31-10.59c-7.65-6.81-11.39-15.56-13.25-25.54a47.37 47.37 0 013.4-28.2c3-7 8.26-12.26 13.11-17.77 11.3-12.84 22.93-25.38 34.41-38.06 6.4-7.07 12.76-14.18 19.15-21.25q16.86-18.65 33.74-37.25c5.73-6.29 11.58-12.47 17.3-18.76 3-3.28 5.78-6.71 9-10.45-4.41-2.4-8.3-4.62-12.32-6.57-.69-.34-2.24.2-2.9.85-2.31 2.28-4.41 4.78-6.6 7.2l-26.68 29.5q-13.48 14.89-26.95 29.72z"/></g><path class="cls-2" d="M822.76 823.85a7.41 7.41 0 00-.79-2.15 6.82 6.82 0 00-.39-.64 7.81 7.81 0 00-6.49-3.46h-7.92a16 16 0 00-14.29-8.83H672.72v-3.47a7.85 7.85 0 00-7.83-7.82h-60.51a7.85 7.85 0 00-7.83 7.82v12.3h.06v146.5a10.83 10.83 0 0010.82 10.82h205.24a10.25 10.25 0 0010.25-10.26V825.43a7.5 7.5 0 00-.16-1.58z" id="Ordner_Schatten" data-name="Ordner Schatten"/><g id="Ordner"><path class="cls-3" d="M593 794.84h180.67a16 16 0 0116 16v140.43a9.65 9.65 0 01-9.65 9.65H593V794.84z"/><path d="M803.71 950.73V811.5a7.85 7.85 0 00-7.83-7.83H577.4v146.5A10.81 10.81 0 00588.22 961h205.23a10.26 10.26 0 0010.26-10.27z" fill="#007193"/><path d="M803.71 898.57V811.5a7.85 7.85 0 00-7.83-7.83H653.51v-12.29a7.85 7.85 0 00-7.83-7.83h-60.52a7.85 7.85 0 00-7.83 7.83v12.29h.07v63z" fill="url(#linear-gradient)"/><path class="cls-3" d="M591.6 792.53h48.96v10.67H591.6z"/></g><rect x="368.26" y="94.21" width="281.99" height="216.39" rx="12.22" ry="12.22" fill="#201e1d" id="Bild_1_Schatten" data-name="Bild 1 Schatten" opacity=".1"/><g id="Bild_1" data-name="Bild 1"><rect class="cls-3" x="355.77" y="81.72" width="281.99" height="216.39" rx="12.22" ry="12.22"/><rect class="cls-8" x="364.73" y="92.4" width="264.06" height="195.03" rx="11.23" ry="11.23"/><path class="cls-9" d="M617.57 92.4h-125v195h125a11.22 11.22 0 0011.22-11.23V103.62a11.22 11.22 0 00-11.22-11.22z"/><circle class="cls-3" cx="417.49" cy="131.65" r="22.38"/><path d="M616.08 274.21H418.53L514 149.76z" fill="#ec8c2a"/><path fill="#e87601" d="M512.33 274.2h103.75L513.96 149.76l-1.63 2.12V274.2z"/><path d="M508.93 274.21H375.27L439.84 190z" fill="#fccd4c"/><path fill="#fbc01f" d="M438.32 274.2h70.61l-69.09-84.19-1.52 1.98v82.21z"/></g><rect class="cls-2" x="968.3" y="458.46" width="281.99" height="216.39" rx="12.22" ry="12.22" id="Bild_2_Schatte" data-name="Bild 2 Schatte"/><g id="Bild_2" data-name="Bild 2"><rect class="cls-3" x="952.93" y="441.17" width="281.99" height="216.39" rx="12.22" ry="12.22"/><rect class="cls-8" x="961.89" y="451.84" width="264.06" height="195.03" rx="11.23" ry="11.23"/><path class="cls-9" d="M1226 533.31v-70.24a11.22 11.22 0 00-11.22-11.23H973.12a11.23 11.23 0 00-11.23 11.23v113.16z"/><path d="M1002.88 529.76h32.32v55.84h-32.32a10.64 10.64 0 01-10.64-10.6v-34.6a10.64 10.64 0 0110.64-10.64z" fill="#4c7984"/><path class="cls-15" d="M1076.84 614.87l-42.64-29.27v-55.84l42.64-29.27c5.4-3.7 13.7-.61 13.7 5.1v104.18c0 5.71-8.3 8.8-13.7 5.1z"/><path class="cls-15" d="M992.24 559v16a10.64 10.64 0 0010.64 10.64h32.32V559z"/><path d="M1034.2 559v26.6l42.64 29.27c5.4 3.7 13.7.61 13.7-5.1V559z" fill="#195261"/><path d="M1112 583.7a40.44 40.44 0 001.52-60.62m22.24 84.36a73.91 73.91 0 001.38-108.12m20.62 130.12a105 105 0 001.32-152.19" fill="none" stroke="#286473" stroke-linecap="round" stroke-miterlimit="10" stroke-width="9.61"/></g><path class="cls-2" d="M478 669.52a11.27 11.27 0 001.74-6v-202a11.37 11.37 0 00-11.37-11.37H200a11.37 11.37 0 00-11.37 11.37V663.5A11.37 11.37 0 00200 674.87h268.33a11.36 11.36 0 007.24-2.6 12 12 0 001.43-1.47l.29-.37a9.79 9.79 0 00.71-.91z" id="Bild_2_Schatten" data-name="Bild 2 Schatten"/><g id="Ebene_12" data-name="Ebene 12"><rect x="174.56" y="432.51" width="291.09" height="224.78" rx="11.37" ry="11.37" fill="#fde08f"/><path d="M454.28 432.51H322v224.78h132.28a11.37 11.37 0 0011.36-11.37v-202a11.37 11.37 0 00-11.36-11.41z" fill="#fdd66b"/><rect class="cls-3" x="186.2" y="628.89" width="267.05" height="8.92" rx="4.46" ry="4.46"/><circle cx="225.42" cy="633.31" r="13.1" fill="#c21d47"/><path class="cls-3" d="M192.34 445.03H450.4v166.71H192.34z"/><path fill="#e6f5f9" d="M450.4 611.75H193.23l-.6-48.21L450.4 488v123.75z"/><circle class="cls-22" cx="323.79" cy="531.4" r="52.61"/><path class="cls-3" d="M311.26 501.79l48.49 28a3 3 0 010 5.17l-48.49 28a3 3 0 01-4.47-2.59v-56a3 3 0 014.47-2.58z"/></g><path class="cls-2" d="M1022.8 79.83l-33.18-30.07H842.71a11.63 11.63 0 00-11.63 11.62v233.25a11.63 11.63 0 0011.63 11.63h178.49a11.63 11.63 0 0011.63-11.63V88.92z" id="Doc_Schatten" data-name="Doc Schatten"/><g id="Doc_2" data-name="Doc 2"><path class="cls-3" d="M1009.67 287.05H831.18a11.63 11.63 0 01-11.62-11.63V42.17a11.63 11.63 0 0111.62-11.63h146.91l43.21 39.17v205.71a11.63 11.63 0 01-11.63 11.63z"/><path d="M978.09 30.54h-55.26v256.51h86.84a11.63 11.63 0 0011.63-11.63V69.71z" fill="#e8f5f9"/><path fill="#fffbf2" d="M1021.3 69.7h-43.34l-.05-39.16 43.39 39.16z"/><path class="cls-22" d="M845.77 99.33h95.29v15h-95.29zm0 39.71h150.28v15H845.77zm0 38.82h150.28v15H845.77zm0 38.82h150.28v15H845.77z"/></g></g></svg>