<svg width="121" height="121" viewBox="0 0 121 121" xmlns="http://www.w3.org/2000/svg"><g fill="none" opacity=".528"><circle fill="#F4F2F2" cx="60.5" cy="60.5" r="60.5"/><circle fill="#E2E2E2" cx="61" cy="61" r="52"/><g transform="translate(22 17)"><ellipse fill="#201E1D" opacity=".12" transform="rotate(-26.01 42.89 41.069)" cx="42.889" cy="41.069" rx="30.653" ry="30.489"/><ellipse fill="#FCD466" transform="rotate(-63.94 40.89 40.704)" cx="40.891" cy="40.704" rx="30.316" ry="30.479"/><path d="M53.891 52.758v-11.28c-.004-1.944-1.593-3.519-3.553-3.523h-11.01c-1.961.003-3.552 1.578-3.556 3.523v11.28c.004 1.945 1.595 3.52 3.557 3.523h.327V59.1c0 .07.014.135.02.203h-.234a2.09 2.09 0 00-2.094 2.076v3.596a2.091 2.091 0 002.094 2.077h2.3a2.091 2.091 0 002.095-2.077v-3.596a1.949 1.949 0 00-.03-.294h3.838c1.106 0 2.003-.89 2.003-1.987v-2.816h.694c1.96-.006 3.545-1.58 3.55-3.523zM27.859 15.336h5.584a1.415 1.415 0 001.417-1.405v-2.827a30.8 30.8 0 00-8.394 3.06c.115.675.703 1.17 1.393 1.172zm-9.115 36.362v-.101a3.51 3.51 0 003.043-3.454V45.88a3.51 3.51 0 00-3.043-3.453v-.667c-.006-2.15-1.761-3.89-3.928-3.896H10.66a30.006 30.006 0 003.806 17.731h.348c2.168-.005 3.924-1.746 3.93-3.896zm-1.712-19.49a2.658 2.658 0 00-2.664-2.64h-1.672a27.076 27.076 0 00-.823 2.304 30.28 30.28 0 00-.757 2.973h3.256c1.466-.006 2.654-1.183 2.66-2.637z" fill="#F7A600"/><rect fill="#F7A600" transform="rotate(-180 44.634 38.345)" x="39.059" y="35.789" width="11.151" height="5.112" rx="2.556"/><rect fill="#F7A600" transform="rotate(180 48.433 64.276)" x="47.417" y="62.165" width="2.032" height="4.221" rx="1.016"/><rect fill="#F7A600" transform="rotate(180 51.835 52.626)" x="47.384" y="48.774" width="8.901" height="7.705" rx="3.852"/><path d="M69.307 29.64l-.505-1.2a30.435 30.435 0 00-2.032-3.793h-.06c-.575-.926-1.292-1.932-2.092-2.985a30.408 30.408 0 00-14.781-9.895c-.495-.15-.99-.287-1.484-.41l-.079-.02-.16-.04a30.735 30.735 0 00-7.995-.805v9.316h-4.243c-2.038.008-3.689 1.644-3.696 3.665v4.59c.007 2.021 1.658 3.657 3.696 3.665h6.67c2.039-.008 3.69-1.644 3.697-3.665V25.88h4.884V30a2.537 2.537 0 00-1.717 2.568c.094 1.338 1.249 2.36 2.602 2.36h2.515a2.557 2.557 0 002.56-2.54c0-.182-.021-.364-.062-.542V27.86c0-.523.21-1.025.586-1.394a1.989 1.989 0 011.41-.569 1.972 1.972 0 011.963 1.963v2.34c.001.64.524 1.158 1.17 1.16a2.795 2.795 0 011.97.807c.522.518.815 1.22.814 1.953a2.143 2.143 0 01-2.152 2.133l-3.636.006c-.736 0-1.335.532-1.335 1.178v13.804c0 .65.531 1.177 1.187 1.177h4.725c.656 0 1.187-.527 1.187-1.177v-3.628l5.6-.01c.035 0 .069 0 .103-.004a29.877 29.877 0 00-1.31-17.96z" fill="#F7A600"/><path d="M15.887 58.069V23.323c-.255.36-.502.728-.743 1.104v32.542c.24.37.488.737.743 1.1zM29.018 68.59V12.82a40.41 40.41 0 00-.742.323v55.125c.245.11.492.218.742.322zm13.13 2.364V10.457c-.247-.01-.494-.018-.742-.022v60.54c.248-.004.495-.012.742-.021zm13.135-3.555V14.006c-.248-.13-.495-.256-.742-.38v54.151c.247-.12.494-.246.742-.378zm13.129-13.584V27.61a32.52 32.52 0 00-.742-1.434V55.25c.259-.47.506-.949.742-1.436z" opacity=".2" fill="#FFF"/><path d="M55.38 14.072a30.452 30.452 0 017.737 5.802L19.961 62.668c-9.63-9.13-12.411-23.811-5.858-36.052 7.903-14.765 26.384-20.38 41.277-12.544z" fill="#FFF" opacity=".15"/></g><path d="M52.5 63.475c-15.708 4.594-30.262 2.082-32.503-5.611-1.264-4.335 1.65-9.394 7.246-13.8-8.57 5.003-13.533 11.556-11.948 16.981 2.243 7.692 16.796 10.207 32.503 5.611 6.856-2.005 12.799-5.03 17.134-8.448-3.588 2.092-7.801 3.913-12.432 5.267z" fill="#FFF" opacity=".46"/><path d="M78.609 53.126l-13.297 7.481a1.644 1.644 0 01-2.214-.588 1.58 1.58 0 01.6-2.173l13.298-7.481c.774-.436 2.402-.525 2.845.235.444.757-.458 2.09-1.232 2.526z" fill="#C86301"/><path d="M79.805 50.54c-.46-.714-2.056-.6-2.81-.175L63.7 57.845a1.582 1.582 0 00-.647 2.088l16.753-9.392z" fill="#CF7722"/><path d="M78.084 51.237c.016.089.038.176.066.262l1.669-.935c-.219-.335-.578-.535-1.456-.535-.21.275-.34.866-.279 1.208z" fill="#DB9857"/><path d="M65.912 58.435l-2.814 1.584L61 56.429l.084-.048a2.718 2.718 0 013.265.459l1.563 1.595zm3.974-2.143l-1.846 6.68 1.315-.74a7.102 7.102 0 002.402-2.203l4.53-7.338-6.401 3.601zm-2.324 1.065a.542.542 0 00-.502-.348.543.543 0 00-.476.266.522.522 0 00.05.601l.928-.519zm2.276-1.276a.566.566 0 00-.034-.071.547.547 0 00-.732-.188.525.525 0 00-.162.78l.928-.52zm2.275-1.275a.566.566 0 00-.033-.072.547.547 0 00-.733-.188.525.525 0 00-.161.78l.927-.52zm2.276-1.276a.496.496 0 00-.034-.07.547.547 0 00-.733-.189.525.525 0 00-.161.78l.928-.52zm2.275-1.275a.496.496 0 00-.034-.071.547.547 0 00-.732-.189.525.525 0 00-.162.78l.928-.52z" fill="#C86301"/></g></svg>