<svg width="262" height="212" viewBox="0 0 262 212" xmlns="http://www.w3.org/2000/svg"><g transform="rotate(-13 205.029 36.696)" fill="none" fill-rule="evenodd"><path d="M202.683 59.614H62.089a3.211 3.211 0 00-3.215 3.201v96.597c0 1.782 1.438 3.202 3.233 3.202h140.535c1.792 0 3.232-1.431 3.232-3.202V62.815a3.181 3.181 0 00-3.191-3.201z" stroke="#000"/><path d="M61.374 62.114l54.953 37.925m31.098 21.462l55.95 38.613m-.001-98l-56.126 38.735m-30.713 21.196l-55.16 38.069m145.752-26.354l31.28-11.424m-17.377 6.347l11.23-11.624m-11.11 11.958l16.05 1.66M58.224 133.76l-31.28-11.424m17.377 6.347L33.09 117.059m11.11 11.958l-16.05 1.66" stroke="#000" stroke-linecap="round"/><circle stroke="#000" cx="131.774" cy="111.488" r="18.5"/><path d="M176.41 61.525c.211-1.755.32-3.54.32-5.352 0-24.577-19.924-44.5-44.5-44.5-24.577 0-44.5 19.923-44.5 44.5 0 2.036.136 4.04.401 6.004" stroke="#000"/><path d="M148.133 52.623a32.623 32.623 0 01-.934-7.803c0-10.011 4.437-18.697 10.932-23.012.564-.375 18.455-21.118 19.05-21.425M148.167 52.76l-.023-.092-15.384 28.714-15.168-28.587m30.54-.173h0M88.182.41c.224.116 18.23 20.611 18.451 20.737 7.073 4.041 12.003 13.12 12.003 23.673a32.67 32.67 0 01-.874 7.554" stroke="#0D0D0D" stroke-linecap="round" stroke-linejoin="round"/><path d="M117.02 37.576a13.996 13.996 0 00-3.54-.453c-7.986 0-14.46 6.716-14.46 15 0 3.239.99 6.237 2.671 8.689" stroke="#000"/><circle stroke="#000" cx="113.716" cy="51.899" r="3.5"/><circle stroke="#000" cx="151.568" cy="52.427" r="3.5"/><path d="M163.145 61.558a15.18 15.18 0 003.106-9.243c0-8.284-6.548-15-14.626-15-.808 0-1.601.068-2.374.197m34.607 23.62l71.223-44.226c10.433-6.48 14.8-2.59 9.55 8.517 0 0-28.638 68.737-59.916 84.343M82.123 60.655l-70.22-43.216C1.466 11.015-2.912 14.854 2.37 25.927c0 0 28.367 67.487 59.493 83.396m49.73 50.813L100 190.017c-.473 1.218.143 2.119 1.448 2.119h60.57c1.305 0 1.92-.901 1.448-2.119l-11.592-29.881h-40.282z" stroke="#000"/></g></svg>