<svg xmlns="http://www.w3.org/2000/svg" xmlns:xlink="http://www.w3.org/1999/xlink" width="676" height="676" fill="none"><style>.B{fill-rule:evenodd}</style><g clip-path="url(#B)"><circle cx="338" cy="353" r="257" fill="#eceef0"/><mask id="A" maskUnits="userSpaceOnUse" x="81" y="96" width="514" height="514"><circle cx="338" cy="353" r="257" fill="#eceef0"/></mask><g mask="url(#A)" class="B"><path d="M177.816 685.041c2.267-4.139 14.882-129.774 16.941-227.018l10.677-1.49 96.193-13.425 10.217-1.426 273.763 470.967-26.233 3.661-153.721-211.807-123.897-153.445c-16.967 75.972-38.245 150.242-44.978 163.916s-87.286 42.835-241.651 87.467l-8.884-22.261 191.572-95.139z" fill="#b28b67"/><use xlink:href="#C" fill="#613702"/><use xlink:href="#C" fill="#000" fill-opacity=".01"/><path d="M291.092 626.851c17.109 23.361 35.157 47.057 53.382 69.528 84.946 104.735 175.963 188.013 175.963 188.013l48.46-22.31s-47.069-94.404-111.918-206.615-135.676-215.105-135.676-215.105l-11.371 1.587c-5.074 75.813-11.354 137.447-18.84 184.902z" fill="#000" fill-opacity=".2"/><path d="M295.056 600.192l2.557-19.438 17.281 22.518 216.944 275.664-11.401 5.456c-44-49.693-223.369-281.586-225.381-284.2zm7.756-70.621l2.322-21.232 28.664 41.811 215.7 320.885-12.241 5.594c-57.682-91.038-232.554-344.299-234.445-347.058zm5.473-62.205l1.316-21.024 10.104 15.023c41.635 62.071 199.834 299.717 249.192 400.716l-11.913 5.637c-56.332-115.27-246.671-397.335-248.699-400.352zm-30.46-20.935l13.279-1.854-.2 9.454c-.48 20.008-1.807 61.9-5.162 106.749l-.123 1.642c-6.448 85.046-16.888 139.053-31.027 160.522-24.897 37.807-88.306 48.816-149.141 60.538-20.261 3.904-45.463 4.719-58.775 5.877l-1.617.148-2.366-5.747c13.376-4.083 26.469-5.518 47.954-9.658l11.889-2.301c53.756-10.49 120.687-25.269 140.985-56.092 8.774-13.322 20.824-50.381 28.651-151.131l.69-9.213c3.463-47.934 4.61-91.678 4.934-107.501l.029-1.433zm-38.743 5.405l13.325-1.859-.584 15.094c-2.037 50.505-8.462 191.797-17.768 225.993-10.222 37.559-90.523 61.325-154.817 78.808l-20.196 5.466-17.05 4.873-.795.243-5.076-12.107 6.766-2.051 19.536-5.547 11.081-2.998c53.448-14.532 139.419-39.448 147.767-70.132 8.336-30.626 14.524-157.329 16.915-213.625l.896-22.158zm-40.416 5.642l13.218-1.845.032 2.621c.489 44.837-.825 188.174-15.801 219.173-6.853 14.183-29.826 31.122-68.285 50.344-27.844 13.914-58.385 26.957-89.031 37.325l-3.536 1.184-5.275-11.852c86.2-28.575 145.552-64.825 154.194-82.718 11.701-24.218 15.161-143.528 14.552-208.412l-.068-5.82z" fill="#fff" fill-opacity=".2"/></g><g class="B"><path d="M485.303 20.495c-20.897-6.488-43.19 5.261-49.688 26.188l-23.571 75.913c-6.498 20.927 5.22 43.237 26.117 49.726l13.783 4.279-11.786 37.957a3.617 3.617 0 001.139 3.85c.372.301.788.524 1.24.664a3.61 3.61 0 002.754-.252l52.878-27.877 84.706 26.301c20.897 6.488 43.19-5.261 49.688-26.188l23.568-75.904c6.497-20.927-5.22-43.237-26.117-49.725L485.303 20.495z" fill="#9e292b"/><path opacity=".8" d="M511.054 73.09a6.484 6.484 0 00-8.115 4.27l-.249.804a6.483 6.483 0 004.269 8.115l67.947 21.098a6.485 6.485 0 008.115-4.27l.25-.804a6.484 6.484 0 00-4.27-8.115L511.054 73.09zm-40.613 26.279a6.485 6.485 0 018.115-4.27l114.762 35.633a6.484 6.484 0 014.27 8.115l-.25.804a6.483 6.483 0 01-8.114 4.269l-114.763-35.633a6.484 6.484 0 01-4.27-8.115l.25-.804zm14.317 36.546a6.484 6.484 0 018.115-4.27l67.947 21.097a6.485 6.485 0 014.27 8.115l-.25.804a6.485 6.485 0 01-8.115 4.27l-67.947-21.098a6.483 6.483 0 01-4.269-8.115l.249-.803z" fill="#fff"/><path d="M311.824 245.032c11.681 2.889 23.594 2.991 34.173-.024 18.574-6.171 16.07-67.812-.439-94.039s-92.545-32.911-92.615 21.313c-.028 21.282 8.452 38.728 21.061 51.417l-13.649 94.954 60.597-4.179-9.128-69.442z" fill="#915b3c"/><path d="M352.121 162.803c-.843-3.489-2.581-7.308-3.995-10.567-1.822-4.2-4.4-7.923-7.193-11.406-5.26-6.559-11.429-12.383-18.122-17.109-12.227-8.632-27.337-13.055-41.706-10.29-7.255 1.397-14.166 4.674-19.891 9.729-5.172 4.569-10 11.101-17.042 12.032-7.662 1.013-15.184-5.284-21.644-9.048-7.284-4.243-14.924-7.174-23.149-7.951-13.778-1.301-26.26 4.179-34.88 15.99-9.172 12.568-15.234 30.49-7.587 45.777 1.421 2.842 3.16 5.2 5.553 7.089 2.195 1.733 5.486 3.51 6.53 6.448 1.109 3.122-1.264 7.413-2.096 10.357-1.193 4.218-2.106 8.623-1.367 13.067 1.214 7.299 6.322 13.994 11.537 18.487 5.307 4.572 11.616 6.968 18.237 7.817 4.42.567 8.91.738 13.32.107 2.189-.314 4.089-1.058 6.187-1.69 2.04-.616 3.237-.146 5.074.869 8.535 4.711 17.461 6.147 26.841 4.712 7.917-1.212 16.961-3.772 23.081-9.668 6.796-6.549 6.077-14.883 3.765-23.681 1.86.766 6.873.974 3.655-2.369-1.274-1.324-3.539-1.742-5.107-2.465-1.826-.84-3.699-1.961-5.173-3.436-5.954-5.958-1.272-19.241 5.516-21.845 10.085-3.868 13.396 10.524 21.01 13.781 4.378 1.873 8.597-1.39 11.557-4.629 3.965-4.339 6.488-9.899 8.609-15.526l5.136-13.936c.835-2.155 3.818-8.289 1.953-10.532 7.278-1.978 15.708.517 22.34 4.095 2.742 1.48 4.87 3.172 6.474 6.006.343.608 1.125 2.43 1.951 2.449 1.538.038.838-1.787.626-2.664" fill="#501d2c"/><path d="M510.18 393.881l-87.647 7.128 13.549 39.501 72.09-23.996c30.276 4.603 45.03 4.671 44.264.206-.646-3.765-3.82-5.061-6.745-6.254-2.278-.93-4.404-1.798-5.064-3.722-1.508-4.396 8.861-12.786 19.042-20.327s3.715-9.375-.406-9.475c-14.802 2.618-31.163 8.265-49.083 16.939zM75.515 583.283c7.152-12.651 72.593-176.888 72.593-176.888l48.251 2.756-92.682 181.11c-4.996 10.62 1.664 26.793 6.181 37.76l1.891 4.676c-7.226 2.756-10.415-1.211-13.776-5.394-3.797-4.725-7.814-9.724-18.119-5.62-3.981 1.586-7.771 3.509-11.474 5.389-12.79 6.491-24.54 12.454-39.54 2.137-2.378-1.636-4.77-7.445 1.976-11.524 16.805-10.163 41.204-28.217 44.7-34.402z" fill="#915b3c"/><use xlink:href="#D" fill="#b4bdc3"/><g fill="#000"><use xlink:href="#D" fill-opacity=".01"/><path d="M502.566 502.148c-56.719 4.214-108.92-7.09-147.349-35.852l-7.282-30.708v-.002c-11.657-47.981-23.764-97.817-21.366-162.427 7.079 80.056 55.426 132.115 166.659 120.648l9.338 108.341zm-262.128-151.88c-15.481 44.095-25.944 91.328-33.074 141.607l31.426 1.677c-7.747-36.15-3.778-95.534 1.648-143.284z" fill-opacity=".1"/></g></g></g><defs><path id="C" d="M45.059 789.507l-15.162-35.734c89.438-46.769 135.038-73.134 136.799-79.094s4.091-77.198 6.989-213.716l136.247-19.014 11.37-1.587s70.826 102.895 135.676 215.105 111.919 206.614 111.919 206.614l-48.461 22.311s-91.016-83.278-175.962-188.013c-18.225-22.472-36.274-46.167-53.383-69.528-9.082 57.572-19.941 94.276-32.575 110.11-23.048 28.886-94.2 46.401-213.457 52.546z"/><path id="D" d="M266.565 249.512C178.008 320.775 116.917 424.93 83.291 561.979l115.776 6.179c2.095-26.155 4.794-51.587 8.297-76.283l154.622 8.253c-1.929-11.437-4.249-22.659-6.769-33.832 38.429 28.763 90.629 40.067 147.349 35.852l-9.338-108.341c-111.233 11.468-159.581-40.592-166.66-120.648l.333-7.349-56.558-16.061-.028-.036-.123-.007-3.627-.194z"/><clipPath id="B"><path fill="#fff" d="M0 0h676v676H0z"/></clipPath></defs></svg>