<svg xmlns="http://www.w3.org/2000/svg" width="62" height="61"><g transform="matrix(.707107 .707107 -.707107 .707107 40.568542 -18)" stroke="#000" fill="none" opacity=".646"><path d="M18.5 15.062v33.675l9.65 6.652 9.35-6.648.008-33.648C35.823 7.295 32.48.5 28.114.5 23.75.5 20.297 7.293 18.5 15.062zm19.008.026v-.022c-.001.004-.001.01 0 .022z"/><path d="M37.693 14.9c-2.765-.576-5.888-.9-9.193-.9-3.575 0-6.936.38-9.862 1.046M37.693 42.9c-2.765-.576-5.888-.9-9.193-.9-3.575 0-6.936.38-9.862 1.046"/><path d="M35.122 7.453A47.6 47.6 0 0 0 28.5 7c-2.696 0-5.27.216-7.63.608m16.63 10V48.5h17.997c-.078-5.693-1.528-8.1-5.494-11.084l-1.332-.995c-.53-.4-.964-.74-1.382-1.1-1.45-1.208-2.614-2.444-3.65-3.97-1.13-1.667-2.194-3.64-3.2-5.853-1.12-2.493-2.097-5.16-2.926-7.83l-.023-.074z"/><path d="M37.605 43.14h17.04M18.5 17.607V48.5H.503c.078-5.693 1.528-8.1 5.494-11.084l1.332-.995c.53-.4.964-.74 1.382-1.1 1.45-1.208 2.614-2.444 3.65-3.97 1.13-1.667 2.194-3.64 3.2-5.853 1.12-2.493 2.097-5.16 2.926-7.83l.023-.074z"/><path d="M18.395 43.14H1.355"/><path d="M28.023 55.32l9.618-6.752 6.406 10.8H40.16v11.917l-6.44-7.262L28 79.252V79l-5.673-14.976-6.44 7.262V59.37H12l6.23-10.712 9.792 6.663z" stroke-linejoin="round"/></g></svg>