<?xml version="1.0" encoding="UTF-8"?>
<svg width="62px" height="61px" viewBox="0 0 62 61" version="1.1" xmlns="http://www.w3.org/2000/svg" xmlns:xlink="http://www.w3.org/1999/xlink">
    <!-- Generator: Sketch 53 (72520) - https://sketchapp.com -->
    <title>shuttle</title>
    <desc>Created with Sketch.</desc>
    <g id="Create-Course-Flow" stroke="none" stroke-width="1" fill="none" fill-rule="evenodd" opacity="0.645903088">
        <g id="Kurs-anlegen-Schritt-1-Neue-Stunde" transform="translate(-294.000000, -93.000000)" stroke="#000000">
            <g id="shuttle" transform="translate(326.083261, 123.083261) rotate(45.000000) translate(-326.083261, -123.083261) translate(298.083261, 83.083261)">
                <path d="M18.5,15.0620337 L18.5,48.7373692 L28.1511231,55.3896559 L37.5000577,48.7419739 L37.5075811,15.0935687 C35.8227646,7.29481278 32.481431,0.5 28.1137066,0.5 C23.7511189,0.5 20.2972657,7.293091 18.5,15.0620405 Z M37.5075824,15.0877783 L37.5075873,15.066119 C37.5068648,15.0702188 37.5065723,15.0775218 37.5075824,15.0877782 Z" id="Combined-Shape"></path>
                <path d="M37.6934004,14.9005984 C34.9283796,14.3243963 31.8055557,14 28.5,14 C24.9250481,14 21.5638262,14.3794263 18.6377928,15.0464545" id="Oval-5"></path>
                <path d="M37.6934004,42.9005984 C34.9283796,42.3243963 31.8055557,42 28.5,42 C24.9250481,42 21.5638262,42.3794263 18.6377928,43.0464545" id="Oval-5"></path>
                <path d="M35.1218988,7.45322149 C33.0445989,7.159409 30.8171968,7 28.5,7 C25.8035903,7 23.2287704,7.21585332 20.8705655,7.60815922" id="Oval-5-Copy"></path>
                <g id="Group" transform="translate(37.000000, 14.000000)">
                    <path d="M0.5,3.60736953 L0.5,34.5 L18.4966425,34.5 C18.4185878,28.807207 16.9685996,26.4012446 13.0023466,23.4162916 C12.8205583,23.27948 11.9246498,22.6129056 11.670552,22.4210962 C11.140045,22.0206352 10.7063805,21.6804474 10.2882218,21.3322045 C8.83726121,20.1238434 7.67377743,18.8885653 6.63863829,17.3630971 C5.50721934,15.6957429 4.44414522,13.7239186 3.44939038,11.509868 C2.32920325,9.0166396 1.35212838,6.34871839 0.522918728,3.68122076 C0.515251824,3.65655697 0.507612236,3.63193959 0.499999978,3.60736902 Z" id="Rectangle-20"></path>
                    <path d="M0.604613843,29.1386003 L17.6454584,29.1386003" id="Path-17"></path>
                </g>
                <g id="Group" transform="translate(9.500000, 31.500000) scale(-1, 1) translate(-9.500000, -31.500000) translate(-0.000000, 14.000000)">
                    <path d="M0.5,3.60736953 L0.5,34.5 L18.4966425,34.5 C18.4185878,28.807207 16.9685996,26.4012446 13.0023466,23.4162916 C12.8205583,23.27948 11.9246498,22.6129056 11.670552,22.4210962 C11.140045,22.0206352 10.7063805,21.6804474 10.2882218,21.3322045 C8.83726121,20.1238434 7.67377743,18.8885653 6.63863829,17.3630971 C5.50721934,15.6957429 4.44414522,13.7239186 3.44939038,11.509868 C2.32920325,9.0166396 1.35212838,6.34871839 0.522918728,3.68122076 C0.515251824,3.65655697 0.507612236,3.63193959 0.499999978,3.60736902 Z" id="Rectangle-20"></path>
                    <path d="M0.604613843,29.1386003 L17.6454584,29.1386003" id="Path-17"></path>
                </g>
                <path d="M28.0234573,55.3204283 L37.6413392,48.5681247 L44.0476605,59.3692739 L40.1603786,59.3692739 L40.1603786,71.2867638 L33.7203739,64.0245517 L28,79.2520399 L28,79.0004516 L22.3272866,64.0245517 L15.8872819,71.2867638 L15.8872819,59.3692739 L12,59.3692739 L18.2310748,48.6575015 L28.0234573,55.3204283 Z" id="Combined-Shape" stroke-linecap="round" stroke-linejoin="round"></path>
            </g>
        </g>
    </g>
</svg>