<svg xmlns="http://www.w3.org/2000/svg" width="62" height="61"><g stroke="#000" fill="none" opacity=".646"><path d="M43 5.732L19.188 29.544l2.12 11.527 11.312 1.91 23.798-23.786c4.323-6.706 6.764-13.875 3.677-16.962C57.009-.853 49.764 1.51 43 5.732zM56.422 19.19l.015-.016a.075.075 0 00-.015.016z"/><path d="M56.686 19.189c-1.548-2.363-3.527-4.8-5.864-7.137-2.528-2.528-5.174-4.636-7.714-6.234m-6.221 33.17c-1.548-2.363-3.527-4.8-5.864-7.137-2.528-2.528-5.174-4.636-7.714-6.234"/><path d="M60.133 12.105a47.6 47.6 0 00-4.362-5.003 46.818 46.818 0 00-5.825-4.965m4.688 18.83L32.79 42.811l12.726 12.726c3.97-4.08 4.647-6.808 3.953-11.722l-.238-1.646a26.991 26.991 0 01-.2-1.755c-.17-1.88-.12-3.576.226-5.388.38-1.978 1.023-4.125 1.876-6.401.971-2.555 2.166-5.132 3.468-7.606l.036-.069zM36.655 39.095l12.049 12.05M41.2 7.531L19.355 29.376 6.63 16.65c4.08-3.97 6.808-4.647 11.722-3.952l1.645.238c.658.092 1.205.158 1.755.2 1.88.17 3.577.12 5.389-.227 1.977-.38 4.125-1.022 6.401-1.876 2.555-.97 5.131-2.166 7.606-3.468l.068-.036zM23.071 25.512l-12.049-12.05"/><path d="M21.267 40.932l11.575 2.027-3.107 12.166-2.749-2.748-8.426 8.427.581-9.69L4.328 57.84l.178-.179 6.578-14.6-9.688.58 8.425-8.425-2.748-2.749 11.98-3.169 2.212 11.635z" stroke-linejoin="round"/></g></svg>