<svg width="121" height="121" viewBox="0 0 121 121" xmlns="http://www.w3.org/2000/svg"><g fill="none" opacity=".528"><circle fill="#F4F2F2" cx="60.5" cy="60.5" r="60.5"/><circle fill="#E2E2E2" cx="61" cy="61" r="52"/><path d="M36.238 35.04h35.36c.611 0 1.197.24 1.63.666.431.426.673 1.004.672 1.607v45.552c0 1.253-1.03 2.269-2.302 2.269H42.496l-8.56-7.648V37.302c.004-1.25 1.033-2.262 2.302-2.262z" fill="#FCF0E3"/><path d="M42.496 85.134h10.947V35.04H36.238c-.611 0-1.197.24-1.63.666a2.253 2.253 0 00-.672 1.607v40.173l8.56 7.648z" fill="#FFF"/><path fill="#F9D9B8" d="M33.936 77.486h8.585l.01 7.648z"/><path fill="#F6C89A" d="M39.899 45.921H69.75v2.953H39.899zm0 7.446H69.75v2.953H39.899zm0 7.445H69.75v2.953H39.899zm0 7.8h19.662v2.953H39.899z"/><path d="M90.608 30.579a1.775 1.775 0 00.103-1.512 1.826 1.826 0 00-.378-.577l-.625-.634-.307-.308a1.703 1.703 0 00-1.216-.513c-.456 0-.894.185-1.216.513L69.81 44.964l-2.558 5.373a.514.514 0 00-.043.144.436.436 0 00.025.19.501.501 0 00.021.046.13.13 0 000 .032c.018.032.04.062.064.09l.024.021c.022.021.045.04.07.054h.03a.423.423 0 00.105.04h.025a.449.449 0 00.099 0h.035a.433.433 0 00.127-.04l5.326-2.561.088-.09 17.075-17.33c.11-.105.206-.224.286-.354z" fill="#201E1D" opacity=".15"/><path d="M67.901 42.932l17.164-17.42c.672-.68 1.76-.68 2.431 0l.929.946c.67.682.67 1.786 0 2.468L71.26 46.339l-3.36-3.407z" fill="#C21D47"/><path d="M71.261 46.339l.088-.086-3.363-3.414-.085.09-2.559 5.372a.46.46 0 00.089.513.443.443 0 00.504.093l5.326-2.568z" fill="#FFEAA3"/><path d="M66.094 46.729l-.752 1.572a.46.46 0 00.089.513.443.443 0 00.504.093l1.564-.752-1.405-1.426z" fill="#003F4F"/><path d="M65.321 48.638c.04.124.13.224.247.276a.439.439 0 00.367-.007l5.326-2.565 17.164-17.416c.67-.682.67-1.786 0-2.468l-.625-.634-22.479 22.814z" fill="#201E1D" opacity=".15"/></g></svg>