<svg width="676" height="676" viewBox="0 0 676 676" xmlns="http://www.w3.org/2000/svg"><g fill="none" fill-rule="evenodd"><path d="M238.763 326.396c52.08-16.922 108.016 11.58 124.937 63.659 16.922 52.08-11.579 108.016-63.658 124.938-52.08 16.921-108.017-11.58-124.938-63.66-16.922-52.079 11.58-108.015 63.659-124.937zm111.78 67.934c-14.561-44.812-62.692-69.337-107.505-54.776-44.813 14.56-69.337 62.692-54.776 107.504 14.56 44.813 62.692 69.337 107.504 54.777 44.813-14.56 69.337-62.692 54.777-107.505zM518.95 173.784c66.245 17.75 105.558 85.84 87.807 152.086-17.75 66.244-85.841 105.557-152.086 87.806-66.244-17.75-105.557-85.841-87.807-152.086a8.664 8.664 0 0116.737 4.485c-15.273 57.001 18.554 115.591 75.555 130.865 57.001 15.273 115.591-18.554 130.865-75.555 15.12-56.431-17.882-114.42-73.852-130.394l-1.703-.47a8.664 8.664 0 114.484-16.737zM155.94 53.352c69.698-21.31 143.474 17.918 164.783 87.617 21.309 69.698-17.919 143.474-87.617 164.783-69.698 21.308-143.474-17.919-164.783-87.617C47.014 148.437 86.241 74.66 155.94 53.352zm147.173 93c-18.335-59.973-81.817-93.726-141.79-75.39-59.973 18.335-93.726 81.816-75.39 141.79 18.335 59.972 81.816 93.726 141.79 75.39 59.972-18.335 93.726-81.817 75.39-141.79z" fill="#E3E7E9"/><path d="M526.889 282.58c3.882-3.241 8.456-4.156 13.722-2.745 5.624 1.507 9.223 4.588 10.798 9.243 1.575 4.656 1.25 11.134-.974 19.436-2.212 8.257-5.274 14.014-9.184 17.271-3.91 3.257-8.5 4.18-13.766 2.77-5.578-1.495-9.12-4.704-10.623-9.628-1.503-4.923-1.202-11.312.903-19.167 2.2-8.212 5.242-13.939 9.124-17.18zm-18.877-11.336l4.887 1.31-10.799 40.301 9.105 2.44-1.973 7.364-26.712-7.158 1.973-7.364 9.306 2.494 7.085-26.444 2.224-4.284-4.271 3.09-7.053 2.486-2.337-6.007 18.565-8.228zm30.56 15.937c-2.679-.717-4.98.15-6.904 2.6-1.924 2.45-3.657 6.553-5.2 12.31-1.46 5.446-1.995 9.81-1.607 13.096.387 3.285 1.942 5.292 4.665 6.021 2.633.706 4.928-.138 6.885-2.532 1.957-2.393 3.73-6.558 5.32-12.494 1.448-5.4 1.986-9.73 1.615-12.986-.371-3.256-1.963-5.261-4.775-6.015zm-50.136-21.183l5.772 4.704-38.395 47.689-5.735-4.838 38.358-47.555zm-51.524-12.945l30.193 8.09-.682 2.545-30.62 39.296-8.502-2.278 25-31.977 3.824-2.491-4.196-.407-17.205-4.61 2.188-8.168zM191.007 194.53a7.596 7.596 0 013.14 10.274L170.94 248.45a7.619 7.619 0 01-10.304 3.15l-19.864-10.561a7.596 7.596 0 01-3.14-10.273 7.615 7.615 0 0110.281-3.157l13.146 6.949 19.667-36.892a7.605 7.605 0 0110.28-3.137zm87.666-5.251a7.619 7.619 0 01-5.058 9.514l-58.289 17.82a7.619 7.619 0 11-4.455-14.572l58.289-17.82a7.619 7.619 0 019.513 5.058zm-118.109-47.545l11.138 36.43a3.81 3.81 0 01-2.529 4.757l-36.43 11.138a3.81 3.81 0 01-4.757-2.53l-11.138-36.43a3.81 3.81 0 012.529-4.757l36.43-11.138a3.81 3.81 0 014.757 2.53zm-10.23 15.384l-14.573 4.455 4.455 14.572 14.573-4.455-4.455-14.572zm110.519-26.128a7.619 7.619 0 01-5.059 9.514l-58.289 17.82a7.619 7.619 0 01-4.455-14.572l58.289-17.82a7.619 7.619 0 019.514 5.058z" fill="#455B6A"/><path d="M520.287 168.797c-7.376-1.976-14.957 2.4-16.934 9.777-1.948 7.273 2.28 14.746 9.471 16.847l.306.086c54.247 14.535 86.44 70.295 71.904 124.542-14.39 53.705-69.184 85.794-122.914 72.326l-1.628-.422c-7.376-1.976-14.957 2.401-16.933 9.777-1.976 7.375 2.4 14.957 9.776 16.933 68.999 18.488 139.92-22.459 158.409-91.457 18.488-68.999-22.459-139.92-91.457-158.409zM293.545 372.853L258.62 440.52l-27.262-14.76a10.587 10.587 0 00-14.247 4.63 10.587 10.587 0 004.629 14.247l36.756 19.598a10.587 10.587 0 0014.247-4.63l39.69-77.156c2.647-5.195.577-11.567-4.64-14.225a10.587 10.587 0 00-14.248 4.629z" fill="#B1063A"/><path d="M347.91 626c104.207 0 180.127-15.468 180.127-27.274 0-11.806-84.477-27.791-188.685-27.791-104.207 0-188.684 15.985-188.684 27.791 0 11.806 93.034 27.274 197.241 27.274z" fill="#ECEEF0"/></g></svg>