<svg xmlns="http://www.w3.org/2000/svg" xmlns:xlink="http://www.w3.org/1999/xlink" viewBox="0 0 264.62 230.45"><style>.AS{fill:#86283c}.AT{fill:none}.AU{stroke-linecap:round}.AV{stroke-linejoin:round}.AW{fill:#ffc9b8}.AX{fill:#66a0be}.AY{fill:#ae3e5a}.AZ{fill:#006192}.Aa{fill:#c21d47}.Ab{stroke-width:9}.Ac{fill:#89713d}</style><defs><linearGradient id="B" x1="226.39" y1="166.41" x2="226.39" y2="115.44" xlink:href="#h"><stop offset="0" stop-color="#3381a8"/><stop offset=".79" stop-color="#006192"/></linearGradient><linearGradient id="R" x1="59.78" y1="52" x2="59.78" y2="106.07" xlink:href="#h"><stop offset="0" stop-color="#437381"/><stop offset="1" stop-color="#201e1d"/></linearGradient><linearGradient id="C" x1="217.07" y1="89.35" x2="217.07" y2="15.88" xlink:href="#h"><stop offset="0" stop-color="#68aa61"/><stop offset=".1" stop-color="#7cb576"/><stop offset=".41" stop-color="#b4d5b0"/><stop offset=".67" stop-color="#ddecdb"/><stop offset=".88" stop-color="#f6faf5"/><stop offset="1" stop-color="#fff"/></linearGradient><linearGradient id="D" x1="217.574" y1="72.96" x2="217.715" y2="58.81" xlink:href="#h"><stop offset=".25" stop-color="#ffd8ca"/><stop offset="1" stop-color="#ffa183"/></linearGradient><linearGradient id="E" x1="217.57" y1="39.08" x2="217.57" y2="78.56" xlink:href="#h"><stop offset=".01" stop-color="#ffe9e1"/><stop offset=".97" stop-color="#ffa082"/></linearGradient><linearGradient id="F" x1="215.49" y1="54.7" x2="220.71" y2="54.7" xlink:href="#h"><stop offset="0" stop-color="#fb3847"/><stop offset="1" stop-color="#86283c"/></linearGradient><linearGradient id="G" x1="163" y1="181.59" x2="163" y2="129.02" xlink:href="#B"/><linearGradient id="H" x1="164.51" y1="183.56" x2="164.51" y2="134.5" xlink:href="#h"><stop offset="0" stop-color="#ffe4da"/><stop offset=".97" stop-color="#ff9676"/></linearGradient><linearGradient id="I" x1="180.65" y1="181.59" x2="180.65" y2="129.02" xlink:href="#B"/><linearGradient id="J" x1="179.15" x2="179.15" xlink:href="#H"/><linearGradient id="K" x1="171.52" y1="102.7" x2="171.52" y2="138.49" xlink:href="#F"/><linearGradient id="L" x1="171.51" y1="88.59" x2="171.51" y2="69.78" xlink:href="#h"><stop offset=".12" stop-color="#ffd8ca"/><stop offset=".66" stop-color="#ffa183"/></linearGradient><linearGradient id="M" x1="171.43" y1="51.44" x2="171.43" y2="119.44" xlink:href="#h"><stop offset="0" stop-color="#ffede6"/><stop offset=".97" stop-color="#ff9676"/></linearGradient><linearGradient id="N" x1="169.23" y1="72.53" x2="175.1" y2="72.53" xlink:href="#F"/><linearGradient id="O" x1="171.91" y1="107.67" x2="171.91" y2="144.25" xlink:href="#F"/><linearGradient id="P" x1="48.145" y1="164.068" x2="47.625" y2="93.402" xlink:href="#B"/><linearGradient id="Q" x1="78.222" y1="177.838" x2="77.702" y2="107.186" xlink:href="#B"/><linearGradient id="A" x1="207.73" y1="169.26" x2="207.73" y2="118.3" xlink:href="#h"><stop offset="0" stop-color="#3381a8"/><stop offset=".59" stop-color="#076c97"/><stop offset=".79" stop-color="#006192"/></linearGradient><linearGradient id="S" x1="59.4" y1="55.67" x2="59.4" y2="35.49" xlink:href="#h"><stop offset="0" stop-color="#ffd8ca"/><stop offset=".81" stop-color="#ff9676"/></linearGradient><linearGradient id="T" x1="59.79" y1="22.45" x2="59.79" y2="95.68" xlink:href="#h"><stop offset=".01" stop-color="#ffe0d4"/><stop offset=".36" stop-color="#ffc1ac"/><stop offset=".76" stop-color="#ffa285"/><stop offset=".97" stop-color="#ff9676"/></linearGradient><linearGradient id="U" x1="55.85" y1="50.36" x2="63.88" y2="50.36" xlink:href="#F"/><linearGradient id="V" x1="118.57" y1="53.83" x2="118.57" y2="165.94" xlink:href="#h"><stop offset="0" stop-color="#68aa61"/><stop offset=".37" stop-color="#40632f"/></linearGradient><linearGradient id="W" x1="100.869" y1="288.626" x2="100.869" y2="286.224" xlink:href="#h"><stop offset="0" stop-color="#ffd8ca"/><stop offset=".97" stop-color="#ff9676"/></linearGradient><linearGradient id="X" x1="133.771" y1="186.216" x2="133.771" y2="183.814" xlink:href="#W"/><linearGradient id="Y" x1="99.94" y1="18.62" x2="99.94" y2="170.53" xlink:href="#V"/><linearGradient id="Z" x1="135.42" y1="31.67" x2="135.42" y2="183.58" xlink:href="#V"/><linearGradient id="a" x1="118.955" y1="56.1" x2="119.112" y2="40.41" xlink:href="#S"/><linearGradient id="b" x1="119.12" y1="11.53" x2="119.12" y2="53.3" xlink:href="#W"/><linearGradient id="c" x1="123.5" y1="49.75" x2="115.73" y2="49.75" xlink:href="#F"/><linearGradient id="d" x1="119.61" y1="103.97" x2="119.61" y2="72.72" xlink:href="#h"><stop offset=".19" stop-color="#003f4f"/><stop offset="1" stop-color="#105364"/></linearGradient><linearGradient id="h" gradientUnits="userSpaceOnUse"/><path id="e" d="M215.6 46.1a1 1 0 00.05-.31c0-.7-.78-1.3-1.73-1.3s-1.73.58-1.73 1.3a1 1 0 00.05.31z"/><path id="f" d="M56.5 35.72a1.51 1.51 0 00.08-.48c0-1.1-1.2-2-2.68-2s-2.67.9-2.66 2a1.52 1.52 0 00.08.48z"/><path id="g" d="M117.7 24.8a1.38 1.38 0 00.07-.44c0-1-1.1-1.8-2.45-1.8s-2.43.82-2.43 1.83a1.38 1.38 0 00.08.44z"/></defs><path d="M243.78 109.9c4-12.67-2.9-29.66-12.33-41.17M197.78 108c-8.3-13.3-6.3-31.42 5-39.27" stroke="#68aa61" stroke-width="8" class="AT AU AV"/><path d="M244.7 129.36c5.6-2.25 13.46 2.65 17.53 10.95s2.8 16.85-2.8 19.1-13.46-2.65-17.53-10.95-2.8-16.85 2.8-19.1zm1.3 17.28c3 6.22 8.55 10 12.3 8.55s4.3-7.76 1.25-14-8.55-10-12.3-8.55-4.35 7.78-1.25 14zm-1.27-19.7c.13-.75.76-4.76-.26-5.2l-3.5-.86c-1.56-.16-1.54.73-1.32 2.4l.32 2.4-2.55-.62-.3-3.58c-.26-2.3 1.18-3.47 3.2-3.07l4.26.9c3 .68 2.88 2.24 3 3.95l.17 4.42-1.5-.46z" class="AY"/><path d="M229.67 161.1l20.85.65a3.47 3.47 0 003.71-3.23l.45-22.25c.14-7-6-12.9-13.6-13.15h-.4c-7.63-.24-14 5.3-14.12 12.3l-.45 22.25a3.56 3.56 0 003.58 3.44z" fill="#a01c3d"/><path d="M240.32 157.77l9.45.3a1.89 1.89 0 002-1.76l.3-15.35a6.17 6.17 0 00-6.2-6h-.8a6 6 0 00-6.43 5.6l-.3 15.35a1.94 1.94 0 001.98 1.87z" class="AY"/><path d="M242 140.18l7.92.37a.74.74 0 00.8-.67.75.75 0 00-.74-.74l-7.92-.37a.74.74 0 00-.8.67.75.75 0 00.74.74z" fill="#a01c3d"/><path d="M230.6 146.92h.08a2.78 2.78 0 003-2.53l.3-8.13a2.83 2.83 0 00-2.8-2.8h-.08a2.78 2.78 0 00-3 2.53l-.3 8.13a2.83 2.83 0 002.8 2.8z" class="AY"/><path d="M200.43 105.33l-1.7 1.23-3.22 2.5a11.82 11.82 0 01-1.58 1l4.87 6.06a4.48 4.48 0 004.42 1.29 4.37 4.37 0 001.43-.65 3.45 3.45 0 00.72-5.21l-4.93-6.23z" class="AW"/><path d="M198.37 103.78l-6.3 3.6a19.91 19.91 0 002.76 4.66l7.67-5a18.4 18.4 0 01-2.25-4.43z" fill="#fff"/><path d="M240.1 109l1.92 1.06 3.65 2.22a11.71 11.71 0 001.74.79l-3.64 7.48a4.19 4.19 0 01-5.65 1.69 4.12 4.12 0 01-1.71-5.6c1.38-2.48 2.58-5.04 3.7-7.64z" class="AW"/><path d="M241.85 107l6.88 2.88a22.77 22.77 0 01-1.83 5.58l-8.5-4.18a21.41 21.41 0 001.37-5.24z" fill="#f4f4f4"/><path d="M214.44 192a1.46 1.46 0 001.54-1.37l-6.6-4.63c-10.1 1.93-12.6 4.43-12 6z" fill="#fdd66e"/><path d="M209.4 186a54.19 54.19 0 00-5.87 1.42V192h10.92a1.46 1.46 0 001.54-1.37z" fill="#fbb800"/><path d="M197.73 190.47a1.48 1.48 0 00-.32 1.49h17a1.46 1.46 0 001.54-1.37v-.12z" fill="#fff"/><path d="M215.98 187.76v-66.5h-16.5l9.8 64.7 6.7 1.8z" fill="url(#A)"/><path d="M208.6 181.57l.7 4.4 6.7 4.66v-4.24l-7.4-4.82z" class="AX"/><path d="M219.68 192a1.46 1.46 0 01-1.54-1.37l6.6-4.6c10.1 1.93 12.6 4.43 12 6z" fill="#fdd66e"/><path d="M224.72 186a54.19 54.19 0 015.87 1.42V192h-10.9a1.46 1.46 0 01-1.54-1.37z" fill="#fbb800"/><path d="M236.4 190.47a1.48 1.48 0 01.32 1.49h-17a1.46 1.46 0 01-1.54-1.37v-.12z" fill="#fff"/><path d="M218.14 187.76v-66.5h16.5l-9.8 64.7-6.7 1.8z" fill="url(#B)"/><path d="M225.53 181.57l-.7 4.4-6.7 4.66v-4.24l7.4-4.82z" class="AX"/><path d="M231.8 106.88c-4.9-14.72-2.63-32 2.3-42.24-7.6-7.35-28.56-4.95-34 0 5.8 9.1 6.73 28.16 2.3 42.24z" fill="url(#C)"/><path d="M204 100.36a56.62 56.62 0 01-1.61 6.52h29.43a51 51 0 01-1.68-6.52z" fill="#97c492"/><path d="M234.66 121.4c.7-2.8-.62-12.66-2.88-14.52h-29.43c-2.92 2.5-3.36 11.7-2.73 14.52z" class="AZ"/><path d="M204.72 54.6V37.23c0-6 5.68-10.85 12.62-10.85h.44c6.94 0 12.62 4.88 12.62 10.85V54.6z" fill="#ce8e27"/><path d="M228.34 61.5c0 4.74-10.74 8-10.74 8s-10.74-3.3-10.74-8 4.7-5.5 10.63-5.5 10.85.76 10.85 5.5z" fill="#68aa61"/><path d="M208.94 51l-1.6.2a.51.51 0 01-.58-.39l-.85-5.3a.47.47 0 01.43-.52l1.6-.2a.51.51 0 01.58.39l.85 5.3a.47.47 0 01-.43.52zm17.36 0l1.6.2a.51.51 0 00.58-.39l.85-5.3a.47.47 0 00-.43-.52l-1.6-.2a.51.51 0 00-.58.39l-.85 5.3a.47.47 0 00.43.52z" fill="#ffcbba"/><path d="M217.5 69.47s-4.5-5.3-4.5-7.53l.06-4.66h9l-.06 4.66c0 2.22-4.5 7.53-4.5 7.53z" fill="url(#D)"/><path d="M219.28 59.34a4 4 0 01-3.24 0c-2.7-1.18-7.82-3.4-7.82-9.6v-10.3c0-4.52 4.16-8.23 9.24-8.23h.22c5.08 0 9.24 3.7 9.24 8.23v10.35c-.01 5.95-5 8.32-7.64 9.56z" fill="url(#E)"/><path d="M207.55 30.46c-5.4 11.1 9.58 10.3 9.58 10.3L217 35.2c2 3.87 6 6.13 13.38 7.48.4-6.37-.25-10-2.08-12.17-8-8.26-18.3-3.23-20.75-.04z" fill="#d69f48"/><g class="AS"><use xlink:href="#e"/><use xlink:href="#e" x="7.9" y="-.02"/><path d="M213.5 52.55v.06c0 1.44 1.88 2.6 4.2 2.6s4.2-1.17 4.2-2.6v-.06z"/></g><path d="M218.25 54.2a9.86 9.86 0 00-2.14.41 5.46 5.46 0 00-.62.23 6.17 6.17 0 002.21.39 5.67 5.67 0 003-.79 6.51 6.51 0 00-2.45-.24z" fill="url(#F)"/><path d="M220.3 43.44a3.09 3.09 0 013.65.57m-12.25.13a3.07 3.07 0 013.61-.73" stroke="#86283c" stroke-width=".25" class="AT AU AV"/><g class="AZ"><rect x="145.94" y="74.34" width="50.82" height="42.05" rx="8.85"/><path d="M187.26 139.5h-30.73l-1.1-9.83h32.96l-1.12 9.83z"/></g><path d="M162.3 190.8c-.57-.18-15.7 6.5-15.7 6.5v2h24v-4.85z" class="Aa"/><path d="M162.15 190.65l-15.53 6.66 5.26.38 12.8-6.23-2.52-.8z" fill="#d04f70"/><path d="M146.6 197.3h23.98v1.98H146.6z" fill="#efefef"/><path d="M170.6 160.66v-24.24l-15.17-6.75 3 31z" fill="url(#G)"/><path d="M158 156.38l.42 4.28h12.16v-4.28H158z" class="AX"/><path d="M158.43 160.7l3.5 30.12s8.67 6.2 8.67 5.54V160.7z" fill="url(#H)"/><path d="M160.6 180.2l1.33 10.6s8.67 6.2 8.67 5.54V180.2z" fill="#eae8e8"/><path d="M181.35 190.8c.57-.18 15.7 6.5 15.7 6.5v2h-24v-4.85z" class="Aa"/><path d="M181.5 190.65l15.53 6.66-5.26.38-12.8-6.23 2.53-.8z" fill="#d04f70"/><path d="M173.06 197.3h23.98v1.98h-23.98z" fill="#efefef"/><path d="M173.06 160.66v-24.24l15.17-6.75-3 31z" fill="url(#I)"/><path d="M185.65 156.38l-.42 4.28h-12.17v-4.28h12.6z" class="AX"/><path d="M185.23 160.7l-3.5 30.12s-8.67 6.2-8.67 5.54V160.7z" fill="url(#J)"/><path d="M183.07 180.2l-1.33 10.6s-8.67 6.2-8.67 5.54V180.2z" fill="#eae8e8"/><path d="M185.36 81.46L178 78.53V79l-12.9-.2v-.14l-7.38 2.78a7.38 7.38 0 00-4.95 7.21l2.66 41h33l1.9-41.13a7.4 7.4 0 00-4.98-7.05z" fill="url(#K)"/><path d="M188.62 125.38l-.22 4.3h-32.92l-.28-4.3h33.42z" class="AS"/><path d="M155.3 89c-4.67 2.86-13.64 19.76-4.2 27.66" stroke="#fb3847" class="AT AU AV Ab"/><path d="M156.6 114.2c0 .42.5 9 .5 9h12.17a5 5 0 004.93-3.45 4.08 4.08 0 00.14-1.35c-.15-2.42-2.5-4.27-5.23-4.27z" fill="#ffd8ca"/><path d="M158.63 123.58l2.36-9.55-6.83-1.62-2.28 9.86 6.75 1.3z" class="AS"/><path d="M188.24 89c5.83 4 13.7 16.92 4.2 27.66" stroke="#fb3847" class="AT AU AV Ab"/><path d="M186.93 114.2c0 .42-.5 9-.5 9h-12.17a5 5 0 01-4.93-3.45 4.08 4.08 0 01-.14-1.35c.15-2.42 2.5-4.27 5.23-4.27z" fill="#ffd8ca"/><path d="M184.9 123.58l-2.36-9.55 6.83-1.62 2.28 9.86-6.75 1.3z" class="AS"/><path d="M154.2 111.17l-1.52-22.8c0-4.16 3-6.76 6.8-7.7zm35.13 0l1.52-22.8c0-4.16-3-6.76-6.8-7.7z" class="AX"/><path d="M183.6 77.85c0 5.33-12.1 12.26-12.1 12.26s-12.1-6.93-12.1-12.26 5.4-5.74 12.1-5.74 12.1.4 12.1 5.74z" class="AS"/><path d="M171.5 89.43s-6.4-6.43-6.4-9.56v-6.6h12.8v6.6c0 3.13-6.4 9.56-6.4 9.56z" fill="url(#L)"/><path d="M184.33 69.1h-.18a1.28 1.28 0 01-1.15-1.43l.5-4.78a1.27 1.27 0 011.38-1.14h.18a1.28 1.28 0 011.12 1.41L185.7 68a1.27 1.27 0 01-1.38 1.11zm-25.88-.1h.18a1.28 1.28 0 001.12-1.41l-.5-4.78a1.27 1.27 0 00-1.38-1.14h-.18a1.28 1.28 0 00-1.12 1.41l.5 4.78a1.27 1.27 0 001.38 1.14z" fill="#ffb69f"/><path d="M161.73 47.34a2.53 2.53 0 00-2.66 2.38l.06 17.4c0 5.8 5.43 8.55 7.82 10.47a4 4 0 002.49.86h3.78a4.7 4.7 0 003-1c2.48-2 7.6-4.5 7.6-10.3V49.88a2.72 2.72 0 00-2.86-2.55z" fill="url(#M)"/><path d="M183.8 62.16h-2.63V48h1.07a1.45 1.45 0 011.52 1.39zm-24.74-12.32h2.63v12.32h-2.63z" fill="#9e5363"/><g class="AS"><path d="M183.78 51.27l.12-2.08c0-4.1-2.6-5.63-5.17-5.63h-12.9c-2.2 0-5 .7-5 3.08-2.6.2-1.8 3.65-1.68 4.7z"/><path d="M185.84 49.2c0-4.1-4.52-5.63-7.1-5.63h-12.9c-2.2 0-5 .7-5 3.08-3.6.3-2.55 3.83-2.55 3.83.48 2.57 7.22 5.34 12.58 5.47a21.87 21.87 0 01-1.21-3.13c3.27 2.77 9.4 4.2 16.18 3.87zM167 70.12v.07c0 1.62 2.1 2.94 4.72 2.94s4.72-1.32 4.72-2.94v-.07z"/></g><path d="M172.34 72a11.1 11.1 0 00-2.41.46 6.14 6.14 0 00-.69.26 6.94 6.94 0 002.49.44 6.38 6.38 0 003.38-.89 7.33 7.33 0 00-2.77-.27z" fill="url(#N)"/><path d="M169.35 62.86a1.11 1.11 0 00.06-.35c0-.8-.87-1.45-2-1.45s-2 .65-2 1.45a1.11 1.11 0 00.06.35zm8.9-.03a1.11 1.11 0 00.06-.35c0-.8-.87-1.45-2-1.45s-2 .65-2 1.45a1.11 1.11 0 00.06.35zm1.38-2.33l-4.83-1.07a.26.26 0 01-.21-.31l.22-.77a.29.29 0 01.35-.19l4.85 1.07a.26.26 0 01.21.31l-.22.77a.29.29 0 01-.37.19zm-10.54-1.05l-4.86.95a.29.29 0 01-.34-.19l-.2-.78a.26.26 0 01.22-.3l4.86-.95a.29.29 0 01.34.19l.2.78a.26.26 0 01-.22.3z" class="AS"/><path d="M161.3 110.4l-3.44 15.04h28.13L183 110.4h-21.7z" fill="url(#O)"/><path d="M60.62 211.8l-9.6.04v-1.77l9.6-1.74.02 3.47z" fill="#713f2c"/><path d="M49.5 200.4c-.47-.15-10.12 5.8-15.17 7.72a4.41 4.41 0 00-3 4.07v.36L44 212.3l16.63-3.1v-4.7z" fill="#93533d"/><path d="M79.47 124.6l-35.76.15-1.66-12.2 38.16-.16-.74 12.2z" class="AZ"/><path d="M42.34 113.52l6.74 86.9s11.5 7 11.5 6.3l-.44-85.53z" fill="url(#P)"/><path d="M63 211.78l9.62-.04-.01-1.77L63 208.3v3.47z" fill="#713f2c"/><path d="M74 200.3c.46-.16 10.18 5.73 15.25 7.6a4.42 4.42 0 013.05 4v.36l-12.64-.13L63 209.2v-4.7z" fill="#93533d"/><path d="M80.27 113.36l-5.83 86.94S63 207.43 63 206.7l-.44-85.53z" fill="url(#Q)"/><path d="M44.6 65.35C31.54 73.5 26.86 93 40 97.68" stroke="#437381" stroke-width="11" class="AT AU AV"/><path d="M41.48 115.22l39.22-.16L82.2 69c0-5.8-5.34-10.5-11.86-10.47l-20.5.08c-6.52 0-11.78 4.76-11.75 10.56z" fill="url(#R)"/><path d="M54.3 66.07h11a3.33 3.33 0 003.49-3.14l-.07-14.2-18 .07.06 14.2a3.33 3.33 0 003.52 3.07z" fill="url(#S)"/><path d="M68.68 55.57C68 56.52 61.45 66 61.45 66l5.65 6 5.5-13.25zm-18.3.33l7.55 10.06-5.6 6.02-5.6-13.16 3.65-2.92z" fill="#437381"/><path d="M77.54 66.5C92.22 75.9 95.8 91.14 66.7 87.38" stroke="#437381" stroke-width="11" class="AT AU AV"/><path d="M72.05 45.13l2 .48a.67.67 0 00.81-.41L77 38a.59.59 0 00-.46-.72l-2-.48a.67.67 0 00-.81.41l-2.18 7.17a.59.59 0 00.5.75zm-26.83.7l2-.26a.6.6 0 00.56-.66l-1.18-7.36a.65.65 0 00-.75-.5l-2 .26a.6.6 0 00-.56.66l1.18 7.36a.65.65 0 00.75.5z" fill="#ffd6c9"/><path d="M43.75 20.8c0-1.6 1-4.1 2.4-5a7.62 7.62 0 015-1.85l17.5-.07A7.58 7.58 0 0174 15.95a6.88 6.88 0 012.15 4.72L73.7 41.93l-.23-16.7a7.65 7.65 0 01-4.73 1.63l-17.5.07a7.66 7.66 0 01-4.83-1.65l-.17 17z" class="AS"/><path d="M73.83 25.16l.1 16.95C73.95 48.4 69 54.3 63 54.3h-5.7c-6.06 0-11-5.82-11.08-12.12l-.1-16.95a4.31 4.31 0 014.2-4.41l19.27-.08a4.32 4.32 0 014.23 4.41z" fill="url(#T)"/><path d="M76.17 21.02l-2.48 20.9-.15-18.5 2.63-2.4zM46.4 23.68l-.17 18.62-2.48-21.35 2.65 2.73z" fill="#9f5565"/><g class="AS"><path d="M49.7 31.92L56 30.5a.33.33 0 00.27-.4l-.3-1a.38.38 0 00-.45-.24l-6.3 1.42a.33.33 0 00-.27.4l.3 1a.38.38 0 00.46.24zm14.15-1.42l6.35 1.2a.38.38 0 00.44-.26l.24-1a.34.34 0 00-.29-.4l-6.36-1.2a.38.38 0 00-.44.26l-.24 1a.34.34 0 00.3.4zM50.42 43.86c3.4-1.42 3.68-4.42 6.24-4.8a3.86 3.86 0 005.68 0c2.3.34 2.6 2.85 6 4.84-3.45.1-7.13 0-8.88-1.77-1.27 1.5-5.76 2.14-9.04 1.72zm11.9-24.7l-7.82 5.16a31.45 31.45 0 001.78-3.6c-.22.07-5.07 2.3-5.07 2.3l3.2-3.6 8-.57m3.56-5l-24.05.1 5.36 2.93L66 13.86z"/><path d="M68.25 13.85l-22-1.82c.37.32 3.63 4.27 3.63 4.27z"/><use xlink:href="#f"/><use xlink:href="#f" x="12.18" y="-.09"/><path d="M53.07 46.67v.1c0 2.22 2.9 4 6.48 4S66 48.94 66 46.72v-.1z"/></g><path d="M60.38 49.17a15.18 15.18 0 00-3.3.65 8.4 8.4 0 00-.95.36 9.51 9.51 0 003.41.59 8.72 8.72 0 004.62-1.23 10 10 0 00-3.78-.37z" fill="url(#U)"/><path d="M39.74 95.94l-.4-9.85a.79.79 0 00-.85-.7l-2.55.08a.77.77 0 00-.79.75l.4 9.85a.79.79 0 00.85.7l2.6-.07a.77.77 0 00.74-.76z" fill="#ffb097"/><path d="M41.33 99.78h10.22a1 1 0 001-1.16L48 79.3a1.65 1.65 0 00-1.58-1.15H36.2a1 1 0 00-1 1.16l4.58 19.27a1.65 1.65 0 001.55 1.19z" fill="#76bde2"/><g class="AW"><path d="M51.3 104.23l-13.8.33a1.79 1.79 0 01-1.92-1.62l-.27-8.87a1.76 1.76 0 011.82-1.71l13.8-.36a2.56 2.56 0 012.74 2.32l.23 7.44a2.52 2.52 0 01-2.6 2.47z"/><path d="M56.34 96.52L38 97a1 1 0 01-1.06-.89l-.1-2.87a1 1 0 011-.94l18.38-.44a1 1 0 011.06.89l.1 2.87a1 1 0 01-1.04.9zM54.68 84.3c-.4 4 3 7.57 7.47 7.92s8.5-2.63 8.9-6.65-3-7.57-7.47-7.92-8.5 2.63-8.9 6.65z"/><path d="M52.27 86.27L64.8 79.9a.87.87 0 00.38-1.25l-1.6-2.5a1.11 1.11 0 00-1.41-.34l-12.53 6.37a.87.87 0 00-.38 1.25l1.6 2.5a1.11 1.11 0 001.41.34z"/></g><path d="M131.9 55.3l5.1-40.06c0-8.4-7.8-15.24-17.23-15.2-9.43 0-17.1 6.94-17.07 15.34L100 55.62z" class="Aa"/><path d="M95.57 77.6c-13.3-.88-5.44-18.55 8.16-23.68M143.8 89.4c9.7-14.9 6.75-24.9-6.46-34.86" stroke="#68aa61" class="AT AU AV Ab"/><path d="M142.37 130c1.45-8.26-1.54-17.66-3.83-20.6l-38.46-.14c-5.4 7.74-4.33 13-3.44 20.62z" class="Ac"/><path d="M138.9 109.66c-10.38-18.66-1.7-41.28 2.8-57.52-10.23-9.8-38.3-6.47-45.63.2 6.48 19.52 12.46 38.9 3.4 57.2z" fill="url(#V)"/><path d="M114.25 230.37a3.76 3.76 0 004-3.45v-5.12h-8.27l-6.08 1.58c-1.77.73-11.88 7-9.9 7z" fill="url(#W)"/><path d="M103.77 223.3l-10.45 3.22c-1.77.73-1.32 3.93.65 3.92l20.28-.08a3.76 3.76 0 004-3.45v-2.74c-1.8.28-7.67 4.22-14.48-.87z" fill="#201e1d"/><path d="M118.32 224.15l-.5-95.37-21.36.08 13.16 93 8.7 2.28z" class="Ac"/><path d="M125.8 230.32a3.77 3.77 0 01-4-3.42v-5.12h8.27l6.1 1.53c1.78.72 12 6.95 10 7z" fill="url(#X)"/><path d="M136.2 223.18l10.48 3.13c1.78.72 1.36 3.92-.6 3.93l-20.28.08a3.77 3.77 0 01-4-3.42v-2.74c1.75.27 7.65 4.17 14.4-.98z" fill="#201e1d"/><path d="M121.66 224.14l-.5-95.38 21.36-.1-12.2 93.1-8.67 2.36z" class="Ac"/><path d="M110.7 131.86l-.44-84.95C104 48.13 95 50.12 92.4 52.83c6.5 22.06 7.18 58.33-1.88 79z" fill="url(#Y)"/><path d="M126 131.12l-.44-84.95c6.24 1.16 15.26 3.08 17.93 5.77-6.26 22.1-6.57 58.4 2.7 79z" fill="url(#Z)"/><path d="M107.6 29.6l-1.8.2a.57.57 0 01-.64-.45l-.83-6.1a.53.53 0 01.5-.57l1.8-.2a.57.57 0 01.64.45l.83 6.1a.53.53 0 01-.5.57zm24.7.84l-1.8-.18a.53.53 0 01-.51-.57l.76-6.1a.57.57 0 01.64-.45l1.8.18a.53.53 0 01.51.57l-.77 6.12a.57.57 0 01-.63.44z" fill="#ff9676"/><path d="M119.14 52.67a5.93 5.93 0 01-5.66-6.24v-7.25h11.42v7.25a6.07 6.07 0 01-5.76 6.24z" fill="url(#a)"/><path d="M107.14 10.55l-.05 1.27.1 17.35c0 7.23 5.47 13.12 12.07 13.1h.3c6.6 0 12-6 11.93-13.2l-.1-17.35c0-.44 0-.86-.07-1.26z" fill="url(#b)"/><g class="AS"><use xlink:href="#g"/><use xlink:href="#g" x="10.92" y=".04"/></g><g fill="#fff"><path d="M113.53 44.7l5.7 7.68-4.35 4.45-4.38-9.74z"/><path d="M124.9 44.94l-5.8 7.47 4.4 4.4 4.27-9.74-2.87-2.13z"/></g><path d="M126.63 33.4v.1c0 2.15-2.78 3.9-6.23 3.92s-6.26-1.72-6.27-3.87v-.1z" class="AS"/><path d="M119.58 35.86a14.71 14.71 0 013.2.6 8.14 8.14 0 01.92.34 9.19 9.19 0 01-3.3.6 8.45 8.45 0 01-4.48-1.15 9.7 9.7 0 013.66-.39z" fill="url(#c)"/><g fill="#cb3f63"><path d="M104.6 16.92c.53 1.08 4.05 23.54 4.05 23.54l2.9-38.54c-5.07 2.83-8.9 6.63-6.95 15z"/><path d="M136 16.56c-2.74 5-10.9 6.34-18.25 3.1s-11.08-9.87-8.33-14.82 10.9-6.34 18.25-3.1 11.05 9.87 8.33 14.82z"/></g><g class="AW"><path d="M104.4 73.9c.37 3.4-2.43 6.44-6.26 6.77s-7.23-2.17-7.6-5.58 2.43-6.44 6.26-6.77 7.2 2.17 7.6 5.58z"/><path d="M106.45 75.57l-10.68-5.32a.74.74 0 01-.34-1.06l1.33-2.13a.94.94 0 011.19-.3l10.68 5.32a.74.74 0 01.34 1.06l-1.33 2.13a.94.94 0 01-1.19.3z"/></g><path d="M142.74 87.68l.3-9.54a.76.76 0 01.81-.69l2.47.06a.75.75 0 01.77.72l-.3 9.54a.76.76 0 01-.81.69l-2.47-.06a.75.75 0 01-.77-.72z" fill="#ffb097"/><path d="M96.52 95.05L96.4 76c0-2.77 2.5-5 5.6-5l36-.18c3.1 0 5.64 2.22 5.66 5l.12 19.07c0 2.77-2.5 5-5.6 5l-36 .18c-3.1-.02-5.65-2.25-5.66-5.02z" fill="url(#d)"/><g class="AW"><path d="M131.63 95.8L145 96a1.73 1.73 0 001.85-1.59l.17-8.6a1.71 1.71 0 00-1.78-1.64L131.87 84a2.47 2.47 0 00-2.64 2.26l-.14 7.2a2.45 2.45 0 002.54 2.33z"/><path d="M126.66 88.37l17.8.28a1 1 0 001-.87l.06-2.78a1 1 0 00-1-.9l-17.8-.28a1 1 0 00-1 .87l-.06 2.78a1 1 0 001 .9z"/></g><path d="M34.78 9H2.26A2.26 2.26 0 000 11.26V29a2.26 2.26 0 002.26 2.26h21.42l5.95 5.95v-6h5.14A2.26 2.26 0 0037 29V11.26A2.26 2.26 0 0034.78 9z" fill="#97c492"/><path d="M229.4 2.9h31.45A2.19 2.19 0 01263 5.08V22.2a2.19 2.19 0 01-2.19 2.19h-20.68l-5.76 5.76V24.4h-5a2.19 2.19 0 01-2.19-2.19V5.08a2.19 2.19 0 012.22-2.19z" fill="#98c6d8"/></svg>