<svg id="Ebene_1" data-name="Ebene 1" xmlns="http://www.w3.org/2000/svg" viewBox="0 0 731 192"><defs><linearGradient id="Unbenannter_Verlauf" x1="-59.66" y1="519.13" x2="-58.66" y2="519.69" gradientTransform="matrix(177 0 0 -132 10667 68653.97)" gradientUnits="userSpaceOnUse"><stop offset="0" stop-color="#029b95"/><stop offset="1" stop-color="#03b2d6"/></linearGradient><linearGradient id="Unbenannter_Verlauf_2" x1="-58.61" y1="519.91" x2="-59.24" y2="518.91" gradientTransform="matrix(105 0 0 -132 6553 68653.97)" gradientUnits="userSpaceOnUse"><stop offset="0" stop-color="#ffc400"/><stop offset="1" stop-color="#ff7400"/></linearGradient><linearGradient id="Unbenannter_Verlauf_3" x1="-59.24" y1="518.91" x2="-58.61" y2="519.91" gradientTransform="matrix(105 0 0 -132 6708 68653.97)" gradientUnits="userSpaceOnUse"><stop offset="0" stop-color="#075dbe"/><stop offset="1" stop-color="#02dafd"/></linearGradient><linearGradient id="Unbenannter_Verlauf_4" x1="-58.91" y1="518.91" x2="-58.56" y2="519.91" gradientTransform="matrix(78 0 0 -132 5242 68653.97)" gradientUnits="userSpaceOnUse"><stop offset="0" stop-color="#f22a19"/><stop offset="1" stop-color="#f96464"/></linearGradient><style>.cls-2,.cls-3{fill:#747474;fill-opacity:.8}.cls-3{fill:#fff}</style></defs><rect x="107" y="26" width="177" height="132" rx="2" fill="url(#Unbenannter_Verlauf)"/><rect class="cls-2" x="107" y="26" width="177" height="45" rx="2"/><rect class="cls-3" x="113" y="47" width="88" height="18" rx="2"/><rect class="cls-3" x="113" y="32" width="40" height="9" rx="2"/><rect x="313" y="26" width="105" height="132" rx="2" fill="url(#Unbenannter_Verlauf_2)"/><rect class="cls-2" x="313" y="26" width="105" height="45" rx="2"/><rect class="cls-3" x="318" y="47" width="52.2" height="18" rx="2"/><rect class="cls-3" x="318" y="32" width="23.73" height="9" rx="2"/><rect x="468" y="26" width="105" height="132" rx="2" fill="url(#Unbenannter_Verlauf_3)"/><rect class="cls-2" x="468" y="26" width="105" height="45" rx="2"/><rect class="cls-3" x="474" y="47" width="52.2" height="18" rx="2"/><rect class="cls-3" x="474" y="32" width="23.73" height="9" rx="2"/><rect x="622" y="26" width="78" height="132" rx="2" fill="url(#Unbenannter_Verlauf_4)"/><rect class="cls-2" x="622" y="26" width="78" height="45" rx="2"/><rect class="cls-3" x="627" y="32" width="17.63" height="9" rx="2"/><rect class="cls-3" x="627" y="47" width="38.78" height="18" rx="2"/></svg>