<svg data-name="Ebene 1" xmlns="http://www.w3.org/2000/svg" viewBox="0 0 721.5 192"><path d="M-.5 182.07l723 .16" stroke-width="2" fill="none" stroke="#979797" stroke-linecap="square"/><path d="M0 .3l723 .3" fill="none" stroke="#979797" stroke-linecap="square"/><path d="M103.5 1.3v180.5M.5 1v180.5M206.5 1v180.5M309.5 1v180.5M412.5 1v180.5M515.5 1v180.5M618.5 1v180.5M721.5 1v180.5" stroke-dasharray="2" fill="none" stroke="#979797" stroke-linecap="square"/><path d="M98.5 186.3h10v5h-10zm-103-.3h10v5h-10zm206 .3h10v5h-10zm103 0h10v5h-10zm103 0h10v5h-10zm103 0h10v5h-10zm103 0h10v5h-10zm103 0h10v5h-10z" fill="#d8d8d8" fill-rule="evenodd"/></svg>