<svg width="731" height="192" viewBox="0 0 731 192" xmlns="http://www.w3.org/2000/svg"><defs><linearGradient x1="0%" y1="77.808%" x2="100%" y2="22.192%" id="a"><stop stop-color="#029B95" offset="0%"/><stop stop-color="#03B2D6" offset="100%"/></linearGradient><linearGradient x1="81.637%" y1="0%" x2="18.363%" y2="100%" id="b"><stop stop-color="#FFC400" offset="0%"/><stop stop-color="#FF7400" offset="100%"/></linearGradient><linearGradient x1="18.363%" y1="100%" x2="81.637%" y2="0%" id="c"><stop stop-color="#075DBE" offset="0%"/><stop stop-color="#02DAFD" offset="100%"/></linearGradient><linearGradient x1="32.541%" y1="100%" x2="67.459%" y2="0%" id="d"><stop stop-color="#F22A19" offset="0%"/><stop stop-color="#F96464" offset="100%"/></linearGradient></defs><g fill="none" fill-rule="evenodd"><path d="M4 181.5l723 1.25" stroke="#979797" stroke-width="2" stroke-linecap="square"/><path d="M4.5.25l723 .25" stroke="#979797" stroke-linecap="square"/><g opacity=".5"><path d="M108 1.25v180.5M5 1v180.5M211 1v180.5M314 1v180.5M417 1v180.5M520 1v180.5M623 1v180.5M726 1v180.5" stroke="#979797" stroke-linecap="square" stroke-dasharray="2"/><path fill="#D8D8D8" d="M103 186.25h10v5h-10zM0 186h10v5H0zm206 .25h10v5h-10zm103 0h10v5h-10zm103 0h10v5h-10zm103 0h10v5h-10zm103 0h10v5h-10zm103 0h10v5h-10z"/></g><g transform="translate(107 26)"><rect fill="url(#a)" fill-rule="nonzero" width="177" height="132" rx="2"/><rect fill-opacity=".8" fill="#747474" width="177" height="45" rx="2"/><rect fill-opacity=".8" fill="#FFF" x="6" y="21" width="88" height="18" rx="2"/><rect fill-opacity=".8" fill="#FFF" x="6" y="6" width="40" height="9" rx="2"/></g><g transform="translate(313 26)"><rect fill="url(#b)" fill-rule="nonzero" width="105" height="132" rx="2"/><rect fill-opacity=".8" fill="#747474" width="105" height="45" rx="2"/><rect fill-opacity=".8" fill="#FFF" x="5" y="21" width="52.203" height="18" rx="2"/><rect fill-opacity=".8" fill="#FFF" x="5" y="6" width="23.729" height="9" rx="2"/></g><g transform="translate(468 26)"><rect fill="url(#c)" fill-rule="nonzero" width="105" height="132" rx="2"/><rect fill-opacity=".8" fill="#747474" width="105" height="45" rx="2"/><rect fill-opacity=".8" fill="#FFF" x="6" y="21" width="52.203" height="18" rx="2"/><rect fill-opacity=".8" fill="#FFF" x="6" y="6" width="23.729" height="9" rx="2"/></g><g transform="translate(622 26)"><rect fill="url(#d)" fill-rule="nonzero" width="78" height="132" rx="2"/><rect fill-opacity=".8" fill="#747474" width="78" height="45" rx="2"/><rect fill-opacity=".8" fill="#FFF" x="5" y="6" width="17.627" height="9" rx="2"/><rect fill-opacity=".8" fill="#FFF" x="5" y="21" width="38.78" height="18" rx="2"/></g></g></svg>