<svg xmlns="http://www.w3.org/2000/svg" viewBox="0 0 123.48 131.46"><defs><style>.cls-1{fill:#201e1d;opacity:0.15;}.cls-2{fill:#fff;}.cls-3{fill:#c21d47;}.cls-4{fill:#eaf3e9;}.cls-5{fill:#a5cca0;}.cls-6{fill:#f8ae5f;}.cls-7{fill:#ffd55c;}.cls-8{fill:#ffb733;}.cls-9{fill:#f69f41;}.cls-10{fill:#79b373;}.cls-11{fill:#cae1c8;}.cls-12{fill:#bad8b6;}</style></defs><title>tools</title><g id="Layer_2" data-name="Layer 2"><g id="Ebene_12_Kopie" data-name="Ebene 12 Kopie"><rect class="cls-1" width="123.48" height="131.46" rx="13.2" ry="13.2"/><rect class="cls-2" x="11" y="9.08" width="101.17" height="111.59" rx="11.39" ry="11.39"/><path class="cls-3" d="M112.17,23.92V20.46A11.39,11.39,0,0,0,100.79,9.08H22.38A11.39,11.39,0,0,0,11,20.46v3.46Z"/><polygon class="cls-1" points="112.24 28.52 10.96 28.27 10.96 19.76 112.24 20.01 112.24 28.52"/><circle class="cls-4" cx="62.05" cy="73.43" r="34.06"/><path class="cls-2" d="M51.84,73.43H40a22.06,22.06,0,0,1,22-22V63.21A10.23,10.23,0,0,0,51.84,73.43Z"/><path class="cls-5" d="M69.27,66.2a10.14,10.14,0,0,0-7.22-3V51.39a21.89,21.89,0,0,1,15.58,6.46Z"/><path class="cls-6" d="M77.63,89l-8.36-8.36a10.21,10.21,0,0,0,0-14.44l8.36-8.36a22,22,0,0,1,0,31.17Z"/><path class="cls-7" d="M62.05,95.47a22.06,22.06,0,0,1-22-22H51.84a10.21,10.21,0,0,0,17.43,7.22L77.64,89A21.89,21.89,0,0,1,62.05,95.47Z"/><polygon class="cls-2" points="45.4 59.15 44.53 55.91 47.78 56.78 45.4 59.15"/><polygon class="cls-7" points="55.2 94.28 52.54 96.33 52.1 92.99 55.2 94.28"/><polygon class="cls-6" points="83.94 71.75 86.85 73.43 83.94 75.11 83.94 71.75"/><polygon class="cls-5" points="68.88 52.55 71.54 50.5 71.98 53.83 68.88 52.55"/><path class="cls-8" d="M49.33,73.43a12.72,12.72,0,0,0,21.72,9l-1.77-1.77a10.21,10.21,0,0,1-17.43-7.22Z"/><path class="cls-9" d="M71,82.42a12.72,12.72,0,0,0,0-18l-1.77,1.77a10.21,10.21,0,0,1,0,14.44Z"/><path class="cls-10" d="M69.27,66.2,71,64.43a12.68,12.68,0,0,0-9-3.73v2.51A10.14,10.14,0,0,1,69.27,66.2Z"/><path class="cls-11" d="M62.05,63.21V60.7A12.72,12.72,0,0,0,49.33,73.43h2.51A10.23,10.23,0,0,1,62.05,63.21Z"/><rect class="cls-12" x="72.34" y="45.66" width="15.55" height="4.04"/><rect class="cls-6" x="87.64" y="71.4" width="15.55" height="4.04"/><rect class="cls-7" x="36.19" y="97.12" width="15.55" height="4.04"/><rect class="cls-2" x="28.19" y="51.07" width="15.55" height="4.04"/></g></g></svg>