<svg xmlns="http://www.w3.org/2000/svg" viewBox="0 0 123.48 131.46"><rect width="123.48" height="131.46" rx="13.2" fill="#201e1d" opacity=".15"/><rect x="11" y="9.08" width="101.17" height="111.59" rx="11.39" fill="#fff"/><path d="M112.17 23.92v-3.46a11.39 11.39 0 00-11.38-11.38H22.38A11.39 11.39 0 0011 20.46v3.46z" fill="#c21d47"/><path d="M112.24 28.52l-101.28-.25v-8.5l101.28.25v8.5z" fill="#201e1d" opacity=".15"/><circle cx="62.05" cy="73.43" r="34.06" fill="#eaf3e9"/><path d="M51.84 73.43H40a22.06 22.06 0 0122-22V63.2a10.23 10.23 0 00-10.16 10.22z" fill="#fff"/><path d="M69.27 66.2a10.14 10.14 0 00-7.22-3V51.4a21.89 21.89 0 0115.58 6.46z" fill="#a5cca0"/><path d="M77.63 89l-8.36-8.36a10.21 10.21 0 000-14.44l8.36-8.36a22 22 0 010 31.17z" fill="#f8ae5f"/><path d="M62.05 95.47a22.06 22.06 0 01-22-22h11.8a10.21 10.21 0 0017.43 7.22l8.37 8.3a21.89 21.89 0 01-15.59 6.47z" fill="#ffd55c"/><path d="M45.4 59.15l-.87-3.24 3.25.87-2.38 2.37z" fill="#fff"/><path d="M55.2 94.28l-2.66 2.05L52.1 93l3.1 1.3z" fill="#ffd55c"/><path d="M83.94 71.75l2.9 1.68-2.9 1.68v-3.36z" fill="#f8ae5f"/><path d="M68.88 52.55l2.66-2.05.44 3.33-3.1-1.28z" fill="#a5cca0"/><path d="M49.33 73.43a12.72 12.72 0 0021.72 9l-1.77-1.77a10.21 10.21 0 01-17.43-7.22z" fill="#ffb733"/><path d="M71 82.42a12.72 12.72 0 000-18l-1.77 1.77a10.21 10.21 0 010 14.44z" fill="#f69f41"/><path d="M69.27 66.2L71 64.43a12.68 12.68 0 00-9-3.73v2.5a10.14 10.14 0 017.27 2.99z" fill="#79b373"/><path d="M62.05 63.2v-2.5a12.72 12.72 0 00-12.72 12.73h2.5a10.23 10.23 0 0110.21-10.22z" fill="#cae1c8"/><path d="M72.34 45.66H87.9v4.04H72.34z" fill="#bad8b6"/><path d="M87.64 71.4h15.55v4.04H87.64z" fill="#f8ae5f"/><path d="M36.2 97.12h15.55v4.04H36.2z" fill="#ffd55c"/><path d="M28.2 51.07h15.55v4.04H28.2z" fill="#fff"/></svg>