<svg width="676" height="676" viewBox="0 0 676 676" xmlns="http://www.w3.org/2000/svg"><g fill="none" fill-rule="evenodd"><path d="M339.352 564c124.264 0 225 17.998 225 31.291S473.82 626 349.556 626s-235.204-17.416-235.204-30.709S215.088 564 339.352 564zM265.247 76.094l.166.17 34.767 37.49c1.844 1.988 1.701 5.094-.318 6.937-1.96 1.789-4.968 1.73-6.828-.092l-.166-.17-34.768-37.49c-1.844-1.988-1.701-5.094.318-6.937 1.96-1.789 4.968-1.73 6.829.092zm153.4-2.005c1.804 1.916 1.745 4.898-.094 6.77l-.172.168-41.95 38.855c-2.006 1.858-5.139 1.764-6.997-.21-1.804-1.916-1.744-4.899.095-6.771l.172-.167 41.95-38.856c2.006-1.858 5.138-1.764 6.997.21zM335.573 50c2.652.055 4.758 2.17 4.808 4.772l-.002.238-1.486 51.407c-.079 2.71-2.358 4.861-5.091 4.805-2.653-.055-4.758-2.17-4.808-4.772l.001-.238 1.487-51.407c.078-2.71 2.358-4.862 5.09-4.805z" fill="#ECEEF0"/><path d="M275.156 183.43l.117.334 20.758 60.955c.77 8.84-7.317 16.518-16.543 14.372-21.54-5.007-44.35.008-49.39 24.768-4.087 20.076 10.83 40.136 30.96 43.557 16.052 2.73 25.1-6.578 35.017-17.388l.923-1.007c6.715-7.331 16.319-6.898 21.233 1.098l.167.278 15.785 46.354 4.736 13.871c3.54 10.374-1.888 21.645-12.15 25.372l-.332.117-60.61 20.835c-6.253 5.037-7.016 14.994-.453 20.798l1.702 1.515 1.344 1.216c10.126 9.244 18.528 19.057 15.98 34.185-3.407 20.22-24.082 34.393-44.069 30.29-24.4-5.01-29.54-27.518-24.806-48.961l.147-.65c2.008-8.727-4.657-16.432-12.79-16.656l-.279-.004-50.44 17.34-11.04 3.806c-10.49 3.616-21.924-1.951-25.54-12.442l-19.098-55.286c-1.362-3.917-2.251-6.451-2.425-6.896l-.03-.07-21.078-61.871-.033-.122-.391-1.216c-2.3-7.018-13.428-40.067-20.677-61.575-3.492-10.357 1.943-21.576 12.178-25.29l.332-.117 185.366-63.699c10.401-3.574 21.718 1.88 25.43 12.188zm123.751-4.373c2.268-10.534 12.566-17.27 23.094-15.184l.34.07 189.29 40.953c10.518 2.276 17.245 12.558 15.168 23.076l-.07.34-40.842 189.546c-2.27 10.533-12.567 17.271-23.095 15.182l-.34-.07-61.992-13.412c-7.75-3.797-10.129-14.349-3.893-21.082l.216-.228c15.04-15.542 22.439-37.126 4.843-53.904-14.29-13.628-37.136-13.55-51.151.358-13.247 13.145-9.45 27.852-4.66 43.003 2.701 8.542-3.502 16.843-11.783 17.405l-.277.016-60.59-13.108c-10.52-2.275-17.247-12.558-15.17-23.074l.07-.34 12.406-57.583c2.166-10.046-7.321-18.688-17.11-15.594l-2.142.67c-13.55 4.176-26.699 6.94-38.636-3.344-15.282-13.17-16.667-37.879-3.02-52.708 16.662-18.107 38.23-11.009 53.866 3.907l.472.454c7.461 7.247 19.92 3.567 22.316-6.474l.07-.307 12.62-58.568z" fill="#E3E7E9"/><path d="M564.934 194.792l46.696 10.104c10.52 2.276 17.246 12.558 15.169 23.076l-.07.34-40.842 189.546c-2.27 10.533-12.567 17.271-23.095 15.182l-.34-.07-61.992-13.412c-7.75-3.797-10.129-14.349-3.893-21.082l.216-.228c15.04-15.542 22.439-37.126 4.843-53.904-14.29-13.628-37.136-13.55-51.151.358-12.982 12.883-9.595 27.264-4.946 42.095l.286.908c2.701 8.542-3.502 16.843-11.783 17.405l-.277.016-27.243-5.891c-5.119-46.644 46.082-103.968 123.646-150.406l2.358-1.404c27.761-16.43 38.567-33.974 32.418-52.633z" fill="#A1ADB4"/><path d="M249.727 171.241c10.513-3.613 21.961 1.999 25.546 12.523l.36 1.056c-76.126 11.277-113.037 50.444-110.733 117.5 1.866 54.285-17.651 93.713-58.55 118.284-6.353-18.402-12.226-35.37-12.32-35.472L72.952 323.26c.017-.219-12.978-38.812-21.101-62.913-3.53-10.468 2.061-21.817 12.51-25.407z" fill="#B1063A"/></g></svg>