<svg xmlns="http://www.w3.org/2000/svg" viewBox="0 0 86.62 110.13"><defs><style>.cls-1{fill:#f9d9b8;}.cls-2{fill:#fbe5cf;}.cls-3{fill:#f4bd85;}</style></defs><title>Notizblock</title><g id="Layer_2" data-name="Layer 2"><g id="Layer_1-2" data-name="Layer 1"><path class="cls-1" d="M5,0H81.63a5,5,0,0,1,5,5V105.14a5,5,0,0,1-5,5H18.55L0,93.32V5A5,5,0,0,1,5,0Z"/><path class="cls-2" d="M18.55,110.13H42.28V0H5A5,5,0,0,0,0,5V93.32Z"/><polygon class="cls-3" points="0 93.32 18.61 93.32 18.63 110.13 0 93.32"/><rect class="cls-3" x="10.79" y="13.57" width="64.58" height="5.12" rx="2.56" ry="2.56"/><rect class="cls-3" x="10.79" y="37.08" width="64.58" height="5.12" rx="2.56" ry="2.56"/><rect class="cls-3" x="10.79" y="62.2" width="64.58" height="5.12" rx="2.56" ry="2.56"/><rect class="cls-3" x="10.79" y="84.51" width="49.52" height="5.12" rx="2.56" ry="2.56"/></g></g></svg>