<?xml version="1.0" encoding="utf-8"?>
<!-- Generator: Adobe Illustrator 22.1.0, SVG Export Plug-In . SVG Version: 6.00 Build 0)  -->
<svg version="1.1" id="Layer_1" xmlns="http://www.w3.org/2000/svg" xmlns:xlink="http://www.w3.org/1999/xlink" x="0px" y="0px"
	 viewBox="0 0 86.6 110.1" style="enable-background:new 0 0 86.6 110.1;" xml:space="preserve">
<style type="text/css">
	.st0{fill:#F9D9B8;}
	.st1{fill:#FBE5CF;}
	.st2{fill:#F4BD85;}
</style>
<title>Notizblock</title>
<g id="Layer_2_1_">
	<g id="Layer_1-2">
		<path class="st0" d="M81.6,110.1H5c-2.8,0-5-2.2-5-5V5c0-2.8,2.2-5,5-5h63.1l18.5,16.8v88.3C86.6,107.9,84.4,110.1,81.6,110.1z"/>
		<path class="st1" d="M68.1,0H44.3v110.1h37.3c2.8,0,5-2.2,5-5V16.8L68.1,0z"/>
		<polygon class="st2" points="86.6,16.8 68,16.8 68,0 		"/>
		<path class="st2" d="M73.3,96.6H13.8c-1.4,0-2.6-1.1-2.6-2.6l0,0c0-1.4,1.1-2.6,2.6-2.6h59.5c1.4,0,2.6,1.1,2.6,2.6l0,0
			C75.8,95.4,74.7,96.6,73.3,96.6z"/>
		<path class="st2" d="M73.3,73.1H13.8c-1.4,0-2.6-1.1-2.6-2.6l0,0c0-1.4,1.1-2.6,2.6-2.6h59.5c1.4,0,2.6,1.1,2.6,2.6l0,0
			C75.8,71.9,74.7,73.1,73.3,73.1z"/>
		<path class="st2" d="M73.3,47.9H13.8c-1.4,0-2.6-1.1-2.6-2.6l0,0c0-1.4,1.1-2.6,2.6-2.6h59.5c1.4,0,2.6,1.1,2.6,2.6l0,0
			C75.8,46.8,74.7,47.9,73.3,47.9z"/>
		<path class="st2" d="M73.3,25.6H28.9c-1.4,0-2.6-1.1-2.6-2.6v0c0-1.4,1.1-2.6,2.6-2.6h44.4c1.4,0,2.6,1.1,2.6,2.6v0
			C75.8,24.5,74.7,25.6,73.3,25.6z"/>
	</g>
</g>
</svg>
