<svg xmlns="http://www.w3.org/2000/svg" xmlns:xlink="http://www.w3.org/1999/xlink" viewBox="0 0 86.6 110.1"><path d="M81.6 110.1H5a4.95 4.95 0 01-5-5V5a4.95 4.95 0 015-5h63.1l18.5 16.8v88.3a4.95 4.95 0 01-5 5z" fill="#f9d9b8"/><path d="M68.1 0H44.3v110.1h37.3c2.8 0 5-2.2 5-5V16.8L68.1 0z" fill="#fbe5cf"/><g fill="#f4bd85"><path d="M86.6 16.8H68V0z"/><use xlink:href="#B"/><use xlink:href="#B" y="-23.5"/><path d="M73.3 47.9H13.8c-1.4 0-2.6-1.1-2.6-2.6 0-1.4 1.1-2.6 2.6-2.6h59.5c1.4 0 2.6 1.1 2.6 2.6-.1 1.5-1.2 2.6-2.6 2.6zm0-22.3H28.9c-1.4 0-2.6-1.1-2.6-2.6 0-1.4 1.1-2.6 2.6-2.6h44.4c1.4 0 2.6 1.1 2.6 2.6-.1 1.5-1.2 2.6-2.6 2.6z"/></g><defs><path id="B" d="M73.3 96.6H13.8c-1.4 0-2.6-1.1-2.6-2.6 0-1.4 1.1-2.6 2.6-2.6h59.5c1.4 0 2.6 1.1 2.6 2.6-.1 1.4-1.2 2.6-2.6 2.6z"/></defs></svg>