<svg width="676" height="676" viewBox="0 0 676 676" xmlns="http://www.w3.org/2000/svg"><g fill="none" fill-rule="evenodd"><path d="M203.215 301.837l67.122-8.242a5 5 0 013.011.577l35.869 19.645a5 5 0 003.011.577l137.257-16.853c20.283-2.49 38.744 11.933 41.234 32.215l19.164 156.079c2.49 20.282-11.933 38.743-32.215 41.233l-243.133 29.853c-20.282 2.49-38.743-11.933-41.233-32.215L171 343.07c-2.49-20.282 11.933-38.743 32.215-41.233z" fill="#617480"/><path d="M338 578.387c102.725 0 186 13.572 186 23.596 0 10.024-74.84 23.157-177.565 23.157S152 612.007 152 601.983c0-10.024 83.275-23.596 186-23.596zm161.742-452.145l88.497 39.401c5.55 2.471 8.046 8.974 5.575 14.523L498.41 394.444c-2.471 5.55-8.973 8.046-14.523 5.575L334.06 333.312c-5.55-2.47-8.046-8.973-5.575-14.523l68.093-152.938 103.163-39.609zM215.691 56.47l77.698 183.046c2.374 5.593-.235 12.05-5.827 14.424L160.42 307.907c-5.592 2.374-12.05-.235-14.423-5.827L90.285 170.83l35.63-88.203 75.352-31.986c5.592-2.373 12.05.236 14.424 5.828z" fill="#ECEEF0"/><path d="M386.849 279.862l100.49 44.741a7 7 0 11-5.694 12.79l-100.49-44.741a7 7 0 115.694-12.79zm14.642-32.887l100.49 44.74a7 7 0 11-5.694 12.79l-100.49-44.74a7 7 0 015.694-12.79zm14.643-32.888l100.49 44.741a7 7 0 01-5.694 12.79l-100.49-44.741a7 7 0 015.694-12.79zm-165.177-5.87a6.026 6.026 0 01-3.192 7.901l-87.165 37a6.026 6.026 0 11-4.71-11.094l87.166-37a6.026 6.026 0 017.901 3.193zm-12.109-28.527a6.026 6.026 0 01-3.192 7.902l-87.165 37a6.026 6.026 0 01-4.71-11.095l87.166-36.999a6.026 6.026 0 017.901 3.192zm-12.109-28.526a6.026 6.026 0 01-3.192 7.901l-87.165 37a6.026 6.026 0 11-4.71-11.094l87.166-37a6.026 6.026 0 017.901 3.193z" fill="#9e292b"/><path d="M524.45 341.545a30 30 0 01.138 5.924L513.14 498.43c-1.08 14.254-12.07 25.766-26.258 27.508L231.04 557.35c-16.445 2.02-31.413-9.675-33.433-26.12a30 30 0 01-.137-5.924l11.447-150.96c1.081-14.254 12.07-25.766 26.258-27.508l83.082-10.201c3.446 28.061 28.987 48.016 57.048 44.57 28.062-3.445 48.017-28.986 44.571-57.047l71.143-8.735c16.445-2.02 31.413 9.675 33.432 26.12zm-24.708-215.303l-27.31 61.34c-2.43 5.46-8.761 7.964-14.25 5.693l-.273-.118-61.33-27.306 103.163-39.609zM125.914 82.627l21.987 51.797c2.335 5.5-.151 11.838-5.555 14.303l-.273.12-51.788 21.984 35.63-88.204z" fill="#B4BDC3"/><path d="M369.875 498.528a7.313 7.313 0 01-6.367 8.15l-133.764 16.424a7.313 7.313 0 01-1.782-14.517l133.763-16.425a7.313 7.313 0 018.15 6.368zm-46.564-24.807a7.313 7.313 0 01-6.367 8.15l-83.992 10.312a7.313 7.313 0 01-1.782-14.517l83.991-10.313a7.313 7.313 0 018.15 6.368z" fill="#ECEEF0"/></g></svg>