<svg xmlns="http://www.w3.org/2000/svg" xmlns:xlink="http://www.w3.org/1999/xlink" width="744" height="192" fill="none"><style>.B{fill:#000}.C{fill-opacity:.2}.D{fill:#9e292b}.E{fill-rule:evenodd}.F{fill:#501d2c}.G{fill-opacity:.1}.H{fill:#b4bdc3}.I{fill:#a1adb4}.J{fill-opacity:.01}.K{fill:#d4a181}.L{fill:#eceef0}.M{fill-opacity:.4}.N{fill:#915b3c}.O{fill:#f7a600}.P{fill:#784931}.Q{fill:#e3e7e9}</style><g class="L"><path d="M655.31 169.697c7.788 12.098-181.095 19.989-343.672 14.482s-237.158-27.013-159.58-38.472 495.463 11.891 503.252 23.99z" opacity=".505" class="E"/><rect x="203.38" y="3.84" width="177.877" height="107.299" rx="29.158"/></g><path d="M203.38 15.497A11.66 11.66 0 01215.037 3.84H369.6a11.66 11.66 0 0111.657 11.657H203.38z" class="E H"/><g class="L"><circle cx="212.644" cy="10.403" r="2.702"/><circle cx="220.749" cy="10.402" r="2.702"/><circle cx="228.855" cy="10.402" r="2.702"/><path d="M177.166 25.376l.003-.014v-.001l.215-.789c-.009.067-.005.15.003.241a1.915 1.915 0 00-.137.431l-.149.424a1.94 1.94 0 01.065-.292zm.084-.132l.138-.413.013.129c.037.349.081.772-.189 1.009a3.473 3.473 0 01.038-.725zm-22.371 35.323l.532.017a.413.413 0 01.196-.151l-.618-.173-.416.303.305.006h.001zm3.777 1.23l.073.138a5.494 5.494 0 01-.331-.224l-.028-.02.286.106zm-14.844 2.277c.167.178.303.432.382.674l-.382-.674zm-6.6 23.898c.043.513.169.982.418 1.365a7.616 7.616 0 01-.418-1.365z" class="E"/></g><g opacity=".5" class="E"><path d="M183.036 61.067c1.165-1.661 3.327-5.88 4.967-6.474 1.056-.382.748 3.572.761 4.327.051 2.918-.233 5.816-.584 8.709-.632 5.217-2.698 9.864-5.532 14.305-1.458 2.285-3.169 4.598-5.538 6.023-1.09.656-2.403.766-3.48 1.332-1.254.659-.571.126-1.136 1.433-.785 1.815-1.036 4.156-1.399 6.092-1.668 8.889-5.705 55.876-5.005 64.917.062.802-1.056.993-1.111.015-.297-5.187 2.269-41.109 3.563-52.857s2.604-22.126 3.918-26.19c1.593-4.931 4.471-10.861 6.866-15.459 1.113-2.136 2.326-4.199 3.71-6.173z" class="I"/><path d="M191.683 118.682c3.032-2.225 6.313 1.975 3.57 4.201-1.516 1.23-3.102.793-3.994-.233l-1.643 2.069-4.522 5.838c-2.979 4.137-5.532 8.508-8.202 12.799-2.634 4.234-5.247 8.491-7.635 12.833-2.023 3.679-4.719 8.007-5.411 12.04 1.051-8.554 5.038-16.775 9.785-24.316 4.71-7.478 10.114-15.646 17.406-21.548-.743-1.091-.763-2.649.646-3.683z" class="H"/><path d="M134.158 97.822c1.697.332 4.469 4.169 5.867 5.631 1.662 1.738 3.17 3.59 4.591 5.53a93.529 93.529 0 018.122 13.249c3.793 7.549 6.832 15.298 9.038 23.519 1.35 5.032 2.224 10.248 2.742 15.427.098.976 1.122 8.507-.354 8.71-1.327.183-.917-5.718-.981-6.521-.724-9.055-2.892-17.867-5.908-26.402-.657-1.859-1.267-4.137-2.318-5.81-.756-1.205-.005-.785-1.335-1.241-1.141-.392-2.442-.296-3.611-.776-2.539-1.041-4.573-3.063-6.355-5.097-3.464-3.952-6.209-8.228-7.64-13.292-.794-2.808-1.523-5.632-1.928-8.527-.105-.748-1.022-4.614.07-4.4z" class="I"/><path d="M140.853 33.973c6.39 11.082 11.641 23.255 15.032 35.585 2.054 7.47 3.491 15.136 4.919 22.746 2.21 11.783 4.3 23.566 4.895 35.559.598 12.063 1.781 25.975-2.169 37.593 1.973-11.795.095-24.351-.238-36.219-.159-5.666-.619-11.277-1.223-16.91-.587-5.464-1.544-10.902-2.436-16.323l-1.356-7.911c-.139-.786-.197-3.119-.696-3.656s-3.062-.761-3.866-1.157c-1.619-.799-3.142-1.934-4.49-3.132-2.583-2.298-4.831-5.302-6.604-8.262-4.105-6.85-5.746-15.209-5.663-23.142.016-1.54 2.493-18.126 1.498-18.355a2.92 2.92 0 00.17-.218l2.227 3.802zm68.97 39.968c.099-.142.74-1.131.417-1.068.658-.129-.905 1.091.735.343-.779.735-.33 1.69-.319 2.68.017 1.606-.252 3.199-.555 4.771-.478 2.485-1.19 4.9-2.224 7.211-2.253 5.036-6.078 9.885-10.62 13.033-2.242 1.554-4.44 2.084-6.997 2.799-1.615.452-1.743 1.288-2.601 2.855-1.785 3.265-3.538 6.518-5.112 9.893-1.88 4.029-3.704 8.064-5.426 12.164-5.798 13.813-10.518 28.124-12.996 42.934-.061-8.728 1.958-17.716 4.505-26.035 1.855-6.061 4.27-11.903 6.846-17.687.624-1.401 1.57-3.203 1.835-4.75.185-1.084-.382-2.126-.642-3.268-1.013-4.446-.94-9.427-.051-13.896.981-4.929 3.817-7.217 8.615-7.915 1.754-.255 3.984-.162 5.593-.91 1.753-.815 2.476-3.493 3.473-5.212 2.677-4.618 5.858-9.046 9.511-12.937a30.88 30.88 0 013.252-2.993c.728-.581 2.265-1.297 2.761-2.014z" fill="#455b6a"/><path d="M154.985 165.96a3.341 3.341 0 013.306-3.83h12.495a3.343 3.343 0 013.307 3.83l-.536 3.631a9.115 9.115 0 01-9.018 7.786 9.12 9.12 0 01-9.019-7.786l-.535-3.631z" class="H"/></g><g class="E"><use xlink:href="#B" class="F"/><g class="B"><use xlink:href="#B" class="J"/><path d="M255.43 160.057l-2.099-70.17h-1.693l2.861 70.17h.931zm1.594 0l.726-70.17h-1.302l-.351 70.17h.927zm-8.351-70.17l5.261 70.17h-.93l-5.745-70.17h1.414zm-11.8 71.401l1.597-71.401h-1.341l-1.184 71.272.928.129zm5.183-71.401l-3.923 71.577-.918-.129 3.415-71.448h1.426zm-2.523 71.771l6.882-71.771h-1.437l-6.363 71.642.916.129h.002z" class="M"/></g><path d="M232.859 163.464h8.968a4.616 4.616 0 00-.311-3.428l-1.547-3.025h-4.976l-1.699 3.072a4.63 4.63 0 00-.435 3.381zm18.082.01l.309-6.463h6.489c4.616 3.231 12.052 5.232 12.052 5.232v1.231h-11.743l-4.017-.616v.616h-3.09z" class="F"/><path d="M241.824 38.633c-1.751.449-2.912 1.078-3.724 2.663-.41.8-.613 1.708-.555 2.636.052.838.319 1.79-.12 2.535-.478.811-1.65 1.06-2.498 1.398-.956.381-1.812.894-2.505 1.625-1.16 1.224-1.569 2.831-1.077 4.542.523 1.821 1.796 3.744 3.844 4.155.381.077.739.086 1.101-.002.332-.081.75-.263 1.112-.144.384.127.62.676.841.977.317.43.673.847 1.158 1.109.794.43 1.824.441 2.648.278.84-.167 1.545-.592 2.124-1.164.386-.382 9.549-1.989 8.986-10.23s-3.83 3.69-3.939 2.662c-.121-1.142-.978-1.697-2-2.134.213-.121.61-.586.046-.528-.224.023-.434.209-.621.305a2.207 2.207 0 01-.72.239c-1.022.125-1.951-1.319-1.692-2.164.384-1.257 2.02-.497 2.906-.983.509-.28.512-.929.421-1.455-.12-.705-.467-1.363-.85-1.988l-.958-1.536c-.145-.241-.513-.987-.869-.976.356-.846-1.552-2.206-3.059-1.819z" class="N"/><g class="K"><path d="M249.949 53.196c.847-.755 1.56-1.8 2.073-2.909 1.15.386 2.165-1.15 2.252-2.895.073-1.455-.951-1.729-1.394-1.78-.134-2.763-.97-5.861-5.648-5.861-5.323 0-5.671 4.012-5.671 6.977l.005.235a2.88 2.88 0 000 .294 4.05 4.05 0 00.193 1.059c.378 1.627 1.271 3.406 2.473 4.611l-.768 9.221h7.271l-.786-8.953z"/><path d="M241.723 45.601s-1.686-.062-1.594 1.791 1.232 3.472 2.469 2.8"/></g><path d="M253.366 45.442c.028.182-.513.418-.696.447a.337.337 0 01-.318-.127 34.421 34.421 0 00-2.872-3.331c-1.209-1.22-3.079-1.685-5.609-1.395l-1.115 3.725a1.003 1.003 0 01-1.16.694l-.056-.013c-.375-1.06-.481-2.095-.319-3.103l.025-.144c.612-3.284 3.781-5.452 7.079-4.842 2.197.406 3.992 1.981 4.674 4.101s.367 3.988.367 3.988z" class="N"/><path d="M235.767 77.133l7.365.416-2.844 6.551-6.41 14.509-.014.026c-.98 1.815-.458 4.07-2.158 7.635-2.492.861.763-3.555-1.271-2.789-1.129.424.3 5.069-.976 5.609-.353.149-.792-1.087-1.115-1.886l-.047-.113c-1.795-4.336 1.915-8.233 2.56-9.198l.019-.028c.762-1.185 2.271-7.481 4.528-18.887l.363-1.844zm45.457-8.745l.146-.162c1.58-1.731 3.818-3.695 4.101-3.337.675.854-2.173 3.244-1.652 3.489s1.217 2.762.786 3.262l-.106.231c-.295.629-.767 1.386-3.018 2.653l-.249.138-10.271 9.637-2.469-4.925 9.826-6.898.169-.256c.265-.41.552-.924.756-1.84.244-1.1-.533-4.032 0-4.098s1.629 2.091 1.696 2.271c.051.135.229-.099.285-.165z" class="K"/><use xlink:href="#C" class="O"/><use xlink:href="#C" fill="#865362"/><path d="M233.926 100.658l1.545-4.905c.627-10.276 2.178-26.488 2.178-26.488l-2.109 13c-1.395 8.776-2.437 15.331-3.394 18.392h1.78zm22.076-29.983l2.967 11.189 1.505 1.292 1.702 1.264-6.174-13.745z" class="B G"/><path d="M243.526 90.533h11.663s-.275-2.166-1.531-15.427c-.7-7.394-2.795-14.428-2.795-19.667l-7.515.009c-.547 12.398.178 19.334.178 35.085z" fill="#b1063a"/><path d="M241.78 86.815a.73.73 0 01.653.803.734.734 0 01-.806.651.73.73 0 01-.653-.803.734.734 0 01.806-.651zm.047-4.49a.73.73 0 01.653.803.734.734 0 01-.806.651.73.73 0 01-.653-.803.734.734 0 01.806-.651zm-.111-4.507a.73.73 0 01.652.803.733.733 0 01-.806.651.73.73 0 01-.652-.803.733.733 0 01.806-.651zm-.039-4.002a.73.73 0 01.653.803.735.735 0 01-.807.651.73.73 0 01-.652-.803.734.734 0 01.806-.651zm-.005-3.998a.73.73 0 01.652.803.733.733 0 01-.806.651.73.73 0 01-.652-.803.733.733 0 01.806-.651z" class="B C"/></g><ellipse cx="295.852" cy="99.401" rx="6.224" ry="5.8" transform="rotate(355 295.852 99.401)" class="F"/><g class="E"><path d="M298.45 104.75c.829.19 1.67.182 2.412-.045 1.303-.462 1.044-4.83-.156-6.669s-6.576-2.216-6.509 1.63a5.084 5.084 0 001.555 3.619l-.837 6.752 4.272-.374-.737-4.913z" class="P"/><path d="M294.24 96.958c-2.991 3.501.593 6.631 1.493 6.552.017-.469.155-.936.377-1.388a1.05 1.05 0 01-.276-.624 1.088 1.088 0 011.002-1.168c.189-.016.371.015.533.084 1.214-1.238 2.791-2.164 3.594-2.389 1.398-.392-3.732-4.567-6.723-1.066z" class="F"/><path d="M290.837 140.38c.199-.446 1.444-10.079 1.529-17.234h8.912l8.221 37.574h-2.123l-5.378-17.213-4.142-10.519-.182.757c-1.069 4.441-1.99 8.269-2.399 8.959-.739 1.246-16.71 10.589-16.71 10.589l-1.463-1.57 13.735-11.343z" class="P"/><path d="M277.752 152.383c-.484-.578-1.165-1.172-1.786-.745l-.074.056c-.339.285-.893.945-.893.945l5.922 7.082s1.14-.49.715-1.146l-.695-1.098-1.092-3.827a.864.864 0 00-1.093-.588s-.717-.335-1.004-.679z" class="Q"/><path d="M279.152 154.287c.134.161.383-.048.248-.209s-.382.049-.248.209zm.212.912c.134.16.382-.049.248-.209s-.382.048-.248.209zm.219.92c.134.16.383-.049.248-.209s-.382.048-.248.209zm.295.797c.134.16.382-.049.248-.209s-.383.048-.248.209z" class="I"/><path d="M307.953 160.037c-.752 0-1.641.142-1.716.89l-.005.097c0 .443.147 1.294.147 1.294h9.214s.359-1.191-.415-1.286l-1.286-.172-3.62-1.619a.866.866 0 00-1.155.461s-.716.335-1.164.335z" class="Q"/><path d="M310.308 160.185c.208 0 .209-.326 0-.326s-.209.326 0 .326zm.832.423c.208 0 .208-.326 0-.326s-.209.326 0 .326zm.843.423c.208 0 .209-.326 0-.326s-.209.326 0 .326zm.798.285c.208 0 .209-.325 0-.325s-.209.325 0 .325z" class="I"/><use xlink:href="#D" fill="#455b6a"/><g class="B"><use xlink:href="#D" class="J"/><path d="M296.711 144.132l2.66 14.815 10.096-1.099-7.482-34.702h-.85s-1.386 15.449-3.122 18.946c-.26.523-.716 1.225-1.302 2.04z" class="C"/></g><path d="M291.196 125.932a1.39 1.39 0 100-2.786 1.39 1.39 0 100 2.786zm9.393.492a1.88 1.88 0 01-1.879 1.884 1.88 1.88 0 01-1.878-1.884c0-1.041.841-1.885 1.878-1.885s1.879.844 1.879 1.885zm-7.065 3.81c.879 0 1.592-.715 1.592-1.598s-.713-1.598-1.592-1.598-1.593.716-1.593 1.598.713 1.598 1.593 1.598zm10.046 3.852c1.06 0 1.919-.862 1.919-1.926s-.859-1.926-1.919-1.926-1.919.863-1.919 1.926.859 1.926 1.919 1.926zm-7.555 5.941c0 1.064-.859 1.926-1.92 1.926s-1.919-.862-1.919-1.926.859-1.925 1.919-1.925 1.92.862 1.92 1.925zm-8.807 3.197c1.06 0 1.92-.863 1.92-1.926s-.86-1.926-1.92-1.926-1.919.862-1.919 1.926.859 1.926 1.919 1.926zm.613 4.261a1.39 1.39 0 01-1.389 1.393 1.39 1.39 0 110-2.786 1.39 1.39 0 011.389 1.393zm-4.322.538c0 1.058-.855 1.916-1.91 1.916s-1.909-.858-1.909-1.916.855-1.917 1.909-1.917 1.91.858 1.91 1.917zm18.642-7.514c0 .86-.695 1.557-1.552 1.557s-1.552-.697-1.552-1.557.695-1.557 1.552-1.557 1.552.697 1.552 1.557zm3.838 5.296c1.06 0 1.92-.862 1.92-1.926s-.86-1.926-1.92-1.926-1.919.863-1.919 1.926.859 1.926 1.919 1.926zm-.366 4.134c0 1.063-.86 1.926-1.92 1.926s-1.919-.863-1.919-1.926.859-1.926 1.919-1.926 1.92.862 1.92 1.926zm-6.976 6.602c1.06 0 1.919-.863 1.919-1.926s-.859-1.926-1.919-1.926-1.92.862-1.92 1.926.86 1.926 1.92 1.926zm1.266-8.114c0 .883-.714 1.598-1.593 1.598s-1.593-.715-1.593-1.598.713-1.598 1.593-1.598 1.593.716 1.593 1.598zm3.79 10.808c.88 0 1.593-.716 1.593-1.598s-.713-1.598-1.593-1.598-1.592.715-1.592 1.598.713 1.598 1.592 1.598zm5.873-4.948c0 .882-.713 1.598-1.593 1.598s-1.592-.716-1.592-1.598.713-1.598 1.592-1.598 1.593.715 1.593 1.598zm-18.716-18.521c1.06 0 1.919-.862 1.919-1.926s-.859-1.926-1.919-1.926-1.92.862-1.92 1.926.86 1.926 1.92 1.926zm1.919 9.465c0 .883-.713 1.598-1.593 1.598s-1.592-.715-1.592-1.598.713-1.598 1.592-1.598 1.593.716 1.593 1.598zm-5.683 9.947c1.127 0 2.042-.917 2.042-2.048s-.915-2.049-2.042-2.049-2.042.917-2.042 2.049.914 2.048 2.042 2.048zm12.686-20.477c0 1.131-.914 2.048-2.042 2.048s-2.042-.917-2.042-2.048.914-2.049 2.042-2.049 2.042.917 2.042 2.049z" fill="#fff" class="C"/><path d="M308.086 109.817l-5.67 3.116 2.094 2.255 4.119-3.785c2.171-.6 3.163-1.039 2.978-1.317-.156-.234-.408-.226-.64-.219-.181.006-.35.011-.452-.098-.233-.251.212-1.129.669-1.943s-.032-.743-.311-.626c-.915.621-1.844 1.494-2.787 2.617zm5.7 4.372l-2.49 1.373.142 2.508s1.613-1.168 3.001-1.557c1.769-.495 2.485-.873 3.35-1.978.462-.592.855-1.781.414-2.168-.168-.148-.798.203-1.44.561-.489.272-.986.549-1.292.613-.412.085-.364-.451-.326-.879.028-.308.051-.56-.105-.487-.729.013-1.254 2.014-1.254 2.014z" class="P"/><use xlink:href="#E" class="O"/><g class="B"><use xlink:href="#E" class="J"/><path d="M308.224 112.48l-1.109-2.483c-2.186 1.392-4.265 1.959-6.015 2.154l.624 2.067.501 1.655c2.106-.339 4.34-1.74 5.999-3.393zm-5.415 10.31c-3.927.281-8.398-8.266-8.398-8.266s-.64 1.075.932 7.634 11.392.35 7.466.632z" class="G"/></g><path d="M326.338 71.396l.042.036 7.644 6.691c.803 1.147.304 2.834-1.126 3.269-3.338 1.015-6.059 3.499-4.795 7.28 1.026 3.065 4.646 4.629 7.666 3.509 2.409-.893 2.911-2.879 3.413-5.138l.047-.21c.339-1.531 1.685-2.23 2.987-1.525l.045.025 5.813 5.088 1.742 1.522a3.17 3.17 0 01.341 4.425l-.036.042-6.638 7.628c-.457 1.182.224 2.602 1.579 2.878l.352.072.28.06c2.112.465 4.034 1.143 4.88 3.41 1.129 3.032-.578 6.599-3.632 7.615-3.729 1.241-6.207-1.429-7.252-4.733l-.031-.1c-.414-1.351-1.932-1.878-3.061-1.267l-.039.022-5.523 6.348-1.209 1.391a3.17 3.17 0 01-4.47.314L318.386 114l-.875-.751-.01-.007-7.76-6.791-.014-.014-.15-.135-7.682-6.782a3.17 3.17 0 01-.331-4.416l.036-.042 20.302-23.325a3.17 3.17 0 014.436-.341z" class="H"/><path opacity=".416" d="M336.063 92.063c-.223 4.758-1.832 8.302-6.049 8.523-3.744.197-7.681-.166-11.397-.508-6.184-.57-11.756-1.083-14.809 1.128l5.77 5.097.149.135.014.014 7.76 6.791.01.007a73.85 73.85 0 01.875.751l6.971 6.047a3.17 3.17 0 004.471-.315l1.208-1.391 5.524-6.348.038-.021c1.129-.611 2.647-.084 3.061 1.267l.032.1c1.044 3.303 3.522 5.973 7.251 4.733 3.054-1.016 4.761-4.584 3.632-7.615-.846-2.268-2.768-2.946-4.88-3.41l-.28-.06-.352-.073c-1.354-.275-2.036-1.696-1.579-2.878l6.638-7.627.036-.042a3.17 3.17 0 00-.341-4.425l-1.742-1.522-5.813-5.088-.045-.025c-1.302-.705-2.648-.006-2.987 1.525l-.047.21c-.481 2.164-.962 4.078-3.119 5.02z" class="Q"/><path d="M373.172 86.604c-1.088.31-2.207.358-3.21.108-1.764-.523-1.725-6.349-.257-8.877s8.589-3.404 8.768 1.713c.07 2.009-.671 3.683-1.815 4.921l1.583 8.918-5.706-.199.637-6.583z" class="N"/><path d="M374.461 80.608c.059-.005.119-.007.18-.005a1.43 1.43 0 01.911 2.49l1.073 1.499c1.626-.903 3.141-3.858 1.678-6.608-.384-1.336-1.569-1.885-2.708-2.253-.918-.424-2.085-.657-2.91-.451-1.606.082-2.852.677-3.267.954-.053 1.521.225 1.982 2.735 2.03.597.344 1.048.913 1.51 1.654-.117.898-.645 4.35-1.868 4.308-.846-.029-1.606-.409-2.212-.712-.402-.2-.736-.367-.981-.376-.45-.016-.092.891.192 1.32.092.14.292.243.498.349.315.162.646.332.634.656-.01.303-.312.291-.575.282-.202-.007-.381-.014-.386.124l-.013.217c-.038.54-.092 1.294.702 1.322.92.032 3.568-.212 4.068-1.566.394-1.068.649-4.032.739-5.234z" class="F"/><path d="M387.898 163.358l-.786-2.589h-3.873l.95 2.589h3.709zm-27.2 0l.474-2.589h-3.873l-.475 2.589h3.874z" class="K"/><use xlink:href="#F" fill="#344450"/><g class="B"><use xlink:href="#F" class="J"/><path d="M369.549 133.178l-2.289 7.7-6.034 20.507h-4.401l6.404-48.271c2.82 9.557 4.978 16.245 6.32 20.064z" class="M"/></g><g class="F"><use xlink:href="#G"/><use xlink:href="#G" x="-26.462"/></g><path d="M368.375 117.233c-.802-.733-1.249-1.754-1.331-2.805-.045-.577-1.092-.729-1.039-.041.209 2.686 2.572 4.843 5.348 4.99l.122.869.693 4.483.403 2.254c.861 4.89 1.695 9.622 4.323 15.562l7.371 16.985c.094.219.432.624.69.567.298-.067.373-.293.283-.5l-1.398-3.24-3.215-7.338-1.015-2.19c-1.885-4.023-3.854-8.227-5.134-14.376-1.31-6.295-1.812-10.412-2.388-15.132l-.276-2.243c-.071-.574-1.124-.727-1.039-.041l.443 3.354c-1.058-.058-2.068-.451-2.841-1.158zm-2.793 3.797l-3.094 20.345-2.489 13.984-.611 3.412c-.062.448.783.925.854.405l5.911-36.294-.571-1.852z" class="B M"/><path d="M346.868 93.464l8.195 4.238.99-4.284-7.748-1.865c-2.438-2.095-3.747-2.922-3.927-2.48-.152.372.059.665.252.934.151.21.292.406.244.614-.11.477-1.499.65-2.824.758s-.852.631-.491.869c1.463.589 3.233.995 5.309 1.216zm2.924 12.969l8.272-4.103.911 4.299-7.782 1.738c-2.476 2.056-3.8 2.861-3.972 2.416-.145-.375.071-.664.27-.93.155-.207.299-.4.255-.61-.102-.478-1.487-.674-2.81-.804s-.84-.645-.474-.877c1.473-.565 3.25-.941 5.33-1.129z" class="K"/><path d="M378.761 116.624l-17.673-3.116s9.245-17.317 10.583-24.142c.045-.232.546-.567.726-.479 1.975.956 4.527.344 4.527.344 2.998 7.5 2.979 16.079 1.837 27.393z" class="L"/><path d="M347.675 95.16l-.955-.444 1.764-4.528 1.084.426 1.386.432.41.108 1.572.329.872.13 1.91.159a.273.273 0 00.041.003h.001c1.153.049 2.299.019 3.43-.072l1.675-.173.878-.118.593-.092 2.027-.367 1.523-.32 1.324-.298 1.09-.255.68-.159.1-.023.231-.054 4.669-.848a8.218 8.218 0 011.428-.005l.011-.024 2.738.483c.521.092.77.427.902.715a2.18 2.18 0 01.095.264l.867 3.268.395 1.898.309 1.762.451 3.283.187 1.859.16 2.158.052.992.061 1.92.007 2.017-.012.656-.075 1.929-.169 2.235-.006.068-.027.264-.232 1.896-.427 2.449-.063.3-.01.046-.354 1.471-.52 1.741-9.424-1.661a4.715 4.715 0 01-1.641-.598 3.715 3.715 0 01-.431-.306 4.293 4.293 0 01-1.124-1.414l-.121-.252a7.216 7.216 0 01-.528-1.917 11.798 11.798 0 01-.115-1.87c.002-.507.031-1.037.086-1.587l.072-.664.171-1.146.147-.793.355-1.597.181-.716.315-1.143.23-.784.017-.056.587-1.799.016-.049.578-1.627.165-.439.263-.689.529-1.337.462-1.112-.108.009-.449.036-1.8.101-.101.004-3.675 7.791c-2.95 1.243-6.627 1.979-11.355 2.851l-2.534-4.139c4.431-2.105 8.277-4.262 11.661-6.661l-1.197-.128-1.267-.171-.849-.138a38.874 38.874 0 01-1.799-.346 45.37 45.37 0 01-1.912-.456 44.31 44.31 0 01-1.711-.487 39.97 39.97 0 01-1.351-.438 13.63 13.63 0 01-.424-.146 41.14 41.14 0 01-2.278-.867 40.575 40.575 0 01-1.714-.737z" class="D"/><path d="M346.72 94.717l.955.444 1.714.737 2.278.867.424.146 1.351.438 1.711.487 1.912.456 1.799.346.849.138 1.267.171 2.178.208 2.811.109 2.212-.035 1.8-.101.557-.044-.462 1.112-.529 1.337-.263.689-.165.439-.578 1.627-.016.049-.587 1.799-.247.84-.315 1.143-.181.716-.355 1.597-.147.793-.171 1.146-.072.664-.086 1.587c-.009.666.03 1.292.115 1.87.102.711.277 1.355.528 1.917l.121.252c.287.563.66 1.04 1.124 1.414.134.111.279.213.431.306.47.285 1.014.487 1.641.598l9.424 1.661.52-1.741.354-1.471.073-.346.427-2.449.232-1.896.033-.332.169-2.235.075-1.929.012-.656-.007-2.017-.061-1.92-.052-.992-.16-2.158-.187-1.859-.451-3.283-.309-1.762-.395-1.898-.867-3.268a2.18 2.18 0 00-.095-.264c-.132-.287-.381-.623-.902-.715l-2.738-.483-.011.024a8.218 8.218 0 00-1.428.005c-1.326.099-2.905.438-4.669.848l-.331.077-1.77.414-1.324.298-1.523.32-2.027.367-.593.092-.878.118-1.675.173c-1.131.09-2.277.121-3.43.072-.014 0-.028 0-.042-.003l-1.91-.159-.872-.13-1.572-.329-.41-.108-1.386-.432-1.084-.426-1.764 4.528z" class="B C"/><path d="M359.844 92.92c.578.786.407 1.836-.041 2.688-1.126-.177-2.247-.627-2.474-1.766-.342-1.696 1.618-2.144 2.515-.922zm16.131 5.641a6.87 6.87 0 01-.92.256 30.75 30.75 0 01-.672-4.447c-.103-1.414-.1-3.377 1.317-4.168 1.382-.773 3.111.155 3.732 1.48 1.322 2.824-.775 5.939-3.457 6.879zm3.861 18.895c-.596.41-1.464.193-1.997-.207-.963-.723-1.529-2.134-2.002-3.409 1.351-.094 2.704.223 3.747 1.097.709.598 1.202 1.865.252 2.519zm.533-11.562c.724.607.786 1.758-.24 2.045-1.674.463-2.529-1.601-3.061-2.884l-.021-.051c.301-.014.605-.005.918.029.815.091 1.763.323 2.404.861zM351.37 91.12l-.41-.108a7.407 7.407 0 00-.205 2.208c.082 1.309.568 2.591 1.341 3.656l.003.001 1.35.437 1.71.487 1.912.456 1.799.346.849.138a5.41 5.41 0 001.195-1.1c1.023.09 2.044.047 2.912-.085a8.133 8.133 0 001.731-.476 15.104 15.104 0 002.63 2.114l1.8-.101.557-.044-.461 1.113c1.163.459 2.43.723 3.692.748l.797 2.51c-.99.329-1.902.843-2.796 1.443a6.99 6.99 0 00-1.344-1.479 4.96 4.96 0 00-1.307-.758l-.031.082-.265.738-.282.807-.016.049c.778.273 1.379.863 1.848 1.535-.745.503-1.544.957-2.432 1.083a1.82 1.82 0 01-.25.02l-.115.408-.091.33-.11.406-.043.165-.024.094-.03.12-.034.137-.049.2a4.317 4.317 0 001.669-.005c.922-.196 1.743-.626 2.523-1.132l1.478 3.443.473 1.171a8.222 8.222 0 00-3.252 1.953 16.137 16.137 0 00-1.336-1.725c-.593-.662-1.321-1.111-2.057-1.315l-.015.095-.015.09-.063.395-.078.566-.073.664c.505.148.999.594 1.328 1.01l1.148 1.62-.293.471-.226.413c-.359.669-.774 1.443-1.399 1.86l.004.008.117.244.113.207.076.131.011.017.026.042.05.076.051.076.032.046.1.134a.148.148 0 00.021.027l.022.029.026.035.098.114c.007.01.015.019.023.027l.144.152.069.069.028.026.164.146.07.06c.736-.578 1.301-1.488 1.856-2.382a32.457 32.457 0 011.572 3.525l1.951.344-.06-.167c-.649-1.729-1.422-3.585-2.372-5.31.174-.211.355-.407.548-.57a6.939 6.939 0 012.375-1.303c.622 1.548 1.281 3.179 2.494 4.298 1.034.954 2.672 1.514 4.006.918l.01-.046.063-.3.427-2.449.232-1.896.033-.332c-1.007-1.338-2.685-2.14-4.308-2.383a8.41 8.41 0 00-2.007-.055l-.494-1.16-1.511-3.506-.265-.581.057-.04c.768-.543 1.569-1.003 2.418-1.297.558 1.412 1.259 2.82 2.422 3.751 1.066.853 2.735 1.2 3.944.451l.001-.096v-.006l.001-.771c.001-.016 0-.031 0-.047v-.046l.001-.099-.01-.952-.061-1.92-.052-.992c-1.283-1.181-3.207-1.634-4.905-1.575l-.307.02-.026.002-.737-2.288c1.517-.26 2.95-.912 4.094-2.04a6.516 6.516 0 001.083-1.419l-.101-.607-.044-.256-.057-.327-.062-.334-.045-.239-.395-1.898-.867-3.268a2.17 2.17 0 00-.095-.264c-.132-.287-.381-.623-.901-.715l-2.739-.483-.011.024-.334-.023h-.015l-.224-.004-.101-.001h-.01c-.049-.001-.099 0-.15.001l-.03.001h-.002l-.182.008-.188.01-.192.014c-.665.566-1.159 1.393-1.36 2.481-.365 1.964.001 4.056.348 5.998l.309 1.522c-2.256-.091-4.416-1.194-6.13-2.734 1.922-1.333 3.111-3.5 2.004-6.008a3.087 3.087 0 00-.171-.334l-.491.115-.259.061-.568.133-.452.106a.723.723 0 01.067.078c.985 1.266.101 3.079-.956 3.959a5.22 5.22 0 01-.627.44c-.779-.885-1.452-1.923-1.497-2.983a1.94 1.94 0 01.166-.875l-1.004.191-1.023.176c.003 1.544.801 2.946 1.751 4.151-.709.184-1.454.261-2.191.281.277-1.022.228-2.127-.269-3.146a4.145 4.145 0 00-.762-1.074l-.446.054-.016.002-.269.03-.013.001-.177.018-.108.01-.646.057c-1.131.09-2.277.121-3.43.072-.014 0-.028 0-.042-.003a3.17 3.17 0 00-.302 1.362c-.004 2.117 1.298 3.351 2.999 3.998-.907.54-2.007.634-3.049.243-2.588-.972-3.106-3.573-2.43-5.892l-.466-.085-.004-.001-.201-.04-.089-.019-.39-.084-.018-.004-.019-.004-.385-.093zm1.493 13.432l-.08.04 1.247.401c-.578 1.577-.721 3.261-.18 4.698l.444-.082.068-.013 1.259-.241c-.496-1.097-.237-2.471.242-3.574l.843.453.122.07c.818.472 2.182 1.257 2.583 2.247l1.296-.33.383-.103c-.656-1.555-2.139-2.581-3.526-3.424l-.811-.458c1.432-2.027 3.977-4.197 5.461-1.179.674 1.37.919 2.911.846 4.449l1.189-.448.251-.108.169-.338.234-.471c-.163-1.881-.762-3.68-1.938-5.06-.573-.671-1.194-1.094-1.837-1.31l-.801.529-2.223 1.386-1.624.944-1.862 1.015-1.674.866-.081.041z" fill="#fff" class="C"/><path d="M348.253 93.512a.89.89 0 00.721 1.034.892.892 0 00.31-1.759.89.89 0 00-1.031.725zm21.822 8.438c-.085.485.238.948.722 1.034s.945-.24 1.031-.725a.89.89 0 00-.721-1.034.892.892 0 00-1.032.725zm-.299 4.811a.89.89 0 01-.722-1.033.892.892 0 011.032-.725.89.89 0 11-.31 1.758zm-1.46 3.154a.89.89 0 001.753.309.892.892 0 00-.722-1.034.89.89 0 00-1.031.725zm.212 5.261a.89.89 0 11.311-1.758.89.89 0 01.721 1.033.892.892 0 01-1.032.725z" class="B C"/><use xlink:href="#H" class="D"/><g class="B"><use xlink:href="#H" class="C"/><path d="M472.09 61.118c-1.661-5.588-7.751-7.244-13.602-3.7s-9.248 10.948-7.587 16.535 7.75 7.244 13.601 3.7 9.249-10.948 7.588-16.535zm-19.277 26.749c-2.898-3.512-7.784-2.839-10.914 1.502s-3.318 10.709-.421 14.219 7.784 2.839 10.913-1.502 3.319-10.708.422-14.22z" class="G"/></g><path d="M492.46 151.542l-2.405 20.024 8.592.968c.56.012 1.013.459 1.033 1.02l-11.715.518-22.238 2.718s-.232-.841-.144-1.109c.019-.056.729-.363 1.552-.455s16.263-2.33 16.263-2.33l-18.792.658s.06-1.008.546-1.389c.636-.499 16.167-.599 16.167-.599l-13.316-.785s.048-.776.395-.982c1.64-.976 18.839.982 18.839.982l2.818-19.44 2.405.201zm26.765 0l3.106 19.609-9.016 1.274a1.057 1.057 0 00-1.032 1.021H523.3l15.18 3.967s.55-.468.463-.972c-.087-.498-.439-.611-.51-.634h-.002l.015-.002-10.512-2.152 15.145 2.26s-.061-1.008-.546-1.389c-.636-.499-13.787-2.082-13.787-2.082l11.669.226s-.048-.777-.395-.982c-1.641-.976-15.706-.905-15.706-.905l-2.684-19.44-2.405.201z" fill="#e98404"/><path d="M471.177 76.047l6.477-18.166h49.039l18.461 61.21c6.488 17.177-9.908 35.911-24.241 40.629-5.345 2.274-11.323 3.546-17.633 3.546-8.211 0-15.86-2.154-22.281-5.865-7.421-2.605-12.687-9.184-15.703-16.799a33.442 33.442 0 01-2.924-18.128 32.39 32.39 0 01.405-3.383l2.504-9.51c-.639.769-1.126 1.042-1.46.818-1.118-.748 2.109-12.594 4.863-16.128l.352-.436a8 8 0 00.454-.606l.055-.217c-.108.007-.462.256-.934.589-1.128.795-2.93 2.065-3.659 1.635-.661-.389 2.535-9.116 6.225-19.189z" class="D"/><path d="M497.45 77.671c.872-2.273 2.407-4.497 3.128-4.309s.188 1.926 0 2.649l-.249.969c-2.61 10.239-3.578 17.351-2.936 21.211l.057.318c.554 2.826 1.888 3.288 5.007 1.545l.348-.199s2.469-1.846 2.768-1.621-.78 3.118-.78 3.118c-2.79 11.154-3.951 18.855-3.502 22.984l.039.323c.37 2.876 1.289 3.241 3.92 1.472l.294-.201s1.933-1.703 2.217-1.547-.099 2.706-.099 2.706c-.18 4.923.242 8.203 1.154 9.727.639 1.067 1.971 2.094 3.755.93.624-.408 1.724-.863 2.13-.237s-.509 1.135-1.134 1.542c-2.939 1.92-5.53 1.716-7.064-.843-1.022-1.707-1.528-4.468-1.576-8.343l-.004-.499-.093.039c-4.252 3.149-6.627-.434-7.159-4.746s1.374-10.63 3.533-19.939l.311-1.323-.102.032c-3.481 1.037-5.902-.526-6.646-4.591l-.035-.202c-.743-4.47-.733-11.969 2.718-20.965z" class="B G"/><path d="M526.864 58.479h-49.411l2.135-6.745 1.008-4.127-1.402 1.357c-1.109 1.055-1.465.018-1.362-1.357l.041-.422.078-.709c.172-1.44.347-2.164.727-3.727l1.154-5.004.477-2.204.234-1.061c1.64-7.339 4.198-16.319 11.163-18.916l.677-.249 1.349-.49c1.557-.573 3.026-1.17 4.109-1.984 1.501-1.126 3.903-4.305 4.594-5.898l.059-.145c.712-1.825 4.461 2.723 2.955 6.052l.186-.007a9.632 9.632 0 012.76.311l.329.092.307.091c2.638.81 1.905 1.354.039 2.064 12.101.717 15.706 20.426 16.363 24.574a.496.496 0 01-.552.567l-1.384-.178.019.073.092.297.099.3.116.34.786 2.191c.841 2.317 1.881 5.184 2.084 6.243.309 1.606.076 2.185-.391 2.251-.311.044-1.077-.987-2.299-3.094l2.861 9.515z" class="D"/></g><path d="M485.176 20.092h33.722V51.19h-33.722z" class="D"/><g class="E"><path d="M485.759 30.791c.116-1.823 1.711-6.136 5.421-5.62s4.902 3.809 4.787 5.632-3.028 5.216-4.978 4.787-5.346-2.976-5.23-4.799zm32.029 0c-.116-1.823-1.711-6.136-5.421-5.62s-4.903 3.809-4.787 5.632 3.027 5.216 4.978 4.787 5.346-2.976 5.23-4.799z" fill="#fff"/><path d="M511.742 33.192c1.429.05 2.63-1.167 2.684-2.719s-1.059-2.85-2.488-2.9-2.63 1.167-2.684 2.719 1.06 2.85 2.488 2.9zm-19.938 0c-1.429.05-2.63-1.167-2.684-2.719s1.06-2.85 2.488-2.9 2.63 1.167 2.684 2.719-1.06 2.85-2.488 2.9z" class="D"/><path d="M507.572 34.807c-.251 10.268-6.396 15.327-6.396 15.327s-6.135-8.256-6.135-15.958l12.531.631z" fill="#af6303"/><path d="M507.22 35.294c.346 4.921-5.95 12.24-5.95 12.24s-4.338-6.149-4.628-9.238l10.578-3.002z" class="F"/><path d="M501.634 27.842c1.989 0 3.131.588 3.568 3.182.402 2.386 2.068 1.139 2.37 3.303.105.747.038 2.26-2.37 5.73-2.549 3.672-5.194 5.475-5.194 5.475s-2.473-2.998-3.366-5.079c-1.242-2.895-1.546-4.974-1.607-6.126-.088-1.668 2.136-1.72 2.811-3.303.503-1.181 1.36-3.181 3.788-3.181z" class="O"/><path d="M509.181 22.13c.119-.952 1.637-2.267 2.753-2.004.594.14.327.512-.052.83 1.017-.508 2.975-.767 3.062-.436.033.127-.115.31-.332.501 1.838.157 3.191.69 3.191 1.324 0 .757-1.929 1.37-4.309 1.37s-4.31-.614-4.31-1.37a.41.41 0 01.003-.05.42.42 0 01-.006-.166zm-13.447.038c-.178-.947-2.44-2.256-4.102-1.994-.899.141-.474.522.106.842l-.346-.004c-2.398 0-4.342.605-4.342 1.352s1.944 1.352 4.342 1.352 4.342-.605 4.342-1.352a.387.387 0 00-.003-.048.298.298 0 00.003-.147z" class="D"/><path d="M507.171 36.599c-.181 1.375-.74 2.856-1.447 4.272l-.216.422-.111.209-.227.415-.232.408-.236.4-.239.392-.24.382-.24.371-.238.359-.236.347-.344.494-.331.459-.409.552-.279.364-.395.502-.481.586-.332-.483-.44-.662-.392-.608-.347-.552.249.303c1.763-1.202 3.495-3.027 5.194-5.475 1.024-1.476 1.625-2.598 1.969-3.458zm-15.563-9.026c1.429-.05 2.63 1.167 2.684 2.719s-1.06 2.85-2.488 2.9-2.63-1.167-2.684-2.719 1.06-2.85 2.488-2.9zm20.201-.001l.129.001c1.428.05 2.542 1.348 2.488 2.9s-1.255 2.769-2.684 2.719-2.542-1.348-2.488-2.9c.053-1.505 1.184-2.695 2.555-2.72zm-16.075-5.404a.4.4 0 01-.001.18l.001.015c0 .747-1.944 1.352-4.342 1.352s-4.342-.605-4.342-1.352c0-.545 1.035-1.014 2.527-1.229l.338-.043.175-.018.359-.03.75-.031.193-.001.271.003-.18-.097c-.661-.376-.611-.624.149-.744 1.662-.261 3.925 1.047 4.102 1.994zm16.2-2.042c.522.123.545.38.07.773a6.11 6.11 0 011.119-.358l.264-.055.259-.045c.679-.106 1.252-.096 1.298.079.035.135-.083.318-.356.549 1.868.334 3.215 1.471 3.215 2.103 0 .323-.351.461-.944.514l-.234.016-.124.005-.265.006-.285.001-.46-.005-1.025-.021-.556-.008-.384-.002a13.27 13.27 0 01-1.477-.08l-.339-.043c-1.436-.206-2.449-.649-2.522-1.168l-.004-.066a.547.547 0 01-.003-.192c.119-.952 1.637-2.267 2.753-2.004z" fill-opacity=".8" class="B"/><use xlink:href="#I" class="D"/><g class="B"><use xlink:href="#I" class="C"/><path d="M558.035 108.346c3.33 2.869 4.303 10.743 1.607 14.155s-8.584 4.106-11.632 0-3.332-10.2-.636-13.612 7.331-3.412 10.661-.543zm-19.111-21.797c-.849-5.327 2.131-9.295 6.658-8.862s8.884 5.102 9.733 10.429-2.131 9.295-6.658 8.862-8.883-5.102-9.733-10.429z" class="G"/></g></g><defs><path id="B" d="M259.287 93.113l.125-3.195h-23.479l-.322 71.246 4.091.568 7.719-55.422 1.428 14.011 3.838 39.768h4.572c0-15.293 1.227-46.576 2.028-66.976z"/><path id="C" d="M239.436 59.862c.967-.523 2.842-1.367 3.792-1.287l.127-.542h7.412l.205.685a21.22 21.22 0 013.402.755c1.74.538 2.863 1.963 4.62 4.889l2.053 3.549c2.274 3.991 4.963 8.709 6.075 9.201 1.166.517 7.19-3.78 9.691-5.564.673-.48 1.091-.778 1.091-.752l3.686 3.505c-2.886 5.81-13.016 14.26-17.656 11.345-1.946-1.222-3.601-2.517-5.025-3.874.318.995.659 2.134 1.043 3.503.253.904 3.096 10.451 3.096 10.451h-7.439l-.42-5.578h-11.663l-.171 5.578c-.725.187-5.04.124-7.836.062l-1.593 4.871h-5.689c1.395-10.639 4.159-24.356 4.161-24.362 1.446-6.908 3.706-14.634 7.038-16.436z"/><path id="D" d="M285.813 157.055l-6.622-7.865s10.48-11.188 10.744-11.82 1.02-14.224 1.02-14.224h11.03l7.482 34.702-10.096 1.099-2.66-14.815c-3.332 4.632-10.898 12.923-10.898 12.923z"/><path id="E" d="M289.647 128.98c1.028-.203 2.763.024 4.651.271 3.534.462 7.604.995 8.581-1.09.729-1.556.947-3.259.851-5.049 3.006-.066 6.655-1.061 10.912-3.292.14-1.632-1.707-5.465-1.707-5.465s-7.314 2.611-10.608 1.861l-.102-.343c2.106-.338 4.34-1.74 5.999-3.392l-1.11-2.483c-2.185 1.392-4.265 1.959-6.014 2.154-.627-2.139-1.16-4.24-1.313-6.217h-4.533c-.497 0-3.875 6.497-3.878 10.718-.001 1.45-.507 2.7-1.04 4.017-.884 2.185-1.842 4.551-.689 8.31z"/><path id="F" d="M378.787 136.52c-.201-1.303-.854-9.124-1.045-23.464h-14.53l.017.058-6.404 48.271h4.401l6.034-20.507 2.289-7.7c.579 1.649 1.006 2.763 1.268 3.342.871 1.924 5.044 10.212 12.521 24.865h4.56c-5.874-15.274-8.911-23.562-9.111-24.865z"/><path id="G" d="M388.305 165.322l-.228-4.593h-4.791c-3.407 2.297-8.896 3.718-8.896 3.718v.875h8.668l2.966-.438v.438h2.281z"/><path id="H" d="M479.216 58.036c-4.437-4.654-27.75 17.045-37.359-11.412-1.512-4.477 1.597-6.572-.698-7.634s-5.06 4.187-5.06 4.187l-.477-1.327c-1.159-3.142-4.109-10.632-5.231-8.687-1.41 2.445-.888 8.47-.888 8.47l-.284-.455c-.993-1.564-4.34-6.571-5.864-5.618-1.595.997-.262 10.018-.262 10.018l-.185-.245c-.678-.882-3.058-3.794-4.286-2.908-1.442 1.04-20.529 85.674 52.209 89.715l8.385-74.105z"/><path id="I" d="M559.069 100.837c8.028 17.596 7.206 36.359 4.331 46.255-1.891 6.511-6.706 0-6.706 0 3.749 6.619-6.33 14.157-12.698 1.439s-16.345-86.2-16.345-86.2 16.6 6.025 31.418 38.506z"/></defs></svg>