<svg width="530" height="180" viewBox="0 0 530 180" fill="none" xmlns="http://www.w3.org/2000/svg"><path fill-rule="evenodd" clip-rule="evenodd" d="M529.769 163.857c7.725 12.004-179.635 19.834-340.9 14.37-161.266-5.465-235.246-26.803-158.293-38.173 76.953-11.37 491.467 11.799 499.193 23.803z" fill="#ECEEF0" opacity=".505"/><rect x="102.146" width="177.877" height="107.299" rx="29.158" fill="#ECEEF0"/><path fill-rule="evenodd" clip-rule="evenodd" d="M102.146 11.657C102.146 5.219 107.365 0 113.803 0h154.563c6.438 0 11.657 5.219 11.657 11.657H102.146z" fill="#B4BDC3"/><circle cx="111.409" cy="6.563" r="2.702" fill="#ECEEF0"/><circle cx="119.515" cy="6.562" r="2.702" fill="#ECEEF0"/><circle cx="127.621" cy="6.562" r="2.702" fill="#ECEEF0"/><path fill-rule="evenodd" clip-rule="evenodd" d="M75.931 21.537l.004-.014v-.001c.027-.101.182-.688.215-.79a1.15 1.15 0 00.002.241 1.876 1.876 0 00-.136.431c-.048.142-.098.283-.15.424.016-.097.035-.194.065-.291zm.085-.133c.048-.138.093-.275.138-.413l.013.128c.036.35.08.773-.189 1.01a3.385 3.385 0 01.038-.725zM53.645 56.728c.177.002.358.004.532.016a.414.414 0 01.196-.151 6.209 6.209 0 00-.618-.174l-.416.303c.1.003.202.004.305.005zm3.777 1.23c.026.047.051.093.073.137a5.432 5.432 0 01-.332-.224l-.028-.02c.107.034.204.069.287.106zm-14.844 2.276c.166.178.303.432.382.674a52.187 52.187 0 01-.383-.674zm-6.6 23.898c.042.514.169.982.418 1.366a7.568 7.568 0 01-.418-1.366z" fill="#ECEEF0"/><g opacity=".5" fill-rule="evenodd" clip-rule="evenodd"><path d="M81.802 57.227c1.165-1.661 3.327-5.88 4.967-6.473 1.056-.383.748 3.572.761 4.326.05 2.918-.233 5.817-.584 8.71-.632 5.217-2.698 9.863-5.532 14.304-1.459 2.285-3.169 4.598-5.538 6.023-1.09.657-2.403.767-3.48 1.332-1.254.659-.571.127-1.136 1.434-.785 1.814-1.036 4.155-1.4 6.092-1.667 8.888-5.704 55.875-5.005 64.917.063.801-1.055.993-1.11.014-.297-5.187 2.268-41.109 3.563-52.857 1.294-11.748 2.604-22.126 3.918-26.19 1.593-4.931 4.47-10.86 6.866-15.46 1.113-2.135 2.326-4.198 3.71-6.172z" fill="#A1ADB4"/><path d="M90.45 114.842c3.03-2.225 6.312 1.975 3.569 4.201-1.517 1.23-3.102.793-3.995-.233-.58.707-1.121 1.445-1.642 2.069a102.995 102.995 0 00-4.523 5.838c-2.979 4.137-5.532 8.508-8.201 12.799-2.634 4.235-5.247 8.491-7.635 12.833-2.023 3.679-4.719 8.007-5.411 12.04 1.05-8.554 5.037-16.775 9.785-24.315 4.71-7.479 10.114-15.646 17.405-21.548-.742-1.092-.762-2.65.647-3.684z" fill="#B4BDC3"/><path d="M32.924 93.982c1.697.332 4.468 4.17 5.867 5.632 1.662 1.737 3.17 3.589 4.59 5.53a93.474 93.474 0 018.123 13.248c3.793 7.549 6.832 15.298 9.037 23.519 1.35 5.032 2.225 10.248 2.742 15.427.098.977 1.122 8.507-.353 8.71-1.327.183-.917-5.718-.981-6.521-.724-9.055-2.892-17.866-5.908-26.402-.657-1.859-1.267-4.137-2.318-5.81-.756-1.205-.005-.785-1.335-1.241-1.142-.392-2.442-.296-3.611-.776-2.54-1.041-4.573-3.063-6.356-5.097-3.464-3.952-6.209-8.228-7.64-13.292-.793-2.808-1.523-5.632-1.928-8.527-.104-.748-1.022-4.614.071-4.4z" fill="#A1ADB4"/><path d="M39.62 30.134c6.39 11.081 11.64 23.255 15.03 35.584 2.055 7.47 3.492 15.136 4.92 22.747 2.21 11.783 4.3 23.566 4.895 35.559.598 12.063 1.78 25.975-2.169 37.593 1.973-11.795.095-24.35-.238-36.219-.159-5.666-.62-11.277-1.224-16.91-.586-5.464-1.544-10.902-2.436-16.323a702.28 702.28 0 00-1.355-7.911c-.139-.786-.197-3.119-.696-3.656-.502-.54-3.063-.76-3.867-1.158-1.618-.798-3.141-1.933-4.489-3.132-2.583-2.299-4.83-5.302-6.605-8.262-4.104-6.85-5.745-15.21-5.662-23.142.016-1.54 2.493-18.127 1.498-18.355.06-.07.117-.143.17-.218a304.61 304.61 0 012.227 3.803z" fill="#455B6A"/><path d="M108.589 70.101c.098-.142.74-1.131.417-1.068.658-.129-.905 1.09.734.343-.778.735-.329 1.69-.318 2.679.016 1.606-.252 3.2-.555 4.771-.478 2.485-1.19 4.9-2.224 7.212-2.253 5.036-6.079 9.884-10.62 13.033-2.242 1.555-4.44 2.084-6.997 2.8-1.615.452-1.743 1.287-2.6 2.855-1.786 3.264-3.54 6.517-5.113 9.892-1.88 4.029-3.705 8.064-5.426 12.164-5.799 13.813-10.518 28.124-12.997 42.934-.06-8.728 1.959-17.716 4.505-26.035 1.856-6.061 4.27-11.903 6.846-17.687.625-1.401 1.57-3.203 1.836-4.75.185-1.084-.382-2.126-.642-3.268-1.013-4.446-.94-9.426-.051-13.896.98-4.929 3.817-7.217 8.615-7.915 1.754-.255 3.984-.162 5.593-.91 1.753-.814 2.476-3.492 3.473-5.211 2.677-4.618 5.858-9.046 9.51-12.937a30.912 30.912 0 013.253-2.992c.728-.582 2.265-1.298 2.761-2.014z" fill="#455B6A"/><path d="M53.75 162.12a3.342 3.342 0 013.307-3.83h12.495a3.342 3.342 0 013.306 3.83l-.535 3.632a9.116 9.116 0 01-18.037 0l-.536-3.632z" fill="#B4BDC3"/></g><path fill-rule="evenodd" clip-rule="evenodd" d="M158.053 89.273l.125-3.195h-23.48l-.322 71.246 4.091.568 7.72-55.423c.439 4.38.927 9.129 1.428 14.012 1.438 14.011 2.99 29.123 3.838 39.768h4.572c0-15.293 1.227-46.576 2.028-66.976z" fill="#501D2C"/><path fill-rule="evenodd" clip-rule="evenodd" d="M158.053 89.273l.125-3.195h-23.48l-.322 71.246 4.091.568 7.72-55.423c.439 4.38.927 9.129 1.428 14.012 1.438 14.011 2.99 29.123 3.838 39.768h4.572c0-15.293 1.227-46.576 2.028-66.976z" fill="#000" fill-opacity=".01"/><path fill-rule="evenodd" clip-rule="evenodd" d="M154.195 156.217l-2.098-70.17h-1.694l2.862 70.17h.93zm1.595 0l.726-70.17h-1.302l-.351 70.17h.927zm-8.352-70.17l5.262 70.17h-.931l-5.744-70.17h1.413zm-11.8 71.401l1.598-71.401h-1.341l-1.184 71.272.927.129zm5.184-71.401l-3.923 71.577-.918-.129 3.415-71.448h1.426zm-2.523 71.771l6.882-71.771h-1.437l-6.363 71.642.916.129h.002z" fill="#000" fill-opacity=".4"/><path fill-rule="evenodd" clip-rule="evenodd" d="M131.625 159.625h8.968a4.618 4.618 0 00-.311-3.429l-1.547-3.025h-4.976l-1.699 3.072a4.632 4.632 0 00-.435 3.382zm18.081.009l.309-6.463h6.49c4.616 3.231 12.052 5.232 12.052 5.232v1.231h-11.743l-4.017-.616v.616h-3.091z" fill="#501D2C"/><path fill-rule="evenodd" clip-rule="evenodd" d="M140.59 34.794c-1.751.448-2.912 1.078-3.724 2.663-.41.8-.613 1.708-.556 2.635.052.838.32 1.79-.119 2.535-.478.81-1.65 1.06-2.498 1.398-.956.381-1.812.894-2.505 1.625-1.16 1.224-1.569 2.83-1.077 4.541.523 1.821 1.796 3.744 3.844 4.155.381.077.739.086 1.101-.002.331-.08.75-.263 1.112-.143.384.127.62.676.841.976.317.43.673.848 1.157 1.11.795.43 1.824.441 2.649.277.84-.166 1.544-.592 2.123-1.163.387-.382 9.549-1.99 8.987-10.23-.562-8.242-3.83 3.69-3.939 2.661-.121-1.142-.979-1.697-2.001-2.134.214-.12.61-.586.046-.528-.223.023-.433.21-.621.306a2.194 2.194 0 01-.72.238c-1.021.125-1.95-1.318-1.692-2.164.385-1.257 2.021-.497 2.907-.983.509-.28.511-.928.421-1.455-.12-.705-.467-1.363-.85-1.988-.316-.514-.648-1.019-.958-1.535-.146-.242-.513-.987-.869-.976.355-.846-1.552-2.206-3.059-1.82z" fill="#915B3C"/><path fill-rule="evenodd" clip-rule="evenodd" d="M148.714 49.356c.848-.755 1.561-1.8 2.074-2.91 1.15.387 2.165-1.15 2.252-2.895.073-1.454-.951-1.729-1.395-1.78-.134-2.762-.97-5.86-5.647-5.86-5.323 0-5.671 4.012-5.671 6.977 0 .078.002.156.005.236a2.88 2.88 0 000 .293c.019.385.088.742.193 1.06.378 1.626 1.271 3.405 2.473 4.61l-.768 9.221h7.271l-.787-8.952z" fill="#D4A181"/><path fill-rule="evenodd" clip-rule="evenodd" d="M140.489 41.76s-1.686-.062-1.594 1.791c.093 1.854 1.232 3.472 2.468 2.8" fill="#D4A181"/><path fill-rule="evenodd" clip-rule="evenodd" d="M152.131 41.602c.029.183-.512.419-.695.447a.335.335 0 01-.318-.127 34.618 34.618 0 00-2.872-3.331c-1.21-1.22-3.079-1.685-5.609-1.395l-1.116 3.725a1.004 1.004 0 01-1.159.694l-.056-.013c-.375-1.06-.482-2.094-.32-3.103l.025-.144c.613-3.283 3.782-5.451 7.08-4.841a6.066 6.066 0 014.674 4.1c.681 2.12.366 3.989.366 3.989z" fill="#915B3C"/><path fill-rule="evenodd" clip-rule="evenodd" d="M134.533 73.293l7.364.417-2.843 6.55c-3.878 8.92-6.015 13.755-6.411 14.51l-.014.026c-.98 1.814-.457 4.069-2.158 7.634-2.491.861.764-3.555-1.27-2.79-1.129.425.299 5.07-.976 5.61-.353.149-.793-1.087-1.116-1.885l-.046-.114c-1.796-4.336 1.914-8.233 2.56-9.198l.018-.028c.763-1.185 2.272-7.481 4.529-18.888l.363-1.844zm45.456-8.745l.147-.162c1.58-1.73 3.818-3.694 4.101-3.336.675.853-2.174 3.243-1.652 3.488.521.245 1.216 2.762.785 3.262l-.105.23c-.295.63-.767 1.387-3.019 2.654l-.248.138-10.271 9.636-2.469-4.925 9.826-6.897.169-.256c.265-.41.552-.924.755-1.84.245-1.1-.532-4.032 0-4.098.533-.066 1.629 2.09 1.697 2.271.051.136.229-.098.284-.165z" fill="#D4A181"/><path fill-rule="evenodd" clip-rule="evenodd" d="M138.202 56.022c.967-.523 2.841-1.367 3.792-1.287.046-.18.089-.36.127-.543h7.412l.205.685a21.22 21.22 0 013.402.755c1.74.538 2.863 1.963 4.62 4.889.59.983 1.299 2.226 2.053 3.548 2.274 3.991 4.963 8.709 6.075 9.202 1.166.517 7.19-3.78 9.691-5.564.673-.48 1.091-.778 1.091-.752l3.686 3.505c-2.886 5.81-13.017 14.26-17.656 11.345-1.946-1.222-3.601-2.517-5.025-3.873.318.995.659 2.134 1.043 3.503.253.904 3.096 10.451 3.096 10.451h-7.439l-.42-5.578h-11.663l-.171 5.578c-.725.187-5.04.124-7.836.062a1176.81 1176.81 0 00-1.593 4.87h-5.689c1.394-10.638 4.159-24.355 4.161-24.36 1.445-6.909 3.706-14.634 7.038-16.436z" fill="#F7A600"/><path fill-rule="evenodd" clip-rule="evenodd" d="M138.202 56.022c.967-.523 2.841-1.367 3.792-1.287.046-.18.089-.36.127-.543h7.412l.205.685a21.22 21.22 0 013.402.755c1.74.538 2.863 1.963 4.62 4.889.59.983 1.299 2.226 2.053 3.548 2.274 3.991 4.963 8.709 6.075 9.202 1.166.517 7.19-3.78 9.691-5.564.673-.48 1.091-.778 1.091-.752l3.686 3.505c-2.886 5.81-13.017 14.26-17.656 11.345-1.946-1.222-3.601-2.517-5.025-3.873.318.995.659 2.134 1.043 3.503.253.904 3.096 10.451 3.096 10.451h-7.439l-.42-5.578h-11.663l-.171 5.578c-.725.187-5.04.124-7.836.062a1176.81 1176.81 0 00-1.593 4.87h-5.689c1.394-10.638 4.159-24.355 4.161-24.36 1.445-6.909 3.706-14.634 7.038-16.436z" fill="#9E292B"/><path fill-rule="evenodd" clip-rule="evenodd" d="M132.692 96.819l1.545-4.906c.627-10.276 2.178-26.487 2.178-26.487-.789 4.702-1.484 9.073-2.109 13-1.395 8.776-2.437 15.33-3.394 18.393h1.78zm22.076-29.984l2.966 11.19 1.505 1.291 1.702 1.264-6.173-13.745z" fill="#000" fill-opacity=".1"/><path fill-rule="evenodd" clip-rule="evenodd" d="M142.292 86.693h11.663s-.275-2.166-1.531-15.427c-.7-7.395-2.795-14.429-2.795-19.667l-7.515.009c-.547 12.398.178 19.334.178 35.085z" fill="#ECEEF0"/><path fill-rule="evenodd" clip-rule="evenodd" d="M140.546 82.976a.731.731 0 11-.154 1.453.731.731 0 11.154-1.453zm.047-4.49a.731.731 0 11-.154 1.453.731.731 0 11.154-1.454zm-.111-4.508a.731.731 0 11-.154 1.453.731.731 0 11.154-1.453zm-.039-4.002a.73.73 0 11-.154 1.453.73.73 0 11.154-1.453zm-.005-3.998a.73.73 0 11-.154 1.453.73.73 0 11.154-1.453z" fill="#000" fill-opacity=".2"/><ellipse cx="194.618" cy="95.561" rx="6.224" ry="5.8" transform="rotate(-5 194.618 95.56)" fill="#501D2C"/><path fill-rule="evenodd" clip-rule="evenodd" d="M197.216 100.91c.828.19 1.669.182 2.412-.045 1.303-.462 1.044-4.83-.156-6.668-1.2-1.84-6.576-2.216-6.509 1.63a5.086 5.086 0 001.555 3.619l-.837 6.751 4.272-.374-.737-4.913z" fill="#784931"/><path fill-rule="evenodd" clip-rule="evenodd" d="M193.006 93.118c-2.991 3.501.592 6.63 1.492 6.552.018-.469.156-.936.378-1.388a1.052 1.052 0 01-.276-.624 1.088 1.088 0 011.002-1.168c.189-.016.371.015.533.084 1.214-1.237 2.791-2.164 3.594-2.39 1.398-.391-3.732-4.567-6.723-1.066z" fill="#501D2C"/><path fill-rule="evenodd" clip-rule="evenodd" d="M189.603 136.54c.199-.446 1.444-10.079 1.529-17.234h8.912l8.221 37.574h-2.124l-5.377-17.213-4.142-10.519-.182.757c-1.069 4.441-1.99 8.269-2.4 8.959-.739 1.246-16.709 10.59-16.709 10.59l-1.463-1.571s13.536-10.897 13.735-11.343z" fill="#784931"/><path fill-rule="evenodd" clip-rule="evenodd" d="M176.517 148.543c-.483-.578-1.165-1.172-1.785-.744a.791.791 0 00-.074.055c-.339.285-.894.945-.894.945l5.923 7.082s1.14-.49.715-1.146c-.425-.655-.695-1.098-.695-1.098l-1.092-3.826a.864.864 0 00-1.093-.589s-.717-.335-1.005-.679z" fill="#455B6A"/><path fill-rule="evenodd" clip-rule="evenodd" d="M177.918 150.447c.134.161.383-.048.248-.209-.134-.16-.382.049-.248.209zm.212.912c.134.16.382-.049.248-.209-.134-.16-.383.048-.248.209zm.219.92c.134.16.382-.048.248-.209-.134-.16-.382.049-.248.209zm.294.797c.134.16.383-.049.249-.209-.134-.16-.383.048-.249.209z" fill="#A1ADB4"/><path fill-rule="evenodd" clip-rule="evenodd" d="M206.719 156.197c-.752 0-1.641.142-1.716.89a1.147 1.147 0 00-.005.097c0 .444.147 1.294.147 1.294h9.213s.36-1.191-.414-1.286a52.943 52.943 0 01-1.286-.172l-3.621-1.619a.865.865 0 00-1.154.461s-.716.335-1.164.335z" fill="#455B6A"/><path fill-rule="evenodd" clip-rule="evenodd" d="M209.073 156.345c.209 0 .209-.325 0-.325-.208 0-.208.325 0 .325zm.832.423c.209 0 .209-.325 0-.325-.208 0-.209.325 0 .325zm.844.423c.208 0 .209-.325 0-.325s-.209.325 0 .325zm.797.286c.209 0 .209-.326 0-.326-.208 0-.208.326 0 .326z" fill="#A1ADB4"/><path fill-rule="evenodd" clip-rule="evenodd" d="M184.579 153.215l-6.623-7.865s10.481-11.188 10.744-11.82c.264-.633 1.021-14.224 1.021-14.224h11.03l7.482 34.702-10.096 1.099-2.66-14.815c-3.333 4.632-10.898 12.923-10.898 12.923z" fill="#455B6A"/><path fill-rule="evenodd" clip-rule="evenodd" d="M184.579 153.215l-6.623-7.865s10.481-11.188 10.744-11.82c.264-.633 1.021-14.224 1.021-14.224h11.03l7.482 34.702-10.096 1.099-2.66-14.815c-3.333 4.632-10.898 12.923-10.898 12.923z" fill="#000" fill-opacity=".01"/><path fill-rule="evenodd" clip-rule="evenodd" d="M195.477 140.292l2.66 14.815 10.096-1.099-7.482-34.702h-.85s-1.386 15.449-3.123 18.946c-.26.523-.715 1.225-1.301 2.04z" fill="#000" fill-opacity=".2"/><path fill-rule="evenodd" clip-rule="evenodd" d="M189.962 122.092a1.39 1.39 0 001.388-1.393 1.39 1.39 0 00-1.388-1.393 1.39 1.39 0 00-1.389 1.393c0 .769.622 1.393 1.389 1.393zm9.392.492a1.882 1.882 0 01-1.878 1.885 1.882 1.882 0 01-1.879-1.885c0-1.041.841-1.885 1.879-1.885 1.037 0 1.878.844 1.878 1.885zm-7.065 3.81c.88 0 1.593-.715 1.593-1.598 0-.882-.713-1.598-1.593-1.598-.879 0-1.592.716-1.592 1.598 0 .883.713 1.598 1.592 1.598zm10.047 3.852c1.06 0 1.919-.862 1.919-1.926a1.923 1.923 0 00-1.919-1.926c-1.06 0-1.92.863-1.92 1.926 0 1.064.86 1.926 1.92 1.926zm-7.555 5.942c0 1.063-.86 1.925-1.92 1.925a1.922 1.922 0 01-1.919-1.925c0-1.064.859-1.926 1.919-1.926s1.92.862 1.92 1.926zm-8.807 3.196c1.06 0 1.919-.863 1.919-1.926a1.922 1.922 0 00-1.919-1.926c-1.06 0-1.919.862-1.919 1.926 0 1.063.859 1.926 1.919 1.926zm.613 4.261a1.39 1.39 0 01-1.389 1.393 1.39 1.39 0 01-1.388-1.393 1.39 1.39 0 011.388-1.393c.767 0 1.389.624 1.389 1.393zm-4.322.538a1.913 1.913 0 01-1.91 1.916 1.913 1.913 0 01-1.91-1.916c0-1.059.855-1.916 1.91-1.916s1.91.857 1.91 1.916zm18.641-7.514c0 .86-.694 1.557-1.552 1.557a1.554 1.554 0 01-1.551-1.557c0-.86.694-1.557 1.551-1.557.858 0 1.552.697 1.552 1.557zm3.839 5.296c1.06 0 1.919-.862 1.919-1.926a1.923 1.923 0 00-1.919-1.926c-1.06 0-1.919.863-1.919 1.926 0 1.064.859 1.926 1.919 1.926zm-.367 4.134a1.923 1.923 0 01-1.919 1.926 1.923 1.923 0 01-1.919-1.926c0-1.064.859-1.926 1.919-1.926s1.919.862 1.919 1.926zm-6.976 6.602c1.06 0 1.92-.863 1.92-1.926 0-1.064-.86-1.926-1.92-1.926s-1.919.862-1.919 1.926c0 1.063.859 1.926 1.919 1.926zm1.266-8.113c0 .882-.713 1.598-1.592 1.598-.88 0-1.593-.716-1.593-1.598 0-.883.713-1.598 1.593-1.598.879 0 1.592.715 1.592 1.598zm3.791 10.807c.88 0 1.593-.715 1.593-1.598 0-.883-.713-1.598-1.593-1.598s-1.593.715-1.593 1.598c0 .883.713 1.598 1.593 1.598zm5.873-4.948c0 .883-.713 1.598-1.593 1.598s-1.593-.715-1.593-1.598c0-.883.713-1.598 1.593-1.598s1.593.715 1.593 1.598zm-18.717-18.521c1.06 0 1.92-.862 1.92-1.926 0-1.063-.86-1.926-1.92-1.926s-1.919.863-1.919 1.926c0 1.064.859 1.926 1.919 1.926zm1.92 9.465c0 .883-.713 1.599-1.593 1.599s-1.593-.716-1.593-1.599c0-.882.713-1.598 1.593-1.598s1.593.716 1.593 1.598zm-5.684 9.947a2.045 2.045 0 002.042-2.048 2.045 2.045 0 00-2.042-2.049 2.045 2.045 0 00-2.041 2.049c0 1.131.914 2.048 2.041 2.048zm12.687-20.477a2.046 2.046 0 01-2.042 2.049 2.046 2.046 0 01-2.042-2.049c0-1.132.914-2.049 2.042-2.049 1.128 0 2.042.917 2.042 2.049z" fill="#fff" fill-opacity=".2"/><path fill-rule="evenodd" clip-rule="evenodd" d="M206.851 105.977l-5.669 3.116 2.093 2.255 4.12-3.785c2.171-.6 3.163-1.039 2.978-1.317-.156-.234-.408-.226-.641-.219-.18.006-.349.012-.451-.098-.233-.251.211-1.128.669-1.943.457-.814-.032-.743-.312-.626-.915.621-1.844 1.494-2.787 2.617zm5.701 4.372l-2.49 1.373.141 2.508s1.614-1.168 3.001-1.557c1.77-.495 2.486-.873 3.35-1.978.463-.591.856-1.78.415-2.168-.169-.148-.798.203-1.44.561-.49.273-.987.55-1.293.613-.412.085-.363-.451-.325-.879.028-.307.05-.559-.106-.487-.729.013-1.253 2.014-1.253 2.014z" fill="#784931"/><path fill-rule="evenodd" clip-rule="evenodd" d="M188.413 125.14c1.028-.203 2.763.024 4.651.271 3.533.462 7.603.995 8.581-1.09.729-1.556.946-3.259.851-5.049 3.006-.066 6.655-1.061 10.912-3.292.14-1.632-1.707-5.465-1.707-5.465s-7.314 2.611-10.608 1.861l-.102-.343c2.106-.338 4.339-1.74 5.999-3.392l-1.11-2.483c-2.185 1.392-4.265 1.959-6.014 2.154-.627-2.139-1.16-4.24-1.314-6.217h-4.532c-.497 0-3.875 6.497-3.878 10.718-.001 1.45-.507 2.701-1.04 4.017-.885 2.185-1.842 4.552-.689 8.31z" fill="#F7A600"/><path fill-rule="evenodd" clip-rule="evenodd" d="M188.413 125.14c1.028-.203 2.763.024 4.651.271 3.533.462 7.603.995 8.581-1.09.729-1.556.946-3.259.851-5.049 3.006-.066 6.655-1.061 10.912-3.292.14-1.632-1.707-5.465-1.707-5.465s-7.314 2.611-10.608 1.861l-.102-.343c2.106-.338 4.339-1.74 5.999-3.392l-1.11-2.483c-2.185 1.392-4.265 1.959-6.014 2.154-.627-2.139-1.16-4.24-1.314-6.217h-4.532c-.497 0-3.875 6.497-3.878 10.718-.001 1.45-.507 2.701-1.04 4.017-.885 2.185-1.842 4.552-.689 8.31z" fill="#000" fill-opacity=".01"/><path fill-rule="evenodd" clip-rule="evenodd" d="M206.99 108.64l-1.11-2.483c-2.185 1.392-4.265 1.959-6.014 2.155.201.685.412 1.375.623 2.066.169.551.338 1.103.502 1.655 2.106-.339 4.34-1.74 5.999-3.393zm-5.416 10.31c-3.926.281-8.397-8.265-8.397-8.265s-.641 1.074.932 7.633c1.573 6.558 11.392.35 7.465.632z" fill="#000" fill-opacity=".1"/><path fill-rule="evenodd" clip-rule="evenodd" d="M225.103 67.556l.043.037 7.644 6.69c.803 1.148.303 2.835-1.126 3.27-3.338 1.014-6.059 3.499-4.795 7.28 1.025 3.064 4.646 4.629 7.666 3.508 2.409-.893 2.911-2.879 3.413-5.138l.046-.21c.34-1.531 1.686-2.23 2.988-1.525l.045.025 5.813 5.088 1.741 1.522a3.17 3.17 0 01.342 4.424l-.036.043-6.638 7.627c-.457 1.182.224 2.602 1.579 2.878l.352.072.279.06c2.113.465 4.035 1.143 4.88 3.411 1.13 3.031-.577 6.598-3.631 7.614-3.729 1.241-6.207-1.429-7.252-4.732l-.031-.101c-.414-1.35-1.933-1.878-3.061-1.266l-.039.021-5.524 6.348-1.208 1.391a3.169 3.169 0 01-4.471.314l-6.97-6.047a127.61 127.61 0 00-.875-.751l-.01-.007-7.76-6.79-.015-.015-.149-.135c-.868-.777-4.995-4.415-7.682-6.782a3.168 3.168 0 01-.331-4.416l.036-.042 20.301-23.325a3.17 3.17 0 014.436-.34z" fill="#B4BDC3"/><path opacity=".416" fill-rule="evenodd" clip-rule="evenodd" d="M234.829 88.223c-.224 4.758-1.832 8.303-6.049 8.524-3.744.196-7.681-.167-11.398-.509-6.183-.57-11.755-1.082-14.808 1.128a1734.3 1734.3 0 015.769 5.097l.15.135.014.014 7.76 6.791.01.007c.059.047.38.323.875.751l6.971 6.047a3.168 3.168 0 004.47-.315l1.208-1.391 5.524-6.348.039-.021c1.129-.611 2.647-.084 3.061 1.267l.031.1c1.045 3.303 3.523 5.973 7.252 4.733 3.054-1.016 4.761-4.584 3.631-7.615-.845-2.268-2.767-2.946-4.88-3.41l-.279-.06-.352-.073c-1.355-.275-2.036-1.696-1.579-2.877l6.638-7.628.036-.042a3.169 3.169 0 00-.342-4.425l-1.741-1.522-5.813-5.088-.045-.025c-1.302-.705-2.648-.006-2.987 1.525l-.047.21c-.481 2.165-.962 4.078-3.119 5.02z" fill="#E3E7E9"/><path fill-rule="evenodd" clip-rule="evenodd" d="M271.938 82.764c-1.088.31-2.207.359-3.21.108-1.765-.523-1.725-6.349-.257-8.877 1.467-2.529 8.589-3.404 8.768 1.713.07 2.009-.671 3.683-1.816 4.921l1.584 8.918-5.706-.2.637-6.583z" fill="#915B3C"/><path fill-rule="evenodd" clip-rule="evenodd" d="M273.226 76.769a1.429 1.429 0 011.557 1.476 1.43 1.43 0 01-.465 1.008c.314.48.667.98 1.073 1.5 1.626-.903 3.141-3.858 1.678-6.608-.384-1.336-1.569-1.886-2.708-2.253-.919-.424-2.086-.657-2.911-.451-1.605.082-2.851.677-3.266.953-.053 1.521.225 1.983 2.735 2.03.597.344 1.048.914 1.509 1.655-.116.898-.644 4.35-1.867 4.307-.846-.03-1.606-.409-2.213-.711-.401-.2-.735-.367-.981-.376-.449-.015-.091.892.192 1.32.093.14.292.243.499.35.315.162.645.332.634.655-.01.303-.312.291-.575.282-.202-.008-.381-.014-.386.124l-.013.217c-.039.54-.092 1.294.702 1.322.92.032 3.568-.213 4.067-1.566.395-1.068.649-4.032.739-5.234z" fill="#501D2C"/><path fill-rule="evenodd" clip-rule="evenodd" d="M286.663 159.518l-.785-2.589h-3.873l.95 2.589h3.708zm-27.199 0l.473-2.589h-3.872l-.475 2.589h3.874z" fill="#D4A181"/><path fill-rule="evenodd" clip-rule="evenodd" d="M277.552 132.68c-.201-1.303-.853-9.124-1.044-23.464h-14.53l.017.058-6.405 48.271h4.402l6.034-20.507 2.289-7.699c.579 1.648 1.005 2.762 1.268 3.341.87 1.924 5.044 10.213 12.521 24.865h4.559c-5.873-15.274-8.91-23.562-9.111-24.865z" fill="#344450"/><path fill-rule="evenodd" clip-rule="evenodd" d="M277.552 132.68c-.201-1.303-.853-9.124-1.044-23.464h-14.53l.017.058-6.405 48.271h4.402l6.034-20.507 2.289-7.699c.579 1.648 1.005 2.762 1.268 3.341.87 1.924 5.044 10.213 12.521 24.865h4.559c-5.873-15.274-8.91-23.562-9.111-24.865z" fill="#000" fill-opacity=".01"/><path fill-rule="evenodd" clip-rule="evenodd" d="M268.314 129.339l-2.288 7.699-6.035 20.507h-4.401l6.405-48.271c2.82 9.558 4.978 16.246 6.319 20.065z" fill="#000" fill-opacity=".4"/><path fill-rule="evenodd" clip-rule="evenodd" d="M287.071 161.482l-.228-4.592h-4.791c-3.407 2.296-8.897 3.717-8.897 3.717v.875h8.669l2.966-.437v.437h2.281zm-26.462 0l-.228-4.592h-4.791c-3.407 2.296-8.896 3.717-8.896 3.717v.875h8.668l2.966-.437v.437h2.281z" fill="#501D2C"/><path fill-rule="evenodd" clip-rule="evenodd" d="M267.141 113.394c-.802-.734-1.249-1.755-1.331-2.806-.045-.577-1.092-.729-1.039-.041.209 2.686 2.572 4.843 5.348 4.991l.122.869c.211 1.502.423 3.014.693 4.482.139.758.271 1.508.403 2.255.861 4.889 1.695 9.621 4.323 15.561a1398.878 1398.878 0 017.371 16.985c.093.219.432.625.69.567.298-.067.373-.293.283-.5-.445-1.02-.914-2.11-1.399-3.24-1.016-2.367-2.107-4.907-3.214-7.338-.332-.731-.673-1.457-1.016-2.19-1.884-4.022-3.853-8.227-5.133-14.376-1.31-6.294-1.812-10.412-2.388-15.132-.089-.73-.18-1.474-.276-2.243-.071-.573-1.125-.727-1.039-.041.139 1.119.289 2.236.443 3.354-1.059-.057-2.068-.451-2.841-1.157zm-2.794 3.797s-2.413 16.433-3.093 20.344c-.527 3.026-1.671 9.414-2.49 13.984l-.61 3.412c-.062.448.783.925.854.406 0 0 5.91-35.618 5.91-36.295l-.571-1.851z" fill="#000" fill-opacity=".4"/><path fill-rule="evenodd" clip-rule="evenodd" d="M245.634 89.624l8.195 4.238.99-4.284-7.748-1.865c-2.438-2.096-3.747-2.922-3.927-2.48-.152.372.058.664.252.933.151.21.292.406.244.615-.11.476-1.499.65-2.824.757-1.325.108-.852.632-.491.87 1.463.589 3.232.994 5.309 1.216zm2.924 12.969l8.272-4.103.911 4.299-7.782 1.739c-2.476 2.055-3.801 2.86-3.972 2.415-.145-.374.071-.663.269-.929.155-.208.3-.401.255-.611-.101-.478-1.486-.674-2.809-.803-1.323-.13-.84-.645-.475-.878 1.474-.565 3.251-.941 5.331-1.129z" fill="#D4A181"/><path fill-rule="evenodd" clip-rule="evenodd" d="M277.527 112.784l-17.673-3.116s9.245-17.316 10.582-24.141c.046-.232.547-.567.727-.48 1.975.956 4.527.344 4.527.344 2.997 7.5 2.979 16.079 1.837 27.393z" fill="#ECEEF0"/><path fill-rule="evenodd" clip-rule="evenodd" d="M246.441 91.32c-.316-.14-.635-.29-.956-.443l1.764-4.528a17.945 17.945 0 002.471.858 19.508 19.508 0 001.982.438c.289.05.582.092.871.13.637.078 1.276.131 1.911.158.013.002.027.002.04.002h.002c1.153.05 2.299.02 3.429-.071a32.325 32.325 0 001.676-.173 31.587 31.587 0 001.471-.21c.686-.11 1.364-.235 2.027-.367a90.787 90.787 0 002.847-.62l1.09-.254.68-.16.099-.023c.078-.017.155-.035.231-.054 1.765-.41 3.344-.75 4.67-.848a8.236 8.236 0 011.428-.005l.011-.024 2.738.483c.521.092.77.428.901.715.043.095.074.188.096.264.307.982.598 2.08.867 3.268.137.608.269 1.241.394 1.897a67.594 67.594 0 01.76 5.045c.072.611.136 1.232.188 1.86.064.71.12 1.43.159 2.157a71.592 71.592 0 01.114 2.912 67.769 67.769 0 01-.005 2.673 58.551 58.551 0 01-.244 4.164 47.652 47.652 0 01-.266 2.228 41.35 41.35 0 01-.499 2.795c-.109.498-.227.99-.354 1.471-.16.595-.331 1.177-.521 1.742l-9.423-1.662a4.715 4.715 0 01-1.641-.598 3.728 3.728 0 01-.432-.306 4.29 4.29 0 01-1.123-1.414 5.35 5.35 0 01-.121-.252 7.206 7.206 0 01-.528-1.917 11.79 11.79 0 01-.115-1.87 20.695 20.695 0 01.158-2.251c.046-.372.104-.753.171-1.146.045-.26.095-.524.147-.793.101-.519.218-1.051.355-1.597a37.53 37.53 0 01.496-1.859c.072-.261.151-.521.23-.784l.017-.056c.182-.59.375-1.19.587-1.799l.016-.049a60.666 60.666 0 01.742-2.065 83.079 83.079 0 011.255-3.139l-.108.008-.449.036a51.876 51.876 0 01-1.901.105 211.383 211.383 0 01-3.675 7.791c-2.95 1.243-6.628 1.979-11.356 2.851l-2.533-4.138c4.431-2.106 8.277-4.263 11.661-6.662a42.412 42.412 0 01-2.464-.3 34.455 34.455 0 01-.849-.137 44.247 44.247 0 01-5.422-1.288 39.075 39.075 0 01-1.352-.439 41.033 41.033 0 01-2.701-1.013 40.268 40.268 0 01-1.714-.736z" fill="#9E292B"/><path fill-rule="evenodd" clip-rule="evenodd" d="M245.485 90.877c.321.154.64.303.956.444.576.263 1.146.508 1.714.736a41.033 41.033 0 002.701 1.013 44.314 44.314 0 004.975 1.38c.606.132 1.206.247 1.799.347a38.215 38.215 0 002.116.31 44.248 44.248 0 004.989.317 45.99 45.99 0 002.212-.036 53.95 53.95 0 001.8-.1l.557-.045a80.507 80.507 0 00-1.419 3.577 60.666 60.666 0 00-.578 1.627l-.016.049a52.753 52.753 0 00-.587 1.799c-.085.282-.17.561-.247.84a37.53 37.53 0 00-.496 1.859 30.464 30.464 0 00-.355 1.597c-.052.269-.102.533-.147.793a25.323 25.323 0 00-.244 1.81c-.054.551-.083 1.08-.085 1.587-.009.666.03 1.293.115 1.87.102.712.277 1.355.528 1.917.039.086.079.171.121.252a4.29 4.29 0 001.123 1.414c.134.111.28.213.432.306.47.285 1.014.487 1.641.598l9.423 1.662c.19-.565.361-1.147.521-1.742.127-.481.245-.973.354-1.471.024-.114.05-.231.072-.346a41.35 41.35 0 00.427-2.449c.089-.625.168-1.257.233-1.896.012-.109.022-.22.033-.332a58.551 58.551 0 00.255-4.82 67.769 67.769 0 00-.12-4.929 59.857 59.857 0 00-.159-2.158 54.14 54.14 0 00-.188-1.859 67.594 67.594 0 00-.76-5.045 58.256 58.256 0 00-.394-1.897 42.648 42.648 0 00-.867-3.268 2.04 2.04 0 00-.096-.264c-.131-.287-.38-.623-.901-.715l-2.738-.483-.011.024a8.236 8.236 0 00-1.428.005c-1.326.099-2.905.438-4.67.848l-.33.078-1.77.414c-.434.099-.875.2-1.324.298-.499.11-1.006.217-1.523.32a52.344 52.344 0 01-2.621.46c-.291.043-.582.083-.877.118-.553.072-1.112.13-1.676.173-1.13.09-2.276.12-3.429.072-.015 0-.029 0-.042-.003a23.466 23.466 0 01-1.911-.159 18.408 18.408 0 01-.871-.13 19.508 19.508 0 01-1.982-.437 17.945 17.945 0 01-2.471-.858l-1.764 4.528z" fill="#000" fill-opacity=".2"/><path fill-rule="evenodd" clip-rule="evenodd" d="M258.61 89.08c.578.786.407 1.836-.041 2.688-1.127-.177-2.247-.626-2.475-1.766-.342-1.696 1.619-2.144 2.516-.922zm16.131 5.642a6.898 6.898 0 01-.92.255 30.745 30.745 0 01-.672-4.447c-.103-1.414-.1-3.377 1.317-4.167 1.381-.773 3.111.154 3.732 1.48 1.321 2.823-.775 5.939-3.457 6.879zm3.86 18.895c-.595.411-1.463.193-1.996-.207-.964-.723-1.529-2.134-2.002-3.409 1.351-.094 2.703.223 3.746 1.098.709.597 1.203 1.864.252 2.518zm.534-11.562c.724.607.785 1.758-.24 2.045-1.674.464-2.53-1.601-3.061-2.884l-.021-.051c.3-.013.604-.005.918.029.814.091 1.763.323 2.404.861zm-29-14.775c-.136-.034-.274-.07-.409-.108a7.373 7.373 0 00-.205 2.208c.082 1.308.568 2.59 1.341 3.656h.003a42.734 42.734 0 004.972 1.38c.607.13 1.206.246 1.799.346.285.05.568.095.849.138a5.411 5.411 0 001.195-1.1c1.023.09 2.043.046 2.911-.085a8.096 8.096 0 001.732-.476 15.09 15.09 0 002.63 2.114 50.663 50.663 0 002.356-.145c-.158.373-.311.745-.461 1.113 1.164.46 2.431.723 3.692.748.24.845.506 1.683.798 2.51-.991.33-1.902.843-2.796 1.443a7.022 7.022 0 00-1.344-1.48 5.003 5.003 0 00-1.308-.757 55.104 55.104 0 00-.577 1.627l-.016.05c.778.272 1.379.862 1.847 1.534-.744.503-1.543.958-2.432 1.083-.08.012-.162.019-.249.021a11.73 11.73 0 00-.115.407c-.031.111-.063.222-.091.33-.038.136-.074.272-.11.406l-.043.165-.024.094-.03.12-.034.137a3.227 3.227 0 00-.049.2 4.337 4.337 0 001.669-.004c.922-.197 1.743-.627 2.523-1.132.544 1.117 1.013 2.285 1.477 3.442.158.392.315.784.474 1.171a8.233 8.233 0 00-3.253 1.953 16.108 16.108 0 00-1.336-1.725c-.593-.662-1.321-1.111-2.056-1.314l-.016.094-.014.09a26.406 26.406 0 00-.142.961c-.027.225-.052.446-.072.664.504.148.998.594 1.327 1.01.406.518.786 1.06 1.149 1.62-.1.154-.202.309-.294.471-.073.13-.148.269-.226.414-.359.668-.774 1.442-1.398 1.859l.003.008c.039.083.077.165.118.244.035.07.072.141.113.207.023.044.05.088.076.131l.011.018a.57.57 0 01.026.041l.05.077.051.075.01.016c.007.01.014.021.022.03a1.932 1.932 0 00.121.161l.021.029.027.035a2.574 2.574 0 00.121.141l.008.01a4.558 4.558 0 00.205.211l.028.027c.052.052.105.099.164.145.004.003.005.006.01.009a.764.764 0 00.06.051c.735-.578 1.3-1.487 1.856-2.382a32.457 32.457 0 011.572 3.525l1.951.344-.06-.167c-.649-1.729-1.423-3.585-2.373-5.31.175-.211.356-.407.548-.57a6.96 6.96 0 012.376-1.303c.622 1.548 1.281 3.18 2.494 4.298 1.034.954 2.672 1.514 4.006.918l.01-.046.063-.3a43.17 43.17 0 00.691-4.677c-1.006-1.338-2.684-2.14-4.308-2.383a8.401 8.401 0 00-2.006-.055l-.494-1.16c-.499-1.171-.998-2.342-1.511-3.506a60.828 60.828 0 00-.265-.581l.057-.039c.768-.544 1.568-1.003 2.418-1.298.558 1.412 1.259 2.82 2.422 3.752 1.066.852 2.735 1.199 3.943.45-.001-.031 0-.065.002-.096v-.005c.002-.257.003-.515.001-.772v-.046c0-.016-.001-.031 0-.047.001-.033.002-.066.001-.099a71.592 71.592 0 00-.123-3.864c-1.283-1.18-3.208-1.634-4.906-1.575-.103.004-.205.012-.307.02l-.026.002a37.203 37.203 0 01-.736-2.288c1.517-.26 2.95-.911 4.093-2.04a6.522 6.522 0 001.084-1.419c-.033-.203-.066-.406-.102-.606l-.044-.256-.056-.327-.063-.334-.045-.238a64.18 64.18 0 00-.394-1.898 42.673 42.673 0 00-.867-3.269 2.046 2.046 0 00-.096-.263c-.132-.287-.38-.623-.901-.715l-2.738-.483-.011.025a8.74 8.74 0 00-.334-.024h-.015a10.135 10.135 0 00-.224-.004h-.261l-.03.001h-.002c-.06.001-.122.004-.182.008a6.086 6.086 0 00-.38.023c-.665.567-1.159 1.394-1.36 2.481-.366 1.964.001 4.056.348 5.998.092.51.194 1.017.309 1.522-2.256-.092-4.416-1.194-6.13-2.734 1.922-1.332 3.111-3.5 2.003-6.008a2.984 2.984 0 00-.171-.334l-.491.116-.259.06c-.187.045-.377.09-.568.133l-.451.106c.024.023.045.05.066.078.986 1.267.101 3.079-.956 3.959a5.12 5.12 0 01-.626.44c-.779-.885-1.453-1.923-1.498-2.983a1.944 1.944 0 01.167-.875 37.22 37.22 0 01-1.005.19c-.337.064-.679.123-1.022.176.002 1.544.801 2.946 1.751 4.151-.709.184-1.454.262-2.192.28.277-1.02.229-2.126-.268-3.145a4.157 4.157 0 00-.762-1.075c-.148.02-.297.037-.447.055l-.015.002-.269.03h-.014a5.514 5.514 0 01-.284.029c-.214.021-.431.04-.646.057a28.064 28.064 0 01-3.473.069 3.185 3.185 0 00-.301 1.362c-.004 2.117 1.298 3.351 2.999 3.998-.907.54-2.008.634-3.049.243-2.588-.971-3.107-3.573-2.43-5.892a15.77 15.77 0 01-.466-.084l-.004-.001a6.203 6.203 0 01-.29-.058c-.129-.025-.26-.055-.39-.085l-.019-.004-.018-.004c-.128-.03-.256-.06-.386-.093zm1.494 13.432c-.027.014-.053.028-.081.041.422.117.837.251 1.248.4-.578 1.577-.722 3.261-.18 4.698l.444-.082.067-.013c.429-.081.85-.161 1.259-.241-.495-1.097-.236-2.471.242-3.574.285.143.566.292.844.453l.122.071c.817.471 2.182 1.257 2.583 2.246.445-.106.876-.216 1.296-.329l.383-.104c-.656-1.554-2.139-2.58-3.526-3.423a16.806 16.806 0 00-.812-.459c1.433-2.027 3.978-4.197 5.462-1.18.674 1.371.918 2.912.846 4.45.409-.141.806-.29 1.189-.448a7.9 7.9 0 00.251-.108l.168-.338.235-.471c-.163-1.881-.762-3.68-1.938-5.06-.573-.67-1.194-1.094-1.838-1.31-.263.177-.53.353-.8.529a60.51 60.51 0 01-2.223 1.387 75.256 75.256 0 01-3.486 1.96c-.549.291-1.106.58-1.675.864l-.08.041z" fill="#fff" fill-opacity=".2"/><path fill-rule="evenodd" clip-rule="evenodd" d="M247.019 89.672a.89.89 0 101.752.31.89.89 0 10-1.752-.31zm21.822 8.438a.89.89 0 101.753.309.892.892 0 00-.722-1.034.891.891 0 00-1.031.725zm-.3 4.812a.892.892 0 01-.721-1.034.891.891 0 011.031-.725.892.892 0 01-.31 1.759zm-1.459 3.153a.892.892 0 00.721 1.034.892.892 0 001.031-.725.89.89 0 10-1.752-.309zm.212 5.261a.89.89 0 01-.721-1.034.89.89 0 111.753.309.892.892 0 01-1.032.725z" fill="#000" fill-opacity=".2"/><path fill-rule="evenodd" clip-rule="evenodd" d="M377.981 54.196c-4.436-4.654-27.749 17.046-37.358-11.412-1.512-4.477 1.597-6.571-.699-7.633-2.295-1.063-5.059 4.186-5.059 4.186l-.477-1.327c-1.159-3.141-4.11-10.631-5.231-8.686-1.41 2.444-.888 8.47-.888 8.47l-.284-.455c-.994-1.563-4.34-6.571-5.865-5.618-1.594.998-.262 10.018-.262 10.018l-.184-.245c-.678-.882-3.058-3.794-4.286-2.908-1.442 1.04-20.53 85.675 52.208 89.715l8.385-74.105z" fill="#9E292B"/><path fill-rule="evenodd" clip-rule="evenodd" d="M377.981 54.196c-4.436-4.654-27.749 17.046-37.358-11.412-1.512-4.477 1.597-6.571-.699-7.633-2.295-1.063-5.059 4.186-5.059 4.186l-.477-1.327c-1.159-3.141-4.11-10.631-5.231-8.686-1.41 2.444-.888 8.47-.888 8.47l-.284-.455c-.994-1.563-4.34-6.571-5.865-5.618-1.594.998-.262 10.018-.262 10.018l-.184-.245c-.678-.882-3.058-3.794-4.286-2.908-1.442 1.04-20.53 85.675 52.208 89.715l8.385-74.105z" fill="#000" fill-opacity=".2"/><path fill-rule="evenodd" clip-rule="evenodd" d="M370.856 57.278c-1.662-5.588-7.751-7.244-13.603-3.7-5.851 3.545-9.248 10.948-7.587 16.535 1.661 5.588 7.751 7.245 13.602 3.7 5.852-3.544 9.248-10.948 7.588-16.535zm-19.278 26.75c-2.897-3.512-7.783-2.84-10.913 1.502-3.13 4.341-3.319 10.708-.421 14.22 2.897 3.511 7.783 2.839 10.913-1.503 3.13-4.341 3.319-10.708.421-14.22z" fill="#000" fill-opacity=".1"/><path fill-rule="evenodd" clip-rule="evenodd" d="M391.226 147.703l-2.406 20.023 8.593.968c.56.012 1.013.459 1.033 1.02l-11.716.518-22.237 2.718s-.233-.841-.144-1.109c.019-.055.729-.362 1.552-.454.823-.092 16.262-2.331 16.262-2.331l-18.792.658s.061-1.008.546-1.389c.637-.499 16.168-.599 16.168-.599l-13.316-.784s.048-.777.394-.982c1.641-.977 18.84.982 18.84.982l2.817-19.441 2.406.202zm26.764 0l3.107 19.608-9.016 1.274a1.055 1.055 0 00-1.032 1.021h11.017l15.18 3.967s.55-.468.462-.971c-.086-.499-.438-.612-.509-.634l-.002-.001.014-.002-10.511-2.151 15.145 2.259s-.061-1.008-.546-1.389c-.637-.499-13.788-2.081-13.788-2.081l11.669.225s-.048-.777-.394-.982c-1.641-.976-15.707-.904-15.707-.904l-2.683-19.441-2.406.202z" fill="#E98404"/><path fill-rule="evenodd" clip-rule="evenodd" d="M369.943 72.207c2.225-6.076 4.63-12.642 6.476-18.165h49.04l18.461 61.21c6.488 17.177-9.908 35.911-24.242 40.629-5.344 2.274-11.322 3.547-17.632 3.547-8.211 0-15.86-2.155-22.281-5.866-7.422-2.605-12.687-9.184-15.703-16.799a33.442 33.442 0 01-2.924-18.128c.078-1.161.214-2.292.405-3.383l2.503-9.51c-.639.769-1.125 1.042-1.459.818-1.118-.748 2.109-12.594 4.863-16.127l.352-.436a8.04 8.04 0 00.454-.606l.055-.218c-.108.007-.462.257-.934.59-1.128.794-2.93 2.064-3.659 1.634-.661-.39 2.535-9.116 6.225-19.19z" fill="#9E292B"/><path fill-rule="evenodd" clip-rule="evenodd" d="M396.216 73.832c.872-2.274 2.407-4.497 3.128-4.31.721.19.188 1.927 0 2.65l-.25.969c-2.609 10.24-3.577 17.35-2.936 21.21l.058.319c.553 2.825 1.888 3.287 5.007 1.544l.347-.199s2.47-1.846 2.769-1.62c.299.224-.78 3.117-.78 3.117-2.791 11.154-3.951 18.855-3.502 22.984l.038.323c.371 2.876 1.29 3.241 3.921 1.473l.293-.202s1.933-1.703 2.218-1.547c.285.156-.099 2.707-.099 2.707-.18 4.922.241 8.202 1.154 9.726.639 1.067 1.971 2.094 3.754.93.625-.408 1.724-.862 2.131-.237.407.626-.51 1.135-1.134 1.543-2.939 1.919-5.531 1.715-7.064-.844-1.022-1.707-1.528-4.468-1.577-8.343l-.003-.499-.094.039c-4.251 3.149-6.626-.434-7.159-4.746-.532-4.311 1.375-10.63 3.534-19.939l.311-1.323-.102.032c-3.482 1.037-5.902-.525-6.646-4.59l-.036-.203c-.742-4.47-.732-11.97 2.719-20.965z" fill="#000" fill-opacity=".1"/><path fill-rule="evenodd" clip-rule="evenodd" d="M425.629 54.639h-49.41c.838-2.489 1.572-4.782 2.135-6.745l1.007-4.127-1.402 1.357c-1.108 1.055-1.464.018-1.361-1.357l.041-.422.078-.709c.171-1.44.347-2.164.726-3.727.264-1.088.627-2.581 1.155-5.004l.476-2.205.234-1.061c1.641-7.34 4.199-16.319 11.164-18.916l.677-.249 1.349-.49c1.556-.573 3.026-1.17 4.109-1.983 1.5-1.127 3.902-4.305 4.593-5.898l.06-.144c.712-1.825 4.461 2.723 2.955 6.052l.185-.007a9.636 9.636 0 012.761.31l.329.093.307.09c2.638.81 1.904 1.355.039 2.064 12.101.718 15.705 20.426 16.363 24.574a.496.496 0 01-.552.567l-1.384-.178.019.073.092.297.098.3.117.34c.203.583.481 1.35.786 2.19.84 2.318 1.88 5.185 2.084 6.243.309 1.607.076 2.185-.391 2.251-.311.044-1.077-.987-2.299-3.094l2.86 9.515z" fill="#9E292B"/><path fill="#9E292B" d="M383.942 16.252h33.722v31.099h-33.722z"/><path fill-rule="evenodd" clip-rule="evenodd" d="M384.525 26.95c.115-1.822 1.711-6.135 5.42-5.62 3.71.517 4.903 3.81 4.787 5.633-.116 1.823-3.027 5.216-4.977 4.787-1.951-.429-5.346-2.976-5.23-4.8zm32.029 0c-.116-1.822-1.711-6.135-5.421-5.62-3.71.517-4.903 3.81-4.787 5.633.116 1.823 3.027 5.216 4.977 4.787 1.951-.429 5.347-2.976 5.231-4.8z" fill="#fff"/><path fill-rule="evenodd" clip-rule="evenodd" d="M410.508 29.352c1.429.05 2.63-1.167 2.684-2.719.054-1.552-1.06-2.85-2.488-2.9-1.428-.05-2.63 1.167-2.684 2.72-.054 1.551 1.06 2.85 2.488 2.9zm-19.938 0c-1.429.05-2.63-1.167-2.684-2.719-.054-1.552 1.059-2.85 2.488-2.9 1.428-.05 2.63 1.167 2.684 2.72.054 1.551-1.06 2.85-2.488 2.9z" fill="#9E292B"/><path fill-rule="evenodd" clip-rule="evenodd" d="M406.338 30.967c-.251 10.268-6.396 15.327-6.396 15.327s-6.135-8.256-6.135-15.958l12.531.631z" fill="#AF6303"/><path fill-rule="evenodd" clip-rule="evenodd" d="M405.986 31.454c.346 4.92-5.951 12.24-5.951 12.24s-4.337-6.149-4.628-9.238l10.579-3.002z" fill="#501D2C"/><path fill-rule="evenodd" clip-rule="evenodd" d="M400.4 24.002c1.988 0 3.131.588 3.568 3.182.401 2.386 2.067 1.138 2.37 3.303.105.747.038 2.26-2.37 5.73-2.549 3.672-5.194 5.476-5.194 5.476s-2.474-2.999-3.367-5.08c-1.242-2.895-1.545-4.973-1.606-6.126-.088-1.668 2.136-1.72 2.811-3.303.503-1.181 1.36-3.182 3.788-3.182z" fill="#F7A600"/><path fill-rule="evenodd" clip-rule="evenodd" d="M407.946 18.29c.12-.952 1.638-2.267 2.754-2.004.594.14.327.512-.053.83 1.018-.508 2.976-.767 3.063-.436.033.127-.115.31-.332.501 1.838.157 3.191.69 3.191 1.324 0 .757-1.929 1.37-4.31 1.37-2.38 0-4.309-.613-4.309-1.37l.003-.05a.416.416 0 01-.007-.165zm-13.446.038c-.178-.947-2.44-2.255-4.102-1.994-.899.141-.474.522.106.842-.114-.003-.23-.004-.346-.004-2.398 0-4.342.605-4.342 1.352 0 .746 1.944 1.352 4.342 1.352 2.398 0 4.342-.606 4.342-1.352a.393.393 0 00-.003-.049.31.31 0 00.003-.147z" fill="#9E292B"/><path fill-rule="evenodd" clip-rule="evenodd" d="M405.937 32.76c-.181 1.374-.74 2.855-1.447 4.27l-.216.423-.111.21-.227.414-.232.408c-.079.135-.157.269-.237.4l-.238.392-.24.382-.24.372-.239.36-.235.346-.345.493-.33.46-.41.551-.278.364-.395.503-.482.586-.331-.483-.44-.662-.392-.608-.347-.552.249.303c1.763-1.202 3.494-3.027 5.193-5.475 1.025-1.476 1.626-2.598 1.97-3.458zm-15.563-9.027c1.428-.05 2.63 1.168 2.684 2.72.054 1.551-1.06 2.85-2.488 2.9-1.429.05-2.63-1.168-2.684-2.72-.054-1.552 1.059-2.85 2.488-2.9zm20.2-.001l.13.001c1.428.05 2.542 1.348 2.488 2.9-.054 1.552-1.256 2.77-2.684 2.72-1.428-.05-2.542-1.349-2.488-2.9.052-1.505 1.184-2.696 2.554-2.721zM394.5 18.328a.402.402 0 01-.001.18l.001.016c0 .746-1.944 1.352-4.342 1.352-2.398 0-4.342-.606-4.342-1.352 0-.545 1.035-1.015 2.526-1.229l.339-.043c.058-.007.116-.013.175-.018l.358-.03c.243-.017.494-.028.75-.031l.194-.001c.091 0 .181 0 .271.002l-.18-.096c-.661-.377-.611-.625.149-.744 1.662-.261 3.924 1.047 4.102 1.994zm16.2-2.042c.522.123.545.38.07.773a6.086 6.086 0 011.119-.358l.264-.055.259-.045c.679-.106 1.252-.096 1.298.08.035.134-.084.317-.356.548 1.868.334 3.215 1.471 3.215 2.103 0 .323-.352.462-.944.515l-.234.016-.125.005-.264.007h-.285l-.46-.005-1.025-.02-.556-.009-.384-.002c-.519 0-1.016-.028-1.477-.08l-.339-.044c-1.436-.206-2.449-.649-2.522-1.168l-.004-.066a.567.567 0 01-.004-.191c.12-.952 1.638-2.267 2.754-2.004z" fill="#000" fill-opacity=".8"/><path fill-rule="evenodd" clip-rule="evenodd" d="M457.835 96.997c8.028 17.596 7.206 36.359 4.331 46.255-1.892 6.511-6.706 0-6.706 0 3.749 6.619-6.33 14.157-12.698 1.439s-16.345-86.2-16.345-86.2 16.6 6.025 31.418 38.506z" fill="#9E292B"/><path fill-rule="evenodd" clip-rule="evenodd" d="M457.835 96.997c8.028 17.596 7.206 36.359 4.331 46.255-1.892 6.511-6.706 0-6.706 0 3.749 6.619-6.33 14.157-12.698 1.439s-16.345-86.2-16.345-86.2 16.6 6.025 31.418 38.506z" fill="#000" fill-opacity=".2"/><path fill-rule="evenodd" clip-rule="evenodd" d="M456.801 104.506c3.33 2.869 4.303 10.743 1.607 14.155-2.697 3.413-8.584 4.106-11.632 0s-3.333-10.2-.636-13.612c2.697-3.412 7.33-3.412 10.661-.543zM437.69 82.709c-.849-5.327 2.131-9.295 6.657-8.862 4.526.432 8.884 5.102 9.734 10.43.849 5.326-2.132 9.294-6.658 8.861-4.526-.432-8.884-5.102-9.733-10.429z" fill="#000" fill-opacity=".1"/></svg>