<svg width="678" height="678" viewBox="0 0 678 678" xmlns="http://www.w3.org/2000/svg"><g fill="none" fill-rule="evenodd"><path d="M496.181 455.655c7.534 0 13.63 6.114 13.63 13.63v9.086c0 7.534-6.096 13.629-13.63 13.629h-329.38c-7.535 0-13.63-6.095-13.63-13.63v-9.086c0-7.534 6.095-13.63 13.63-13.63zM205.43 204.905c10.669 0 19.318 8.648 19.318 19.317v150.04c0 10.669-8.65 19.318-19.318 19.318-10.67 0-19.318-8.649-19.318-19.318v-150.04c0-10.669 8.649-19.318 19.318-19.318zm84.04 0c10.664 0 19.309 8.644 19.309 19.308V374.27c0 10.664-8.645 19.309-19.309 19.309-10.664 0-19.308-8.645-19.308-19.309V224.213c0-10.664 8.644-19.309 19.308-19.309zm84.06 0c10.668 0 19.317 8.648 19.317 19.317v150.04c0 10.669-8.649 19.318-19.318 19.318-10.669 0-19.318-8.649-19.318-19.318v-150.04c0-10.669 8.65-19.318 19.318-19.318zm84.035 0c10.664 0 19.308 8.644 19.308 19.308V374.27c0 10.664-8.644 19.309-19.308 19.309s-19.309-8.645-19.309-19.309V224.213c0-10.664 8.645-19.309 19.309-19.309zM343.423 55c8.007 1.42 15.616 4.108 21.863 8.367l39.015 26.578c18.59 12.664 48.99 33.392 67.578 46.056l39.019 26.58c18.57 12.663 15.39 23.018-7.137 23.056H159.198c-22.489 0-25.688-10.374-7.099-23.038l39.015-26.578c18.59-12.664 48.989-33.392 67.578-46.056l39.014-26.577c6.228-4.26 13.857-6.967 21.864-8.368zm-11.93 36.46c-16.469 0-29.814 13.345-29.814 29.814 0 16.45 13.345 29.814 29.814 29.814s29.814-13.364 29.814-29.814c0-16.469-13.345-29.814-29.814-29.814z" fill="#E3E7E9"/><path d="M254.025 595.852l.357-16.087c-4.735-4.95-4.2-13.19 1.203-18.516l9.57-9.43c6.487-6.206 16.288-6.491 21.894-.633 5.606 5.857 4.892 15.64-1.595 21.847l-7.526 10.653c-3.293 6.297-9.017 16.46-23.903 12.166m34.208 14.169l-1.433-11.9c-4.737-4.95-4.2-13.19 1.203-18.515l9.57-9.43c6.487-6.207 16.288-6.493 21.894-.633 5.606 5.856 4.89 15.638-1.595 21.845l-7.312 12.909c-5.528 5.448-13.024 10.734-22.327 5.724m-64.979-38.072l-.216-11.076c-4.736-4.95-4.201-13.19 1.202-18.517l9.57-9.429c6.487-6.207 16.289-6.492 21.895-.634 5.606 5.857 4.891 15.64-1.596 21.847l-8.527 9.221c-2.429 5.977-17.481 13.653-22.328 8.588" fill="#E7CAB6"/><path d="M371.24 379.296S219.225 512.032 215.59 528.422c0 0 5.679 3.423 11.405 12.045 6.628 9.98 15.499 14.589 20.478 12.643 7.174-2.802 7.23-7.9 7.23-7.9l98.051 50.192s37.726-6.797 120.999-74.216l23.107-25.494-125.62-116.396" fill="#725A34"/><path d="M251.828 386.853l66.056-27.578s22.925-12.828 42.611 4.781c0 0-25.603 45.121 13.737 58.361 0 0 37.117 23.03 55.623 44.197 9.304 10.649 29.723 29.294 39.256 39.57 2.559 2.755 7.957 7.073 10.473 11.035 3.495 5.501 10.001 17.359-3.97 26.302 0 0-9.676 8.835-25.243-3.713-14.467-11.664-37.298-35.97-52.556-48.51-.57-.467-2.47-2.253-3.58-.908-.336.407-.241 1.614 1.754 3.7 6.88 7.189 36.466 36.242 36.466 36.242s11.267 10.135 13.653 14.858c2.094 4.143 5.005 13.027-3.531 21.201 0 0-12.234 12.5-28.83-.756l-45.954-42.118s-3.138-3.164-4.275-1.948c-.79.844.17 2.54 2.226 4.335 0 0 46.491 42.814 47.573 47.503 3.085 13.36-8.077 28.636-27.494 18.132l-48.51-35.45s-1.347-1.1-2.35.26c-.57.776.072 1.681 1.209 2.46 0 0 45.502 31.802 48.23 34.674 3.565 3.758-8.028 17.878-27.26 9.208-27.431-12.363-83.122-35.417-109.67-49.581-9.34-4.983-28.237-17.531-35.413-23.21 0 0-28.689-23.55-71.264-29.755l47.293-127.175s42.76 22.491 63.74 13.883" fill="#997659"/><path d="M253.723 555.907c-.395-.2-.785-.398-1.172-.596.287-.517.547-1.04.778-1.571.354.376.701.74 1.036 1.09l-.642 1.077" fill="#E18953"/><path d="M108.126 314.183l104.533 53.937c-.538 4.722-2.504 13.96-5.365 25.754l-.802 3.278a920.644 920.644 0 01-.843 3.396l-.884 3.505c-.15.593-.302 1.19-.456 1.79l-.938 3.652-.972 3.739-1.003 3.817-.512 1.935-1.045 3.917-1.07 3.973-.544 2.005-1.103 4.04-1.123 4.075-1.139 4.1c-.19.685-.383 1.37-.575 2.056l-1.16 4.12-1.17 4.124-1.178 4.118-.592 2.053L189 461.66c-.198.68-.396 1.359-.595 2.036l-1.188 4.047-1.188 4.005-1.184 3.955-1.177 3.896-1.17 3.829c-.193.631-.387 1.26-.58 1.886l-1.151 3.71-.57 1.821-1.13 3.572c-4.853 15.26-9.194 27.615-12.141 33.826l-1.294-.427-1.368-.46-2.439-.839-2.626-.922-3.385-1.21-3.62-1.315-3.835-1.411-5.415-2.017-5.717-2.15-9.04-3.435-18.361-7.044-19.917-7.669-7.45-2.86-5.464-2.089-3.567-1.359A264.494 264.494 0 0170 450.5c0-49.92 13.934-96.584 38.126-136.317z" fill="#B1063A"/><path d="M236.647 388.68c-19.526-1.387-43.417-13.096-47.84-15.339l.14-.37s26.274 13.815 47.738 15.64l-.038.07" fill="#EFCAB0"/><path d="M343.253 369.71L306.8 386.156s-15.037 2.962-21.94 21.709l-19.406 30.019s-13.764 18.452 16.487 21.578a18.821 18.821 0 0010.202-1.822c7.723-3.775 22.753-13.338 37.21-35.176 18.15-1.357 33.157-3.203 45.024-5.538 0 0 2.345 3.726 17.622 14.81 0 0 37.474 26.062 45.392 38.433l43.451 42.656s7.839-2.037 30.055-28.572l59.102-38.866L543.164 331s-86.921 37.244-106.599 36.727c-47.043-10.492-78.147-9.832-93.312 1.982z" fill="#E7CAB6"/><path d="M461.693 437.973s1.863 2.343 0 3.912c-6.734 5.672-27.219 16.504-46.18 7.415l-9.57-7.415s25.652 14.532 55.75-3.912z" fill-opacity=".1" fill="#000"/><path d="M250.927 557.901l-.198-.108.873-.943-.675 1.051m-27.163-15.055c-1.482-.902-2.923-1.865-4.285-2.93l1.863-2.901c.054-.088.11-.175.165-.263a444.411 444.411 0 004.988 3.384l-2.255 2.22c-.163.162-.321.325-.476.49" fill="#DEA681"/><path d="M233.956 548.453l-1.355-.74c-2.939-1.6-5.969-3.12-8.837-4.867.155-.165.313-.328.476-.49l2.255-2.22c.167.11.335.221.502.333 2.153 3.242 4.542 5.917 6.959 7.984" fill="#DD854E"/><path d="M244.982 553.548c-.76 0-1.57-.103-2.413-.304-2.866-1.606-5.733-3.21-8.613-4.79-2.417-2.068-4.806-4.743-6.96-7.985 7.36 4.902 15.355 9.908 20.477 12.64-.75.294-1.587.439-2.49.439" fill="#CB7947"/><path d="M252.23 558.58a.322.322 0 01-.096-.007l1.39-2.33a451.66 451.66 0 003.96 1.971c-2.748.216-4.792.366-5.254.366" fill="#DEA681"/><path d="M257.019 557.558a391.745 391.745 0 01-3.296-1.65l.642-1.077a308.545 308.545 0 002.654 2.727" fill="#D47F4B"/><path d="M316.955 594.1c-.157-.088-.313-.175-.47-.265l1.387-2.447c.704-.673 1.34-1.39 1.908-2.139l-2.825 4.85m-27.877-15.553c-1.249-.673-2.5-1.347-3.748-2.022l2.463-4.23c1.742.78 3.492 1.558 5.254 2.341l-3.97 3.911" fill="#DEA681"/><path d="M337.11 604.836c-.174 0-.327-.031-.454-.095-6.27-3.177-12.426-6.564-18.554-10.002l4.302-7.255c8.775 3.81 17.112 7.418 24.394 10.616a13.503 13.503 0 01-1.754 1.764c-2.445 2.054-6.225 4.972-7.934 4.972m-119.76-34.01c-8.607-5.32-11.18-16.66-5.711-25.172l4.264-6.635c5.252-8.5 16.4-11.134 24.902-5.882 8.5 5.252 11.133 16.4 5.883 24.902l-4.613 7.176c-5.333 8.299-16.332 10.794-24.726 5.61m30.745 23.125l-.819-.505c-8.182-5.056-10.796-15.74-5.869-24.002l15.073-25.271c5.252-8.5 16.4-11.135 24.903-5.883 8.5 5.252 11.132 16.4 5.882 24.902l-14.79 24.798c-5.037 8.445-16.015 11.13-24.38 5.961" fill="#E7CAB6"/><path d="M560.463 299.806C590.417 342.456 608 394.424 608 450.5c0 1.905-.02 3.805-.06 5.7l-57.116 39.596c-20.088-20.96-38.076-44.908-53.964-71.842-15.613-26.47-26.937-51.991-33.973-76.566l-.366-1.292 97.942-46.29z" fill="#455B6A"/><path d="M285.852 609.269l-4.98-3.076c-6.993-4.32-9.27-13.424-5.136-20.526l11.659-20.026c5.252-8.5 16.4-11.135 24.902-5.883 8.5 5.252 11.133 16.4 5.882 24.902l-11.256 19.338c-4.29 7.371-13.816 9.753-21.07 5.27m31.45 11.633l-4.366-2.696c-5.283-3.265-6.978-10.16-3.81-15.5l9.208-15.527c4.052-6.557 12.653-8.59 19.21-4.537 6.56 4.051 8.592 12.652 4.539 19.21l-8.997 15.17c-3.251 5.481-10.363 7.23-15.784 3.88m-92.118-80.954l-1.895 2.856a9.687 9.687 0 00-1.187 7.368 9.689 9.689 0 004.373 6.05 9.754 9.754 0 005.113 1.452c3.413-.003 6.516-1.738 8.371-4.745l1.623-2.448c.356-.536.588-1.123 2.025-3.445l-15.998-10.04c-1.721 2.067-2.11 2.476-2.425 2.952m38.341 7.013a10.282 10.282 0 00-1.35 7.809 10.29 10.29 0 004.569 6.476 10.342 10.342 0 005.41 1.603c3.622.038 6.939-1.766 8.86-4.806l4.662-6.98-17.41-11.208-4.74 7.107" fill="#E7CAB6"/><path d="M293.7 569.943a10.294 10.294 0 00-1.076 7.85 10.289 10.289 0 004.79 6.313 10.309 10.309 0 005.464 1.411c3.622-.087 6.873-2.006 8.665-5.07l3.387-6.162-17.792-10.594-3.438 6.252m29.06 22.567c-1.987 3.335-.888 7.668 2.449 9.655a7.017 7.017 0 003.708.991c2.466-.041 4.69-1.327 5.915-3.385l3.475-6.224-12.049-7.307-3.498 6.27" fill="#E7CAB6"/></g></svg>