<svg width="678" height="678" viewBox="0 0 678 678" xmlns="http://www.w3.org/2000/svg"><g fill="none" fill-rule="evenodd"><path d="M468.074 71c27.507 0 49.892 22.768 49.892 50.746v119.16c0 27.977-22.385 50.745-49.892 50.745h-18.143v50.745a4.616 4.616 0 01-2.803 4.263 4.58 4.58 0 01-1.736.341 4.506 4.506 0 01-3.212-1.35l-53.091-54.012-24.233-.001-20.758 41.566a5 5 0 01-2.35 2.293l-.238.104a5 5 0 01-6.516-2.745l-16.787-41.218h-25.364L239.75 345.65a4.506 4.506 0 01-3.212 1.35 4.58 4.58 0 01-1.736-.34 4.616 4.616 0 01-2.803-4.264v-50.745h-18.143c-27.507 0-49.891-22.768-49.891-50.745v-119.16C163.966 93.768 186.35 71 213.857 71h254.217z" fill="#E3E7E9"/><path d="M194.126 374.104c2.867 1.095 5.654 2.953 7.6 5.512 1.732 2.282 2.97 5.902 5.363 7.494.935.622 1.62-.094 2.446-.726l.208-.155c1.389-.993 2.714-2.088 4.118-3.055 1.975-1.357 4.113-2.37 6.403-2.904 3.35-.776 7.98-.596 8.939 3.808.357 1.655.083 3.424-.034 5.092a403.113 403.113 0 01-.523 6.861 58.204 58.204 0 01-.412 3.613c2.266-.565 4.623-.787 6.934-.61 4.389.346 9.147 1.927 12.315 5.453 3.954 4.4 3.943 10.91 2.698 16.572-.495 2.266-1.177 4.482-1.907 6.67l-.557 1.64c-.901 2.62-1.943 5.378-3.852 7.313 6.3.34 13.979 3.199 17.28 9.595 4.29 8.307-1.845 17.73-8.52 21.585 12.166 10.975-9.839 25.997-18.903 26.614 1.662 6.657-5.957 8.95-10.14 10.73 6.78 11.77-19.798 27.126-27.029 11.122l-.216-.5c-1.26-3.068-2.597-5.097-3.847-6.42l-.459-.454-.023-.204-.073-.206 1.886-1.956c1.703-1.803 2.839-3.09 2.516-2.896-1.696 1.025-3.113 1.783-4.282 2.337l-.23.107.027-.08c1.101-3.192 6.056-6.193 4.162-8.86l-.276-.328 3.365-1.456c3.199-1.42 6.413-3.134 8.429-6.268 4.717-7.327-.477-17.516-7.848-19.445-6.676-1.743-14.206 1.997-18.47 7.675-1.417-4.005-3.459-7.81-6.21-10.876l-.684-.75-.644.682c-2.904 3.186-5.066 7.135-6.564 11.294-4.506-5.894-12.468-9.781-19.524-7.967-7.796 1.997-13.29 12.578-8.304 20.184 2.896 4.417 8.121 6.122 12.471 8.02-3.391 3.538.831 6.787-1.211 11.192-1.008 2.172-2.42 4.629-4.673 5.384-.833.28-1.813.306-2.47.985-.812.845-1.004 1.788-2.046 2.512-4.152 2.897-10.633 2.674-14.31-1.103-3.207-3.296-2.52-8.442.026-11.91l.213-.28-.305.243c-2.302 1.701-14.15 8.419-15.383-9.507l-.716-.07c-9.713-1.229-26.328-14.384-13.782-25.504-7.058-4.001-13.544-13.785-9.01-22.408 3.491-6.642 10.584-10.918 17.244-11.268-2.019-2.01-8.234-5.915-8.234-13.396 0-5.996 4.582-22.014 15.876-22.866l1.615-.11c9.736-.609 10.333.672 13.039 1.814.11-6.336 1.19-12.964 4.394-18.375 3.081-5.207 7.996-8.126 13.591-8.9 5.744-.79 11.417.557 16.558 3.348 1.29.698 2.563 1.43 3.785 2.259l.886.614c.752.515 1.541.996 2.396 1.197 1.339.316 2-.46 2.87-1.438 1.016-1.147 2.167-2.159 3.381-3.055 5.368-3.96 12.414-5.588 18.637-3.215zm-2.949 135.213l.594-.604.26.24.01.056c.076 1.921-3.802 3.793-1.848 4.462.51.175-2.626.833-4.741 1.456l-.341.101.068-.052c1.497-1.21 3.839-3.474 5.998-5.659zm.649-3.18l-.089.32a3.057 3.057 0 00.05 1.69l.148.397-.164.17-.06-.053c-.92-.794-1.766-1.22-2.464-1.427l-.13-.037.143-.041.685-.233a22.5 22.5 0 001.732-.716l.149-.07zm-45.218-50.952c9.21 2.088 18.728 2.948 27.857 5.408l.412.125c8.444-2.253 17.227-3.09 25.732-5.052-9-.013-18.02.949-27.008.086-.107-.01-.149-.128-.138-.342l1.7-.134c-9.504.894-19.04-.104-28.555-.091z" fill="#350211"/><path d="M127.49 456.501c-8.2.188-12.054 5.266-11.56 15.239.723 14.613 9.813 24.494 16.642 20.864 3.94 10.111 9.87 19.998 17.134 27.36l-6.463 78.431h61.192l-6.619-76.145c7.334-6.602 13.467-15.818 17.807-25.542 9.136 1.764 16.957-10.794 17.656-24.968.471-9.51-3.15-14.569-10.858-15.179-1.31-23.188-8.764-48.654-47.465-48.654-38.668 0-46.142 25.424-47.466 48.594z" fill="#784931"/><path d="M123.542 429.9c-2.966 8.085-.99 25.286-.839 27.23 1.268-1.537 5.535-.079 9.522 5.479.235-.141 5.263-7.673 15.074-22.589l-13.757-9.191.402-1.748c4.26 2.505 7.453 4.86 14.45 7.255 32.145 11.018 55.485 2.596 63.616 0l6.875 26.273c.078.467 2.448-1.172 7.112-4.905 10.293-46.565-21.248-59.826-48.497-59.826-25.325 0-43.958 4.725-53.958 32.022z" fill="#350211"/><path d="M200.862 539.412c1.518.016 35.487.783 62.296 36.534-5.056 4.906-9.94 10.664-14.406 17.421l-.58.887-.487.76-.932 1.471c-.31.493-.617.99-.92 1.5l-1.353 2.287-.69 1.166-13.98 23.56H50a21715.237 21715.237 0 0019.209-32.342l.532-.899c7.531-12.722 16.485-22.345 25.601-29.653 25.805-20.695 52.92-22.692 52.92-22.692l.01.032.042.126c.553 1.617 5.777 15.091 26.435 15.091 21.757 0 25.977-14.946 26.06-15.245v-.004h.053zm145.785-160.389l1.976.017c63.913 1.113 66.863 56.376 64.582 89.788l-.071 1.005-.078.988c-1.985 23.358-14.228 43.113-36.823 52.754 3.665-4.814 6.823-10.257 9.346-15.88 8.72 1.673 16.188-10.255 16.856-23.715.447-9.034-3.007-13.842-10.366-14.421-1.254-22.024-8.367-46.21-45.314-46.21-36.918 0-44.051 24.146-45.315 46.153-7.826.179-11.508 5.004-11.036 14.478.69 13.875 9.37 23.26 15.888 19.812 2.61 6.666 6.134 13.228 10.365 18.957-18.543-9.656-30.856-28.154-34.616-49.574l-.112-.65-.042-.526c-.272-3.36-.603-7.446-.997-12.257l-.066-.809.006 1.098.019 1.093-.06-.722-.192-2.236c-4.289-50.606 31.514-79.143 66.05-79.143zm-64.955 91.982l.115.76.122.76.037.456c.546 6.758.825 10.31.837 10.652v.026c-.014.066-.384-4.152-1.11-12.654zm-.843-9.88l.063.746c.294 3.457.554 6.5.78 9.134a81.22 81.22 0 01-.843-9.88zM370.17 123.5c23.318 0 37.348 22.22 37.348 40.538 0 19.31-20.332 43.386-60.996 72.23a13 13 0 01-15.044-.001l-1.213-.864c-39.855-28.47-59.783-52.26-59.783-71.37 0-18.313 14.04-40.533 37.348-40.533 23.317 0 31.17 20.695 31.17 20.695s7.858-20.695 31.17-20.695z" fill="#B1063A"/><path d="M469.452 441.185c-8.274.188-12.163 5.317-11.665 15.388.727 14.745 9.904 24.723 16.792 21.056 3.976 10.213 9.959 20.191 17.288 27.628l-6.52 79.179h61.74l-6.675-76.875c7.397-6.665 13.59-15.964 17.968-25.784 9.216 1.779 17.11-10.898 17.815-25.204.475-9.604-3.178-14.714-10.956-15.33-1.322-23.413-8.843-49.12-47.894-49.12-39.018 0-46.558 25.667-47.893 49.062z" fill="#E7CAB6"/><path d="M483.91 391.522c-2.73 2.101-4.916 4.032-6.75 6.012-18.19 16.553-28.164 62.118-25.55 86.526l.135 1.378c1.6 17.93-3.012 36.483-13.84 55.659l50.524 2.403 1.98-16.41c6.998 3.387 15.832 4.933 26.62 5.208 9.653.243 17.681-2.03 24.195-6.028l1.383 17.23 53.443-2.403c-11.101-19.665-15.67-38.68-13.703-57.037l.119-1.205c1.827-20.8-4.95-55.59-17.844-75.756-2.73-7.37-8.252-15.427-24.217-20.217-6.588-1.978-14.42-2.853-22.202-2.853-14.284 0-28.395 2.956-34.293 7.493zm-2.799 90.5c-3.68-2.623-7.114-12.516-7.699-33.797.788-15.12 2.594-24.649 5.411-28.59 4.229-5.913 12.513-10.288 20.578-7.94l3.022.883a55.573 55.573 0 0032.416-.392l.75-.206c8.2-2.075 14.282 2.417 19.014 10.948 3.152 5.693 4.729 13.328 4.729 22.907.158 16.593-1.111 35.116-5.427 37.308-8.628 4.384-14.387-8.39-35.214-8.39-17.832 0-30.107 7.792-35.628 7.792-.79 0-1.44-.16-1.952-.523z" fill="#344450"/><path d="M616.286 606.91c-15.678-29.416-36.44-42.474-51.817-48.282-12.329-4.659-21.2-4.661-21.2-4.661s-4.121 15.426-26.296 15.426c-22.175 0-26.725-15.426-26.725-15.426s-50.107 3.658-79.23 52.943c-.427.724-.88 1.487-1.317 2.23 2.77 5.176 5.612 10.466 8.518 15.862h207.744a7037.68 7037.68 0 01-9.677-18.092" fill="#617480"/><path d="M346.755 423.349c36.947 0 44.06 24.186 45.314 46.21 7.36.58 10.813 5.387 10.366 14.421-.668 13.46-8.136 25.388-16.856 23.715-4.144 9.235-10.001 17.986-17 24.256l6.319 72.318h-58.42l6.17-74.488c-6.936-6.994-12.595-16.383-16.356-25.99-6.518 3.449-15.198-5.936-15.888-19.81-.472-9.475 3.21-14.3 11.036-14.48 1.264-22.006 8.397-46.152 45.315-46.152" fill="#D4A181"/><path d="M454.18 625H229.81l13.98-23.562 2.044-3.453c.302-.51.61-1.007.919-1.5l.932-1.47.487-.76c8.967-13.857 19.692-23.593 30.123-30.404l.568-.368c21.428-13.795 41.389-15.38 41.786-15.41l.09.264c.71 1.97 5.888 14.279 25.154 14.279 20.94 0 24.832-14.544 24.832-14.544l.534.015c2.541.104 13.86.96 27.641 7.997l.476.245c13.07 6.78 28.273 19.123 40.303 41.656l2.117 3.964c1.424 2.663 2.873 5.366 4.337 8.097l-7.518 12.686 7.52-12.686 3.4 6.333L454.18 625z" fill="#E3E7E9"/></g></svg>