<svg width="678" height="678" viewBox="0 0 678 678" xmlns="http://www.w3.org/2000/svg" xmlns:xlink="http://www.w3.org/1999/xlink"><defs><path id="a" d="M0 .61h477.392v284.984H0z"/></defs><g fill="none" fill-rule="evenodd"><path d="M66 394.256v32.163c0 6.528 5.342 11.872 11.874 11.872h453.651c6.525 0 11.868-5.344 11.868-11.872v-32.163H66z" fill="#E3E7E9"/><g transform="translate(66 108.662)"><mask id="b" fill="#fff"><use xlink:href="#a"/></mask><path d="M477.393 12.483c0-6.53-5.343-11.873-11.867-11.873H11.874C5.342.61 0 5.953 0 12.483v273.11h477.393V12.484z" fill="#617480" mask="url(#b)"/></g><path fill="#FFF" d="M82.82 378.425h443.755V125.104H82.82z"/><path d="M313.19 417.676a8.492 8.492 0 01-8.493 8.492 8.49 8.49 0 01-8.492-8.492 8.493 8.493 0 1116.985 0" fill="#617480"/><path d="M264.86 438.072h80.146l6.176 62.566h31.44a7.93 7.93 0 110 15.862H230.19a7.93 7.93 0 110-15.862h28.495l6.176-62.566z" fill="#A1ADB4"/><g transform="translate(82.711 138.5)"><path fill="#ECEEF0" d="M0 20h98.713v220.377H0z"/><rect fill="#B4BDC3" x="41.654" y="191.519" width="42.795" height="7.58" rx="3.79"/><path fill="#B4BDC3" opacity=".196" d="M0 68.942h98.713v-1H0zm0 101.341h98.713v-1H0zm0-50.67h98.713v-1H0z"/><ellipse fill="#B4BDC3" cx="23.132" cy="43.298" rx="9.534" ry="9.549"/><ellipse fill="#B4BDC3" cx="23.132" cy="144.638" rx="9.534" ry="9.549"/><ellipse fill="#B4BDC3" cx="23.132" cy="93.968" rx="9.534" ry="9.549"/><ellipse fill="#B4BDC3" cx="23.132" cy="195.308" rx="9.534" ry="9.549"/><rect fill="#B4BDC3" x="41.654" y="39.508" width="42.795" height="7.58" rx="3.79"/><rect fill="#B4BDC3" x="41.654" y="140.848" width="42.795" height="7.58" rx="3.79"/><rect fill="#B4BDC3" x="41.654" y="90.178" width="42.795" height="7.58" rx="3.79"/><path d="M46.3 6.718l-2.218.944c-.123-.1-.248-.2-.37-.302l-.856-.699c-.064-.053-.13-.103-.19-.16-.019-.018-.025-.063-.015-.088.18-.466.364-.931.546-1.396.085-.217.167-.434.25-.653.183.029.366.034.52-.069.117-.078.217-.18.321-.275.074-.07.137-.149.209-.22.212-.213.428-.424.64-.636.229-.229.455-.458.683-.688l.687-.692.681-.688c.055-.056.11-.115.169-.168.017-.015.056-.028.073-.02.103.046.203.097.315.154-.081.086-.153.166-.229.243-.147.147-.296.291-.442.437l-.862.868-.489.495c-.293.295-.59.589-.878.888-.125.128-.258.25-.335.413-.1.213-.134.427-.087.657a.978.978 0 00.338.596c.185.15.401.229.647.247.193.013.376-.01.557-.076.219-.08.372-.228.527-.376.075-.072.143-.152.216-.226.213-.212.427-.422.64-.635.231-.23.46-.462.689-.693.17-.173.343-.346.514-.518l.674-.683.277-.287c.082.09.158.172.23.257.007.01.005.036-.004.046-.082.09-.165.177-.25.263l-.875.88-.599.613c-.26.266-.523.531-.784.799l-.598.61c-.084.086-.171.168-.244.259-.138.174-.146.37-.078.579" fill="#FFF"/><rect fill="#ECEEF0" x="137.096" y="87.702" width="59.312" height="8.343" rx="4.172"/><rect fill="#ECEEF0" x="137.096" y="100.814" width="97.636" height="7.152" rx="3.576"/><rect fill="#ECEEF0" x="137.096" y="112.733" width="97.636" height="8.343" rx="4.172"/><rect fill="#ECEEF0" x="137.096" y="17.379" width="105.375" height="57.212" rx="9"/><rect fill="#ECEEF0" x="137.096" y="212.854" width="59.312" height="8.343" rx="4.172"/><rect fill="#ECEEF0" x="137.096" y="225.965" width="97.636" height="7.152" rx="3.576"/><rect fill="#ECEEF0" x="137.096" y="142.531" width="105.375" height="57.212" rx="9"/><rect fill="#ECEEF0" x="266.775" y="87.702" width="59.312" height="8.343" rx="4.172"/><rect fill="#ECEEF0" x="266.775" y="100.814" width="97.636" height="7.152" rx="3.576"/><rect fill="#ECEEF0" x="266.775" y="112.733" width="97.636" height="8.343" rx="4.172"/><rect fill="#ECEEF0" x="266.775" y="17.379" width="105.375" height="57.212" rx="9"/><rect fill="#ECEEF0" x="292.411" y="213.072" width="59.312" height="8.34" rx="4.17"/><rect fill="#ECEEF0" x="292.411" y="226.324" width="97.636" height="8.34" rx="4.17"/><rect fill="#ECEEF0" x="266.775" y="142.531" width="105.375" height="57.212" rx="9"/></g><path d="M424.74 568.728h162.71c13.255 0 24-10.745 24-24V318.404c0-13.255-10.745-24-24-24H424.74c-13.255 0-24 10.745-24 24v226.324c0 13.255 10.745 24 24 24z" fill="#CFD5DA"/><path d="M514.577 556.217c0 4.687-3.791 8.503-8.474 8.503-4.697 0-8.494-3.816-8.494-8.503a8.49 8.49 0 018.494-8.502c4.683 0 8.474 3.8 8.474 8.502" fill="#617480"/><g transform="translate(119.833 352.5)"><path d="M91.386 178.278c0 7.828-6.4 14.242-14.228 14.242h-62.93C6.395 192.52 0 186.106 0 178.278V14.242C0 6.41 6.396 0 14.227 0h62.93c7.828 0 14.23 6.41 14.23 14.242v164.036z" fill="#617480"/><path fill="#FFF" d="M6.696 167.076l77.977-.01.017-140.756-77.977.01z"/><rect fill="#ECEEF0" x="10.792" y="54.434" width="69.803" height="47.835" rx="2"/><path d="M12.792 132.862h65.803a2 2 0 012 2v32.214H10.792v-32.214a2 2 0 012-2z" fill="#ECEEF0"/><rect fill="#ECEEF0" x="10.792" y="108.095" width="69.803" height="5.259" rx="2"/><rect fill="#ECEEF0" x="10.792" y="117.604" width="44.942" height="5.259" rx="2"/><path fill="#ECEEF0" d="M6.703 46.406l77.977-.01.003-20.458-77.977.01z"/><path d="M28.49 40.072a.956.956 0 110 1.912H14.145a.956.956 0 110-1.912H28.49zm0-3.825a.956.956 0 010 1.912H14.145a.956.956 0 010-1.912H28.49zm0-3.98a.956.956 0 010 1.913H14.145a.956.956 0 010-1.913H28.49z" fill="#A1ADB4"/><circle fill="#B4BDC3" cx="72.981" cy="36.172" r="6.052"/><path d="M52.11 177.64c-.001 3.548-2.873 6.427-6.416 6.427s-6.417-2.877-6.417-6.425a6.424 6.424 0 016.418-6.421 6.418 6.418 0 016.414 6.42m1.49-159.451a1.93 1.93 0 01-1.925 1.921l-11.964.002a1.93 1.93 0 01-1.922-1.92c0-1.056.867-1.916 1.923-1.917h11.964a1.923 1.923 0 011.924 1.914" fill="#E3E7E9"/></g><path d="M591.02 318.317v227.647H421.168V318.317H591.02zM170.585 497.183a4.11 4.11 0 01.443.017l.148.013c.244.021.49.038.732.08.32.054.637.119.95.2.585.152 1.136.38 1.66.665a7.19 7.19 0 012.047 1.653c.345.395.64.818.892 1.267.142.255.277.516.386.784.163.403.32.81.44 1.224.116.402.19.813.275 1.222a5.877 5.877 0 014.439 5.528l.002.01v.637l-.013.02-.002.006v.005a4.646 4.646 0 01-.12.863c-.1.476-.265.93-.496 1.365a7.937 7.937 0 01-.378.635 5.49 5.49 0 01-.77.923 6.63 6.63 0 01-.925.754c-.53.353-1.1.636-1.717.837a6 6 0 01-1.236.279l-.354.039c-.178.02-.355.035-.532.035-7.066.01-14.131.014-21.196.019-.472 0-.945.003-1.417 0-.26-.004-.52-.012-.778-.033a14.947 14.947 0 01-.948-.109 4.99 4.99 0 01-1.305-.383 4.316 4.316 0 01-.978-.594 5.314 5.314 0 01-.85-.852 4.56 4.56 0 01-.632-1.077 3.57 3.57 0 01-.265-1.018c-.007-.07-.022-.138-.033-.207v-.59c.005-.014.015-.026.015-.04l.033-.284c.006-.047.013-.094.023-.141.088-.409.232-.8.45-1.17a4.23 4.23 0 011.17-1.286c.439-.32.927-.554 1.452-.724a4.976 4.976 0 011.028-.225l.43-.046c.145-.014.288-.026.432-.027.344-.005.688.021 1.03.044.204.014.405.046.605.075.205.03.408.068.61.102l.012-.22.013-.22c.01-.125.013-.252.038-.375.042-.22.09-.443.152-.66a4.22 4.22 0 01.59-1.253 4.18 4.18 0 01.957-1.002c.238-.174.483-.338.758-.456a5.43 5.43 0 01.806-.287c.296-.074.606-.124.912-.144.282-.02.57.009.854.026.35.02.688.098 1.017.201.276.086.545.188.823.284l.013-.026a.074.074 0 00.006-.018c.04-.194.076-.39.12-.582a6.295 6.295 0 01.563-1.49c.19-.363.414-.707.666-1.037a6.89 6.89 0 01.823-.9 9.296 9.296 0 011.48-1.093 7.28 7.28 0 011.31-.62c.402-.137.81-.265 1.223-.373a6.044 6.044 0 011.14-.19c.326-.022.652-.05.977-.06zm0-75.299a4.11 4.11 0 01.443.017l.148.013c.244.021.49.038.732.08.32.054.637.119.95.2.585.152 1.136.38 1.66.665a7.19 7.19 0 012.047 1.653c.345.395.64.818.892 1.266.142.256.277.516.386.784.163.404.32.81.44 1.225.116.401.19.813.275 1.222a5.877 5.877 0 014.439 5.528l.002.009v.638l-.013.02-.002.006v.005a4.646 4.646 0 01-.12.863c-.1.476-.265.93-.496 1.365a7.937 7.937 0 01-.378.635 5.49 5.49 0 01-.77.923 6.63 6.63 0 01-.925.754c-.53.353-1.1.636-1.717.837a6 6 0 01-1.236.279l-.354.039c-.178.02-.355.035-.532.035-7.066.01-14.131.014-21.196.019-.472 0-.945.003-1.417-.001-.26-.003-.52-.01-.778-.032a14.947 14.947 0 01-.948-.109 4.99 4.99 0 01-1.305-.383 4.316 4.316 0 01-.978-.594 5.314 5.314 0 01-.85-.852 4.56 4.56 0 01-.632-1.077 3.57 3.57 0 01-.265-1.018c-.007-.07-.022-.138-.033-.207v-.59c.005-.014.015-.026.015-.04l.033-.284c.006-.047.013-.094.023-.141.088-.409.232-.8.45-1.17a4.23 4.23 0 011.17-1.286c.439-.32.927-.554 1.452-.724.333-.108.676-.19 1.028-.225l.43-.046c.145-.014.288-.026.432-.027.344-.005.688.021 1.03.044.204.013.405.046.605.075.205.03.408.068.61.102l.012-.22.013-.22c.01-.125.013-.252.038-.375.042-.22.09-.443.152-.66a4.22 4.22 0 01.59-1.253 4.18 4.18 0 01.957-1.002c.238-.174.483-.338.758-.456a5.43 5.43 0 01.806-.287c.296-.074.606-.124.912-.144.282-.02.57.009.854.026.35.02.688.098 1.017.2.276.087.545.189.823.285l.013-.026a.074.074 0 00.006-.018c.04-.194.076-.39.12-.582a6.296 6.296 0 01.563-1.49c.19-.363.414-.707.666-1.037a6.89 6.89 0 01.823-.9 9.296 9.296 0 011.48-1.093 7.28 7.28 0 011.31-.62c.402-.137.81-.265 1.223-.373a6.044 6.044 0 011.14-.19c.326-.022.652-.05.977-.06zm10.84-296.812v34.214H82.71v-34.214h98.713z" fill="#B1063A"/><path d="M120.196 129.94l.176.015c.292.025.585.046.874.095.381.065.76.143 1.133.24a8.747 8.747 0 011.983.795c.55.3 1.054.653 1.521 1.05.336.285.636.598.922.928.41.472.764.978 1.063 1.514.17.305.331.617.461.938.195.482.383.968.526 1.464.138.48.226.973.328 1.462a7.025 7.025 0 015.297 6.612l.003.01v.763l-.015.025-.003.006v.006c-.008.35-.07.691-.143 1.033a6.224 6.224 0 01-.593 1.633c-.136.259-.29.512-.451.759a6.514 6.514 0 01-.92 1.103c-.338.33-.702.633-1.103.902a8.295 8.295 0 01-2.049 1.002c-.48.156-.967.28-1.474.333l-.424.047a5.886 5.886 0 01-.635.042c-8.432.011-16.864.017-25.295.022-.564 0-1.128.004-1.692 0-.31-.004-.62-.014-.928-.04a17.802 17.802 0 01-1.131-.13 5.946 5.946 0 01-1.558-.457 5.148 5.148 0 01-1.167-.711 6.35 6.35 0 01-1.014-1.018 5.43 5.43 0 01-.754-1.29 4.277 4.277 0 01-.317-1.217c-.008-.083-.026-.165-.04-.248v-.706c.007-.016.018-.03.019-.047l.038-.34c.008-.056.016-.112.028-.168a4.7 4.7 0 01.536-1.4c.352-.6.816-1.11 1.398-1.537a6.11 6.11 0 011.733-.866 5.984 5.984 0 011.227-.27l.514-.054c.171-.018.343-.031.514-.033.41-.005.821.025 1.23.053.242.016.483.054.722.09.244.035.486.08.728.122l.013-.264.017-.263c.01-.15.014-.3.044-.448.05-.264.108-.53.182-.79.15-.531.383-1.035.704-1.499a4.994 4.994 0 011.143-1.197c.283-.209.576-.405.904-.546.312-.133.632-.26.962-.343a6.219 6.219 0 011.088-.173c.337-.023.68.011 1.02.032.416.024.82.117 1.213.24.329.102.65.225.982.34l.016-.031a.088.088 0 00.007-.022c.049-.232.091-.466.143-.697a7.54 7.54 0 01.673-1.78c.225-.435.493-.847.794-1.241a8.19 8.19 0 01.983-1.076 11.092 11.092 0 011.767-1.307 8.68 8.68 0 011.562-.743c.48-.164.967-.316 1.46-.446a7.2 7.2 0 011.361-.228c.388-.025.777-.058 1.165-.07.175-.006.353.006.529.02zm398.632 270.613l.435.037c.72.063 1.446.114 2.159.236.942.16 1.878.353 2.8.592a21.57 21.57 0 014.896 1.966 22.055 22.055 0 013.76 2.593c.828.703 1.57 1.478 2.276 2.291a22.241 22.241 0 012.627 3.742c.42.754.818 1.525 1.138 2.317.48 1.19.947 2.392 1.299 3.617.34 1.187.559 2.403.81 3.611 7.37 1.854 12.864 8.434 13.086 16.336l.007.026v1.883l-.038.062-.006.015-.003.016c-.019.862-.172 1.707-.352 2.551a15.377 15.377 0 01-1.463 4.034c-.337.64-.716 1.265-1.115 1.875a16.213 16.213 0 01-2.27 2.726 19.512 19.512 0 01-2.726 2.228 20.49 20.49 0 01-5.062 2.475c-1.185.386-2.39.693-3.643.823l-1.045.116c-.523.057-1.046.104-1.569.104-20.83.028-41.658.042-62.487.055-1.39 0-2.784.01-4.178-.002a31.88 31.88 0 01-2.293-.095 43.97 43.97 0 01-2.794-.321 14.686 14.686 0 01-3.847-1.132 12.717 12.717 0 01-2.884-1.757c-.934-.758-1.78-1.586-2.504-2.515-.772-.99-1.4-2.05-1.864-3.185-.398-.97-.683-1.97-.782-3.007-.021-.207-.065-.407-.1-.612v-1.744c.018-.04.045-.076.047-.116l.095-.84c.018-.14.04-.279.07-.417a11.624 11.624 0 011.323-3.457c.869-1.484 2.016-2.745 3.454-3.799 1.292-.944 2.732-1.636 4.28-2.139a14.6 14.6 0 013.03-.665l1.27-.137c.423-.042.847-.075 1.27-.08 1.015-.013 2.029.063 3.039.13.598.04 1.193.135 1.783.222.603.089 1.202.2 1.798.302l.033-.651.041-.65c.028-.37.036-.743.11-1.106.124-.653.265-1.31.449-1.954a12.483 12.483 0 011.739-3.702c.772-1.115 1.686-2.12 2.823-2.958.7-.515 1.423-1.001 2.234-1.348.77-.329 1.56-.644 2.376-.848a15.36 15.36 0 012.688-.427c.833-.057 1.68.027 2.52.078 1.028.06 2.025.29 2.997.594.812.253 1.606.555 2.424.84l.041-.077a.218.218 0 00.016-.054c.12-.572.226-1.15.354-1.721.35-1.531.932-2.99 1.662-4.4a20.905 20.905 0 011.962-3.065 20.344 20.344 0 012.427-2.659 25.16 25.16 0 012.036-1.672 27.4 27.4 0 012.328-1.556c1.22-.718 2.496-1.365 3.86-1.836a52.333 52.333 0 013.607-1.102c1.094-.29 2.22-.486 3.362-.562.96-.063 1.918-.145 2.878-.175.433-.013.87.015 1.306.05z" fill="#FFF"/></g></svg>