<svg width="678" height="678" viewBox="0 0 678 678" xmlns="http://www.w3.org/2000/svg"><g fill="none" fill-rule="evenodd"><path d="M74.063 286.964l-.009-.104c.622 6.5 2.317 12.85 4.964 19.294 2.796 6.825 6.586 13.27 11.295 19.304 4.197 5.369 9.101 10.254 14.756 14.837 5.34 4.334 11.26 7.928 17.707 10.782 7.528 3.323 15.154 5.593 22.978 6.721a228.4 228.4 0 0014.463 1.658c1.515.126 3.041.225 4.623.302l1.602.07 1.65.056c.837.025 1.697.045 2.583.06l1.842.027 3.728.024 2.672.006 12.553-.019 268.196-.222 33.99-.042a68.53 68.53 0 005.55-.234l1.204-.103 1.268-.122 1.342-.14 4.964-.549c6.87-.717 13.626-2.288 21.038-4.702 10.137-3.308 19.641-7.965 28.557-13.93 5.458-3.654 10.577-7.852 15.507-12.634 5.155-5.015 9.596-10.314 13.315-15.99 2.364-3.613 4.395-7.006 6.183-10.391a90.77 90.77 0 008.641-23.798l.158-.751c.723-3.465 1.232-6.403 1.544-9.23l.056-.544.53-.85v-16.216l-.126-.457-.026-.54c-2.193-39.934-27.866-74.279-64.352-88.232l-.903-.34-.187-.856-.282-1.261-.276-1.187-.273-1.131-.276-1.098-.141-.542-.29-1.083-.15-.546-.316-1.114-.317-1.083-.325-1.078-.335-1.076-.346-1.08-.359-1.085-.372-1.098-.387-1.113-.404-1.134-.208-.575-.431-1.172-.45-1.203-.473-1.239-.75-1.933-.532-1.346-.557-1.396-.584-1.451c-1.697-4.188-3.724-8.253-6.393-13.04a123.965 123.965 0 00-14.668-20.865c-4.306-4.949-8.393-9.093-12.799-12.826-6.536-5.556-13.52-10.382-20.969-14.43-8.91-4.843-17.996-8.515-27.416-10.965-4.351-1.126-8.849-2.085-13.605-2.923l-1.717-.296-.82-.132a74.361 74.361 0 00-.41-.062l-.823-.118-.836-.11-.86-.106-.895-.1-1.428-.148-1.561-.146-3.71-.32-2.214-.185-.63-.05-1.203-.087c-2.332-.157-4.258-.212-6.319-.152l-.976.033-.981.039-.998.046-1.552.082-1.089.064-2.36.153-4.62.325-1.94.132c-6.437.428-12.918 1.52-19.37 3.224-5.943 1.563-12.039 3.433-18.523 5.648-7.266 2.504-14.229 5.863-21.696 10.247-4.219 2.49-8.365 5.272-12.685 8.457a138.015 138.015 0 00-11.17 9.16c-4.979 4.544-9.542 9.548-13.72 14.997-4.284 5.595-7.967 11.312-11.043 17.231l-.498.972c-2.465 4.855-4.535 9.669-6.2 14.504l-.21.62-.026-.007c-4.13-1.033-8.122-1.709-12.157-2l-5.276-.346c-3.875-.239-6.794-.292-9.918-.078a91.039 91.039 0 00-15.924 2.523c-3.308.829-6.401 1.863-9.978 3.282l-1.284.517c-.218.089-.437.18-.66.27l-1.356.569-.7.297c-4.858 2.07-9.033 4.653-14.144 8.41-6.804 5.01-12.536 11.08-17.495 18.233-4.832 6.979-8.419 14.635-10.75 22.817l-.19.671a104.912 104.912 0 00-1.214 4.841l-.161.72-.764-.059-3.821-.256-2.313-.145-1.255-.073-1.913-.098-1.407-.059-1.33-.041-.968-.021-1.003-.013c-.456-.003-.914-.004-1.378-.002l-1.062.009c-2.205.027-4.374.163-6.903.405l-.818.08-6.111.656c-5.902.598-11.862 1.932-18.021 3.928-9.386 3.043-17.85 7.227-25.38 12.718-8.808 6.444-15.909 14.242-21.276 23.4-3.924 6.696-6.667 13.916-8.327 21.636a39.47 39.47 0 00-.479 2.701l-.111.828-.203 1.78-.602 1.43v13.209l.305 1.837.258 1.437zm83.456-51.741l.857-.083.795-.069.739-.056.69-.044.647-.03.613-.02 1.067-.01 1.026.002.784.012.812.02.853.03 1.225.052 1.356.07 1.928.114 4.88.324.725.062.578.06 1.088.131 1.622.222 3.68.542 1.477.237 6.01 1.036 18.853 3.197 1.12-22.137.326-5.06.047-.597.034-.324.284-1.456.12-.592.236-1.137.119-.547.237-1.054c.08-.343.16-.678.24-1.006l.243-.964c.123-.472.248-.931.376-1.38 1.323-4.642 3.32-8.903 6.002-12.777 2.903-4.189 6.065-7.535 9.696-10.21l.39-.286.752-.542.362-.256.697-.485.664-.449.635-.415.607-.382.582-.351a25.44 25.44 0 011.632-.888l.514-.246.253-.114 1.205-.514 1.338-.553.834-.335.792-.31.755-.285.72-.262.348-.122.676-.23.651-.209.63-.19c.414-.121.816-.23 1.211-.33a57.094 57.094 0 019.957-1.579l.244-.015.505-.022c.174-.006.353-.01.538-.013l.574-.002.618.008.669.019.724.029.787.039 1.827.112 3.47.229c2.902.166 6.038.79 9.762 1.917l1.016.315.8.257 1.27.423 1.391.478 6.74 2.391 14.424 4.306 1.215-3.156c7.614-20.805 12.809-33.886 15.583-39.243 4.162-8.035 4.737-8.143 7.852-12.21 2.972-3.877 6.182-7.398 9.645-10.558a104.048 104.048 0 018.42-6.903c3.452-2.545 6.653-4.692 9.769-6.531 5.627-3.304 10.619-5.712 15.484-7.389 5.709-1.95 11.035-3.584 16.15-4.93 4.414-1.164 8.751-1.896 12.992-2.177l2.01-.138 4.556-.32 1.563-.103.959-.059 1.34-.075 1.247-.06 1.187-.046.586-.017.204-.003h.432l.469.012.51.019.56.028.614.038 1.037.075 5.407.457 1.532.14 1.001.1.9.099.815.1.755.105.713.111.232.04c4.364.741 8.355 1.577 12.098 2.545 6.631 1.725 13.157 4.362 19.714 7.926 5.354 2.91 10.406 6.401 15.206 10.48 2.978 2.525 5.894 5.481 9.147 9.22a89.886 89.886 0 0110.638 15.13l.332.6.635 1.161c.511.947.98 1.843 1.412 2.7l.5 1.009a60.188 60.188 0 011.68 3.746l.752 1.87.47 1.182.658 1.683.61 1.585.379 1.01.36.975.343.944.325.917.309.893.294.873.416 1.28.262.837.251.83.242.825.14.493.34 1.248.201.772.199.8.269 1.13.28 1.234.377 1.733.603 2.894 1.192 5.83 2.178 10.417 10.323 2.592.856.221c28.164 7.472 48.457 32.745 49.288 62.285l.027.958v5.417l-.196 1.37-.023 1.023-.018.54-.03.555-.02.283-.05.582-.03.3-.07.616-.085.645-.099.676-.114.71-.13.75-.145.79-.162.835-.179.884-.196.936a56.84 56.84 0 01-5.433 14.954c-1.266 2.398-2.766 4.903-4.579 7.674-2.294 3.502-5.144 6.901-8.558 10.223-3.497 3.391-7.042 6.3-10.726 8.766-6.354 4.25-13.052 7.532-20.187 9.86-5.037 1.641-9.356 2.668-13.42 3.145l-5.743.634-1.27.131-1.129.105-.685.054-.64.043-.598.031-.565.021-.538.01-313.044.285-4.898-.007-3.127-.022-.712-.009-1.373-.023c-.223-.004-.444-.01-.663-.015l-1.284-.035-1.231-.044-.598-.026-1.165-.058-1.128-.067-1.097-.079-.538-.043a194.966 194.966 0 01-12.367-1.418c-4.707-.679-9.37-2.067-14.148-4.176-3.716-1.644-7.055-3.672-10.037-6.091-3.755-3.044-6.851-6.128-9.377-9.36-2.827-3.622-5.036-7.379-6.634-11.28-1.366-3.324-2.192-6.312-2.519-9.106l-.108-1.016a33.017 33.017 0 00-.252-1.781l-.095-.547v-4.618l.013-.072c.044-.292.082-.592.114-.902l.012-.145.42-3.708.036-.238.043-.237c.915-4.259 2.37-8.086 4.418-11.581 2.99-5.103 6.928-9.427 11.996-13.135 4.477-3.265 9.72-5.856 15.81-7.83 3.736-1.212 7.168-2.003 10.419-2.385l6.738-.724z" fill="#B4BDC3" fill-rule="nonzero"/><path d="M419.223 370.829l-.294 1.44-11.895 55.96-28.366-6.03 11.894-55.96c.443-2.084.773-4.166.994-6.238h29.114a90.065 90.065 0 01-1.447 10.828zm-68.217-103.864c31.868 6.774 56 30.04 65.492 59.036h-31.353c-7.899-15.204-22.212-26.853-40.168-30.67-31.708-6.74-62.973 13.454-70.271 45.269l-.214.967-11.895 55.961-28.366-6.03 11.895-55.96c10.2-47.991 57.139-78.72 104.88-68.573z" fill="#344450"/><path d="M429.342 520.031c-14.814 69.697-83.583 114.373-153.3 99.554-69.692-14.833-114.348-83.598-99.534-153.295l17.73-83.409c2.386-11.227 13.483-18.434 24.71-16.048l212.08 45.079c11.227 2.386 18.433 13.484 16.047 24.712l-17.733 83.407z" fill="#B1063A"/><path d="M312.975 445.888c-15.729-3.344-31.252 6.737-34.596 22.466-1.976 9.3.749 18.981 7.145 25.879l-9.793 41.879c-1.926 9.06 3.88 18 12.94 19.926 9.06 1.925 18-3.881 19.926-12.94l9.789-41.86c8.652-3.719 15.075-11.435 17.052-20.736 3.344-15.73-6.733-31.271-22.463-34.614z" fill="#FFF"/></g></svg>