<svg width="1262" height="883" viewBox="0 0 1262 883" xmlns="http://www.w3.org/2000/svg" xmlns:xlink="http://www.w3.org/1999/xlink"><defs><rect id="a" x=".677" y=".494" width="121" height="80.81" rx="8"/><rect id="c" x=".289" y=".494" width="51.574" height="80.81" rx="8"/><rect id="e" x=".289" y=".494" width="51.574" height="80.81" rx="8"/></defs><g transform="translate(143.5 183)" fill="none" fill-rule="evenodd"><path d="M744.552 0H125.417c-8.586 0-15.611 7.025-15.611 15.603v412.618h650.343V15.603C760.15 7.025 753.127 0 744.552 0" fill="#A1ADB4"/><path fill="#FFF" d="M138.742 407.984h593.125V26.882H138.742z"/><path fill="#617480" d="M830.336 466.735H49.408l-38.536-14.31h858z"/><path d="M441.973 13.443c0 3.86-3.109 6.99-6.998 6.99-3.855 0-6.993-3.13-6.993-6.99 0-3.884 3.138-7.01 6.993-7.01a6.98 6.98 0 016.998 7.01" fill="#ECEEF0"/><path fill="#FFF" d="M363.763 442.456h140.803v-14.301H363.763z"/><path d="M493.4 428.154v5.197c0 3.576-2.925 6.508-6.503 6.508H381.534c-3.568 0-6.497-2.932-6.497-6.508v-5.197H12.135C5.433 428.154 0 433.587 0 440.29c0 6.702 5.433 12.135 12.135 12.135h856.737v-24.27H493.4z" fill="#E3E7E9"/><rect stroke="#E3E7E9" x="305.5" y="281.114" width="407" height="56" rx="7"/><rect stroke="#E3E7E9" x="305.5" y="346.949" width="407" height="56" rx="7"/><path d="M311.526 279.268h4.707v59.21h-4.707a7 7 0 01-7-7v-45.21a7 7 0 017-7z" fill="#E98404"/><path d="M311.126 345.434h4.707v59.016h-4.707a7 7 0 01-7-7v-45.016a7 7 0 017-7z" fill="#F7A600"/><rect fill="#B4BDC3" x="305.5" y="84.114" width="47.5" height="9" rx="4.5"/><rect fill="#B4BDC3" x="305.5" y="84.114" width="47.5" height="9" rx="4.5"/><rect fill="#B4BDC3" x="305.5" y="260.839" width="47.5" height="9" rx="4.5"/><rect fill="#B4BDC3" x="336.962" y="299.81" width="60.65" height="6.128" rx="3.064"/><rect fill="#B4BDC3" x="336.962" y="365.645" width="60.65" height="6.128" rx="3.064"/><rect fill="#B4BDC3" x="336.962" y="312.29" width="113" height="6.128" rx="3.064"/><rect fill="#B4BDC3" x="336.962" y="378.125" width="113" height="6.128" rx="3.064"/><g transform="translate(353.177 141.114)"><mask id="b" fill="#fff"><use xlink:href="#a"/></mask><use fill="#617480" opacity=".585" xlink:href="#a"/><path fill="#E3E7E9" opacity=".585" mask="url(#b)" d="M-5-7h133v33H-5z"/></g><g transform="translate(494.177 141.114)"><mask id="d" fill="#fff"><use xlink:href="#c"/></mask><use fill="#E98404" opacity=".585" xlink:href="#c"/><path fill="#E3E7E9" opacity=".585" mask="url(#d)" d="M-2.131-7h56.689v33H-2.131z"/></g><g transform="translate(580.5 141.114)"><mask id="f" fill="#fff"><use xlink:href="#e"/></mask><use fill="#BB8897" opacity=".585" xlink:href="#e"/><path fill="#E3E7E9" opacity=".585" mask="url(#f)" d="M-2.131-7h56.689v33H-2.131z"/></g><path fill="#ECEEF0" d="M138.694 61.127h147.051v346H138.694z"/><rect fill="#B4BDC3" x="184.76" y="245.325" width="76.043" height="8.059" rx="4.029"/><rect fill="#B4BDC3" x="184.76" y="293.075" width="76.043" height="8.059" rx="4.029"/><rect fill="#B4BDC3" x="184.76" y="346.949" width="76.043" height="8.059" rx="4.029"/><path fill="#B4BDC3" opacity=".196" d="M138.694 115h147.051v-1H138.694zm0 107.747h147.051v-1H138.694zm0 47.75h147.051v-1H138.694zm0 53.873h147.051v-1H138.694zm0-155.497h147.051v-1H138.694z"/><ellipse fill="#A1ADB4" cx="163.323" cy="87.735" rx="10.151" ry="10.153"/><ellipse fill="#A1ADB4" cx="163.323" cy="195.481" rx="10.151" ry="10.153"/><ellipse fill="#A1ADB4" cx="163.323" cy="141.608" rx="10.151" ry="10.153"/><ellipse fill="#A1ADB4" cx="163.323" cy="249.355" rx="10.151" ry="10.153"/><ellipse fill="#A1ADB4" cx="163.323" cy="297.105" rx="10.151" ry="10.153"/><ellipse fill="#A1ADB4" cx="163.323" cy="350.978" rx="10.151" ry="10.153"/><rect fill="#B4BDC3" x="184.76" y="83.705" width="76.043" height="8.059" rx="4.029"/><rect fill="#E3E7E9" x="615" y="40.698" width="76.043" height="8.059" rx="4.029"/><circle fill="#B4BDC3" cx="591.076" cy="44.727" r="6"/><circle fill="#B4BDC3" cx="569.62" cy="44.727" r="6"/><circle fill="#B4BDC3" cx="548.163" cy="44.727" r="6"/><rect fill="#B4BDC3" x="184.76" y="191.452" width="76.043" height="8.059" rx="4.029"/><rect fill="#B4BDC3" x="184.76" y="137.579" width="76.043" height="8.059" rx="4.029"/><g transform="translate(138.5 26.736)"><path d="M835.075 540.61c0 10.829-8.85 19.676-19.683 19.676H513.669c-10.812 0-19.669-8.847-19.669-19.675V136.685c0-10.822 8.857-19.685 19.669-19.685h301.723c10.833 0 19.683 8.863 19.683 19.685v403.926z" fill="#455B6A"/><path fill="#FFF" d="M508.535 522.576h312V154.718h-312z"/><path fill="#ECEEF0" d="M508.535 189.03h39v334h-39z"/><ellipse fill="#A1ADB4" cx="526.905" cy="205.377" rx="6.956" ry="7"/><path d="M638.875 190.378a4.5 4.5 0 010 9H566.5a4.5 4.5 0 110-9h72.375zm-91.34-35.66v34.3h-39v-34.3h39zm254.955 13.546a8.5 8.5 0 110 17 8.5 8.5 0 010-17zM269.5 36.456a6 6 0 010 12H173a6 6 0 010-12h96.5zM147.245.08v34.312H.195V.079h147.05zm425.331 7.335c5.842 0 10.577 4.736 10.577 10.577s-4.735 10.576-10.577 10.576c-5.84 0-10.576-4.735-10.576-10.576s4.735-10.577 10.576-10.577z" fill="#B1063A"/><ellipse fill="#A1ADB4" cx="526.905" cy="243.877" rx="6.956" ry="7"/><ellipse fill="#A1ADB4" cx="526.905" cy="282.377" rx="6.956" ry="7"/><ellipse fill="#A1ADB4" cx="526.905" cy="320.877" rx="6.956" ry="7"/><ellipse fill="#A1ADB4" cx="526.905" cy="359.377" rx="6.956" ry="7"/><ellipse fill="#A1ADB4" cx="526.905" cy="397.877" rx="6.956" ry="7"/><ellipse fill="#A1ADB4" cx="526.905" cy="436.377" rx="6.956" ry="7"/><ellipse fill="#A1ADB4" cx="526.905" cy="474.877" rx="6.956" ry="7"/><path d="M532.645 163.506l.123.01c.205.018.411.033.614.067.268.046.534.1.796.168.49.128.952.319 1.391.558a6.026 6.026 0 011.715 1.386c.289.331.537.686.747 1.062.12.214.233.433.324.657.136.338.269.68.369 1.027.097.337.159.682.23 1.025a4.927 4.927 0 013.72 4.635l.001.007v.535l-.01.017-.002.005v.004c-.006.245-.05.484-.101.724a4.36 4.36 0 01-.416 1.145 6.656 6.656 0 01-.317.532c-.183.28-.401.536-.645.773a5.6 5.6 0 01-.775.633c-.443.296-.92.533-1.438.702-.337.11-.68.196-1.036.234l-.297.032c-.148.017-.297.03-.445.03-5.92.008-11.84.012-17.76.016-.395 0-.791.003-1.187-.001a9.074 9.074 0 01-.652-.027c-.266-.022-.53-.052-.794-.091a4.179 4.179 0 01-1.093-.321 3.615 3.615 0 01-.82-.499 4.454 4.454 0 01-.712-.714 3.824 3.824 0 01-.53-.903 2.995 2.995 0 01-.222-.854c-.006-.058-.018-.115-.028-.173v-.495c.005-.012.013-.022.013-.033l.027-.239a3.292 3.292 0 01.396-1.1c.247-.42.573-.778.982-1.077a4.291 4.291 0 011.216-.607c.28-.09.566-.159.862-.189l.36-.038c.12-.012.241-.022.362-.023.288-.004.576.018.863.037.17.011.34.038.507.063.171.025.341.057.51.085l.01-.184.012-.185c.008-.105.01-.21.031-.314a6.39 6.39 0 01.128-.554 3.54 3.54 0 01.494-1.05c.22-.317.48-.602.802-.84a3.2 3.2 0 01.635-.382 4.52 4.52 0 01.675-.241c.249-.063.508-.104.764-.121.237-.016.478.008.716.022.293.017.576.082.852.168.231.072.457.158.69.239l.011-.022a.062.062 0 00.005-.015c.034-.163.064-.327.1-.489.1-.434.265-.848.472-1.249.158-.304.347-.593.558-.869a5.72 5.72 0 01.69-.754 7.788 7.788 0 011.24-.916c.347-.204.71-.388 1.097-.521a14.89 14.89 0 011.025-.313 5.06 5.06 0 01.956-.16c.272-.018.545-.041.818-.05.123-.003.247.005.371.015z" fill="#FFF"/><path d="M668.918 137.225a4.382 4.382 0 01-4.375 4.372 4.374 4.374 0 01-4.377-4.372 4.374 4.374 0 014.377-4.37c2.4 0 4.375 1.955 4.375 4.37m3.271 402.845c0 4.22-3.42 7.655-7.642 7.655a7.66 7.66 0 01-7.66-7.655 7.65 7.65 0 017.66-7.654 7.643 7.643 0 017.642 7.654" fill="#B4BDC3"/></g><path d="M174.523 33.327l.165.014c.273.024.548.043.818.09.357.06.712.133 1.062.223a8.2 8.2 0 011.857.744 8.04 8.04 0 012.289 1.85c.384.442.715.915.995 1.416.16.286.31.578.432.878.182.45.359.905.492 1.37.13.449.212.909.308 1.366a6.573 6.573 0 014.962 6.185l.002.01v.713l-.014.023-.002.006-.001.006a5.201 5.201 0 01-.134.966 5.816 5.816 0 01-.555 1.527 8.88 8.88 0 01-.422.71 6.14 6.14 0 01-.861 1.032 7.397 7.397 0 01-1.034.844 7.774 7.774 0 01-1.92.937 6.748 6.748 0 01-1.38.312l-.397.043c-.198.022-.397.04-.595.04-7.899.01-15.796.016-23.694.02-.528 0-1.056.005-1.585 0a12.107 12.107 0 01-.87-.036c-.354-.03-.708-.07-1.059-.122a5.575 5.575 0 01-1.458-.428 4.824 4.824 0 01-1.094-.665 5.943 5.943 0 01-.95-.953 5.103 5.103 0 01-.706-1.205 3.996 3.996 0 01-.297-1.139c-.008-.078-.025-.154-.038-.232v-.66c.007-.015.017-.029.018-.044l.036-.318a1.94 1.94 0 01.026-.158c.099-.457.26-.895.502-1.309a4.744 4.744 0 011.31-1.438 5.726 5.726 0 011.623-.81c.372-.12.755-.212 1.15-.252l.48-.051a5.22 5.22 0 01.482-.031c.385-.005.77.024 1.152.05.227.015.453.05.677.083.228.034.455.076.681.115l.013-.247.015-.246c.01-.14.014-.281.042-.419.047-.247.1-.495.17-.74.142-.496.36-.967.66-1.4.292-.423.64-.803 1.07-1.12.265-.196.54-.38.847-.511.292-.125.592-.244.901-.321a5.735 5.735 0 011.02-.162c.315-.021.637.01.955.03.39.022.768.11 1.137.224.307.096.609.21.919.319l.015-.03a.083.083 0 00.006-.02c.046-.217.086-.436.135-.652a6.99 6.99 0 01.63-1.666c.21-.406.462-.791.744-1.16.276-.36.581-.697.92-1.006a10.391 10.391 0 011.655-1.222 8.136 8.136 0 011.463-.696c.45-.153.906-.296 1.368-.417.415-.11.842-.184 1.275-.213.364-.024.728-.055 1.091-.066.164-.005.33.006.496.019z" fill="#FFF"/><rect stroke="#E3E7E9" stroke-width="1.1" x="699.43" y="303.024" width="114.4" height="124.3" rx="7.7"/><path d="M699.43 549.239V447.904c0-3.957 3.447-7.165 7.7-7.165h99c4.253 0 7.7 3.208 7.7 7.165V549.24" stroke="#E3E7E9" stroke-width="1.1"/><rect stroke="#E3E7E9" stroke-width="1.1" x="829.43" y="303.024" width="114.4" height="124.3" rx="7.7"/><path d="M829.43 549.239V447.904c0-3.957 3.447-7.165 7.7-7.165h99c4.253 0 7.7 3.208 7.7 7.165V549.24" stroke="#E3E7E9" stroke-width="1.1"/><path d="M706.592 301.704H807.81a6.6 6.6 0 016.6 6.6v45.87H698.892v-44.77a7.7 7.7 0 017.7-7.7z" fill="#E98404"/><path d="M706.592 439.419H807.81a6.6 6.6 0 016.6 6.6v45.87H698.892v-44.77a7.7 7.7 0 017.7-7.7z" fill="#BB8897"/><path d="M836.547 301.704h101.218a6.6 6.6 0 016.6 6.6v45.87H828.847v-44.77a7.7 7.7 0 017.7-7.7z" fill="#F7A600"/><path d="M836.547 439.419h101.218a6.6 6.6 0 016.6 6.6v45.87H828.847v-44.77a7.7 7.7 0 017.7-7.7z" fill="#455B6A"/><rect fill="#B4BDC3" x="709.165" y="365.788" width="89.65" height="5.5" rx="2.75"/><rect fill="#B4BDC3" x="709.165" y="503.503" width="89.65" height="5.5" rx="2.75"/><rect fill="#B4BDC3" x="839.165" y="365.788" width="89.65" height="5.5" rx="2.75"/><rect fill="#B4BDC3" x="839.165" y="503.503" width="89.65" height="5.5" rx="2.75"/><rect fill="#B4BDC3" x="709.165" y="378.988" width="89.65" height="5.5" rx="2.75"/><rect fill="#B4BDC3" x="709.165" y="516.703" width="89.65" height="5.5" rx="2.75"/><rect fill="#B4BDC3" x="839.165" y="378.988" width="89.65" height="5.5" rx="2.75"/><rect fill="#B4BDC3" x="839.165" y="516.703" width="89.65" height="5.5" rx="2.75"/><rect fill="#B4BDC3" x="709.165" y="392.188" width="89.65" height="5.5" rx="2.75"/><rect fill="#B4BDC3" x="709.165" y="529.903" width="89.65" height="5.5" rx="2.75"/><rect fill="#B4BDC3" x="839.165" y="392.188" width="74.5" height="5.5" rx="2.75"/><rect fill="#B4BDC3" x="839.165" y="529.903" width="74.5" height="5.5" rx="2.75"/><rect fill="#B4BDC3" x="709.165" y="405.388" width="46" height="5.5" rx="2.75"/><rect fill="#B4BDC3" x="709.165" y="543.103" width="46" height="5.5" rx="2.75"/><rect fill="#FFF" opacity=".558" x="727.459" y="316.649" width="58.342" height="5.5" rx="2.75"/><rect fill="#FFF" opacity=".558" x="727.459" y="454.363" width="58.342" height="5.5" rx="2.75"/><rect fill="#FFF" opacity=".558" x="857.459" y="316.649" width="58.342" height="5.5" rx="2.75"/><rect fill="#FFF" opacity=".558" x="857.459" y="454.363" width="58.342" height="5.5" rx="2.75"/><rect fill="#FFF" opacity=".558" x="739.47" y="327.939" width="34.32" height="5.5" rx="2.75"/><rect fill="#FFF" opacity=".558" x="739.47" y="465.654" width="34.32" height="5.5" rx="2.75"/><rect fill="#FFF" opacity=".558" x="869.47" y="327.939" width="34.32" height="5.5" rx="2.75"/><rect fill="#FFF" opacity=".558" x="869.47" y="465.654" width="34.32" height="5.5" rx="2.75"/><rect fill="#E3E7E9" x="863.776" y="200.262" width="61.114" height="6.477" rx="3.238"/><circle fill="#B4BDC3" cx="844.549" cy="203.5" r="4.822"/><circle fill="#B4BDC3" cx="827.305" cy="203.5" r="4.822"/><circle fill="#B4BDC3" cx="810.061" cy="203.5" r="4.822"/><circle fill="#B4BDC3" cx="798.239" cy="265.355" r="7"/><circle fill="#E3E7E9" cx="925.49" cy="265.355" r="7"/><rect fill="#B4BDC3" x="714.22" y="261.355" width="72.333" height="8" rx="4"/><rect fill="#E3E7E9" x="841.47" y="261.355" width="72.333" height="8" rx="4"/></g></svg>