<svg width="1262" height="814" viewBox="0 0 1262 814" xmlns="http://www.w3.org/2000/svg" xmlns:xlink="http://www.w3.org/1999/xlink"><defs><rect id="a" x=".011" y=".944" width="343.919" height="343.553" rx="171.777"/></defs><g fill="none" fill-rule="evenodd"><path d="M167.917 122.5c-10.407 4.683-15.611 9.884-15.611 15.603v412.618h650.343V138.103c0-8.578-7.022-15.603-15.597-15.603H167.917z" fill="#A1ADB4"/><path d="M189.242 530.484h570.125c8.284 0 15-6.716 15-15V164.382c0-8.284-6.716-15-15-15H196.242c-8.284 0-15 6.716-15 15v358.102a8 8 0 008 8z" fill="#FFF"/><path fill="#617480" d="M863.76 589.235H90.113l-38.177-14.31h850z"/><path d="M484.473 135.943c0 3.86-3.109 6.99-6.998 6.99-3.855 0-6.993-3.13-6.993-6.99 0-3.884 3.138-7.01 6.993-7.01a6.98 6.98 0 016.998 7.01" fill="#ECEEF0"/><path fill="#FFF" d="M406.263 564.956h140.803v-14.301H406.263z"/><path d="M535.9 550.654v5.197c0 3.576-2.925 6.508-6.503 6.508H424.034c-3.568 0-6.497-2.932-6.497-6.508v-5.197H54.635c-6.702 0-12.135 5.433-12.135 12.136 0 6.702 5.433 12.135 12.135 12.135h856.737v-24.27H535.9z" fill="#E3E7E9"/><path d="M181.194 183.627h147.051v346.857h-139.05a8 8 0 01-8-8V183.627z" fill="#ECEEF0"/><rect fill="#B4BDC3" opacity=".568" x="227.26" y="367.825" width="76.043" height="8.059" rx="4.029"/><rect fill="#B4BDC3" opacity=".568" x="227.26" y="415.575" width="76.043" height="8.059" rx="4.029"/><rect fill="#B4BDC3" opacity=".568" x="227.26" y="469.449" width="76.043" height="8.059" rx="4.029"/><path fill="#B4BDC3" opacity=".196" d="M181.194 237.5h147.051v-1H181.194zm0 107.747h147.051v-1H181.194zm0 47.75h147.051v-1H181.194zm0 53.873h147.051v-1H181.194zm0-155.497h147.051v-1H181.194z"/><ellipse fill="#A1ADB4" cx="205.823" cy="210.235" rx="10.151" ry="10.153"/><ellipse fill="#A1ADB4" cx="205.823" cy="317.981" rx="10.151" ry="10.153"/><path d="M1040.2 620.065c-8.836 0-16 7.163-16 16V743.13c0 8.836 7.164 16 16 16h132.86c8.837 0 16-7.164 16-16V636.065c0-8.837-7.163-16-16-16H1040.2zm19.402 31.402h94.057a4 4 0 014 4v68.262a4 4 0 01-4 4h-94.057a4 4 0 01-4-4v-68.262a4 4 0 014-4z" fill="#B4BDC3"/><ellipse fill="#A1ADB4" cx="205.823" cy="264.108" rx="10.151" ry="10.153"/><path d="M960.532 625.59c-9.318 12.77-29.217 52.953-59.697 120.55l12.159 7.383c22.111-27 37.072-47.018 44.883-60.052 6.729-11.228 12.843-21.834 17.697-30.567.326.386.69.762 1.095 1.129 6.846 6.205 14.383 12.888 22.017 19.575l2.083 1.823c26.414 23.087 53.331 45.7 56.214 48.28 5.317 4.758 15.956-1.463 10.919-8.812-8.016-11.693-37.173-51.031-53.054-67.308a1206.23 1206.23 0 00-13.228-13.35c-4.252-4.224-9.937-4.601-15.1-2.814 5.063-16.504-20.098-23.912-25.988-15.838z" fill="#E7CAB6"/><ellipse fill="#A1ADB4" cx="205.823" cy="371.855" rx="10.151" ry="10.153"/><path d="M1065.818 719.446c2.88 2.351 4.746 4.265 5.598 5.741 1.011 1.752 2.195 4.476 3.551 8.173l-54.78 31.627c-4.14-3.884-4.785-6.9-1.935-9.045a350.318 350.318 0 007.057-5.43l18.981-26.152a1 1 0 011.42-.205l4.027 3.102c3.604-.315 6.294-.984 8.069-2.01 1.48-.853 3.183-2.654 5.11-5.4a2 2 0 012.902-.4z" fill="#E3E7E9"/><path d="M1032.368 747.474c-1.242.717-.128 2.643 1.113 1.927 1.241-.717.127-2.643-1.113-1.927zm3.766-4.433c-1.243.718-.128 2.643 1.112 1.927 1.241-.716.127-2.642-1.112-1.927zm3.566-5.401c-1.241.716-.127 2.642 1.112 1.927 1.243-.717.128-2.643-1.112-1.927zm3.5-5.363c-1.242.717-.128 2.643 1.112 1.927 1.242-.717.127-2.643-1.112-1.927z" fill="#A1ADB4"/><path d="M922.41 749.236c1.318 3.476 1.977 6.066 1.977 7.77 0 2.022-.337 4.974-1.01 8.854h-63.255c-1.644-5.435-.695-8.368 2.846-8.802 3.542-.433 6.484-.824 8.826-1.173l29.514-13.158a1 1 0 011.332.532l1.938 4.7c3.278 1.53 5.942 2.295 7.992 2.295 1.708 0 4.084-.708 7.126-2.123a2 2 0 012.714 1.105z" fill="#E3E7E9"/><path d="M879.427 756.783c-1.434 0-1.432 2.225 0 2.225 1.433 0 1.431-2.225 0-2.225zm5.477-1.956c-1.434 0-1.432 2.225 0 2.225 1.434 0 1.431-2.225 0-2.225zm5.79-2.895c-1.434 0-1.431 2.225 0 2.225 1.434 0 1.432-2.225 0-2.225zm5.712-2.894c-1.434 0-1.432 2.225 0 2.225 1.433 0 1.431-2.225 0-2.225z" fill="#A1ADB4"/><ellipse fill="#A1ADB4" cx="205.823" cy="419.605" rx="10.151" ry="10.153"/><ellipse fill="#A1ADB4" cx="205.823" cy="473.478" rx="10.151" ry="10.153"/><rect fill="#B4BDC3" opacity=".568" x="227.26" y="206.205" width="76.043" height="8.059" rx="4.029"/><rect fill="#B4BDC3" opacity=".568" x="227.26" y="313.952" width="76.043" height="8.059" rx="4.029"/><rect fill="#B4BDC3" opacity=".568" x="227.26" y="260.079" width="76.043" height="8.059" rx="4.029"/><g transform="translate(361.852 170.136)"><mask id="b" fill="#fff"><use xlink:href="#a"/></mask><use fill="#E3E7E9" xlink:href="#a"/><g mask="url(#b)"><path d="M201.33 190.085l86.08 393.275h-22.234l-56.307-180.166-43.372-110.097c-11.993 49.78-22.502 94.064-27.031 101.698-5.16 8.695-63.48 45.64-174.966 110.834l-15.314-16.436C42.672 413.153 90.61 373.578 91.998 370.466c2.083-4.668 15.12-105.493 16.014-180.38h93.318z" fill="#B28B67"/><path d="M-52.411 483.304c-5.956 2.015-9.998 3.916-12.126 5.703-2.37 1.988-5.498 5.283-9.384 9.885l62.012 73.903c7.979-3.423 10.486-7.416 7.522-11.98-2.964-4.563-5.39-8.385-7.277-11.465l-13.662-47.93a1.008 1.008 0 00-1.275-.684l-7.915 2.519c-5.007-2.326-8.515-4.687-10.524-7.082-1.79-2.132-3.38-5.95-4.77-11.454a2.016 2.016 0 00-2.601-1.415z" fill="#E3E7E9"/><path d="M-20.2 541.315c1.406 1.676-1.203 3.861-2.607 2.188-1.405-1.675 1.204-3.86 2.607-2.188zm-3.077-8.322c1.406 1.676-1.204 3.86-2.608 2.188-1.405-1.675 1.205-3.86 2.608-2.188zm-2.284-9.61c1.405 1.674-1.204 3.86-2.607 2.188-1.407-1.676 1.203-3.861 2.607-2.188zm-2.209-9.52c1.407 1.676-1.203 3.86-2.607 2.187-1.405-1.674 1.204-3.86 2.607-2.187z" fill="#A1ADB4"/><path d="M256.627 573.588c-2.284 5.858-3.426 10.176-3.426 12.955 0 3.093.514 7.607 1.542 13.542h96.472c2.507-8.312 1.06-12.8-4.341-13.463-5.401-.662-9.888-1.26-13.461-1.795l-45.498-20.343a1.008 1.008 0 00-1.344.537l-3.158 7.683c-5 2.34-9.063 3.51-12.19 3.51-2.783 0-6.73-1.236-11.84-3.709a2.016 2.016 0 00-2.756 1.083z" fill="#E3E7E9"/><path d="M321.772 586.201c2.187 0 2.184 3.404 0 3.404-2.186 0-2.183-3.404 0-3.404zm-8.354-2.991c2.188 0 2.184 3.403 0 3.403-2.186 0-2.182-3.403 0-3.403zm-8.83-4.428c2.187 0 2.183 3.403 0 3.403-2.187 0-2.184-3.403 0-3.403zm-8.712-4.428c2.188 0 2.184 3.404 0 3.404-2.186 0-2.182-3.404 0-3.404z" fill="#A1ADB4"/><path d="M153.937 409.637c-20.124 28.636-58.304 73.755-114.542 135.357l-69.342-82.318c73.159-78.062 110.658-119.3 112.497-123.713 1.84-4.414 5.402-54.04 10.687-148.878H208.73l78.346 363.211-105.714 11.507-27.781-154.661c.335-.475.665-.945.99-1.41z" fill="#344450"/><path d="M153.937 409.637c-20.124 28.636-58.304 73.755-114.542 135.357l-69.342-82.318c73.159-78.062 110.658-119.3 112.497-123.713 1.84-4.414 5.402-54.04 10.687-148.878H208.73l78.346 363.211-105.714 11.507-27.781-154.661c.335-.475.665-.945.99-1.41z"/><path d="M208.73 190.085l78.346 363.211-105.714 11.507-27.781-154.661c6.193-8.78 10.711-16.032 13.555-21.754 12.124-24.401 23.023-90.502 32.697-198.303h8.897z" fill-opacity=".2" fill="#000"/></g></g><path d="M872.03 308.155c-11.141 10.948-19.36 40.859-10.865 46.022 4.896 2.695 10.804 4.017 16.914 3.947l-12.382 32.97 29.523 9.025 3.995-48.092c7.678-4.764 13.85-12.335 16.246-22.764 6.105-26.574-32.29-32.056-43.43-21.108z" fill="#D4A181"/><path d="M915.312 321.935c1.624-29.384-41.652-24.064-47.571-30.915-4.635 9.431-1.914 19.01 16.724 23.019 3.332 3.438 4.915 8.459 6.684 14.951.934-.069 1.9.031 2.852.323 4.076 1.246 6.383 5.521 5.151 9.548a7.558 7.558 0 01-3.818 4.537 115.62 115.62 0 003.541 9.214c9.658-2.346 20.057-14.603 16.447-30.618z" fill="#350211"/><path d="M841.439 693.798l-4.062 15.75 20.676 2.9 2.254-16.004-18.868-2.646zm90.78-.134l-20.493 2.15-.27 16.278 22.456-2.356-1.693-16.072z" fill="#D4A181"/><path d="M849.832 470.624l-16.01 227.599h29.98l18.687-91.652 2.082-8.811a23.29 23.29 0 00.228.554c4.058 9.337 8.933 29.153 20.136 98.436.085.522.78.98.883 1.473h30.193c-5.173-74.247-12.217-107.434-13.16-113.8-.943-6.366 3.04-43.73 2.142-113.8h-75.161z" fill="#E98404"/><path d="M849.832 470.624l-16.01 227.599h29.98l18.687-91.652 2.082-8.811a23.29 23.29 0 00.228.554c4.058 9.337 8.933 29.153 20.136 98.436.085.522.78.98.883 1.473h30.193c-5.173-74.247-12.217-107.434-13.16-113.8-.943-6.366 3.04-43.73 2.142-113.8h-75.161z" fill="#344450"/><path d="M849.832 470.624l-16.01 227.599h29.98l18.687-91.652 2.082-8.811c-4.156-10.664-12.141-59.75-20.768-127.136h-13.971z" fill-opacity=".2" fill="#000"/><path d="M861.428 708.067c1.516 3.904 2.274 6.79 2.274 8.659 0 2.12-.354 5.213-1.062 9.279h-66.43c-1.727-5.695-.73-8.77 2.99-9.224 3.719-.454 6.808-.864 9.268-1.23l31.233-13.895a.8.8 0 011.064.425l2.133 5.163c3.443 1.603 6.24 2.405 8.394 2.405 1.88 0 4.533-.816 7.956-2.447a1.6 1.6 0 012.18.865z" fill="#E3E7E9"/><path d="M816.485 716.492c-1.507 0-1.504 2.332 0 2.332 1.505 0 1.502-2.332 0-2.332zm5.752-2.05c-1.507 0-1.504 2.332 0 2.332 1.505 0 1.503-2.332 0-2.332zm6.08-3.033c-1.506 0-1.503 2.331 0 2.331 1.506 0 1.504-2.331 0-2.331zm6-3.034c-1.507 0-1.505 2.332 0 2.332 1.504 0 1.502-2.332 0-2.332z" fill="#A1ADB4"/><path d="M935.265 708.067c1.516 3.904 2.274 6.79 2.274 8.659 0 2.12-.354 5.213-1.062 9.279h-66.43c-1.726-5.695-.73-8.77 2.99-9.224 3.719-.454 6.809-.864 9.269-1.23l31.232-13.895a.8.8 0 011.064.425l2.133 5.163c3.443 1.603 6.241 2.405 8.394 2.405 1.88 0 4.533-.816 7.956-2.447a1.6 1.6 0 012.18.865z" fill="#E3E7E9"/><path d="M890.322 716.492c-1.507 0-1.504 2.332 0 2.332 1.505 0 1.503-2.332 0-2.332zm5.752-2.05c-1.506 0-1.504 2.332 0 2.332 1.505 0 1.503-2.332 0-2.332zm6.08-3.033c-1.505 0-1.503 2.331 0 2.331 1.506 0 1.504-2.331 0-2.331zm6-3.034c-1.507 0-1.505 2.332 0 2.332s1.502-2.332 0-2.332z" fill="#A1ADB4"/><path d="M956.084 445.874l-20.12 3.675c19.5 38.372 29.962 58.711 31.385 61.018 3.203 5.19-.033 14.543-1.254 19.477 3.204.814 4.425-.965 5.63-2.935l.219-.36c1.393-2.286 2.922-4.632 7.59-3.372 1.33.359 2.626.802 3.897 1.264l.584.214 1.735.643.573.21c5.428 1.968 10.516 3.284 16.067-1.715.958-.863 1.696-3.598-1.493-5.064-2.69-1.235-5.81-2.83-8.835-4.498l-.822-.457c-5.597-3.13-10.694-6.43-11.876-8.062-2.555-3.526-10.315-23.539-23.28-60.038zm-197.78-33.898c.178.272.355.545.53.82l.351.547.346.548c2.58 4.108 4.692 8.114 3.577 9.508-1.288 1.61-4.905-.255-6.393 2.375-.992 1.753 5.122 3.978 18.341 6.674l26.193 21.061 11.577-14.476-35.179-16.372c-6.101-6.37-12.015-11.234-17.742-14.591-1.72-.588-4.672-.808-1.6 3.906z" fill="#D4A181"/><path d="M917.865 477.134l-74.862-1.306c-3.421-.06-2.69-5.037-2.15-7.546 6.213-28.953 29.039-59.881 29.76-101.237l21.654-3.043c17.354 29.323 22.908 65.15 25.598 113.132z" fill="#E3E7E9"/><path d="M885.11 363.877c-20.346 65.777-26.548 109.953-18.608 132.53l.245.677 67.388 1.176c-.782-16.272-3.901-33.52-8.291-50.36 14.776 28.087 27.254 48.34 37.435 60.76l15.746-2.833c-9.002-63.526-37.457-110.793-85.365-141.8l-8.55-.15zm-14.696 8.233c-15.99 19.493-23.931 56.74-35.393 61.83-11.706 5.197-28.075-.316-47.517-7.713l-6.226 13.345c14.055 15.822 41.195 29.925 59.32 30.066.078-.496.169-.957.254-1.356 5.958-27.759 27.185-57.333 29.562-96.172z" fill="#F7A600"/><path d="M885.11 363.877c-20.346 65.777-26.548 109.953-18.608 132.53l.245.677 67.388 1.176c-.782-16.272-3.901-33.52-8.291-50.36 14.776 28.087 27.254 48.34 37.435 60.76l15.746-2.833c-9.002-63.526-37.457-110.793-85.365-141.8l-8.55-.15zm-14.696 8.233c-15.99 19.493-23.931 56.74-35.393 61.83-11.706 5.197-28.075-.316-47.517-7.713l-6.226 13.345c14.055 15.822 41.195 29.925 59.32 30.066.078-.496.169-.957.254-1.356 5.958-27.759 27.185-57.333 29.562-96.172z"/><path d="M835.02 433.94c-11.705 5.197-28.074-.316-47.516-7.713l-6.226 13.345c14.055 15.822 41.195 29.925 59.32 30.066.078-.496.169-.957.254-1.356 5.958-27.759 27.185-57.333 29.562-96.172-15.99 19.493-23.931 56.74-35.393 61.83z" fill-opacity=".2" fill="#000"/><path d="M975.142 485.894l-15.3-6.586-13.614 22.292 9.586 5.994 3.177-5.347 5.354-9.022 13.853 5.96 1.438.616 8.531-14.369-9.402-5.794-3.25 5.603-.373.653zm-23.83-30.985l-8.531 14.368-6.431-2.76-6.634-2.853-2.236-.963-8.53 14.369-15.3-6.586-8.532 14.368-15.29-6.576-8.531 14.368-6.263-2.332c.438 1.884.938 3.65 1.52 5.296l.255.698 14.91.26 2.602-4.373 10.716 4.606 4.575 1.97 1.109-1.871 7.432-12.498 15.29 6.586 8.532-14.379.068.032 13.746 5.918 1.486.636 8.532-14.369 15.3 6.576 1.39-2.347 7.14-12.021-9.895-5.006-1.656 2.885-1.474 2.583-15.3-6.585zm18.597-19.145l-9.87-5.93-3.155 6.393-15.29-6.586-8.532 14.368-15.3-6.576-8.531 14.369-15.3-6.586-8.531 14.369-15.3-6.577-6.686 11.262c-.28 5.488-.258 10.519.068 15.085l.065.851 2.516 1.088 8.53-14.368 15.301 6.575 8.531-14.369 15.3 6.576 8.531-14.369 5.207 2.238 10.094 4.348 8.53-14.368 15.291 6.576 2.027-3.41 6.504-10.96zm-148.633-6.127l-5.073 8.582 12.48 9.47-7.668 13.714 18.716 14.49 1.322-1.739c-1.01-1.612-.525-4.665-.141-6.449.254-1.176.53-2.353.834-3.528v-.01l-7.341-5.581 7.668-13.715-12.48-9.47-8.317-5.764zm-27.466-14.14l-4.578 7.868 7.58 5.534-7.673 13.71 12.486 9.475-4.874 8.4-.096.41 9.458 4.569 1.229-2.483 7.673-13.71-12.488-9.473 7.673-13.712-16.39-10.587zm139.923-11.584l-8.531 14.369-15.3-6.586-8.531 14.379-15.3-6.586-8.532 14.368-9.568-4.113a330.996 330.996 0 00-2.078 11.796l-.218 1.41 1.068-1.763 15.292 6.586 8.529-14.368 15.3 6.576 8.532-14.369 15.3 6.586 8.53-14.369 13.553 5.828 1.748.748 8.532-14.368-9.56-5.796-3.466 6.248-8.607-3.694-6.693-2.882zm-96.547 1.385l-2.74 9.47 9.048 2.5-5.182 14.841 12.63 6.47c1.309-3.136 2.666-6.32 4.015-9.566l-3.94-2.017 5.182-14.84-19.013-6.858zm88.19-27.288l-4.296 7.247-4.235 7.122-15.3-6.576-8.531 14.368-15.3-6.586-2.27 3.819c-2.005 7.617-3.766 14.853-5.28 21.715l-.32 1.464 3.834 1.287 8.529-14.369 15.3 6.586 8.532-14.369 15.3 6.577 7.725-13.005.806-1.364 7.51 2.11 3.285-9.333.002-.107-15.29-6.586zm-14.804-19.875l-3.33 7.461-15.3-6.575-2.855 4.802-5.677 9.567-1.07-.364a820.82 820.82 0 00-2.658 9.023l-.506 1.769 8.729 3.478 8.53-14.369 15.3 6.586.99-1.675 7.542-12.694-9.695-7.01z" fill="#FFF" fill-opacity=".2"/><path d="M584.94 86.417c18.828 5.399 30.442 23.734 27.966 42.59l-.028 1.469-.043 1.532-.057 1.592-.112 2.495-.092 1.728-.107 1.776-.186 2.747-.141 1.88-.155 1.916-.169 1.948-.278 2.974-.308 3.025-.337 3.064-.367 3.09-.395 3.107-.28 2.073-.442 3.105-.31 2.06-.322 2.05-.335 2.035-.347 2.016-.358 1.994-.37 1.968-.383 1.94-.393 1.906-.405 1.87-.417 1.83-.427 1.786-.439 1.739-.45 1.688c-2.426 8.863-5.318 15.405-8.597 17.174l-50.638-14.52.062-.273c-18.173-7.46-28.206-27.566-22.663-46.897l10.52-36.685c5.948-20.743 27.578-32.739 48.311-26.793l3.493 1.001z" fill="#350211"/><path d="M609.17 118.195c4.707 21.77-8.717 64.046-22.76 63.668-7.877-.553-15.89-3.54-23.062-8.353l-10.867 49.171-41.907-12.016 32.489-60.838c-5.396-11.664-6.84-25.532-1.603-39.91 13.342-36.632 63.001-13.492 67.71 8.278z" fill="#915B3C"/><path d="M581.823 87.414c19.614 5.624 23.668 16.371 26.761 25.727l.19.577.095.287c-8.063 12.784-24.426 10.33-40.932 15.007a9.944 9.944 0 00-5.435-3.882c-5.304-1.521-10.838 1.548-12.36 6.854-1.52 5.306 1.546 10.84 6.85 12.362.146.042.292.08.439.115-4.019 21.303-11.587 44.777-18.955 48.752l-50.637-14.52c11.24-49.85 33.062-23.04 46.303-69.215 2.176-1.175 4.254-2.359 6.25-3.321l.333-1.374c13.919-15.445 27.618-21.235 41.098-17.37z" fill="#350211"/><path d="M705.196 285.094c2.823-.129 7.55-1.806 12.307-3.536l1.157-.422.769-.279c6.136-2.228 11.895-4.204 13.18-2.664 3.564 4.274-1.885 14.802-7.107 19.64-9.76 9.045-17.045 11.512-34.403 13.505-9.075 1.042-19.24 4.402-30.497 10.08l2.38-23.647 25.431-9.123c5.258-11.949 10.176-17.6 14.755-16.955 3.766-1.074-4.838 13.714 2.028 13.401zM673.38 225.31c-5.502 6.93-10.976 14.468-9.159 17.159 1.818 2.691 7.795.28 9.79 4.59 1.329 2.873-8.646 5.499-29.925 7.878l-44.31 29.24-16.334-24.188 57.882-20.681c10.521-9.096 20.54-15.868 30.059-20.315.293-.07.607-.134.927-.181l.215-.03c2.693-.338 5.654.484.855 6.528z" fill="#915B3C"/><path d="M1120.045 573.3c5.709 38.875-3.946 56.693-37.056 62.53-5.692 1.005-14.095 2.431-25.21 4.28l-1.375.23a13675.664 13675.664 0 01-42.143 6.921c-1.142.323-1.173 1.572-.093 3.746l40.88 52.459-49.905 31.791c-9.9-16.944-18.44-31.563-25.62-43.857l.202.345-21.421 53.928-52.983-21.495c2.292-3.113 12.957-26.184 24.706-50.32l.751-1.541c.25-.515.502-1.03.754-1.544l.756-1.544 1.114-2.27c1.116-2.269 2.236-4.53 3.353-6.77l1.115-2.233c4.087-8.153 8.111-15.939 11.776-22.587l-.013-.176c-.464-6.622.936-15.025 8.211-18.637a7246.898 7246.898 0 0145.197-20.01l2.64-1.155c30.002-13.118 47.79-20.482 53.36-22.09zm-593.17-389.23l.151.006 42.584 6.744c-1.46 18.382.346 38.427 2.998 58.97l.141 1.088c16.722.778 37.099-1.428 59.693-11.184l6.751 24.856c-18.037 12.974-41.094 22.748-61.382 22.776l-.11-.82c.19 1.41.38 2.82.564 4.228 19.026 8.069 53.165 7.516 102.416-1.659 7.783 25.712 10.433 43.583 7.95 53.614-42.873 14.373-78.349 18.307-106.555 14.637l-.844-.113-.093.88c-1.818 16.53-6.378 31.815-15.374 45.038-18.823 27.665-96.93-13.088-125.528-12.031-8.453-59.049 28.755-76.609 34.487-112.627 6.215-39.049 46.809-94.025 52.15-94.403zm-198.63-34.755v36.377h-147.05v-28.377a8 8 0 018-8h139.05z" fill="#B1063A"/><path d="M506.39 263.1c19.571 57.682 41.793 87.594 66.664 89.736 37.306 3.214-64.135 46.618-69.204-17.015-3.379-42.423-2.532-66.663 2.54-72.72zm126.052-23.406l6.751 24.856c-18.037 12.974-41.094 22.748-61.382 22.776-1.638-12.159-3.488-24.386-5.062-36.448 16.722.778 37.099-1.428 59.693-11.184z" fill-opacity=".2" fill="#000"/><path d="M460.564 371.386c4.582.889 9.248 2.026 14.936 3.599l3.888 1.101 15.12 4.394 12.17 3.473c15.073 4.26 22.004 5.997 29.236 7.21l.64.106.641.103c1.395.221 2.82.427 4.331.633 12.951 1.76 25.636 1.552 41.174-.893l1.466-.236-1.87 11.808c-16.916 2.782-26.633 2.058-40.849.26l-1.333-.175a201.316 201.316 0 01-5.942-.887l-.67-.113c-.67-.115-1.338-.234-2.01-.358l-.672-.126c-8.206-1.561-17.244-4.03-37.593-9.861l-18.247-5.292c-.605-.173-1.119-.32-1.509-.428l-2.157-.597c-4.908-1.34-8.966-2.316-12.895-3.078-9.824-1.907-19.027-2.46-29.867-1.586l-1.364.116-.153-10.765c12.668-1.146 22.101-.626 33.529 1.592zm131.336.458l-1.801 11.371c-16.992 2.77-31.08 3.13-45.363 1.322l-1.34-.176c-12.421-1.69-19.102-3.37-47.114-11.382l-18.335-5.305a285.76 285.76 0 00-1.516-.43l-2.168-.598c-4.932-1.344-9.01-2.323-12.957-3.088-9.871-1.914-19.117-2.474-30.007-1.608l-2.804.293-.094-11.01c12.727-1.137 23.57-.545 35.052 1.682 4.605.893 9.293 2.033 15.008 3.61l3.907 1.105 15.193 4.406 12.23 3.481c14.032 3.958 21.042 5.745 27.776 6.955l.64.114c2.135.373 4.263.693 6.6 1.01 13.013 1.77 25.756 1.571 41.365-.862l5.728-.89zm78.815-85.452c.052.042 1.592 4.053 3.051 8.275l.218.635c.723 2.117 1.407 4.24 1.854 5.9 1.708 6.332 2.777 13.06 3.067 20.458l.502 8.322c.386 8.918.467 10.205.965 14.926l.111 1.01c.11.96.214 1.766.312 2.43l.201 1.238-12.03 3.118-.079-.328c-.217-.956-.477-2.597-.767-5.167l-.11-1.008c-.583-5.524-1.109-13.398-1.526-24.064-.236-6.015-1.056-11.48-2.362-16.621l-.287-1.097c-.854-3.166-2.954-8.939-4.158-12.166l-1.485-3.72 12.53-2.105-.007-.036z" fill="#ECEEF0" opacity=".828"/><path d="M1070.18 414.698c-9.765 10.394-16.338 38.02-8.503 42.445 4.507 2.294 9.891 3.297 15.417 3.022l-10.251 30.566 26.971 7.227 2.227-44.099c6.81-4.62 12.176-11.755 14.043-21.372 4.757-24.502-30.14-28.182-39.904-17.789z" fill="#E7CAB6"/><path d="M1084.376 404.332c3.986-.136 9.439.917 11.62 1.777-.458-3.41-.05-6.964 1.255-10.18 1.27-3.125 3.452-5.491 5.56-8.018.973-1.165 2.025-2.3 3.338-3.038 1.338-.753 2.863-1.077 4.358-1.026 1.53.052 3.028.483 4.389 1.172.602.305 1.096.75 1.678 1.08.597.338 1.015.02 1.588-.258 1.381-.67 3.153-.71 4.617-.502 1.642.234 3.229.917 4.606 1.846 1.34.905 2.537 2.112 3.282 3.602.332.664.6 1.39.7 2.139.041.307.016.476.265.651.23.162.528.245.767.405 2.315 1.544 3.965 4.095 4.474 6.939.297 1.66-.071 4.342-.94 7.226-.87 2.884-5.528 9.77-8.726 11.879-2.855 1.883-6.514 2.65-9.815 2.53 1.432 2.913 2.016 6.23 2.229 9.5.23 3.554.007 7.121-.665 10.637-.638 3.34-1.545 6.811-3.172 9.812-1.522 2.806-3.718 4.854-6.7 5.727-1.367.4-2.776.599-4.179.749-1.382.148-2.765.281-4.15.2-2.623-.151-5.462-1.007-6.846-3.497-.498-.898-1.017-1.997-1.287-3.002-.097-.362-.15-.596.151-.843.362-.296.863-.463 1.278-.66 2.367-1.118 4.146-2.98 5.143-5.494 1.01-2.551 1.214-6.138-1.038-7.973-2.78-2.264-6.694-1.569-9.909-.804-.065-4.531-1.499-8.98-4.823-11.942-3.677-3.276-8.487-4.833-12.363-7.837-1.01-.783-2.024-1.636-2.601-2.834-.241-.5-.51-1.139-.506-1.714.005-.757.62-1.227 1.12-1.684 2.65-2.422 11.315-6.428 15.302-6.565z" fill="#350211"/><path d="M905.321 724.178l52.983 21.495 21.421-53.927c-19.024-32.575-28.566-48.94-28.623-49.092-.612-1.613-1.227-4.255-1.456-7.285-16.66 30.221-40.74 83.939-44.325 88.81z" fill-opacity=".2" fill="#000"/><path d="M217.023 155.827l.165.014c.273.024.548.043.818.09.357.06.712.133 1.062.223a8.2 8.2 0 011.857.744 8.04 8.04 0 012.289 1.85c.384.442.715.915.995 1.416.16.286.31.578.432.878.182.45.359.905.492 1.37.13.449.212.909.308 1.366a6.573 6.573 0 014.962 6.185l.002.01v.713l-.014.023-.002.006-.001.006a5.201 5.201 0 01-.134.966 5.816 5.816 0 01-.555 1.527 8.88 8.88 0 01-.422.71 6.14 6.14 0 01-.861 1.032 7.397 7.397 0 01-1.034.844 7.774 7.774 0 01-1.92.937 6.748 6.748 0 01-1.38.312l-.397.043c-.198.022-.397.04-.595.04-7.899.01-15.796.016-23.694.02-.528 0-1.056.005-1.585 0a12.107 12.107 0 01-.87-.036c-.354-.03-.708-.07-1.059-.122a5.575 5.575 0 01-1.458-.428 4.824 4.824 0 01-1.094-.665 5.943 5.943 0 01-.95-.953 5.103 5.103 0 01-.706-1.205 3.996 3.996 0 01-.297-1.139c-.008-.078-.025-.154-.038-.232v-.66c.007-.015.017-.029.018-.044l.036-.318a1.94 1.94 0 01.026-.158c.099-.457.26-.895.502-1.309a4.744 4.744 0 011.31-1.438 5.726 5.726 0 011.623-.81c.372-.12.755-.212 1.15-.252l.48-.051a5.22 5.22 0 01.482-.031c.385-.005.77.024 1.152.05.227.015.453.05.677.083.228.034.455.076.681.115l.013-.247.015-.246c.01-.14.014-.281.042-.419.047-.247.1-.495.17-.74.142-.496.36-.967.66-1.4.292-.423.64-.803 1.07-1.12.265-.196.54-.38.847-.511.292-.125.592-.244.901-.321a5.735 5.735 0 011.02-.162c.315-.021.637.01.955.03.39.022.768.11 1.137.224.307.096.609.21.919.319l.015-.03a.083.083 0 00.006-.02c.046-.217.086-.436.135-.652a6.99 6.99 0 01.63-1.666c.21-.406.462-.791.744-1.16.276-.36.581-.697.92-1.006a10.39 10.39 0 011.655-1.222 8.136 8.136 0 011.463-.696c.45-.153.906-.296 1.368-.417.415-.11.842-.184 1.275-.213.364-.024.728-.055 1.091-.066.164-.005.33.006.496.019z" fill="#FFF"/><path d="M1143.362 535.334l-20.609.078c15.697 50.855 24.03 77.482 24.997 79.88 2.178 5.398-2.43 13.618-4.401 18.035 2.75 1.231 4.197-.02 5.589-1.554l.278-.31.14-.156.28-.314c1.643-1.83 3.496-3.547 7.545-1.664 1.343.626 2.629 1.343 3.884 2.067l.536.31.533.31.53.307c5.025 2.906 9.748 5.307 16.069 1.406 1.05-.647 2.2-3.086-.58-4.992-6.925-4.749-16.904-13.06-18.252-15.795-1.839-3.73-7.352-29.6-16.539-77.608zm-130.374 23.54l-26.662 26.01c-7.758 3.308-14.114 6.962-19.069 10.96-1.114 1.345-2.327 3.92 2.916 2.768 5.242-1.153 10.809-2.13 11.794-.424.985 1.705-1.918 4.317-.097 6.549 1.214 1.487 5.297-3.245 12.248-14.195l27.725-16.346-8.855-15.322z" fill="#E7CAB6"/><path d="M1040.852 582.27c6.38 19.876 67.445 41.242 78.011 21.759 4.278-7.887 6.219-17.427 6.439-27.798 2.7 7.968 4.836 14.828 6.407 20.579 2.674 9.784 12.933 11.452 13.213 15.162l.006.156 13.845-3.821c-.94-5.192 5.587-7.72 3.837-19.319-7.84-51.969-28.907-89.64-63.2-113.012l-.338-4.84a4 4 0 00-4.27-3.71l-24.88 1.74a4 4 0 00-3.711 4.269l.66 9.414a148.67 148.67 0 01-.03 6.29c-20.253 37.921-73.53 64.306-77.153 79.488-1.483 6.213 2.988 9.354.679 11.246l10.578 7.744c1.791-2.09 5.614 1.733 13.597-.941 3.518-1.179 16.752-12.218 30.458-28.79.458-.902.936-1.818 1.43-2.75l-.291.55c-5.033 9.552-8.224 17.435-5.287 26.583z" fill="#344450"/><path d="M1040.852 582.27c6.38 19.876 67.445 41.242 78.011 21.759 4.278-7.887 6.219-17.427 6.439-27.798 2.7 7.968 4.836 14.828 6.407 20.579 2.674 9.784 12.933 11.452 13.213 15.162l.006.156 13.845-3.821c-.94-5.192 5.587-7.72 3.837-19.319-7.84-51.969-28.907-89.64-63.2-113.012l-.338-4.84a4 4 0 00-4.27-3.71l-24.88 1.74a4 4 0 00-3.711 4.269l.66 9.414a148.67 148.67 0 01-.03 6.29c-20.253 37.921-73.53 64.306-77.153 79.488-1.483 6.213 2.988 9.354.679 11.246l10.578 7.744c1.791-2.09 5.614 1.733 13.597-.941 3.518-1.179 16.752-12.218 30.458-28.79.458-.902.936-1.818 1.43-2.75l-.291.55c-5.033 9.552-8.224 17.435-5.287 26.583z"/><path d="M1103.7 517.37s11.814 96.936 17.466 82.056c3.646-9.6 4.318-16.622 4.336-20.397v-.366c-.013-1.839-.18-2.804-.18-2.804l-21.622-58.49zm-36.86-28.24c-20.252 37.93-73.528 64.315-77.152 79.497-1.483 6.213 2.988 9.354.679 11.246l10.578 7.744c1.791-2.09 5.614 1.733 13.597-.941 3.518-1.179 16.752-12.218 30.458-28.79 7.624-15.037 20.922-33.832 21.84-68.755z" fill-opacity=".2" fill="#000"/><path d="M1095.084 467.438l-.194.01-25.346 1.769a3.761 3.761 0 00-3.492 4.019l.678 9.647c.066 4.32-.047 8.405-.32 12.281a24.323 24.323 0 004.433 3.822c9.74 6.485 22.57 6.446 33.007 1.61a41.51 41.51 0 01.179 7.087c-.367 5.741-1.967 11.407-4.574 16.573-8.678-4.3-17.59-7.745-27.728-6.879-3.331.282-6.682 1.29-9.712 2.852-2.767 9.543-6.42 17.383-9.967 24.207 7.208 15.153 26.24 14.258 38.616 6.597a50.05 50.05 0 0014.325-13.383c.367.198.724.395 1.09.593-.008.781 0 1.572.03 2.353.236 6.626 1.515 13.204 3.623 19.52a.294.294 0 00-.048.028c-5.025 3.801-9.288 8.32-13.392 12.998-10.653-9.638-24.348-16.105-38.993-14.062a29.36 29.36 0 00-16.33 7.935c-1.6 5.054-1.976 9.957-.263 15.294.583 1.807 1.609 3.623 3.02 5.43.086-3.077 1.112-6.222 2.646-8.79 3.483-5.807 9.836-8.989 16.461-9.534 10.456-.866 19.605 4.197 27.144 11.049-3.087 3.557-6.259 7.04-9.76 10.212-4.847 4.376-12.518 8.979-19.944 9.835 4.96 2.664 10.476 5.017 16.085 6.861 7.115-3.444 13.365-8.97 18.777-14.899a135.924 135.924 0 002.975-3.36c.253.311.507.63.75.942 4.764 5.957 9.177 12.894 11.682 20.291 3.68-1.214 6.54-3.256 8.179-6.277.056-.113.112-.217.169-.33-3.51-8.074-8.584-15.539-14.4-22.183 3.134-3.643 6.4-7.219 9.986-10.297a78.102 78.102 0 005.346 8.81 89.703 89.703 0 004.555 5.949c.461-3.145.706-6.41.781-9.752 2.013 5.94 3.708 11.266 5.092 15.972 6.315 5.9 13.902 10.475 22.278 10.908 2.974.151 5.637-.32 7.953-1.298 1.42-2.844 2.945-6.476 1.984-12.82-1.617-10.691-3.782-20.772-6.52-30.249a41.973 41.973 0 00-9.752-4.97c-9.215-3.256-18.786-2.625-27.397 1.046-.997-3.643-1.658-7.37-1.883-11.087 1.111.488 2.231.94 3.342 1.336 10.08 3.633 21.544 4.122 30.776-1.159a172.65 172.65 0 00-4.621-11.058 19.624 19.624 0 01-3.586 2.24c-7.538 3.652-15.84 2.08-23.313-.94-.659-.274-1.318-.556-1.967-.838a34.707 34.707 0 011.835-6.345c2.72-6.823 8.17-12.818 15.389-14.899.028-.009.048-.017.075-.017a136.142 136.142 0 00-7.03-9.62 27.316 27.316 0 00-6.297 3.238 32.911 32.911 0 00-6.984 6.494 53.781 53.781 0 00-1.203-17.967 41.28 41.28 0 003.65-3.727 130.203 130.203 0 00-17.713-14.494l-.357-5.073a3.757 3.757 0 00-4.02-3.491zm35.862 95.313c12.565-2.428 29.826 6.21 29.149 20.706-.396 8.488-8.218 10.513-15.06 7.332-7.124-3.314-12.78-9.948-17.138-16.32a66.224 66.224 0 01-5.092-8.894c2.532-1.29 5.232-2.269 8.141-2.824zm-79.624-52.301c-3.764 4.17-7.792 8.16-11.924 11.981a75.498 75.498 0 01-8.64 20.33c-2.024 3.312-4.98 7.246-8.489 10.71-1.78-3.643-4.452-7.238-7.662-10.165a712.042 712.042 0 00-6.353 5.12c3.238 2.683 5.459 7.021 6.833 10.738-5.674 3.408-12.01 4.585-18.042.575a9.526 9.526 0 01-.893-.677c-2.326 2.334-4.142 4.508-5.31 6.513 3.295 2.72 7.37 4.498 11.643 5.185 5.516.905 10.627.085 15.275-1.873a67.266 67.266 0 011.082 15.058c2.466-1.853 5.666-4.573 9.3-8.036a69.892 69.892 0 00-2.108-12c4.968-3.925 9.186-9.064 12.555-14.382 7.445-11.775 11.792-25.242 12.733-39.077zm24.067 17.487c6.579-.48 12.856 1.43 18.964 4.207-4.075 5.064-9.251 9.224-15.218 11.859-5.375 2.381-19.003 3.867-17.846-5.845.763-6.315 8.575-9.817 14.1-10.221zm3.99-57.243c8.367-1.063 15.126 6.578 18.956 13.064a40.475 40.475 0 012.568 5.214c-2.86 1.807-5.994 3.133-9.298 3.84-6.607 1.411-15.943.443-19.652-6.099-3.698-6.532-.254-15.04 7.426-16.02z" fill="#FFF" fill-opacity=".1"/></g></svg>