<svg width="61" height="62" viewBox="0 0 61 62" xmlns="http://www.w3.org/2000/svg" xmlns:xlink="http://www.w3.org/1999/xlink"><defs><path d="M0 23.5C0 36.479 10.298 47 23 47s23-10.521 23-23.5C46 10.522 35.702 0 23 0S0 10.522 0 23.5z" id="a"/></defs><g fill="none" fill-rule="evenodd"><path d="M23 62c12.702 0 23-10.521 23-23.5S35.702 15 23 15 0 25.521 0 38.5 10.298 62 23 62" fill="#F6CE9B"/><g transform="translate(0 15)"><mask id="b" fill="#fff"><use xlink:href="#a"/></mask><path fill="#F6CE9B" mask="url(#b)" d="M-5 52h56V-5H-5z"/></g><path d="M15 25s1.5 21.5 2 24c0 0 35.605-41.677 41.5-46.5" stroke="#E98404" stroke-width="5" stroke-linecap="round" stroke-linejoin="round"/></g></svg>