<svg width="241" height="239" viewBox="0 0 241 239" xmlns="http://www.w3.org/2000/svg"><g transform="translate(3)" fill="none" fill-rule="evenodd"><circle fill="#EEC0CB" cx="143" cy="95" r="95"/><g stroke="#B1063A" stroke-linejoin="round" stroke-width="5"><path d="M56.867 138.17l-40.891-6.462s-19.214-4.251-15.5-18.429c3.047-11.623 10.706-27.922 39.26-18.276 0 0 6.187-15.179 18.258-17.397 10.795-2.409 15.7-.332 20.41 3.058 0 0 7.075-29.809 46.62-23.885 0 0 34.444 5.161 33.354 38.551 0 0 22.664 14.134 16.966 34.754 0 0-4.62 22.125-34.353 20.355l-29.524-4.424"/><path d="M67.867 158.17l2.358-14.961c.999-6.671 7.845-11.174 15.289-10.059 7.445 1.116 12.669 7.428 11.67 14.098l-2.317 15.922m12 2l2.125-16.952c1.866-12.456-7.89-24.242-21.791-26.324-13.901-2.083-26.684 6.326-28.55 18.782l-2.711 14.418"/><path d="M103.804 236.114l-65.954-9.882c-5.462-.818-9.226-5.909-8.408-11.37l7.711-51.465c.818-5.462 5.91-9.226 11.371-8.408l65.955 9.882c5.462.818 9.226 5.91 8.408 11.371l-7.71 51.465c-.819 5.462-5.91 9.225-11.373 8.407z"/><path d="M86.76 190.09c.791-5.28-2.849-10.203-8.13-10.994-5.28-.791-10.204 2.849-10.996 8.13a9.658 9.658 0 003.108 8.627l-1.77 11.81a3.596 3.596 0 003.023 4.09l3.407.51a3.595 3.595 0 004.088-3.023l1.77-11.811a9.657 9.657 0 005.5-7.338zm-15.634-48.903l24.741 3.983"/></g></g></svg>