<svg xmlns="http://www.w3.org/2000/svg" xmlns:xlink="http://www.w3.org/1999/xlink" viewBox="0 0 737 294.07"><defs><linearGradient id="linear-gradient" x1="113.77" y1="235.84" x2="113.77" y2="299.68" gradientUnits="userSpaceOnUse"><stop offset=".11" stop-color="#006192"/><stop offset="1" stop-color="#201e1d"/></linearGradient><linearGradient id="linear-gradient-2" x1="406.55" y1="286.97" x2="406.55" y2="251.11" gradientTransform="matrix(1.02 -.01 0 1 -300.82 -16.86)" gradientUnits="userSpaceOnUse"><stop offset=".36" stop-color="#ffd8ca"/><stop offset="1" stop-color="#ff9676"/></linearGradient><linearGradient id="linear-gradient-3" x1="1679.28" y1="182.04" x2="1679.28" y2="291.13" gradientTransform="matrix(-1 0 0 1 1795.49 0)" gradientUnits="userSpaceOnUse"><stop offset="0" stop-color="#ffe6dc"/><stop offset=".81" stop-color="#ff9676"/></linearGradient><linearGradient id="linear-gradient-4" x1="112.08" y1="224.98" x2="121.18" y2="224.98" gradientUnits="userSpaceOnUse"><stop offset="0" stop-color="#fb3847"/><stop offset="1" stop-color="#86283c"/></linearGradient><linearGradient id="linear-gradient-5" x1="-786.81" y1="309.17" x2="-786.81" y2="241.07" gradientTransform="matrix(-1 0 0 1 -181.13 0)" gradientUnits="userSpaceOnUse"><stop offset="0" stop-color="#003f4f"/><stop offset=".7" stop-color="#68aa61"/></linearGradient><linearGradient id="linear-gradient-6" x1="-787.86" y1="257.67" x2="-787.86" y2="228.79" gradientTransform="matrix(1 0 0 -1 1398.46 481.72)" gradientUnits="userSpaceOnUse"><stop offset="0" stop-color="#ffd8ca"/><stop offset=".81" stop-color="#ff9676"/></linearGradient><linearGradient id="linear-gradient-7" x1="-788.5" y1="195.96" x2="-788.5" y2="255.93" gradientTransform="matrix(-1 0 0 1 -181.13 0)" gradientUnits="userSpaceOnUse"><stop offset=".01" stop-color="#ffdfd3"/><stop offset=".97" stop-color="#ffa082"/></linearGradient><linearGradient id="linear-gradient-8" x1="-704.49" y1="317.66" x2="-704.49" y2="233.61" gradientTransform="matrix(1 0 0 -1 1231.32 508.8)" gradientUnits="userSpaceOnUse"><stop offset=".5" stop-color="#437381"/><stop offset="1" stop-color="#5591a8"/></linearGradient><linearGradient id="linear-gradient-9" x1="-793.17" y1="229.38" x2="-782.52" y2="229.38" gradientTransform="matrix(-1 0 0 1 -181.13 0)" xlink:href="#linear-gradient-4"/><linearGradient id="linear-gradient-10" x1="894.87" y1="960.85" x2="894.87" y2="1105.82" gradientTransform="matrix(.87 .5 -.5 .87 180.49 -1094.65)" gradientUnits="userSpaceOnUse"><stop offset="0" stop-color="#e87601"/><stop offset="1" stop-color="#201e1d"/></linearGradient><linearGradient id="linear-gradient-11" x1="606.36" y1="956.66" x2="606.36" y2="920.15" gradientTransform="matrix(.87 .5 -.51 .86 439.06 -941.64)" gradientUnits="userSpaceOnUse"><stop offset="0" stop-color="#fff5f1"/><stop offset=".82" stop-color="#ffa285"/></linearGradient><linearGradient id="linear-gradient-12" x1="583.05" y1="902.1" x2="583.05" y2="946.71" gradientTransform="matrix(.87 .5 -.5 .87 451.1 -938.32)" gradientUnits="userSpaceOnUse"><stop offset="0" stop-color="#ffe0d4"/><stop offset=".97" stop-color="#ffa082"/></linearGradient><linearGradient id="linear-gradient-13" x1="486.24" y1="1019.44" x2="497.82" y2="1019.44" gradientTransform="matrix(.69 .4 -.4 .69 560.68 -751.03)" xlink:href="#linear-gradient-4"/><linearGradient id="linear-gradient-14" x1="896.29" y1="1019.82" x2="896.29" y2="1019.82" xlink:href="#linear-gradient-10"/><linearGradient id="linear-gradient-15" x1="592.73" y1="523.15" x2="592.73" y2="676.74" gradientTransform="rotate(15 2067.98 -354.114)" gradientUnits="userSpaceOnUse"><stop offset="0" stop-color="#68aa61"/><stop offset=".37" stop-color="#3e620c"/></linearGradient><linearGradient id="linear-gradient-16" x1="569.94" y1="474.93" x2="569.94" y2="683.06" xlink:href="#linear-gradient-15"/><linearGradient id="linear-gradient-17" x1="-733.23" y1="474" x2="-733.23" y2="682.13" gradientTransform="scale(-1 1) rotate(-15 -2126.757 -807.894)" xlink:href="#linear-gradient-15"/><linearGradient id="linear-gradient-18" x1="611.07" y1="521.93" x2="611.07" y2="500.43" gradientTransform="matrix(.97 .26 -.27 .97 -33.25 -549.97)" xlink:href="#linear-gradient-6"/><linearGradient id="linear-gradient-19" x1="593.42" y1="465.21" x2="593.42" y2="522.42" gradientTransform="rotate(15 2067.98 -354.114)" gradientUnits="userSpaceOnUse"><stop offset="0" stop-color="#ffd8ca"/><stop offset=".97" stop-color="#ff9676"/></linearGradient><linearGradient id="linear-gradient-20" x1="-443.77" y1="500.51" x2="-434.29" y2="500.51" gradientTransform="matrix(-.97 -.26 -.26 .97 128.49 -510)" xlink:href="#linear-gradient-4"/><linearGradient id="linear-gradient-21" x1="298.84" y1="-299.89" x2="298.84" y2="-215.42" gradientTransform="rotate(-18.2 1501.367 -36.349)" gradientUnits="userSpaceOnUse"><stop offset="0" stop-color="#437381"/><stop offset="1" stop-color="#201e1d"/></linearGradient><linearGradient id="linear-gradient-22" x1="4371.53" y1="-280.97" x2="4371.53" y2="-312.49" gradientTransform="matrix(1 0 0 -1 -4097.01 -184.14)" xlink:href="#linear-gradient-6"/><linearGradient id="linear-gradient-23" x1="4370.97" y1="-332.87" x2="4370.97" y2="-218.46" gradientTransform="matrix(-.95 .32 .32 .95 4503.83 -1036.85)" gradientUnits="userSpaceOnUse"><stop offset=".01" stop-color="#ffe0d4"/><stop offset=".36" stop-color="#ffc1ac"/><stop offset=".76" stop-color="#ffa285"/><stop offset=".97" stop-color="#ff9676"/></linearGradient><linearGradient id="linear-gradient-24" x1="293.39" y1="-302.47" x2="304.57" y2="-302.47" gradientTransform="rotate(-18.2 1501.367 -36.349)" xlink:href="#linear-gradient-4"/><linearGradient id="linear-gradient-25" x1="363.98" y1="-520.71" x2="363.98" y2="-465.03" gradientTransform="rotate(-35 1460.985 48.381)" gradientUnits="userSpaceOnUse"><stop offset=".01" stop-color="#268baa"/><stop offset=".42" stop-color="#00779b"/></linearGradient><linearGradient id="linear-gradient-26" x1="3990.76" y1="-597.07" x2="3990.76" y2="-545.79" gradientTransform="matrix(-.82 .57 .57 .82 3806.72 -1652.67)" xlink:href="#linear-gradient-19"/><linearGradient id="linear-gradient-27" x1="360.43" y1="-569.25" x2="371.83" y2="-569.25" gradientTransform="rotate(-35 1460.985 48.381)" xlink:href="#linear-gradient-4"/><linearGradient id="linear-gradient-28" x1="349.27" y1="218.37" x2="349.27" y2="304.97" xlink:href="#linear-gradient-21"/><linearGradient id="linear-gradient-29" x1="359.94" y1="226.11" x2="359.94" y2="166.49" gradientTransform="matrix(1 0 -.01 1 -11.63 2.9)" xlink:href="#linear-gradient-6"/><linearGradient id="linear-gradient-30" x1="346.57" y1="105.74" x2="346.57" y2="230.68" gradientTransform="translate(0 -.06)" xlink:href="#linear-gradient-19"/><linearGradient id="linear-gradient-31" x1="335.4" y1="163.05" x2="355.48" y2="163.05" xlink:href="#linear-gradient-4"/><clipPath id="clip-path"><path id="SVGID" class="cls-1" transform="rotate(-59.3 567.157 102.113)" d="M546.95 87.14h36.8v31.04h-36.8z"/></clipPath><clipPath id="clip-path-2"><path class="cls-1" transform="rotate(-13.93 140.008 146.042)" d="M117.61 131.09h44.73v29.89h-44.73z"/></clipPath><clipPath id="clip-path-3"><path id="SVGID-2" data-name="SVGID" class="cls-1" transform="rotate(-82.5 156.843 235.145)" d="M143.77 220.3h27.97v29.51h-27.97z"/></clipPath><style>.cls-1,.cls-32,.cls-46{fill:none}.cls-2{fill:#68aa61}.cls-10{fill:#c21d47}.cls-18{fill:#a1d1eb}.cls-21{fill:#f2b271}.cls-22{fill:#e87601;opacity:.59}.cls-23{fill:#f9bc3d}.cls-24{fill:#fcd466}.cls-25,.cls-94{fill:#201e1d}.cls-25{opacity:.07}.cls-26{fill:#ed973e}.cls-32,.cls-67{stroke:#006192}.cls-32,.cls-46,.cls-67{stroke-linecap:round;stroke-linejoin:round}.cls-32{stroke-width:14px}.cls-34{fill:#ffb299}.cls-37{fill:#bc5a21}.cls-39{fill:#86283c}.cls-107,.cls-40,.cls-65,.cls-67{fill:#fff}.cls-40{stroke:#86283c}.cls-101,.cls-40{stroke-miterlimit:10}.cls-40{stroke-width:3px}.cls-42{fill:#ffc9b8}.cls-43{fill:#6eb9e0}.cls-46{stroke:#68aa61;stroke-width:17px}.cls-49{fill:#ce8e27}.cls-50{fill:#ffc2af}.cls-67{stroke-width:2px}.cls-54{fill:#5591a8}.cls-59{fill:#e09226}.cls-60{fill:#db7f00}.cls-66{fill:#006192}.cls-101{fill:#a9dff9}.cls-79{fill:#ff9676}.cls-90{fill:#ffd6c9}.cls-98{fill:#3a3938}.cls-101{stroke:#a81b5b;stroke-width:2.75px}.cls-105{fill:#91cbf2}.cls-106{fill:#7fb679}.cls-107{opacity:.16}.cls-108{fill:#ffad94}.cls-121{fill:#7bdb86}.cls-122{fill:#3caf52}.cls-123{fill:#179933}</style></defs><g id="Layer_2" data-name="Layer 2"><g id="Layer_1-2" data-name="Layer 1"><path class="cls-2" d="M192.11 104.2a9.55 9.55 0 01-4.41-17l3.8-24.86a2.26 2.26 0 01-.75-2.15 2.13 2.13 0 012.33-1.92l11.76 1.8a2.13 2.13 0 011.65 2.53 2.29 2.29 0 01-1.49 1.89l-3.79 24.75a9.51 9.51 0 01-9.11 15zm.72-43.49l1 .16-4.22 27.55-.34.25a7.46 7.46 0 1011.65 7.23 7.32 7.32 0 00-1.58-5.75l-.3-.34 4.21-27.5 1.11.17c0-.06.08-.11.09-.17a.24.24 0 000-.18l-11.52-1.77c0 .06-.08.11-.09.17a.43.43 0 01-.01.18z"/><circle class="cls-2" cx="197.05" cy="54.65" r="1.66"/><circle class="cls-2" cx="200.81" cy="57.92" r="1.07"/><circle class="cls-2" cx="198.64" cy="72.08" r=".71"/><path d="M197.3 90.62l2.42-15.8-1.88-.29a.95.95 0 00-1.87-.28 1.24 1.24 0 10-2.46-.38l-2.42 15.86a5.67 5.67 0 108.07 6 5.74 5.74 0 00-1.86-5.11zm-2.22-11.36a.89.89 0 111-.74.87.87 0 01-1 .74zm1 4.17a.58.58 0 01-.49-.67.6.6 0 01.67-.5.61.61 0 01.5.68.53.53 0 01-.64.49z" fill="#51884d"/><path d="M74.65 252.38A23 23 0 1188.81 223a23.05 23.05 0 01-14.16 29.36z" fill="#fcdfc0"/><path d="M53.36 223.64l-7.61 15.78a23 23 0 0027.68 13.35L80.51 238z" fill="#faca96"/><path d="M72.12 245.13a15.37 15.37 0 119.44-19.58 15.37 15.37 0 01-9.44 19.58z" fill="#f69f41"/><path d="M81.56 225.55l-29 10.13v.05a15.37 15.37 0 0029-10.14z" fill="#e57b1c"/><path d="M79.77 239.24a14.89 14.89 0 001-1.63 11.82 11.82 0 00-11.33-2.93l-1.21-3.47 13.64-4.77c-.09-.29-.18-.59-.28-.89s-.22-.58-.34-.86l-13.64 4.76-1.24-3.45a11.8 11.8 0 007-9.35 16.47 16.47 0 00-1.77-.67 10 10 0 01-5.88 8.29l-2.93-8.4c-.28.08-.57.17-.85.27s-.56.2-.83.31l2.94 8.4a10 10 0 01-9.72-2.85 14 14 0 00-1 1.63 11.82 11.82 0 0011.33 2.93L65.9 230l-13.64 4.8c.09.3.18.6.28.89s.22.59.34.87l13.64-4.76 1.21 3.46a11.82 11.82 0 00-7 9.35 16.54 16.54 0 001.77.68 10 10 0 015.84-8.29l2.93 8.4c.28-.08.57-.17.85-.27s.56-.2.83-.32l-2.95-8.4a10 10 0 019.76 2.83z" fill="#e6892d"/><path d="M72.12 245.13l.83-.32-2.95-8.4a10 10 0 019.76 2.83 14.89 14.89 0 001-1.63 11.82 11.82 0 00-11.33-2.93l-1.21-3.47 13.64-4.77c-.09-.29-.18-.59-.28-.89l-29 10.13v.05c.11.3.22.59.34.87l13.64-4.76 1.21 3.46a11.82 11.82 0 00-7 9.35 16.54 16.54 0 001.77.68 10 10 0 015.8-8.33l2.93 8.4c.28-.08.57-.17.85-.27z" fill="#b56112"/><path class="cls-10" d="M467.24 51.33c1.34-2.46 2.83-4.69 4.13-6.75l1.15-1.47 4.48 2.43-.61 1.76c-1 2.21-2.09 4.66-3.43 7.13-5.37 9.85-11 17.14-12.56 16.29s1.47-9.54 6.84-19.39z"/><path fill="#ecb7c4" d="M471.37 44.58l1.14-1.47 3.25-4.17 2.96 1.61-1.75 4.99-.61 1.76-4.99-2.72z"/><path class="cls-10" d="M474 34.43c1.15-2.11 9-5.35 9-5.35a10.84 10.84 0 00-.58 1.36 10.53 10.53 0 00-.32 6.71c1 3-1.92 5.28-5.06 3.85l-.42-.21a6 6 0 01-2.47-2.45 4.06 4.06 0 01-.15-3.91z"/><path d="M474.39 35.37c.9-1.65 5.88-4 8-4.93a10.53 10.53 0 00-.32 6.71c1 3-1.92 5.28-5.06 3.85l-.42-.21a6 6 0 01-2.47-2.45 3.87 3.87 0 01.27-2.97z" fill="#d05172"/><path fill="#f8e6eb" d="M464 38.84l-2.16-1.17-13.1-1.13 8.05 10.4 2.15 1.18 5.06-9.28z"/><path d="M489.5 60.76l1.68-3.09.55-1a2.37 2.37 0 00-.94-3.22l-29-15.77-2.76.5 1.08 2.59-2.76.5 1.07 2.59-2.76.5 1.08 2.59 28.94 15.77a2.37 2.37 0 003.22-.94z" fill="#fcd462"/><path fill="#e59eb0" d="M491.18 57.67l-31.02-16.91-2.76.5 1.07 2.59 31.03 16.91 1.68-3.09z"/><path d="M490.79 53.44l-29-15.77-2.76.5 1.08 2.59 31 16.91.55-1a2.37 2.37 0 00-.87-3.23zM489 61.77l.55-1-31-16.91-2.76.5 1.08 2.59 28.94 15.77a2.37 2.37 0 003.19-.95z" fill="#de839a"/><path class="cls-10" d="M451.87 40.58l-3.13-4 5.09.44a4.44 4.44 0 01-2 3.6zm28.97 19.47l4.89 2.66a2.37 2.37 0 003.22-.94l2.79-5.11a2.38 2.38 0 00-.95-3.22l-4.9-2.67z"/><g clip-path="url(#clip-path)"><path class="cls-18" d="M547.91 113.39c2.57 1.51 5.29 0 6.48-1.1l.06-.06c3.22-3.32 8.32-8.58 12-12.39l3.94 2.32a1.56 1.56 0 001.61-2.69l-3.28-1.93c1.18-1.2 2-2.05 2.33-2.33l.34-.31c1.25-1.18 4.19-3.94 5.7-3.05s.34 3.1.28 3.21a1.56 1.56 0 002.81 1.37c.84-1.71 1.6-5.44-1.51-7.27-3.52-2.07-7.5 1.67-9.42 3.46l-.32.3c-.38.36-1.5 1.48-3 3l-4.71-2.77a1.56 1.56 0 00-1.58 2.69l4 2.38c-4.68 4.78-10.8 11.11-11.48 11.81-.2.17-1.63 1.34-2.76.68-1.72-1-1-3.87-1-3.89a1.56 1.56 0 10-3-.77c-.48 1.9-.51 5.59 2.48 7.35z"/></g><path class="cls-18" d="M569.88 121.65a1.64 1.64 0 002.32-.6 2.12 2.12 0 00.19-1.51l-.91-4.85 4.58-1.57a2 2 0 001.07-.83 1.61 1.61 0 00-.67-2.24 2.07 2.07 0 00-1.85 0l-3.72 1.51-.45-4a2.09 2.09 0 00-1-1.69 1.64 1.64 0 00-2.31.6 2.1 2.1 0 00-.19 1.52l.83 4.53-4.83 1.69a1.86 1.86 0 00-1.08.83 1.62 1.62 0 00.67 2.24 2.07 2.07 0 001.85 0l4-1.63.51 4.28a2.1 2.1 0 001 1.68z"/><g clip-path="url(#clip-path-2)"><path class="cls-18" d="M120.69 151.76l1.8-.45 12 10.47a2.3 2.3 0 002 .49 2.86 2.86 0 00.41-.15 2.28 2.28 0 001.32-2.1l-.38-24.26L157 131a2.28 2.28 0 00-1.09-4.42l-20.8 5.16a2.26 2.26 0 00-1.72 2.24l.33 21-9.1-7.9a2.26 2.26 0 00-2-.49l-2.94.73a2.28 2.28 0 001.09 4.42z"/></g><path class="cls-18" d="M145.51 155.56a2 2 0 002.49 1.38 2.58 2.58 0 001.6-1.58l2.08-4.81 4.08 3.29a2.56 2.56 0 002.3.61 2 2 0 001.5-2.49 2.56 2.56 0 00-1.12-1.48l-4.91-3.48 2.63-5.25a2.34 2.34 0 00.23-1.63 2 2 0 00-2.49-1.38 2.57 2.57 0 00-1.61 1.58l-1.94 4.48-3.76-3.07a2.56 2.56 0 00-2.3-.61 2 2 0 00-1.5 2.49 2.59 2.59 0 001.12 1.48l4.59 3.22-2.77 5.59a2.24 2.24 0 00-.22 1.63z"/><path d="M538.69 140.62h6.9a2.76 2.76 0 012.76 2.76v36.13h-12.42v-36.13a2.76 2.76 0 012.76-2.76z" fill="#ec8d2c"/><path class="cls-21" d="M539.07 147.39h6.12v6.01h-6.12z"/><path class="cls-22" d="M547.14 140.62h-4.77v38.89h6V142a1.29 1.29 0 00-1.23-1.38z"/><path class="cls-23" d="M570.51 145.4h6.9a2.76 2.76 0 012.76 2.76v36.13h-12.42v-36.13a2.76 2.76 0 012.76-2.76z" transform="rotate(-25.52 573.938 164.838)"/><path class="cls-24" transform="rotate(-25.52 569.762 156.116)" d="M566.73 153.11h6.12v6.01h-6.12z"/><path class="cls-25" d="M570.1 145.14l-4.31 2.06 16.75 35.09 5.39-2.57-16.17-33.87a1.27 1.27 0 00-1.66-.71z"/><path class="cls-23" d="M584 145.4h6.9a2.76 2.76 0 012.76 2.76v36.13h-12.38v-36.13a2.76 2.76 0 012.72-2.76z" transform="rotate(-25.52 587.448 164.833)"/><path class="cls-24" transform="rotate(-25.52 583.272 156.112)" d="M580.25 153.11h6.12v6.01h-6.12z"/><path class="cls-25" d="M583.62 145.14l-4.31 2.06 16.76 35.09 5.39-2.57-16.17-33.87a1.28 1.28 0 00-1.67-.71z"/><path class="cls-26" d="M550.91 133h8.24a3.29 3.29 0 013.29 3.29v43.18h-14.82v-43.13a3.29 3.29 0 013.29-3.34z"/><path class="cls-21" d="M551.37 141.13h7.31v14.27h-7.31z"/><path class="cls-22" d="M561 133h-5.71v46.47h7.13v-44.81A1.53 1.53 0 00561 133z"/><circle cx="555.13" cy="172.29" r="3.06" fill="#ce741d"/><circle cx="555.13" cy="172.29" r="1.97" fill="#c86301"/><path d="M528.44 149.06h5.4a2.16 2.16 0 012.16 2.16v28.29h-9.72v-28.29a2.16 2.16 0 012.16-2.16z" fill="#f2b16e"/><path class="cls-26" d="M528.74 155.11h4.79v10.31h-4.79z"/><path d="M535.06 149.06h-3.74v30.45H536v-29.39a1 1 0 00-.94-1.06z" fill="#e87906" opacity=".47"/><path d="M519.27 180H616a8.22 8.22 0 01-8.22 8.22h-80.29a8.22 8.22 0 01-8.22-8.22z" fill="#fed9ae"/><path class="cls-32" d="M130.81 241.75v32.83l16.16 2.34"/><path d="M162.51 278.61l-6.3-6.76a1.49 1.49 0 00-.58-.39 6.48 6.48 0 00-3-2.42 6.56 6.56 0 10.41 12l2.08 2.43a2 2 0 002.74-.15 2 2 0 00.63-2.57l.8.85a2.06 2.06 0 002.88-.1 2 2 0 00.34-2.89z" fill="#ffd8ca"/><rect class="cls-34" x="93.47" y="203.53" width="4.98" height="13.63" rx="2.49" ry="2.49" transform="rotate(-4.3 95.995 210.463)"/><rect class="cls-34" x="133.72" y="203.53" width="4.98" height="13.63" rx="2.49" ry="2.49" transform="rotate(3.79 136.319 210.62)"/><path d="M134.6 249.37c2.15-7.86 1.66-15.26-7-15.81h-22.71c-7.09 0-11.34 3.23-13 10.13v41.65h32.17z" fill="url(#linear-gradient)"/><path d="M122.93 247.25l-10.74-7.77a8.08 8.08 0 01-3.34-6.69l.26-14.3 13.82-.3z" fill="url(#linear-gradient-2)"/><ellipse class="cls-37" cx="132.19" cy="197.27" rx="7.92" ry="7.46"/><ellipse class="cls-37" cx="100.46" cy="196.94" rx="7.92" ry="7.46"/><path d="M135.55 189.06v24.61c0 8.78-7.11 17-15.56 18.87a25.48 25.48 0 01-7.95 0 20 20 0 01-15.17-18.87v-24.61a6 6 0 015.9-6.13h26.88a6 6 0 015.9 6.13z" fill="url(#linear-gradient-3)"/><path class="cls-37" transform="rotate(-180 134.35 193.395)" d="M132.77 182h3.16v22.79h-3.16z"/><path class="cls-37" transform="rotate(-180 98.17 193.235)" d="M96.59 182h3.16v22.46h-3.16z"/><rect class="cls-39" x="95.33" y="201.5" width="8.91" height="3.74" rx="1.87" ry="1.87" transform="rotate(-180 99.78 203.375)"/><rect class="cls-39" x="111.3" y="197.81" width="8.91" height="3.74" rx="1.87" ry="1.87" transform="rotate(-180 115.755 199.685)"/><rect class="cls-39" x="127.67" y="202.14" width="8.91" height="3.74" rx="1.87" ry="1.87" transform="rotate(-180 132.12 204.01)"/><path class="cls-40" d="M123 198.73h2.76a5.94 5.94 0 015.94 5.94v4.1a1 1 0 01-1 1h-8.48a5.12 5.12 0 01-5.12-5.12 5.94 5.94 0 015.9-5.92z" transform="rotate(-180 124.42 204.265)"/><path class="cls-40" d="M104.32 198.73h8.48a1 1 0 011 1v4.1a5.94 5.94 0 01-5.94 5.94h-2.76a5.94 5.94 0 01-5.94-5.94 5.12 5.12 0 015.12-5.12z"/><ellipse class="cls-37" cx="99.84" cy="185.35" rx="8.83" ry="8.31"/><ellipse class="cls-37" cx="132.38" cy="184.85" rx="8.82" ry="8.3"/><ellipse class="cls-37" cx="122.65" cy="176.01" rx="7.92" ry="7.46"/><ellipse class="cls-37" cx="109.89" cy="176.01" rx="7.92" ry="7.46"/><ellipse class="cls-37" cx="119.94" cy="182.11" rx="7.82" ry="7.36"/><ellipse class="cls-37" cx="110.94" cy="182.11" rx="7.82" ry="7.36"/><path class="cls-32" d="M98.12 242.31l-13.85 33.31h21.19"/><path class="cls-39" d="M109.82 204.85a1.79 1.79 0 00.09-.57 2.88 2.88 0 00-5.67 0 2.12 2.12 0 00.08.57zm17.36-.05a2.12 2.12 0 00.08-.57 2.88 2.88 0 00-5.67 0 1.79 1.79 0 00.09.57zm-18.55 15.97v.12c0 2.83 3.27 5.12 7.32 5.12s7.32-2.29 7.32-5.12v-.12z"/><path d="M116.9 224a15.63 15.63 0 00-3.74.81 9.14 9.14 0 00-1.08.45 9.75 9.75 0 003.92.74 9.07 9.07 0 005.23-1.54 10.21 10.21 0 00-4.33-.46z" fill="url(#linear-gradient-4)"/><rect class="cls-42" x="110.83" y="271.81" width="14.51" height="4.2" rx="2.1" ry="2.1" transform="rotate(25.04 118.1 273.928)"/><circle class="cls-42" cx="110.89" cy="275.29" r="6.32"/><rect class="cls-42" x="107.55" y="274.66" width="14.51" height="4.2" rx="2.1" ry="2.1" transform="rotate(27.14 114.795 276.786)"/><rect class="cls-43" x="99.49" y="283.49" width="21.74" height="4.99" rx="2.5" ry="2.5"/><path class="cls-43" d="M164.07 290.7l10.45-29.39a5.36 5.36 0 00-5.05-7.15h-44.19a5.37 5.37 0 00-5 3.56l-11.71 33z"/><path d="M111.94 290.72l13.28-36.6v.07a5.36 5.36 0 00-5 3.56l-11.72 33z" fill="#86c5e5"/><path d="M119.62 271.64h51.09l5.06 12.08c.68 2.11-.17 4.09-2.39 4.09l-44.93-.26c-1.59 0-3.38-1.76-4.37-3.83z" fill="#a2d2eb"/><path class="cls-46" d="M590.82 252.28l-16.61 31.16h-17.79"/><path d="M583.87 285.47h47.48c-3-9.73-4.21-19.45 0-29.17a13.83 13.83 0 00-13.85-13.81h-19.78a13.83 13.83 0 00-13.85 13.81c3.9 9.21 4.81 18.81 0 29.17z" fill="url(#linear-gradient-5)"/><path d="M608.66 228.47a6.93 6.93 0 016.93 6.93v17.86h-13.86v-17.87a6.93 6.93 0 016.93-6.92z" transform="rotate(180 608.66 240.86)" fill="url(#linear-gradient-6)"/><path class="cls-49" d="M656.43 230.33S653 222 645.26 217.42s-15.2-6.1-16.74-3.5 3.47 8.38 11.18 12.92 16.73 3.49 16.73 3.49zm-92.43 0s3.47-8.38 11.18-12.91 15.2-6.1 16.74-3.5-3.47 8.38-11.18 12.92-16.74 3.49-16.74 3.49z"/><path class="cls-49" d="M609.31 223.34v.23c12.57 0 22.86-4.15 22.86-16.26v-12.85c0-11.9-10.11-21.63-22.47-21.63h-.79c-12.36 0-22.47 9.73-22.47 21.63v12.85c0 12.11 10.29 16.03 22.87 16.03z"/><rect class="cls-50" x="624.61" y="209.59" width="4.67" height="12.48" rx="2.34" ry="2.34" transform="rotate(-171.91 626.96 215.813)"/><rect class="cls-50" x="589.14" y="209.59" width="4.67" height="12.48" rx="2.34" ry="2.34" transform="rotate(-8.09 591.23 215.761)"/><path d="M606.25 238.54a6.41 6.41 0 005.77.08c4.81-2.36 13.92-6.79 13.92-19.15v-20.63a16.47 16.47 0 00-16.44-16.4h-.39a16.47 16.47 0 00-16.44 16.4v20.63c0 11.86 8.87 16.59 13.58 19.07z" fill="url(#linear-gradient-7)"/><path d="M620.6 206.78c-1.23-2.37-4.9-3.27-7.58-2m-8.49.15a6.07 6.07 0 00-7.8 1" stroke-width="2" stroke="#86283c" stroke-linecap="round" stroke-linejoin="round" fill="none"/><path d="M627.13 181c9.13 24.37-17 20.56-17 20.56l.23-11.13c-3.47 7.71-10.59 12.21-23.81 14.91-.7-12.69.44-20 3.69-24.26 14.2-16.5 32.61-6.48 36.89-.08z" fill="#d6a04a"/><path class="cls-54" d="M491.33 200h76.5a5.33 5.33 0 015.33 5.32v47.47a5.33 5.33 0 01-5.33 5.32h-76.5a5.33 5.33 0 01-5.33-5.32v-47.52a5.33 5.33 0 015.33-5.27z"/><path d="M566.13 200h1.7a5.33 5.33 0 015.33 5.32v47.47a5.33 5.33 0 01-5.33 5.32h-1.7z" fill="#77a7b9"/><path d="M510.53 222.93h29.13v50.19a12.74 12.74 0 01-12.74 12.74h-3.65a12.74 12.74 0 01-12.74-12.74v-50.19z" transform="rotate(180 525.095 254.4)" fill="url(#linear-gradient-8)"/><path class="cls-54" d="M536.17 224.88a6.66 6.66 0 013.45 5.84v55.14h-3.45z"/><path class="cls-46" d="M624.63 251.89l14.23 31.55h-21.75"/><path class="cls-39" d="M612.78 211.28a2.53 2.53 0 01-.1-.67 3.38 3.38 0 016.66 0 2.53 2.53 0 01-.1.67zm-15.09-.06a2.07 2.07 0 01-.1-.66 3.38 3.38 0 016.65 0 2.39 2.39 0 01-.1.66zM618 224.45v.15c0 3.31-3.85 6-8.59 6s-8.59-2.68-8.59-6v-.15z"/><path d="M608.34 228.22a18.6 18.6 0 014.39.94 10.53 10.53 0 011.26.53 11.47 11.47 0 01-4.53.9 10.67 10.67 0 01-6.14-1.8 11.88 11.88 0 015.02-.57z" fill="url(#linear-gradient-9)"/><path class="cls-42" d="M598.74 284.24l10.32-4.81a2.32 2.32 0 001.12-3.07 2.33 2.33 0 00-3.08-1.11l-10.32 4.81a2.31 2.31 0 00-1.12 3.07 2.33 2.33 0 003.08 1.11z"/><ellipse class="cls-42" cx="610.86" cy="281.27" rx="6.98" ry="6.96"/><path class="cls-42" d="M602.53 287.53l10.14-5.18a2.32 2.32 0 001-3.11 2.32 2.32 0 00-3.11-1l-10.14 5.18a2.31 2.31 0 00-1 3.11 2.32 2.32 0 003.11 1zm-58.92-3.88l9.83-4a2.11 2.11 0 001.15-2.74 2.12 2.12 0 00-2.75-1.15l-9.83 4a2.1 2.1 0 00-1.16 2.74 2.12 2.12 0 002.76 1.15z"/><path class="cls-42" d="M549.17 284.65a6.36 6.36 0 1111.21 0z"/><path class="cls-42" d="M546.54 288.07l9.44-6.68a2.1 2.1 0 00.5-2.93 2.12 2.12 0 00-2.94-.5l-9.44 6.68a2.1 2.1 0 00-.51 2.93 2.12 2.12 0 002.95.5z"/><rect x="549.78" y="281.42" width="10.83" height="4.09" rx="2.04" ry="2.04" transform="rotate(180 555.195 283.465)" fill="#ffb49c"/><g id="Lehrerin_2" data-name="Lehrerin 2"><path class="cls-59" d="M530.24 112c-3.7 3.82-9 5.18-14.61 2s-7.29-8.55-5.59-13.65c2.48-7.41 9.47-6 15.05-2.81s10.7 8.74 5.15 14.46z"/><path class="cls-60" d="M527.73 113c-2.87 2.9-7.1 3.84-11.6 1.24s-6-6.76-4.71-10.67c1.84-5.7 7.43-4.51 11.93-1.9s8.65 7.02 4.38 11.33z"/><path d="M511.67 154.63a1.66 1.66 0 01-.25-2.44l6.64-6.24a2 2 0 012.65.17 1.65 1.65 0 01.24 2.43l-6.63 6.24a2 2 0 01-2.65-.16zm-30.39-17.43a2 2 0 01-1.48-2.2l2-8.89a1.63 1.63 0 012.22-1 2 2 0 011.48 2.22l-2 8.88a1.65 1.65 0 01-2.22.99z" fill="#ffcbba"/><path class="cls-60" d="M480.8 139.4c1.07-7.18 4.24-15.27 8.28-23.73a15.2 15.2 0 0121.69-7.41l12.13 7a15.2 15.2 0 014 22.91 86.73 86.73 0 01-16.64 17.7z"/><path d="M498 174.26l-25.63-16.06-10-1.4c-5.41-.75-11.49 2.65-11.68 8.1-.48 13.6-18.33 51.43-28.39 59l46.26 26.77c-1.54-14.31 21.83-47.6 33.45-54.29 4.62-2.66 4.65-9.52 1.64-13.92z" fill="url(#linear-gradient-10)"/><path d="M476.91 181.25s-4.17-13.27-1.11-18.42L484 149l16.94 9.81-8.16 13.82c-3.1 5.15-15.87 8.62-15.87 8.62z" fill="url(#linear-gradient-11)"/><path d="M491.73 163.52a8.35 8.35 0 01-7.33-4.28c-3.08-5.54-5.71-18-1.3-25.31l5.07-9.81a15.25 15.25 0 0120.83-5.53l5 2.91a15.28 15.28 0 015.54 20.8l-6.07 8.9c-5.16 8.8-15.65 12.32-21.74 12.32z" fill="url(#linear-gradient-12)"/><path class="cls-65" d="M479.52 156.33l-8.42 1.86-7.34 29.67 13.19-7.66 2.57-23.87z"/><path class="cls-65" d="M496.13 166.67l-20.36 13.41 2.46 15.17 20.35-20.66-2.45-7.92z"/><path class="cls-66" d="M488.83 130.73l-3.8-2.2.66-4.18 5.11 2.96-1.97 3.42z"/><path class="cls-66" transform="rotate(30.06 502.178 136.168)" d="M499.22 135.04h5.91v2.26h-5.91z"/><path class="cls-67" d="M495.19 139.15l-7.81-4.6a2.56 2.56 0 01-.83-3.51l1.87-3.09a2.18 2.18 0 012.93-.88l7.55 4.37a3.43 3.43 0 011.1 4.71l-1.09 1.85a2.75 2.75 0 01-3.72 1.15z"/><path class="cls-66" d="M514.61 145.87l3.18 1.84 3.91-2.29-5.11-2.96-1.98 3.41z"/><path class="cls-67" d="M507.3 138.21h5.24a4 4 0 014 4 4.55 4.55 0 01-4.55 4.55h-6.49a3.12 3.12 0 01-3.12-3.12v-.49a4.92 4.92 0 014.92-4.94z" transform="rotate(-149.94 509.45 142.478)"/><path d="M495.91 136.17a1.32 1.32 0 00.34-.4c.6-1-.14-2.59-1.65-3.46s-3.23-.75-3.83.29a1.48 1.48 0 00-.17.5zm15.33 8.88a1.65 1.65 0 00.35-.4c.6-1-.14-2.59-1.66-3.47s-3.22-.74-3.82.29a1.58 1.58 0 00-.18.5z" fill="#a9dff9"/><path d="M498.39 187.26l6.71 41.04 25.03-2.71m-72.68-61.73l-25.73 26-23.99-4.59" stroke="#e87601" stroke-width="14" stroke-linecap="round" stroke-linejoin="round" fill="none"/><path class="cls-59" d="M517.46 118.85a29.52 29.52 0 00-3.85.67 12 12 0 011.39 13.93 12.24 12.24 0 01-2.18 2.73 11.93 11.93 0 004.6-17.33z"/><path class="cls-39" d="M487.73 147l-.07.11c-1.44 2.5.28 6.2 3.86 8.27s7.64 1.72 9.09-.78l.06-.11z"/><path d="M493.4 154.11a16 16 0 00-3.72-1.21 11.53 11.53 0 00-1.18-.15 9.84 9.84 0 003 2.66 9.25 9.25 0 005.41 1.32 10.31 10.31 0 00-3.51-2.62z" fill="url(#linear-gradient-13)"/><ellipse class="cls-59" cx="514.01" cy="116.78" rx="6.83" ry="17.61" transform="rotate(-59.94 514.02 116.781)"/><path fill="url(#linear-gradient-14)" d="M468.66 250.42l-46.51-26.92"/></g><rect x="528.65" y="213.04" width="12.91" height="3.98" rx="1.52" ry="1.52" transform="rotate(-65.53 535.07 215.03)" fill="#efc4bd"/><path class="cls-42" d="M534.09 216.45h4.15a6.19 6.19 0 016.19 6.19v1.43a6.19 6.19 0 01-6.19 6.19h-4.15a4.33 4.33 0 01-4.33-4.33v-5.14a4.33 4.33 0 014.33-4.34z" transform="rotate(29.1 537.104 223.349)"/><g id="Lehrerin_1" data-name="Lehrerin 1"><path d="M431.79 115l20.33-51.36a21 21 0 00-14.85-25.6 21 21 0 00-25.6 14.85l-17.59 52.38z" fill="#775429"/><path d="M404.55 150.69c-41.06-8.76-41.47-47.51-9.64-45M477 89.07c-5.49 20.27-17.18 42.84-38.53 26.7" stroke="#68aa61" stroke-width="14" stroke-linecap="round" stroke-linejoin="round" fill="none"/><path d="M417.37 217.24c4.68-10.46 4.52-23.85 2.86-28.45L375 176.33c-9.13 8.51-9.75 15.77-11.43 26.17z" fill="#bb890e"/><path d="M420.57 189.17C415 161.19 433.33 134 444.45 114c-8.54-16.22-42.8-20.77-53.81-14.3.64 27.89.75 55.4-16.49 76.74z" fill="url(#linear-gradient-15)"/><path d="M379.41 209.54l29.9-112.49c-7.77-.38-19.09-.62-23.16 2.12-.26 31.25-12.43 79.44-30.51 103.92z" fill="url(#linear-gradient-16)"/><path d="M397.68 213.43l29.9-112.49c6.93 3.53 16.87 8.94 19.05 13.35-15.29 27.25-28.65 75.12-25.11 105.35z" fill="url(#linear-gradient-17)"/><rect class="cls-79" x="410.19" y="63.39" width="3.62" height="9.83" rx="1.81" ry="1.81" transform="rotate(8.23 411.764 68.247)"/><rect class="cls-79" x="440.15" y="72.39" width="3.62" height="9.83" rx="1.81" ry="1.81" transform="rotate(21.51 441.882 77.277)"/><path d="M417.72 107.5c-3.72-1-5.7-5.49-4.44-10l2.65-9.58 13.46 3.58-2.67 9.5c-1.26 4.58-5.29 7.48-9 6.5z" fill="url(#linear-gradient-18)"/><path d="M418.65 48q-.28.78-.51 1.65l-6.11 23c-2.54 9.57 1.75 19.1 9.53 21.16l.34.09c7.78 2.07 16.23-4.06 18.78-13.63l6.1-23c.16-.59.28-1.15.38-1.7z" fill="url(#linear-gradient-19)"/><path d="M426 70.16a1.8 1.8 0 00.24-.55 3 3 0 00-5.75-1.53 2.46 2.46 0 00-.07.6zm12.84 3.55a2.56 2.56 0 00.24-.56 3 3 0 00-5.75-1.53 1.76 1.76 0 00-.07.6z" fill="#704e32"/><path class="cls-65" d="M414 95.15c.39 1.09 4 12 4 12l-6.72 4.49-1.67-14.28z"/><path class="cls-65" d="M427.27 99.11l-9.51 8.02 3.6 7.24 8.52-11.53-2.61-3.73z"/><path class="cls-39" d="M433.43 84.38v.13c-.76 2.85-4.68 4.28-8.75 3.2s-6.76-4.27-6-7.12v-.12z"/><path d="M424.24 85.41a16.06 16.06 0 013.55 1.81 8.67 8.67 0 011 .75 10.17 10.17 0 01-4.1-.26 9.39 9.39 0 01-4.86-3 10.63 10.63 0 014.41.7z" fill="url(#linear-gradient-20)"/><path d="M413.38 55.58c.24 1.59-3.66 32.42-3.66 32.42l17.22-50c-6.94 2.08-12.88 5.87-13.56 17.58z" fill="#936a3a"/><ellipse cx="436.93" cy="53.13" rx="13.7" ry="18.08" transform="rotate(-48.44 436.91 53.14)" fill="#8e6642"/><path class="cls-42" d="M476.52 71.87h10.08a7.36 7.36 0 017.4 7.36 7.36 7.36 0 01-7.36 7.36h-10.12a5.15 5.15 0 01-5.15-5.15V77a5.15 5.15 0 015.15-5.15z" transform="rotate(-52.28 482.682 79.222)"/><rect class="cls-42" x="467.58" y="77.12" width="16.99" height="4.36" rx="2.18" ry="2.18" transform="rotate(-93.86 476.1 79.291)"/></g><g id="Lehrer_1" data-name="Lehrer 1"><path class="cls-66" d="M334.17 197.4l-47.09 16.16-8.29-17.32 50.24-17.23 5.14 18.39z"/><path d="M258.55 125.21c-31.87 19.48-37.93-15.9-38.89-27.43" stroke-width="16" stroke="#437381" stroke-linecap="round" stroke-linejoin="round" fill="none"/><path d="M279.38 200.43L331 182.72l-21.08-68.93a16.43 16.43 0 00-20.87-10.21l-27 9.26a16.43 16.43 0 00-10.21 20.88z" fill="url(#linear-gradient-21)"/><path d="M274.51 93.16a12.51 12.51 0 0112.49 12.5v14.56h-25v-14.56a12.51 12.51 0 0112.51-12.5z" transform="rotate(161.06 274.51 106.703)" fill="url(#linear-gradient-22)"/><path d="M285.39 100c-.44 1.71-4.28 18.73-4.28 18.73l10.44 6.34.61-22.07zm-23.98 8.65l14.99 11.52-4.35 11.41-13.99-16.99 3.35-5.94z" fill="#437381"/><rect class="cls-90" x="283.29" y="69.53" width="4.71" height="13.45" rx="2.35" ry="2.35" transform="rotate(176.5 285.644 76.25)"/><rect class="cls-90" x="245.49" y="82.68" width="4.71" height="13.45" rx="2.35" ry="2.35" transform="rotate(153.21 247.843 89.402)"/><path class="cls-39" d="M235.14 59.64c-.82-2.38-.79-6.49.66-8.51a10 10 0 015.68-5l23-7.9a10 10 0 018.07.72 11.41 11.41 0 015.2 6l7.41 32.57L276.53 53a10 10 0 01-5.42 4.51l-23 7.9a9.88 9.88 0 01-7.19-.3l8.28 25.26z"/><path d="M277 52.69l8.6 25c3.19 9.31-.36 20.22-8.33 23l-7.51 2.58c-8 2.73-17.47-3.69-20.66-13l-8.59-25c-1.24-3.59.26-7.36 3.33-8.41l25.37-8.71c3.04-1.1 6.53.96 7.79 4.54z" fill="url(#linear-gradient-23)"/><path d="M277.99 45.53l7.19 32.06-9.46-27.32 2.27-4.74zm-37.91 17.19l9.1 27.64-13.96-30.51 4.86 2.87z" fill="#9f5565"/><rect class="cls-39" x="246.58" y="68.54" width="10.09" height="2.67" rx="1.34" ry="1.34" transform="rotate(147.16 251.623 69.864)"/><rect class="cls-39" x="265.77" y="61.85" width="10.09" height="2.67" rx="1.34" ry="1.34" transform="rotate(173.41 270.814 63.184)"/><path class="cls-39" d="M255.46 90.81c3.78-3.63 2.64-8.18 5.83-9.88a5 5 0 007.48-2.56c3.2-.53 4.85 3.06 10.38 4.47-4.49 1.7-9.41 3.18-12.59 1.34-.96 2.82-6.56 5.82-11.1 6.63zm3.35-41.87l-7.73 11.12s.8-6.32.54-6.12-5.55 5.64-5.55 5.64l2.41-6.77 10.26-4.4m2.24-8.94l-31.66 10.86 8.53 1.95 23.13-12.81z"/><path class="cls-39" d="M264 38.44s-30.6 6.8-30 7.11 6.92 4.7 6.92 4.7zm-4.59 37.61a2.36 2.36 0 00-.14-.74c-.55-1.63-2.58-2.41-4.52-1.74a3.47 3.47 0 00-2.51 4.15 3.28 3.28 0 00.35.67zm16.01-5.56a2.36 2.36 0 00-.14-.74c-.55-1.63-2.58-2.4-4.52-1.74a3.47 3.47 0 00-2.51 4.15 3 3 0 00.35.67zM260.36 93.8s0 .1.05.14c1.13 3.29 5.85 4.65 10.55 3s7.59-5.58 6.46-8.86a.88.88 0 00-.05-.15z"/><path d="M271.26 94.24a19.25 19.25 0 00-4 2.42 12 12 0 00-1.07 1A11.89 11.89 0 00271 97a11.11 11.11 0 005.47-3.88 12.58 12.58 0 00-5.21 1.12z" fill="url(#linear-gradient-24)"/></g><path class="cls-42" d="M211.24 78.33h11.16a6.83 6.83 0 016.83 6.83v1.17a6.83 6.83 0 01-6.83 6.83h-11.16a4.78 4.78 0 01-4.78-4.78v-5.27a4.78 4.78 0 014.78-4.78z" transform="rotate(-95.16 217.84 85.75)"/><rect class="cls-42" x="214.84" y="87.19" width="17.12" height="4.4" rx="2.03" ry="2.03" transform="matrix(.59 -.8 .8 .59 18.83 216.07)"/><g id="Lehrerin_3" data-name="Lehrerin 3"><path class="cls-94" d="M176.27 162.44c12.24 14.5 27.86 23.64 40.9 14.19 11.26-8.15 9.53-25.7.73-42.47-13.81-26.29-29-21.79-40.46-14S159 142 176.27 162.44z"/><path d="M230.09 196.64s-16.81-9.67-19.17-13.15l-10.62-15.41 13.61-9.51L224.53 174c2.36 3.47 5.56 22.64 5.56 22.64z" fill="#298cab"/><path d="M281.24 224.4c20.11-34.3-7.6-55.91-36.69-49.34" stroke-width="12" stroke="#268baa" stroke-linecap="round" stroke-linejoin="round" fill="none"/><path class="cls-66" d="M315.74 266c-5.55-11.5-17.05-21-22.16-22.89l-43.13 29.56"/><path d="M294.15 243.06c-27.8-15.39-37.75-50.5-46.81-74.37-20-4.4-48.45 21.49-50.86 35.52 24.19 19.49 47.69 39.18 53.45 69.19z" fill="url(#linear-gradient-25)"/><path class="cls-98" d="M205.62 118.64c9.85 5.79 19.3 28 23.67 40.06l-16.36-14.88z"/><rect class="cls-79" x="215.25" y="136.69" width="4.35" height="11.83" rx="1.88" ry="1.88" transform="rotate(159.89 217.421 142.61)"/><rect class="cls-79" x="182.52" y="159.55" width="4.35" height="11.83" rx="1.88" ry="1.88" transform="rotate(-49.75 184.685 165.461)"/><path d="M180.35 158.52c9.81 14 24.88 20.48 33.65 14.36s7.92-22.49-1.89-36.54S190.74 120.89 182 127s-11.47 17.46-1.65 31.52z" fill="url(#linear-gradient-26)"/><path d="M194 150.34c1.31-2.43 3.64-3.94 6.76-4.72A1.15 1.15 0 00201 144a1.15 1.15 0 00-1.6-.29 10.54 10.54 0 00-6.76 4.73 1.13 1.13 0 00-.28 1.59 1.14 1.14 0 001.64.31z" fill="#a81b5b"/><path class="cls-94" d="M166.32 144.82a182.9 182.9 0 0010.24 23.34l-2.2-12.16z"/><circle class="cls-101" cx="206.23" cy="141.79" r="8.92" transform="rotate(-80.25 206.25 141.79)"/><circle class="cls-101" cx="187.95" cy="154.57" r="8.92" transform="rotate(-80.25 187.965 154.566)"/><path class="cls-66" d="M202.78 146a2.39 2.39 0 01-.46-.49 3.34 3.34 0 015.39-3.76 2.19 2.19 0 01.3.59zm-14.97 10.45a2.39 2.39 0 01-.46-.49 3.34 3.34 0 015.4-3.76 2.22 2.22 0 01.29.6z"/><path class="cls-98" d="M172.49 120c2.77-7 13.53-9.9 24-6.38s16.75 12.1 14 19.14c-10.28 6.95-26.89-.2-26.89-.2l8.93 7.92a29 29 0 01-6-1.34C176 135.58 169.71 127 172.49 120z"/><path class="cls-39" d="M198.39 166.55l.09.13c2 2.91 7 2.91 11.2 0s5.88-7.61 3.85-10.52a1.47 1.47 0 01-.1-.13z"/><path d="M209.2 163.92a19.08 19.08 0 00-3.26 3.51 10.45 10.45 0 00-.79 1.24 12.43 12.43 0 004.53-2 11.35 11.35 0 004.27-5.35 12.87 12.87 0 00-4.75 2.6z" fill="url(#linear-gradient-27)"/><path d="M160.56 189.77c14.1 30.82 29.83 36.71 43.57 13.16" stroke="#268baa" stroke-width="14" stroke-linecap="round" stroke-linejoin="round" fill="none"/><rect x="152.64" y="169.98" width="16.88" height="4.43" rx="1.91" ry="1.91" transform="rotate(-101.24 161.073 172.192)" fill="#e8b7ac"/><path class="cls-42" d="M151.29 172.29h5.94a7.78 7.78 0 017.78 7.78v2.48a7.78 7.78 0 01-7.78 7.78h-5.95a5.45 5.45 0 01-5.45-5.45v-7.15a5.45 5.45 0 015.45-5.45z" transform="rotate(173.41 155.44 181.313)"/></g><path class="cls-105" d="M202.86 252.73h.32a141.91 141.91 0 012-14.24H205a142.79 142.79 0 013.54-14c1.14-3.72 2.46-7.34 3.87-10.9h.13a143 143 0 01102-87.14 142.84 142.84 0 00-111.67 159.62h.73a141.06 141.06 0 01-.74-33.34zm234.5-56.56v28.15a11.93 11.93 0 01-11.7 14.55h-12a12 12 0 01-3.92-23.26v-9.53l-47 47.07h25.8a16.69 16.69 0 0116.64 16.64v16.28h80.67a143.31 143.31 0 00-30.75-110.26c5.76 7.63 10.65 14.76 13.63 20.79zM315 126.31l1.26-.27z"/><path class="cls-106" d="M388.57 253.15h-25.8l-32.85 32.92h75.29v-16.28a16.69 16.69 0 00-16.64-16.64zm-185.39-.42h-.32a141.06 141.06 0 00.74 33.34h.4a142.16 142.16 0 01-.82-33.34zm9.2-39.18c-1.41 3.56-2.73 7.18-3.87 10.9a142.79 142.79 0 00-3.54 14h.26a144 144 0 017.28-24.94zm242.72-37.74c-1.47-1.95-3-3.94-4.58-5.95-.73-.8-1.49-1.59-2.24-2.37l-.27.27q3.71 3.9 7.09 8.05z"/><path class="cls-106" d="M409.75 206.08v9.53a12 12 0 003.92 23.26h12a11.93 11.93 0 0011.7-14.55v-28.15l31.37.43c-3-6-7.87-13.16-13.63-20.79q-3.37-4.14-7.09-8.05z"/><path class="cls-107" d="M314.51 126.41l.5-.1zm69.49 2.42l.21.06.63.19 2.2.64a142.28 142.28 0 0161.27 37.77l.27-.28A143.22 143.22 0 00316.27 126a142.76 142.76 0 0167.73 2.83z"/><path class="cls-105" d="M384.18 128.89l.63.19z"/><path class="cls-107" d="M384.18 128.89l.63.19z"/><path class="cls-105" d="M212.51 213.55h7.7a12.47 12.47 0 010 24.94h-15a141.91 141.91 0 00-2 14.24h19.09a18.45 18.45 0 0118.39 18.39v3.16a16.56 16.56 0 0113.62 11.79h66.09v-16.28a16.68 16.68 0 0116.6-16.64h25.74l47-47.07v-9.91h-40.33v10.3a17.35 17.35 0 01-17.3 17.3h-31.23a17.34 17.34 0 01-17.3-17.3V184.8a17.34 17.34 0 0117.3-17.3h19.86v-44a142.7 142.7 0 0143.26 5.33 142.76 142.76 0 00-67.7-2.79l-1.26.27-.5.1a143 143 0 00-102 87.14zm103.62-73.8a6.66 6.66 0 01-6.64 6.64h-26.14a6.65 6.65 0 01-6.52-5.54 143.39 143.39 0 0139.3-14.44z"/><path class="cls-107" d="M212.51 213.55h7.7a12.47 12.47 0 010 24.94h-15a141.91 141.91 0 00-2 14.24h19.09a18.45 18.45 0 0118.39 18.39v3.16a16.56 16.56 0 0113.62 11.79h66.09v-16.28a16.68 16.68 0 0116.6-16.64h25.74l47-47.07v-9.91h-40.33v10.3a17.35 17.35 0 01-17.3 17.3h-31.23a17.34 17.34 0 01-17.3-17.3V184.8a17.34 17.34 0 0117.3-17.3h19.86v-44a142.7 142.7 0 0143.26 5.33 142.76 142.76 0 00-67.7-2.79l-1.26.27-.5.1a143 143 0 00-102 87.14zm103.62-73.8a6.66 6.66 0 01-6.64 6.64h-26.14a6.65 6.65 0 01-6.52-5.54 143.39 143.39 0 0139.3-14.44z"/><path class="cls-106" d="M362.77 253.15H337a16.68 16.68 0 00-16.63 16.64v16.28h9.52z"/><path class="cls-107" d="M362.77 253.15H337a16.68 16.68 0 00-16.63 16.64v16.28h9.52z"/><path class="cls-106" d="M283.35 146.39h26.14a6.66 6.66 0 006.64-6.64v-13.34a143.39 143.39 0 00-39.3 14.44 6.65 6.65 0 006.52 5.54z"/><path class="cls-107" d="M283.35 146.39h26.14a6.66 6.66 0 006.64-6.64v-13.34a143.39 143.39 0 00-39.3 14.44 6.65 6.65 0 006.52 5.54z"/><path class="cls-106" d="M204 286.07h50.35a16.56 16.56 0 00-13.62-11.79v-3.16a18.45 18.45 0 00-18.39-18.39h-19.16a142.16 142.16 0 00.82 33.34z"/><path class="cls-107" d="M204 286.07h50.35a16.56 16.56 0 00-13.62-11.79v-3.16a18.45 18.45 0 00-18.39-18.39h-19.16a142.16 142.16 0 00.82 33.34z"/><path class="cls-106" d="M232.68 226a12.5 12.5 0 00-12.47-12.47h-7.7a144 144 0 00-7.28 24.94h15A12.5 12.5 0 00232.68 226z"/><path class="cls-107" d="M232.68 226a12.5 12.5 0 00-12.47-12.47h-7.7a144 144 0 00-7.28 24.94h15A12.5 12.5 0 00232.68 226z"/><path class="cls-106" d="M387 129.72l-2.2-.64a143.86 143.86 0 0163.2 38.68l.27-.27A142.28 142.28 0 00387 129.72z"/><path class="cls-107" d="M387 129.72l-2.2-.64a143.86 143.86 0 0163.2 38.68l.27-.27A142.28 142.28 0 00387 129.72z"/><path class="cls-106" d="M384 128.83l.21.06z"/><path class="cls-107" d="M384 128.83l.21.06z"/><path class="cls-106" d="M420.44 145.21a143.16 143.16 0 00-35.63-16.13l-.63-.19-.21-.06a142.7 142.7 0 00-43.23-5.31v44h-19.86a17.34 17.34 0 00-17.3 17.3v21.67a17.34 17.34 0 0017.3 17.3h31.23a17.35 17.35 0 0017.3-17.3v-10.3h40.34v9.91L448 167.76a143.43 143.43 0 00-27.56-22.55z"/><path class="cls-107" d="M420.44 145.21a143.16 143.16 0 00-35.63-16.13l-.63-.19-.21-.06a142.7 142.7 0 00-43.23-5.31v44h-19.86a17.34 17.34 0 00-17.3 17.3v21.67a17.34 17.34 0 0017.3 17.3h31.23a17.35 17.35 0 0017.3-17.3v-10.3h40.34v9.91L448 167.76a143.43 143.43 0 00-27.56-22.55z"/><ellipse class="cls-10" cx="323.92" cy="161.27" rx="25.57" ry="24.44"/><ellipse class="cls-10" cx="370.8" cy="161.27" rx="25.57" ry="24.44"/><rect class="cls-108" x="302" y="123.3" width="8.79" height="23.54" rx="4.4" ry="4.4" transform="rotate(-8.11 306.223 134.982)"/><rect class="cls-108" x="382.8" y="125.18" width="8.79" height="23.54" rx="4.4" ry="4.4" transform="rotate(-171.89 387.2 136.933)"/><path d="M381.42 189.1h-64.3a29.52 29.52 0 00-29.52 29.52l23 73.77h80.18L411 218.62a29.53 29.53 0 00-29.58-29.52z" fill="url(#linear-gradient-28)"/><path d="M345.68 227.89s-16.84-22.28-16.68-31.66l.24-19.69h33.93l-.25 19.69c-.15 9.38-17.24 31.66-17.24 31.66z" fill="url(#linear-gradient-29)"/><ellipse class="cls-10" cx="345.47" cy="101.16" rx="46.69" ry="40.98"/><rect x="308.82" y="62.12" width="75.51" height="118.39" rx="36.47" ry="36.47" fill="url(#linear-gradient-30)"/><path class="cls-10" d="M306.26 83.78c.33 1.56 2.94 63.13 2.94 63.13l9.16-59.07zm79.74 0c-.33 1.56-2.29 64.37-2.29 64.37l-9.81-60.31z"/><path d="M345.77 60c-31.52 0-44.6 23.24-44.6 28.87s20.17 10.18 44.34 10.18l-8.67-18L351.42 99c21.42-.71 38.2-5.23 38.2-10.39C389.62 83 377.34 60 345.77 60z" fill="#cd4467"/><path d="M314.82 117.07l-4.91 6.27A19 19 0 00328 136c10.75 0 19.42-8.51 19-18.87zm65.79 0l4.91 6.27A19 19 0 01367.4 136c-10.75 0-19.42-8.51-19-18.87z" stroke-width="4.05" stroke="#86283c" fill="#fff" stroke-linecap="round" stroke-linejoin="round"/><path d="M303.3 203.07c-45.76 26.37-56.08 59.2-14.87 71.29m102.87-71.29c72.13 32 65.57 55.92 20.74 52.83" stroke-width="24.1" stroke="#437381" stroke-linecap="round" stroke-linejoin="round" fill="none"/><path class="cls-39" d="M337.12 127.8a4.85 4.85 0 00.18-1.26c0-2.89-2.8-5.24-6.26-5.24s-6.26 2.35-6.26 5.24a4.47 4.47 0 00.19 1.26zm31.75-.11a4.37 4.37 0 00.19-1.26c0-2.89-2.8-5.23-6.26-5.23s-6.26 2.34-6.26 5.24a4.35 4.35 0 00.19 1.25zm-41.09 26.07v.28c0 6.24 7.23 11.29 16.16 11.29s16.16-5.05 16.16-11.29v-.28z"/><path d="M346 160.86a33.67 33.67 0 00-8.26 1.78 20.29 20.29 0 00-2.38 1 21.45 21.45 0 008.53 1.7 20 20 0 0011.55-3.4 22.44 22.44 0 00-9.44-1.08z" fill="url(#linear-gradient-31)"/><rect class="cls-42" x="369.94" y="250.81" width="34.08" height="9.85" rx="4.93" ry="4.93" transform="rotate(154.96 386.981 255.733)"/><circle class="cls-42" cx="403.87" cy="258.99" r="14.84" transform="rotate(-79.75 403.878 258.994)"/><rect class="cls-42" x="377.65" y="257.5" width="34.08" height="9.85" rx="4.93" ry="4.93" transform="rotate(152.86 394.695 262.42)"/><rect x="320.59" y="201.04" width="70.28" height="101.58" rx="6.14" ry="6.14" transform="rotate(89.94 355.74 251.853)" fill="#4e91af"/><path d="M405.66 219.7a6.15 6.15 0 00-5.31-3l-89.3.09a6.11 6.11 0 00-5.24 3z" fill="#a9d6ed"/><g id="HPI-Schul-Cloud_Wort-Bildmarke-transparent-mono_96x96" data-name="HPI-Schul-Cloud Wort-Bildmarke-transparent-mono 96x96"><g id="Logo"><g id="Bildmarke"><path id="Fill-4" class="cls-65" d="M376.34 242.33c-.12-.42-.26-.82-.41-1.2l-6 6a1.81 1.81 0 01-1.44.51l-1.33 3.8 2.05 2 3.8-1.33a1.79 1.79 0 01.51-1.43l5.58-5.57c-.32-.18-.65-.33-1-.48l-5.3 5.37c-.87.87-2 1.07-2.57.51s-.35-1.69.52-2.56z"/><path id="Fill-6" class="cls-65" d="M380.66 246.15l-6.51 6.49a2 2 0 01-.77.47l-7.31 2.95a1 1 0 01-.4.11 9.51 9.51 0 01-3.48 1.74c-3.28.49-4.55-3.36-7.17-4.41-2.31-.92-4 1.92-5.59 3.17a4.78 4.78 0 01-3.3 1.26 4.56 4.56 0 01-2.89-1.71c-.81-.85-1.72-1.92-3-1.43a5 5 0 00-1.57 1.06 4 4 0 01-1.08 1 .81.81 0 01-1.18-.56c-.06-.52.44-.84.78-1.13a7.79 7.79 0 012.83-1.86 3.56 3.56 0 013.36 1c.87.75 1.68 2.08 2.92 2.23s2.43-1 3.27-1.83a9.23 9.23 0 013.16-2.45 4.09 4.09 0 013.73.44 25.81 25.81 0 013.13 2.88 2.94 2.94 0 003.57.54c.31-.17.81-.62 1.32-.94a1.15 1.15 0 01.11-.56l3-7.3a2.06 2.06 0 01.46-.77l7.1-7.09c-2.64-4.61-7.56-6.5-12.4-6.33-6.24.22-12.41 3.84-13.36 9.72-6-2.4-11.68.79-11.68 6.23-11.11-2.17-14.09 7.69-9.73 11 3.05 2.61 7 2.1 12 2.1h33c6.17 0 11.18-4.13 11.18-9.28a8.5 8.5 0 00-3.44-6.64"/></g></g></g><rect class="cls-42" x="303.76" y="256.16" width="34.08" height="9.85" rx="4.93" ry="4.93" transform="rotate(1.36 320.78 260.79)"/><circle class="cls-42" cx="306.64" cy="270.85" r="14.84" transform="rotate(-4.27 306.342 270.498)"/><rect class="cls-42" x="299.38" y="265.39" width="34.08" height="9.85" rx="4.93" ry="4.93" transform="rotate(3.46 316.358 270.305)"/><path stroke="#7a7a7a" stroke-width="3" stroke-miterlimit="10" fill="none" d="M4 286.57h726"/><path class="cls-65" d="M0 286.57h737v7.5H0z"/><path d="M678.61 242.15a1.46 1.46 0 00-.79 1l-5.5 23.7a8.78 8.78 0 00-4.5-2.57c-4.31-1-8.49 1.19-9.34 4.87s1.94 7.48 6.24 8.48 8.44-1.21 9.29-4.88l6.28-27.09 10.71 5.06 1.28-2.66-12.34-5.92a1.44 1.44 0 00-1.33.01zm-13.23-18.49a1.11 1.11 0 00-.44.82l-.72 18a6.43 6.43 0 00-3.62-1.25c-3.27-.13-6 2-6.11 4.82s2.43 5.17 5.7 5.3 6-2 6.07-4.82l.83-20.54 8.43 2.21.56-2.11-9.77-2.6a1.1 1.1 0 00-.93.17z" fill="#888cc5"/><g opacity=".48"><path class="cls-121" d="M386.59.36L334.8 0a3.46 3.46 0 00-3.63 3.25L331 28.88a3.44 3.44 0 003.58 3.3l34.11.24 9.42 8.68.06-8.61 8.19.06a3.46 3.46 0 003.64-3.26l.18-25.63a3.46 3.46 0 00-3.59-3.3z"/><path class="cls-121" d="M386.59.36l-26-.18-.23 32.18 8.38.06 9.42 8.68.06-8.61 8.19.06a3.46 3.46 0 003.59-3.26l.18-25.63a3.46 3.46 0 00-3.59-3.3z"/><path class="cls-122" d="M301.09 20.82l51.79.36a3.46 3.46 0 013.58 3.31l-.18 25.63a3.45 3.45 0 01-3.63 3.25l-34.11-.24-9.54 8.55.06-8.62-8.19-.06a3.46 3.46 0 01-3.58-3.31l.17-25.62a3.47 3.47 0 013.63-3.25z"/><path class="cls-122" d="M352.88 21.18L325.12 21l-.23 32.18 27.76.2a3.45 3.45 0 003.63-3.25l.18-25.63a3.46 3.46 0 00-3.58-3.32z"/><ellipse class="cls-121" cx="343.71" cy="25.74" rx="19.8" ry="21.77" transform="rotate(-89.6 343.713 25.735)"/><path class="cls-123" d="M343.85 5.94h-.44l-.28 39.57h.44c12 .09 21.83-8.71 21.91-19.64S355.87 6 343.85 5.94z"/><path class="cls-123" d="M339.54 37.64a2.12 2.12 0 01-1.14-.35 1.65 1.65 0 01-.4-2.46l6-7.33h-4.36a2 2 0 01-1.72-1 1.62 1.62 0 01.18-1.83l8.24-10.11a2.07 2.07 0 012.71-.36 1.65 1.65 0 01.4 2.46l-6 7.33h4.36a2 2 0 011.72 1 1.66 1.66 0 01-.18 1.84l-8.24 10.11a2 2 0 01-1.57.7z"/><path d="M347.81 24h-4.36l6-7.33a1.65 1.65 0 00-.4-2.46 2.07 2.07 0 00-2.71.36l-3 3.67-.06 9.27h.72l-.72.88v6l6.14-7.53a1.66 1.66 0 00.18-1.84 2 2 0 00-1.79-1.02z" fill="#9ee8a4"/></g><g clip-path="url(#clip-path-3)"><path class="cls-18" d="M164.71 244.71c-3.73-3.83 1-16.86 1-16.86l5.11.69a2.65 2.65 0 003-2.48c.42-3.08-2.16-3.24-2.16-3.24l-18.79-2.54c-3.09-.42-6.35 2.74-8.29 5-1 1.24-.6 1.68.94 1.24 5.43-1.55 6.76-.54 6.76-.54.13 1.77-.8 9.58-2.53 12.48-1.73 2.72-4.68 6.05-1.37 8.7 2.61 2 6-.9 6.47-6.53.26-3 1.53-14.09 1.53-14.09l4.71.64c-.38 1.71-2.37 10.41-2.25 15.75-.31 8.84 9.4 8.43 11.84 3.73a4.59 4.59 0 00.44-3.2c-.4-1.55-1.4-1.77-1.38-1.06a3.79 3.79 0 01-.21 1.24c-.37 1.17-3.06 2.71-4.85 1z"/></g></g></g></svg>