<svg width="241" height="240" viewBox="0 0 241 240" xmlns="http://www.w3.org/2000/svg"><g transform="translate(3)" fill="none" fill-rule="evenodd"><circle fill="#EEC0CB" cx="143" cy="95" r="95"/><path d="M91.615 211.217v25.332s41.42-19.066 91.385-9.86l-.656-125.575s-60.486-15.779-90.73 14.464v9.197m-.228 86.955v24.82c-7.765-3.158-16.773-6.166-26.956-8.383-16.601-3.616-39.446-6.082-64.43-1.479l.657-125.573s60.486-15.78 90.729 14.464v9.196" stroke="#B1063A" stroke-width="5" stroke-linejoin="round"/><path d="M138.716 179.449H44.307V132.53a5.192 5.192 0 015.203-5.11h84.004c2.831 0 5.156 2.279 5.202 5.11v46.918zm-.022 7.804c0 2.832-2.372 5.088-5.204 5.088H49.51c-2.832 0-5.203-2.256-5.203-5.088v-4.581h94.387v4.58zm-58.475 24.425h22.561v-16.115H80.219v16.115zm53.271-87.48H49.51c-4.605 0-8.426 3.752-8.426 8.333v54.722c0 4.604 3.821 8.31 8.426 8.31h27.486v16.115h-6.192c-.898 0-1.611.714-1.611 1.612a1.6 1.6 0 001.611 1.61h42.589c.898 0 1.612-.713 1.612-1.61 0-.898-.714-1.612-1.612-1.612h-7.39v-16.115h27.487c4.605 0 8.426-3.706 8.426-8.31V132.53c0-4.603-3.821-8.333-8.426-8.333z" fill="#B1063A"/><path d="M138.716 179.449H44.307V132.53a5.192 5.192 0 015.203-5.11h84.004c2.831 0 5.156 2.279 5.202 5.11v46.918zm-.022 7.804c0 2.832-2.372 5.088-5.204 5.088H49.51c-2.832 0-5.203-2.256-5.203-5.088v-4.581h94.387v4.58zm-58.475 24.425h22.561v-16.115H80.219v16.115zm53.271-87.48H49.51c-4.605 0-8.426 3.752-8.426 8.333v54.722c0 4.604 3.821 8.31 8.426 8.31h27.486v16.115h-6.192c-.898 0-1.611.714-1.611 1.612a1.6 1.6 0 001.611 1.61h42.589c.898 0 1.612-.713 1.612-1.61 0-.898-.714-1.612-1.612-1.612h-7.39v-16.115h27.487c4.605 0 8.426-3.706 8.426-8.31V132.53c0-4.603-3.821-8.333-8.426-8.333z" stroke="#B1063A" stroke-width="2" stroke-linejoin="round"/></g></svg>