<svg width="242" height="239" viewBox="0 0 242 239" xmlns="http://www.w3.org/2000/svg"><g transform="translate(3)" fill="none" fill-rule="evenodd"><circle fill="#F6CE9B" cx="144" cy="95" r="95"/><path d="M12.592 104.046h-1.446a5 5 0 01-5-5V87.605a5 5 0 015-5h1.446a5 5 0 015 5v11.44a5 5 0 01-5 5zm18.631 0h-1.446a5 5 0 01-5-5V87.605a5 5 0 015-5h1.446a5 5 0 015 5v11.44a5 5 0 01-5 5zm18.631 0H48.41a5 5 0 01-5-5V87.605a5 5 0 015-5h1.445a5 5 0 015 5v11.44a5 5 0 01-5 5zm5.879 17.332H5a5 5 0 01-5-5v-1.101a5 5 0 015-5h50.733a5 5 0 015 5v1.1a5 5 0 01-5 5zM28.157 53.499L2.995 65.66c-4.783 2.312-3.136 9.502 2.176 9.502h50.324c5.312 0 6.959-7.19 2.176-9.502L32.509 53.499a4.996 4.996 0 00-4.352 0z" stroke="#E98404" stroke-width="5"/><path d="M75.99 202.63l.444-.12c-.486-1.671-.81-3.413-1.504-4.994-.585-1.334-1.647-2.46-3.375-2.201-1.622.242-2.52 1.389-2.91 2.86-.9 3.365-.507 6.638 1.391 9.55.63.964 1.807 1.777 2.911 2.18 2.52.926 4.246-.816 3.663-3.44-.282-1.264-.42-2.557-.62-3.835m46.942-1.035c-.148-.848-.19-1.736-.468-2.542-.98-2.866-2.493-5.344-5.515-6.46-1.537-.568-2.578.132-2.592 1.75-.03 3.903-.01 7.808.055 11.709.007.44.302 1.062.66 1.279 1.44.868 2.974 1.088 4.503.153 2.194-1.342 3.33-3.273 3.357-5.89m-30.285-3.87c.136-.03.27-.056.403-.086-.403-1.696-.582-3.487-1.25-5.072-1.567-3.722-5.749-4.117-8.182-.883-.288.383-.518.809-.772 1.217-2.283 3.662-1.9 7.653-1.51 11.67.261 2.673 1.858 4.093 4.27 4.55a13.03 13.03 0 004.564.025c2.634-.454 3.318-1.616 3.058-4.225-.24-2.394-.39-4.798-.58-7.196m16.592 1.534c.081-1.8.168-3.535.23-5.268.02-.48.058-.984-.062-1.438-.587-2.242-3.435-4.132-5.827-3.883-2.396.25-6.103 2.325-5.909 5.13.297 4.32.396 8.658.76 12.972.201 2.397 3.087 4.372 5.488 4.04 3.495-.487 5.673-3.054 5.546-6.56-.062-1.683-.152-3.37-.226-4.993M32.545 175.32c10.114 11.563 18.302 24.048 24.808 37.733l2.87-2.551c-5.08-13.852-12.392-26.327-21.978-37.475-.537-.626-.996-.825-1.698-.352-1.302.87-2.613 1.726-4.002 2.645m91.258-72.675c13.35 7.789 24.263 17.869 32.914 30.505l5.204-6.376c-8.248-12.072-20.652-22.966-32.964-28.976l-5.154 4.847m-2.81 4.042c-2.413 1.552-4.496 3.279-6.874 4.353-7.229 3.273-14.516 6.439-21.894 9.359-4.462 1.765-7.734 4.572-9.877 8.807-1.999 3.95-4.047 7.882-6.056 11.827-1.728 3.395-2.749 6.94-1.585 10.724 1.451 4.733 3.022 9.433 4.605 14.124a13.457 13.457 0 001.514 3.1c1.085 1.64 2.68 1.926 4.41.945 1.796-1.025 2.967-2.586 3.06-4.625.126-2.775.091-5.57-.112-8.338-.288-3.911-.525-7.848 2.136-11.051 1.885-2.27 4.187-4.208 6.407-6.176.436-.39 1.408-.48 2.028-.311 3.257.885 6.506.583 9.757.095 6.74-1.012 13.46-.841 20.157.329 7.444 1.3 14.738 3.178 21.68 5.743.9-2.34 1.707-4.708 2.73-6.981.442-.986.36-1.622-.22-2.47-5.162-7.532-11.187-14.272-18.248-20.071-4.364-3.583-8.98-6.804-13.619-9.383m21.945 73.017c-.21-.03-.44-.07-.67-.096-6.412-.754-12.824-1.505-19.234-2.266-1.843-.22-2.912-1.403-2.679-2.918.242-1.571 1.528-2.31 3.343-2.081 5.831.73 11.665 1.454 17.507 2.088 3.182.344 6.882-2.321 7.776-5.413.604-2.09-1.064-4.365-3.189-4.415-3.474-.088-6.948-.144-10.416-.351a258.407 258.407 0 01-11.383-.952c-1.774-.187-2.63-1.431-2.345-2.998.244-1.32 1.536-2.061 3.082-1.971 8.426.48 16.848.932 25.274 1.328.495.023 1.194-.378 1.491-.798 1.735-2.43 1.037-5.955-1.62-7.761-1.173-.802-2.52-1.475-3.889-1.844-5.615-1.514-11.225-3.088-16.915-4.26-6.016-1.234-12.135-1.614-18.27-.711-3.677.542-7.364.948-11.082.353a1.962 1.962 0 00-1.104.179c-4.292 2.146-6.179 6.135-5.536 10.919.378 2.805.525 5.674.401 8.499-.198 4.58-2.13 8.272-6.414 10.404-3.184 1.583-6.698 1.203-9.053-1.353-1.366-1.484-2.485-3.342-3.225-5.224-1.532-3.888-2.654-7.938-4.089-11.867-2.35-6.443-1.776-12.56 1.67-18.466.98-1.675 1.781-3.453 2.763-5.374-3.608.067-6.334 1.382-8.52 3.85-2.417 2.727-3.862 5.994-4.878 9.429-1.763 5.957-4.248 11.557-7.654 16.754-.442.678-.658 1.567-1.23 2.088-1.49 1.362-3.048 2.677-4.716 3.813-1.606 1.093-3.382 1.934-5.133 2.916 8.455 10 15.162 21.057 20.318 33.086.118-1.873-.016-3.708.143-5.516.413-4.794 3.78-8.214 8.158-8.47 2.184-.127 4.016.737 5.675 2.086 3.67-8.86 12.823-10.244 17.53-4.52.116-.071.251-.122.344-.22 4.6-4.857 12.422-5.465 17.127.057.198.23.785.343 1.09.233 3.68-1.324 6.868-.217 9.376 2.389 1.696 1.763 2.864 4.056 4.141 6.188.398.669.661 1.003 1.493.906 3.225-.381 5.882-1.798 7.937-4.275.513-.621.741-1.477 1.158-2.353-2.096-.258-3.909-.478-5.72-.703-2.389-.302-4.783-.574-7.165-.922-1.49-.22-2.505-1.535-2.306-2.84a2.613 2.613 0 012.921-2.205c4.011.512 8.027 1.017 12.036 1.566 3.483.476 6.27-2.397 5.681-5.988m-117.39-4.482c-3.38 2.47-6.76 4.938-10.14 7.406-.429.314-.833.669-1.29.929a2.485 2.485 0 01-3.238-.666 2.406 2.406 0 01.32-3.27c.901-.798 1.887-1.5 2.86-2.213 2.723-1.998 5.568-3.843 8.155-6.003 2.272-1.896 4.995-1.94 7.18.348 2.317-2.168 4.96-3.786 8.065-4.57 1.451-.364 2.974-.543 4.345-1.104 3.707-1.513 6.68-3.925 8.792-7.416 2.636-4.353 4.705-8.932 6.172-13.804 1.274-4.222 2.924-8.285 5.933-11.62 3.691-4.088 8.142-6.426 13.821-5.694.8.102 1.207-.12 1.562-.857 2.68-5.554 7.112-8.937 12.858-11.124 7.19-2.738 14.21-5.927 21.236-9.071 1.681-.752 3.28-1.911 4.586-3.215 1.777-1.77 3.235-3.86 4.79-5.768-1.083-1.482-2.394-3.074-3.472-4.808-1.223-1.963-.995-3.215.578-4.957 3.717-4.12 7.43-8.248 11.168-12.352 1.447-1.588 3.432-1.406 4.287.34.602 1.234.12 2.207-.726 3.133-3.29 3.6-6.529 7.243-9.849 10.813-.769.83-.93 1.47-.119 2.296.665.679 1.294 1.393 1.99 2.142 2.585-2.064 4.974-1.54 7.398.102 5.587 3.784 11.473 7.177 16.756 11.339 6.852 5.406 12.073 12.437 17.25 19.425 1.191 1.608.145 3.053-.673 4.376-.705 1.14-1.647 2.136-2.622 3.369 1.721 1.136 3.387 2.235 4.746 3.13 4.053-3.285 7.852-6.398 11.69-9.465 1.348-1.076 2.795-.952 3.717.182.946 1.166.681 2.648-.708 3.77-2.633 2.118-5.292 4.199-7.907 6.336a17.71 17.71 0 00-2.272 2.219c-1.776 2.097-4.01 2.723-6.448 1.467-2.088-1.073-4.055-2.384-6.124-3.62-2.873 3.298-4.37 7.318-5.242 11.609-.08.4.137.939.372 1.317 3.094 4.957 2.568 9.997-1.466 14.098-.265.266-.495.838-.39 1.156 1.567 4.847-.382 8.488-4.006 11.454-1.147.942-1.564 1.92-1.453 3.328.257 3.339-.963 6.067-3.33 8.442-1.17 1.174-2.186 2.55-2.58 4.306-.643 2.88-2.532 4.939-4.838 6.635-2.37 1.742-4.998 2.899-7.946 3.196-1.074.107-1.484.515-1.675 1.657-.984 5.815-7.474 11.885-15.524 7.527-2.064 2.572-4.78 4.153-8.122 4.3-3.358.148-6.18-1.23-8.46-3.668-5.109 3.169-10.17 2.91-15.205.115-3.889 3.452-7.566 3.738-11.88 1.01-.382-.241-1.052-.407-1.412-.236a72.396 72.396 0 00-5.292 2.796c-.804.472-1.48 1.17-2.278 1.816.62 1.463 1.288 3.053 1.97 4.639.875 2.032.53 3.897-.892 5.517-3.532 4.026-7.605 7.389-12.349 9.909-1.638.869-3.009.602-3.767-.721-.783-1.362-.27-2.72 1.438-3.664 3.832-2.12 7.246-4.763 10.208-7.995.482-.525.74-.963.415-1.763-7.255-17.777-17.362-33.734-30.414-47.82-.129-.138-.283-.25-.55-.485" fill="#E98404"/></g></svg>