<svg width="678" height="678" viewBox="0 0 678 678" xmlns="http://www.w3.org/2000/svg"><g fill="none" fill-rule="evenodd"><path d="M350.183 545.401c142.402 0 246.149 19.703 246.149 34.741 0 15.039-115.44 35.4-257.842 35.4s-257.842-20.361-257.842-35.4c0-15.038 127.133-34.74 269.535-34.74z" fill="#ECEEF0"/><path d="M385.415 515.442l8.338 60.535h.205l.41-.002h.387l.227-.001h1.444c9.572.01 41.802.235 46.137 2.819 1.077.639 1.226 3.058 1.226 3.058l-36.263-.702s10.217 1.232 20.681 2.659l1.884.258c9.83 1.36 19.351 2.835 20.28 3.565 1.508 1.186 1.697 4.326 1.697 4.326l-47.064-7.037 32.666 6.7-.045.005c.203.065 1.318.407 1.59 1.976.27 1.57-1.439 3.025-1.439 3.025l-47.173-12.353h-34.237a3.285 3.285 0 013.208-3.177l28.018-3.967-9.653-61.06 7.476-.627zm-98.126 0l7.476.628-7.476 62.35 26.703 3.013a3.285 3.285 0 013.208 3.177l-36.406 1.612-69.106 8.463s-.722-2.618-.447-3.453c.059-.172 2.265-1.128 4.823-1.414 1.706-.19 18.552-2.61 50.537-7.257l-58.398 2.05s.19-3.14 1.697-4.327c.969-.761 13.052-1.224 25.124-1.498l1.478-.032a1793.52 1793.52 0 0123.514-.333h.127l-41.383-2.444s.15-2.419 1.227-3.058c5.1-3.04 58.547 3.058 58.547 3.058l8.755-60.535z" fill="#E98404"/><path d="M335.13 86.546l.576-.02c3.066-.075 5.925.247 8.578.964l1.023.285.955.283c8.196 2.515 5.917 4.206.119 6.408 37.605 2.228 48.808 63.423 50.85 76.302a1.538 1.538 0 01-1.714 1.76l-4.3-.554.058.227.285.923.307.93.362 1.055c.948 2.72 2.426 6.738 3.915 10.867l.372 1.033.37 1.034.318.892c1.846 5.188 3.51 10.102 3.944 12.36.96 4.989.235 6.784-1.215 6.99-.967.136-3.348-3.066-7.144-9.608l8.293 27.566h.064l57.371 189.58c3.678 9.705 4.99 19.57 4.406 29.303l-.12.016c18.985-2.53 35.24-12.38 45.39-29.147l1.725-65.94.005-.493v-.967l-.006-.495c-.1-6.4-2.057-9.219-4.71-11.233l-.366-.27a18.785 18.785 0 00-.186-.131l-.378-.258-.58-.376-.593-.368-1.838-1.105-.625-.388-.628-.405-.21-.14-1.514-.966-.98-.632-1.428-.931-1.374-.91-1.322-.888-1.27-.867-.817-.566-1.182-.832-1.129-.81-.723-.529-1.042-.774-.989-.754-.63-.49-.607-.481-.583-.472-.56-.462-.537-.453-.513-.443-.49-.434-.466-.424-.443-.415-.42-.406-.396-.395-.19-.195-.361-.382-.338-.372-.315-.363-.291-.353c-1.305-1.627-1.846-2.945-1.623-3.955.335-1.523 2.036-2.76 5.103-3.71l.555-.166.584-.158.612-.153.64-.147.67-.141.696-.135.726-.13.754-.123.782-.117.402-.056.824-.108.853-.103.882-.096.91-.09.937-.085.967-.079.995-.072 1.023-.067 1.051-.06 1.08-.055.55-.025 1.029-.083 1.864-.127.293-.016-1.098-.481-1.602-.714-1.038-.47-1.512-.696-.978-.46-.955-.454-.93-.45-.906-.445-.883-.441-1.278-.654-.823-.43-1.189-.637-.763-.419-.738-.414-.715-.41-.69-.406-.668-.4-.643-.398-.619-.392-.595-.388a50.16 50.16 0 01-.288-.192l-.56-.381-.534-.377a39.05 39.05 0 01-.26-.187l-.498-.37a33.378 33.378 0 01-.24-.183l-.464-.363-.223-.18-.427-.357-.205-.177-.392-.35-.367-.346c-2.074-2.003-2.926-3.78-2.555-5.33.892-3.732 4.223-4.905 8.422-5.202l.592-.036.602-.025.611-.016.62-.008.943.001.957.015 1.292.034 2.609.085 1.302.036.647.013.803.021.409.017.952.055.977.075.8.074 1.022.111 1.047.13.857.116.872.128.442.067c-1.95-3.457-4.792-4.996-7.788-5.98l-.601-.189-.644-.189-.323-.09-.735-.196-2.546-.651-.71-.193-.337-.097-.636-.194c-2.31-.735-4.362-1.765-5.752-3.833-1.025-1.526-.382-2.736.978-4.114l.314-.309.509-.477.179-.162c3.239-2.497 7.394-3.813 11.445-4.467l.714-.108.71-.096.353-.042.703-.077.696-.066c.115-.01.23-.02.345-.028l.684-.05.674-.039.664-.03.327-.011.645-.017.63-.01h.917l.879.013.835.025 1.04.048.947.06.643.05.58.052.956.1.86.113.05.007a84.386 84.386 0 0116.215 4.198c-.993-9.316-.24-15.966 2.262-19.949.616-.981 1.652-.937 3.108.132l.307.236c.418.334.867.746 1.349 1.236l.367.382.188.202.385.426.197.224.403.47.415.499.427.528.438.558.224.29 22.679 37.156c.17.251.344.509.518.773l.529.81.268.419.54.866.274.447.55.92c8.286 14.072 17.978 40.123 6.334 68.956-2.364 5.855-5.283 16.856-7.698 21.485-20.659 46.023-53.903 69.164-102.68 80.77-6.261 19.404-19.183 37.36-34.625 51.294-23.429 22.538-57.747 35.854-95.985 35.854-30.513 0-58.53-8.479-80.51-23.357-8.066-4.67-15.113-10.965-21.124-18.35-14.946-16.675-24.378-37.62-25.976-61.47l.137.033c-59.628-14.443-91.908-50.8-96.84-109.069-1.312-8.482-1.351-16.778-.506-24.65.03-.828.067-1.661.107-2.498l.158.265c1.254-9.68 3.817-18.668 6.942-26.511l.485-1.197c.57-1.387 1.158-2.735 1.759-4.044l.517-1.111.261-.548.526-1.081.264-.533.533-1.05.267-.517.538-1.018c.18-.336.36-.668.54-.996l.543-.974.272-.479.545-.94c.09-.154.182-.308.273-.461l.545-.905c.182-.298.364-.592.546-.882l.545-.857c.09-.141.181-.281.272-.42l.542-.821.27-.401.54-.783.535-.758.532-.732.527-.706.522-.68.26-.329.513-.638a46.682 46.682 0 011.499-1.75l.484-.525.475-.498 30.361-34.441.557-.504.54-.477.522-.45.505-.421c.083-.069.165-.136.247-.201l.48-.382.461-.354.446-.328.428-.3c2.657-1.814 4.281-1.992 4.874-.536 1.602 3.939 1.511 9.678-.272 17.216l-.266 1.09a86.908 86.908 0 01-.766 2.83 89.159 89.159 0 0116.617-1.407l1.108.019.702.03.945.063.58.047 1.107.107 1.002.115.812.105.858.124.596.093.926.157.636.117.65.126.664.138.674.148.683.16.692.17.7.184.351.097.707.203c.237.07.473.141.71.215l.714.23c.356.118.714.242 1.07.37l.713.266.71.28c3.423 1.393 6.708 3.329 9.161 6.017l.3.39.282.378c1.364 1.866 1.998 3.347.548 4.853-1.989 2.066-4.569 2.704-7.373 3.013l-.367.039-.773.07-2.764.21-.8.07-.351.034-.704.078c-3.517.426-7.008 1.423-9.844 4.872l.472.01.93.028.91.036 1.112.057 1.082.072.844.07 1.029.1.999.118.427.057.839.125.648.102 1.639.241 2.986.428 1.307.2.645.107.638.11.63.117.62.123.61.13.597.138.295.073.579.151c4.002 1.098 6.956 2.94 7.188 6.787.09 1.504-.872 3.016-2.886 4.538l-.39.286c-.135.095-.273.19-.415.285l-.44.286a9.97 9.97 0 01-.229.143l-.476.287-.501.286c-.086.048-.172.096-.26.143l-.538.287-.563.287-.587.287-.303.144-.625.288a50.3 50.3 0 01-.321.143l-.662.288-.34.144-.698.289-.723.288-.371.144-.76.289-.785.289-.81.29-.834.289-.859.29-.883.289-.908.29-.933.29-1.446.436-1.5.436-1.557.437-1.069.292-1.093.291-1.118.292-1.142.292-1.168.293-1.191.292-.606.147.301.07 1.914.474 1.053.274 1.07.24 1.042.243 1.015.243.987.243.483.123.946.245.92.246.89.247.864.247.836.249.809.25.781.25.754.251.726.252.353.127.685.253.657.255.63.255.603.256.29.128.562.258.27.129.52.259c.254.13.497.26.73.39l.45.26c2.262 1.352 3.423 2.738 3.483 4.16.028.671-.266 1.41-.882 2.22l-.218.271c-.19.229-.407.463-.648.702l-.3.29-.326.295-.348.3-.373.305-.397.31-.42.316-.445.32-.468.325-.492.331-.516.336-.54.34-.563.346-.588.351-.612.356-.635.361-.66.366-.683.372-1.07.566-.742.384-.767.39-.79.393-1.231.601-.85.407-.875.412-.898.417-1.392.635-.958.43-.982.435-1.005.44-1.03.445-1.589.677-1.089.458-1.679.696-.41.188-.441.212-.473.237-.5.26-.529.283-.553.305-.576.327-.598.349-.617.369-.635.389-.652.409-.665.427-.678.446-.688.464a75.8 75.8 0 00-.348.239l-.7.49c-.118.082-.236.166-.354.25l-.709.514-.713.529-.714.544c-.595.46-1.19.934-1.78 1.422l-.705.592-.698.604-.69.615c-4.454 4.04-8.258 8.787-9.17 13.528l-.39 1.397a133.268 133.268 0 00-1.208 4.775l-.303 1.33c-4.345 19.635-2.4 34.405 5.835 44.31 11.577 13.924 25.089 23.296 40.536 28.114l.275.084c.2-1.6.435-3.177.709-4.728l7.78-29.455c-1.986 2.383-3.499 3.228-4.537 2.536-3.475-2.317 6.554-39.008 15.113-49.951l1.095-1.35c.688-.857 1.146-1.468 1.41-1.877l.17-.673c-1.138.074-11.06 8.775-14.273 6.886-2.251-1.322 9.91-33.694 22.7-68.571l.809-2.206c.404-1.104.81-2.21 1.214-3.318l1.124-3.077c4.866-13.34 9.66-26.705 13.626-38.526h.04l.339-1.014c2.188-6.574 4.11-12.648 5.632-17.947l3.13-12.815-4.357 4.212c-3.444 3.277-4.551.057-4.231-4.212l.127-1.312.243-2.2c.205-1.72.412-3.11.656-4.447l.067-.363c.834-4.41 2.112-8.501 5.123-22.301l1.48-6.845.727-3.295c5.099-22.788 13.048-50.67 34.692-58.734l2.104-.773 4.191-1.521c4.838-1.78 9.406-3.634 12.771-6.16 4.662-3.497 12.128-13.366 14.274-18.31l.186-.45c2.212-5.665 13.862 8.456 9.182 18.792z" fill="#B1063A"/><path d="M299.42 310.38c2.711-7.041 7.481-13.928 9.722-13.345 2.24.583.583 5.965 0 8.203l-.775 3.002c-8.11 31.713-11.117 53.74-9.124 65.695l.178.984c1.72 8.75 5.868 10.18 15.56 4.784l1.08-.616c5.116-3.812 7.984-5.485 8.604-5.02.62.464-.189 3.682-2.424 9.655-8.672 34.546-12.278 58.4-10.883 71.186l.119 1.002c1.152 8.906 4.007 10.038 12.182 4.56l.914-.624c4.004-3.516 6.302-5.113 6.891-4.792.59.322.487 3.116-.308 8.383-.56 15.246.75 25.405 3.587 30.124 1.986 3.305 6.125 6.487 11.667 2.88 1.94-1.262 5.357-2.67 6.62-.732 1.265 1.938-1.583 3.514-3.522 4.777-9.135 5.945-17.188 5.313-21.953-2.613-3.178-5.287-4.75-13.838-4.9-25.84l-.01-1.546-.291.121c-13.212 9.752-20.594-1.345-22.248-14.698s4.272-32.925 10.982-61.756l.966-4.097-.316.098c-10.82 3.213-18.343-1.627-20.656-14.218l-.11-.626c-2.307-13.844-2.276-37.072 8.449-64.932z" fill-opacity=".1" fill="#000"/><path d="M273.94 142.331c.36-5.715 5.317-19.237 16.845-17.62 11.53 1.618 15.236 11.943 14.876 17.658-.36 5.716-9.407 16.352-15.468 15.008-6.063-1.345-16.614-9.33-16.253-15.046zm99.533 0c.36 5.716-10.191 13.7-16.253 15.046-6.061 1.344-15.109-9.292-15.469-15.008-.36-5.715 3.347-16.04 14.876-17.657 11.529-1.618 16.486 11.904 16.846 17.62z" fill="#FFF"/><path d="M292.117 132.244c-4.439.157-7.9 4.227-7.732 9.092.168 4.865 3.901 8.682 8.34 8.525 4.44-.157 7.9-4.228 7.733-9.092-.168-4.865-3.902-8.682-8.34-8.525zm63.178 0c-4.439-.157-8.172 3.66-8.34 8.525-.168 4.864 3.293 8.935 7.732 9.092 4.439.157 8.173-3.66 8.34-8.525.169-4.865-3.293-8.935-7.732-9.092z" fill="#350211"/><path d="M341.728 154.924c-.78 32.19-19.877 48.048-19.877 48.048s-19.065-25.881-19.065-50.028l38.942 1.98z" fill="#AF6303"/><path d="M340.634 156.448c1.076 15.426-18.492 38.373-18.492 38.373s-13.48-19.276-14.382-28.962l32.874-9.41z" fill="#350211"/><path d="M323.274 133.086c6.18 0 9.73 1.844 11.087 9.974 1.249 7.48 6.426 3.57 7.367 10.355.325 2.343.118 7.086-7.367 17.965-5.28 7.675-10.66 13.397-16.14 17.166-5.124-6.267-8.611-11.575-10.461-15.924-3.86-9.076-4.804-15.592-4.993-19.207-.273-5.23 6.638-5.39 8.735-10.355 1.563-3.702 4.228-9.974 11.772-9.974z" fill="#F7A600"/><path d="M292.193 109.048c5.165-.82 12.195 3.283 12.747 6.252.04.22.04.407-.002.562a.465.465 0 01.002.05c0 2.342-6.041 4.24-13.494 4.24-7.452 0-13.493-1.898-13.493-4.24 0-2.34 6.041-4.238 13.493-4.238.282 0 .561.002.839.008-2.621-1.35-2.651-2.229-.092-2.634zm63.09-.151c1.62.385 1.695 1.191.222 2.42 3.244-1.47 8.873-2.18 9.132-1.184.11.423-.26.997-1.108 1.723 5.807 1.045 9.993 4.61 9.993 6.592 0 2.34-5.84 1.588-13.292 1.588s-13.494-1.898-13.494-4.239v-.01a1.802 1.802 0 01-.01-.607c.371-2.984 5.09-7.106 8.558-6.283z" fill="#350211"/><path d="M227.983 213.566l244.836 24.212c18.447 1.938 34.1 12.157 43.788 26.659-1.69-.373-3.427-.7-5.209-.975l-.048-.007-.861-.112-.956-.101-.58-.052-.643-.05-.947-.06-1.04-.048-.835-.025-.879-.013h-.917l-.63.01-.645.017a52.89 52.89 0 00-.327.011l-.664.03-.674.04-.684.049-.345.028-.696.066-.703.077-.353.042-.71.096-.714.108c-4.05.654-8.206 1.97-11.445 4.467l-.18.162-.508.477-.314.309c-1.36 1.378-2.003 2.588-.978 4.114 1.39 2.068 3.442 3.098 5.752 3.833l.636.194.336.097.71.193 2.547.65.735.197.323.09.644.189.6.19c2.997.983 5.839 2.522 7.79 5.98l-.443-.068-.872-.128-.857-.117-1.047-.129-1.022-.11-.8-.075-.977-.075-.952-.055-.41-.017-.802-.021-.647-.013-1.302-.036-2.61-.085-1.291-.034-.957-.015-.943-.001-.62.008-.611.016-.602.025-.592.036c-4.2.297-7.53 1.47-8.422 5.202-.37 1.55.48 3.327 2.555 5.33l.367.346.392.35c.067.059.135.118.205.177l.427.357.223.18.463.363.24.183.5.37c.085.063.171.125.259.187l.535.377.559.381.288.192.595.388.62.392.642.397.667.401.691.406.715.41.738.414.763.42 1.189.636.823.43 1.278.654.883.44.906.446.93.45.955.455.978.459 1.512.696 1.038.47 1.602.714 1.098.48-.293.017-1.864.127-1.029.083-.55.025-1.08.055-1.051.06-1.023.067-.995.072-.967.079-.938.085-.91.09-.88.096-.854.103-.824.108-.402.056-.782.117-.754.124-.726.129-.697.135-.668.14-.64.148-.613.153-.584.158-.555.165c-3.067.95-4.768 2.188-5.103 3.711-.223 1.01.318 2.328 1.623 3.955l.291.353.315.363.338.372.361.382c.062.065.125.13.19.195l.396.395.42.406.443.415.466.424.49.434.513.443.537.453.56.462.583.472.607.48.63.491.99.754 1.04.774.724.529 1.13.81 1.181.832.817.566 1.27.867 1.322.888 1.374.91 1.427.93.98.633 1.516.966.209.14.628.405.625.388 1.838 1.105.594.368.58.376.377.258.186.132.366.27c2.653 2.013 4.61 4.832 4.71 11.232l.006.495v.967l-.005.494-1.725 65.939-.079.13a62.255 62.255 0 01-13.348 15.478c-8.983 7.387-19.924 11.935-31.963 13.539l-.03.152a59.607 59.607 0 01-12.767.027l-21.967-2.31-6.475 61.604c-.238 2.266-1.789 4.162-3.937 4.819a5.564 5.564 0 01-2.146.192 5.478 5.478 0 01-3.717-2.047l-57.39-72.326-149.203-14.16a60.247 60.247 0 01-2.873-.372l.001-.02-.761-.234c-15.447-4.818-28.96-14.19-40.536-28.114-8.141-9.791-10.135-24.336-5.982-43.634l.147-.675.303-1.331c.273-1.171.568-2.36.885-3.564l.324-1.211.388-1.397c.888-4.61 4.508-9.224 8.801-13.19l.37-.338.69-.615.698-.604.705-.592c.394-.325.79-.645 1.185-.958l.595-.464.714-.544.713-.53.71-.513.176-.126.176-.125.701-.49.174-.12.174-.118.688-.464.678-.446.665-.427.652-.41.635-.388.617-.37.598-.348.576-.327.553-.305.528-.283.501-.26.473-.237.442-.212.41-.188 1.678-.696 1.09-.458 1.588-.677 1.03-.445 1.005-.44.982-.435.958-.43 1.392-.635.898-.417.874-.412.85-.407 1.232-.6.79-.395.767-.389.743-.384 1.07-.566.683-.372.659-.366.635-.36.612-.357.588-.35.563-.347.54-.34.516-.336.492-.33.468-.326.445-.32.42-.316.397-.31.373-.305.348-.3.325-.295.301-.29c.16-.16.31-.316.449-.471l.2-.23.217-.273c.616-.808.91-1.548.882-2.219-.058-1.362-1.126-2.693-3.205-3.99l-.277-.17-.452-.26-.356-.195-.372-.195-.52-.259-.135-.065-.136-.064-.561-.258-.145-.064-.146-.064-.603-.256-.63-.255-.657-.255-.685-.253-.176-.064-.177-.063-.726-.252-.754-.251-.781-.25-.809-.25-.836-.249-.864-.247-.89-.247-.92-.246-.946-.245-.24-.062-.243-.06-.987-.244-1.015-.243-1.043-.242-1.07-.241-1.052-.274-1.914-.474-.3-.07.303-.074.302-.073 1.191-.292 1.168-.293 1.142-.292 1.118-.292 1.093-.291 1.069-.292 1.556-.437 1.501-.436 1.446-.436.933-.29.908-.29.883-.29.86-.29.833-.289.81-.289.785-.289.76-.289.186-.072.185-.072.723-.288.698-.289.171-.072.17-.072.66-.288.162-.071.16-.072.625-.288.152-.072.15-.072.588-.287.563-.287.538-.287.13-.071.13-.072.5-.286.477-.287.116-.071.113-.072.44-.286.21-.142.204-.143.39-.286c2.015-1.522 2.977-3.034 2.887-4.538-.227-3.758-3.05-5.602-6.911-6.709l-.277-.078-.58-.151-.146-.037-.148-.036-.598-.138-.61-.13-.62-.123-.629-.116-.638-.111-.645-.106-1.307-.201-2.986-.428-1.639-.241-.648-.102-.839-.125-.427-.057-.999-.118-1.029-.1-.844-.07-1.082-.072-1.112-.057-.91-.036-.93-.027-.472-.011c2.75-3.345 6.116-4.383 9.524-4.831l.32-.04.704-.079.351-.034.8-.07 2.764-.21.773-.07.367-.039c2.804-.309 5.384-.947 7.373-3.013 1.401-1.456.856-2.889-.414-4.668l-.134-.185-.282-.378-.3-.39c-2.336-2.56-5.427-4.438-8.673-5.814l-.488-.203-.71-.28-.713-.265-.535-.19-.535-.181-.713-.23-.356-.11-.355-.105-.707-.203-.176-.049-.176-.048-.699-.183-.692-.171-.683-.16-.674-.148-.663-.138-.65-.126-.637-.117-.926-.157-.596-.093-.858-.124-.812-.105-1.002-.115-1.108-.107-.58-.047-.944-.062-.702-.031-1.108-.019c-3.947-.04-7.728.19-11.316.617 11.997-19.373 34.088-31.287 57.859-28.789z" fill="#E3E7E9"/><path d="M226.839 287.83c3.165.332 6.098-.129 8.799-1.384 2.7-1.254 4.973-3.192 6.818-5.813 1.845-2.622 3.096-5.744 3.754-9.367.056-.24.111-.62.165-1.137.212-2.008.035-3.919-.528-5.732-.563-1.813-1.542-3.331-2.936-4.555-1.395-1.223-3.188-1.95-5.379-2.18a21.86 21.86 0 00-1.488-.11c-.445-.017-.96-.01-1.549.021.042-.395-.153-.739-.584-1.03-.43-.292-1.087-.484-1.97-.577-1.308-.137-2.33.51-3.065 1.94-2.593.373-4.653.941-6.179 1.704-.602.46-.938 1.024-1.009 1.694-.06.578-.028 1.15.097 1.718.125.567.35 1.052.677 1.456 1.274-.697 2.805-1.213 4.594-1.548l-6.737 17.983c-.123.295-.202.61-.237.945-.061.578.098 1.256.478 2.035.38.778.867 1.483 1.462 2.115.596.632 1.132 1.019 1.61 1.161 1.255.347 2.324.568 3.207.66zm1.416-4.698a9.824 9.824 0 01-2.345-.523c.303-.83 1.121-3.052 2.455-6.665 2.49-6.723 4.135-11.242 4.932-13.558a13.713 13.713 0 012.348.062c1.978.208 3.374.977 4.188 2.31.813 1.33 1.108 3.062.884 5.192-.099.943-.25 1.79-.45 2.537a18.98 18.98 0 01-2.298 5.39c-1.056 1.704-2.406 3.062-4.051 4.073-1.645 1.012-3.532 1.406-5.663 1.182zm20.455 6.811c.913.096 1.516.067 1.809-.086 2.421-.207 6.559-.342 12.411-.404a4.707 4.707 0 001.987-.898c.602-.46.932-.964.99-1.512.092-.882-.428-1.645-1.56-2.287-3.806-.092-7.772.03-11.9.365l.514-1.377c.938-2.486 1.678-4.546 2.22-6.182 1.705-.128 3.958-.199 6.76-.212h2.63a4.707 4.707 0 001.987-.9c.602-.46.932-.963.99-1.51.093-.883-.427-1.646-1.56-2.288a65.866 65.866 0 00-4.27.013c-1.282.05-2.898.126-4.847.229l2.913-7.955c2.119.038 3.96.085 5.523.142 1.563.056 2.805.102 3.724.137l2.023.075a5.201 5.201 0 002.089-.773c.643-.41.993-.888 1.05-1.436.093-.882-.378-1.67-1.412-2.364-1.769-.155-4.722-.304-8.86-.446-4.14-.143-7.366-.182-9.68-.118-1.15.402-1.802 1.042-1.956 1.918-.032.304.042.627.221.97.18.341.281.544.305.608.345.529.515.962.51 1.3l.137.014-7.368 20.04a3.38 3.38 0 00-.238.945c-.09.852.152 1.708.723 2.568.57.86 1.283 1.335 2.135 1.424zm40.323 4.839c.426.044.81.054 1.15.028.341-.026.726-.1 1.155-.225.428-.124.737-.207.926-.248.536-.129.822-.36.857-.695.042-.396-.206-1.106-.745-2.132-.538-1.026-1.797-3.243-3.778-6.65l-2.3-4.027c2.755-.449 5.079-1.405 6.971-2.867 1.892-1.463 2.98-3.549 3.265-6.257.131-1.248-.12-2.52-.752-3.817-.633-1.298-1.632-2.41-2.996-3.338-1.363-.928-3.02-1.495-4.967-1.7-1.704-.178-3.814-.162-6.328.05-2.515.214-4.711.621-6.59 1.224-1.879.602-2.868 1.375-2.967 2.319a5.565 5.565 0 00.112 1.788c.136.614.351 1.122.648 1.522.905-.705 2.172-1.202 3.803-1.492l-7.764 20.737c-.124.295-.203.61-.238.944-.08.76.084 1.324.492 1.69.407.366 1.083.599 2.026.698 1.126.118 1.97-.085 2.534-.61.563-.526 1.022-1.309 1.377-2.348a339.885 339.885 0 013.213-8.616c.393.072 1.015.153 1.867.242l.685.072 6.907 13.326c.319.187.797.314 1.437.382zm-7.944-17.958c-.67-.07-1.185-.14-1.547-.209.85-2.526 1.902-5.507 3.156-8.945 1.475-.276 2.669-.365 3.582-.27 1.643.173 2.914.668 3.813 1.486.898.817 1.285 1.82 1.16 3.006-.137 1.309-.747 2.353-1.828 3.131-1.082.779-2.377 1.312-3.884 1.6a15.17 15.17 0 01-4.452.201zm29.291 19.647c1.279.135 2.178.068 2.698-.2.521-.269.841-.828.961-1.676.403-3.25 1.032-6.669 1.886-10.256.854-3.587 1.906-6.792 3.156-9.614.186 1.158.372 2.323.556 3.497.184 1.173.371 2.323.56 3.45.507 3.377.86 5.583 1.058 6.62.178.941 1.195 1.51 3.052 1.705.943.099 1.69-.13 2.241-.688l9.19-11.033a708.056 708.056 0 00-4.994 15.905c-.245.867-.374 1.36-.387 1.482-.086.822.195 1.444.843 1.866.648.422 1.641.703 2.98.844.548.057 1-.141 1.355-.596.356-.455.646-1.025.872-1.708l1.674-4.948c3.08-8.814 5.157-15.257 6.231-19.329.112-.48.176-.797.192-.949.125-1.187-.158-2.009-.848-2.466-.69-.457-1.736-.76-3.136-.906-.517-.055-1.225.31-2.122 1.092-.898.783-2.33 2.332-4.296 4.648-1.967 2.317-4.764 5.807-8.393 10.472l-2.681-16.205c-.023-.371-.344-.682-.964-.932s-1.34-.418-2.162-.504c-2.1-.22-4.037 1.591-5.81 5.435-1.773 3.845-3.213 8.101-4.319 12.77-1.106 4.668-1.758 7.945-1.956 9.832-.08.76.091 1.325.514 1.692.423.368 1.106.601 2.05.7zm55.289 6.042c.73.077 1.37-.156 1.92-.698.549-.542.877-1.177.984-1.904-.221-1.993-.294-4.23-.217-6.715.03-2.92.248-6.312.654-10.177.131-1.248.34-2.934.624-5.058l.487-4.195c.083-.79-.084-1.393-.502-1.806-.419-.413-1.343-.695-2.773-.845-.944-.1-1.882.048-2.816.442-.934.394-1.714.943-2.342 1.646-2.578 2.868-4.739 5.348-6.482 7.442a136.849 136.849 0 00-4.983 6.353c-1.32 1.43-2.793 3.299-4.42 5.604a503.972 503.972 0 01-2.817 3.973c-.586.893-.895 1.337-.925 1.334-.014.43.322.888 1.01 1.375.686.488 1.486.78 2.4.876.547.057 1.017-.024 1.41-.245.392-.22.928-.633 1.607-1.238a9.755 9.755 0 001.594-1.771 60.125 60.125 0 001.84-2.807c.332-.519.79-1.224 1.377-2.116 2.374-.336 5.557-.616 9.55-.843l-.081.777c-.286 2.764-.45 4.624-.495 5.578-.024 1.69.186 2.912.63 3.666s1.366 1.205 2.766 1.352zm-8.714-15.454a520.48 520.48 0 014.113-5.544c1.341-1.782 2.393-3.08 3.155-3.892-.227.992-.446 2.492-.657 4.5-.1.944-.23 2.484-.394 4.62l-3.709.164c-1.047.013-1.884.064-2.508.152zm22.008 16.62c1.126.12 1.97-.084 2.533-.61.563-.525 1.022-1.308 1.378-2.347.172-.475.367-1.008.583-1.6l.133-.365c.18-.498.375-1.044.585-1.637a888.128 888.128 0 012.59-7.297 507.573 507.573 0 003.068-8.77c.08-.176.14-.446.178-.812.073-.7-.051-1.128-.373-1.285l8.032.429a4.707 4.707 0 001.986-.899c.603-.46.932-.963.99-1.511.051-.487-.075-.97-.379-1.448a3.27 3.27 0 00-1.152-1.113c-.77.011-2.256-.053-4.456-.192a526.667 526.667 0 00-10.617-.423c-2.762-.075-4.919-.04-6.473.104a3.27 3.27 0 00-1.358.85c-.396.404-.62.85-.671 1.337-.064.608.04 1.15.313 1.625.274.475.703.85 1.29 1.128.59-.061 2.067-.06 4.43.004 1.79-.008 2.78-.01 2.968-.008h.033l-7.892 21.509c-.123.295-.202.61-.237.944-.08.76.083 1.324.491 1.69.408.366 1.083.599 2.027.698zm36.721 4.414c.426.045.81.054 1.151.029.341-.026.726-.1 1.154-.225.429-.124.737-.207.926-.249.537-.128.823-.36.858-.694.042-.396-.207-1.107-.745-2.132-.538-1.026-1.798-3.243-3.778-6.651l-2.3-4.026c2.755-.45 5.079-1.405 6.97-2.868 1.893-1.462 2.981-3.548 3.266-6.256.131-1.248-.12-2.52-.753-3.818-.632-1.297-1.63-2.41-2.995-3.338-1.364-.928-3.02-1.494-4.967-1.699-1.705-.179-3.814-.162-6.329.05-2.514.213-4.71.62-6.59 1.223-1.878.603-2.867 1.376-2.966 2.32a5.565 5.565 0 00.112 1.788c.135.614.351 1.121.648 1.522.904-.705 2.172-1.203 3.802-1.493l-7.764 20.737c-.123.295-.202.61-.237.945-.08.76.084 1.324.491 1.69.408.366 1.083.598 2.027.697 1.126.119 1.97-.085 2.533-.61.563-.526 1.022-1.308 1.378-2.348a339.885 339.885 0 013.213-8.616c.392.072 1.015.153 1.867.243l.684.072 6.907 13.325c.32.188.798.315 1.437.382zm-7.943-17.957c-.67-.07-1.185-.14-1.547-.21.85-2.525 1.902-5.507 3.155-8.944 1.475-.276 2.67-.366 3.582-.27 1.644.173 2.915.668 3.813 1.485.9.818 1.286 1.82 1.161 3.007-.137 1.309-.747 2.352-1.829 3.13-1.082.78-2.376 1.313-3.883 1.6a15.17 15.17 0 01-4.452.202zm18.986 18.149c.882.092 1.625-.676 2.227-2.305 1.42-4.435 3.126-9.694 5.12-15.777 1.992-6.082 3.18-9.627 3.563-10.633a1.493 1.493 0 00-.619-.918c-.33-.235-.98-.404-1.954-.506-.822-.086-1.524-.068-2.106.056-.582.123-.962.437-1.138.942a1532.5 1532.5 0 01-7.663 22.41c-.967 2.759-1.456 4.2-1.47 4.321-.137 1.31 1.21 2.112 4.04 2.41zm9.157 2.762c.639.067 1.348-.09 2.126-.469.334-.18.853-.55 1.556-1.111l.313-.252c1.946-1.582 5.115-4.421 9.508-8.518 2.281 3.47 4.45 6.406 6.505 8.807 1.253 1.547 2.26 2.36 3.02 2.44.67.07 1.257-.098 1.761-.507.434-.324.678-.744.733-1.261.054-.518-.241-1.441-.886-2.77-.645-1.33-1.25-2.378-1.816-3.145-1.935-2.665-3.64-5.182-5.113-7.553l1.638-1.535c4.197-3.928 6.7-6.219 7.507-6.872a4.953 4.953 0 011.085-.67c.388-.176.63-.289.728-.34.482-.195.824-.367 1.024-.515a.982.982 0 00.384-.583l.098-.497c.047-.15.09-.422.133-.817.179-1.704-.569-2.644-2.242-2.82-1.035-.11-2.36.49-3.974 1.797-1.241.978-4.271 3.751-9.09 8.322-2.377-4.312-3.61-7.657-3.699-10.035a5.523 5.523 0 01-.005-.831c-.263-1.013-.987-1.581-2.174-1.706-.974-.102-2.036.048-3.186.45-.35.117-.594.307-.729.57-.135.262-.225.607-.27 1.033-.16 1.521.294 3.569 1.362 6.143 1.068 2.573 2.532 5.404 4.392 8.492-6.156 5.876-9.95 9.338-11.384 10.388l-1.045.72c-.104.113-.22.331-.346.657l-.02.182c-.054.518.227 1.07.842 1.658.224.208.403.411.536.61s.242.333.327.403c.085.071.218.116.4.135zm-198.711 25.766c-.035 1.23 1.299 1.987 4.002 2.271.913.096 1.67-.67 2.272-2.3a365.33 365.33 0 002.74-8.065c.529-1.514 1.548-4.476 3.057-8.886 1.51-4.41 2.714-7.815 3.612-10.213-.093-.287-.307-.517-.643-.69-.335-.174-1.055-.427-2.158-.758a22.69 22.69 0 00-1.138.065 3.93 3.93 0 00-1.374.34c-.405.188-.799.647-1.183 1.376-1.99 2.53-4.737 6.056-8.243 10.58a5262.103 5262.103 0 01-7.553 9.728l-1.267-23.07.01-.092c.007-.369-.299-.678-.919-.927-.62-.25-1.34-.418-2.162-.505-1.004-.105-1.72.043-2.147.444-.426.401-.878 1.254-1.353 2.558l-8.85 24.038c-.123.295-.202.61-.237.944-.08.761.084 1.325.491 1.69.408.366 1.084.599 2.027.698 1.217.128 2.063.063 2.536-.195.473-.258.863-.817 1.168-1.677l5.332-14.716.96 15.008c-.132.386.123.813.766 1.28.643.468 1.36.744 2.152.827.943.099 1.69-.13 2.241-.688l10.562-13.105-1.234 3.84c-2.274 6.966-3.427 10.335-3.46 10.108v-.012l-.007.104zm17.092 3.185c.913.096 1.516.067 1.809-.086 2.421-.207 6.558-.342 12.411-.404a4.707 4.707 0 001.987-.899c.602-.46.932-.963.99-1.51.092-.883-.428-1.646-1.56-2.288-3.806-.092-7.772.03-11.9.365l.514-1.377c.938-2.486 1.678-4.546 2.219-6.182 1.706-.128 3.96-.2 6.76-.212h2.631a4.707 4.707 0 001.987-.9c.602-.46.932-.963.99-1.511.093-.883-.427-1.645-1.56-2.287a65.866 65.866 0 00-4.27.013c-1.282.05-2.898.126-4.847.229l2.913-7.955c2.119.038 3.96.085 5.523.142 1.563.056 2.805.102 3.724.137l2.023.074a5.201 5.201 0 002.089-.772c.643-.41.993-.888 1.05-1.436.093-.883-.378-1.67-1.412-2.364-1.769-.155-4.722-.304-8.861-.447-4.139-.142-7.365-.181-9.68-.117-1.15.402-1.801 1.041-1.955 1.918-.032.304.042.627.221.969.18.342.281.545.305.609.345.528.515.962.51 1.3l.137.014-7.368 20.04a3.38 3.38 0 00-.238.945c-.09.852.152 1.708.723 2.568.57.86 1.282 1.335 2.135 1.424zm30.813 3.977c2.709.285 5.117.207 7.224-.233 2.108-.44 3.799-1.231 5.073-2.374 1.274-1.143 2.002-2.582 2.184-4.317.17-1.612-.026-2.971-.586-4.077-.561-1.105-1.29-2.004-2.186-2.698-.896-.695-2.128-1.493-3.694-2.396l-1.302-.783-1.572-.858c-1.366-.759-2.365-1.425-2.997-2-.632-.574-.899-1.332-.8-2.276.135-1.278.836-2.312 2.103-3.102 1.268-.79 2.906-1.079 4.915-.868a7.024 7.024 0 013.052 1.036c.91.573 1.602 1.376 2.078 2.411.05.098.096.249.137.453.04.204.127.398.261.581.135.184.385.295.75.333.944.1 1.784-.066 2.521-.497.738-.43 1.152-1.07 1.241-1.923.1-.943-.243-1.933-1.026-2.97-.784-1.036-1.935-1.941-3.453-2.716-1.519-.775-3.282-1.268-5.29-1.48-2.618-.274-4.92-.109-6.907.498-1.986.607-3.549 1.565-4.686 2.877-1.138 1.31-1.802 2.864-1.99 4.66-.211 2.008.197 3.682 1.226 5.02 1.028 1.34 2.48 2.6 4.356 3.781l2.304 1.35c1.72.92 2.995 1.738 3.827 2.456.832.719 1.199 1.55 1.1 2.493-.119 1.126-.843 1.942-2.173 2.448-1.33.507-2.802.675-4.415.505-.882-.092-1.888-.406-3.016-.94-1.129-.534-2.098-1.197-2.907-1.99-.809-.792-1.243-1.638-1.302-2.537-1.422.066-2.544.34-3.363.824-.82.483-1.277 1.166-1.37 2.048-.096.913.317 1.895 1.237 2.946.92 1.05 2.223 1.98 3.907 2.787 1.684.808 3.53 1.317 5.54 1.528zm25.778 2.71c2.282.24 4.378.13 6.288-.332 1.91-.46 3.455-1.252 4.634-2.374 1.18-1.122 1.86-2.535 2.038-4.24.173-1.643-.009-3.062-.545-4.257-.535-1.195-1.225-2.175-2.067-2.94-.843-.766-2.024-1.674-3.545-2.726l-1.297-.83c-1.184-.739-2.046-1.391-2.587-1.956-.54-.564-.776-1.32-.708-2.266.135-1.278.737-2.323 1.807-3.133 1.07-.811 2.456-1.127 4.16-.948.944.1 1.81.429 2.597.989.787.56 1.373 1.352 1.758 2.377.02.094.05.243.09.448.041.204.12.397.24.579.12.181.346.29.681.325a2.955 2.955 0 002.063-.522c.614-.427.964-1.052 1.05-1.874.103-.974-.176-1.98-.836-3.018-.66-1.039-1.635-1.934-2.926-2.685-1.29-.75-2.787-1.216-4.491-1.395-2.191-.23-4.181-.032-5.97.596-1.79.627-3.23 1.591-4.32 2.892-1.09 1.3-1.727 2.818-1.909 4.553-.15 1.43.032 2.696.547 3.796.515 1.1 1.165 2.015 1.95 2.743.785.729 1.763 1.524 2.934 2.385l1.074.76c1.463 1.015 2.51 1.886 3.14 2.614.632.728.907 1.626.825 2.694-.118 1.126-.736 1.954-1.853 2.482-1.117.53-2.36.722-3.73.578-.76-.08-1.606-.377-2.537-.89a8.686 8.686 0 01-2.404-1.937c-.672-.779-1.038-1.617-1.097-2.516-1.21.089-2.162.373-2.859.854-.697.48-1.09 1.147-1.18 1.999-.098.943.243 1.94 1.025 2.992.781 1.051 1.877 1.967 3.288 2.746 1.41.779 2.968 1.258 4.672 1.437zm18.87 1.245c.913.096 1.516.067 1.81-.087 2.42-.207 6.558-.342 12.41-.403a4.707 4.707 0 001.987-.9c.602-.459.932-.963.99-1.51.093-.883-.427-1.645-1.56-2.287-3.745-.086-7.711.035-11.9.364 1.522-3.932 2.637-6.938 3.348-9.017 1.706-.128 3.96-.2 6.76-.212h2.632a4.707 4.707 0 001.986-.9c.603-.46.932-.963.99-1.511.093-.883-.427-1.645-1.56-2.287a65.866 65.866 0 00-4.27.013c-1.282.05-2.898.126-4.847.229l2.344-6.492c2.21.047 4.09.099 5.637.154l3.656.13 1.931.065a5.201 5.201 0 002.09-.773c.642-.41.993-.888 1.05-1.436.093-.882-.378-1.67-1.413-2.364-1.768-.155-4.722-.304-8.86-.446-4.14-.143-7.366-.182-9.68-.118-1.15.403-1.802 1.042-1.956 1.918-.032.304.042.627.222.97.179.341.28.544.305.608.344.529.514.962.51 1.3l.136.014-7.367 20.04a3.32 3.32 0 00-.238.945c-.09.852.151 1.708.722 2.568.571.86 1.283 1.335 2.135 1.425zm41.752 4.85c.913.095 1.67-.671 2.273-2.3a365.33 365.33 0 002.74-8.066c.528-1.513 1.547-4.475 3.057-8.886 1.51-4.41 2.713-7.815 3.612-10.212-.093-.287-.308-.517-.643-.691-.336-.174-1.055-.426-2.159-.758-.902.09-1.763.523-2.582 1.298-.82.775-1.51 1.78-2.071 3.013-.724 1.616-2.577 7.098-5.56 16.446l-5.209-21.131.015-.137c.008-.369-.298-.678-.918-.928-.62-.25-1.341-.417-2.163-.504-1.004-.105-1.72.042-2.146.444-.427.401-.878 1.254-1.354 2.557l-8.85 24.039a3.38 3.38 0 00-.237.944c-.08.761.084 1.324.492 1.69.407.366 1.083.599 2.026.698 1.218.128 2.063.063 2.536-.195.473-.258.863-.817 1.169-1.677a399.56 399.56 0 012.529-6.934l4.039-11.206 5.349 20.685.1-.082c.233 1.009 1.551 1.64 3.955 1.892zm19.438 1.996a16.452 16.452 0 007.337-.867c2.365-.844 4.351-2.173 5.957-3.99 1.607-1.815 2.544-4 2.813-6.557.102-.974.11-1.78.023-2.42-.086-.64-.403-1.212-.95-1.716-.547-.504-1.444-.821-2.692-.952-1.461-.154-2.75-.19-3.866-.106-1.116.082-2.44.243-3.974.482-.363.239-.691.65-.983 1.235-.292.585-.463 1.105-.51 1.562-.07.67.116 1.158.56 1.466.445.309 1.154.514 2.128.616.822.087 1.473.109 1.955.067a14.41 14.41 0 001.618-.245c.472-.104.862-.156 1.17-.154-.147 1.4-.757 2.659-1.828 3.777a10.78 10.78 0 01-3.776 2.557c-1.447.586-2.763.817-3.95.692-1.643-.172-2.922-.745-3.835-1.718-.913-.973-1.294-2.175-1.144-3.605.326-3.104 1.159-5.901 2.498-8.391 1.338-2.49 2.923-4.4 4.756-5.73 1.832-1.331 3.585-1.909 5.258-1.733.7.074 1.264.349 1.69.824.428.476.62.911.579 1.307a4.6 4.6 0 00.333 2.32c.308.724.919 1.135 1.832 1.23 1.156.122 2.066-.044 2.73-.497.662-.453 1.043-1.152 1.142-2.095.122-1.157-.156-2.317-.834-3.48-.677-1.164-1.772-2.163-3.285-3-1.512-.835-3.378-1.37-5.6-1.603-2.374-.25-4.779.459-7.216 2.126-2.436 1.667-4.521 4.01-6.253 7.027-1.733 3.018-2.788 6.322-3.165 9.913-.31 2.952.28 5.537 1.769 7.755 1.49 2.218 4.06 3.52 7.713 3.903zm24.595 2.54c1.705.178 3.545.233 5.521.164a69.98 69.98 0 005.488-.392 4.756 4.756 0 001.94-.904c.603-.46.933-.964.99-1.511.051-.487-.078-1.009-.39-1.564-.31-.556-.682-.964-1.117-1.225l-1.676.146c-1.679.162-3.044.273-4.097.331a19.801 19.801 0 01-3.176-.08c-1.521-.16-2.236-.68-2.143-1.563.02-.183.057-.402.115-.657.058-.256.111-.473.161-.653l2.45-6.619c1.736-.125 3.99-.196 6.76-.213l2.585-.005a4.647 4.647 0 001.962-.878c.585-.446.907-.943.964-1.491.1-.943-.434-1.723-1.6-2.337a66.663 66.663 0 00-4.225.017c-1.282.05-2.913.125-4.893.224a144.8 144.8 0 002.207-6.506c2.12.038 3.953.085 5.5.14 1.549.055 2.798.101 3.747.14l2.023.074a5.004 5.004 0 002.066-.775c.628-.411.97-.89 1.028-1.439.093-.882-.393-1.672-1.458-2.368-1.769-.155-4.722-.304-8.86-.447-4.14-.143-7.366-.182-9.68-.117-1.12.405-1.757 1.046-1.91 1.922-.002.308.087.632.267.974.179.342.28.545.305.61.368.592.553 1.027.555 1.304l-6.179 17.95c-.309.89-.5 1.686-.574 2.386-.179 1.704.271 2.982 1.351 3.834 1.08.852 2.41 1.36 3.993 1.527zm38.952 6.032c.73.076 1.263-.021 1.6-.294.336-.272.535-.559.598-.86-.012-.186-.135-.691-.372-1.516-.236-.825-.409-1.304-.518-1.439-.88-.985-1.95-2.528-3.205-4.63-1.256-2.1-2.315-4.027-3.177-5.779 2.974-.487 5.38-1.565 7.216-3.234 1.837-1.668 2.9-3.872 3.187-6.61a7.05 7.05 0 00-.867-4.269c-.737-1.323-1.972-2.453-3.705-3.39-1.732-.935-3.968-1.547-6.707-1.835-2.282-.24-4.862-.28-7.74-.121-1.12.405-1.757 1.046-1.91 1.922-.002.308.087.633.267.974.179.342.28.545.305.61.368.592.553 1.027.555 1.304l-7.567 21.496a3.38 3.38 0 00-.238.945c-.05.764.13 1.329.538 1.695.407.365 1.083.598 2.026.697 1.157.122 1.973-.031 2.448-.458.476-.427.888-1.13 1.237-2.108l2.803-7.783c.392.072 1.014.153 1.867.243l.684.072c.74 2.324 1.998 4.925 3.772 7.804 1.775 2.879 3.338 4.912 4.69 6.1.227.178.965.332 2.213.464zm-10.056-19.38c-.67-.07-1.185-.14-1.547-.209l1.405-4.144c.853-2.557 1.424-4.327 1.712-5.313a13.862 13.862 0 012.443.027c1.705.179 3.04.642 4.008 1.39.968.748 1.384 1.76 1.25 3.039-.125 1.187-.624 2.204-1.498 3.05-.873.847-1.992 1.46-3.354 1.84-1.363.38-2.836.486-4.419.32zm-186.244 46.326c2.458-.264 5.95-.405 10.475-.422l1.85-.036a4.707 4.707 0 001.986-.899c.602-.46.932-.963.99-1.511.093-.883-.427-1.645-1.56-2.287l-3.553-.004 1.815-4.979c2.65-7.352 4.353-12.142 5.11-14.37l2.545-.056a4.707 4.707 0 001.987-.898c.602-.46.932-.964.99-1.512.092-.882-.428-1.645-1.56-2.287-4.451-.098-8.9.065-13.344.49-1.241.393-1.908 1.03-2 1.913-.065.608.04 1.15.313 1.625.273.475.703.85 1.29 1.128a65.402 65.402 0 013.718-.255l-7.118 19.42a86.02 86.02 0 00-3.536.275c-1.241.392-1.908 1.03-2.001 1.912-.064.609.04 1.15.314 1.626.273.474.702.85 1.289 1.127zm28.026 3.27c2.709.284 5.117.206 7.225-.234 2.107-.44 3.798-1.231 5.072-2.374s2.002-2.582 2.184-4.317c.17-1.613-.026-2.972-.586-4.077-.561-1.105-1.29-2.004-2.186-2.699-.896-.694-2.128-1.492-3.694-2.396l-1.302-.783-1.572-.857c-1.366-.759-2.365-1.426-2.997-2-.632-.574-.899-1.333-.8-2.276.16-1.522.795-2.732 1.905-3.63 1.11-.9 2.563-1.254 4.358-1.065 1.643.172 2.955.502 3.934.99.98.488 1.52.983 1.621 1.486-.114.203-.335.849-.665 1.937-.33 1.089-.55 1.873-.663 2.354-.166 1.582.512 2.453 2.033 2.613.883.093 1.671-.162 2.365-.766a6.702 6.702 0 001.665-2.225c.415-.88.657-1.639.724-2.278.118-1.126-.162-2.263-.841-3.411-.68-1.149-1.858-2.165-3.534-3.049-1.676-.884-3.869-1.468-6.577-1.753-1.704-.179-3.478-.057-5.323.364a10.71 10.71 0 00-4.856 2.513c-1.393 1.253-2.207 2.99-2.44 5.212-.211 2.009.197 3.683 1.226 5.021 1.028 1.34 2.48 2.6 4.356 3.781l2.304 1.35c1.72.92 2.995 1.738 3.827 2.456.832.718 1.199 1.55 1.1 2.493-.119 1.126-.843 1.942-2.173 2.448s-2.802.675-4.415.505c-.882-.092-1.888-.406-3.016-.94-1.129-.534-2.098-1.197-2.906-1.99-.81-.793-1.244-1.638-1.303-2.537-1.422.066-2.543.34-3.363.824-.82.483-1.277 1.165-1.37 2.048-.096.913.317 1.895 1.237 2.945.92 1.05 2.223 1.98 3.907 2.788 1.684.808 3.53 1.317 5.54 1.528zm25.006 1.704c1.126.119 1.97-.085 2.534-.61.563-.526 1.022-1.308 1.377-2.348l7.517-21.455 6.004.4a4.707 4.707 0 001.987-.899c.602-.46.932-.964.99-1.511.05-.487-.076-.97-.38-1.448a3.27 3.27 0 00-1.152-1.113c-.831.005-2.362-.064-4.593-.206-8.042-.476-13.306-.599-15.792-.368a3.27 3.27 0 00-1.359.85c-.396.404-.62.85-.67 1.337-.065.609.04 1.15.313 1.625.273.475.703.851 1.289 1.128.591-.06 2.068-.06 4.43.004 1.97-.008 2.97-.01 3.001-.007l-7.776 21.29a3.33 3.33 0 00-.238.944c-.08.76.084 1.324.492 1.69.408.366 1.083.598 2.026.697zm35.055 4.33c3.5.369 6.577-.077 9.233-1.336 2.655-1.26 4.76-3.13 6.313-5.614 1.553-2.482 2.504-5.382 2.853-8.7a18.373 18.373 0 00-.45-6.485c-.532-2.102-1.485-3.872-2.857-5.308s-3.138-2.268-5.299-2.495c-3.926-.413-7.065-.335-9.417.233-2.352.568-3.61 1.628-3.772 3.18-.058.548.082.97.42 1.268.338.297.796.475 1.375.536.456.048.817-.021 1.083-.209l-5.19 14.685c-.332.827-.558 1.803-.676 2.929-.263 2.495.142 4.276 1.215 5.343 1.072 1.066 2.795 1.724 5.17 1.974zm1.326-4.706c-.396-.041-.786-.213-1.17-.515-.383-.302-.639-.721-.767-1.258a1434.75 1434.75 0 006.335-18.995 13.713 13.713 0 012.347.062c1.917.202 3.251 1.196 4.002 2.982.75 1.787.998 3.897.742 6.332-.24 2.282-.823 4.321-1.75 6.116s-2.22 3.182-3.876 4.162c-1.657.98-3.611 1.35-5.863 1.114zm39.398 8.803c.73.076 1.37-.156 1.92-.699.549-.542.877-1.177.984-1.904-.221-1.992-.293-4.23-.217-6.715.03-2.92.248-6.312.654-10.177.132-1.248.34-2.934.624-5.057l.487-4.195c.083-.791-.084-1.394-.502-1.807-.418-.413-1.342-.695-2.773-.845-.943-.1-1.882.048-2.815.442-.934.395-1.715.943-2.343 1.646-2.578 2.868-4.739 5.348-6.482 7.442a136.849 136.849 0 00-4.983 6.353c-1.32 1.43-2.792 3.299-4.42 5.605a503.972 503.972 0 01-2.817 3.973c-.586.892-.894 1.336-.925 1.333-.014.43.322.888 1.01 1.376.687.487 1.487.779 2.4.875.548.057 1.018-.024 1.41-.244.392-.22.928-.633 1.607-1.239a9.755 9.755 0 001.594-1.77 60.125 60.125 0 001.841-2.807c.332-.52.79-1.225 1.376-2.117 2.374-.335 5.557-.616 9.55-.843l-.08.777c-.287 2.764-.451 4.624-.495 5.578-.024 1.69.186 2.912.63 3.666.443.755 1.365 1.205 2.765 1.353zm-8.714-15.454a520.48 520.48 0 014.114-5.545c1.34-1.782 2.392-3.08 3.155-3.891-.228.991-.447 2.491-.658 4.5a184.3 184.3 0 00-.393 4.62l-3.71.164c-1.047.013-1.883.063-2.508.152zm19.957 8.466c1.005.106 1.728.028 2.171-.233.443-.261.799-.793 1.068-1.596l6.897-19.074c.182-.566.048-1.041-.404-1.427-.452-.386-1.134-.627-2.047-.723-1.856-.195-3.015.437-3.476 1.896-.81 2.438-1.897 5.462-3.261 9.072-1.022 2.693-1.81 4.849-2.365 6.467-.554 1.619-.872 2.808-.952 3.57-.124 1.186.665 1.87 2.37 2.048zm-2.605 7.665c1.065.112 2.068-.137 3.009-.746.94-.608 1.46-1.384 1.56-2.328.096-.913-.152-1.624-.745-2.132s-1.36-.812-2.304-.911c-1.065-.112-2 .136-2.801.744-.803.608-1.246 1.307-1.329 2.098-.083.792.134 1.514.65 2.169.515.654 1.169 1.022 1.96 1.106z" fill="#344450" fill-rule="nonzero"/><path d="M532.984 247.843l.307.236c.418.334.867.746 1.349 1.236l.367.382.188.202.385.426.197.224.403.47.415.499.427.528.438.558.224.29 22.679 37.156c.17.251.344.509.518.773l.529.81.268.419.54.866.274.447.55.92c8.286 14.072 17.978 40.123 6.334 68.956-2.364 5.855-5.283 16.856-7.698 21.485-20.7 46.113-54.034 69.255-102.969 80.839l4.094-20.423c18.985-2.53 35.24-12.38 45.39-29.147l1.725-65.94.005-.493v-.967l-.006-.495c-.1-6.4-2.057-9.219-4.71-11.233l-.366-.27a18.785 18.785 0 00-.186-.131l-.378-.258-.58-.376-.593-.368-1.838-1.105-.625-.388-.628-.405-.21-.14-1.514-.966-.98-.632-1.428-.931-1.374-.91-1.322-.888-1.27-.867-.817-.566-1.182-.832-1.129-.81-.723-.529-1.042-.774-.989-.754-.63-.49-.607-.481-.583-.472-.56-.462-.537-.453-.513-.443-.49-.434-.466-.424-.443-.415-.42-.406-.396-.395-.19-.195-.361-.382-.338-.372-.315-.363-.291-.353c-1.305-1.627-1.846-2.945-1.623-3.955.335-1.523 2.036-2.76 5.103-3.71l.555-.166.584-.158.612-.153.64-.147.67-.141.696-.135.726-.13.754-.123.782-.117.402-.056.824-.108.853-.103.882-.096.91-.09.937-.085.967-.079.995-.072 1.023-.067 1.051-.06 1.08-.055.55-.025 1.029-.083 1.864-.127.293-.016-1.098-.481-1.602-.714-1.038-.47-1.512-.696-.978-.46-.955-.454-.93-.45-.906-.445-.883-.441-1.278-.654-.823-.43-1.189-.637-.763-.419-.738-.414-.715-.41-.69-.406-.668-.4-.643-.398-.619-.392-.595-.388a50.16 50.16 0 01-.288-.192l-.56-.381-.534-.377a39.05 39.05 0 01-.26-.187l-.498-.37a33.378 33.378 0 01-.24-.183l-.464-.363-.223-.18-.427-.357-.205-.177-.392-.35-.367-.346c-2.074-2.003-2.926-3.78-2.555-5.33.892-3.732 4.223-4.905 8.422-5.202l.592-.036.602-.025.611-.016.62-.008.943.001.957.015 1.292.034 2.609.085 1.302.036.647.013.803.021.409.017.952.055.977.075.8.074 1.022.111 1.047.13.857.116.872.128.442.067c-1.95-3.457-4.792-4.996-7.788-5.98l-.601-.189-.644-.189-.323-.09-.735-.196-2.546-.651-.71-.193-.337-.097-.636-.194c-2.31-.735-4.362-1.765-5.752-3.833-1.025-1.526-.382-2.736.978-4.114l.314-.309.509-.477.179-.162c3.239-2.497 7.394-3.813 11.445-4.467l.714-.108.71-.096.353-.042.703-.077.696-.066c.115-.01.23-.02.345-.028l.684-.05.674-.039.664-.03.327-.011.645-.017.63-.01h.917l.879.013.835.025 1.04.048.947.06.643.05.58.052.956.1.86.113.05.007a84.386 84.386 0 0116.215 4.198c-.993-9.316-.24-15.966 2.262-19.949.616-.981 1.652-.937 3.108.132zm-366.857-25.834c1.869 4.595 1.434 11.64-1.304 21.136a89.004 89.004 0 0117.612-1.391c1.472.031 18.44.758 26.476 9.565 1.74 2.24 2.773 3.914 1.13 5.621-1.989 2.066-4.569 2.704-7.373 3.013l-.367.039-.773.07-2.764.21-.8.07-.351.034-.704.078c-3.517.426-7.008 1.423-9.844 4.872l.472.01.93.028.91.036 1.112.057 1.082.072.844.07 1.029.1.999.118.427.057.839.125c.43.07.864.135 1.3.2l.654.096.333.047.665.095.333.047.997.142.661.095c6.822.997 13.097 2.305 13.439 7.985.283 4.698-9.714 9.487-29.99 14.367l.301.07 1.914.474 1.053.274c14.086 3.128 21.204 6.481 21.356 10.06.151 3.577-8.869 9.11-27.06 16.598-5.762 2.568-22.537 13.294-24.598 23.992-6.63 23.412-5.319 40.683 3.935 51.812 11.577 13.924 25.089 23.296 40.536 28.114l.689.211-.067-.006a.32.32 0 00-.131.029h.27l-1.384 28.799c-59.628-14.443-91.908-50.8-96.84-109.069-1.312-8.482-1.351-16.778-.506-24.65.03-.828.067-1.661.107-2.498l.158.265c3.216-24.818 15.035-45.102 22.872-53.145l30.361-34.441c5.183-4.743 8.202-6.061 9.06-3.953z" fill-opacity=".2" fill="#000"/></g></svg>