<svg width="678" height="678" viewBox="0 0 678 678" xmlns="http://www.w3.org/2000/svg"><g fill="none" fill-rule="evenodd"><path d="M350.035 545.401c142.402 0 246.149 19.703 246.149 34.741 0 15.039-115.44 35.4-257.842 35.4S80.5 595.181 80.5 580.142c0-15.038 127.133-34.74 269.535-34.74z" fill="#ECEEF0"/><path d="M393.452 510.984l8.338 60.535h.205l.41-.002h.614l1.444-.001c9.571.01 41.802.236 46.137 2.82 1.077.638 1.226 3.057 1.226 3.057l-36.263-.702s10.217 1.233 20.681 2.659l1.884.258c9.83 1.36 19.351 2.835 20.28 3.565 1.508 1.186 1.697 4.326 1.697 4.326l-47.064-7.037 32.666 6.7-.045.005c.203.065 1.318.408 1.59 1.976.27 1.57-1.439 3.025-1.439 3.025l-47.173-12.353h-34.237a3.285 3.285 0 013.208-3.177l28.018-3.967-9.653-61.059 7.476-.628zm-98.126 0l7.476.628-7.476 62.35 26.703 3.013a3.285 3.285 0 013.208 3.178l-36.406 1.612-69.106 8.463s-.722-2.619-.447-3.453c.059-.172 2.265-1.128 4.823-1.415 1.706-.19 18.552-2.61 50.537-7.256l-58.398 2.049s.19-3.14 1.697-4.327c.969-.76 13.052-1.224 25.124-1.498l1.478-.032a1793.52 1793.52 0 0123.514-.333h.127l-41.383-2.444s.15-2.419 1.227-3.058c5.1-3.04 58.547 3.058 58.547 3.058l8.755-60.535z" fill="#E98404"/><path d="M343.166 82.088l.577-.02c3.066-.075 5.925.247 8.578.965l1.023.285.955.282c8.196 2.516 5.917 4.206.119 6.408 37.605 2.228 48.808 63.423 50.85 76.302a1.538 1.538 0 01-1.714 1.76l-4.3-.554.058.227.285.923.307.93.362 1.056c.948 2.72 2.426 6.738 3.915 10.866l.372 1.033.37 1.035c1.97 5.51 3.802 10.864 4.262 13.252.96 4.988.235 6.784-1.215 6.989-.967.136-3.348-3.066-7.144-9.608l8.292 27.566h.065l57.371 189.58c4.783 12.62 5.564 25.51 3.38 38.028 22.971-5.582 41.435-24.11 46.191-48.137v-.92l1.83-54.738.005-.493v-.967l-.006-.496c-.1-6.4-2.057-9.218-4.71-11.232l-.366-.27a18.785 18.785 0 00-.186-.132l-.378-.258-.58-.376-.593-.367-1.838-1.106-.625-.387-.628-.406c-.07-.046-.14-.092-.21-.14l-1.514-.966-.98-.632-1.428-.931-1.375-.91-1.321-.888-1.27-.867-.817-.566-1.182-.832-1.129-.81-.723-.528-1.042-.775-.989-.754-.63-.49-.607-.481-.583-.472-.56-.462-.537-.453-.513-.443-.49-.434-.466-.424-.443-.415-.42-.405-.396-.396a11.5 11.5 0 01-.19-.195l-.361-.381-.338-.373-.315-.363-.291-.353c-1.305-1.627-1.846-2.945-1.623-3.954.335-1.524 2.036-2.761 5.103-3.712l.555-.164.584-.16.612-.152.64-.147.67-.141.696-.135.726-.13.754-.122.782-.117c.133-.02.266-.038.402-.057l.824-.108.853-.102.882-.097.91-.09.937-.085.967-.078.995-.073 1.023-.067 1.051-.06 1.08-.055.55-.025 1.029-.082 1.864-.128.293-.016-1.098-.481-1.602-.714-1.038-.47-1.512-.696-.979-.46-.954-.454-.93-.45-.906-.445-.883-.441-1.278-.654-.823-.43-1.189-.636-.763-.42-.738-.414-.715-.41-.69-.405-.668-.402-.643-.396-.619-.393-.595-.387a50.16 50.16 0 01-.288-.193l-.56-.38-.534-.378a39.112 39.112 0 01-.26-.186l-.498-.37a33.327 33.327 0 01-.241-.184l-.463-.363-.223-.18-.427-.357c-.07-.059-.138-.118-.205-.177l-.392-.35-.367-.345c-2.074-2.004-2.926-3.78-2.555-5.33.892-3.733 4.223-4.906 8.422-5.202l.592-.036.602-.026.611-.016.62-.008.943.002.957.014 1.292.034 2.609.086 1.302.036.647.012.803.022.409.017.952.054.977.075.8.075 1.022.11 1.047.13.857.116.872.128.442.068c-1.95-3.457-4.792-4.997-7.788-5.98l-.601-.19-.644-.189-.323-.09-.735-.196-2.546-.65-.71-.194-.337-.097-.636-.193c-2.31-.736-4.362-1.766-5.752-3.834-1.025-1.526-.382-2.736.978-4.114l.314-.309.509-.476.179-.163c3.239-2.496 7.394-3.813 11.445-4.466l.714-.109.71-.095c.118-.015.236-.03.353-.043l.703-.077.696-.066.345-.028.684-.05.674-.038.664-.03.327-.012.645-.017.63-.01h.917l.879.013.835.025 1.04.048.947.06.643.05.58.052.956.1.86.113.05.007a84.386 84.386 0 0116.215 4.199c-.993-9.317-.24-15.967 2.262-19.95.616-.98 1.652-.937 3.108.132l.307.236c.418.334.867.746 1.349 1.236l.367.382.188.202.385.426.197.224.403.47.415.499.427.528.438.558.224.29 22.679 37.157c.17.25.344.508.518.772l.529.81.268.42.54.865.274.447.55.92c8.286 14.072 17.978 40.123 6.334 68.956-2.364 5.855-4.76 11.058-7.176 15.687-20.506 45.684-54.87 74.424-103.09 86.219-6.218 19.537-19.203 37.626-34.737 51.643-23.429 22.539-57.747 35.854-95.985 35.854-30.513 0-58.53-8.478-80.51-23.357-8.066-4.67-15.113-10.965-21.124-18.35-12.847-14.333-21.62-31.82-24.845-51.596l.013.002c-36.355-6.718-61.808-21.073-78.237-43.591-7.192-9.452-13.365-22.144-17.37-39.202-9.136-38.914 10.144-75.288 21.321-86.76l30.362-34.442.556-.504.54-.477.522-.45.506-.421.246-.201.48-.382.462-.354c.076-.057.15-.113.225-.167l.436-.314.42-.286c.068-.046.136-.09.203-.133l.394-.246.377-.219c1.963-1.092 3.193-1.025 3.692.201 1.869 4.595 1.434 11.64-1.303 21.136a89.159 89.159 0 0116.617-1.407l1.18.021.911.045.849.06.816.071.927.095.76.089.813.105.858.124.596.093.925.157.637.117.65.126.663.138.674.148.684.16.692.17.349.091.702.19.707.203c.236.07.473.141.71.215l.713.23c4.282 1.419 8.61 3.596 11.655 6.934l.3.389.282.378.262.368c1.177 1.695 1.638 3.079.285 4.485-1.988 2.066-4.568 2.704-7.372 3.013l-.367.039-.774.07-2.764.21-.8.07-.35.034-.704.078c-3.517.426-7.008 1.423-9.844 4.872l.471.01.93.028.91.036 1.112.057 1.082.072.845.07 1.029.1.998.118.428.057.838.125.974.151.981.145 2.953.421 1.315.198.65.104.961.164.631.117.622.123.61.13.6.138c4.452 1.068 7.836 2.886 8.085 7.016.077 1.269-.596 2.544-2.019 3.826l-.328.284c-.17.143-.35.286-.539.428l-.39.286-.204.143-.427.285c-.293.191-.603.382-.929.573l-.5.286-.26.143-.539.287-.278.144-.575.287c-.098.048-.197.096-.297.143l-.612.288-.315.144-.65.287-.673.288-.699.289-1.094.432-1.15.433-.796.29-.822.289-.847.29-1.316.434-.908.29-.933.29-.957.29-.982.291-1.007.291-1.032.292-1.593.437-1.093.291-1.118.292-1.723.439-1.779.438-.605.147.3.07 1.914.474 1.053.274 1.07.24 1.042.243 1.015.243.987.243.96.245.933.246.905.246.877.247.85.248.415.125.808.25.781.25.754.251.367.126.712.253.685.253.658.255.318.127.617.256c.1.043.2.085.297.128l.576.257c.187.086.37.172.547.258l.52.259.493.26c2.714 1.474 4.103 2.99 4.17 4.55.031.746-.336 1.576-1.1 2.491l-.241.277-.266.282-.289.288c-.1.096-.204.194-.313.292l-.337.298-.36.302-.19.153-.396.31-.42.316-.22.16-.456.322-.237.164-.492.33-.516.336-.54.34-.564.346-.588.351-.302.177-.624.359-.647.364-.671.368-.696.374-.719.38-.743.383-1.159.586-.802.396-1.249.605-.862.41-1.339.623-.922.422-.945.428-1.964.87-2.059.89-1.065.452-1.643.689-1.125.465-.41.188a27.09 27.09 0 00-.217.103l-.457.224-.487.249-.515.271-.54.295-.566.316-.587.338-.608.359-.626.379-.644.399-.658.418-.672.437-.683.455-.693.473-.701.49-.707.505-.711.521c-.357.265-.714.535-1.071.811l-.714.559-.356.284-.71.579c-.118.097-.236.195-.353.294l-.702.598-.695.61c-.23.205-.459.413-.685.622l-.674.632c-4.007 3.825-12.62 34.52-5.309 45.416 10.481 15.62 23.827 23.65 40.236 27.015.177-4.818.657-9.495 1.441-13.951l7.78-29.456c-1.985 2.383-3.498 3.229-4.536 2.536-3.475-2.317 6.554-39.007 15.113-49.951l1.095-1.35c.688-.857 1.146-1.468 1.41-1.877l.17-.673c-1.138.074-11.06 8.775-14.273 6.887-2.37-1.392 11.23-37.189 24.723-74.095l1.124-3.078 1.166-3.201c4.462-12.268 8.811-24.45 12.46-35.325h.04l.339-1.013c2.188-6.575 4.11-12.65 5.632-17.948l3.13-12.815-4.357 4.212c-3.445 3.277-4.551.057-4.231-4.212l.127-1.312.243-2.2c.205-1.72.412-3.11.656-4.447l.067-.363.07-.362c.835-4.28 2.125-8.517 5.053-21.939l1.48-6.844.727-3.296c5.099-22.788 13.048-50.67 34.692-58.734l2.104-.773 4.191-1.52c4.838-1.78 9.406-3.635 12.771-6.16 4.662-3.497 12.128-13.366 14.274-18.312l.186-.448c2.212-5.666 13.862 8.455 9.182 18.791z" fill="#B1063A"/><path d="M302.308 307.079c2.71-7.04 7.48-13.928 9.72-13.345 2.241.583.584 5.966 0 8.204l-.774 3.001c-8.11 31.714-11.117 53.74-9.124 65.696l.178.984c1.72 8.75 5.868 10.18 15.56 4.783l1.08-.615c5.116-3.812 7.984-5.486 8.604-5.02.62.464-.189 3.682-2.424 9.654-8.672 34.547-12.278 58.4-10.883 71.187l.119 1.002c1.152 8.906 4.007 10.038 12.182 4.56l.914-.624c4.004-3.516 6.302-5.114 6.891-4.792.59.321.487 3.116-.308 8.383-.56 15.246.75 25.405 3.587 30.124 1.986 3.304 6.125 6.487 11.667 2.88 1.94-1.262 5.357-2.67 6.62-.733 1.265 1.938-1.583 3.515-3.522 4.777-9.135 5.945-17.188 5.314-21.953-2.612-3.178-5.288-4.75-13.838-4.9-25.84l-.01-1.546-.291.121c-13.212 9.752-20.594-1.345-22.248-14.698s4.272-32.925 10.982-61.756l.966-4.098-.316.099c-10.82 3.213-18.343-1.627-20.656-14.219l-.11-.625c-2.307-13.844-2.276-37.072 8.449-64.932z" fill-opacity=".1" fill="#000"/><path d="M281.977 137.873c.36-5.714 5.317-19.237 16.845-17.62 11.53 1.619 15.236 11.943 14.876 17.659-.36 5.715-9.407 16.352-15.468 15.007-6.063-1.345-16.614-9.33-16.253-15.046zm99.533 0c.36 5.716-10.191 13.701-16.253 15.046-6.061 1.345-15.109-9.292-15.469-15.007-.36-5.716 3.347-16.04 14.876-17.658 11.529-1.618 16.486 11.905 16.846 17.62z" fill="#FFF"/><path d="M300.154 127.786c-4.439.157-7.9 4.227-7.732 9.092.168 4.865 3.901 8.682 8.34 8.525 4.44-.157 7.9-4.227 7.733-9.092-.168-4.865-3.902-8.682-8.34-8.525zm63.178 0c-4.439-.157-8.172 3.66-8.34 8.525-.168 4.865 3.293 8.935 7.732 9.092 4.439.157 8.173-3.66 8.34-8.525.169-4.865-3.293-8.935-7.732-9.092z" fill="#350211"/><path d="M349.765 150.466c-.78 32.19-19.877 48.048-19.877 48.048s-19.065-25.881-19.065-50.028l38.942 1.98z" fill="#AF6303"/><path d="M348.67 151.99c1.077 15.427-18.491 38.373-18.491 38.373s-13.48-19.276-14.383-28.962l32.875-9.41z" fill="#350211"/><path d="M331.311 128.629c6.18 0 9.73 1.843 11.087 9.973 1.249 7.48 6.426 3.57 7.367 10.355.325 2.343.118 7.086-7.367 17.965-5.28 7.675-10.66 13.397-16.14 17.166-5.124-6.266-8.611-11.574-10.462-15.924-3.86-9.076-4.803-15.592-4.992-19.207-.273-5.23 6.638-5.39 8.735-10.355 1.563-3.701 4.228-9.973 11.772-9.973z" fill="#F7A600"/><path d="M300.23 104.59c5.165-.819 12.195 3.283 12.747 6.252.04.22.04.408-.002.562a.465.465 0 01.002.05c0 2.342-6.041 4.24-13.494 4.24-7.452 0-13.493-1.898-13.493-4.24 0-2.34 6.041-4.238 13.493-4.238.282 0 .561.003.839.008-2.621-1.35-2.651-2.229-.092-2.634zm63.09-.15c1.62.384 1.695 1.19.222 2.42 3.244-1.471 8.873-2.18 9.132-1.185.11.424-.26.998-1.108 1.723 5.807 1.045 9.993 4.61 9.993 6.592 0 2.341-5.84 1.588-13.292 1.588s-13.494-1.897-13.494-4.239v-.01a1.802 1.802 0 01-.01-.607c.371-2.984 5.09-7.105 8.558-6.283z" fill="#350211"/><path d="M236.524 208.825l235.202 24.721c18.074 1.9 33.535 11.439 43.507 25.067l-.873-.039-.835-.025-.879-.013h-.917l-.63.01-.645.017-.99.042-.675.039-.856.063-.87.08-.878.098-.887.117-.714.109c-4.05.653-8.206 1.97-11.445 4.466l-.688.64-.314.308c-1.36 1.378-2.003 2.588-.978 4.114 1.39 2.068 3.442 3.098 5.752 3.834l.636.193.336.097.71.193 2.547.651.735.196.323.09.644.19.6.189c2.997.983 5.839 2.523 7.79 5.98l-.443-.068-.872-.128-.857-.116-1.047-.13-1.022-.11-.8-.075-.977-.075-.952-.054-.41-.017-.802-.022-.647-.012-1.302-.036-2.61-.086-1.291-.034-.957-.014-.943-.002-.62.008-.611.016-.602.026-.592.036-.285.021-.561.052-.55.064c-3.529.459-6.235 1.756-7.026 5.065-.37 1.55.48 3.326 2.555 5.33l.367.345.392.35c.067.06.135.118.205.177l.427.357.223.18.463.363.24.184.5.37.259.186.535.377.559.381.883.58.62.393.642.396.667.402.69.405.716.41.738.415.763.419 1.189.636.823.43 1.278.654.883.44.906.446.93.45.954.455.979.459 1.512.696 1.038.47 1.602.714 1.098.48-.293.017-1.864.128-1.029.082-.55.025-1.08.055-1.051.06-1.023.067-.995.073-.967.078-.938.085-.91.09-.88.097-.854.102-1.026.136-.982.146-.754.123-.726.129-.697.135-.668.141-.64.147-.613.153-.584.159-.555.164c-3.067.951-4.768 2.188-5.103 3.712-.223 1.009.318 2.327 1.623 3.954l.291.353.315.363.338.373.455.478.492.494.42.405.443.415.466.424.49.434.513.443.537.453.56.462.583.472.607.48.63.491.99.754 1.04.775.724.528 1.13.81 1.181.832.817.566 1.27.867 1.321.888 1.375.91 1.427.93.98.633 1.516.966.209.14.628.406.625.387 1.838 1.106.594.367.579.376.378.258.186.132.366.27c.115.087.23.176.342.267l.333.278.325.29c2.132 1.975 3.622 4.832 3.71 10.397l.006.496v.967l-.005.493-1.83 54.738.002.911a61.94 61.94 0 01-.12.589l.071-.344c-.061.303-.124.605-.19.907l.12-.563c-.058.277-.117.553-.178.829l.058-.266c-.083.382-.17.763-.26 1.143l.202-.877c-.077.343-.156.684-.237 1.025l.035-.148c-.071.3-.145.598-.22.896l.185-.748c-.08.334-.164.667-.25.999l.065-.251a61.63 61.63 0 01-.193.74l.129-.49c-.078.3-.157.6-.239.898l.11-.407a61.51 61.51 0 01-.617 2.156l.178-.592a61.422 61.422 0 01-.879 2.739l.065-.187c-.094.272-.189.543-.286.813l.221-.626c-.113.327-.229.652-.348.976l.127-.35c-.1.28-.202.558-.306.836l.18-.486c-.1.272-.201.543-.305.813l.125-.327a61.295 61.295 0 01-1.224 3.014 61.49 61.49 0 01-2.175 4.472l.167-.312c-.153.287-.307.573-.464.858l.297-.547a61.56 61.56 0 01-.42.77l.123-.223c-.107.196-.216.39-.326.585l-.243.426-.461.788c-.287.482-.58.96-.88 1.433l-.174.274-.479.737c-.213.323-.43.644-.648.963l.211-.31c-.146.216-.295.431-.444.646l.233-.336c-.156.225-.312.45-.47.674l.237-.338c-.24.344-.484.686-.73 1.025l.493-.687c-.19.268-.382.535-.576.8l.083-.113-.511.692.428-.579c-.192.263-.387.524-.583.783l.155-.204a68.1 68.1 0 01-.562.737l.407-.533c-.184.244-.37.486-.557.726l.15-.193a62.165 62.165 0 01-1.232 1.542l.416-.51a62.17 62.17 0 01-.58.71v-.001l-.522.62-.59.679c-.2.228-.402.455-.606.68l.482-.538a62.31 62.31 0 01-.627.698l.145-.16c-.187.206-.375.41-.564.614l.419-.454a62.34 62.34 0 01-.65.7l.231-.246a62.393 62.393 0 01-1.432 1.489l.52-.53c-.203.21-.407.417-.613.623l.093-.093c-.211.212-.423.422-.637.632l.544-.539c-.227.227-.454.451-.684.674l.14-.135c-.208.203-.418.404-.628.605-.25.237-.502.473-.756.706l.462-.43c-.239.225-.48.448-.723.669l.26-.239a62.5 62.5 0 01-.587.533l.327-.294a62.518 62.518 0 01-2.077 1.806l.157-.132c-.22.184-.44.366-.662.547l.505-.415c-.236.196-.474.39-.713.583l.208-.168a57.65 57.65 0 01-.77.616l.562-.448c-.228.184-.457.367-.688.548l.126-.1c-.261.206-.524.41-.789.612l.663-.512c-.286.224-.573.445-.863.664l.2-.152c-.239.182-.479.363-.72.541l.52-.39a62.485 62.485 0 01-2.273 1.64l.125-.085c-.218.15-.437.3-.657.448l.532-.362c-.282.194-.565.386-.85.575l.318-.213c-.245.165-.49.327-.737.488l.419-.275c-.22.145-.44.29-.66.432l.241-.157c-.326.213-.655.424-.986.63l.744-.473c-.285.185-.572.366-.86.546l.116-.072c-.262.164-.525.325-.789.485l.673-.413a62.312 62.312 0 01-2.437 1.442l.1-.056c-.257.145-.515.289-.775.43l.676-.374c-.301.17-.604.336-.907.5l.231-.126a64 64 0 01-.778.418l.547-.292a62.128 62.128 0 01-2.6 1.326l.28-.136c-.243.119-.488.236-.734.352l.453-.216a61.974 61.974 0 01-2.634 1.191l.324-.138c-.276.12-.554.237-.832.352l.509-.213c-.258.11-.516.217-.776.323l.267-.11a61.774 61.774 0 01-2.207.865l.374-.14c-.276.104-.552.206-.83.306l.456-.166c-.27.1-.54.198-.812.294l.357-.128c-.272.098-.545.195-.819.29l.462-.162c-.258.091-.517.18-.776.269-.627.212-1.258.415-1.893.608l.177-.054c-.298.091-.597.18-.897.268l.72-.214c-.292.089-.586.175-.88.26l.16-.046c-.346.1-.692.197-1.04.292l.88-.246c-.316.09-.632.179-.95.265l.07-.02c-.279.076-.558.15-.839.222l.77-.202c-.335.09-.67.177-1.006.262l.236-.06c-.28.072-.562.142-.844.21l.608-.15c-.3.075-.6.149-.9.22l.292-.07c-.374.09-.75.177-1.127.26l.834-.19a61.688 61.688 0 01-20.647 1.3l-22.402-2.355-6.475 61.604a5.633 5.633 0 01-4.004 4.812 5.772 5.772 0 01-2.188.188 5.642 5.642 0 01-3.793-2.056l-58.663-72.46-137.675-14.47a62.565 62.565 0 01-3.91-.536v-.063c-16.714-3.283-30.279-11.319-40.902-27.15-3.656-5.447-3.33-15.845-1.59-25.358l.216-1.138.112-.564.234-1.12.245-1.106c.25-1.099.516-2.172.792-3.212l.28-1.027.286-1.002.291-.974.296-.945.298-.913.3-.878c.152-.43.303-.847.454-1.249l.302-.783c.05-.127.1-.252.151-.376l.3-.719c.846-1.974 1.66-3.4 2.342-4.051l.674-.632c.226-.21.455-.417.685-.622l.695-.61.702-.598.353-.294.71-.58.356-.283.714-.559a66.97 66.97 0 011.07-.81l.712-.522.707-.506.7-.49.694-.472.683-.455.672-.437.658-.418.644-.4.626-.378.608-.36.587-.337.565-.316.541-.295.515-.271.487-.249.457-.224.627-.29 1.125-.466 1.643-.689 1.065-.452 2.059-.89 1.964-.87.945-.428.922-.422 1.339-.624.862-.409 1.249-.605.802-.396 1.16-.586.742-.384.72-.379.695-.374.67-.368.648-.364.624-.359.89-.528.564-.346.54-.34.516-.336.492-.33.237-.164.566-.403.53-.395.396-.31.55-.455.337-.298c.109-.098.213-.196.313-.292l.29-.288.265-.282.24-.277c.765-.915 1.132-1.745 1.1-2.49-.066-1.56-1.455-3.077-4.17-4.551l-.492-.26-.52-.259c-.178-.086-.36-.172-.547-.258l-.576-.257a36.01 36.01 0 00-.297-.128l-.617-.256-.318-.127-.658-.255-.685-.253-.895-.316-.938-.314-.78-.25-.81-.25-1.264-.373-.877-.247-.905-.246-.933-.246-.96-.245-.987-.243-1.015-.243-1.042-.242-1.07-.241-1.053-.274-1.913-.474-.301-.07.605-.147 1.779-.438 1.723-.439 1.118-.292 1.093-.291 1.593-.437 1.032-.292 1.007-.29.982-.291.957-.29.933-.291.908-.29 1.316-.435.847-.29.822-.288.797-.29 1.15-.433 1.093-.432.699-.289.674-.288.649-.287.315-.144.761-.36.723-.358.278-.144.538-.287.26-.143.501-.286c.326-.191.636-.382.929-.573l.427-.285.204-.143.39-.286c.189-.142.369-.285.539-.428l.328-.284c1.423-1.282 2.096-2.557 2.02-3.826-.212-3.501-2.677-5.341-6.135-6.471l-.54-.168-.554-.158-.282-.076-.575-.143-.6-.138-.61-.13-.622-.123-.631-.117-.962-.164-.65-.104-1.314-.198-2.953-.421-.98-.145-.975-.15-.838-.126-.428-.057-.998-.118-1.03-.1-.844-.07-1.082-.072-1.112-.057-.91-.036-.93-.027-.471-.011c2.836-3.45 6.327-4.446 9.844-4.872l.703-.078.352-.034.8-.07 2.763-.21.774-.07.367-.039c2.804-.309 5.384-.947 7.372-3.013 1.213-1.26.968-2.503.056-3.968l-.222-.343-.119-.174-.262-.368-.283-.378-.299-.39c-3.045-3.337-7.373-5.514-11.655-6.933l-.713-.23a45.976 45.976 0 00-.71-.215l-.707-.203-.702-.19-.35-.09-.691-.171-.684-.16-.674-.148-.663-.138-.65-.126-.637-.117-.925-.157-.596-.093-.858-.124-.812-.105-.76-.09-.928-.094-.816-.07-.849-.06-.912-.046-1.18-.021a89.159 89.159 0 00-16.616 1.407c2.737-9.496 3.172-16.54 1.303-21.136-.334-.82-.995-1.122-1.985-.904 10.423-24.287 35.787-40.112 63.415-37.208z" fill="#E3E7E9"/><path d="M541.021 243.385l.307.236c.418.334.867.746 1.349 1.236l.367.382.188.202.385.426.197.224.403.47.415.499.427.528.438.558.224.29 22.679 37.157c.17.25.344.508.518.772l.529.81.268.42.54.865.274.447.55.92c8.286 14.072 17.978 40.123 6.334 68.956-2.364 5.855-4.76 11.058-7.176 15.687-20.699 46.113-55.516 74.962-104.45 86.546l1.55-11.052c24.17-4.776 43.854-23.783 48.788-48.708v-.92l1.83-54.738.005-.493v-.967l-.006-.496c-.1-6.4-2.057-9.218-4.71-11.232l-.366-.27a18.785 18.785 0 00-.186-.132l-.378-.258-.58-.376-.593-.367-1.838-1.106-.625-.387-.628-.406c-.07-.046-.14-.092-.21-.14l-1.514-.966-.98-.632-1.428-.931-1.375-.91-1.321-.888-1.27-.867-.817-.566-1.182-.832-1.129-.81-.723-.528-1.042-.775-.989-.754-.63-.49-.607-.481-.583-.472-.56-.462-.537-.453-.513-.443-.49-.434-.466-.424-.443-.415-.42-.405-.396-.396a11.5 11.5 0 01-.19-.195l-.361-.381-.338-.373-.315-.363-.291-.353c-1.305-1.627-1.846-2.945-1.623-3.954.335-1.524 2.036-2.761 5.103-3.712l.555-.164.584-.16.612-.152.64-.147.67-.141.696-.135.726-.13.754-.122.782-.117c.133-.02.266-.038.402-.057l.824-.108.853-.102.882-.097.91-.09.937-.085.967-.078.995-.073 1.023-.067 1.051-.06 1.08-.055.55-.025 1.029-.082 1.864-.128.293-.016-1.098-.481-1.602-.714-1.038-.47-1.512-.696-.979-.46-.954-.454-.93-.45-.906-.445-.883-.441-1.278-.654-.823-.43-1.189-.636-.763-.42-.738-.414-.715-.41-.69-.405-.668-.402-.643-.396-.619-.393-.595-.387a50.16 50.16 0 01-.288-.193l-.56-.38-.534-.378a39.112 39.112 0 01-.26-.186l-.498-.37a33.327 33.327 0 01-.241-.184l-.463-.363-.223-.18-.427-.357c-.07-.059-.138-.118-.205-.177l-.392-.35-.367-.345c-2.074-2.004-2.926-3.78-2.555-5.33.892-3.733 4.223-4.906 8.422-5.202l.592-.036.602-.026.611-.016.62-.008.943.002.957.014 1.292.034 2.609.086 1.302.036.647.012.803.022.409.017.952.054.977.075.8.075 1.022.11 1.047.13.857.116.872.128.442.068c-1.95-3.457-4.792-4.997-7.788-5.98l-.601-.19-.644-.189-.323-.09-.735-.196-2.546-.65-.71-.194-.337-.097-.636-.193c-2.31-.736-4.362-1.766-5.752-3.834-1.025-1.526-.382-2.736.978-4.114l.314-.309.509-.476.179-.163c3.239-2.496 7.394-3.813 11.445-4.466l.714-.109.71-.095c.118-.015.236-.03.353-.043l.703-.077.696-.066.345-.028.684-.05.674-.038.664-.03.327-.012.645-.017.63-.01h.917l.879.013.835.025 1.04.048.947.06.643.05.58.052.956.1.86.113.05.007a84.386 84.386 0 0116.215 4.199c-.993-9.317-.24-15.967 2.262-19.95.616-.98 1.652-.937 3.108.132zm-365.927 3.552c1.869 4.595 1.434 11.64-1.303 21.136a89.159 89.159 0 0116.617-1.407l1.18.021.911.045.849.06.816.071.927.095.76.089.813.105.858.124.596.093.925.157.637.117.65.126.663.138.674.148.684.16.692.17.349.091.702.19.707.203c.236.07.473.141.71.215l.713.23c4.282 1.419 8.61 3.596 11.655 6.934l.3.389.282.378.262.368c1.177 1.695 1.638 3.079.285 4.485-1.988 2.066-4.568 2.704-7.372 3.013l-.367.039-.774.07-2.764.21-.8.07-.35.034-.704.078c-3.517.426-7.008 1.423-9.844 4.872l.471.01.93.028.91.036 1.112.057 1.082.072.845.07 1.029.1.998.118.428.057.838.125.974.151.981.145 2.953.421 1.315.198.65.104.961.164.631.117.622.123.61.13.6.138c4.452 1.068 7.836 2.886 8.085 7.016.077 1.269-.596 2.544-2.019 3.826l-.328.284c-.17.143-.35.286-.539.428l-.39.286-.204.143-.427.285c-.293.191-.603.382-.929.573l-.5.286-.26.143-.539.287-.278.144-.575.287c-.098.048-.197.096-.297.143l-.612.288-.315.144-.65.287-.673.288-.699.289-1.094.432-1.15.433-.796.29-.822.289-.847.29-1.316.434-.908.29-.933.29-.957.29-.982.291-1.007.291-1.032.292-1.593.437-1.093.291-1.118.292-1.723.439-1.779.438-.605.147.3.07 1.914.474 1.053.274 1.07.24 1.042.243 1.015.243.987.243.96.245.933.246.905.246.877.247.85.248.415.125.808.25.781.25.754.251.367.126.712.253.685.253.658.255.318.127.617.256c.1.043.2.085.297.128l.576.257c.187.086.37.172.547.258l.52.259.493.26c2.714 1.474 4.103 2.99 4.17 4.55.031.746-.336 1.576-1.1 2.491l-.241.277-.266.282-.289.288c-.1.096-.204.194-.313.292l-.337.298-.36.302-.19.153-.396.31-.42.316-.22.16-.456.322-.237.164-.492.33-.516.336-.54.34-.564.346-.588.351-.302.177-.624.359-.647.364-.671.368-.696.374-.719.38-.743.383-1.159.586-.802.396-1.249.605-.862.41-1.339.623-.922.422-.945.428-1.964.87-2.059.89-1.065.452-1.643.689-1.125.465-.41.188a27.09 27.09 0 00-.217.103l-.457.224-.487.249-.515.271-.54.295-.566.316-.587.338-.608.359-.626.379-.644.399-.658.418-.672.437-.683.455-.693.473-.701.49-.707.505-.711.521c-.357.265-.714.535-1.071.811l-.714.559-.356.284-.71.579c-.118.097-.236.195-.353.294l-.702.598-.695.61c-.23.205-.459.413-.685.622l-.674.632c-4.007 3.825-12.62 34.52-5.309 45.416 10.623 15.83 24.188 23.866 40.903 27.149l.175 29.434c-36.355-6.718-61.808-21.073-78.237-43.591-7.192-9.452-13.365-22.144-17.37-39.202-9.136-38.914 10.144-75.288 21.321-86.76l30.362-34.442.556-.504.54-.477.522-.45.506-.421.246-.201.48-.382.462-.354c.076-.057.15-.113.225-.167l.436-.314.42-.286c.068-.046.136-.09.203-.133l.394-.246.377-.219c1.963-1.092 3.193-1.025 3.692.201z" fill-opacity=".2" fill="#000"/><path d="M385.295 366.382a6.24 6.24 0 012.612.092 5.099 5.099 0 012.3.802l.945.52c.925.582 1.565 1.332 1.92 2.25l.256 1.37a5.05 5.05 0 01-.858 2.796l-1.068 1.275a6.536 6.536 0 01-2.327 1.494c-.8.44-1.687.714-2.658.82a6.243 6.243 0 01-2.612-.09 5.116 5.116 0 01-2.3-.803l-.947-.52c-.925-.582-1.564-1.332-1.918-2.25l-.258-1.37a5.08 5.08 0 01.858-2.796l1.069-1.276a6.56 6.56 0 012.328-1.494 7.052 7.052 0 012.658-.82zm-26.777-44.535c.257-1.934 1.76-3.545 3.693-4.64l.393-.213a12.495 12.495 0 013.378-1.16l.43-.073c3.435-.513 6.582.627 6.105 4.214l-6.734 50.659c-.84 6.318-14.973 9.195-14 1.87l6.735-50.657zm-73.471-47.718c.833-6.252 14.688-9.135 14.022-2.092l-.025.22-4.966 37.213 39.608 2.935 4.794-36.025c.411-3.094 4.011-5.364 7.464-6.013l.43-.073c3.435-.513 6.582.627 6.105 4.214l-11.933 89.687c-.832 6.251-14.687 9.136-14.024 2.093l.025-.221 5.654-42.506-39.61-2.935-5.79 43.388c-.26 1.934-1.763 3.545-3.697 4.64l-.393.212c-4.307 2.222-10.382 1.96-9.935-2.76l.025-.22 12.246-91.757zm105.22 2.635c.383-3.034 3.831-5.277 7.215-5.979l.431-.081c3.516-.594 6.816.52 6.353 4.19l-8.972 71.052c-.383 3.034-3.832 5.276-7.215 5.978l-.432.082c-3.515.594-6.815-.52-6.352-4.188l8.972-71.054zm-19.264 11.133l.37.02c5.557.465 8.771 4.816 7.623 9.211-.701 2.687-3.428 4.927-6.406 5.857-3.004.935-6.095.673-8.915-.717-1.686-.833-3.084-2.381-3.542-3.977-.93-3.246.901-6.634 4.034-8.46a13.045 13.045 0 013.854-1.471c.96-.304 1.989-.49 2.982-.463z" fill="#455B6A"/></g></svg>