<svg width="242" height="241" viewBox="0 0 242 241" xmlns="http://www.w3.org/2000/svg"><g transform="translate(3)" fill="none" fill-rule="evenodd"><circle fill="#F6CE9B" cx="144" cy="95" r="95"/><path d="M53.625 100.423c-18.212 0-32.976 14.764-32.976 32.976s14.764 32.975 32.976 32.975 32.976-14.763 32.976-32.975c0-18.212-14.764-32.976-32.976-32.976m0 5c15.426 0 27.976 12.55 27.976 27.976 0 15.425-12.55 27.975-27.976 27.975-15.426 0-27.976-12.55-27.976-27.975 0-15.426 12.55-27.976 27.976-27.976" fill="#E98404"/><path d="M118.16 71.736v-8.152c0-6.951 5.633-12.584 12.583-12.584h43.922c6.95 0 12.585 5.633 12.585 12.584v55.741c0 6.95-5.635 12.584-12.585 12.584h-8.163" stroke="#E98404" stroke-width="5"/><path d="M154.5 68.92h-41.821c-6.95 0-12.585 5.635-12.585 12.585v55.74c0 6.95 5.635 12.584 12.585 12.584h43.922c6.95 0 12.584-5.634 12.584-12.584V83.609a4.56 4.56 0 00-1.433-3.324c-2.493-2.345-7.585-7.438-9.928-9.931a4.558 4.558 0 00-3.324-1.433m-.185 5c2.434 2.578 7.283 7.428 9.87 9.873v53.45c0 4.184-3.403 7.585-7.584 7.585h-43.922c-4.183 0-7.585-3.401-7.585-7.584v-55.74c0-4.183 3.402-7.584 7.585-7.584h41.636" fill="#E98404"/><path d="M148.89 118.625h-28.5a2.5 2.5 0 100 5h28.5a2.5 2.5 0 100-5m-23.53-23.5a2.5 2.5 0 100 4.999 2.5 2.5 0 000-5m18.559.001a2.5 2.5 0 100 4.999 2.5 2.5 0 000-5" fill="#E98404"/><path d="M154.25 71l-1.464 9.597a3.472 3.472 0 003.64 3.989L166.25 84M93.333 217S79.75 206.5 75.75 201.5c-1.316-1.646-5.75-6-5.75-13.39 0-4.683 3.68-8.612 8.668-9.76a53.374 53.374 0 00-25.043-6.207C24.009 172.143 0 196.15 0 225.768V238.5h107.25v-12.732a53.525 53.525 0 00-2.852-17.248c-4.983 4.326-10.356 8.48-10.356 8.48h-.709z" stroke="#E98404" stroke-width="5"/><path d="M105.709 178c-6.443 0-11.667 4.527-11.667 10.11h-.709c0-5.583-5.224-10.11-11.667-10.11-1.038 0-2.04.129-2.998.35-4.988 1.148-8.668 5.077-8.668 9.76 0 7.39 4.434 11.744 5.75 13.39 4 5 17.583 15.5 17.583 15.5h.709s5.373-4.154 10.356-8.48c2.94-2.553 5.744-5.165 7.227-7.02 1.316-1.646 5.75-6 5.75-13.39 0-5.583-5.224-10.11-11.666-10.11z" stroke="#E98404" stroke-width="5" stroke-linecap="round" stroke-linejoin="round"/></g></svg>