<?xml version="1.0" standalone="no"?>
<!DOCTYPE svg PUBLIC "-//W3C//DTD SVG 20010904//EN"
 "http://www.w3.org/TR/2001/REC-SVG-20010904/DTD/svg10.dtd">
<svg version="1.0" xmlns="http://www.w3.org/2000/svg"
 width="512.000000pt" height="512.000000pt" viewBox="0 0 512.000000 512.000000"
 preserveAspectRatio="xMidYMid meet">
<metadata>
Created by potrace 1.11, written by Peter Selinger 2001-2013
</metadata>
<g transform="translate(0.000000,512.000000) scale(0.100000,-0.100000)"
fill="#000000" stroke="none">
<path d="M2435 4049 c-27 -3 -65 -5 -83 -5 -17 1 -32 -2 -32 -5 0 -4 -19 -10
-42 -14 -64 -12 -67 -12 -120 -30 -27 -8 -54 -13 -60 -9 -6 4 -8 3 -5 -3 4 -5
-12 -16 -35 -24 -46 -15 -123 -52 -144 -70 -8 -6 -14 -9 -14 -5 0 5 -83 -47
-115 -72 -5 -4 -30 -22 -55 -39 -25 -17 -57 -43 -72 -58 -16 -15 -28 -25 -28
-22 0 3 -23 -19 -51 -48 -28 -30 -56 -52 -62 -48 -5 3 -7 1 -3 -5 3 -6 0 -16
-7 -24 -49 -52 -167 -219 -167 -238 0 -5 -4 -10 -10 -10 -5 0 -10 -7 -10 -15
0 -9 -9 -15 -22 -15 -13 0 -57 -7 -98 -16 -41 -9 -79 -17 -85 -18 -5 -1 -14
-4 -20 -7 -5 -4 -28 -12 -50 -19 -151 -46 -367 -202 -476 -345 -13 -16 -26
-32 -29 -35 -10 -10 -78 -116 -96 -150 -54 -104 -110 -279 -113 -353 -1 -12
-5 -16 -13 -11 -10 6 -10 4 -2 -7 6 -8 9 -34 8 -59 -1 -25 -4 -63 -5 -85 -2
-40 7 -152 17 -216 3 -19 6 -43 7 -54 1 -11 5 -22 8 -25 4 -3 14 -32 24 -65 9
-33 26 -77 36 -98 11 -21 17 -43 13 -50 -4 -7 -3 -9 1 -4 11 9 57 -72 48 -86
-3 -5 -1 -7 4 -4 6 4 18 -4 27 -18 9 -14 13 -25 10 -25 -4 0 3 -8 14 -19 12
-10 22 -23 22 -29 0 -5 7 -13 16 -16 9 -3 14 -13 11 -21 -4 -9 -1 -12 8 -9 7
3 16 -3 20 -15 3 -12 10 -21 15 -21 5 0 34 -25 65 -55 30 -30 58 -55 61 -55
14 0 69 -54 66 -64 -2 -6 0 -8 3 -4 10 10 65 -19 65 -34 0 -6 3 -9 6 -5 4 3
19 0 35 -9 16 -8 31 -13 33 -12 2 2 13 -5 23 -15 11 -9 23 -14 26 -10 4 3 7 0
7 -7 0 -7 3 -10 6 -7 4 3 16 1 28 -5 21 -12 25 -13 56 -17 13 -1 13 -2 0 -11
-10 -6 -3 -7 24 -3 38 6 39 5 33 -18 -5 -22 -5 -22 7 -6 13 17 46 24 46 10 0
-5 21 -9 47 -11 26 -1 51 -8 55 -15 6 -9 8 -9 8 0 0 11 24 12 65 3 6 -1 12 -2
15 -1 3 1 52 3 110 3 l105 1 -1 -27 c-1 -15 1 -24 5 -21 3 4 6 14 6 23 0 9 5
17 12 17 6 0 14 3 18 6 3 4 18 4 32 0 14 -4 49 -4 79 -1 29 3 63 2 75 -2 14
-6 25 -5 29 3 6 8 13 8 30 -1 15 -8 25 -9 33 -1 7 7 16 7 30 -1 15 -7 22 -7
28 3 7 12 9 12 9 0 0 -11 3 -11 14 -2 12 10 19 8 36 -9 19 -19 21 -19 18 -3
-2 12 2 17 12 14 32 -7 71 -7 76 1 3 5 10 6 15 2 5 -3 6 -11 2 -17 -4 -7 0 -6
10 2 9 7 17 10 17 5 0 -4 5 -3 11 3 7 7 21 8 39 3 16 -5 31 -6 34 -3 5 5 258
5 314 0 18 -2 35 0 38 5 3 5 10 6 15 2 5 -3 6 -11 2 -17 -4 -7 0 -6 10 2 9 7
17 10 17 5 0 -4 5 -3 11 3 7 7 21 8 39 3 16 -5 31 -6 34 -3 6 6 94 6 154 0 18
-2 35 0 38 5 3 5 10 6 15 2 5 -3 6 -11 2 -17 -4 -7 0 -6 10 2 9 7 17 10 17 5
0 -4 5 -3 11 3 7 7 21 8 39 3 16 -5 31 -6 34 -3 5 5 86 5 154 -1 18 -1 35 1
38 6 3 5 10 6 15 2 5 -3 6 -11 2 -17 -4 -7 0 -6 10 2 9 7 17 10 17 5 0 -4 5
-3 11 3 7 7 21 8 39 3 16 -5 31 -6 34 -3 6 6 94 6 154 0 18 -2 35 0 38 5 3 5
10 6 15 2 5 -3 6 -11 2 -17 -4 -7 0 -6 10 2 9 7 17 10 17 5 0 -4 5 -3 11 3 7
7 21 8 39 3 16 -5 31 -6 34 -3 8 8 151 7 165 -1 6 -4 8 -12 5 -18 -4 -7 -2 -8
4 -4 6 4 9 12 6 19 -3 9 4 12 23 11 37 -2 37 -2 27 -17 -5 -7 -2 -5 7 4 9 10
36 20 60 23 24 3 62 10 84 16 22 7 48 12 58 13 9 1 17 5 17 10 0 4 4 6 9 2 5
-3 13 0 17 6 4 8 9 7 15 -2 7 -11 9 -10 9 4 0 15 11 22 33 18 4 0 7 4 7 10 0
6 6 9 13 6 6 -2 18 3 25 12 11 13 12 13 7 1 -6 -13 -5 -13 7 0 24 28 78 61 88
55 6 -4 9 -1 8 7 -2 7 3 12 10 10 8 -1 11 2 7 7 -7 12 31 34 45 26 5 -3 12 0
16 6 4 8 3 9 -4 5 -19 -11 -14 9 6 27 10 10 22 14 27 10 4 -5 5 -3 2 3 -4 6 8
25 26 42 17 17 41 43 52 57 11 15 26 33 33 40 6 8 12 18 12 22 0 5 9 19 20 31
12 12 18 22 15 22 -3 0 -1 9 5 21 10 17 14 18 28 7 15 -11 15 -11 5 3 -12 15
-3 49 34 139 8 18 10 27 12 41 0 5 4 8 9 6 4 -3 8 22 9 55 1 32 7 65 13 73 8
9 8 15 0 20 -6 3 -8 10 -6 14 7 11 7 128 1 191 -5 47 -17 107 -29 145 -2 6 -7
23 -11 39 -4 16 -14 41 -21 55 -7 13 -11 28 -8 33 3 4 1 8 -4 8 -5 0 -16 15
-23 33 -7 17 -19 38 -26 45 -7 8 -11 18 -8 23 4 5 2 9 -3 9 -5 0 -22 19 -39
43 -42 57 -223 237 -223 221 0 -2 -25 12 -56 32 -31 20 -87 49 -124 64 -57 23
-82 31 -140 45 -18 4 -117 19 -129 20 -9 0 -22 31 -36 85 -13 47 -30 105 -39
129 -9 24 -13 48 -9 54 3 6 1 7 -5 3 -11 -6 -17 12 -13 37 0 4 -3 7 -7 7 -5 0
-16 19 -27 43 -10 23 -27 54 -37 70 -11 15 -17 27 -13 27 3 0 -3 10 -15 22
-11 12 -20 27 -20 34 0 7 -3 14 -8 16 -4 2 -30 33 -59 70 -29 37 -82 95 -119
130 -37 35 -80 75 -96 90 -16 15 -30 26 -33 25 -2 -1 -14 7 -27 18 -106 92
-348 203 -523 239 -133 27 -321 38 -430 25z"/>
<path d="M266 2198 c3 -5 10 -6 15 -3 13 9 11 12 -6 12 -8 0 -12 -4 -9 -9z"/>
<path d="M610 1379 c0 -5 5 -7 10 -4 6 3 10 8 10 11 0 2 -4 4 -10 4 -5 0 -10
-5 -10 -11z"/>
<path d="M660 1340 c8 -5 20 -10 25 -10 6 0 3 5 -5 10 -8 5 -19 10 -25 10 -5
0 -3 -5 5 -10z"/>
<path d="M4530 1306 c0 -2 7 -7 16 -10 8 -3 12 -2 9 4 -6 10 -25 14 -25 6z"/>
<path d="M750 1236 c0 -2 8 -10 18 -17 15 -13 16 -12 3 4 -13 16 -21 21 -21
13z"/>
<path d="M4450 1221 c0 -6 4 -13 10 -16 6 -3 7 1 4 9 -7 18 -14 21 -14 7z"/>
<path d="M859 1208 c-5 -18 -6 -38 -1 -34 7 8 12 36 6 36 -2 0 -4 -1 -5 -2z"/>
<path d="M4420 1206 c0 -2 8 -10 18 -17 15 -13 16 -12 3 4 -13 16 -21 21 -21
13z"/>
<path d="M4356 1167 c3 -10 9 -15 12 -12 3 3 0 11 -7 18 -10 9 -11 8 -5 -6z"/>
<path d="M4276 1087 c3 -10 9 -15 12 -12 3 3 0 11 -7 18 -10 9 -11 8 -5 -6z"/>
<path d="M4156 1078 c3 -5 10 -6 15 -3 13 9 11 12 -6 12 -8 0 -12 -4 -9 -9z"/>
<path d="M1096 1062 c-3 -5 1 -9 9 -9 8 0 12 4 9 9 -3 4 -7 8 -9 8 -2 0 -6 -4
-9 -8z"/>
<path d="M4080 1060 c-9 -6 -10 -10 -3 -10 6 0 15 5 18 10 8 12 4 12 -15 0z"/>
<path d="M1236 1038 c3 -5 10 -6 15 -3 13 9 11 12 -6 12 -8 0 -12 -4 -9 -9z"/>
<path d="M1496 1038 c3 -5 10 -6 15 -3 13 9 11 12 -6 12 -8 0 -12 -4 -9 -9z"/>
<path d="M1661 1036 c-9 -11 -9 -16 0 -22 7 -4 9 -3 5 4 -3 6 2 15 11 21 10 6
13 11 7 11 -6 0 -17 -6 -23 -14z"/>
<path d="M1880 1040 c-9 -6 -10 -10 -3 -10 6 0 15 5 18 10 8 12 4 12 -15 0z"/>
<path d="M2456 1038 c3 -5 10 -6 15 -3 13 9 11 12 -6 12 -8 0 -12 -4 -9 -9z"/>
<path d="M2833 1033 c0 -9 4 -10 14 -2 7 6 13 12 13 14 0 1 -6 2 -13 2 -8 0
-14 -6 -14 -14z"/>
<path d="M2870 1041 c0 -6 4 -13 10 -16 6 -3 7 1 4 9 -7 18 -14 21 -14 7z"/>
<path d="M3473 1033 c0 -9 4 -10 14 -2 7 6 13 12 13 14 0 1 -6 2 -13 2 -8 0
-14 -6 -14 -14z"/>
<path d="M3510 1041 c0 -6 4 -13 10 -16 6 -3 7 1 4 9 -7 18 -14 21 -14 7z"/>
<path d="M1973 1025 c0 -8 4 -12 9 -9 5 3 6 10 3 15 -9 13 -12 11 -12 -6z"/>
<path d="M2553 1025 c0 -8 4 -12 9 -9 5 3 6 10 3 15 -9 13 -12 11 -12 -6z"/>
<path d="M3973 1025 c0 -8 4 -12 9 -9 5 3 6 10 3 15 -9 13 -12 11 -12 -6z"/>
<path d="M2210 1019 c0 -5 5 -7 10 -4 6 3 10 8 10 11 0 2 -4 4 -10 4 -5 0 -10
-5 -10 -11z"/>
<path d="M2690 1019 c0 -5 5 -7 10 -4 6 3 10 8 10 11 0 2 -4 4 -10 4 -5 0 -10
-5 -10 -11z"/>
<path d="M2775 1020 c3 -5 8 -10 11 -10 2 0 4 5 4 10 0 6 -5 10 -11 10 -5 0
-7 -4 -4 -10z"/>
<path d="M3010 1019 c0 -5 5 -7 10 -4 6 3 10 8 10 11 0 2 -4 4 -10 4 -5 0 -10
-5 -10 -11z"/>
<path d="M3055 1020 c3 -5 8 -10 11 -10 2 0 4 5 4 10 0 6 -5 10 -11 10 -5 0
-7 -4 -4 -10z"/>
<path d="M3330 1019 c0 -5 5 -7 10 -4 6 3 10 8 10 11 0 2 -4 4 -10 4 -5 0 -10
-5 -10 -11z"/>
<path d="M3415 1020 c3 -5 8 -10 11 -10 2 0 4 5 4 10 0 6 -5 10 -11 10 -5 0
-7 -4 -4 -10z"/>
<path d="M3650 1019 c0 -5 5 -7 10 -4 6 3 10 8 10 11 0 2 -4 4 -10 4 -5 0 -10
-5 -10 -11z"/>
<path d="M3695 1020 c3 -5 8 -10 11 -10 2 0 4 5 4 10 0 6 -5 10 -11 10 -5 0
-7 -4 -4 -10z"/>
<path d="M3869 1003 c-13 -16 -12 -17 4 -4 16 13 21 21 13 21 -2 0 -10 -8 -17
-17z"/>
<path d="M2510 1006 c0 -2 7 -7 16 -10 8 -3 12 -2 9 4 -6 10 -25 14 -25 6z"/>
<path d="M2835 1001 c-3 -5 -2 -12 3 -15 5 -3 9 1 9 9 0 17 -3 19 -12 6z"/>
<path d="M3475 1001 c-3 -5 -2 -12 3 -15 5 -3 9 1 9 9 0 17 -3 19 -12 6z"/>
</g>
</svg>
