<svg version="1.0" xmlns="http://www.w3.org/2000/svg" width="682.667" height="682.667" viewBox="0 0 512 512"><path d="M243.5 107.1c-2.7.3-6.5.5-8.3.5-1.7-.1-3.2.2-3.2.5 0 .4-1.9 1-4.2 1.4-6.4 1.2-6.7 1.2-12 3-2.7.8-5.4 1.3-6 .9-.6-.4-.8-.3-.5.3.4.5-1.2 1.6-3.5 2.4-4.6 1.5-12.3 5.2-14.4 7-.8.6-1.4.9-1.4.5 0-.5-8.3 4.7-11.5 7.2-.5.4-3 2.2-5.5 3.9-2.5 1.7-5.7 4.3-7.2 5.8-1.6 1.5-2.8 2.5-2.8 2.2 0-.3-2.3 1.9-5.1 4.8-2.8 3-5.6 5.2-6.2 4.8-.5-.3-.7-.1-.3.5.3.6 0 1.6-.7 2.4-4.9 5.2-16.7 21.9-16.7 23.8 0 .5-.4 1-1 1-.5 0-1 .7-1 1.5 0 .9-.9 1.5-2.2 1.5-1.3 0-5.7.7-9.8 1.6-4.1.9-7.9 1.7-8.5 1.8-.5.1-1.4.4-2 .7-.5.4-2.8 1.2-5 1.9-15.1 4.6-36.7 20.2-47.6 34.5-1.3 1.6-2.6 3.2-2.9 3.5-1 1-7.8 11.6-9.6 15-5.4 10.4-11 27.9-11.3 35.3-.1 1.2-.5 1.6-1.3 1.1-1-.6-1-.4-.2.7.6.8.9 3.4.8 5.9-.1 2.5-.4 6.3-.5 8.5-.2 4 .7 15.2 1.7 21.6.3 1.9.6 4.3.7 5.4.1 1.1.5 2.2.8 2.5.4.3 1.4 3.2 2.4 6.5.9 3.3 2.6 7.7 3.6 9.8 1.1 2.1 1.7 4.3 1.3 5-.4.7-.3.9.1.4 1.1-.9 5.7 7.2 4.8 8.6-.3.5-.1.7.4.4.6-.4 1.8.4 2.7 1.8.9 1.4 1.3 2.5 1 2.5-.4 0 .3.8 1.4 1.9 1.2 1 2.2 2.3 2.2 2.9 0 .5.7 1.3 1.6 1.6.9.3 1.4 1.3 1.1 2.1-.4.9-.1 1.2.8.9.7-.3 1.6.3 2 1.5.3 1.2 1 2.1 1.5 2.1s3.4 2.5 6.5 5.5c3 3 5.8 5.5 6.1 5.5 1.4 0 6.9 5.4 6.6 6.4-.2.6 0 .8.3.4 1-1 6.5 1.9 6.5 3.4 0 .6.3.9.6.5.4-.3 1.9 0 3.5.9 1.6.8 3.1 1.3 3.3 1.2.2-.2 1.3.5 2.3 1.5 1.1.9 2.3 1.4 2.6 1 .4-.3.7 0 .7.7s.3 1 .6.7c.4-.3 1.6-.1 2.8.5 2.1 1.2 2.5 1.3 5.6 1.7 1.3.1 1.3.2 0 1.1-1 .6-.3.7 2.4.3 3.8-.6 3.9-.5 3.3 1.8-.5 2.2-.5 2.2.7.6 1.3-1.7 4.6-2.4 4.6-1 0 .5 2.1.9 4.7 1.1 2.6.1 5.1.8 5.5 1.5.6.9.8.9.8 0 0-1.1 2.4-1.2 6.5-.3.6.1 1.2.2 1.5.1.3-.1 5.2-.3 11-.3l10.5-.1-.1 2.7c-.1 1.5.1 2.4.5 2.1.3-.4.6-1.4.6-2.3 0-.9.5-1.7 1.2-1.7.6 0 1.4-.3 1.8-.6.3-.4 1.8-.4 3.2 0 1.4.4 4.9.4 7.9.1 2.9-.3 6.3-.2 7.5.2 1.4.6 2.5.5 2.9-.3.6-.8 1.3-.8 3 .1 1.5.8 2.5.9 3.3.1.7-.7 1.6-.7 3 .1 1.5.7 2.2.7 2.8-.3.7-1.2.9-1.2.9 0 0 1.1.3 1.1 1.4.2 1.2-1 1.9-.8 3.6.9 1.9 1.9 2.1 1.9 1.8.3-.2-1.2.2-1.7 1.2-1.4 3.2.7 7.1.7 7.6-.1.3-.5 1-.6 1.5-.2.5.3.6 1.1.2 1.7-.4.7 0 .6 1-.2.9-.7 1.7-1 1.7-.5 0 .4.5.3 1.1-.3.7-.7 2.1-.8 3.9-.3 1.6.5 3.1.6 3.4.3.5-.5 25.8-.5 31.4 0 1.8.2 3.5 0 3.8-.5.3-.5 1-.6 1.5-.2.5.3.6 1.1.2 1.7-.4.7 0 .6 1-.2.9-.7 1.7-1 1.7-.5 0 .4.5.3 1.1-.3.7-.7 2.1-.8 3.9-.3 1.6.5 3.1.6 3.4.3.6-.6 9.4-.6 15.4 0 1.8.2 3.5 0 3.8-.5.3-.5 1-.6 1.5-.2.5.3.6 1.1.2 1.7-.4.7 0 .6 1-.2.9-.7 1.7-1 1.7-.5 0 .4.5.3 1.1-.3.7-.7 2.1-.8 3.9-.3 1.6.5 3.1.6 3.4.3.5-.5 8.6-.5 15.4.1 1.8.1 3.5-.1 3.8-.6.3-.5 1-.6 1.5-.2.5.3.6 1.1.2 1.7-.4.7 0 .6 1-.2.9-.7 1.7-1 1.7-.5 0 .4.5.3 1.1-.3.7-.7 2.1-.8 3.9-.3 1.6.5 3.1.6 3.4.3.6-.6 9.4-.6 15.4 0 1.8.2 3.5 0 3.8-.5.3-.5 1-.6 1.5-.2.5.3.6 1.1.2 1.7-.4.7 0 .6 1-.2.9-.7 1.7-1 1.7-.5 0 .4.5.3 1.1-.3.7-.7 2.1-.8 3.9-.3 1.6.5 3.1.6 3.4.3.8-.8 15.1-.7 16.5.1.6.4.8 1.2.5 1.8-.4.7-.2.8.4.4.6-.4.9-1.2.6-1.9-.3-.9.4-1.2 2.3-1.1 3.7.2 3.7.2 2.7 1.7-.5.7-.2.5.7-.4.9-1 3.6-2 6-2.3 2.4-.3 6.2-1 8.4-1.6 2.2-.7 4.8-1.2 5.8-1.3.9-.1 1.7-.5 1.7-1 0-.4.4-.6.9-.2.5.3 1.3 0 1.7-.6.4-.8.9-.7 1.5.2.7 1.1.9 1 .9-.4 0-1.5 1.1-2.2 3.3-1.8.4 0 .7-.4.7-1s.6-.9 1.3-.6c.6.2 1.8-.3 2.5-1.2 1.1-1.3 1.2-1.3.7-.1-.6 1.3-.5 1.3.7 0 2.4-2.8 7.8-6.1 8.8-5.5.6.4.9.1.8-.7-.2-.7.3-1.2 1-1 .8.1 1.1-.2.7-.7-.7-1.2 3.1-3.4 4.5-2.6.5.3 1.2 0 1.6-.6.4-.8.3-.9-.4-.5-1.9 1.1-1.4-.9.6-2.7 1-1 2.2-1.4 2.7-1 .4.5.5.3.2-.3-.4-.6.8-2.5 2.6-4.2 1.7-1.7 4.1-4.3 5.2-5.7 1.1-1.5 2.6-3.3 3.3-4 .6-.8 1.2-1.8 1.2-2.2 0-.5.9-1.9 2-3.1 1.2-1.2 1.8-2.2 1.5-2.2-.3 0-.1-.9.5-2.1 1-1.7 1.4-1.8 2.8-.7 1.5 1.1 1.5 1.1.5-.3-1.2-1.5-.3-4.9 3.4-13.9.8-1.8 1-2.7 1.2-4.1 0-.5.4-.8.9-.6.4.3.8-2.2.9-5.5.1-3.2.7-6.5 1.3-7.3.8-.9.8-1.5 0-2-.6-.3-.8-1-.6-1.4.7-1.1.7-12.8.1-19.1-.5-4.7-1.7-10.7-2.9-14.5-.2-.6-.7-2.3-1.1-3.9-.4-1.6-1.4-4.1-2.1-5.5-.7-1.3-1.1-2.8-.8-3.3.3-.4.1-.8-.4-.8s-1.6-1.5-2.3-3.3c-.7-1.7-1.9-3.8-2.6-4.5-.7-.8-1.1-1.8-.8-2.3.4-.5.2-.9-.3-.9s-2.2-1.9-3.9-4.3C458.1 252 440 234 440 235.6c0 .2-2.5-1.2-5.6-3.2-3.1-2-8.7-4.9-12.4-6.4-5.7-2.3-8.2-3.1-14-4.5-1.8-.4-11.7-1.9-12.9-2-.9 0-2.2-3.1-3.6-8.5-1.3-4.7-3-10.5-3.9-12.9-.9-2.4-1.3-4.8-.9-5.4.3-.6.1-.7-.5-.3-1.1.6-1.7-1.2-1.3-3.7 0-.4-.3-.7-.7-.7-.5 0-1.6-1.9-2.7-4.3-1-2.3-2.7-5.4-3.7-7-1.1-1.5-1.7-2.7-1.3-2.7.3 0-.3-1-1.5-2.2-1.1-1.2-2-2.7-2-3.4 0-.7-.3-1.4-.8-1.6-.4-.2-3-3.3-5.9-7-2.9-3.7-8.2-9.5-11.9-13-3.7-3.5-8-7.5-9.6-9-1.6-1.5-3-2.6-3.3-2.5-.2.1-1.4-.7-2.7-1.8-10.6-9.2-34.8-20.3-52.3-23.9-13.3-2.7-32.1-3.8-43-2.5zM26.6 292.2c.3.5 1 .6 1.5.3 1.3-.9 1.1-1.2-.6-1.2-.8 0-1.2.4-.9.9zM61 374.1c0 .5.5.7 1 .4.6-.3 1-.8 1-1.1 0-.2-.4-.4-1-.4-.5 0-1 .5-1 1.1zm5 3.9c.8.5 2 1 2.5 1 .6 0 .3-.5-.5-1s-1.9-1-2.5-1c-.5 0-.3.5.5 1zm387 3.4c0 .2.7.7 1.6 1 .8.3 1.2.2.9-.4-.6-1-2.5-1.4-2.5-.6zm-378 7c0 .2.8 1 1.8 1.7 1.5 1.3 1.6 1.2.3-.4s-2.1-2.1-2.1-1.3zm370 1.5c0 .6.4 1.3 1 1.6.6.3.7-.1.4-.9-.7-1.8-1.4-2.1-1.4-.7z"/><path d="M85.9 391.2c-.5 1.8-.6 3.8-.1 3.4.7-.8 1.2-3.6.6-3.6-.2 0-.4.1-.5.2zm356.1.2c0 .2.8 1 1.8 1.7 1.5 1.3 1.6 1.2.3-.4s-2.1-2.1-2.1-1.3zm-6.4 3.9c.3 1 .9 1.5 1.2 1.2.3-.3 0-1.1-.7-1.8-1-.9-1.1-.8-.5.6zm-8 8c.3 1 .9 1.5 1.2 1.2.3-.3 0-1.1-.7-1.8-1-.9-1.1-.8-.5.6zm-12 .9c.3.5 1 .6 1.5.3 1.3-.9 1.1-1.2-.6-1.2-.8 0-1.2.4-.9.9zm-306 1.6c-.3.5.1.9.9.9s1.2-.4.9-.9c-.3-.4-.7-.8-.9-.8-.2 0-.6.4-.9.8zm298.4.2c-.9.6-1 1-.3 1 .6 0 1.5-.5 1.8-1 .8-1.2.4-1.2-1.5 0zm-284.4 2.2c.3.5 1 .6 1.5.3 1.3-.9 1.1-1.2-.6-1.2-.8 0-1.2.4-.9.9zm26 0c.3.5 1 .6 1.5.3 1.3-.9 1.1-1.2-.6-1.2-.8 0-1.2.4-.9.9zm16.5.2c-.9 1.1-.9 1.6 0 2.2.7.4.9.3.5-.4-.3-.6.2-1.5 1.1-2.1 1-.6 1.3-1.1.7-1.1-.6 0-1.7.6-2.3 1.4zm21.9-.4c-.9.6-1 1-.3 1 .6 0 1.5-.5 1.8-1 .8-1.2.4-1.2-1.5 0zm57.6.2c.3.5 1 .6 1.5.3 1.3-.9 1.1-1.2-.6-1.2-.8 0-1.2.4-.9.9zm37.7.5c0 .9.4 1 1.4.2.7-.6 1.3-1.2 1.3-1.4 0-.1-.6-.2-1.3-.2-.8 0-1.4.6-1.4 1.4zm3.7-.8c0 .6.4 1.3 1 1.6.6.3.7-.1.4-.9-.7-1.8-1.4-2.1-1.4-.7zm60.3.8c0 .9.4 1 1.4.2.7-.6 1.3-1.2 1.3-1.4 0-.1-.6-.2-1.3-.2-.8 0-1.4.6-1.4 1.4zm3.7-.8c0 .6.4 1.3 1 1.6.6.3.7-.1.4-.9-.7-1.8-1.4-2.1-1.4-.7zm-153.7 1.6c0 .8.4 1.2.9.9.5-.3.6-1 .3-1.5-.9-1.3-1.2-1.1-1.2.6zm58 0c0 .8.4 1.2.9.9.5-.3.6-1 .3-1.5-.9-1.3-1.2-1.1-1.2.6zm142 0c0 .8.4 1.2.9.9.5-.3.6-1 .3-1.5-.9-1.3-1.2-1.1-1.2.6zm-176.3.6c0 .5.5.7 1 .4.6-.3 1-.8 1-1.1 0-.2-.4-.4-1-.4-.5 0-1 .5-1 1.1zm48 0c0 .5.5.7 1 .4.6-.3 1-.8 1-1.1 0-.2-.4-.4-1-.4-.5 0-1 .5-1 1.1zm8.5-.1c.3.5.8 1 1.1 1 .2 0 .4-.5.4-1 0-.6-.5-1-1.1-1-.5 0-.7.4-.4 1zm23.5.1c0 .5.5.7 1 .4.6-.3 1-.8 1-1.1 0-.2-.4-.4-1-.4-.5 0-1 .5-1 1.1zm4.5-.1c.3.5.8 1 1.1 1 .2 0 .4-.5.4-1 0-.6-.5-1-1.1-1-.5 0-.7.4-.4 1zm27.5.1c0 .5.5.7 1 .4.6-.3 1-.8 1-1.1 0-.2-.4-.4-1-.4-.5 0-1 .5-1 1.1zm8.5-.1c.3.5.8 1 1.1 1 .2 0 .4-.5.4-1 0-.6-.5-1-1.1-1-.5 0-.7.4-.4 1zm23.5.1c0 .5.5.7 1 .4.6-.3 1-.8 1-1.1 0-.2-.4-.4-1-.4-.5 0-1 .5-1 1.1zm4.5-.1c.3.5.8 1 1.1 1 .2 0 .4-.5.4-1 0-.6-.5-1-1.1-1-.5 0-.7.4-.4 1zm17.4 1.7c-1.3 1.6-1.2 1.7.4.4 1.6-1.3 2.1-2.1 1.3-2.1-.2 0-1 .8-1.7 1.7zm-135.9-.3c0 .2.7.7 1.6 1 .8.3 1.2.2.9-.4-.6-1-2.5-1.4-2.5-.6zm32.5.5c-.3.5-.2 1.2.3 1.5.5.3.9-.1.9-.9 0-1.7-.3-1.9-1.2-.6zm64 0c-.3.5-.2 1.2.3 1.5.5.3.9-.1.9-.9 0-1.7-.3-1.9-1.2-.6z"/></svg>