<?xml version="1.0" encoding="utf-8"?>
<!-- Generator: Adobe Illustrator 23.1.0, SVG Export Plug-In . SVG Version: 6.00 Build 0)  -->
<svg version="1.1" id="Ebene_1" xmlns="http://www.w3.org/2000/svg" xmlns:xlink="http://www.w3.org/1999/xlink" x="0px" y="0px"
	 viewBox="0 0 1400 1400" style="enable-background:new 0 0 1400 1400;" xml:space="preserve">
<style type="text/css">
	.st0{fill:#491708;}
	.st1{fill:#638E1E;}
	.st2{fill:#4F542A;}
	.st3{fill:#9CB5A4;}
	.st4{fill:#AF6A3A;}
	.st5{fill:#9B592D;}
	.st6{fill:#330F01;}
	.st7{fill:#C27B49;}
	.st8{fill:#FFFFFF;}
	.st9{fill:#89837A;}
	.st10{fill:#231F20;}
	.st11{fill:#CE895B;}
	.st12{fill:#FFFFFF;stroke:#000000;stroke-miterlimit:10;}
	.st13{stroke:#000000;stroke-miterlimit:10;}
</style>
<g id="object">
	<g>
		<g>
			<path class="st0" d="M1190.6,607.5c0,0-43.4-99.6-88.6-149.9c0,0,43.8,64.4,58.4,93.5s29.1,60.4,29.1,60.4L1190.6,607.5z"/>
			<g>
				<path class="st1" d="M1118.6,486.2c0,0-24.3-22.8-40.5-26.2c-16.1-3.4-33.5,3.7-33.5,3.7s19.3,25.3,35.8,27.3
					C1097.1,493,1118.6,486.2,1118.6,486.2z"/>
				<path class="st2" d="M1121.8,486.4c0.3,0.1,0.6,0.3,0.7,0.6c0.4,0.9-0.5,1.8-1.4,1.5l-54.6-18L1121.8,486.4z"/>
			</g>
			<g>
				<path class="st1" d="M1142.4,509.4c0,0,17.3-28.5,17.3-44.9c0-16.5-10.5-32-10.5-32s-20.8,24.1-19.4,40.7
					C1131.3,489.7,1142.4,509.4,1142.4,509.4z"/>
				<path class="st2" d="M1142.9,512.6c0,0.3-0.2,0.6-0.5,0.8c-0.8,0.6-1.9-0.1-1.7-1l6.4-57.1L1142.9,512.6z"/>
			</g>
			<g>
				<path class="st1" d="M1106.4,462.3c0,0-3.6-33.2-13.6-46.2c-10-13.1-27.8-19.1-27.8-19.1s-1.9,31.8,9.3,44.1
					C1085.6,453.4,1106.4,462.3,1106.4,462.3z"/>
				<path class="st2" d="M1108.6,464.6c0.2,0.3,0.2,0.6,0.1,0.9c-0.3,0.9-1.5,1.1-2,0.2l-29.6-49.2L1108.6,464.6z"/>
			</g>
			<g>
				<path class="st1" d="M1170.7,561.3c0,0,21.2-25.7,23.6-42s-5.7-33.2-5.7-33.2s-24,20.8-25,37.4S1170.7,561.3,1170.7,561.3z"/>
				<path class="st2" d="M1170.6,564.5c-0.1,0.3-0.3,0.6-0.6,0.7c-0.9,0.4-1.8-0.3-1.6-1.3l14.6-55.5L1170.6,564.5z"/>
			</g>
			<g>
				<path class="st1" d="M1154.1,542.1c0,0-18.3-27.9-33.1-35c-14.9-7.1-33.4-4.3-33.4-4.3s12.8,29.1,28.4,35
					C1131.5,543.7,1154.1,542.1,1154.1,542.1z"/>
				<path class="st2" d="M1157.1,543.1c0.3,0.2,0.5,0.4,0.5,0.8c0.2,0.9-0.9,1.6-1.7,1.1l-48.8-30.3L1157.1,543.1z"/>
			</g>
		</g>
		<path class="st0" d="M505.6,718.8c0,0-97.1,48.9-144.7,96.8c0,0,61.9-47.3,90.1-63.5s58.7-32.4,58.7-32.4L505.6,718.8z"/>
		<g>
			<path class="st1" d="M401.1,787.7c0,0-21.4,25.6-23.9,41.8s5.5,33.2,5.5,33.2s24.2-20.7,25.2-37.3
				C409.1,808.8,401.1,787.7,401.1,787.7z"/>
			<path class="st2" d="M401.2,784.4c0.1-0.3,0.3-0.6,0.6-0.7c0.9-0.4,1.8,0.4,1.6,1.3l-14.9,55.5L401.2,784.4z"/>
		</g>
		<g>
			<path class="st1" d="M365.3,811c0,0-32.9,5.4-45.4,16.1c-12.5,10.7-17.5,28.8-17.5,28.8s31.8,0.1,43.5-11.8S365.3,811,365.3,811z
				"/>
			<path class="st2" d="M367.4,808.6c0.3-0.2,0.6-0.3,0.9-0.2c0.9,0.2,1.1,1.5,0.4,2l-47.5,32.3L367.4,808.6z"/>
		</g>
		<path class="st3" d="M910,886.2c-4.2,13.5-10.1,41-0.6,50c0,0-0.3-18.1,4.1-31.4c2.7-8.3,5.1-13.4,6.1-15.9
			c0.5-1.1,0.3-2.3-0.3-3.4l-0.1-0.2C917.1,881.9,911.2,882.5,910,886.2z"/>
		<path class="st3" d="M920,894.7c-3.7,13.6-8.4,41.3,1.5,50c0,0-1-18,2.8-31.5c2.4-8.4,4.6-13.5,5.5-16c0.4-1.1,0.2-2.4-0.5-3.4
			l-0.2-0.2C926.9,890.2,921,891,920,894.7z"/>
		<path class="st3" d="M931.8,898c-4.2,13.5-10.1,41-0.6,50c0,0-0.3-18.1,4.1-31.4c2.7-8.3,5.1-13.4,6.1-15.9
			c0.5-1.1,0.3-2.3-0.3-3.4l-0.1-0.2C938.9,893.7,933,894.2,931.8,898z"/>
		<path class="st3" d="M945.5,897.9c-5.4,13.2-13.6,40.2-4.9,49.8c0,0,1.3-18,6.8-31.1c3.4-8.1,6.3-13,7.5-15.4
			c0.5-1.1,0.5-2.3,0-3.4l-0.1-0.2C952.9,894,947,894.2,945.5,897.9z"/>
		<path class="st3" d="M715.3,936.4c3.9,13.6,14.1,39.8,27.1,42c0,0-10.2-14.9-13.9-28.5c-2.3-8.4-3.1-14-3.6-16.6
			c-0.2-1.2-1-2.1-2.1-2.7l-0.3-0.1C718.8,928.9,714.2,932.7,715.3,936.4z"/>
		<path class="st3" d="M728.4,938c4.5,13.4,15.7,39.1,28.8,40.9c0,0-10.8-14.5-15-27.9c-2.6-8.3-3.6-13.8-4.3-16.4
			c-0.3-1.2-1.1-2.1-2.2-2.6l-0.3-0.1C731.6,930.4,727.1,934.3,728.4,938z"/>
		<path class="st3" d="M740,934.2c3.9,13.6,14.1,39.8,27.1,42c0,0-10.2-14.9-13.9-28.5c-2.3-8.4-3.1-14-3.6-16.6
			c-0.2-1.2-1-2.1-2.1-2.7l-0.3-0.1C743.5,926.7,738.9,930.4,740,934.2z"/>
		<path class="st3" d="M751.3,926.6c2.8,14,10.8,41.1,23.4,44.3c0,0-8.9-15.7-11.5-29.7c-1.6-8.7-2-14.3-2.3-17
			c-0.1-1.2-0.8-2.2-1.9-2.8l-0.2-0.1C755.4,919.3,750.6,922.7,751.3,926.6z"/>
		<path class="st4" d="M803.8,742.3c0,0,39.1,43.1,29.9,117.7c-3.8,30.5,26.1,42.4,50.7-2.3c21.5-39.1,36.1-136.9,32.2-157.5
			S803.8,742.3,803.8,742.3z"/>
		<path class="st5" d="M865.7,736.8c0,0,7.8,24.4-0.8,45.5c0,0,1.4-13.4,1.4-25.6C866.3,748.5,866.1,742.7,865.7,736.8z"/>
		<path class="st5" d="M884.8,742.6c0,0,3.4,25.4-8.9,44.7c0,0,3.7-12.9,5.9-24.9C883.4,754.2,884.1,748.4,884.8,742.6z"/>
		<path class="st5" d="M890.5,741.9c0,0-7.2,88.8-22.3,120c0,0,16.1-7,26.9-67.9c10.7-60.9,12.3-62.2,12.3-62.2L890.5,741.9z"/>
		<path class="st4" d="M596.8,696.7c0,0-6,58-6.8,112.8c-0.6,42.2,3.1,82.5,7.4,93.1c11.1,27.5,40.9,22.5,43.3,7.6
			c2.3-15-4.6-47.2,6.4-94.4s17.5-100.4,17.5-100.4L596.8,696.7z"/>
		<path class="st5" d="M631.7,808.5c0,0-4.8-25.2,6.3-45.1c0,0-3,13.1-4.5,25.2C632.5,796.8,632.1,802.7,631.7,808.5z"/>
		<path class="st5" d="M619.4,824c0,0-5.3-25.1,5.5-45.2c0,0-2.7,13.1-4.1,25.3C619.9,812.2,619.6,818.1,619.4,824z"/>
		<path class="st5" d="M649.3,770.7c0,0-2.6,21.9-7.5,43.2s-10.7,56.1-8.2,74c0,0-3.9-9.4-3.9-38.5s9.4-63.4,7.8-72.6
			C636.1,767.5,649.3,770.7,649.3,770.7z"/>
		<path class="st6" d="M177,645c0.3-11,11.7-18,21.6-13.3c59.3,28,244,99.4,554.7,79.7c278.3-17.7,407.7-107.6,442-135.9
			c4.7-3.9,11.7-1.8,13.6,4l13.7,42.2c2.4,7.3-0.1,15.2-6.1,19.9c-33.8,26.1-156.4,107-403.9,133.1c-286.5,30-542.3-50.7-615.6-76.8
			c-12.6-4.5-20.8-16.5-20.5-29.8L177,645z"/>
		<path class="st0" d="M1122.6,663.7c20.8-14.3,70.7-49.4,67.5-64c-1.4-6.3-0.1-14.3,1.7-21.5c-20.2,16.1-64.8,46.6-140.8,74.8
			c1.4,19.8-5.1,40.1-5.1,40.1S1101.8,678,1122.6,663.7z"/>
		<path class="st0" d="M213.5,651.9c5.3,13.7,47.9,36,105.4,53.7c57.5,17.8,152.2,26.2,152.2,26.2s-5.4-14.1-7.2-28.7
			c-134-17.6-220.9-51-260.8-69.4C207.2,639.7,211.3,646.3,213.5,651.9z"/>
		<g>
			<path class="st5" d="M349.3,729.1c-7.3-2-16.5-4.1-26.3-6.4c-32.1-7.4-72.1-16.7-85.2-29.3c-5.3-5.2-8.7-11-12.3-17.3
				c-7.6-13.2-16.3-28.2-46.7-37.8c-0.4,0.7-0.6,1.4-0.9,2.1c29.7,9.4,37.8,23.4,45.6,36.9c3.7,6.4,7.2,12.4,12.7,17.8
				c13.6,13.1,53.9,22.4,86.3,29.9c9.7,2.2,18.9,4.4,26.2,6.3c9.8,2.7,23,9.8,36.3,18.2c2.1,0.4,4.2,0.9,6.4,1.3
				C376.2,741,360.7,732.2,349.3,729.1z"/>
			<path class="st5" d="M646.9,768.3c-37.6-0.6-151.6-7.2-186.3-23.2c-31.2-14.3-92.5-41.4-124.8-52.1
				c-45.4-14.9-74.4-28.9-78.4-37.5c-0.9-0.3-1.8-0.6-2.6-0.9c0,0.3,0.1,0.5,0.1,0.8c3.7,13,51.8,30.6,80.2,39.9
				c32.2,10.6,93.4,37.6,124.5,52c35.1,16.1,149.5,22.8,187.2,23.4c17.9,0.3,46.1,5.5,68.1,10.2c3.2-0.1,6.3-0.2,9.5-0.3
				C701.6,775.4,667.6,768.6,646.9,768.3z"/>
			<path class="st5" d="M1221.4,617.7c-4.5,7.6-11.3,15.5-21.1,18.8c-21.8,7.4-82.4,49.7-91.7,59.2c-2.5,2.5-4.7,5.8-6.5,9.2
				c1.2-0.5,2.4-1,3.5-1.5c1.4-2.3,2.9-4.4,4.6-6.1c9.2-9.4,69.3-51.3,90.8-58.6c9.8-3.3,16.7-10.7,21.4-18L1221.4,617.7z"/>
			<path class="st5" d="M222.7,703.5c-4.3-7.3-8.3-14.1-12.8-19.6c-10.2-12.3-25.3-19-33.3-21.8l-0.1,2.5
				c7.9,2.9,22.1,9.4,31.5,20.8c4.3,5.3,8.3,12.1,12.6,19.3c0.3,0.5,0.7,1.1,1,1.7c1.1,0.4,2.2,0.7,3.3,1.1
				C224.2,706.1,223.4,704.8,222.7,703.5z"/>
			<path class="st5" d="M225.5,657.6c22.7,29,47.6,44,80.8,48.4c31.9,4.3,56.8,12,78.5,24.3c14.2,8.1,44.6,22.3,67.9,31.7
				c3.6,0.6,7.2,1.2,10.8,1.7c-23.1-8.7-60.3-25.6-77.6-35.4c-21.9-12.5-47.1-20.3-79.3-24.6c-32.5-4.4-56.9-19.1-79.3-47.6
				c-6.5-8.3-13.1-14.9-19.3-20.3c-3.2-1.4-6-2.7-8.7-4C207.2,637.8,216.5,646.1,225.5,657.6z"/>
			<path class="st5" d="M976.5,687.7l21.7-17.2c-1.9,0.6-3.9,1.1-5.8,1.7l-17.3,13.7c-1,0.7-99.4,67.7-126.9,72.7
				c-29.4,5.4-94.8,7.1-140.9-3.5c-34.7-8-77.4-7-111.7-6.3c-12.8,0.3-24.9,0.6-34.8,0.3c-35.8-0.9-104-19.8-133.5-32
				c-15.7-6.5-32.2-18.1-44.2-27.5c-1.7-0.3-3.3-0.7-5-1c12.2,9.8,30.7,23.4,48.3,30.6c30.3,12.5,97.7,31.3,134.3,32.2
				c10,0.2,22.1,0,34.9-0.3c34.2-0.8,76.7-1.7,111.1,6.2c46.4,10.7,112.1,8.9,141.8,3.5C876.6,755.7,972.3,690.5,976.5,687.7z"/>
			<path class="st5" d="M1089.4,668.7c14.4-8.6,32.7-21.8,50.5-34.5c17.7-12.7,36-25.9,50.3-34.4c8.3-5,14.8-11,19.9-17.2l-0.8-2.6
				c-5.1,6.3-11.7,12.7-20.2,17.8c-14.4,8.6-32.7,21.8-50.5,34.5c-17.7,12.7-36,25.9-50.3,34.4c-26.5,15.9-72.5,60.7-79.7,70.8
				c1.2-0.4,2.5-0.7,3.7-1.1C1022.7,724.1,1064.5,683.6,1089.4,668.7z"/>
			<path class="st5" d="M1100.8,682.2c10.6-10.5,23.4-16.9,38.2-24.3c11.4-5.7,23.1-11.5,35.3-20c16.6-11.5,31.5-27.9,40.9-39.5
				l-0.8-2.6c-9.2,11.5-24.4,28.5-41.3,40.2c-12.1,8.4-23.8,14.2-35.1,19.9c-14.4,7.2-27.9,14-38.8,24.7
				c-10.1,10-21.4,25.2-29.7,37.2c1.3-0.5,2.5-0.9,3.8-1.4C1081.3,704.9,1091.5,691.3,1100.8,682.2z"/>
			<path class="st5" d="M1000.5,713.8c21-23.2,56.1-49.4,72.3-56.4c11.5-5,48-28,72.6-48.1c-4.2,2.4-8.7,4.9-13.4,7.5
				c-23,17.2-50.7,34.4-60.1,38.5c-16.4,7.1-51.9,33.6-73.1,57c-8.3,9.1-25.6,24.1-43.5,38.9c1.7-0.4,3.3-0.8,5-1.2
				C977,736.1,992.7,722.4,1000.5,713.8z"/>
			<path class="st5" d="M881.6,761.7c21.1-10.4,47.3-23.3,63.5-33.9c9.7-6.3,27.7-20.9,46.8-36.3c13.1-10.6,27-21.8,39.8-31.7
				c-2.2,0.7-4.4,1.5-6.6,2.2c-11.3,8.8-23.3,18.5-34.6,27.7c-19,15.4-37,29.9-46.6,36.1c-16.2,10.5-42.3,23.4-63.3,33.8
				c-6.1,3-11.9,5.9-17.1,8.5c2.4-0.4,4.9-0.7,7.3-1.1C874.2,765.3,877.9,763.5,881.6,761.7z"/>
		</g>
		<path class="st7" d="M657.2,587.1c48.4,4.6,116.7-116.7,220.3-105.2s160.9,88.7,162.7,134.3c5.4,135.1-53.9,257.5-82.3,283.6
			c-21.3,19.6-53.5,13.4-52-18c1.5-31.5,13-96,7.7-121.3s-14.6-36-14.6-36s-71.4,23.8-127.4,19.2c4.7,1.7,3.9,53.6-8.3,113
			c-8,39.2,14.2,97.8-26.4,92.7c-36.7-4.6-50.3-42.7-42.9-100.6c7.7-60.1-7.7-100.6-15.4-107.5s-135.9,13-166.6,3.8
			s-66.6-36.7-66.8-76c-0.3-45.7,19.5-98.5,102.1-105.9C607.3,557.9,627.9,584.3,657.2,587.1z"/>
		<path class="st5" d="M675.2,734.7c0,0-56.7,1.1-69.9,4.1c-13.2,3.1-13.2,3.1-13.2,3.1s9.5-7.8,36.8-12.4
			c27.3-4.6,45.1-4.6,45.1-4.6L675.2,734.7z"/>
		<path class="st8" d="M640.5,663.2c2.7-36.7-29.8-75.1-63-69.8c-23.1,3.7-20.3,18.8-30.5,18.8c-8,0-6.9-13.3-30-17
			c-33.2-5.3-55.2,21.1-55,64.5c0.2,41.2,33.4,79.2,85,79.2C604.1,738.8,637.4,704.3,640.5,663.2z"/>
		<path class="st9" d="M567.5,638.2c4.1-15.2,20.7-14.7,50.2-2.6c32.8,13.5,32.5,32.5,25.5,39.3c-8.2,7.9-20.7-6.7-40.8-11.5
			C580,658,563.8,651.7,567.5,638.2z"/>
		<path class="st9" d="M527.6,645.2c-4.1-15.2-20.7-14.7-50.2-2.6c-32.8,13.5-32.5,32.5-25.5,39.3c8.2,7.9,20.7-6.7,40.8-11.5
			C515.2,665,531.3,658.8,527.6,645.2z"/>
		<path class="st9" d="M547.1,664.3c11-0.9,37.5,16.5,41.9,28.3c5.1,13.8-11.2,31.9-40.2,32.3c-28.9,0.4-39.9-24-37.9-31.3
			C513.5,684.2,537.1,665.1,547.1,664.3z"/>
		<path class="st10" d="M562.8,677.2c0,5.3-6.8,9.6-15.3,9.6s-15.3-4.3-15.3-9.6s7.4-11.3,15.8-11.3S562.8,671.8,562.8,677.2z"/>
		<path class="st8" d="M536,672.8c0,0,6.1-4.8,13.1-4.3s8.8,3,8.8,3s-5.5-0.3-7.5,1.3c-2.1,1.6-4.9,2.5-6.4,1S536,672.8,536,672.8z"
			/>
		<path class="st3" d="M833.7,861.8c-3,11.1-7.1,33.5-0.4,40.9c0,0-0.2-14.8,2.9-25.7c1.9-6.8,3.6-10.9,4.3-13
			c0.3-0.9,0.2-1.9-0.2-2.8l-0.1-0.2C838.7,858.2,834.5,858.7,833.7,861.8z"/>
		<path class="st3" d="M840.8,868.7c-2.6,11.2-5.9,33.8,1,40.9c0,0-0.7-14.8,2-25.8c1.7-6.9,3.2-11.1,3.8-13.1
			c0.3-0.9,0.2-1.9-0.3-2.8l-0.1-0.2C845.6,865,841.5,865.6,840.8,868.7z"/>
		<path class="st3" d="M849.1,871.4c-3,11.1-7.1,33.5-0.4,40.9c0,0-0.2-14.8,2.9-25.7c1.9-6.8,3.6-10.9,4.3-13
			c0.3-0.9,0.2-1.9-0.2-2.8l-0.1-0.2C854,867.8,849.9,868.3,849.1,871.4z"/>
		<path class="st3" d="M858.6,871.3c-3.8,10.8-9.6,32.9-3.4,40.8c0,0,0.9-14.8,4.8-25.4c2.4-6.6,4.4-10.7,5.2-12.6
			c0.4-0.9,0.4-1.9,0-2.8l-0.1-0.2C863.8,868.2,859.7,868.3,858.6,871.3z"/>
		<path class="st3" d="M605.3,904.1c1.1,11.4,5.1,33.9,14,38.5c0,0-5.4-13.8-6.3-25.1c-0.6-7-0.5-11.5-0.5-13.7c0-1-0.5-1.9-1.2-2.5
			l-0.2-0.1C608.7,899.1,605,901,605.3,904.1z"/>
		<path class="st3" d="M614.4,908.2c1.5,11.4,6.3,33.7,15.3,37.9c0,0-5.9-13.6-7.2-24.8c-0.8-7-0.9-11.5-1-13.6
			c-0.1-1-0.5-1.9-1.3-2.5l-0.2-0.1C617.6,903,614,905,614.4,908.2z"/>
		<path class="st3" d="M623.1,907.7c1.1,11.4,5.1,33.9,14,38.5c0,0-5.4-13.8-6.3-25.1c-0.6-7-0.5-11.5-0.5-13.7c0-1-0.5-1.9-1.2-2.5
			l-0.2-0.1C626.5,902.7,622.7,904.6,623.1,907.7z"/>
		<path class="st3" d="M632,904.3c0.3,11.5,2.6,34.2,11.1,39.4c0,0-4.3-14.1-4.5-25.5c-0.1-7.1,0.4-11.5,0.5-13.7c0-1-0.3-1.9-1-2.6
			l-0.2-0.2C635.8,899.5,631.9,901.1,632,904.3z"/>
		<path class="st11" d="M719.1,943.7c-0.7-0.6-11.3-10.3-15.1-39.5c-4-30.1,5.4-101.4,0-129.8c-5.4-28.4-39.5-58.9-39.5-58.9
			c8.1,14,14.1,25.9,14.1,25.9c7.7,6.9,23,47.4,15.4,107.5C688,896.2,696,930.3,719.1,943.7z"/>
		<path class="st11" d="M922.8,767.5c-2.8-19.6-23.9-43-23.9-43s9.2,10.7,14.6,36.1c5.4,25.3-6.1,89.8-7.7,121.3
			c-0.8,15.4,6.6,24.8,16.9,28c0.4-0.1,0.6-0.2,0.6-0.2s-6.9-16.6-7.7-26.5C914.8,873.3,925.6,787.1,922.8,767.5z"/>
		<path class="st5" d="M771.2,739.5l-14.6-26.9c0,0,48.7,10.4,77.1,4.6s49.1-16.1,49.1-16.1s5.8,15.7,12.3,19.2
			C895.1,720.3,823.3,745.6,771.2,739.5z"/>
		<path class="st5" d="M769,756c0,0,4.1,16.6-2.5,52.5c-6.5,35.8-13.5,67-11.2,91.1s-2.8,43.4-10.8,43s-8-0.4-8-0.4s13.8-5.4,13-28
			s-3.8-48.4,1.5-69.5S769.6,760.6,769,756z"/>
		<path class="st5" d="M1024.7,592.9c0,0,13.8,12.2,4.6,90.5c-9.2,78.3-33.4,141-49.5,171c-16.1,29.9-28.2,40.9-28.2,40.9
			s36.1-79.1,51.8-134.1C1021.8,696.7,1024.7,592.9,1024.7,592.9z"/>
		<path class="st5" d="M968.4,837.3c0,0-1.3,25.6-16.8,42.3c0,0,6-12,10.4-23.5C964.8,848.5,966.6,842.9,968.4,837.3z"/>
		<path class="st5" d="M989.8,781.9c0,0-1.3,25.6-16.8,42.3c0,0,6-12,10.4-23.5C986.2,793.1,988,787.5,989.8,781.9z"/>
		<path class="st5" d="M1005,709.5c0,0,3.2,25.4-9.1,44.6c0,0,3.8-12.9,6.1-24.9C1003.4,721.1,1004.3,715.3,1005,709.5z"/>
		<path class="st5" d="M994.1,685.6c0,0,3.2,25.4-9.1,44.6c0,0,3.8-12.9,6.1-24.9C992.6,697.2,993.4,691.4,994.1,685.6z"/>
		<path class="st5" d="M869.3,696c0,0-21.8,13.5-44.4,10.1c0,0,13.3-1.9,25.2-4.8C858,699.4,863.7,697.8,869.3,696z"/>
		<path class="st5" d="M809.3,705.9c0,0-24.8,6.7-45.4-2.9c0,0,13.3,2,25.5,2.6C797.6,706,803.5,706,809.3,705.9z"/>
		<path class="st5" d="M761.3,759.6c0,0,3.4,25.4-8.9,44.7c0,0,3.7-12.9,5.9-24.9C759.9,771.2,760.6,765.4,761.3,759.6z"/>
		<path class="st5" d="M872.1,770c0,0,4.4,25.3-7,45c0,0,3.2-13.1,4.9-25.2C871.2,781.7,871.7,775.8,872.1,770z"/>
		<path class="st5" d="M877.1,796.9c0,0,3.4,25.4-8.9,44.7c0,0,3.7-12.9,5.9-24.9C875.7,808.5,876.5,802.7,877.1,796.9z"/>
		<path class="st5" d="M867.3,815.5c0,0,1.1,25.6-12.8,43.7c0,0,4.8-12.5,8.1-24.3C864.8,826.9,866.1,821.2,867.3,815.5z"/>
		<path class="st5" d="M626.8,860.3c0,0-7.5-24.5,1.5-45.5c0,0-1.6,13.3-1.8,25.6C626.4,848.6,626.5,854.5,626.8,860.3z"/>
		<path class="st5" d="M625.4,891.6c0,0-10.9-23.2-4.9-45.3c0,0,0.3,13.4,1.8,25.6C623.3,880.1,624.3,885.8,625.4,891.6z"/>
		<path class="st5" d="M750.2,770.1c0,0,3.4,25.4-8.9,44.7c0,0,3.7-12.9,5.9-24.9C748.8,781.8,749.6,776,750.2,770.1z"/>
		<path class="st5" d="M750.2,807.2c0,0,3.4,25.4-8.9,44.7c0,0,3.7-12.9,5.9-24.9C748.8,818.9,749.6,813.1,750.2,807.2z"/>
		<path class="st5" d="M748.5,714.5c0,0,11.6,22.9,6.5,45.1c0,0-0.8-13.4-2.7-25.5C751,726,749.8,720.2,748.5,714.5z"/>
		<path class="st5" d="M742.6,858.3c0,0,6,24.9-4.3,45.3c0,0,2.4-13.2,3.3-25.4C742.4,870,742.5,864.1,742.6,858.3z"/>
		<path class="st5" d="M745.4,898.6c0,0,2,25.6-11.3,44.1c0,0,4.4-12.7,7.3-24.6C743.3,910.2,744.4,904.4,745.4,898.6z"/>
		<path class="st5" d="M845.2,693.6c0,0-23.5,10.3-45.4,3.9c0,0,13.4,0,25.6-1.2C833.6,695.4,839.4,694.5,845.2,693.6z"/>
		<path class="st5" d="M826.5,686.4c0,0-23.7,9.9-45.4,3.1c0,0,13.4,0.2,25.6-0.8C814.9,688.1,820.7,687.3,826.5,686.4z"/>
		<path class="st5" d="M1007.9,644.2c0,0,5.3,25.1-5.4,45.2c0,0,2.7-13.2,4-25.3C1007.3,655.9,1007.6,650,1007.9,644.2z"/>
		<path class="st5" d="M972.1,803.1c0,0-1.3,25.6-16.8,42.3c0,0,6-12,10.4-23.5C968.6,814.3,970.4,808.7,972.1,803.1z"/>
		<path class="st5" d="M985,746.1c0,0,3.3,25.4-9,44.6c0,0,3.7-12.9,6-24.9C983.5,757.8,984.3,751.9,985,746.1z"/>
		<path class="st0" d="M308.1,671.5c0,0-60.1-90.5-77.8-155.8c0,0,30.3,71.8,46.8,99.8s34.9,57.2,34.9,57.2L308.1,671.5z"/>
		<g>
			<path class="st1" d="M251.5,560c0,0-5.9-32.8,0-48.2c5.9-15.4,21.3-26.1,21.3-26.1s10.7,29.9,3.5,44.9
				C268.9,545.6,251.5,560,251.5,560z"/>
			<path class="st2" d="M250,562.8c-0.1,0.3,0,0.7,0.1,0.9c0.5,0.8,1.8,0.6,2-0.3l14.5-55.6L250,562.8z"/>
		</g>
		<g>
			<path class="st1" d="M262.5,598.1c0,0-33.3-0.9-47.1-9.9S194.2,562,194.2,562s31.5-4.4,44.7,5.8
				C252,578.1,262.5,598.1,262.5,598.1z"/>
			<path class="st2" d="M264.9,600.2c0.3,0.2,0.6,0.2,0.9,0.1c0.9-0.4,0.9-1.6,0.1-2l-51.4-25.6L264.9,600.2z"/>
		</g>
		<g>
			<path class="st1" d="M231.9,522c0,0-25.9-21-31.5-36.5c-5.5-15.5-0.9-33.7-0.9-33.7s27.7,15.7,31.9,31.8S231.9,522,231.9,522z"/>
			<path class="st2" d="M232.6,525.1c0.1,0.3,0.4,0.5,0.7,0.6c0.9,0.3,1.7-0.7,1.3-1.6l-25.3-51.6L232.6,525.1z"/>
		</g>
		<g>
			<path class="st1" d="M289.1,646c0,0-33.1,3.9-48.1-3c-15-6.8-24.7-22.8-24.7-22.8s30.5-8.9,45-0.7
				C275.8,627.7,289.1,646,289.1,646z"/>
			<path class="st2" d="M291.8,647.7c0.3,0.1,0.7,0.1,0.9-0.1c0.8-0.5,0.7-1.7-0.2-2l-54.6-17.9L291.8,647.7z"/>
		</g>
		<g>
			<path class="st1" d="M287.3,630.7c0,0-14.4-30.1-12.8-46.4s13.6-30.8,13.6-30.8s18.3,26,15.2,42.4S287.3,630.7,287.3,630.7z"/>
			<path class="st2" d="M286.6,633.8c0,0.3,0.1,0.7,0.4,0.9c0.7,0.6,1.8,0.1,1.8-0.9l-0.7-57.4L286.6,633.8z"/>
		</g>
		<g>
			<path class="st10" d="M551.6,694.6c7.3,0,12.9,10.9,13.1,11.3c0.3,0.6,0.4,1.8,0.1,2.6c-0.3,0.8-0.7,0.9-1.1,0.2
				c-0.1-0.2-6.2-11.9-13.6-10.4c-7.5,1.6-13.4,12.4-13.4,12.5c-0.3,0.6-0.8,0.5-1.1-0.3s-0.2-1.9,0.1-2.6
				c0.3-0.5,6.3-11.6,14.2-13.3C550.6,694.7,551.1,694.6,551.6,694.6z"/>
		</g>
		<circle class="st12" cx="505.3" cy="649.8" r="13.2"/>
		
			<ellipse transform="matrix(0.7071 -0.7071 0.7071 0.7071 -311.4956 547.5901)" class="st13" cx="505.3" cy="649.8" rx="7.4" ry="7.1"/>
		<circle class="st12" cx="588.9" cy="642.7" r="13.2"/>
		<ellipse class="st13" cx="588.9" cy="642.7" rx="7.4" ry="7.1"/>
	</g>
	<g>
		<path class="st1" d="M487.2,995.2c0,0-8.4,32.7-22.9,42.4c-14.5,9.6-38.2,9-38.2,9s1.2-33.4,17.2-41.8
			C459.2,996.4,487.2,995.2,487.2,995.2z"/>
		<path class="st2" d="M490.4,993.7c0.3-0.2,0.4-0.6,0.3-0.9c-0.3-1.1-1.8-1.7-2.6-1l-44.1,39.3L490.4,993.7z"/>
	</g>
	<g>
		<path class="st1" d="M962.6,1082.2c0,0,2-33.3,11.3-46.8s26.8-20.4,26.8-20.4s3.4,31.6-7.2,44.5S962.6,1082.2,962.6,1082.2z"/>
		<path class="st2" d="M960.4,1084.6c-0.2,0.3-0.2,0.6-0.1,0.9c0.3,0.9,1.6,1,2,0.1l27.2-50.6L960.4,1084.6z"/>
	</g>
	<g>
		<path class="st1" d="M709,1050.7c0,0,19.8,26.8,21.3,43.2c1.5,16.4-7.5,32.8-7.5,32.8s-22.9-22.1-23-38.7
			C699.7,1071.3,709,1050.7,709,1050.7z"/>
		<path class="st2" d="M709.1,1047.5c-0.1-0.3-0.3-0.6-0.5-0.8c-0.8-0.5-1.8,0.2-1.6,1.2l11.6,56.3L709.1,1047.5z"/>
	</g>
	<g>
		<path class="st1" d="M1146,791c0,0,2.8,33.2-4.6,48s-23.6,24-23.6,24s-7.9-30.8,0.8-45C1127.3,803.7,1146,791,1146,791z"/>
		<path class="st2" d="M1147.8,788.3c0.1-0.3,0.1-0.7,0-0.9c-0.5-0.8-1.7-0.8-2,0.1l-19.7,53.9L1147.8,788.3z"/>
	</g>
	<g>
		<path class="st1" d="M651.8,363.2c0,0,2.8,33.2-4.5,48c-7.3,14.7-23.6,24-23.6,24s-7.9-30.8,0.7-45S651.8,363.2,651.8,363.2z"/>
		<path class="st2" d="M653.6,360.5c0.1-0.3,0.1-0.7-0.1-0.9c-0.5-0.8-1.7-0.8-2,0.1l-19.6,54L653.6,360.5z"/>
	</g>
	<g>
		<path class="st1" d="M1066.6,345c0,0-14.8-29.9-13.4-46.3s13.2-31,13.2-31s18.6,25.8,15.8,42.2
			C1079.3,326.3,1066.6,345,1066.6,345z"/>
		<path class="st2" d="M1065.9,348.1c0,0.3,0.1,0.6,0.4,0.9c0.7,0.6,1.9,0.1,1.8-0.9l-1.5-57.4L1065.9,348.1z"/>
	</g>
	<g>
		<path class="st1" d="M651.1,157.5c0,0,2.8,33.2-4.5,48c-7.3,14.7-23.6,24-23.6,24s-7.9-30.8,0.7-45S651.1,157.5,651.1,157.5z"/>
		<path class="st2" d="M652.9,154.9c0.1-0.3,0.1-0.7-0.1-0.9c-0.5-0.8-1.7-0.8-2,0.1l-19.6,54L652.9,154.9z"/>
	</g>
	<g>
		<path class="st1" d="M379.3,358.4c0,0-2.5-33.3,5-47.9c7.5-14.7,23.9-23.7,23.9-23.7s7.6,30.9-1.3,45
			C398.2,345.9,379.3,358.4,379.3,358.4z"/>
		<path class="st2" d="M377.5,361c-0.1,0.3-0.1,0.7,0,0.9c0.4,0.8,1.7,0.8,2-0.1l20.3-53.7L377.5,361z"/>
	</g>
	<g>
		<path class="st1" d="M925.2,209.1c0,0-16.3,29.1-30.6,37.2c-14.3,8.1-33,6.7-33,6.7s10.7-30,25.8-36.9
			C902.6,209.2,925.2,209.1,925.2,209.1z"/>
		<path class="st2" d="M928.1,207.9c0.3-0.2,0.5-0.5,0.5-0.8c0.1-1-1-1.6-1.8-1l-46.5,33.7L928.1,207.9z"/>
	</g>
</g>
<g id="text">
</g>
</svg>
