<svg xmlns="http://www.w3.org/2000/svg" viewBox="0 0 793.32 181.98"><g data-name="Layer 2" fill="#f5333f"><path d="M329.2 131.62a14.93 14.93 0 00-4.59-3.12 23 23 0 00-5.43-1.6v-.38a18.24 18.24 0 005.58-2.46 15.14 15.14 0 003.87-3.73 16.06 16.06 0 002.27-4.58 16.49 16.49 0 00.75-4.82 14.41 14.41 0 00-2-8 14.62 14.62 0 00-5.18-4.93 21 21 0 00-6.94-2.36 47.34 47.34 0 00-7.51-.62q-5.49 0-10.11.38t-8.13.95v65.1a26.72 26.72 0 004.16.71c1.57.15 3.15.28 4.72.38s3.09.14 4.54.14h3.8a36.36 36.36 0 009.07-1.14 24.58 24.58 0 007.89-3.49 18.14 18.14 0 005.57-6.1 17.49 17.49 0 002.13-8.83 16.78 16.78 0 00-1.23-6.71 15.4 15.4 0 00-3.23-4.79zm-29.58-29.2a28.08 28.08 0 013.92-.42c1.74-.09 3.64-.14 5.72-.14a25.77 25.77 0 015.2.52 13.54 13.54 0 014.53 1.75 9.14 9.14 0 013.17 3.25 10.26 10.26 0 011.18 5.16 9.84 9.84 0 01-.9 4.2 10.89 10.89 0 01-2.46 3.4 16.74 16.74 0 01-3.54 2.55 25.85 25.85 0 01-4.25 1.85c-1 .12-2.27.22-3.78.28s-2.8.09-3.87.09h-4.92zm24.43 46.68a11.79 11.79 0 01-3.45 3.83 14.7 14.7 0 01-5 2.27 24.17 24.17 0 01-5.86.71h-2.64c-1 0-2-.08-2.93-.14l-2.65-.19a10.23 10.23 0 01-1.89-.29v-23.76h8.22a41 41 0 016.24.47 17.73 17.73 0 015.62 1.79 11 11 0 014.06 3.69 11.13 11.13 0 011.56 6.24 10.81 10.81 0 01-1.28 5.38zm33.07-33.59a14.65 14.65 0 00-4.3 5h-.38l-1.44-5.8h-5.29V162h7.56v-33.12a9.69 9.69 0 012.93-5.62 9 9 0 016.43-2.22 17 17 0 015.37.96l1.61-7.27a23.24 23.24 0 00-6.14-.95 10.92 10.92 0 00-6.35 1.73zm52.3 34.25q0-4.81.28-10.2t.3-11.06a25.22 25.22 0 00-.52-5.1 11.73 11.73 0 00-2.07-4.68 11.07 11.07 0 00-4.54-3.44A19.53 19.53 0 00395 114a47 47 0 00-10 1 27.58 27.58 0 00-8.36 3.21L379 124a18.31 18.31 0 013.07-1.41 31.11 31.11 0 013.69-1.07c1.29-.29 2.55-.52 3.78-.68a26.72 26.72 0 013.45-.24q5.47 0 7.55 2.08c1.39 1.38 2.08 3.81 2.08 7.27 0 1.51-.09 3.21-.28 5.1a19.3 19.3 0 00-2.6-.19h-2.6a58.77 58.77 0 00-9.49.71 23.48 23.48 0 00-7.37 2.37 12.18 12.18 0 00-4.77 4.44 13.05 13.05 0 00-1.71 6.94 13.75 13.75 0 001.09 5.58 12.54 12.54 0 003 4.2 13 13 0 004.49 2.69 16.29 16.29 0 005.62 1 20 20 0 005.38-.66 19.4 19.4 0 004.16-1.66 13.49 13.49 0 003.07-2.26 16 16 0 002.13-2.6h.47l2 6.61h5.58a30.75 30.75 0 01-1-5.76q-.37-3.2-.37-6.7zm-7.09-1.13a10.87 10.87 0 01-1.46 2.55 11.56 11.56 0 01-2.51 2.41 13.69 13.69 0 01-3.59 1.79 14.36 14.36 0 01-4.72.71A8.72 8.72 0 01384 154a7 7 0 01-2.36-5.43 6 6 0 011.27-3.93 8.67 8.67 0 013.4-2.45 18.08 18.08 0 014.92-1.23 48.54 48.54 0 015.71-.33c.89 0 1.78 0 2.7.05s1.81.07 2.69.14zm55.51-30.99a10.19 10.19 0 00-4.87-3.17 23.2 23.2 0 00-6.8-.9 20 20 0 00-9.12 1.94 17.13 17.13 0 00-6.09 5h-.38l-1.42-5.76h-5.29V162h7.56v-32.36a14.38 14.38 0 014.58-6.76 12.59 12.59 0 018.27-2.69q5.67 0 7.8 3.73T454.2 135v27h7.56v-28.58a39.55 39.55 0 00-1-9.69 15.06 15.06 0 00-2.92-6.09zm53.53 28.06V95.81h-7.56v19.65a29.16 29.16 0 00-4.39-1.22 31 31 0 00-5.53-.38q-10 0-15.73 6.28t-5.72 18.38q0 12.66 4.58 18.61t14 6a15.89 15.89 0 008.41-2.18 15.14 15.14 0 005.48-5.48h.38l1.89 6.71h5.1a45.83 45.83 0 01-.85-7.7c-.03-2.65-.06-5.57-.06-8.78zm-7.56.66q-1 5.1-3.87 7.61a11.16 11.16 0 01-7.66 2.5 10.79 10.79 0 01-5.62-1.37 10.58 10.58 0 01-3.73-3.73 16.79 16.79 0 01-2-5.67 39.27 39.27 0 01-.62-7.18q0-9.45 3.69-13.75c2.45-2.86 5.86-4.3 10.2-4.3a23.53 23.53 0 015.77.57 10.67 10.67 0 013.87 1.89zM555.87 117a14.15 14.15 0 00-5.76-2.7 30 30 0 00-6.43-.71q-10 0-15.4 6.34t-5.38 18.42a39.54 39.54 0 001.22 10.21 21.69 21.69 0 003.78 7.79 16.76 16.76 0 006.52 5 23.19 23.19 0 009.36 1.75 31 31 0 009.12-1.33 21.39 21.39 0 007.13-3.59l-2.84-5.48a13.64 13.64 0 01-4.81 2.65 19.41 19.41 0 01-6.43 1.13 18.54 18.54 0 01-7-1.18 11.54 11.54 0 01-4.68-3.4 14.5 14.5 0 01-2.64-5.43 28.77 28.77 0 01-.85-7.37h30.33a46.6 46.6 0 00.57-6.9 24 24 0 00-1.68-9.6 14.14 14.14 0 00-4.13-5.6zm-25 16.15q.66-7.08 4-10a13.09 13.09 0 018.93-2.93q5 0 7.75 2.88t2.74 10.06zM607 117.64a10.28 10.28 0 00-4.87-3.17 23.2 23.2 0 00-6.8-.9 20 20 0 00-9.12 1.94 17.26 17.26 0 00-6.1 5h-.37l-1.42-5.76h-5.29V162h7.56v-32.36a14.38 14.38 0 014.58-6.76 12.57 12.57 0 018.27-2.69c3.78 0 6.37 1.24 7.79 3.73s2.13 6.19 2.13 11.1V162H611v-28.58a39.55 39.55 0 00-1-9.69 15.19 15.19 0 00-3-6.09zm38.16-4.07a17.6 17.6 0 00-7.32 1.52 14.44 14.44 0 00-5.53 4.25h-.38V95.81h-7.55v63.4a25.36 25.36 0 006.47 2.46 37.83 37.83 0 009.59 1.13q11 0 17-6.42t6-18.81q0-12.27-4.58-18.14t-13.7-5.86zm6.66 38.08a12.7 12.7 0 01-10.25 4.54 26.15 26.15 0 01-5.29-.52 14.61 14.61 0 01-4.35-1.56V130.3a15.26 15.26 0 014.26-7.47 11 11 0 017.65-2.64 10.45 10.45 0 015.43 1.32 10.68 10.68 0 013.64 3.59 16.44 16.44 0 012.08 5.48 34.24 34.24 0 01.66 6.9q0 9.65-3.83 14.17zm59.48-3.11v-33.83h-7.56v31.56a20.11 20.11 0 01-1.93 3.92 16.34 16.34 0 01-2.74 3.26 11.51 11.51 0 01-8.08 3 9.7 9.7 0 01-4.54-.94 6.91 6.91 0 01-2.83-2.79 13.57 13.57 0 01-1.47-4.63 44 44 0 01-.42-6.47v-26.91h-7.56v28.53a39.55 39.55 0 001 9.69 15.06 15.06 0 002.93 6.09 10.16 10.16 0 004.82 3.17 22.36 22.36 0 006.66.9 16.54 16.54 0 009.36-2.46 18.93 18.93 0 005.85-6.14h.48l1.89 7.46h5.19a48.31 48.31 0 01-.8-6.38c-.17-2.42-.25-4.77-.25-7.03zm25.56-33.03a14.65 14.65 0 00-4.3 5h-.38l-1.41-5.76h-5.3V162H733v-33.12a9.69 9.69 0 012.93-5.62 9 9 0 016.43-2.22 17 17 0 015.38.94l1.61-7.27a23.24 23.24 0 00-6.14-.95 10.94 10.94 0 00-6.35 1.75zm49.61-.8a42.89 42.89 0 00-9.22-.85q-11.24 0-17 6.28t-5.77 18.38q0 12.57 4.49 18.52t14 6a17.31 17.31 0 007.66-1.46 12.65 12.65 0 004.81-4.21h.38v4.54a30.07 30.07 0 01-.56 6.19 9.09 9.09 0 01-2.08 4.25 8.41 8.41 0 01-4 2.36 24.48 24.48 0 01-6.47.71 25.5 25.5 0 01-6.9-.76c-1.76-.5-3.37-1-4.82-1.6l-2 6.42a27.4 27.4 0 005.9 1.85 47.37 47.37 0 009.12.7q9.54 0 14.41-4.34t4.87-13.51v-47.49a52.88 52.88 0 00-6.82-1.98zm-.71 31.75q-1.14 5.1-3.88 7.51a11.06 11.06 0 01-7.55 2.41 10.82 10.82 0 01-5.58-1.33 10.3 10.3 0 01-3.68-3.68 17.47 17.47 0 01-2.07-5.67 37.22 37.22 0 01-.66-7.28q0-9.25 3.68-13.6a12.56 12.56 0 0110.11-4.35 22.44 22.44 0 019.64 1.8zM314.88 55.61q-3.08 1.94-8.83 1.93a29.73 29.73 0 01-4.77-.37 42 42 0 01-4.4-1 35.49 35.49 0 01-3.73-1.17 24.92 24.92 0 01-2.69-1.23l-4.16 11.05a38.24 38.24 0 007.94 2.64 52.11 52.11 0 0012.47 1.33 37.26 37.26 0 009.87-1.23 20.83 20.83 0 007.66-3.78 17.34 17.34 0 004.91-6.38 21.88 21.88 0 001.75-9.12 16.34 16.34 0 00-2.22-8.83 20.85 20.85 0 00-5.58-6 38.55 38.55 0 00-7.27-4.11c-2.62-1.14-5-2.24-7.28-3.31a25.53 25.53 0 01-5.57-3.5 5.94 5.94 0 01-2.22-4.72 5.7 5.7 0 012.41-4.81c1.6-1.2 3.92-1.8 6.94-1.8a35.7 35.7 0 019 1.09 22.86 22.86 0 016.23 2.41l4.07-10.87A27.92 27.92 0 00321 1a57.05 57.05 0 00-10.87-1A34 34 0 00301 1.13a19.8 19.8 0 00-7 3.5 15.71 15.71 0 00-4.58 5.91 20.11 20.11 0 00-1.61 8.36 17.14 17.14 0 002.19 9.16 20.53 20.53 0 005.58 6 37.32 37.32 0 007.27 4.07c2.62 1.1 5 2.17 7.28 3.21a24.61 24.61 0 015.57 3.45 6.15 6.15 0 012.3 4.91 6.5 6.5 0 01-3.12 5.91zm45.03 13.18a31.68 31.68 0 008.26-1.09 20.53 20.53 0 006.83-3.16l-2.83-9.36a18.5 18.5 0 01-3.88 1.94 15.46 15.46 0 01-5.29.8 10.69 10.69 0 01-5-1.09 9.37 9.37 0 01-3.45-3 13.65 13.65 0 01-2-4.44 22.24 22.24 0 01-.66-5.58q0-7.37 2.64-10.72t7.75-3.36a18.87 18.87 0 014.87.57 25.16 25.16 0 014.3 1.61l2.93-10a28.71 28.71 0 00-5.72-2.17 33.15 33.15 0 00-8.36-.85q-10.31 0-15.69 6.47t-5.38 18.47a45 45 0 001.08 10.21 21 21 0 003.55 7.89 16.25 16.25 0 006.37 5 23 23 0 009.68 1.86zm66.14-1.33V38.08a40 40 0 00-.9-9.21 14.12 14.12 0 00-2.74-5.87 10.33 10.33 0 00-4.58-3.12 19.43 19.43 0 00-6.33-.94 17.56 17.56 0 00-8.41 1.79 17.13 17.13 0 00-5.58 4.82h-.38V1.32h-12.28v66.14h12.28V37.32a10.13 10.13 0 013.45-5.43 8.82 8.82 0 015.72-2.13c2.83 0 4.79.85 5.86 2.56s1.6 4.47 1.6 8.31v26.83zm53.01-6.75a73.16 73.16 0 01-.38-7.61V20.22h-12.29v30.52a12.57 12.57 0 01-3.45 5.1 8.35 8.35 0 01-5.81 2.08q-4 0-5.33-2.55c-.92-1.7-1.37-4.47-1.37-8.31V20.22h-12.29v29.39a36.46 36.46 0 001 9.26 14.51 14.51 0 002.86 5.85 10.48 10.48 0 004.72 3.12 20.25 20.25 0 006.42 1 17.31 17.31 0 009.17-2.36 17.71 17.71 0 006.05-6h.38l2.17 7h9.26a46.47 46.47 0 01-1.11-6.77zm31.22-2.98a12.47 12.47 0 01-2.22.19 2.91 2.91 0 01-2.74-1.51 10.37 10.37 0 01-.85-4.82V1.32h-12.28V58c0 3.84.94 6.6 2.83 8.26s4.63 2.51 8.22 2.51a26.88 26.88 0 006.43-.76 23.31 23.31 0 004.63-1.51l-1.3-9.62a13 13 0 01-2.72.85zm11.39-22.86h23.72v10.87h-23.72zm64.44 33.92a49.11 49.11 0 009.59-.94 19.74 19.74 0 007.7-3.09l-2.65-10.52a21.33 21.33 0 01-5.1 2.17 26 26 0 01-7.18.85 18.2 18.2 0 01-8-1.66 15.81 15.81 0 01-5.75-4.6 20.13 20.13 0 01-3.45-7.19 36.14 36.14 0 01-1.13-9.33q0-11.73 4.77-17.33a15.78 15.78 0 0112.61-5.58 47.63 47.63 0 017.23.47 19 19 0 015.15 1.51l2.55-11A35.06 35.06 0 00596 .76a51.06 51.06 0 00-9.61-.76 33.42 33.42 0 00-10.58 1.75 25.75 25.75 0 00-9.59 5.76 29.67 29.67 0 00-7 10.58q-2.69 6.57-2.69 16.3a46.61 46.61 0 002.41 15.93A29.47 29.47 0 00565.41 61a24.22 24.22 0 009.41 6 34.53 34.53 0 0011.29 1.79zm45.26-.79a23.31 23.31 0 004.63-1.48l-1.33-9.64a13.15 13.15 0 01-2.69.85 12.47 12.47 0 01-2.22.19 2.91 2.91 0 01-2.76-1.51 10.24 10.24 0 01-.85-4.82V1.32h-12.26V58c0 3.84.94 6.6 2.83 8.26s4.63 2.51 8.22 2.51a26.88 26.88 0 006.43-.77zm54.52-24.16a36 36 0 00-1.37-10.2 21.64 21.64 0 00-4.12-7.89 18.37 18.37 0 00-6.89-5.06 24.82 24.82 0 00-9.83-1.79q-10.59 0-16.44 6.47t-5.86 18.47a36 36 0 001.37 10.21 21.26 21.26 0 004.16 7.89 18.74 18.74 0 006.94 5 24.61 24.61 0 009.83 1.8q10.58 0 16.39-6.47t5.82-18.43zm-15 11.06a8.07 8.07 0 01-7.18 3.49 8.53 8.53 0 01-4.39-1.08 8.29 8.29 0 01-3-3.07 16.13 16.13 0 01-1.7-4.63 27.47 27.47 0 01-.57-5.77q0-7.74 2.55-11.15a8.39 8.39 0 017.09-3.4q5.19 0 7.37 4t2.17 10.53q-.01 7.58-2.37 11.08zm56 5.57l2.18 7h9.26a46.41 46.41 0 01-1.14-6.75 76 76 0 01-.38-7.61V20.22h-12.28v30.52a12.77 12.77 0 01-3.45 5.1 8.35 8.35 0 01-5.81 2.08q-4 0-5.34-2.55t-1.37-8.31V20.22h-12.28v29.39a36.46 36.46 0 001 9.26 14.51 14.51 0 002.88 5.85 10.57 10.57 0 004.73 3.12 20.25 20.25 0 006.42 1 17.33 17.33 0 009.17-2.36 17.68 17.68 0 006-6zm47.86 6.29a14.36 14.36 0 005.43-5.34h.38l1.7 6.14h8.79a65.88 65.88 0 01-.85-8.79c-.06-2.64-.1-5.29-.1-7.94V1.32h-12.28V20.5a19.18 19.18 0 00-3.82-1.08 28.91 28.91 0 00-4.82-.33q-10.58 0-16.06 6.71t-5.48 18.8q0 12.46 4.91 18.33t13.8 5.86a16.56 16.56 0 008.4-2.03zm-12.28-12.05a19.36 19.36 0 01-2.13-9.71q0-8.5 2.6-12t7.79-3.5a14 14 0 014.16.52 9.5 9.5 0 012.93 1.56v20a9.46 9.46 0 01-2.93 5.06 8.54 8.54 0 01-5.67 1.74 7.21 7.21 0 01-6.75-3.67z"/><path d="M94.49 17h49.19l32.12 40.35 18.51-2.43 10 6.4v6.2L200.79 64h-6.48l-4.93 4.34 46.84 25.56v41.22l-24.35-29.07L158 80.6l-20.53 14.1-28.95-7.39 9.13-7.44 34.57-5.08-20.82-34.64zM48.35 146.64l106.17-.09h7.25a30.19 30.19 0 0018.23-6.19l9 9.37a40.44 40.44 0 01-25 8.87c-2.07.05-3.71.05-7.7 0l-109.61.07c-20.33.42-28-1.08-36.69-10.4C-12.86 123.8 6 88 41.61 92.8 44 75.08 57 63.7 72.6 64.28L89.49 76a4.57 4.57 0 01-6 1.78C67.55 69.6 52.7 79.86 52.76 98.6a4.76 4.76 0 01-5.76 4.79c-28.8-7.06-43.55 18.48-27.07 36.17 5.86 6.34 11.33 7.44 28.42 7.08z" fill-rule="evenodd"/></g></svg>