<svg width="128" height="30" viewBox="0 0 128 30" fill="none" xmlns="http://www.w3.org/2000/svg"><g clip-path="url(#a)" fill="#E4032E"><path d="M62.318 11.267a.86.86 0 0 0-.306-.684 3.377 3.377 0 0 0-.766-.48l-1-.448a5.1 5.1 0 0 1-1.001-.565 2.867 2.867 0 0 1-.766-.836c-.204-.333-.306-.759-.306-1.277 0-.447.073-.835.22-1.164.141-.32.357-.603.63-.823.287-.226.616-.391.968-.486a4.59 4.59 0 0 1 1.248-.158c.528 0 1.026.046 1.494.138.468.092.853.226 1.156.401L63.33 6.4c-.19-.123-.476-.235-.858-.335a4.823 4.823 0 0 0-1.234-.152c-.416 0-.734.084-.955.25a.797.797 0 0 0-.331.671.832.832 0 0 0 .305.659c.203.175.46.337.766.486l1 .46c.36.159.694.35 1.002.573.307.223.563.5.766.829.203.329.305.74.305 1.23 0 .491-.08.915-.24 1.27a2.4 2.4 0 0 1-.675.889c-.29.237-.641.412-1.053.526a5.06 5.06 0 0 1-1.357.171c-.65 0-1.221-.061-1.715-.184-.493-.122-.857-.245-1.091-.368l.572-1.54c.095.053.218.11.37.171a5.652 5.652 0 0 0 1.117.303c.212.035.431.053.656.053.528 0 .933-.09 1.215-.27.281-.18.422-.454.422-.823Zm7.846 2.066a2.81 2.81 0 0 1-.941.441 4.32 4.32 0 0 1-1.137.152c-.52 0-.96-.084-1.319-.25a2.258 2.258 0 0 1-.877-.704 2.912 2.912 0 0 1-.487-1.099 6.31 6.31 0 0 1-.15-1.421c0-1.115.247-1.972.741-2.573.495-.601 1.213-.902 2.157-.902.476 0 .86.04 1.15.12.271.071.535.173.785.302l-.403 1.395a3.38 3.38 0 0 0-.591-.224 2.574 2.574 0 0 0-.669-.08c-.468 0-.823.157-1.065.468-.243.311-.364.81-.364 1.494 0 .28.03.54.091.776.053.22.146.43.273.619.12.175.284.317.474.414.195.1.422.151.682.151.286 0 .528-.037.728-.111.199-.075.376-.165.532-.27l.39 1.302Zm5.327.408v-3.737c0-.536-.073-.921-.22-1.158-.148-.237-.416-.356-.806-.356-.286 0-.548.099-.786.296a1.41 1.41 0 0 0-.474.757v4.198h-1.688V4.529h1.688v3.369h.053a2.35 2.35 0 0 1 .766-.671c.303-.167.689-.25 1.156-.25.33 0 .619.044.87.132.246.084.464.234.63.434.17.202.295.476.377.823.082.346.123.774.123 1.283v4.093h-1.688v-.001Zm5.054-6.58V10.9c0 .535.063.92.189 1.158.125.236.37.355.734.355.32 0 .587-.096.799-.29.212-.193.37-.43.474-.71v-4.25h1.688v4.579l.052 1.06c.035.346.087.66.156.94h-1.273l-.3-.974h-.051c-.206.34-.491.624-.832.83-.355.219-.775.328-1.26.328-.33 0-.624-.044-.883-.132a1.451 1.451 0 0 1-.65-.434c-.173-.203-.305-.474-.396-.816-.09-.343-.136-.772-.136-1.29V7.16h1.688v.001Zm7.43 4.37c0 .306.04.53.118.67.077.14.203.211.376.211.104 0 .206-.009.306-.026a1.8 1.8 0 0 0 .37-.119l.182 1.343c-.139.07-.35.14-.636.21a3.69 3.69 0 0 1-.883.106c-.494 0-.871-.117-1.131-.35-.26-.232-.39-.616-.39-1.15V4.528h1.689v7.001ZM90.34 9.2h3.26v1.513h-3.26V9.201Zm11.237 4.158c-.277.202-.63.346-1.058.434a6.57 6.57 0 0 1-1.319.132 4.678 4.678 0 0 1-1.553-.257 3.29 3.29 0 0 1-1.292-.829c-.372-.381-.669-.877-.89-1.486-.22-.61-.331-1.35-.331-2.218 0-.903.123-1.66.37-2.27.247-.61.567-1.1.961-1.473s.834-.64 1.319-.803c.484-.163.97-.244 1.454-.244.52 0 .959.035 1.318.105.36.07.656.154.89.25l-.351 1.527a2.545 2.545 0 0 0-.708-.211 6.346 6.346 0 0 0-.994-.066c-.719 0-1.296.258-1.734.776-.438.518-.656 1.32-.656 2.409 0 .473.052.906.156 1.296.09.361.251.701.474 1 .212.277.476.49.792.644.317.154.682.23 1.098.23.39 0 .719-.04.988-.118.268-.079.502-.18.701-.303l.364 1.474h.001Zm3.131-1.83c0 .307.039.531.117.672.078.14.203.21.377.21.103 0 .205-.008.305-.026.1-.017.223-.057.37-.118l.182 1.342c-.138.07-.35.14-.636.21a3.69 3.69 0 0 1-.883.106c-.493 0-.871-.117-1.131-.35-.259-.232-.389-.615-.389-1.15V4.528h1.688v7.001Zm2.092-1.079c0-1.114.269-1.971.806-2.572s1.29-.902 2.26-.902c.519 0 .97.083 1.351.25.381.166.697.401.948.704.251.302.44.669.566 1.098.125.43.188.904.188 1.422 0 1.114-.266 1.972-.799 2.573-.532.6-1.283.901-2.253.901-.52 0-.971-.083-1.351-.25a2.58 2.58 0 0 1-.955-.704 2.957 2.957 0 0 1-.572-1.098 5.039 5.039 0 0 1-.189-1.422Zm1.741 0c-.002.27.024.54.078.804.044.225.123.442.233.644.104.184.24.327.409.428.169.101.37.151.605.151.442 0 .77-.162.987-.486.217-.325.325-.838.325-1.54 0-.605-.099-1.094-.298-1.467-.2-.373-.537-.559-1.013-.559-.416 0-.741.158-.975.474-.234.315-.35.833-.35 1.552h-.001Zm7.495-3.29v3.738c0 .535.064.921.189 1.158.126.237.37.355.734.355.321 0 .587-.096.799-.29.212-.193.37-.43.474-.71V7.16h1.689v4.58l.052 1.059c.035.346.086.66.156.94h-1.274l-.299-.974h-.052c-.205.34-.491.625-.831.83-.355.219-.775.328-1.261.328-.329 0-.623-.044-.883-.132a1.448 1.448 0 0 1-.649-.434c-.174-.202-.306-.474-.396-.816-.091-.343-.137-.772-.137-1.29V7.159h1.689v.002Zm11.212 4.264.013 1.105a9.3 9.3 0 0 0 .117 1.224h-1.209l-.233-.855h-.052a1.99 1.99 0 0 1-.747.744c-.324.189-.708.283-1.149.283-.815 0-1.447-.272-1.897-.816-.451-.544-.676-1.395-.676-2.553 0-1.123.251-1.996.753-2.618.503-.623 1.239-.934 2.209-.934a3.87 3.87 0 0 1 .663.046c.173.03.346.081.519.151V4.53h1.689v6.895Zm-2.872 1.053c.33 0 .59-.08.78-.243.19-.162.325-.397.402-.704V8.74a1.282 1.282 0 0 0-.402-.217 1.871 1.871 0 0 0-.572-.072c-.476 0-.834.162-1.072.487-.238.324-.357.882-.357 1.671 0 .561.098 1.013.293 1.356.195.342.504.513.928.513Zm-60.174 7.317a2.316 2.316 0 0 1-.416 1.31 2.09 2.09 0 0 1-.532.52 2.469 2.469 0 0 1-.767.34v.054c.26.044.51.119.747.224a2 2 0 0 1 .63.434c.182.184.33.408.442.671.112.264.169.575.169.934 0 .474-.097.885-.292 1.23-.196.347-.451.63-.767.85a3.345 3.345 0 0 1-1.084.486 4.973 4.973 0 0 1-1.248.158h-.52c-.199 0-.406-.007-.623-.02l-.649-.052a3.703 3.703 0 0 1-.572-.099v-9.066l1.118-.132 1.39-.053a6.4 6.4 0 0 1 1.032.086c.35.057.67.166.955.328.286.163.522.389.708.678.187.29.28.663.28 1.119Zm-3.014 6.264c.277 0 .546-.033.805-.099.26-.066.49-.17.689-.315a1.63 1.63 0 0 0 .474-.533c.117-.211.175-.461.175-.75 0-.36-.07-.65-.214-.869a1.515 1.515 0 0 0-.558-.513 2.375 2.375 0 0 0-.773-.25 5.708 5.708 0 0 0-.858-.066h-1.13v3.303c.06.017.147.03.26.04l.363.026.403.02.364.006Zm-.715-4.317.533-.013.52-.04c.202-.067.397-.153.584-.256.182-.1.344-.22.487-.356a1.52 1.52 0 0 0 .337-.473c.084-.184.126-.384.124-.586 0-.29-.055-.529-.163-.717a1.28 1.28 0 0 0-.435-.454 1.862 1.862 0 0 0-.623-.243 3.524 3.524 0 0 0-.715-.073l-.786.02a3.5 3.5 0 0 0-.539.06v3.131h.676Zm8.73-.407a2.318 2.318 0 0 0-.74-.132c-.373 0-.668.102-.884.309a1.36 1.36 0 0 0-.403.783v4.605h-1.039v-6.58h.728l.195.804h.052c.165-.299.362-.529.592-.691.23-.162.522-.243.877-.243.251 0 .533.044.845.131l-.22 1.014h-.003Zm1.182-.527a3.7 3.7 0 0 1 1.15-.447 6.351 6.351 0 0 1 1.37-.145c.45 0 .812.061 1.085.184.273.122.48.283.623.48.141.194.24.416.286.651.048.237.071.474.071.71l-.04 1.54-.038 1.422.039.92c.023.273.07.541.143.804h-.766l-.273-.921h-.066a2.179 2.179 0 0 1-.292.362 1.858 1.858 0 0 1-.422.316 2.657 2.657 0 0 1-.572.23 2.72 2.72 0 0 1-.74.092c-.278 0-.536-.044-.774-.132a1.752 1.752 0 0 1-1.026-.96 1.926 1.926 0 0 1-.15-.777c0-.386.079-.708.235-.967.156-.26.374-.465.656-.619a3.214 3.214 0 0 1 1.012-.329c.394-.066.83-.098 1.306-.098h.357c.12 0 .239.009.357.026l.039-.71c0-.483-.095-.82-.286-1.014-.19-.192-.537-.29-1.039-.29a3.96 3.96 0 0 0-.474.033l-.52.092c-.171.038-.34.087-.506.145a2.71 2.71 0 0 0-.422.19l-.325-.789.002.001Zm1.844 5.277c.22.003.44-.03.65-.099.176-.058.342-.142.493-.25a1.581 1.581 0 0 0 .546-.69v-1.092l-.37-.02-.37-.006c-.269 0-.53.015-.786.046-.255.031-.48.088-.675.17a1.196 1.196 0 0 0-.468.343.836.836 0 0 0-.176.546.977.977 0 0 0 .325.756c.216.198.493.296.832.296Zm8.809.816v-3.75c0-.685-.098-1.2-.293-1.546-.195-.346-.552-.52-1.072-.52-.459 0-.838.125-1.137.375a1.998 1.998 0 0 0-.63.94v4.5h-1.038V20.32h.727l.195.803h.053c.207-.28.487-.51.838-.69.351-.18.768-.27 1.254-.27.355 0 .666.042.935.125.268.083.491.23.669.44.178.212.312.494.403.85.09.355.136.805.136 1.349V26.9H81.04l-.001-.001Zm7.86-2.264.012 1.218c.01.364.048.72.117 1.072h-.701l-.26-.934h-.052a2.114 2.114 0 0 1-.754.763c-.328.202-.714.303-1.156.303-.866 0-1.509-.277-1.929-.83-.42-.552-.63-1.417-.63-2.592 0-1.123.262-1.976.786-2.56.524-.583 1.245-.874 2.163-.874.32 0 .574.017.76.052.186.036.387.092.604.171v-2.737h1.04v6.948Zm-2.625 1.5c.442 0 .792-.116 1.052-.348.26-.233.438-.586.533-1.06v-3.263a1.44 1.44 0 0 0-.533-.263 3.235 3.235 0 0 0-.792-.08c-.598 0-1.066.2-1.404.6-.338.399-.506 1.037-.506 1.914 0 .36.028.693.084 1 .056.307.15.57.28.79.124.213.3.392.512.52.212.127.47.19.773.19Zm9.301.238c-.26.21-.587.377-.98.5a4.18 4.18 0 0 1-1.254.184c-.494 0-.923-.081-1.286-.244a2.29 2.29 0 0 1-.896-.697 3.037 3.037 0 0 1-.52-1.085 5.511 5.511 0 0 1-.169-1.422c0-1.123.247-1.978.74-2.566.495-.588 1.2-.882 2.118-.882.295 0 .59.032.883.098.294.066.559.19.793.375.233.185.424.446.571.783.148.338.22.783.22 1.335 0 .29-.025.61-.077.962h-4.17c0 .385.04.728.117 1.026.078.297.2.55.364.756.164.207.378.364.642.474.265.11.587.164.968.164.302-.001.6-.054.883-.158.295-.105.516-.228.663-.368l.39.763v.002Zm-2.234-5.29c-.51 0-.92.136-1.228.407-.307.272-.49.738-.552 1.395h3.222c0-.667-.126-1.134-.377-1.401-.25-.267-.606-.401-1.065-.401Zm8.197 5.816v-3.75c0-.685-.097-1.2-.292-1.546-.195-.346-.552-.52-1.072-.52-.46 0-.838.125-1.137.375a1.998 1.998 0 0 0-.63.94v4.5h-1.039V20.32h.728l.195.803h.052c.208-.28.487-.51.839-.69.35-.18.768-.27 1.253-.27.355 0 .667.042.936.125.268.083.491.23.669.44.178.212.312.494.402.85.091.355.137.805.137 1.349V26.9h-1.039l-.002-.001Zm2.872-9.212h1.039v3.277h.052a2.01 2.01 0 0 1 .76-.592c.307-.14.642-.211 1.007-.211.84 0 1.47.272 1.89.816.42.544.63 1.386.63 2.526 0 1.15-.277 2.022-.832 2.619-.554.597-1.333.895-2.338.895-.485 0-.925-.053-1.319-.158-.394-.105-.691-.22-.889-.342v-8.83Zm2.676 3.395c-.434 0-.784.123-1.053.369-.268.245-.463.592-.584 1.04v3.315c.164.097.363.169.598.218.239.048.483.073.727.072.59 0 1.059-.21 1.41-.632.351-.42.526-1.078.526-1.974a4.842 4.842 0 0 0-.09-.96 2.334 2.334 0 0 0-.286-.764 1.49 1.49 0 0 0-.5-.5c-.203-.123-.453-.184-.747-.184h-.001Zm5.209-.763v3.75c0 .342.019.642.058.902.04.259.106.473.202.644.096.17.225.3.39.388.165.088.372.132.623.132.234 0 .442-.037.623-.111.182-.075.344-.178.487-.31.145-.134.272-.287.377-.454.108-.171.198-.355.266-.546V20.32h1.039v4.71l.033.981c.022.338.059.634.11.889h-.714l-.26-1.04h-.066a2.597 2.597 0 0 1-.805.855c-.338.228-.766.342-1.286.342-.346 0-.651-.042-.915-.125a1.4 1.4 0 0 1-.663-.441c-.178-.21-.312-.493-.403-.849-.09-.355-.136-.805-.136-1.349v-3.974h1.04Zm9.068 1.013a2.32 2.32 0 0 0-.741-.132c-.372 0-.667.103-.883.31a1.35 1.35 0 0 0-.403.782v4.605h-1.039V20.32h.728l.195.803h.052a2.02 2.02 0 0 1 .591-.69c.231-.163.522-.244.878-.244.251 0 .532.044.844.132l-.22 1.013h-.002Zm6.262 5.869c0 .85-.223 1.478-.669 1.882-.447.404-1.107.605-1.981.605-.52 0-.938-.032-1.254-.098a3.715 3.715 0 0 1-.812-.257l.273-.895c.217.085.438.16.662.224.243.07.559.105.949.105.363 0 .66-.032.889-.098a1.15 1.15 0 0 0 .552-.329 1.26 1.26 0 0 0 .286-.592c.052-.241.078-.529.078-.862v-.631h-.052c-.174.254-.394.45-.663.585-.268.136-.619.204-1.052.204-.875 0-1.518-.276-1.929-.829-.412-.552-.617-1.412-.617-2.579 0-1.123.264-1.976.792-2.56.528-.584 1.308-.875 2.339-.875.493 0 .916.04 1.267.12.32.07.635.162.942.276v6.606-.002Zm-2.612-1.08c.442 0 .788-.11 1.039-.334.251-.224.429-.572.533-1.047v-3.368c-.346-.167-.788-.25-1.325-.25-.589 0-1.052.202-1.39.605-.339.403-.507 1.036-.507 1.895 0 .369.031.706.091 1.013.06.307.156.57.286.79.122.211.296.388.506.513.208.123.464.184.766.184h.001Z"/><path fill-rule="evenodd" clip-rule="evenodd" d="m16.255 10.142 3.632 2.507c-.264.431-.81.632-1.295.383-3.424-1.746-6.616.454-6.603 4.476.002.682-.61 1.186-1.25 1.03-6.191-1.516-9.364 3.963-5.82 7.76 1.272 1.361 2.448 1.591 6.123 1.518l22.829-.018.626.005h.455l.478-.007c1.46 0 2.804-.5 3.909-1.326l1.94 2.01c-1.51 1.18-3.36 1.903-5.385 1.903l-.615.008h-.24l-.8-.005-23.568.015c-4.371.09-6.022-.233-7.888-2.233-4.904-5.251-.843-12.936 6.809-11.905.508-3.801 3.31-6.245 6.663-6.12ZM31.54 0l6.905 8.658 3.98-.522 2.146 1.373v1.33l-.752-.757h-1.394l-1.06.93L51.438 16.5v8.845L46.2 19.107l-11.59-5.461-4.407 3.026-6.224-1.587 1.964-1.597 7.433-1.09-4.477-7.433L20.96 0h10.58Z"/></g><defs><clipPath id="a"><path fill="#fff" d="M0 0h128v30H0z"/></clipPath></defs></svg>