<svg width="59" height="60" viewBox="0 0 59 60" xmlns="http://www.w3.org/2000/svg"><defs><linearGradient x1="4.987%" y1="61.253%" x2="95.077%" y2="38.731%" id="a"><stop stop-color="#B1063A" offset="0%"/><stop stop-color="#F6A800" offset="100%"/></linearGradient></defs><path d="M36.31 18.009c3.999-.14 8.06 1.423 10.246 5.227l-5.868 5.862c-.127.126-.339.424-.38.636l-2.444 6.03a.888.888 0 00-.087.463c-.422.263-.838.635-1.098.773-1.09.582-2.033.33-2.948-.45-.894-.762-1.566-1.752-2.582-2.374-.955-.584-2.028-.777-3.087-.36-1.078.424-1.821 1.207-2.61 2.018-.688.706-1.615 1.639-2.7 1.51-1.02-.121-1.694-1.217-2.412-1.841-.779-.678-1.733-1.096-2.77-.802-.929.264-1.627.93-2.34 1.54-.283.242-.698.503-.647.935.056.476.586.636.975.46.217-.096.385-.255.542-.425l.233-.257.12-.124c.36-.35.817-.7 1.29-.878 1.077-.404 1.828.478 2.501 1.183.657.689 1.386 1.339 2.382 1.412 1.024.074 1.96-.414 2.731-1.041 1.267-1.032 2.707-3.378 4.617-2.616 2.166.863 3.217 4.048 5.926 3.643.441-.065 2.127-.745 2.871-1.44a.944.944 0 00.332-.091l6.036-2.442c.213-.041.51-.253.637-.38l5.376-5.37C52.936 30.218 54 32.19 54 34.3c0 4.253-4.138 7.667-9.235 7.667H17.48c-4.137 0-7.375.42-9.894-1.737-3.598-2.695-1.14-10.841 8.036-9.044 0-4.492 4.677-7.128 9.654-5.151.78-4.852 5.877-7.847 11.034-8.026zm10.939 6.654c.126.318.237.651.34.994l-4.621 4.616c-.722.72-.891 1.651-.425 2.118.467.465 1.4.296 2.12-.424l4.395-4.39c.281.12.556.248.818.391l-4.609 4.602c-.34.339-.466.805-.423 1.186l-3.139 1.101-1.694-1.692 1.101-3.136c.382.043.849-.084 1.188-.423z" fill="url(#a)" fill-rule="evenodd"/></svg>