<svg xmlns="http://www.w3.org/2000/svg" xmlns:xlink="http://www.w3.org/1999/xlink" width="239" height="60"><defs><path id="a" d="M.706.777h36.212v22.935H.706z"/><path id="c" d="M0 .272h10.22V19.09H0z"/><path id="e" d="M0 29.223h206.529V1H0z"/></defs><g transform="translate(16 19)" fill="none" fill-rule="evenodd"><g transform="translate(160 .223)"><mask id="b" fill="#fff"><use xlink:href="#a"/></mask><path d="M22.661 23.643a3.015 3.015 0 00-2.786-1.869h-8.128l-2.599.026c-2.089 0-3.829-.173-5.271-1.41-2.582-1.936-1.243-7.406 4.404-7.406.611 0 1.274.065 1.987.204 0-2.754 2.205-4.631 5.027-4.631.843 0 1.742.168 2.652.53.62-3.864 4.674-6.248 8.776-6.392a12.68 12.68 0 01.39-.006c2.63 0 5.252.937 6.993 3.054a2.665 2.665 0 002.81.853h.001C34.926 2.364 30.773.777 27.113.777a13.87 13.87 0 00-.456.008c-3.987.139-8.325 2.213-9.996 5.97a8.636 8.636 0 00-1.366-.11h-.001c-1.857 0-3.579.63-4.849 1.774a6.22 6.22 0 00-1.75 2.662 9.62 9.62 0 00-.414-.008H8.28c-4.199 0-6.502 2.422-7.258 4.689-.77 2.311-.105 4.76 1.656 6.118 2.004 1.689 4.389 1.832 6.47 1.832l1.247-.013 1.352-.014h10.932l-.018-.042" fill="#3b424b" mask="url(#b)"/></g><g transform="translate(0 5.223)"><mask id="d" fill="#fff"><use xlink:href="#c"/></mask><path d="M3.435 12.765c0 1.29.137 2.191.411 2.703s.738.768 1.391.768c.677 0 1.189-.302 1.536-.907V9.354c-.338-.645-.847-.967-1.524-.967-.629 0-1.088.254-1.378.762s-.436 1.41-.436 2.708v.908zM0 11.906c0-2.145.363-3.745 1.089-4.801S2.871 5.52 4.257 5.52c1.008 0 1.847.436 2.516 1.307V.272h3.447v18.576H7.112l-.158-1.33c-.701 1.048-1.604 1.572-2.708 1.572-1.372 0-2.418-.524-3.139-1.572S.016 14.93 0 12.898v-.992z" fill="#9e292b" mask="url(#d)"/></g><path d="M16.249 15.511v6.773h3.023c.839 0 1.504-.295 1.996-.886s.738-1.419.738-2.487c0-2.267-.895-3.4-2.685-3.4h-3.072zm0-1.99h2.842c.766 0 1.385-.276 1.856-.829s.708-1.287.708-2.202c0-1.036-.214-1.79-.641-2.26s-1.08-.706-1.959-.706h-2.806v5.997zm-2.213 10.792V5.495h5.019c1.604 0 2.812.418 3.622 1.253s1.216 2.09 1.216 3.761c0 .879-.206 1.655-.617 2.327s-.968 1.194-1.669 1.564c.806.258 1.445.788 1.917 1.589s.707 1.767.707 2.895c0 1.69-.433 3.016-1.3 3.981s-2.102 1.448-3.707 1.448h-5.188z" fill="#3b424b"/><mask id="f" fill="#fff"><use xlink:href="#e"/></mask><path d="M27.907 24.071h2.141V10.26h-2.141v13.811zm2.31-17.282c0 .362-.101.665-.303.907s-.507.362-.918.362c-.404 0-.706-.121-.908-.362s-.302-.545-.302-.907.101-.67.302-.92.504-.375.908-.375.707.127.912.381a1.41 1.41 0 01.309.914zm3.857 17.282h2.141V5.495h-2.141zm7.691-5.921c0 1.466.218 2.543.653 3.231s1.145 1.033 2.129 1.033c1.064 0 1.858-.535 2.382-1.607v-6.595c-.548-1.047-1.338-1.57-2.37-1.57-.984 0-1.693.344-2.129 1.033s-.657 1.745-.665 3.17v1.305zm-2.141-1.215c0-2.015.377-3.551 1.131-4.608s1.837-1.584 3.248-1.584c1.249 0 2.225.508 2.926 1.524V5.494h2.141v18.577h-1.959l-.109-1.403c-.701 1.096-1.705 1.644-3.012 1.644-1.354 0-2.416-.525-3.186-1.578s-1.164-2.537-1.18-4.456v-1.343zm19.907 5.987c-.71.927-1.746 1.39-3.108 1.39-1.185 0-2.081-.408-2.685-1.227s-.911-2.01-.92-3.574v-8.526h2.129v8.369c0 2.04.613 3.06 1.839 3.06 1.298 0 2.192-.581 2.684-1.742v-9.687h2.141v13.086h-2.032l-.048-1.149zm7.812-11.936l.061 1.415c.83-1.105 1.89-1.657 3.18-1.657 2.314 0 3.487 1.544 3.519 4.632v8.696h-2.128v-8.599c0-1.024-.172-1.752-.514-2.183s-.857-.647-1.542-.647a2.17 2.17 0 00-1.433.532c-.423.355-.764.818-1.022 1.391v9.506h-2.141V10.986h2.02zm12.179 7.164c0 1.466.216 2.543.647 3.231s1.139 1.033 2.122 1.033c1.065 0 1.863-.544 2.395-1.631v-6.535c-.556-1.071-1.347-1.606-2.37-1.606-.984 0-1.694.344-2.129 1.033s-.657 1.745-.665 3.17v1.305zm-2.141-1.215c0-2.04.371-3.581 1.113-4.626s1.826-1.566 3.253-1.566c1.33 0 2.342.568 3.036 1.706l.108-1.464h1.936v13.207c0 1.62-.416 2.864-1.246 3.731s-1.988 1.3-3.471 1.3c-.645 0-1.369-.159-2.171-.478s-1.405-.712-1.808-1.179l.871-1.475c.887.87 1.866 1.305 2.939 1.305 1.782 0 2.697-.971 2.745-2.914v-1.705c-.693 1.024-1.677 1.535-2.951 1.535-1.354 0-2.411-.509-3.168-1.529s-1.154-2.486-1.186-4.397v-1.451zm19.483 3.786c0-.459-.173-.855-.52-1.185s-1.016-.718-2.008-1.161c-1.152-.476-1.965-.883-2.436-1.222s-.825-.723-1.059-1.155-.35-.945-.35-1.542c0-1.064.388-1.948 1.167-2.654s1.771-1.059 2.981-1.059c1.273 0 2.298.372 3.072 1.113s1.16 1.693 1.16 2.855h-2.128a2.1 2.1 0 00-.593-1.506c-.395-.415-.899-.623-1.511-.623-.629 0-1.123.163-1.482.488s-.538.762-.538 1.308c0 .434.131.784.393 1.049s.893.615 1.893 1.049c1.588.622 2.668 1.23 3.241 1.823s.859 1.346.859 2.259c0 1.138-.391 2.049-1.173 2.732s-1.831 1.023-3.145 1.023c-1.362 0-2.467-.391-3.314-1.173s-1.269-1.774-1.269-2.975h2.152c.025.726.246 1.294.666 1.705s1.007.617 1.765.617c.709 0 1.25-.159 1.621-.478s.556-.748.556-1.288m9.965 1.766c.709 0 1.278-.219 1.705-.659s.661-1.066.702-1.881h2.02c-.049 1.258-.495 2.3-1.337 3.127s-1.873 1.239-3.09 1.239c-1.621 0-2.856-.51-3.707-1.53s-1.276-2.537-1.276-4.553v-1.439c0-1.976.424-3.477 1.27-4.505s2.08-1.543 3.701-1.543c1.338 0 2.401.424 3.187 1.271s1.203 2.003 1.252 3.47h-2.02c-.048-.967-.28-1.693-.696-2.177s-.99-.725-1.723-.725c-.952 0-1.657.313-2.116.937s-.698 1.651-.714 3.078v1.669c0 1.54.228 2.629.683 3.266s1.175.955 2.159.955m7.558 1.584h2.141V5.495h-2.141zm7.692-5.914c0 1.347.264 2.405.792 3.175s1.24 1.155 2.135 1.155c1.887 0 2.858-1.363 2.914-4.088v-1.476c0-1.338-.266-2.396-.798-3.174s-1.245-1.167-2.14-1.167c-.879 0-1.583.389-2.111 1.167s-.792 1.832-.792 3.162v1.246zm-2.141-1.234c0-1.902.462-3.408 1.385-4.517s2.143-1.663 3.659-1.663 2.735.541 3.658 1.621 1.397 2.552 1.421 4.414v1.379c0 1.895-.459 3.395-1.378 4.499s-2.145 1.657-3.677 1.657c-1.516 0-2.732-.536-3.646-1.608s-1.39-2.524-1.422-4.355v-1.427zm20.052 5.999c-.71.927-1.746 1.39-3.108 1.39-1.185 0-2.081-.408-2.685-1.227s-.911-2.01-.92-3.574v-8.526h2.129v8.369c0 2.04.613 3.06 1.839 3.06 1.298 0 2.192-.581 2.684-1.742v-9.687h2.141v13.086h-2.032l-.048-1.149zm7.485-4.772c0 1.466.218 2.543.653 3.231s1.145 1.033 2.129 1.033c1.064 0 1.858-.535 2.382-1.607v-6.595c-.548-1.047-1.338-1.57-2.37-1.57-.984 0-1.693.344-2.129 1.033s-.657 1.745-.665 3.17v1.305zm-2.141-1.215c0-2.015.377-3.551 1.131-4.608s1.837-1.584 3.248-1.584c1.249 0 2.225.508 2.926 1.524V5.494h2.141v18.577h-1.959l-.109-1.403c-.701 1.096-1.705 1.644-3.012 1.644-1.354 0-2.416-.525-3.186-1.578s-1.164-2.537-1.18-4.456v-1.343zm47.105 3.872l-1.99.345a.75.75 0 01-.745-.31l-.676-.965a.755.755 0 01-.039-.802l.997-1.763a1.51 1.51 0 01.447-.493l9.517-6.663a7.56 7.56 0 00-1.193-.622 1.485 1.485 0 00-1.414.17l-7.982 5.59c-.128.089-.352.31-.42.485l-3.24 6.212c-.452.613.138 1.457.869 1.242l6.946-.92c.188-.004.472-.139.6-.229l7.988-5.593c.35-.245.59-.626.634-1.05.018-.171.027-.343.027-.518a4.98 4.98 0 00-.124-1.085l-9.596 6.719a1.504 1.504 0 01-.606.25m14.059-8.525c-.43-2.126-1.809-4.004-3.808-5.235a1.493 1.493 0 00-1.638.061l-.597.417-.376.264-.359.251c2.891.866 4.785 3.147 4.785 5.665a5.14 5.14 0 01-.145 1.207l1.529-1.071c.499-.349.73-.962.609-1.559m-15.459 6.944c.327.467 1.146.463 1.868-.043l9.324-6.529a6 6 0 00-1.232-1.667l-9.281 6.499c-.722.505-1.006 1.273-.679 1.74" mask="url(#f)" fill="#3b424b"/></g></svg>