<svg xmlns="http://www.w3.org/2000/svg" width="340" height="60" fill="#fff" fill-rule="evenodd"><path d="M140.314 22.76l-7.7 7.693c-1.202 1.2-1.485 2.753-.707 3.53s2.332.494 3.533-.706l7.324-7.316 1.364.65-7.68 7.67a2.464 2.464 0 00-.706 1.977l-5.23 1.835-2.824-2.82 1.836-5.226a2.48 2.48 0 001.98-.705l8.247-8.238.566 1.656zm5.94 5.257c2.974 2.343 4.747 5.633 4.747 9.15 0 7.087-6.896 12.778-15.392 12.778H90.134c-6.896 0-12.293.7-16.5-2.895-5.997-4.492-1.9-18.07 13.392-15.074 0-7.487 7.795-11.88 16.09-8.585 1.3-8.086 9.794-13.078 18.4-13.377 6.664-.232 13.433 2.373 17.077 8.713l-9.78 9.77c-.212.21-.565.707-.635 1.06l-4.073 10.05a1.48 1.48 0 00-.145.773c-.703.438-1.396 1.06-1.83 1.29-1.817.97-3.39.55-4.913-.75-1.5-1.27-2.61-2.922-4.304-3.96-1.592-.973-3.38-1.295-5.145-.6-1.797.708-3.035 2.013-4.35 3.364-1.145 1.176-2.7 2.73-4.5 2.517-1.7-.202-2.822-2.03-4.02-3.07-1.298-1.13-2.888-1.826-4.618-1.336-1.547.44-2.71 1.55-3.898 2.566-.472.403-1.164.84-1.08 1.558.093.794.976 1.06 1.625.77.634-.284 1.013-.88 1.492-1.345.6-.584 1.36-1.166 2.15-1.463 1.793-.673 3.046.796 4.167 1.97 1.095 1.148 2.3 2.232 3.97 2.353 1.706.124 3.266-.69 4.552-1.735 2.112-1.72 4.51-5.63 7.695-4.36 3.61 1.44 5.36 6.748 9.876 6.073.736-.11 3.546-1.243 4.786-2.402.183-.017.368-.06.553-.15l10.06-4.07c.355-.07.85-.422 1.062-.634l8.96-8.948z"/><path d="M30.546 43.123a.66.66 0 01-.66.66H26.62a.66.66 0 01-.66-.66V33.025h-9.372v10.098a.66.66 0 01-.66.66H12.66a.66.66 0 01-.66-.66V19.9c0-.363.297-.627.66-.627h3.267c.363 0 .66.264.66.627V29h9.372v-9.1c0-.363.297-.627.66-.627h3.267c.363 0 .66.264.66.627v23.232zm22.02-16.203c0 5.84-4.422 7.722-9.504 7.722-.858 0-2.178-.1-2.937-.132v8.613c0 .363-.264.66-.627.66h-3.3a.66.66 0 01-.66-.66V20.42c0-.66.396-.9 1.056-1 1.716-.264 4.06-.43 6.468-.43 5.082 0 9.504 1.782 9.504 7.623v.297zm-4.554 0v-.297c0-2.772-1.65-3.828-4.95-3.828-.693 0-2.343.066-2.937.132v7.854a84.41 84.41 0 002.937.1c3.564 0 4.95-1.32 4.95-3.96zm12.995 16.203a.66.66 0 01-.66.66H57.08a.66.66 0 01-.66-.66V19.9c0-.363.297-.627.66-.627h3.267c.363 0 .66.264.66.627v23.232zm113.457-5.676c0 3.168-1.65 6.6-8.15 6.6a32.95 32.95 0 01-5.478-.462c-.56-.1-.627-.23-.627-.594v-1.32c0-.363.264-.528.56-.528h.1c1.518.132 3.927.198 5.445.198 3.96 0 5.016-1.584 5.016-3.894 0-1.65-.957-2.574-3.96-4.422l-3.2-1.947c-3.036-1.848-4.554-3.53-4.554-6.17 0-3.993 2.87-5.84 7.887-5.84 1.947 0 4.488.198 5.742.396.33.066.56.23.56.56v1.42c0 .33-.23.528-.56.528h-.066a93.14 93.14 0 00-5.676-.198c-3.4 0-4.85.726-4.85 3.135 0 1.55 1.1 2.475 3.597 3.993l3.036 1.815c3.828 2.277 5.18 4.092 5.18 6.732zm15.52 5.5c0 .43-.132.627-.66.726-1.1.198-2.574.363-4.125.363-4.488 0-7.03-3.168-7.03-8.02v-2.574c0-4.85 2.508-8.02 7.03-8.02a24.25 24.25 0 014.125.363c.528.1.66.264.66.726v1.188c0 .33-.264.495-.56.495h-.132a32.18 32.18 0 00-4.092-.231c-2.64 0-4.125 1.75-4.125 5.478v2.574c0 3.696 1.452 5.478 4.125 5.478a32.18 32.18 0 004.092-.231h.132c.297 0 .56.165.56.495v1.188zm17.628.198a.66.66 0 01-.66.66h-1.584a.66.66 0 01-.66-.66V32.3c0-3.3-1.386-4.323-3.53-4.323-1.023 0-3.102.264-4.554.924v14.256c0 .33-.297.66-.66.66h-1.617c-.33 0-.627-.297-.627-.66V19.66c0-.363.264-.66.627-.66h1.65c.363 0 .627.297.627.66v6.798c1.584-.693 3.63-1.023 5.05-1.023 3.498 0 5.94 2.013 5.94 6.864v10.857zm18.42 0c0 .363-.264.66-.627.66h-1.65c-.363 0-.627-.297-.627-.66v-.627c-1.815 1.023-3.3 1.518-5.247 1.518-3.96 0-5.742-2.475-5.742-6.864V26.326a.66.66 0 01.66-.66h1.584a.66.66 0 01.66.66v10.857c0 3.333 1.122 4.356 3.63 4.356 1.386 0 2.937-.528 4.455-1.287V26.326c0-.33.297-.66.66-.66h1.617c.33 0 .627.297.627.66v16.83zm7.76 0c0 .33-.23.66-.594.66h-1.716c-.33 0-.594-.297-.594-.66v-23.53c0-.33.23-.627.594-.627h1.716c.33 0 .594.264.594.627v23.53zm12.226-8.35c0 .33-.264.56-.627.56h-6.567c-.363 0-.627-.198-.627-.56V33.52c0-.33.264-.594.627-.594h6.567c.363 0 .627.23.627.594v1.287zm19.024 8.15c0 .396-.297.594-.66.66-1.386.264-2.673.43-5.478.43-4.06 0-8.712-2.178-8.712-10.197V29.26c0-8.085 4.653-10.197 8.712-10.197 2.08 0 4.092.297 5.544.528.297.033.528.132.528.43v1.683c0 .198-.066.363-.396.363h-.1c-1.188-.1-3.63-.297-5.544-.297-3.234 0-5.742 1.88-5.742 7.5v4.587c0 5.544 2.508 7.5 5.742 7.5 1.88 0 4.257-.165 5.445-.264h.132c.363 0 .528.165.528.528v1.353zm6.83.198c0 .33-.23.66-.594.66h-1.716c-.33 0-.594-.297-.594-.66v-23.53c0-.33.23-.627.594-.627h1.716c.33 0 .594.264.594.627v23.53zm18.918-7.16c0 4.85-2.508 8.052-7.36 8.052s-7.326-3.2-7.326-8.052v-2.508c0-4.85 2.475-8.052 7.326-8.052s7.36 3.2 7.36 8.052v2.508zm-2.904 0v-2.508c0-3.366-1.353-5.5-4.455-5.5-3.07 0-4.422 2.112-4.422 5.5v2.508c0 3.366 1.32 5.5 4.422 5.5 3.07 0 4.455-2.112 4.455-5.5zm20.855 7.16c0 .363-.264.66-.627.66h-1.65c-.363 0-.627-.297-.627-.66v-.627c-1.815 1.023-3.3 1.518-5.247 1.518-3.96 0-5.742-2.475-5.742-6.864V26.326a.66.66 0 01.66-.66h1.584a.66.66 0 01.66.66v10.857c0 3.333 1.122 4.356 3.63 4.356 1.386 0 2.937-.528 4.455-1.287V26.326c0-.33.297-.66.66-.66h1.617c.33 0 .627.297.627.66v16.83zm18.103-.43c0 .43-.1.66-.693.76-2.046.396-4.06.56-6.072.56-4.917 0-7.194-3.2-7.194-8.15V33.52c0-5.18 2.376-8.085 7.194-8.085a24.07 24.07 0 013.861.33v-6.138c0-.33.264-.627.627-.627h1.683c.33 0 .594.264.594.627v23.1zm-2.904-1.42v-13.1c-1.1-.198-2.805-.23-3.86-.23-3.234 0-4.3 2.013-4.3 5.544v2.376c0 3.597 1.023 5.6 4.3 5.6 1.122 0 2.74-.1 3.86-.198z" fill-rule="nonzero"/></svg>