<svg width="239" height="60" viewBox="0 0 239 60" xmlns="http://www.w3.org/2000/svg" xmlns:xlink="http://www.w3.org/1999/xlink"><defs><linearGradient x1="4.987%" y1="61.253%" x2="95.077%" y2="38.731%" id="b"><stop stop-color="#B1063A" offset="0%"/><stop stop-color="#F6A800" offset="100%"/></linearGradient><path d="M33.253 0c-.139.001-.278.004-.417.01-5.587.194-11.108 3.438-11.953 8.694-5.392-2.141-10.46.714-10.46 5.581-9.939-1.947-12.602 6.878-8.705 9.798 2.729 2.336 6.237 1.881 10.72 1.881h29.557C47.517 25.964 52 22.266 52 17.66c0-2.286-1.153-4.424-3.086-5.947l-5.823 5.816c-.138.138-.46.367-.69.412l-6.54 2.645a.97.97 0 01-.47.095c-.81.713-2.557 1.417-3.012 1.484-1.732.257-2.806-.852-3.944-2.028-.731-.756-1.489-1.538-2.433-1.914a2.272 2.272 0 00-.848-.17c-1.237 0-2.277 1.072-3.215 2.036-.357.368-.694.715-1.02.98-.99.804-1.97 1.174-2.902 1.11-1.082-.079-1.871-.818-2.527-1.505l-.119-.126c-.714-.753-1.522-1.607-2.677-1.175-.581.219-1.097.647-1.426.968-.091.089-.176.184-.262.28-.209.234-.407.455-.685.58a.77.77 0 01-.668-.021.53.53 0 01-.274-.415c-.043-.359.253-.598.537-.83.047-.038.093-.075.136-.112l.236-.203c.679-.588 1.381-1.197 2.268-1.448 1.216-.341 2.262.273 2.926.852.213.185.422.407.642.644.583.625 1.187 1.27 2.014 1.369 1.234.147 2.293-.94 2.993-1.659l.077-.08c.826-.847 1.605-1.648 2.722-2.088 1.052-.414 2.185-.282 3.273.383.664.408 1.205.977 1.728 1.527.334.352.68.717 1.059 1.04 1.106.943 2.15 1.101 3.283.497.147-.078.33-.217.542-.377.188-.143.4-.3.613-.436a.977.977 0 01.09-.6l2.649-6.53c.045-.232.274-.553.411-.69l6.358-6.35C41.684 1.755 37.596.03 33.477 0h-.224zm6.072 12.574a1.61 1.61 0 01-1.286.458l-1.194 3.396 1.837 1.834 3.399-1.192a1.604 1.604 0 01.458-1.285l4.993-4.987c-.384-.208-.79-.392-1.212-.556l-4.665 4.66c-.33.329-.714.55-1.083.622-.321.062-.586.003-.754-.163-.38-.38-.174-1.204.46-1.836l4.883-4.879c-.135-.5-.295-.974-.475-1.428l-5.361 5.356z" id="a"/></defs><g fill="none" fill-rule="evenodd"><path d="M27.031 41.773a.431.431 0 01-.428.431h-2.12a.431.431 0 01-.427-.431V35.17h-6.08v6.603a.431.431 0 01-.428.431h-2.12a.431.431 0 01-.428-.431v-15.19c0-.238.193-.41.428-.41h2.12c.235 0 .428.172.428.41v5.955h6.08v-5.955c0-.238.192-.41.428-.41h2.12c.235 0 .427.172.427.41v15.19zm14.286-10.595c0 3.82-2.87 5.05-6.166 5.05-.557 0-1.413-.065-1.905-.087v5.632c0 .237-.172.431-.407.431h-2.14a.431.431 0 01-.43-.431V26.928c0-.432.258-.583.686-.648 1.113-.172 2.633-.28 4.196-.28 3.297 0 6.166 1.165 6.166 4.984v.194zm-2.955 0v-.194c0-1.812-1.07-2.503-3.211-2.503-.45 0-1.52.043-1.905.087v5.135c.342.022 1.541.065 1.905.065 2.312 0 3.211-.863 3.211-2.59zm8.43 10.595a.431.431 0 01-.428.431h-2.12a.431.431 0 01-.428-.431v-15.19c0-.238.193-.41.429-.41h2.119c.236 0 .428.172.428.41v15.19zm73.854-3.711c0 2.07-1.07 4.315-5.287 4.315-1.499 0-2.612-.151-3.554-.302-.364-.065-.407-.151-.407-.389v-.863c0-.237.171-.345.364-.345h.064c.985.086 2.548.13 3.533.13 2.569 0 3.254-1.036 3.254-2.546 0-1.08-.621-1.683-2.57-2.892l-2.076-1.273c-1.97-1.208-2.954-2.309-2.954-4.035 0-2.61 1.862-3.819 5.116-3.819 1.263 0 2.912.13 3.725.26.214.042.364.15.364.366v.928c0 .215-.15.345-.364.345h-.043c-.942-.065-2.44-.13-3.682-.13-2.205 0-3.147.475-3.147 2.05 0 1.014.707 1.619 2.334 2.611l1.97 1.187c2.483 1.489 3.36 2.675 3.36 4.401zm10.068 3.603c0 .28-.085.41-.428.475-.706.129-1.67.237-2.676.237-2.911 0-4.56-2.072-4.56-5.243V35.45c0-3.172 1.627-5.244 4.56-5.244.985 0 1.97.108 2.676.238.343.065.428.172.428.475v.776c0 .216-.171.324-.364.324h-.085a20.715 20.715 0 00-2.655-.151c-1.713 0-2.676 1.143-2.676 3.582v1.683c0 2.416.942 3.581 2.676 3.581 1.05 0 1.713-.043 2.655-.15h.085c.193 0 .364.107.364.323v.777zm11.436.13a.431.431 0 01-.428.43h-1.028a.431.431 0 01-.428-.43v-7.1c0-2.157-.899-2.826-2.29-2.826-.664 0-2.013.173-2.955.604v9.321a.446.446 0 01-.428.432h-1.049c-.214 0-.407-.194-.407-.432V26.432c0-.238.172-.432.407-.432h1.07c.236 0 .407.194.407.432v4.444c1.028-.453 2.355-.669 3.276-.669 2.269 0 3.853 1.317 3.853 4.488v7.1zm11.95 0c0 .237-.171.43-.407.43h-1.07c-.236 0-.407-.193-.407-.43v-.41c-1.178.668-2.14.992-3.404.992-2.569 0-3.725-1.618-3.725-4.488V30.79c0-.237.193-.431.428-.431h1.028c.235 0 .428.194.428.431v7.099c0 2.18.728 2.848 2.355 2.848.899 0 1.905-.345 2.89-.841V30.79c0-.216.193-.431.428-.431h1.05c.213 0 .406.194.406.431v11.004zm5.035 0c0 .215-.15.43-.386.43h-1.113c-.214 0-.385-.193-.385-.43V26.41c0-.216.15-.41.385-.41h1.113c.214 0 .386.173.386.41v15.384zm7.931-5.46c0 .216-.171.367-.407.367h-4.26c-.235 0-.407-.13-.407-.367v-.841c0-.216.172-.389.407-.389h4.26c.236 0 .407.151.407.389v.841zm12.341 5.33c0 .259-.192.388-.428.431-.899.173-1.734.28-3.553.28-2.634 0-5.652-1.423-5.652-6.666v-3c0-5.286 3.018-6.667 5.652-6.667 1.348 0 2.654.194 3.596.345.193.022.343.087.343.28v1.101c0 .13-.043.238-.257.238h-.064c-.771-.065-2.355-.195-3.597-.195-2.098 0-3.725 1.23-3.725 4.898v3c0 3.625 1.627 4.898 3.725 4.898 1.22 0 2.762-.108 3.532-.173h.086c.235 0 .342.108.342.345v.885zm4.432.13c0 .215-.15.43-.386.43h-1.113c-.214 0-.385-.193-.385-.43V26.41c0-.216.15-.41.385-.41h1.113c.214 0 .386.173.386.41v15.384zm12.273-4.683c0 3.172-1.627 5.265-4.775 5.265-3.147 0-4.752-2.093-4.752-5.265v-1.64c0-3.172 1.605-5.265 4.752-5.265 3.148 0 4.775 2.093 4.775 5.265v1.64zm-1.884 0v-1.64c0-2.2-.878-3.603-2.89-3.603-1.991 0-2.87 1.38-2.87 3.603v1.64c0 2.201.857 3.603 2.87 3.603 1.99 0 2.89-1.38 2.89-3.603zm13.53 4.682c0 .238-.172.432-.408.432h-1.07c-.235 0-.407-.194-.407-.432v-.41c-1.177.67-2.14.993-3.404.993-2.569 0-3.725-1.618-3.725-4.488V30.79c0-.237.193-.431.429-.431h1.027a.43.43 0 01.428.431v7.099c0 2.18.728 2.848 2.355 2.848.9 0 1.906-.345 2.89-.841V30.79c0-.216.193-.431.428-.431h1.05c.214 0 .406.194.406.431v11.004zm11.743-.28c0 .28-.064.431-.45.496a20.44 20.44 0 01-3.938.367c-3.19 0-4.667-2.093-4.667-5.33v-1.553c0-3.388 1.541-5.287 4.667-5.287.663 0 1.67.065 2.504.216V26.41c0-.216.172-.41.407-.41h1.092c.214 0 .385.173.385.41v15.104zm-1.884-.928V32.02c-.706-.13-1.82-.151-2.504-.151-2.098 0-2.783 1.316-2.783 3.625v1.553c0 2.352.663 3.668 2.783 3.668.728 0 1.777-.064 2.504-.129z" fill="#B1063A" fill-rule="nonzero"/><g transform="translate(53 20)"><mask id="c" fill="#fff"><use xlink:href="#a"/></mask><path d="M33.253 0c-.139.001-.278.004-.417.01-5.587.194-11.108 3.438-11.953 8.694-5.392-2.141-10.46.714-10.46 5.581-9.939-1.947-12.602 6.878-8.705 9.798 2.729 2.336 6.237 1.881 10.72 1.881h29.557C47.517 25.964 52 22.266 52 17.66c0-2.286-1.153-4.424-3.086-5.947l-5.823 5.816c-.138.138-.46.367-.69.412l-6.54 2.645a.97.97 0 01-.47.095c-.81.713-2.557 1.417-3.012 1.484-1.732.257-2.806-.852-3.944-2.028-.731-.756-1.489-1.538-2.433-1.914a2.272 2.272 0 00-.848-.17c-1.237 0-2.277 1.072-3.215 2.036-.357.368-.694.715-1.02.98-.99.804-1.97 1.174-2.902 1.11-1.082-.079-1.871-.818-2.527-1.505l-.119-.126c-.714-.753-1.522-1.607-2.677-1.175-.581.219-1.097.647-1.426.968-.091.089-.176.184-.262.28-.209.234-.407.455-.685.58a.77.77 0 01-.668-.021.53.53 0 01-.274-.415c-.043-.359.253-.598.537-.83.047-.038.093-.075.136-.112l.236-.203c.679-.588 1.381-1.197 2.268-1.448 1.216-.341 2.262.273 2.926.852.213.185.422.407.642.644.583.625 1.187 1.27 2.014 1.369 1.234.147 2.293-.94 2.993-1.659l.077-.08c.826-.847 1.605-1.648 2.722-2.088 1.052-.414 2.185-.282 3.273.383.664.408 1.205.977 1.728 1.527.334.352.68.717 1.059 1.04 1.106.943 2.15 1.101 3.283.497.147-.078.33-.217.542-.377.188-.143.4-.3.613-.436a.977.977 0 01.09-.6l2.649-6.53c.045-.232.274-.553.411-.69l6.358-6.35C41.684 1.755 37.596.03 33.477 0h-.224zm6.072 12.574a1.61 1.61 0 01-1.286.458l-1.194 3.396 1.837 1.834 3.399-1.192a1.604 1.604 0 01.458-1.285l4.993-4.987c-.384-.208-.79-.392-1.212-.556l-4.665 4.66c-.33.329-.714.55-1.083.622-.321.062-.586.003-.754-.163-.38-.38-.174-1.204.46-1.836l4.883-4.879c-.135-.5-.295-.974-.475-1.428l-5.361 5.356z" fill="url(#b)" mask="url(#c)"/></g></g></svg>