<svg xmlns="http://www.w3.org/2000/svg" xmlns:xlink="http://www.w3.org/1999/xlink" width="59" height="60"><defs><path id="a" d="M0 .065h36.212V23H0z"/><path id="c" d="M.015.896h6.81v8.081H.015z"/></defs><g fill="none" fill-rule="evenodd"><g transform="translate(7 19.935)"><mask id="b" fill="#fff"><use xlink:href="#a"/></mask><path d="M21.956 22.931a3.015 3.015 0 00-2.786-1.869h-8.128l-2.599.026c-2.089 0-3.829-.173-5.271-1.41-2.582-1.936-1.243-7.406 4.404-7.406.611 0 1.274.065 1.987.204 0-2.754 2.205-4.631 5.027-4.631.843 0 1.742.168 2.652.53.62-3.864 4.674-6.248 8.776-6.392a12.68 12.68 0 01.39-.006c2.63 0 5.252.937 6.993 3.054a2.665 2.665 0 002.81.853h.001C34.221 1.652 30.068.065 26.408.065a13.87 13.87 0 00-.456.008c-3.987.139-8.325 2.213-9.996 5.97a8.636 8.636 0 00-1.366-.11h-.001c-1.857 0-3.579.63-4.849 1.774a6.22 6.22 0 00-1.75 2.662 9.62 9.62 0 00-.414-.008h-.001c-4.199 0-6.502 2.422-7.258 4.689-.77 2.311-.105 4.76 1.656 6.118C3.977 22.857 6.362 23 8.443 23l1.247-.013 1.352-.014h10.932l-.018-.042" fill="#3b424b" mask="url(#b)"/></g><path d="M38.734 39.807l-1.99.345a.75.75 0 01-.745-.31l-.676-.965a.755.755 0 01-.039-.802l.997-1.763a1.52 1.52 0 01.447-.493l9.517-6.663a7.56 7.56 0 00-1.193-.622 1.485 1.485 0 00-1.414.17l-7.982 5.59c-.128.089-.352.31-.42.485l-3.24 6.212c-.452.613.138 1.457.869 1.242l6.946-.92c.188-.004.472-.139.6-.229l7.988-5.593c.35-.245.59-.626.634-1.05.018-.171.027-.343.027-.518a4.98 4.98 0 00-.124-1.085l-9.596 6.719a1.504 1.504 0 01-.606.25" fill="#3b424b"/><g transform="translate(46 24.935)"><mask id="d" fill="#fff"><use xlink:href="#c"/></mask><path d="M6.793 6.347c-.43-2.126-1.809-4.004-3.808-5.235a1.493 1.493 0 00-1.638.061L.75 1.59l-.376.264-.359.251C2.906 2.971 4.8 5.252 4.8 7.77a5.14 5.14 0 01-.145 1.207l1.529-1.071c.499-.349.73-.962.609-1.559" fill="#3b424b" mask="url(#d)"/></g><path d="M37.334 38.226c.327.467 1.146.463 1.868-.043l9.324-6.529a6 6 0 00-1.232-1.667l-9.281 6.499c-.722.505-1.006 1.273-.679 1.74" fill="#3b424b"/></g></svg>