<svg width="80px" height="79px" viewBox="0 0 80 79" version="1.1" xmlns="http://www.w3.org/2000/svg" xmlns:xlink="http://www.w3.org/1999/xlink">
    <defs>
        <path d="M18.3686306,13.9033984 L15.7680837,12.3979297 L18.0902712,11.9945312 C18.3186306,11.9408203 18.5046853,11.7920703 18.6159743,11.5988281 C18.7128493,11.4305859 18.7529275,11.2285937 18.7145681,11.0265234 C18.6321462,10.5923437 18.2190212,10.321875 17.7918728,10.4223437 L14.4550368,11.6377734 L11.2466384,10 L14.4550759,8.36226563 L17.7919118,9.57769531 C18.2190993,9.67816406 18.6322243,9.40769531 18.7146071,8.97351563 C18.7970681,8.53933594 18.5174978,8.10597656 18.0903493,8.00550781 L15.7681618,7.60210938 L18.3686696,6.09664063 C18.7413259,5.88089844 18.8614431,5.38992188 18.6369118,5 C18.4123806,4.61007813 17.9283181,4.46890625 17.5556618,4.68460937 L14.955115,6.19007813 L15.7678103,3.97183594 C15.8946071,3.55066406 15.6600759,3.09128906 15.243865,2.94574219 C14.8276931,2.80023438 14.3875368,3.02375 14.26074,3.44492187 L13.6420681,6.95019531 L10.8130446,8.58792969 L10.8130446,5.3125 L13.5312087,3.02261719 C13.8315603,2.70191406 13.804529,2.20792969 13.47074,1.91929687 C13.1369509,1.63058594 12.6228884,1.65667969 12.3225368,1.97734375 L10.8130056,3.7921875 L10.8130056,0.78125 C10.8130056,0.349765625 10.4490212,0 9.99999777,0 C9.55097434,0 9.18698996,0.349765625 9.18698996,0.78125 L9.18698996,3.7921875 L7.67745871,1.97734375 C7.37710715,1.65664062 6.86304465,1.630625 6.52925559,1.91929688 C6.19550559,2.20792969 6.16847434,2.70191406 6.4688259,3.02261719 L9.18698996,5.3125 L9.18698996,8.58800781 L6.35796652,6.95027344 L5.73929465,3.44496094 C5.61245871,3.02378906 5.17230246,2.80027344 4.75613059,2.94578125 C4.33988059,3.09128906 4.1053884,3.55070313 4.23218527,3.971875 L5.04488059,6.19011719 L2.44437277,4.68464844 C2.07171652,4.46890625 1.58761496,4.61011719 1.36312277,5.00003906 C1.13863059,5.38996094 1.25870871,5.8809375 1.63136496,6.09667969 L4.23191184,7.60214844 L1.90968527,8.00558594 C1.48253684,8.10605469 1.20304465,8.53941406 1.28542746,8.97359375 C1.36784934,9.40773438 1.78097434,9.67820312 2.20816184,9.57773438 L5.54495871,8.36230469 L8.75335715,10 L5.54491965,11.6377344 L2.20808371,10.4223047 C1.78089621,10.3218359 1.36781027,10.5923047 1.28534934,11.0264453 C1.20296652,11.4605469 1.48245871,11.8939844 1.90960715,11.9944531 L4.23183371,12.3978906 L1.63128684,13.9033594 C1.25870871,14.1191016 1.13859152,14.6100781 1.36312277,15 C1.58765402,15.3899219 2.07171652,15.5311328 2.44437277,15.3153906 L5.04491965,13.8099219 L4.23222434,16.028125 C4.1644509,16.2532813 4.19988059,16.4892578 4.31113059,16.6824609 C4.40800559,16.8507031 4.56241965,16.9865234 4.75613059,17.0542187 C5.17234152,17.1997266 5.61249777,16.9762109 5.73929465,16.5550391 L6.35796652,13.0497266 L9.18698996,11.4119922 L9.18698996,14.6875 L6.4688259,16.9773828 C6.16843527,17.2980859 6.19550559,17.7920313 6.52925559,18.0807031 C6.86300559,18.3692969 7.37710715,18.3433203 7.67745871,18.0226172 L9.18698996,16.2077734 L9.18698996,19.21875 C9.18698996,19.6502344 9.55097434,20 9.99999777,20 C10.4490212,20 10.8130056,19.6502344 10.8130056,19.21875 L10.8130056,16.2077734 L12.3225368,18.0226172 C12.4831228,18.1940625 12.7046462,18.28125 12.9271462,18.28125 C13.1208962,18.28125 13.3153884,18.2150781 13.47074,18.0807031 C13.804529,17.7920312 13.8315603,17.2980859 13.5312087,16.9773828 L10.8130056,14.6875 L10.8130056,11.4119922 L13.642029,13.0497266 L14.2607009,16.5550391 C14.3874978,16.9762109 14.827654,17.1997266 15.2438259,17.0542187 C15.6599587,16.9086719 15.8945681,16.4492578 15.7677321,16.028125 L14.9550368,13.8098828 L17.5555837,15.3153516 C17.92824,15.5310938 18.4123415,15.3898828 18.6368337,14.9999609 C18.861404,14.6100781 18.7413259,14.1191016 18.3686306,13.9033984 Z" id="path-1"></path>
        <path d="M18.3686306,13.9033984 L15.7680837,12.3979297 L18.0902712,11.9945312 C18.3186306,11.9408203 18.5046853,11.7920703 18.6159743,11.5988281 C18.7128493,11.4305859 18.7529275,11.2285937 18.7145681,11.0265234 C18.6321462,10.5923437 18.2190212,10.321875 17.7918728,10.4223437 L14.4550368,11.6377734 L11.2466384,10 L14.4550759,8.36226563 L17.7919118,9.57769531 C18.2190993,9.67816406 18.6322243,9.40769531 18.7146071,8.97351563 C18.7970681,8.53933594 18.5174978,8.10597656 18.0903493,8.00550781 L15.7681618,7.60210938 L18.3686696,6.09664063 C18.7413259,5.88089844 18.8614431,5.38992188 18.6369118,5 C18.4123806,4.61007813 17.9283181,4.46890625 17.5556618,4.68460937 L14.955115,6.19007813 L15.7678103,3.97183594 C15.8946071,3.55066406 15.6600759,3.09128906 15.243865,2.94574219 C14.8276931,2.80023438 14.3875368,3.02375 14.26074,3.44492187 L13.6420681,6.95019531 L10.8130446,8.58792969 L10.8130446,5.3125 L13.5312087,3.02261719 C13.8315603,2.70191406 13.804529,2.20792969 13.47074,1.91929687 C13.1369509,1.63058594 12.6228884,1.65667969 12.3225368,1.97734375 L10.8130056,3.7921875 L10.8130056,0.78125 C10.8130056,0.349765625 10.4490212,0 9.99999777,0 C9.55097434,0 9.18698996,0.349765625 9.18698996,0.78125 L9.18698996,3.7921875 L7.67745871,1.97734375 C7.37710715,1.65664062 6.86304465,1.630625 6.52925559,1.91929688 C6.19550559,2.20792969 6.16847434,2.70191406 6.4688259,3.02261719 L9.18698996,5.3125 L9.18698996,8.58800781 L6.35796652,6.95027344 L5.73929465,3.44496094 C5.61245871,3.02378906 5.17230246,2.80027344 4.75613059,2.94578125 C4.33988059,3.09128906 4.1053884,3.55070313 4.23218527,3.971875 L5.04488059,6.19011719 L2.44437277,4.68464844 C2.07171652,4.46890625 1.58761496,4.61011719 1.36312277,5.00003906 C1.13863059,5.38996094 1.25870871,5.8809375 1.63136496,6.09667969 L4.23191184,7.60214844 L1.90968527,8.00558594 C1.48253684,8.10605469 1.20304465,8.53941406 1.28542746,8.97359375 C1.36784934,9.40773438 1.78097434,9.67820312 2.20816184,9.57773438 L5.54495871,8.36230469 L8.75335715,10 L5.54491965,11.6377344 L2.20808371,10.4223047 C1.78089621,10.3218359 1.36781027,10.5923047 1.28534934,11.0264453 C1.20296652,11.4605469 1.48245871,11.8939844 1.90960715,11.9944531 L4.23183371,12.3978906 L1.63128684,13.9033594 C1.25870871,14.1191016 1.13859152,14.6100781 1.36312277,15 C1.58765402,15.3899219 2.07171652,15.5311328 2.44437277,15.3153906 L5.04491965,13.8099219 L4.23222434,16.028125 C4.1644509,16.2532813 4.19988059,16.4892578 4.31113059,16.6824609 C4.40800559,16.8507031 4.56241965,16.9865234 4.75613059,17.0542187 C5.17234152,17.1997266 5.61249777,16.9762109 5.73929465,16.5550391 L6.35796652,13.0497266 L9.18698996,11.4119922 L9.18698996,14.6875 L6.4688259,16.9773828 C6.16843527,17.2980859 6.19550559,17.7920313 6.52925559,18.0807031 C6.86300559,18.3692969 7.37710715,18.3433203 7.67745871,18.0226172 L9.18698996,16.2077734 L9.18698996,19.21875 C9.18698996,19.6502344 9.55097434,20 9.99999777,20 C10.4490212,20 10.8130056,19.6502344 10.8130056,19.21875 L10.8130056,16.2077734 L12.3225368,18.0226172 C12.4831228,18.1940625 12.7046462,18.28125 12.9271462,18.28125 C13.1208962,18.28125 13.3153884,18.2150781 13.47074,18.0807031 C13.804529,17.7920312 13.8315603,17.2980859 13.5312087,16.9773828 L10.8130056,14.6875 L10.8130056,11.4119922 L13.642029,13.0497266 L14.2607009,16.5550391 C14.3874978,16.9762109 14.827654,17.1997266 15.2438259,17.0542187 C15.6599587,16.9086719 15.8945681,16.4492578 15.7677321,16.028125 L14.9550368,13.8098828 L17.5555837,15.3153516 C17.92824,15.5310938 18.4123415,15.3898828 18.6368337,14.9999609 C18.861404,14.6100781 18.7413259,14.1191016 18.3686306,13.9033984 Z" id="path-3"></path>
        <path d="M18.3686306,13.9033984 L15.7680837,12.3979297 L18.0902712,11.9945312 C18.3186306,11.9408203 18.5046853,11.7920703 18.6159743,11.5988281 C18.7128493,11.4305859 18.7529275,11.2285937 18.7145681,11.0265234 C18.6321462,10.5923437 18.2190212,10.321875 17.7918728,10.4223437 L14.4550368,11.6377734 L11.2466384,10 L14.4550759,8.36226563 L17.7919118,9.57769531 C18.2190993,9.67816406 18.6322243,9.40769531 18.7146071,8.97351563 C18.7970681,8.53933594 18.5174978,8.10597656 18.0903493,8.00550781 L15.7681618,7.60210938 L18.3686696,6.09664063 C18.7413259,5.88089844 18.8614431,5.38992188 18.6369118,5 C18.4123806,4.61007813 17.9283181,4.46890625 17.5556618,4.68460937 L14.955115,6.19007813 L15.7678103,3.97183594 C15.8946071,3.55066406 15.6600759,3.09128906 15.243865,2.94574219 C14.8276931,2.80023438 14.3875368,3.02375 14.26074,3.44492187 L13.6420681,6.95019531 L10.8130446,8.58792969 L10.8130446,5.3125 L13.5312087,3.02261719 C13.8315603,2.70191406 13.804529,2.20792969 13.47074,1.91929687 C13.1369509,1.63058594 12.6228884,1.65667969 12.3225368,1.97734375 L10.8130056,3.7921875 L10.8130056,0.78125 C10.8130056,0.349765625 10.4490212,0 9.99999777,0 C9.55097434,0 9.18698996,0.349765625 9.18698996,0.78125 L9.18698996,3.7921875 L7.67745871,1.97734375 C7.37710715,1.65664062 6.86304465,1.630625 6.52925559,1.91929688 C6.19550559,2.20792969 6.16847434,2.70191406 6.4688259,3.02261719 L9.18698996,5.3125 L9.18698996,8.58800781 L6.35796652,6.95027344 L5.73929465,3.44496094 C5.61245871,3.02378906 5.17230246,2.80027344 4.75613059,2.94578125 C4.33988059,3.09128906 4.1053884,3.55070313 4.23218527,3.971875 L5.04488059,6.19011719 L2.44437277,4.68464844 C2.07171652,4.46890625 1.58761496,4.61011719 1.36312277,5.00003906 C1.13863059,5.38996094 1.25870871,5.8809375 1.63136496,6.09667969 L4.23191184,7.60214844 L1.90968527,8.00558594 C1.48253684,8.10605469 1.20304465,8.53941406 1.28542746,8.97359375 C1.36784934,9.40773438 1.78097434,9.67820312 2.20816184,9.57773438 L5.54495871,8.36230469 L8.75335715,10 L5.54491965,11.6377344 L2.20808371,10.4223047 C1.78089621,10.3218359 1.36781027,10.5923047 1.28534934,11.0264453 C1.20296652,11.4605469 1.48245871,11.8939844 1.90960715,11.9944531 L4.23183371,12.3978906 L1.63128684,13.9033594 C1.25870871,14.1191016 1.13859152,14.6100781 1.36312277,15 C1.58765402,15.3899219 2.07171652,15.5311328 2.44437277,15.3153906 L5.04491965,13.8099219 L4.23222434,16.028125 C4.1644509,16.2532813 4.19988059,16.4892578 4.31113059,16.6824609 C4.40800559,16.8507031 4.56241965,16.9865234 4.75613059,17.0542187 C5.17234152,17.1997266 5.61249777,16.9762109 5.73929465,16.5550391 L6.35796652,13.0497266 L9.18698996,11.4119922 L9.18698996,14.6875 L6.4688259,16.9773828 C6.16843527,17.2980859 6.19550559,17.7920313 6.52925559,18.0807031 C6.86300559,18.3692969 7.37710715,18.3433203 7.67745871,18.0226172 L9.18698996,16.2077734 L9.18698996,19.21875 C9.18698996,19.6502344 9.55097434,20 9.99999777,20 C10.4490212,20 10.8130056,19.6502344 10.8130056,19.21875 L10.8130056,16.2077734 L12.3225368,18.0226172 C12.4831228,18.1940625 12.7046462,18.28125 12.9271462,18.28125 C13.1208962,18.28125 13.3153884,18.2150781 13.47074,18.0807031 C13.804529,17.7920312 13.8315603,17.2980859 13.5312087,16.9773828 L10.8130056,14.6875 L10.8130056,11.4119922 L13.642029,13.0497266 L14.2607009,16.5550391 C14.3874978,16.9762109 14.827654,17.1997266 15.2438259,17.0542187 C15.6599587,16.9086719 15.8945681,16.4492578 15.7677321,16.028125 L14.9550368,13.8098828 L17.5555837,15.3153516 C17.92824,15.5310938 18.4123415,15.3898828 18.6368337,14.9999609 C18.861404,14.6100781 18.7413259,14.1191016 18.3686306,13.9033984 Z" id="path-5"></path>
    </defs>
    <g id="Page-1" stroke="none" stroke-width="1" fill="none" fill-rule="evenodd">
        <g id="Group">
            <g id="cloud-transparent-mono-snow" fill="#FFFFFF" fill-rule="nonzero">
                <path d="M50.765383,0.0502 C42.244732,0.4056 33.874396,6.4651 32.548435,16.1441 C24.342367,12.1077 16.65275,17.4793 16.68307,26.4312 C1.4968743,22.8462 -4.262647,36.6248 3.3431163,44.4782 C7.5304903,48.8026 12.87453,47.9275 19.728017,47.9275 L59.074046,47.9275 C61.044522,47.9075 63.016957,47.9695 64.773312,47.9275 C73.19118,47.9274 79.99985,41.0562 80,32.6383 C79.997,30.0371 79.323057,27.5561 78.132796,25.3726 C75.672126,28.095 73.244083,30.7822 71.042895,33.2164 L70.353436,33.5407 L59.53108,38.6091 C59.5094912,38.6348375 59.4859876,38.6589061 59.46077,38.6811 C59.460769,38.6811 58.528766,39.5351 57.306455,40.3804 C56.084143,41.2256 54.608752,42.1328 53.154077,42.0698 C50.308453,41.9466 48.339465,39.6626 46.482146,37.6108 C44.624827,35.5589 42.89462,33.7416 40.763349,33.7416 C39.699542,33.7416 38.759018,34.1715 37.816059,34.894 C36.8731,35.6164 35.957665,36.625 35.023068,37.6616 C34.088467,38.6983 33.134966,39.7641 32.052339,40.5972 C30.969712,41.4302 29.728964,42.0305 28.296449,42.0405 C27.199434,42.0405 26.247685,41.5846 25.433144,40.9663 C24.618604,40.3481 23.91074,39.5654 23.222188,38.812 C22.533636,38.0587 21.864773,37.3358 21.190921,36.8276 C20.51707,36.3193 19.869646,36.0305 19.142076,36.0405 C18.31292,36.0505 16.842456,36.9491 15.700642,37.9311 C14.558827,38.913 13.700625,39.896 13.700625,39.896 C13.5479291,40.0879337 13.3021609,40.1805009 13.0607866,40.1369916 C12.8194124,40.0934823 12.6214343,39.9209269 12.5453661,39.6877569 C12.4692979,39.454587 12.5274309,39.1984792 12.696711,39.021 C12.696711,39.021 13.606326,37.975 14.831494,36.9213 C16.056662,35.8677 17.554217,34.7245 19.126451,34.7065 C20.223842,34.6935 21.176239,35.1481 21.99171,35.7631 C22.80718,36.3781 23.515711,37.1598 24.204618,37.9135 C24.893525,38.6672 25.563007,39.3935 26.237838,39.9057 C26.91267,40.4179 27.562545,40.7085 28.29059,40.7085 C29.354695,40.7085 30.296226,40.2666 31.239832,39.5405 C32.18344,38.8145 33.099938,37.8059 34.034777,36.769 C34.969618,35.7322 35.922228,34.6672 37.005505,33.8373 C38.088783,33.0075 39.332483,32.4097 40.765302,32.4097 C43.618443,32.4197 45.609311,34.6602 47.470436,36.7164 C49.33156,38.7725 51.078552,40.6458 53.212671,40.7378 C53.974174,40.7708 55.411648,40.0709 56.548636,39.2846 C57.685624,38.4984 58.560371,37.6987 58.560371,37.6987 C58.5829521,37.6763368 58.6071037,37.6556173 58.632641,37.6367 L62.548689,26.496 C62.575189,26.42 62.621799,26.355 62.683456,26.3046 C62.701956,26.2696 62.724266,26.2396 62.749866,26.2106 L62.804556,26.1496 L69.915943,18.2804 C69.905943,18.2484 69.896843,18.2164 69.886643,18.1844 C67.957087,5.0418 59.286051,-0.3078 50.765391,0.0476 L50.765383,0.0502 Z M71.749931,19.1285 L64.640498,26.9899 C64.400996,27.262 64.05456,27.4371 63.663927,27.4567 C63.502285,27.4667 63.342505,27.4467 63.195173,27.4037 L61.417815,32.4174 L64.556513,35.2495 L69.378818,33.0014 C69.321018,32.8592 69.285228,32.7055 69.277255,32.5405 C69.257455,32.1465 69.397817,31.7809 69.640539,31.5053 L76.874974,23.433 C76.701662,23.2054 76.523832,22.9826 76.33786,22.765 L72.751893,26.7338 L69.572179,30.2456 C69.134366,30.7368 68.509263,31.0634 67.798727,31.0991 C67.116931,31.1331 66.487231,30.8965 66.007696,30.4838 L66.005696,30.4838 L66.003696,30.4838 C65.545162,30.0479 65.280178,29.398 65.245878,28.7162 C65.210178,28.0056 65.469127,27.3491 65.913851,26.8608 L72.517422,19.5599 C72.26592,19.4111 72.01124,19.2671 71.749837,19.1322 L71.749931,19.1285 Z" id="Shape"></path>
            </g>
            <g id="Regular/snowflake" transform="translate(9.000000, 50.000000)">
                <mask id="mask-2" fill="white">
                    <use xlink:href="#path-1"></use>
                </mask>
                <use id="Mask" fill="#000000" fill-rule="nonzero" xlink:href="#path-1"></use>
                <g id="Color/Purple" mask="url(#mask-2)" fill="#FFFFFF" fill-rule="evenodd">
                    <rect id="Purple" x="0" y="0" width="20" height="20"></rect>
                </g>
            </g>
            <g id="Regular/snowflake" transform="translate(33.000000, 59.000000)">
                <mask id="mask-4" fill="white">
                    <use xlink:href="#path-3"></use>
                </mask>
                <use id="Mask" fill="#000000" fill-rule="nonzero" xlink:href="#path-3"></use>
                <g id="Color/Purple" mask="url(#mask-4)" fill="#FFFFFF" fill-rule="evenodd">
                    <rect id="Purple" x="0" y="0" width="20" height="20"></rect>
                </g>
            </g>
            <g id="Regular/snowflake" transform="translate(52.000000, 46.000000)">
                <mask id="mask-6" fill="white">
                    <use xlink:href="#path-5"></use>
                </mask>
                <use id="Mask" fill="#000000" fill-rule="nonzero" xlink:href="#path-5"></use>
                <g id="Color/Purple" mask="url(#mask-6)" fill="#FFFFFF" fill-rule="evenodd">
                    <rect id="Purple" x="0" y="0" width="20" height="20"></rect>
                </g>
            </g>
        </g>
    </g>
</svg>
