<svg xmlns="http://www.w3.org/2000/svg" width="48" height="48" fill="#fff" fill-rule="evenodd"><path d="M38.657 18.38l-.283-.828-4.123 4.12a1.24 1.24 0 01-.99.352l-.918 2.613 1.412 1.4 2.615-.917c-.036-.318.07-.706.353-1l3.84-3.835a7.504 7.504 0 00-.682-.325l-3.66 3.67c-.6.6-1.378.74-1.767.353s-.248-1.165.353-1.765l3.85-3.846zm2.97 2.63l-4.48 4.474c-.106.106-.353.282-.53.317l-5.03 2.035a.77.77 0 01-.276.075c-.62.58-2.025 1.146-2.393 1.2-2.258.337-3.134-2.317-4.938-3.036-1.592-.634-2.8 1.32-3.847 2.18-.643.523-1.423.93-2.276.867-.83-.06-1.437-.602-1.985-1.177-.56-.587-1.187-1.322-2.084-.985-.395.148-.776.44-1.075.732-.24.233-.43.53-.746.672-.324.145-.766.012-.812-.385-.042-.36.304-.577.54-.78.594-.5 1.175-1.064 1.95-1.283.865-.245 1.66.103 2.3.668.598.52 1.16 1.434 2 1.535.905.107 1.678-.67 2.25-1.26.658-.675 1.277-1.328 2.175-1.682.883-.348 1.776-.187 2.573.3.846.52 1.407 1.344 2.152 1.98.762.65 1.548.86 2.457.375.216-.115.563-.426.915-.645a.74.74 0 01.072-.387l2.037-5.024c.035-.177.212-.425.317-.53l4.9-4.885c-1.822-3.17-5.206-4.472-8.538-4.356-4.298.15-8.545 2.646-9.195 6.688-4.148-1.648-8.045.55-8.045 4.293-7.646-1.497-9.695 5.3-6.696 7.537 2.1 1.797 4.797 1.448 8.245 1.448H36.31c4.248 0 7.696-2.846 7.696-6.4 0-1.758-.887-3.403-2.373-4.574"/></svg>