<svg xmlns="http://www.w3.org/2000/svg" viewBox="0 0 80 48"><defs transform="translate(-250.53 -278.35)"><linearGradient id="a"><stop stop-color="#b1063a" offset="0%"/><stop stop-color="#dd6108" offset="100%"/></linearGradient></defs><path fill="#fff" d="m 50.765383,1004.4102 0,0 c -8.520651,0.3554 -16.890987,6.4149 -18.216948,16.0939 -8.206068,-4.0364 -15.895685,1.3352 -15.865365,10.2871 -15.1861957,-3.585 -20.945717,10.1936 -13.3399537,18.047 4.187374,4.3244 9.5314137,3.4493 16.3849007,3.4493 l 39.346029,0 c 1.970476,-0.02 3.942911,0.042 5.699266,0 8.417868,-10e-5 15.226538,-6.8713 15.226688,-15.2892 -0.003,-2.6012 -0.676943,-5.0822 -1.867204,-7.2657 -2.46067,2.7224 -4.888713,5.4096 -7.089901,7.8438 l -0.689459,0.3243 -10.822356,5.0684 a 0.6665288,0.6665288 0 0 1 -0.07031,0.072 c -10e-7,0 -0.932004,0.854 -2.154315,1.6993 -1.222312,0.8452 -2.697703,1.7524 -4.152378,1.6894 -2.845624,-0.1232 -4.814612,-2.4072 -6.671931,-4.459 -1.857319,-2.0519 -3.587526,-3.8692 -5.718797,-3.8692 -1.063807,0 -2.004331,0.4299 -2.94729,1.1524 -0.942959,0.7224 -1.858394,1.731 -2.792991,2.7676 -0.934601,1.0367 -1.888102,2.1025 -2.970729,2.9356 -1.082627,0.833 -2.323375,1.4333 -3.75589,1.4433 -1.097015,0 -2.048764,-0.4559 -2.863305,-1.0742 -0.81454,-0.6182 -1.522404,-1.4009 -2.210956,-2.1543 -0.688552,-0.7533 -1.357415,-1.4762 -2.031267,-1.9844 -0.673851,-0.5083 -1.321275,-0.7971 -2.048845,-0.7871 -0.829156,0.01 -2.29962,0.9086 -3.441434,1.8906 -1.141815,0.9819 -2.000017,1.9649 -2.000017,1.9649 a 0.6665288,0.6665288 0 1 1 -1.003914,-0.875 c 0,0 0.909615,-1.046 2.134783,-2.0997 1.225168,-1.0536 2.722723,-2.1968 4.294957,-2.2148 1.097391,-0.013 2.049788,0.4416 2.865259,1.0566 0.81547,0.615 1.524001,1.3967 2.212908,2.1504 0.688907,0.7537 1.358389,1.48 2.03322,1.9922 0.674832,0.5122 1.324707,0.8028 2.052752,0.8028 1.064105,0 2.005636,-0.4419 2.949242,-1.168 0.943608,-0.726 1.860106,-1.7346 2.794945,-2.7715 0.934841,-1.0368 1.887451,-2.1018 2.970728,-2.9317 1.083278,-0.8298 2.326978,-1.4276 3.759797,-1.4276 2.853141,0.01 4.844009,2.2505 6.705134,4.3067 1.861124,2.0561 3.608116,3.9294 5.742235,4.0214 0.761503,0.033 2.198977,-0.6669 3.335965,-1.4532 1.136988,-0.7862 2.011735,-1.5859 2.011735,-1.5859 a 0.6665288,0.6665288 0 0 1 0.07227,-0.062 l 3.916048,-11.1407 c 0.0265,-0.076 0.07311,-0.141 0.134767,-0.1914 0.0185,-0.035 0.04081,-0.065 0.06641,-0.094 l 0.05469,-0.061 7.111387,-7.8692 c -0.01,-0.032 -0.0191,-0.064 -0.0293,-0.096 -1.929556,-13.1426 -10.600592,-18.4922 -19.121252,-18.1368 z m 20.984548,19.0783 -7.109433,7.8614 c -0.239502,0.2721 -0.585938,0.4472 -0.976571,0.4668 -0.161642,0.01 -0.321422,-0.01 -0.468754,-0.053 l -1.777358,5.0137 3.138698,2.8321 4.822305,-2.2481 c -0.0578,-0.1422 -0.09359,-0.2959 -0.101563,-0.4609 -0.0198,-0.394 0.120562,-0.7596 0.363284,-1.0352 l 7.234435,-8.0723 c -0.173312,-0.2276 -0.351142,-0.4504 -0.537114,-0.668 l -3.585967,3.9688 -3.179714,3.5118 c -0.437813,0.4912 -1.062916,0.8178 -1.773452,0.8535 -0.681796,0.034 -1.311496,-0.2026 -1.791031,-0.6153 l -0.002,0 -0.002,0 c -0.458534,-0.4359 -0.723518,-1.0858 -0.757818,-1.7676 -0.0357,-0.7106 0.223249,-1.3671 0.667973,-1.8554 l 6.603571,-7.3009 c -0.251502,-0.1488 -0.506182,-0.2928 -0.767585,-0.4277 l 0,0 z" transform="translate(0 -1004.36)"/></svg>