<svg id="Layer_2" data-name="Layer 2" xmlns="http://www.w3.org/2000/svg" viewBox="0 0 18 18"><defs><style>.cls-1{fill:#555;}.cls-2{fill:none;}</style></defs><circle class="cls-1" cx="13.17" cy="6.58" r="2.72"/><path class="cls-1" d="M13.17,10.86a4.2,4.2,0,0,1-2.25-.65V16a.33.33,0,0,0,.56.2l.75-.67,1-.8,1,.8.75.67a.33.33,0,0,0,.56-.2V10.18A4.34,4.34,0,0,1,13.17,10.86Zm0,1.94h0Z"/><path class="cls-1" d="M4.7,5.45v.7a.35.35,0,0,0,.35.35H8.9A4,4,0,0,1,9,5.8a4.33,4.33,0,0,1,.21-.7H5.05A.35.35,0,0,0,4.7,5.45Z"/><path class="cls-1" d="M11.78,2.56a4.19,4.19,0,0,1,.47-.14A1.22,1.22,0,0,0,12,2.33a1.27,1.27,0,0,0-.28,0H3.3a1.27,1.27,0,0,0-.28,0,1.32,1.32,0,0,0-.39.15A1.22,1.22,0,0,0,2.08,3a1.32,1.32,0,0,0-.15.39,1.27,1.27,0,0,0,0,.28V14.9a1.27,1.27,0,0,0,0,.28,1.32,1.32,0,0,0,.15.39,1.22,1.22,0,0,0,.55.55,1.32,1.32,0,0,0,.39.15,1.27,1.27,0,0,0,.28,0H9.51V14.9H3.3V3.7H10l.09-.08A4.22,4.22,0,0,1,11.78,2.56Z"/><path class="cls-1" d="M5,7.91a.35.35,0,0,0-.34.36V9a.34.34,0,0,0,.36.34l4.05,0V7.88Z"/><path class="cls-1" d="M5.05,10.7a.35.35,0,0,0-.35.35v.7a.35.35,0,0,0,.35.35H9.1V10.7Z"/><rect id="Rectangle" class="cls-2" width="18" height="18"/></svg>