<svg id="Layer_2" data-name="Layer 2" xmlns="http://www.w3.org/2000/svg" viewBox="0 0 18 18"><defs><style>.cls-1{fill:#555}</style></defs><circle class="cls-1" cx="13.17" cy="6.58" r="2.72"/><path class="cls-1" d="M13.17 10.86a4.2 4.2 0 01-2.25-.65V16a.33.33 0 00.56.2l.75-.67 1-.8 1 .8.75.67a.33.33 0 00.56-.2v-5.82a4.34 4.34 0 01-2.37.68zm0 1.94zM4.7 5.45v.7a.35.35 0 00.35.35H8.9a4 4 0 01.1-.7 4.33 4.33 0 01.21-.7H5.05a.35.35 0 00-.35.35z"/><path class="cls-1" d="M11.78 2.56a4.19 4.19 0 01.47-.14 1.22 1.22 0 00-.25-.09 1.27 1.27 0 00-.28 0H3.3a1.27 1.27 0 00-.28 0 1.32 1.32 0 00-.39.15 1.22 1.22 0 00-.55.52 1.32 1.32 0 00-.15.39 1.27 1.27 0 000 .28V14.9a1.27 1.27 0 000 .28 1.32 1.32 0 00.15.39 1.22 1.22 0 00.55.55 1.32 1.32 0 00.39.15 1.27 1.27 0 00.28 0h6.21V14.9H3.3V3.7H10l.09-.08a4.22 4.22 0 011.69-1.06z"/><path class="cls-1" d="M5 7.91a.35.35 0 00-.34.36V9a.34.34 0 00.36.34h4.05V7.88zm.05 2.79a.35.35 0 00-.35.35v.7a.35.35 0 00.35.35H9.1v-1.4z"/><path id="Rectangle" fill="none" d="M0 0h18v18H0z"/></svg>