<svg xmlns="http://www.w3.org/2000/svg" viewBox="0 0 109.2 109.25"><g data-name="Layer 2"><g data-name="L 3"><ellipse cx="54.6" cy="54.65" rx="54.58" ry="54.59" transform="rotate(-64.05 54.595 54.656)" fill="#76bbe2"/><path d="M77.84 76.39V56a6.37 6.37 0 00-6.35-6.35H51.8A6.37 6.37 0 0045.45 56v20.39a6.37 6.37 0 006.35 6.35h.59v5.45H52a3.76 3.76 0 00-3.74 3.75v6.48a3.76 3.76 0 003.74 3.75h4.12a3.76 3.76 0 003.75-3.75v-6.48a3.19 3.19 0 00-.06-.54h6.86a3.59 3.59 0 003.58-3.57v-5.09h1.24a6.36 6.36 0 006.35-6.35zM31.3 8.91h10a2.54 2.54 0 002.54-2.54v-5.1a54.91 54.91 0 00-15 5.52 2.53 2.53 0 002.46 2.12zm65.85 70.4v10A54.44 54.44 0 00106.33 73h-2.87a6.33 6.33 0 00-6.31 6.31zM15 74.48v-.18a6.31 6.31 0 005.44-6.23V64A6.31 6.31 0 0015 57.76v-1.21a7 7 0 00-7-7H.55a54.45 54.45 0 006.81 32H8a7.05 7.05 0 007-7.07zm-3.06-35.16a4.78 4.78 0 00-4.76-4.76h-3c-.54 1.36-1.05 2.74-1.48 4.17a51.89 51.89 0 00-1.35 5.36h5.83a4.78 4.78 0 004.76-4.77zM45.63 17A6.63 6.63 0 0039 23.58v8.28a6.64 6.64 0 006.61 6.61h11.95a6.63 6.63 0 006.61-6.61v-3.94h15.41v7.43a4.56 4.56 0 001.5 8.88h4.58a4.56 4.56 0 004.47-5.56V27.92l12 .17a66 66 0 00-7-10.22A54.56 54.56 0 0053.22.17V17z" fill="#7fb679"/><g mask="url(#mask)"><path d="M6.84 80.25A54.48 54.48 0 0017.32 94.1L94.4 16.86A54.56 54.56 0 006.84 80.25z" fill="#fff" opacity=".16"/></g></g></g></svg>