<svg xmlns="http://www.w3.org/2000/svg" viewBox="0 0 299.39 269.02"><g data-name="Layer 2"><g data-name="Layer 1"><path d="M299.39 93.05V269H0V0h299.39v80.59c-.17-1.07-.38-2.14-.52-3.21a84 84 0 00-19.24-44.73C263.17 13 242.2 1.92 216.39.5a84.71 84.71 0 00-34.74 5.1c-8.6 3.23-17 7.06-23.7 13.46q-20.5 19.5-40.57 39.48C104.9 71 92.71 83.75 80.44 96.43c-2.74 2.84-2.69 4.5-.16 7.55a15.28 15.28 0 002.66 2.55c8 5.93 22 8 31.11-.49 7.77-7.26 15.34-14.74 23-22.07 3.52-3.35 7-6.74 10.75-9.84 3-2.5 4.75-2.32 7.8.14 2.37 1.91 4.58 4 7 5.84 6.58 4.9 13.32 9.52 21.86 10.3 7.19.66 14.14.24 20.22-4.31 2.59-1.94 5.17-3.9 7.79-5.8a4.41 4.41 0 015.28 0c3 1.87 3.36 5.92.5 8.7a45.6 45.6 0 01-19.77 11.53c-.51.15-1 .38-1.71.66.75.8 1.26 1.38 1.8 1.93q23 23.39 46 46.77c4.9 5 9.85 10 12 17 .05.14.26.23.4.35a3 3 0 00.53-.34c7.46-7.94 15.21-15.63 22.31-23.87a77.24 77.24 0 0018.49-42.09c.32-2.66.7-5.28 1.09-7.89zm-157.76-73.9a7.1 7.1 0 00-.63-.84c-.3-.24-.6-.49-.92-.71-10.52-7.37-21.87-12.82-34.58-15.28C94.91.27 84.27-.45 73.63 1.44A87.35 87.35 0 0030 22.26 85.8 85.8 0 002.06 70.52 89.49 89.49 0 00.8 95.68 82.47 82.47 0 0025 148.81C46.91 170.83 68.65 193 90.61 215c16.6 16.61 33.48 32.94 50.14 49.49 4.09 4.06 8.74 4.47 13.79 2.86 8.91-2.83 12.1-14.62 5.68-21.31-11.85-12.36-23.85-24.58-35.79-36.85-7.06-7.26-14.15-14.48-21.15-21.78a4.49 4.49 0 01-.08-6.61c1.63-1.59 4.16-2.81 6.73-.46.57.53 1.22 1 1.78 1.51l30 29.19c8.83 8.6 17.63 17.23 26.54 25.74 2.22 2.13 4.66 4 8.09 4.18 4.67.18 8.34-1.84 11.43-4.94 4.2-4.2 4.34-12.44.49-16.92-1.77-2.06-3.57-4.12-5.47-6.06-14.91-15.18-29.88-30.3-44.75-45.51a121.94 121.94 0 01-7.95-9.31 3.86 3.86 0 01-.75-2.86c.73-3.23 5.19-4.85 7.8-2.8a87.24 87.24 0 017.28 6.44c11.14 11 22.18 22 33.35 33 6.11 6 12.34 11.87 18.61 17.69 2.82 2.61 6 4.39 10.19 3.59 5.11-1 9-3.42 10.89-8.31 1.8-4.73 1.6-9.47-1.85-13.56-2.25-2.68-4.58-5.3-7-7.8-12.82-13-25.74-26-38.54-39.06-4.12-4.21-8.06-8.61-11.89-13.09-2.06-2.41-1.83-3.66.23-5.73s3.25-2.31 5.88-.35a49.66 49.66 0 015.2 4.39c11.82 11.57 23.55 23.23 35.4 34.77 6.46 6.28 13.11 12.36 19.65 18.57 5.52 5.24 16.54 2.81 19.92-4.69 2.27-5 2.61-10.88-2.21-15.34-1.67-1.54-3.08-3.34-4.68-5q-27-27-54-53.85a18.13 18.13 0 00-6.55-4.34 72.53 72.53 0 01-21.87-12c-1.15-.92-2.28-1.86-3.45-2.82-.49.45-.88.78-1.25 1.14-7.76 7.56-15.46 15.17-23.29 22.66-3.09 3-6.17 6-9.74 8.32a33.18 33.18 0 01-28.53 3.83c-7.43-2.25-14-6-18.38-12.63-3.88-5.83-4.47-13.24 1.23-18.94 19.93-20 39.66-40.15 59.5-60.21 3.31-3.41 6.88-6.71 10.39-10.09z" fill="#fff"/><path fill="#bd2b58" d="M299.39 93.05c-.36 2.61-.77 5.23-1.08 7.85a77.24 77.24 0 01-18.49 42.1c-7.1 8.24-14.85 15.93-22.31 23.87a3 3 0 01-.53.34c-.14-.12-.35-.21-.4-.35-2.15-7-7.1-12-12-17q-23-23.42-46-46.77c-.54-.55-1-1.13-1.8-1.93.72-.28 1.2-.51 1.71-.66A45.6 45.6 0 00218.31 89c2.86-2.78 2.53-6.83-.5-8.7a4.41 4.41 0 00-5.28 0c-2.62 1.9-5.2 3.86-7.79 5.8-6.08 4.55-13 5-20.22 4.31-8.54-.78-15.28-5.4-21.86-10.3-2.44-1.82-4.65-3.93-7-5.84-3-2.46-4.8-2.64-7.8-.14-3.73 3.1-7.23 6.49-10.75 9.84-7.7 7.33-15.27 14.81-23 22.07-9.11 8.5-23.09 6.42-31.11.49a15.28 15.28 0 01-2.72-2.53c-2.53-3-2.58-4.71.16-7.55C92.71 83.75 104.9 71 117.38 58.54q20-20 40.57-39.48c6.72-6.4 15.1-10.23 23.7-13.46A84.71 84.71 0 01216.39.5c25.81 1.42 46.78 12.5 63.24 32.15a84 84 0 0119.24 44.73c.14 1.07.35 2.14.52 3.21z"/><path fill="#bd2b58" d="M141.63 19.15c-3.51 3.38-7.08 6.68-10.49 10.13-19.84 20.06-39.57 40.23-59.5 60.21-5.7 5.7-5.11 13.11-1.23 18.94 4.42 6.64 11 10.38 18.38 12.63a33.18 33.18 0 0028.53-3.83c3.57-2.27 6.65-5.37 9.74-8.32 7.83-7.49 15.53-15.1 23.29-22.66.37-.36.76-.69 1.25-1.14 1.17 1 2.3 1.9 3.45 2.82a72.53 72.53 0 0021.87 12 18.13 18.13 0 016.55 4.34q27.12 26.83 54 53.85c1.6 1.61 3 3.41 4.68 5 4.82 4.46 4.48 10.3 2.21 15.34-3.38 7.5-14.4 9.93-19.92 4.69-6.54-6.21-13.19-12.29-19.65-18.57-11.85-11.54-23.58-23.2-35.4-34.77a49.66 49.66 0 00-5.2-4.39c-2.63-2-3.72-1.83-5.88.35s-2.29 3.32-.23 5.73c3.83 4.48 7.77 8.88 11.89 13.09 12.8 13.07 25.72 26 38.54 39.06 2.46 2.5 4.79 5.12 7 7.8 3.45 4.09 3.65 8.83 1.85 13.56-1.85 4.89-5.78 7.35-10.89 8.31-4.21.8-7.37-1-10.19-3.59-6.27-5.82-12.5-11.7-18.61-17.69-11.17-10.95-22.21-22-33.35-33a87.24 87.24 0 00-7.28-6.44c-2.61-2.05-7.07-.43-7.8 2.8a3.86 3.86 0 00.75 2.86 121.94 121.94 0 007.95 9.31c14.87 15.21 29.84 30.33 44.75 45.51 1.9 1.94 3.7 4 5.47 6.06 3.85 4.48 3.71 12.72-.49 16.92-3.09 3.1-6.76 5.12-11.43 4.94-3.43-.13-5.87-2-8.09-4.18-8.91-8.51-17.71-17.14-26.54-25.74l-30-29.19c-.56-.54-1.21-1-1.78-1.51-2.57-2.35-5.1-1.13-6.73.46a4.49 4.49 0 00.08 6.61c7 7.3 14.09 14.52 21.15 21.78 11.94 12.27 23.94 24.49 35.79 36.85 6.42 6.69 3.23 18.48-5.68 21.31-5 1.61-9.7 1.2-13.79-2.86-16.56-16.53-33.44-32.9-50.04-49.53-22-22-43.7-44.19-65.62-66.21A82.47 82.47 0 01.8 95.68a89.49 89.49 0 011.26-25.16A85.8 85.8 0 0130 22.26 87.35 87.35 0 0173.63 1.44C84.27-.45 94.91.27 105.5 2.32c12.71 2.46 24.06 7.91 34.58 15.28.32.22.62.47.92.71a7.1 7.1 0 01.63.84z"/></g></g></svg>