<svg xmlns="http://www.w3.org/2000/svg" xmlns:xlink="http://www.w3.org/1999/xlink" width="340" height="60"><defs><linearGradient id="a" x1="4.987%" x2="95.077%" y1="51.01%" y2="48.989%"><stop offset="0%" stop-color="#B1063A"/><stop offset="100%" stop-color="#F6A800"/></linearGradient><path id="b" d="M51.159 0c-.214.002-.428.006-.642.014-8.595.3-17.09 5.291-18.39 13.377-8.295-3.294-16.091 1.099-16.091 8.586C.745 18.981-3.352 32.558 2.643 37.051c4.198 3.593 9.595 2.894 16.492 2.894h45.473c8.495 0 15.392-5.69 15.392-12.778 0-3.516-1.774-6.806-4.747-9.149l-8.959 8.948c-.212.213-.707.565-1.062.634l-10.06 4.07c-.243.12-.486.152-.723.145-1.247 1.098-3.935 2.18-4.635 2.284-2.665.395-4.317-1.311-6.068-3.121-1.125-1.162-2.29-2.365-3.743-2.944a3.495 3.495 0 0 0-1.305-.261c-1.903 0-3.503 1.648-4.945 3.132-.55.566-1.069 1.099-1.571 1.507-1.521 1.238-3.031 1.806-4.463 1.707-1.665-.12-2.879-1.258-3.888-2.314l-.183-.194c-1.099-1.159-2.342-2.472-4.118-1.808-.895.337-1.688.996-2.195 1.49-.14.136-.27.282-.402.43-.322.36-.627.7-1.054.892-.329.146-.735.135-1.029-.032a.814.814 0 0 1-.421-.639c-.066-.551.389-.919.826-1.275.073-.059.143-.116.21-.174l.362-.312c1.045-.905 2.126-1.841 3.49-2.228 1.871-.525 3.48.421 4.501 1.311.328.285.649.627.988.991.897.962 1.826 1.955 3.098 2.106 1.899.226 3.528-1.447 4.605-2.552l.118-.122c1.271-1.304 2.47-2.537 4.188-3.214 1.619-.637 3.362-.434 5.035.59 1.022.628 1.854 1.503 2.659 2.349.514.542 1.046 1.103 1.629 1.6 1.702 1.451 3.307 1.694 5.051.765.227-.121.507-.334.834-.581.29-.219.614-.461.943-.67a1.502 1.502 0 0 1 .139-.923l4.075-10.048c.069-.355.422-.849.633-1.061l9.781-9.769C64.13 2.7 57.841.048 51.503 0h-.344zM60.5 19.344a2.477 2.477 0 0 1-1.979.705l-1.836 5.225 2.825 2.822 5.23-1.835a2.467 2.467 0 0 1 .705-1.977l7.681-7.671a16.243 16.243 0 0 0-1.864-.856l-7.177 7.168c-.508.507-1.099.847-1.667.958-.494.095-.901.005-1.16-.251-.584-.584-.267-1.852.707-2.825l7.513-7.505a20.272 20.272 0 0 0-.73-2.197L60.5 19.344z"/><linearGradient id="c" x1="0%" y1="50%" y2="50%"><stop offset="0%" stop-color="#B1053A"/><stop offset="100%" stop-color="#F6A800"/></linearGradient></defs><g fill="none" fill-rule="evenodd"><g fill-rule="nonzero"><path fill="#B1063A" d="M30.546 43.123c0 .363-.297.66-.66.66h-3.267a.662.662 0 0 1-.66-.66V33.025h-9.372v10.098c0 .363-.297.66-.66.66H12.66a.662.662 0 0 1-.66-.66V19.891c0-.363.297-.627.66-.627h3.267c.363 0 .66.264.66.627v9.108h9.372v-9.108c0-.363.297-.627.66-.627h3.267c.363 0 .66.264.66.627v23.232zm22.02-16.203c0 5.841-4.422 7.722-9.504 7.722-.858 0-2.178-.099-2.937-.132v8.613c0 .363-.264.66-.627.66h-3.3a.662.662 0 0 1-.66-.66V20.419c0-.66.396-.891 1.056-.99 1.716-.264 4.059-.429 6.468-.429 5.082 0 9.504 1.782 9.504 7.623v.297zm-4.554 0v-.297c0-2.772-1.65-3.828-4.95-3.828-.693 0-2.343.066-2.937.132v7.854c.528.033 2.376.099 2.937.099 3.564 0 4.95-1.32 4.95-3.96zm12.995 16.203c0 .363-.297.66-.66.66H57.08a.662.662 0 0 1-.66-.66V19.891c0-.363.297-.627.66-.627h3.267c.362 0 .66.264.66.627v23.232z"/><path fill="url(#a)" d="M162.464 18.447c0 3.168-1.65 6.6-8.151 6.6-2.31 0-4.026-.231-5.478-.462-.561-.099-.627-.231-.627-.594v-1.32c0-.363.263-.528.56-.528h.1c1.518.132 3.927.198 5.445.198 3.96 0 5.016-1.584 5.016-3.894 0-1.65-.958-2.574-3.96-4.422l-3.202-1.947c-3.036-1.848-4.554-3.531-4.554-6.171 0-3.993 2.871-5.841 7.887-5.841 1.947 0 4.488.198 5.743.396.33.066.56.231.56.561v1.419c0 .33-.23.528-.56.528h-.066a93.138 93.138 0 0 0-5.677-.198c-3.399 0-4.85.726-4.85 3.135 0 1.551 1.088 2.475 3.596 3.993l3.036 1.815c3.828 2.277 5.181 4.092 5.181 6.732zm15.519 5.511c0 .429-.132.627-.66.726a23.933 23.933 0 0 1-4.125.363c-4.488 0-7.03-3.168-7.03-8.019v-2.574c0-4.851 2.509-8.019 7.03-8.019 1.518 0 3.036.165 4.125.363.528.099.66.264.66.726v1.188c0 .33-.264.495-.561.495h-.132a32.18 32.18 0 0 0-4.092-.231c-2.64 0-4.125 1.749-4.125 5.478v2.574c0 3.696 1.452 5.478 4.125 5.478 1.617 0 2.64-.066 4.092-.231h.132c.297 0 .56.165.56.495v1.188zm17.628.198c0 .363-.297.66-.66.66h-1.584a.662.662 0 0 1-.66-.66V13.299c0-3.3-1.386-4.323-3.531-4.323-1.023 0-3.102.264-4.554.924v14.256c0 .33-.297.66-.66.66h-1.617c-.33 0-.627-.297-.627-.66V.66c0-.363.264-.66.627-.66h1.65c.363 0 .627.297.627.66v6.798c1.584-.693 3.63-1.023 5.049-1.023 3.498 0 5.94 2.013 5.94 6.864v10.857zm18.42 0c0 .363-.264.66-.627.66h-1.65c-.363 0-.627-.297-.627-.66v-.627c-1.815 1.023-3.3 1.518-5.247 1.518-3.96 0-5.742-2.475-5.742-6.864V7.326c0-.363.297-.66.66-.66h1.584c.363 0 .66.297.66.66v10.857c0 3.333 1.122 4.356 3.63 4.356 1.386 0 2.937-.528 4.455-1.287V7.326c0-.33.297-.66.66-.66h1.617c.33 0 .627.297.627.66v16.83zm7.76 0c0 .33-.23.66-.593.66h-1.716c-.33 0-.594-.297-.594-.66V.627c0-.33.23-.627.594-.627h1.716c.33 0 .594.264.594.627v23.529zm12.227-8.349c0 .33-.264.561-.627.561h-6.567c-.363 0-.627-.198-.627-.561V14.52c0-.33.264-.594.627-.594h6.567c.363 0 .627.231.627.594v1.287zm19.024 8.151c0 .396-.297.594-.66.66-1.386.264-2.673.429-5.478.429-4.06 0-8.712-2.178-8.712-10.197v-4.587c0-8.085 4.653-10.197 8.712-10.197 2.079 0 4.092.297 5.544.528.297.033.528.132.528.429v1.683c0 .198-.066.363-.396.363h-.1c-1.187-.099-3.63-.297-5.543-.297-3.234 0-5.742 1.881-5.742 7.491v4.587c0 5.544 2.508 7.491 5.742 7.491 1.88 0 4.257-.165 5.445-.264h.132c.363 0 .528.165.528.528v1.353zm6.83.198c0 .33-.231.66-.594.66h-1.716c-.33 0-.594-.297-.594-.66V.627c0-.33.231-.627.594-.627h1.716c.33 0 .594.264.594.627v23.529zm18.918-7.161c0 4.851-2.508 8.052-7.359 8.052-4.85 0-7.326-3.201-7.326-8.052v-2.508c0-4.851 2.475-8.052 7.326-8.052 4.851 0 7.36 3.201 7.36 8.052v2.508zm-2.904 0v-2.508c0-3.366-1.353-5.511-4.455-5.511-3.069 0-4.422 2.112-4.422 5.511v2.508c0 3.366 1.32 5.511 4.422 5.511 3.07 0 4.455-2.112 4.455-5.511zm20.856 7.161c0 .363-.264.66-.627.66h-1.65c-.363 0-.627-.297-.627-.66v-.627c-1.815 1.023-3.3 1.518-5.247 1.518-3.96 0-5.742-2.475-5.742-6.864V7.326c0-.363.297-.66.66-.66h1.584c.363 0 .66.297.66.66v10.857c0 3.333 1.122 4.356 3.63 4.356 1.386 0 2.937-.528 4.455-1.287V7.326c0-.33.297-.66.66-.66h1.617c.33 0 .627.297.627.66v16.83zm18.103-.429c0 .429-.1.66-.693.759a31.748 31.748 0 0 1-6.072.561c-4.917 0-7.194-3.201-7.194-8.151V14.52c0-5.181 2.376-8.085 7.194-8.085 1.023 0 2.574.099 3.86.33V.627c0-.33.265-.627.628-.627h1.683c.33 0 .594.264.594.627v23.1zm-2.904-1.419V9.207c-1.09-.198-2.805-.231-3.861-.231-3.234 0-4.29 2.013-4.29 5.544v2.376c0 3.597 1.023 5.61 4.29 5.61 1.122 0 2.739-.099 3.86-.198z" transform="translate(12 19)"/></g><path fill="#FFF" d="M121.517 10.014c-8.596.3-17.091 5.291-18.39 13.377-8.296-3.294-16.09 1.098-16.09 8.585-15.292-2.995-19.39 10.581-13.393 15.074 4.197 3.593 9.595 2.895 16.49 2.895h45.475c8.495 0 15.39-5.69 15.39-12.778 0-5.29-3.997-10.083-10.093-11.88v-.099c-2-11.08-10.794-15.474-19.39-15.174"/><g transform="translate(71 10)"><mask id="d" fill="#fff"><use xlink:href="#b"/></mask><path fill="url(#c)" d="M51.159 0c-.214.002-.428.006-.642.014-8.595.3-17.09 5.291-18.39 13.377-8.295-3.294-16.091 1.099-16.091 8.586C.745 18.981-3.352 32.558 2.643 37.051c4.198 3.593 9.595 2.894 16.492 2.894h45.473c8.495 0 15.392-5.69 15.392-12.778 0-3.516-1.774-6.806-4.747-9.149l-8.959 8.948c-.212.213-.707.565-1.062.634l-10.06 4.07c-.243.12-.486.152-.723.145-1.247 1.098-3.935 2.18-4.635 2.284-2.665.395-4.317-1.311-6.068-3.121-1.125-1.162-2.29-2.365-3.743-2.944a3.495 3.495 0 0 0-1.305-.261c-1.903 0-3.503 1.648-4.945 3.132-.55.566-1.069 1.099-1.571 1.507-1.521 1.238-3.031 1.806-4.463 1.707-1.665-.12-2.879-1.258-3.888-2.314l-.183-.194c-1.099-1.159-2.342-2.472-4.118-1.808-.895.337-1.688.996-2.195 1.49-.14.136-.27.282-.402.43-.322.36-.627.7-1.054.892-.329.146-.735.135-1.029-.032a.814.814 0 0 1-.421-.639c-.066-.551.389-.919.826-1.275.073-.059.143-.116.21-.174l.362-.312c1.045-.905 2.126-1.841 3.49-2.228 1.871-.525 3.48.421 4.501 1.311.328.285.649.627.988.991.897.962 1.826 1.955 3.098 2.106 1.899.226 3.528-1.447 4.605-2.552l.118-.122c1.271-1.304 2.47-2.537 4.188-3.214 1.619-.637 3.362-.434 5.035.59 1.022.628 1.854 1.503 2.659 2.349.514.542 1.046 1.103 1.629 1.6 1.702 1.451 3.307 1.694 5.051.765.227-.121.507-.334.834-.581.29-.219.614-.461.943-.67a1.502 1.502 0 0 1 .139-.923l4.075-10.048c.069-.355.422-.849.633-1.061l9.781-9.769C64.13 2.7 57.841.048 51.503 0h-.344zM60.5 19.344a2.477 2.477 0 0 1-1.979.705l-1.836 5.225 2.825 2.822 5.23-1.835a2.467 2.467 0 0 1 .705-1.977l7.681-7.671a16.243 16.243 0 0 0-1.864-.856l-7.177 7.168c-.508.507-1.099.847-1.667.958-.494.095-.901.005-1.16-.251-.584-.584-.267-1.852.707-2.825l7.513-7.505a20.272 20.272 0 0 0-.73-2.197L60.5 19.344z" mask="url(#d)"/></g></g></svg>
