<svg xmlns="http://www.w3.org/2000/svg" xmlns:xlink="http://www.w3.org/1999/xlink" viewBox="0 0 96 96"><defs><linearGradient id="b" x1="4.987%" x2="95.077%" y1="61.253%" y2="38.731%"><stop offset="0%" stop-color="#B1063A"/><stop offset="100%" stop-color="#F6A800"/></linearGradient><path id="a" d="M51.159 0c-.214.002-.428.006-.642.014-8.595.3-17.09 5.291-18.39 13.377-8.295-3.294-16.091 1.099-16.091 8.586C.745 18.981-3.352 32.558 2.643 37.051c4.198 3.593 9.595 2.894 16.492 2.894h45.473c8.495 0 15.392-5.69 15.392-12.778 0-3.516-1.774-6.806-4.747-9.149l-8.959 8.948c-.212.213-.707.565-1.062.634l-10.06 4.07c-.243.12-.486.152-.723.145-1.247 1.098-3.935 2.18-4.635 2.284-2.665.395-4.317-1.311-6.068-3.121-1.125-1.162-2.29-2.365-3.743-2.944a3.495 3.495 0 00-1.305-.261c-1.903 0-3.503 1.648-4.945 3.132-.55.566-1.069 1.099-1.571 1.507-1.521 1.238-3.031 1.806-4.463 1.707-1.665-.12-2.879-1.258-3.888-2.314l-.183-.194c-1.099-1.159-2.342-2.472-4.118-1.808-.895.337-1.688.996-2.195 1.49-.14.136-.27.282-.402.43-.322.36-.627.7-1.054.892-.329.146-.735.135-1.029-.032a.814.814 0 01-.421-.639c-.066-.551.389-.919.826-1.275.073-.059.143-.116.21-.174l.362-.312c1.045-.905 2.126-1.841 3.49-2.228 1.871-.525 3.48.421 4.501 1.311.328.285.649.627.988.991.897.962 1.826 1.955 3.098 2.106 1.899.226 3.528-1.447 4.605-2.552l.118-.122c1.271-1.304 2.47-2.537 4.188-3.214 1.619-.637 3.362-.434 5.035.59 1.022.628 1.854 1.503 2.659 2.349.514.542 1.046 1.103 1.629 1.6 1.702 1.451 3.307 1.694 5.051.765.227-.121.507-.334.834-.581.29-.219.614-.461.943-.67a1.502 1.502 0 01.139-.923l4.075-10.048c.069-.355.422-.849.633-1.061l9.781-9.769C64.13 2.7 57.841.048 51.503 0h-.344zM60.5 19.344a2.477 2.477 0 01-1.979.705l-1.836 5.225 2.825 2.822 5.23-1.835a2.467 2.467 0 01.705-1.977l7.681-7.671a16.243 16.243 0 00-1.864-.856l-7.177 7.168c-.508.507-1.099.847-1.667.958-.494.095-.901.005-1.16-.251-.584-.584-.267-1.852.707-2.825l7.513-7.505a20.272 20.272 0 00-.73-2.197L60.5 19.344z"/></defs><g fill="none" fill-rule="evenodd"><path fill="#FFF" d="M58.517 24.014c-8.596.3-17.091 5.291-18.39 13.377-8.296-3.294-16.09 1.098-16.09 8.585C8.745 42.981 4.647 56.557 10.644 61.05c4.197 3.593 9.595 2.895 16.49 2.895h45.475c8.495 0 15.39-5.69 15.39-12.778 0-5.29-3.997-10.083-10.093-11.88v-.099c-2-11.08-10.794-15.474-19.39-15.174"/><g transform="translate(8 24)"><mask id="c" fill="#fff"><use xlink:href="#a"/></mask><path fill="url(#b)" d="M51.159 0c-.214.002-.428.006-.642.014-8.595.3-17.09 5.291-18.39 13.377-8.295-3.294-16.091 1.099-16.091 8.586C.745 18.981-3.352 32.558 2.643 37.051c4.198 3.593 9.595 2.894 16.492 2.894h45.473c8.495 0 15.392-5.69 15.392-12.778 0-3.516-1.774-6.806-4.747-9.149l-8.959 8.948c-.212.213-.707.565-1.062.634l-10.06 4.07c-.243.12-.486.152-.723.145-1.247 1.098-3.935 2.18-4.635 2.284-2.665.395-4.317-1.311-6.068-3.121-1.125-1.162-2.29-2.365-3.743-2.944a3.495 3.495 0 00-1.305-.261c-1.903 0-3.503 1.648-4.945 3.132-.55.566-1.069 1.099-1.571 1.507-1.521 1.238-3.031 1.806-4.463 1.707-1.665-.12-2.879-1.258-3.888-2.314l-.183-.194c-1.099-1.159-2.342-2.472-4.118-1.808-.895.337-1.688.996-2.195 1.49-.14.136-.27.282-.402.43-.322.36-.627.7-1.054.892-.329.146-.735.135-1.029-.032a.814.814 0 01-.421-.639c-.066-.551.389-.919.826-1.275.073-.059.143-.116.21-.174l.362-.312c1.045-.905 2.126-1.841 3.49-2.228 1.871-.525 3.48.421 4.501 1.311.328.285.649.627.988.991.897.962 1.826 1.955 3.098 2.106 1.899.226 3.528-1.447 4.605-2.552l.118-.122c1.271-1.304 2.47-2.537 4.188-3.214 1.619-.637 3.362-.434 5.035.59 1.022.628 1.854 1.503 2.659 2.349.514.542 1.046 1.103 1.629 1.6 1.702 1.451 3.307 1.694 5.051.765.227-.121.507-.334.834-.581.29-.219.614-.461.943-.67a1.502 1.502 0 01.139-.923l4.075-10.048c.069-.355.422-.849.633-1.061l9.781-9.769C64.13 2.7 57.841.048 51.503 0h-.344zM60.5 19.344a2.477 2.477 0 01-1.979.705l-1.836 5.225 2.825 2.822 5.23-1.835a2.467 2.467 0 01.705-1.977l7.681-7.671a16.243 16.243 0 00-1.864-.856l-7.177 7.168c-.508.507-1.099.847-1.667.958-.494.095-.901.005-1.16-.251-.584-.584-.267-1.852.707-2.825l7.513-7.505a20.272 20.272 0 00-.73-2.197L60.5 19.344z" mask="url(#c)"/></g></g></svg>