<svg xmlns="http://www.w3.org/2000/svg" xmlns:xlink="http://www.w3.org/1999/xlink" width="280" height="60"><defs><path id="a" d="M0 38h278.073V0H0z"/></defs><g transform="translate(1 14)" fill-rule="evenodd"><path d="M245.937 30.787a4.06 4.06 0 00-3.751-2.517h-10.944l-3.499.035c-2.813 0-5.155-.233-7.097-1.897-3.476-2.608-1.673-9.972 5.929-9.972a13.94 13.94 0 012.676.275c0-3.708 2.969-6.236 6.768-6.236 1.135 0 2.345.226 3.572.713.834-5.201 6.293-8.412 11.815-8.605a15.38 15.38 0 01.526-.009c3.54 0 7.07 1.261 9.415 4.112a3.589 3.589 0 003.783 1.149h.001C262.451 2.137 256.86 0 251.932 0a18.02 18.02 0 00-.615.011c-5.367.187-11.209 2.98-13.459 8.038a11.64 11.64 0 00-1.838-.148h-.002c-2.5 0-4.819.848-6.529 2.388a8.395 8.395 0 00-2.357 3.584 14.856 14.856 0 00-.556-.011h-.002c-5.653 0-8.754 3.261-9.772 6.313-1.037 3.112-.141 6.41 2.23 8.239 2.697 2.274 5.909 2.465 8.711 2.465l1.678-.017 1.821-.018h14.719l-.024-.057" fill="#3b424b"/><path d="M4.624 22.873c0 1.737.184 2.95.554 3.639s.993 1.034 1.872 1.034c.912 0 1.601-.407 2.069-1.221v-8.044c-.456-.869-1.141-1.303-2.053-1.303-.847 0-1.465.342-1.855 1.026s-.587 1.899-.587 3.647v1.222zM0 21.717c0-2.888.488-5.043 1.465-6.465s2.399-2.133 4.266-2.133c1.357 0 2.486.586 3.388 1.759V6.052h4.64v25.011H9.574l-.212-1.791c-.944 1.411-2.16 2.117-3.647 2.117-1.846 0-3.254-.706-4.225-2.117S.021 25.787 0 23.052v-1.335z" fill="#9e292b"/><path d="M21.877 19.537v9.119h4.071c1.129 0 2.025-.398 2.687-1.192s.993-1.911.993-3.35c0-3.051-1.205-4.577-3.615-4.577h-4.136zm0-2.68h3.827c1.031 0 1.864-.371 2.499-1.116s.953-1.732.953-2.964c0-1.395-.288-2.41-.863-3.043s-1.455-.951-2.638-.951h-3.778v8.074zm-2.98 14.531V6.051h6.758c2.16 0 3.786.563 4.877 1.688s1.636 2.813 1.636 5.064c0 1.183-.276 2.227-.83 3.132s-1.303 1.607-2.248 2.106c1.086.348 1.946 1.061 2.582 2.14s.952 2.379.952 3.898c0 2.274-.583 4.061-1.75 5.36s-2.831 1.949-4.991 1.949h-6.986z" fill="#3b424b"/><mask id="b" fill="#fff"><use xlink:href="#a"/></mask><path d="M37.574 31.063h2.882V12.468h-2.882v18.595zm3.11-23.269c0 .488-.135.895-.407 1.222s-.684.488-1.237.488c-.543 0-.951-.163-1.221-.488s-.408-.734-.408-1.222.136-.901.408-1.238.678-.504 1.221-.504.952.171 1.229.513.415.752.415 1.229zm5.194 23.269h2.882V6.051h-2.882zm10.355-7.972c0 1.973.293 3.423.88 4.351s1.541 1.39 2.865 1.39c1.433 0 2.503-.721 3.208-2.163v-8.88c-.738-1.409-1.802-2.114-3.192-2.114-1.324 0-2.279.464-2.865 1.39s-.885 2.35-.896 4.269v1.757zm-2.882-1.635c0-2.714.507-4.782 1.523-6.205s2.472-2.133 4.372-2.133c1.682 0 2.996.684 3.94 2.052V6.051h2.882v25.012H63.43l-.146-1.889c-.944 1.476-2.296 2.214-4.055 2.214-1.824 0-3.254-.708-4.291-2.125s-1.566-3.416-1.587-6v-1.807zm26.802 8.06c-.956 1.248-2.351 1.872-4.185 1.872-1.596 0-2.801-.55-3.615-1.653s-1.227-2.705-1.238-4.811v-11.48h2.866v11.268c0 2.746.825 4.12 2.476 4.12 1.747 0 2.952-.782 3.614-2.345V13.444h2.883v17.619h-2.736l-.065-1.547zm10.519-16.072l.082 1.905c1.118-1.487 2.545-2.231 4.282-2.231 3.116 0 4.695 2.079 4.738 6.237v11.708h-2.865V19.485c0-1.378-.231-2.359-.692-2.939s-1.154-.871-2.077-.871c-.716 0-1.359.239-1.929.716s-1.029 1.102-1.376 1.873v12.799h-2.883V13.444h2.72zm16.397 9.647c0 1.973.29 3.423.871 4.351s1.533 1.39 2.858 1.39c1.433 0 2.508-.732 3.224-2.195v-8.8c-.749-1.441-1.813-2.162-3.192-2.162-1.324 0-2.279.464-2.865 1.39s-.886 2.35-.896 4.269v1.757zm-2.882-1.635c0-2.747.499-4.823 1.498-6.229s2.459-2.109 4.38-2.109c1.791 0 3.153.765 4.088 2.297l.146-1.971h2.605v17.781c0 2.182-.559 3.857-1.677 5.024S112.551 38 110.554 38c-.869 0-1.843-.215-2.923-.643s-1.892-.959-2.435-1.588l1.173-1.987c1.194 1.173 2.513 1.759 3.957 1.759 2.399 0 3.631-1.308 3.696-3.925v-2.295c-.934 1.378-2.258 2.067-3.973 2.067-1.824 0-3.246-.686-4.266-2.06s-1.553-3.346-1.596-5.919v-1.953zm26.232 5.096c0-.619-.233-1.151-.7-1.595s-1.368-.967-2.703-1.564c-1.552-.64-2.647-1.189-3.281-1.645s-1.11-.974-1.425-1.555-.472-1.272-.472-2.076c0-1.432.523-2.624 1.571-3.574s2.386-1.425 4.014-1.425c1.715 0 3.094.5 4.136 1.498s1.563 2.28 1.563 3.843h-2.866c0-.792-.266-1.468-.798-2.027s-1.211-.839-2.035-.839c-.847 0-1.512.219-1.995.658s-.724 1.025-.724 1.761c0 .584.176 1.055.529 1.412s1.202.829 2.548 1.412c2.139.838 3.593 1.656 4.364 2.455s1.156 1.813 1.156 3.042c0 1.532-.526 2.758-1.579 3.677s-2.465 1.378-4.234 1.378c-1.834 0-3.322-.526-4.462-1.579s-1.709-2.388-1.709-4.006h2.898c.033.977.331 1.743.896 2.296s1.357.83 2.377.83c.955 0 1.683-.214 2.182-.643s.749-1.006.749-1.734m13.416 2.378c.955 0 1.72-.295 2.296-.887s.89-1.436.945-2.532h2.719c-.065 1.693-.665 3.096-1.799 4.209s-2.522 1.668-4.161 1.668c-2.182 0-3.846-.686-4.991-2.059s-1.718-3.417-1.718-6.131v-1.937c0-2.66.57-4.682 1.71-6.066s2.801-2.077 4.983-2.077c1.801 0 3.232.571 4.291 1.71s1.62 2.698 1.685 4.674h-2.719c-.065-1.303-.378-2.28-.937-2.931s-1.333-.977-2.32-.977c-1.281 0-2.231.421-2.85 1.261s-.939 2.224-.96 4.145v2.247c0 2.074.306 3.539.919 4.397s1.582 1.286 2.907 1.286m10.177 2.133h2.882V6.051h-2.882zm10.356-7.963c0 1.813.355 3.238 1.067 4.275s1.669 1.555 2.874 1.555c2.54 0 3.848-1.835 3.924-5.505v-1.986c0-1.802-.358-3.227-1.075-4.274s-1.677-1.572-2.882-1.572c-1.183 0-2.13.524-2.841 1.572s-1.067 2.467-1.067 4.258V23.1zm-2.882-1.661c0-2.562.621-4.589 1.865-6.082s2.884-2.239 4.925-2.239 3.683.728 4.926 2.182 1.88 3.436 1.913 5.943V23.1c0 2.551-.618 4.571-1.856 6.057s-2.888 2.231-4.95 2.231c-2.041 0-3.678-.721-4.909-2.165s-1.871-3.398-1.914-5.863v-1.921zm26.997 8.077c-.956 1.248-2.351 1.872-4.185 1.872-1.596 0-2.801-.55-3.615-1.653s-1.227-2.705-1.238-4.811v-11.48h2.866v11.268c0 2.746.825 4.12 2.476 4.12 1.747 0 2.952-.782 3.614-2.345V13.444h2.883v17.619h-2.736l-.065-1.547zm10.079-6.425c0 1.973.293 3.423.88 4.351s1.541 1.39 2.865 1.39c1.433 0 2.503-.721 3.208-2.163v-8.88c-.738-1.409-1.802-2.114-3.192-2.114-1.324 0-2.279.464-2.865 1.39s-.885 2.35-.896 4.269v1.757zm-2.882-1.635c0-2.714.507-4.782 1.523-6.205s2.472-2.133 4.372-2.133c1.682 0 2.996.684 3.94 2.052V6.051h2.882v25.012h-2.638l-.146-1.889c-.944 1.476-2.296 2.214-4.055 2.214-1.824 0-3.254-.708-4.291-2.125s-1.566-3.416-1.587-6v-1.807zm63.422 5.212l-2.679.465a1.015 1.015 0 01-1.004-.417l-.909-1.3a1.01 1.01 0 01-.053-1.079l1.343-2.375a2.01 2.01 0 01.602-.663l12.812-8.971a10.2 10.2 0 00-1.606-.838 1.998 1.998 0 00-1.903.229l-10.748 7.526c-.171.12-.474.418-.564.653l-4.363 8.365c-.609.825.186 1.961 1.17 1.671l9.353-1.239c.252-.005.635-.187.806-.307l10.756-7.531c.471-.33.795-.842.854-1.414l.036-.697c0-.496-.061-.984-.167-1.462l-12.92 9.047a2.03 2.03 0 01-.816.337M278.03 15.19c-.579-2.863-2.436-5.391-5.127-7.049a2.016 2.016 0 00-2.206.082l-.803.563v-.001l-.506.355-.483.339c3.892 1.166 6.442 4.236 6.442 7.627 0 .557-.069 1.1-.196 1.625l2.059-1.442c.671-.47.983-1.296.82-2.099m-20.813 9.349c.44.629 1.543.623 2.515-.057l12.554-8.791a8.042 8.042 0 00-1.659-2.245l-12.496 8.75c-.971.68-1.354 1.714-.914 2.343" mask="url(#b)" fill="#3b424b"/></g></svg>