<svg width="76" height="16" viewBox="0 0 76 16" xmlns="http://www.w3.org/2000/svg"><g fill="none"><path fill="#FF6336" d="M10.471 12.475h3.492v-2.467H9.45l-2.47 2.467-2.467-2.467H0v2.467h3.492l3.488 3.492z"/><path fill="#FFC501" d="M0 5.072h13.963V7.54H0z"/><path fill="#A4A14A" d="M0 .136h13.963v2.469H0z"/><path fill="#FFF" d="M19.514.135h2.219V12.25h-2.219zM25.19 11.9a4.42 4.42 0 01-1.666-1.586 4.313 4.313 0 011.666-6.026 4.775 4.775 0 014.562 0 4.43 4.43 0 011.666 1.587 4.313 4.313 0 01-1.666 6.026 4.77 4.77 0 01-4.562 0zm3.446-1.766a2.24 2.24 0 00.852-.831 2.456 2.456 0 000-2.422 2.235 2.235 0 00-.85-.832 2.457 2.457 0 00-2.336 0 2.235 2.235 0 00-.847.832 2.456 2.456 0 000 2.422c.202.35.496.637.848.833a2.457 2.457 0 002.337 0l-.004-.002zM33.208.135h2.22v7.218l2.892-3.417h2.64l-3.263 3.853 3.5 4.458h-2.843l-2.927-3.85v3.853h-2.22zm10.085 11.808a4.122 4.122 0 01-1.514-1.538c-.386-.668-.58-1.437-.58-2.315a4.496 4.496 0 01.556-2.203 4.248 4.248 0 011.514-1.6 3.946 3.946 0 012.103-.585 3.9 3.9 0 011.472.269c.44.176.78.419 1.018.727v-.76h2.22v8.311h-2.22v-.756c-.324.309-.7.558-1.109.738-.397.168-.897.253-1.515.253a3.862 3.862 0 01-1.945-.541zm4.045-2.182c.415-.45.623-1.003.623-1.665 0-.663-.208-1.22-.622-1.67-.415-.45-.964-.674-1.648-.674-.683 0-1.235.223-1.653.673-.418.45-.622 1.004-.622 1.666 0 .663.207 1.216.622 1.666.416.45.964.673 1.653.673.69 0 1.232-.224 1.648-.672v.003zM51.695.135h2.219V12.25h-2.22zm3.954 2.255a1.322 1.322 0 01-.405-.977 1.38 1.38 0 01.405-1A1.31 1.31 0 0156.623 0c.376-.006.738.143 1 .412.27.263.419.625.413 1 .004.37-.145.724-.413.977a1.377 1.377 0 01-1 .405 1.336 1.336 0 01-.974-.405zm-.12 1.546h2.22v8.31h-2.22v-8.31zm3.736 7.738l.504-2.087h.1c.73.56 1.476.841 2.238.84.314 0 .57-.058.767-.175a.563.563 0 00.295-.514c0-.234-.114-.426-.346-.572-.231-.146-.661-.324-1.288-.537-.638-.213-1.136-.522-1.487-.926a2.1 2.1 0 01-.53-1.429c0-.775.288-1.397.868-1.868.58-.472 1.312-.704 2.198-.704a5.28 5.28 0 011.195.125c.35.086.684.225.991.413l.086 2.116h-.117a6.916 6.916 0 00-1.078-.58 2.794 2.794 0 00-1.058-.195c-.24-.01-.48.049-.689.168-.178.112-.269.258-.269.437 0 .236.112.428.338.58.226.15.644.33 1.261.545.706.237 1.243.522 1.608.86.364.337.545.859.545 1.564 0 .584-.145 1.083-.436 1.499a2.7 2.7 0 01-1.153.931 3.892 3.892 0 01-1.573.312c-1.165.006-2.153-.263-2.97-.803zm9.253.218a4.32 4.32 0 01-1.64-1.607 4.37 4.37 0 01-.594-2.262 4.346 4.346 0 01.564-2.195c.37-.652.911-1.19 1.565-1.557.667-.38 1.42-.569 2.26-.569.852 0 1.59.199 2.212.595.61.386 1.1.936 1.413 1.587.32.667.484 1.398.479 2.137v.657H68.4c.136.628.423 1.105.867 1.43.444.324 1.03.486 1.76.486a4.275 4.275 0 002.909-1.093h.236l-.084 2.102a6.588 6.588 0 01-3.213.875c-.879.005-1.663-.192-2.358-.586zm4.037-4.726c-.056-.506-.265-.899-.631-1.19-.366-.29-.811-.422-1.338-.422a2.28 2.28 0 00-1.355.412c-.386.274-.647.676-.782 1.203l4.106-.003z"/></g></svg>