<svg width="113" height="24" viewBox="0 0 113 24" xmlns="http://www.w3.org/2000/svg"><g fill="none"><path fill="#FF6336" d="M15.707 18.713h5.237v-3.7h-6.77l-3.704 3.7-3.7-3.7H0v3.7h5.237l5.233 5.237z"/><path fill="#FFC501" d="M0 7.608h20.944v3.704H0z"/><path fill="#A4A14A" d="M0 .203h20.944v3.704H0z"/><path fill="#000" d="M29.271.203H32.6v18.17h-3.328zm8.514 17.648a6.63 6.63 0 01-2.499-2.38 6.47 6.47 0 010-6.658 6.582 6.582 0 012.5-2.38 7.162 7.162 0 016.842 0 6.645 6.645 0 012.498 2.38 6.47 6.47 0 010 6.658 6.605 6.605 0 01-2.498 2.38 7.155 7.155 0 01-6.843 0zm5.169-2.65c.53-.292.972-.723 1.277-1.246a3.683 3.683 0 000-3.633 3.352 3.352 0 00-1.273-1.249 3.685 3.685 0 00-3.505 0 3.352 3.352 0 00-1.271 1.249 3.683 3.683 0 000 3.633c.304.523.744.955 1.273 1.25a3.685 3.685 0 003.505 0l-.006-.004zM49.812.203h3.33V11.03l4.338-5.125h3.959l-4.893 5.78 5.249 6.686h-4.264l-4.39-5.775v5.78h-3.33zM64.94 17.915a6.182 6.182 0 01-2.271-2.308c-.58-1.002-.87-2.155-.87-3.471a6.744 6.744 0 01.834-3.306 6.372 6.372 0 012.271-2.399 5.919 5.919 0 013.154-.877 5.851 5.851 0 012.207.402c.662.265 1.171.628 1.529 1.091v-1.14h3.329v12.467h-3.33V17.24a5.818 5.818 0 01-1.663 1.107c-.595.251-1.346.379-2.272.379a5.793 5.793 0 01-2.918-.811zm6.067-3.273c.623-.674.934-1.504.934-2.498 0-.994-.31-1.83-.933-2.504-.622-.675-1.446-1.012-2.471-1.012-1.026 0-1.853.335-2.48 1.01-.626.674-.934 1.505-.934 2.499 0 .994.312 1.824.935 2.498.622.674 1.444 1.01 2.479 1.01 1.034 0 1.847-.337 2.471-1.008v.005zM77.542.203h3.33v18.17h-3.33zm5.931 3.381a1.983 1.983 0 01-.607-1.465 2.067 2.067 0 01.607-1.5A1.97 1.97 0 0184.934 0a2.045 2.045 0 011.5.619c.405.393.629.936.62 1.5a1.983 1.983 0 01-.62 1.465 2.066 2.066 0 01-1.5.607 2.004 2.004 0 01-1.46-.607zm-.18 2.32h3.33V18.37h-3.33V5.904zm5.605 11.607l.755-3.13h.15c1.095.84 2.214 1.261 3.358 1.26.471 0 .855-.087 1.15-.263a.844.844 0 00.442-.77c0-.352-.171-.64-.518-.859-.347-.219-.992-.487-1.932-.806-.958-.32-1.705-.782-2.232-1.388a3.15 3.15 0 01-.793-2.143c0-1.163.431-2.096 1.301-2.803.87-.707 1.968-1.055 3.297-1.055a7.782 7.782 0 011.792.187 5.212 5.212 0 011.487.619l.128 3.174h-.175a10.374 10.374 0 00-1.617-.87 4.191 4.191 0 00-1.587-.292 1.922 1.922 0 00-1.033.252c-.268.168-.404.387-.404.655 0 .355.168.642.507.87.34.227.966.495 1.892.818 1.059.356 1.865.782 2.411 1.289.547.507.819 1.29.819 2.347 0 .875-.219 1.624-.655 2.248a4.05 4.05 0 01-1.73 1.397 5.837 5.837 0 01-2.358.467c-1.748.01-3.23-.394-4.455-1.204zm13.879.327a6.479 6.479 0 01-2.459-2.41 6.556 6.556 0 01-.893-3.393 6.52 6.52 0 01.847-3.293 6.185 6.185 0 012.347-2.335c1-.569 2.131-.853 3.392-.853 1.277 0 2.382.297 3.316.892a5.767 5.767 0 012.12 2.38c.48 1 .726 2.097.718 3.206v.986h-9.564c.204.942.635 1.657 1.301 2.144.667.487 1.545.73 2.64.73a6.413 6.413 0 004.363-1.64h.355l-.127 3.153a9.883 9.883 0 01-4.819 1.312c-1.318.008-2.495-.288-3.537-.879zm6.055-7.089c-.083-.758-.397-1.348-.946-1.785-.55-.436-1.217-.633-2.007-.633a3.42 3.42 0 00-2.032.618c-.58.411-.97 1.014-1.174 1.804l6.16-.004z"/></g></svg>