<svg width="130" height="28" viewBox="0 0 130 28" fill="none" xmlns="http://www.w3.org/2000/svg"><g clip-path="url(#clip0)"><path d="M24.275 17.4h-7.846l-4.292 4.291-4.29-4.29H0v4.29h6.068l3.035 3.035 3.034 3.034 3.035-3.034 3.034-3.035h6.069v-4.29z" fill="#FF6336"/><path d="M24.275 8.816H0v4.292h24.275V8.816z" fill="#FFC500"/><path d="M24.275.234H0v4.292h24.275V.234z" fill="#A4A14A"/><path d="M33.926.234h3.86v21.058h-3.86V.234zm9.869 20.458a7.651 7.651 0 01-2.895-2.764 7.28 7.28 0 01-1.068-3.86 7.28 7.28 0 011.068-3.861 7.655 7.655 0 012.895-2.764 8.064 8.064 0 013.963-1.01c1.423 0 2.744.337 3.963 1.01a7.668 7.668 0 012.896 2.764 7.291 7.291 0 011.067 3.86c0 1.404-.355 2.69-1.067 3.861a7.673 7.673 0 01-2.896 2.764 8.068 8.068 0 01-3.963 1.01 8.065 8.065 0 01-3.963-1.01zm5.996-3.07a3.897 3.897 0 001.477-1.448c.37-.624.556-1.326.556-2.106 0-.78-.186-1.481-.556-2.106a3.898 3.898 0 00-1.477-1.447 4.116 4.116 0 00-2.033-.513 4.12 4.12 0 00-2.033.512 3.9 3.9 0 00-1.477 1.448c-.371.624-.555 1.327-.555 2.106 0 .78.184 1.482.555 2.106a3.89 3.89 0 001.477 1.448 4.113 4.113 0 002.033.512c.74 0 1.418-.171 2.033-.512zM57.73.234h3.861v12.547l5.03-5.937h4.591l-5.673 6.698 6.083 7.75H66.68l-5.089-6.698v6.698h-3.86V.234zm17.534 20.532c-1.082-.624-1.96-1.516-2.632-2.676-.672-1.16-1.009-2.5-1.009-4.022 0-1.384.322-2.661.965-3.83a7.358 7.358 0 012.633-2.779 6.852 6.852 0 013.655-1.023c.936 0 1.79.156 2.559.467.77.312 1.36.732 1.77 1.258V6.844h3.86v14.448h-3.86v-1.316a6.686 6.686 0 01-1.931 1.287c-.683.292-1.56.439-2.633.439-1.169 0-2.294-.312-3.377-.936zm7.034-3.802c.721-.78 1.082-1.744 1.082-2.895 0-1.15-.36-2.115-1.082-2.896-.721-.78-1.677-1.17-2.866-1.17-1.19 0-2.145.392-2.867 1.17-.72.78-1.081 1.746-1.081 2.896s.36 2.116 1.081 2.895c.722.78 1.677 1.17 2.867 1.17s2.145-.39 2.866-1.17zM89.873.234h3.86v21.058h-3.86V.234zm6.874 3.919a2.311 2.311 0 01-.702-1.697c0-.682.234-1.262.702-1.74A2.29 2.29 0 0198.443 0c.682 0 1.262.24 1.74.716.477.478.717 1.058.717 1.74 0 .663-.239 1.229-.717 1.697a2.395 2.395 0 01-1.74.702 2.309 2.309 0 01-1.696-.702zm-.205 2.69h3.86v14.448h-3.86V6.845zm6.493 13.452l.878-3.627h.175c1.267.975 2.564 1.463 3.89 1.463.546 0 .989-.103 1.331-.307.341-.205.512-.502.512-.892 0-.41-.201-.741-.6-.994-.4-.254-1.146-.566-2.237-.937-1.111-.37-1.974-.906-2.588-1.608-.614-.702-.922-1.53-.922-2.486 0-1.345.502-2.428 1.506-3.247s2.276-1.228 3.817-1.228c.78 0 1.472.073 2.077.219a6.058 6.058 0 011.725.716l.147 3.685h-.205c-.702-.448-1.326-.784-1.872-1.008-.546-.224-1.16-.337-1.842-.337-.488 0-.888.098-1.199.292-.312.195-.468.45-.468.761 0 .41.195.746.585 1.01.389.263 1.121.58 2.193.95 1.228.41 2.159.907 2.793 1.492.634.584.951 1.491.951 2.72 0 1.014-.254 1.882-.761 2.603a4.678 4.678 0 01-2.004 1.623c-.828.36-1.74.541-2.734.541-2.009 0-3.725-.468-5.148-1.404zm16.085.381a7.54 7.54 0 01-2.851-2.793c-.693-1.18-1.039-2.49-1.039-3.933 0-1.404.327-2.676.98-3.817a7.185 7.185 0 012.721-2.705c1.159-.663 2.471-.994 3.933-.994 1.481 0 2.764.346 3.846 1.038a6.67 6.67 0 012.456 2.764A8.426 8.426 0 01130 13.95v1.141h-11.085c.234 1.092.736 1.92 1.506 2.486.771.566 1.789.848 3.057.848 1.93 0 3.616-.634 5.059-1.901h.41l-.147 3.655a11.06 11.06 0 01-2.778 1.141 11.13 11.13 0 01-2.808.38c-1.52 0-2.885-.341-4.094-1.024zm7.02-8.218c-.098-.878-.464-1.565-1.097-2.062-.634-.497-1.409-.746-2.325-.746-.897 0-1.682.24-2.355.717-.672.477-1.126 1.175-1.36 2.09h7.137z" fill="#000"/></g><defs><clipPath id="clip0"><path fill="#fff" d="M0 0h130v27.759H0z"/></clipPath></defs></svg>