<svg id="Layer_1" data-name="Layer 1" xmlns="http://www.w3.org/2000/svg" viewBox="0 0 151.19 72.63"><defs><style>.cls-1{fill:#ffd100}.cls-2{fill:#77787b}</style></defs><path class="cls-1" d="M78.63 21.45c0-2.14 0-4.63-1.07-6.53s-2.92-2.65-6-2.65c-3.27 0-5.44.87-6.47 2.69-.9 1.58-1.18 3.48-1.18 7.2 0 4 .47 6.33 1.73 7.67 1.11 1.23 3.36 1.94 6.08 1.94a33.32 33.32 0 005.8-.56c.79-.15.83-.39.83-1.14a6.94 6.94 0 000-.95c-.08-.91-.12-1.19-.39-1.19a34.59 34.59 0 01-6.16.91 7.45 7.45 0 01-2.88-.55c-1.3-.67-1.3-2.89-1.3-5h10.1c.91 0 .95-.28.95-1.82zm-3.48-2.73v1.78h-7.57v-.79c0-3.56.67-4.43 4-4.43 2.84 0 3.59.75 3.59 3.44zm21.07 12.06a7 7 0 00-.31-2.41.46.46 0 00-.4-.16c-.67 0-3.51.47-5.28.47-2.21 0-3-.67-3.16-2.69C87 24.85 87 23.23 87 22c0-1.35 0-4.71.59-5.66.44-.71 1.27-1 2.69-1 1.77 0 4.53.47 5.28.47.32 0 .48-.12.56-.59a12.78 12.78 0 00.15-2c0-.63-.11-.63-1.57-.79a29.5 29.5 0 00-3.24-.2c-6.63 0-8.21 1.78-8.21 9.77s1.58 9.73 8.21 9.73a28.81 28.81 0 003.24-.16c1.42-.16 1.57-.2 1.57-.83z"/><path class="cls-2" d="M18.13 30.45l-1.41-17c-.06-.7-.28-.73-.84-.73h-1.55c-.61 0-.78.14-.94.59-1.11 3-3 8.4-4.31 12.29-1.33-3.89-3.19-9.26-4.33-12.29-.16-.45-.3-.59-.91-.59H2.28c-.55 0-.8 0-.86.73L0 30.45c-.06.69.16.8.86.8H2c.53 0 .67-.16.7-.8l.89-14.27c.19.72.5 2 .77 2.81 1.14 3.31 2.45 7 3.31 9.23.22.61.38.84 1 .84h.72c.64 0 .84-.23 1.06-.84.86-2.28 2.11-5.92 3.25-9.23.27-.78.61-2.09.83-2.81l.83 14.27c0 .64.2.8.7.8h1.16c.72 0 .92-.11.86-.8zm7.8 0v-17c0-.48-.08-.73-.69-.73h-1.17c-.55 0-.86 0-.86.73v17c0 .69.14.8.86.8h1.17c.5 0 .69-.16.69-.8zm19.32 0v-17c0-.48-.09-.73-.7-.73h-1.19c-.56 0-.83 0-.83.73v13c-3.06-4.62-6.47-10-8.75-13.3-.25-.36-.41-.39-1-.39H32c-.59 0-.86 0-.86.73v17c0 .69.14.8.86.8h1.16c.5 0 .7-.16.7-.8V17.6c2.69 4.2 6.38 10 8.63 13.24.33.44.66.41 1.14.41h.91c.5 0 .7-.16.7-.8zm16.4-16.28v-.77c0-.64-.25-.73-.7-.73H49.13c-.44 0-.69.09-.69.73v.77c0 .59 0 .89.69.89 1.78 0 3.25 0 4.55-.05v15.44c0 .69.14.8.86.8h1.17c.5 0 .69-.16.69-.8V15c1.31 0 2.78.05 4.55.05.67 0 .7-.3.7-.89z"/><path class="cls-1" d="M151.19 33.13l-6.62-9.31-17 2.79v6.1c0 3.31-3.16 2.54-3.16 2.54l-19.29-3.95-.85 1.28a.56.56 0 00-.09.44.61.61 0 00.37.27l23 5.14 23.63-5.3zm-7.77-10.98l-6.63-9.32-9.23.78v5.78a2.36 2.36 0 01-2.63 2.61l-12.07-1.72-1.31 1.84 16 2.48 15.86-2.48zm-7.92-11.02L127.53 0v7.18a2.23 2.23 0 01-2.7 2.45l-4.39-.36-1.26 1.86 8.39.73 7.93-.73z"/><path class="cls-2" d="M5.27 71.56c0-.1-.06-.16-.18-.16H1.57v-3.72h2.88c.16 0 .19 0 .19-.19v-.64c0-.16 0-.19-.19-.19H1.57V63.4h3.26c.13 0 .17 0 .22-.13l.2-.62a.9.9 0 000-.19s0-.09-.19-.09H.54c-.11 0-.17.06-.17.18v9.7c0 .12.06.18.17.18h4.52c.16 0 .21 0 .21-.21v-.66zm7 .66c.06 0 .12 0 .12-.12a.2.2 0 00-.09-.1L10 68.71l2.21-2.89v-.12c0-.05 0-.08-.11-.11l-.62-.25a.48.48 0 00-.18-.06c-.11 0-.14 0-.19.12L9.9 67.29l-.47.7-.43-.7-1.23-1.89c-.06-.08-.07-.12-.19-.12a.54.54 0 00-.18.06l-.61.25c-.06 0-.12 0-.12.11a.17.17 0 00.06.12l2.12 3L6.42 72a.15.15 0 00-.06.11c0 .08.06.09.12.12l.61.25a.54.54 0 00.18.06c.12 0 .13 0 .19-.12L9 70.19c.16-.23.26-.38.4-.6.08.16.25.41.38.62l1.45 2.2c.05.07.07.12.19.12a.54.54 0 00.18-.06l.61-.25zm5.81-1.08s0-.09-.09-.09a4 4 0 01-1.8.6c-1.43 0-1.69-1.41-1.69-2.75 0-1.67.43-2.74 1.86-2.74a2.64 2.64 0 011.56.75s.06 0 .09-.09l.34-.62v-.12a2.9 2.9 0 00-2.11-.9c-1.81 0-3 1.49-3 3.94 0 2.15 1 3.51 2.76 3.51a3.81 3.81 0 002.32-.76s0-.07-.05-.12l-.25-.61zm2.41-2.91c0-.74.29-2.15 1.65-2.15s1.52 1.39 1.52 2.15zm3.92 2.91s0-.09-.09-.09a4 4 0 01-1.8.6c-1.68 0-2-1.62-2-2.51h4.21c.16 0 .16-.12.16-.32 0-1.27-.22-3.64-2.67-3.64-1.82 0-2.9 1.57-2.9 3.72s1.14 3.72 3.1 3.73a3.77 3.77 0 002.31-.76v-.12l-.25-.61zm4.78.48s0-.09-.11-.09a2.82 2.82 0 01-.76.19.59.59 0 01-.59-.51V62c0-.07 0-.19-.1-.19h-.18l-.73.17c-.06 0-.1.08-.1.18v7.64a7.63 7.63 0 00.2 2.13 1.4 1.4 0 001.38.7c.54 0 1.25-.2 1.25-.37a.54.54 0 000-.1l-.19-.54zm3.93 0s0-.09-.1-.09a2.82 2.82 0 01-.76.19.59.59 0 01-.59-.51V62c0-.07 0-.19-.11-.19a.55.55 0 00-.17 0l-.74.17a.18.18 0 00-.1.18v7.64a7.28 7.28 0 00.21 2.13 1.39 1.39 0 001.38.7c.54 0 1.24-.2 1.24-.37a.22.22 0 000-.1l-.19-.54zm2-3.39c0-.74.29-2.15 1.65-2.15s1.52 1.39 1.52 2.15zM39 71.14s0-.09-.09-.09a4 4 0 01-1.8.6c-1.68 0-2-1.62-2-2.51h4.21c.16 0 .16-.12.16-.32 0-1.27-.22-3.64-2.67-3.64-1.82 0-2.9 1.57-2.9 3.72S35 72.62 37 72.63a3.77 3.77 0 002.31-.76v-.12l-.31-.61zm7.36-3.76c0-1.06-.12-2.2-1.74-2.2a3.76 3.76 0 00-2.37 1c0-.12-.19-1-.45-1h-.12l-.68.42c-.06 0-.07.07-.07.1s.11.18.23.62a3.08 3.08 0 01.06.87v5.06a.16.16 0 00.18.18h.76c.12 0 .17-.06.17-.18v-5.2a2.9 2.9 0 011.94-.89c.8 0 1 .56 1 1.19v4.9c0 .12.06.18.17.18h.77c.11 0 .17-.06.17-.18v-4.87zM53 71.14s0-.09-.08-.09a4 4 0 01-1.81.6c-1.42 0-1.69-1.41-1.69-2.75 0-1.67.43-2.74 1.87-2.74a2.64 2.64 0 011.55.75c.05 0 .06 0 .09-.09l.34-.62v-.12a2.9 2.9 0 00-2.11-.9c-1.81 0-3 1.49-3 3.94 0 2.15 1 3.51 2.76 3.51a3.78 3.78 0 002.32-.76v-.12l-.24-.61zm2.41-2.91c0-.74.3-2.15 1.65-2.15s1.53 1.39 1.53 2.15zm3.92 2.91s0-.09-.08-.09a4 4 0 01-1.81.6c-1.67 0-2-1.62-2-2.51h4.22c.16 0 .16-.12.16-.32 0-1.27-.22-3.64-2.67-3.64-1.82 0-2.91 1.57-2.91 3.72s1.15 3.72 3.1 3.73a3.78 3.78 0 002.32-.76v-.12l-.25-.61zm5.92-2.81c0-.15-.06-.2-.21-.2H61.8c-.16 0-.19.07-.19.23V69c0 .15.06.2.21.2h3.25c.16 0 .21 0 .21-.15v-.75zm6.22-5.2a.7.7 0 00.06-.17.2.2 0 00-.12-.16 4.94 4.94 0 00-2.31-.63 2.68 2.68 0 00-2.92 2.62c0 3 4.28 2.67 4.28 5.11a1.6 1.6 0 01-1.75 1.68 5.26 5.26 0 01-2.18-.58.52.52 0 00-.21-.07c-.09 0-.11.07-.16.19l-.19.48c0 .06-.06.13-.06.18a.18.18 0 00.12.16 5.93 5.93 0 002.67.73 2.83 2.83 0 003.11-2.87 2.78 2.78 0 00-1.19-2.31c-1.17-1-3.1-1.25-3.1-2.79a1.39 1.39 0 011.56-1.44 4.16 4.16 0 011.87.52.44.44 0 00.2.07c.1 0 .1-.07.16-.19l.19-.49zm6.51 8s-.05-.09-.09-.09a4 4 0 01-1.81.6c-1.42 0-1.68-1.41-1.68-2.75 0-1.67.42-2.74 1.86-2.74a2.64 2.64 0 011.56.75s.05 0 .08-.09l.34-.62a.26.26 0 000-.12 2.91 2.91 0 00-2.12-.9c-1.8 0-3 1.49-3 3.94 0 2.15 1 3.51 2.76 3.51a3.78 3.78 0 002.32-.76v-.12l-.2-.6zm1.83 1.11c0 .12.06.18.17.18h.77c.11 0 .17-.06.17-.18v-5.2a3 3 0 012-.89c.8 0 1 .56 1 1.19v4.9a.16.16 0 00.18.18h.76c.11 0 .17-.06.17-.18v-4.86c0-1.06-.11-2.2-1.74-2.2a3.66 3.66 0 00-2.31 1V62c0-.07 0-.19-.1-.19h-.18l-.73.17c-.06 0-.1.08-.1.18v10.09zm11.34-1.34a3.7 3.7 0 01-1.67.75 1.06 1.06 0 01-1.21-1.19v-5.09c0-.08 0-.19-.1-.19a.55.55 0 00-.17 0l-.74.17c-.06 0-.1.07-.1.18v4.87c0 1.06.16 2.2 2.14 2.2a3.53 3.53 0 002-.86c.16.33.33.86.55.86a.24.24 0 00.11 0l.58-.35s.13-.06.13-.12a3.19 3.19 0 00-.28-.56 2.14 2.14 0 01-.16-1v-5.2c0-.08 0-.19-.11-.19h-.17l-.73.17a.17.17 0 00-.11.18v5.37zm5.9.72s0-.09-.11-.09a2.82 2.82 0 01-.76.19.59.59 0 01-.59-.51V62c0-.07 0-.19-.1-.19h-.18l-.73.17c-.06 0-.1.08-.1.18v7.64a7.63 7.63 0 00.2 2.13 1.4 1.4 0 001.38.7c.54 0 1.25-.2 1.25-.37a.54.54 0 000-.1l-.19-.54zm6.63-4.24c0-1.06-.11-2.2-1.74-2.2a3.76 3.76 0 00-2.37 1c0-.12-.19-1-.45-1H99l-.66.37c-.06 0-.07.07-.07.1a5.41 5.41 0 01.23.62 3.08 3.08 0 01.06.87v5.06a.16.16 0 00.18.18h.76a.16.16 0 00.18-.18V67a2.85 2.85 0 011.94-.89c.79 0 .95.56.95 1.19v4.9a.16.16 0 00.18.18h.76c.12 0 .17-.06.17-.18v-4.82zm3 .85c0-.74.29-2.15 1.65-2.15s1.52 1.39 1.52 2.15zm3.92 2.91s0-.09-.09-.09a4 4 0 01-1.8.6c-1.68 0-2-1.62-2-2.51h4.21c.16 0 .16-.12.16-.32 0-1.27-.22-3.64-2.67-3.64-1.82 0-2.9 1.57-2.9 3.72s1.14 3.72 3.09 3.73a3.78 3.78 0 002.32-.76v-.12l-.25-.61zm6.09.2a.1.1 0 00-.1-.09 4.36 4.36 0 01-1.41.4c-.88 0-.88-.6-.88-1.19v-4.17h1.94a.21.21 0 00.19-.13l.19-.57v-.11c0-.03-.07-.1-.16-.1h-2.17v-2.26c0-.09 0-.16-.07-.16h-.11l-.77.22c-.1 0-.16.09-.16.18v2h-1.1c-.11 0-.11.07-.11.18v.55c0 .08 0 .18.11.18h1.1v4.17a2.37 2.37 0 00.42 1.66 1.82 1.82 0 001.38.51c.79 0 1.89-.41 1.89-.6a.49.49 0 000-.15l-.16-.54zm6.25-5.18v-.6c0-.15 0-.18-.17-.18h-4.43c-.15 0-.18 0-.18.18v.6c0 .11.06.17.18.17h3.21l-3.68 5.33v.59c0 .16 0 .18.16.18h4.58c.08 0 .14 0 .19-.14l.26-.6a.46.46 0 00.06-.16s-.07-.06-.21-.06h-3.62l3.65-5.31zm9.59-.43a.44.44 0 000-.14c0-.06-.06-.08-.13-.11l-.65-.17h-.11c-.05 0-.11 0-.12.15l-1.25 5c0 .13-.07.4-.09.57a5.67 5.67 0 00-.1-.57l-1.2-4.9c0-.08-.05-.15-.18-.15h-.56a.19.19 0 00-.2.13l-1.4 4.73c0 .18-.1.46-.16.81a8.09 8.09 0 00-.14-.81l-1.06-4.81c0-.11 0-.15-.12-.15h-.12l-.64.17c-.07 0-.13 0-.13.11a.27.27 0 000 .14l1.65 6.65c0 .06 0 .15.17.15h.58a.14.14 0 00.16-.13l1.38-4.48a4.77 4.77 0 00.22-1.1 7.38 7.38 0 00.17 1.11l1.15 4.45a.18.18 0 00.2.15h.57c.13 0 .14-.09.17-.15l1.91-6.65zm2.12 2.5c0-.74.3-2.15 1.65-2.15s1.53 1.39 1.53 2.15zm3.92 2.91s0-.09-.08-.09a4 4 0 01-1.81.6c-1.67 0-2-1.62-2-2.51h4.22c.16 0 .16-.12.16-.32 0-1.27-.22-3.64-2.67-3.64-1.82 0-2.91 1.57-2.91 3.72s1.15 3.72 3.1 3.73a3.78 3.78 0 002.32-.76s0-.07-.05-.12l-.25-.61zm3.37-3.73c.35-.39.87-1.15 1.38-1.15a1.37 1.37 0 01.48.13c.06 0 .08-.07.09-.1l.33-.75a.84.84 0 000-.12c0-.13-.38-.24-.72-.24-.85 0-1.38.82-1.76 1.23-.06-.33-.31-1.23-.57-1.23a.38.38 0 00-.15.07l-.54.34a.19.19 0 00-.11.14 1.15 1.15 0 00.17.37 2.53 2.53 0 01.25 1.11v5c0 .12.05.18.17.18h.76a.16.16 0 00.18-.18v-4.8zm6 1.23l2.48-2.75a.25.25 0 00.11-.17c0-.06-.06-.07-.09-.1l-.52-.36c-.06 0-.11-.08-.17-.08s-.12.07-.16.11l-2.93 3.32V62c0-.07 0-.19-.1-.19a.55.55 0 00-.17 0l-.74.17c-.06 0-.1.08-.1.18v10.09a.16.16 0 00.18.18h.76c.12 0 .17-.06.17-.18v-3.44l3 3.7s.09.12.16.12.12-.06.18-.09l.51-.35s.09 0 .09-.1-.08-.13-.1-.18l-2.59-3.27zM1.6 55.53v-8h.81c1.72 0 2.64.63 2.64 3.84 0 2.52-.44 4.16-2.54 4.16zm-1-9c-.11 0-.17.06-.17.18v9.7c0 .12.06.18.17.18h1.66c3 0 4.11-1.63 4.11-5.13 0-4.44-1.91-4.93-3.95-4.93zm12.08 4.86c0-1.23-.58-2-2.26-2-.94 0-2.29.42-2.29.67a.43.43 0 000 .19l.19.51a.11.11 0 00.1.08 4.75 4.75 0 011.79-.47c1 0 1.31.47 1.31 1.32v.53c-.91 0-3.84.07-3.84 2.55a1.84 1.84 0 001.9 2.07 3 3 0 002.12-1c.07.2.33 1 .55 1a.27.27 0 00.12 0l.57-.35c.06 0 .14-.06.14-.12s-.21-.37-.27-.54a3.72 3.72 0 01-.17-1.47v-3zm-1.12 3.58a2.78 2.78 0 01-1.67.91 1.13 1.13 0 01-1.11-1.28c0-1.54 2.11-1.54 2.75-1.55v1.89zm7.16-4.86c0-.06.06-.1.06-.14s-.05-.14-.16-.19a4.65 4.65 0 00-1.74-.44 2.05 2.05 0 00-2.21 2c0 2.21 3.26 1.87 3.26 3.4a1.06 1.06 0 01-1.18 1.06 5.1 5.1 0 01-1.89-.51s-.09 0-.13.13l-.21.45a.35.35 0 00-.06.18c0 .29 1.53.7 2.23.7A2.1 2.1 0 0019 54.68c0-2.29-3.26-1.84-3.26-3.45a1 1 0 011.09-1 4.23 4.23 0 011.48.39c.09 0 .12 0 .18-.17l.19-.4zm11.68 1.43c0-1.06-.11-2.2-1.74-2.2a3.76 3.76 0 00-2.37 1c0-.11-.19-1-.45-1h-.12l-.66.37c-.06 0-.07.07-.07.1a5.41 5.41 0 01.23.62 3.08 3.08 0 01.06.87v5.06a.16.16 0 00.18.18h.76a.16.16 0 00.18-.18v-5.2a2.85 2.85 0 011.93-.89c.8 0 1 .56 1 1.19v4.9a.16.16 0 00.18.18h.76c.11 0 .17-.06.17-.18v-4.85zm6.7-.15c0-1.23-.57-2-2.26-2-.94 0-2.29.42-2.29.67a.45.45 0 000 .19l.19.51a.11.11 0 00.1.08 4.75 4.75 0 011.79-.47c1 0 1.31.47 1.31 1.32v.53c-.91 0-3.85.07-3.85 2.55A1.84 1.84 0 0034 56.76a3 3 0 002.12-1c.07.2.33 1 .55 1a.27.27 0 00.12 0l.57-.35c.06 0 .13-.06.13-.12s-.2-.37-.26-.54a3.66 3.66 0 01-.18-1.47v-2.92zM36 54.94a2.81 2.81 0 01-1.68.91 1.13 1.13 0 01-1.07-1.25c0-1.54 2.1-1.54 2.75-1.55v1.89zm7.21.53a.1.1 0 00-.1-.09 4.36 4.36 0 01-1.41.4c-.88 0-.88-.6-.88-1.19v-4.17h1.94a.21.21 0 00.19-.13l.19-.57v-.11c0-.03-.08-.1-.17-.1h-2.19v-2.26c0-.09 0-.16-.07-.16h-.1l-.78.22c-.1 0-.16.09-.16.18v2h-1.1c-.11 0-.11.07-.11.18v.55c0 .08 0 .18.11.18h1.1v4.17a2.37 2.37 0 00.42 1.66 1.82 1.82 0 001.38.51c.79 0 1.89-.41 1.89-.6a1 1 0 000-.15l-.17-.54zm3.42-5.74c0-.13 0-.22-.19-.22h-2.11c-.12 0-.17.06-.17.18v.55c0 .12.05.18.17.18h1.15v6c0 .12.06.18.17.18h.77c.11 0 .17-.06.17-.18v-6.69zm.27-2.8A.9.9 0 0046 46a.9.9 0 000 1.79.9.9 0 00.9-.89zM54.31 53c0-2.07-.85-3.68-2.87-3.68s-3 1.73-3 3.75.85 3.7 2.83 3.7c2.14 0 3-1.71 3-3.77zm-2.91 2.85c-1.35 0-1.73-1.25-1.73-2.92 0-1.45.39-2.72 1.72-2.72S53.1 51.54 53.1 53c0 1.68-.39 2.87-1.7 2.87zm9.92-4.34c0-1.06-.11-2.2-1.74-2.2a3.76 3.76 0 00-2.37 1c0-.11-.19-1-.45-1h-.12l-.66.37c-.06 0-.07.07-.07.1a5.41 5.41 0 01.23.62 3.08 3.08 0 01.06.87v5.06a.16.16 0 00.18.18h.76a.16.16 0 00.18-.18v-5.2a2.85 2.85 0 011.93-.89c.8 0 1 .56 1 1.19v4.9a.16.16 0 00.18.18h.76c.11 0 .17-.06.17-.18v-4.82zm6.7-.15c0-1.23-.57-2-2.26-2-.94 0-2.29.42-2.29.67a.45.45 0 00.05.19l.19.51a.11.11 0 00.1.08 4.75 4.75 0 011.79-.47c1 0 1.31.47 1.31 1.32v.53c-.91 0-3.85.07-3.85 2.55A1.84 1.84 0 0065 56.76a3 3 0 002.11-1c.08.2.34 1 .56 1a.27.27 0 00.12 0l.57-.35c.06 0 .13-.06.13-.12s-.2-.37-.26-.54a3.66 3.66 0 01-.23-1.51v-2.88zm-1.11 3.58a2.81 2.81 0 01-1.68.91 1.13 1.13 0 01-1.07-1.25c0-1.54 2.1-1.54 2.75-1.55v1.89zm5.86.81s0-.09-.1-.09a2.93 2.93 0 01-.77.19.58.58 0 01-.58-.51v-9.22c0-.07 0-.19-.1-.19L71 46l-.73.18c-.06 0-.1.07-.1.17v7.62a7.63 7.63 0 00.2 2.13 1.4 1.4 0 001.38.7c.55 0 1.25-.2 1.25-.36a.23.23 0 000-.11l-.19-.54zm2-3.39c0-.74.29-2.15 1.64-2.15s1.53 1.39 1.53 2.15zm3.92 2.91c0-.05 0-.09-.09-.09a4 4 0 01-1.81.6c-1.67 0-2-1.62-2-2.51H79c.16 0 .16-.12.16-.32 0-1.27-.22-3.64-2.67-3.64-1.82 0-2.9 1.57-2.9 3.72s1.14 3.72 3.09 3.73A3.78 3.78 0 0079 56v-.12l-.25-.61z"/></svg>