<svg version="1.1" id="Layer_1" xmlns="http://www.w3.org/2000/svg" x="0" y="0" viewBox="0 0 216 69" xml:space="preserve"><style>.st0{fill-rule:evenodd;clip-rule:evenodd;fill:#facc21}</style><g id="Group-2" transform="translate(.41 12.838)"><path id="Fill-1" class="st0" d="M110.6 24.2c0-2.1 0-4.6-1.1-6.5-1-1.8-2.9-2.6-6-2.6-3.3 0-5.4.9-6.5 2.7-.9 1.6-1.2 3.5-1.2 7.2 0 4 .5 6.3 1.7 7.7 1.1 1.2 3.4 1.9 6.1 1.9 1.7 0 3.9-.2 5.8-.6.8-.2.8-.4.8-1.1V32c-.1-.9-.1-1.2-.4-1.2-.6 0-3.2.9-6.2.9-1.1 0-2.2-.2-2.9-.6-1.3-.7-1.3-2.9-1.3-5h10.1c1.1-.1 1.1-.4 1.1-1.9zm-3.4-2.8v1.8h-7.5v-.8c0-3.6.7-4.4 4-4.4 2.7 0 3.5.8 3.5 3.4zm21 12.1c0-1-.2-2.2-.3-2.4-.1-.1-.2-.2-.4-.2-.7 0-3.5.5-5.3.5-2.2 0-3-.7-3.2-2.7-.1-1.1-.1-2.8-.1-4 0-1.3 0-4.7.6-5.7.4-.7 1.3-1 2.7-1 1.8 0 4.5.5 5.3.5.3 0 .5-.1.6-.6.1-.6.2-1.4.2-2 0-.6-.1-.6-1.6-.8-1.1-.1-2.1-.2-3.2-.2-6.6 0-8.2 1.8-8.2 9.8s1.6 9.7 8.2 9.7c1.1 0 2.2 0 3.2-.2 1.4 0 1.5-.1 1.5-.7z"/><path id="Fill-2" d="M50.1 33.2l-1.4-17.1c-.1-.7-.3-.7-.8-.7h-1.6c-.6 0-.8.1-.9.6-1.1 3-3 8.4-4.3 12.3-1.3-3.9-3.2-9.3-4.3-12.3-.2-.4-.3-.6-.9-.6h-1.6c-.6 0-.8 0-.9.7L32 33.2c0 .7.2.8.9.8H34c.5 0 .7-.2.7-.8l.9-14.3c.2.7.5 2 .8 2.8 1.1 3.3 2.4 7 3.3 9.2.2.6.4.8 1 .8h.7c.6 0 .8-.2 1.1-.8.9-2.3 2.1-5.9 3.2-9.2.3-.8.6-2.1.8-2.8l.8 14.3c0 .6.2.8.7.8h1.2c.8 0 1-.1.9-.8zm7.8 0V16.1c0-.5-.1-.7-.7-.7H56c-.6 0-.9 0-.9.7v17.1c0 .7.1.8.9.8h1.2c.5 0 .7-.2.7-.8zm19.3 0V16.1c0-.5-.1-.7-.7-.7h-1.2c-.6 0-.8 0-.8.7v13c-3.1-4.6-6.5-10-8.7-13.3-.2-.4-.4-.4-1-.4H64c-.6 0-.9 0-.9.7v17.1c0 .7.1.8.9.8h1.2c.5 0 .7-.2.7-.8V20.3c2.7 4.2 6.4 10 8.6 13.2.3.4.7.4 1.1.4h.9c.6.1.7-.1.7-.7zm16.4-16.3v-.8c0-.6-.2-.7-.7-.7H81.1c-.4 0-.7.1-.7.7v.8c0 .6 0 .9.7.9 1.8 0 3.2 0 4.6-.1v15.4c0 .7.1.8.9.8h1.2c.5 0 .7-.2.7-.8V17.7c1.3 0 2.8.1 4.6.1.5 0 .5-.3.5-.9z" fill-rule="evenodd" clip-rule="evenodd" fill="#6d6e6d"/></g><g id="Group" transform="translate(104.565 .567)"><path id="Fill-3" class="st0" d="M79 48.1l-6.6-9.3-17 2.8v6.1c0 3.3-3.2 2.5-3.2 2.5l-19.3-4-.9 1.3s-.2.3-.1.4c.1.2.4.3.4.3l23 5.1L79 48.1"/><path id="Fill-4" class="st0" d="M71.3 37.1l-6.6-9.3-9.2.8v5.8c0 2.9-2.6 2.6-2.6 2.6l-12.1-1.7-1.3 1.8 16 2.5 15.8-2.5"/><path id="Fill-5" class="st0" d="M63.3 26.1l-8-11.1v7.2c0 3-2.7 2.5-2.7 2.5l-4.4-.4-1.2 1.8 8.4.7 7.9-.7"/></g></svg>