<svg xmlns="http://www.w3.org/2000/svg" viewBox="0 0 655.92 146.48"><defs><style>.cls-1,.cls-2{fill:#231f20}.cls-2,.cls-5{fill-rule:evenodd}.cls-4,.cls-5{fill:#7aa8da}</style></defs><g id="Layer_2" data-name="Layer 2"><g id="Logo_BRB-SC"><path class="cls-1" d="M244.06 68.26c0 1.9-.8 2.85-2.39 2.85a3.54 3.54 0 01-3-1.78l-23-34v32.93a2.4 2.4 0 01-2.7 2.72q-2.64 0-2.64-2.85v-40c0-2 .75-2.95 2.26-2.95a3.71 3.71 0 013.05 1.82l23 33.86h.06V28.22a3.15 3.15 0 01.72-2.1 2.42 2.42 0 011.92-.86c1.84 0 2.76 1 2.76 3v40z" transform="translate(-.18 -.41)"/><path class="cls-2" d="M257.13 28.72a3.4 3.4 0 01-1 2.43 3.08 3.08 0 01-2.33 1.05 3.2 3.2 0 01-2.37-1 3.48 3.48 0 010-4.87 3.2 3.2 0 012.38-1 3.13 3.13 0 012.34 1 3.43 3.43 0 011 2.43zm-.62 39.41q0 2.85-2.7 2.85a2.42 2.42 0 01-1.9-.82 2.92 2.92 0 01-.74-2V39.53c0-2 .88-3 2.64-3s2.7 1 2.7 2.85v28.75zm33.81-14.88c0 1.82-1 2.72-3 2.72h-20.38q.12 6.57 5 9a10.74 10.74 0 005 1.13 13.67 13.67 0 008.78-3.41 3.55 3.55 0 012-1c1.27 0 1.9.78 1.9 2.34a3 3 0 01-.79 2 14.67 14.67 0 01-5.1 3.44 17.2 17.2 0 01-7.16 1.53q-7.69 0-11.67-5.66a20.12 20.12 0 01-3.49-11.53 2.54 2.54 0 00.12-.31q.41-9.61 6.88-14.46a12.36 12.36 0 017.59-2.49 12.54 12.54 0 017.51 2.35 15.12 15.12 0 015.06 6.23 19.31 19.31 0 011.79 8.12zm-5.4-1.5a11.76 11.76 0 00-2.4-7.45 7.9 7.9 0 00-6.32-2.89 8.36 8.36 0 00-6.57 2.69 11.6 11.6 0 00-2.69 7.65zm37.32 16.38q0 2.85-2.76 2.85a2.49 2.49 0 01-1.87-.79 2.68 2.68 0 01-.77-1.93v-1.82h-.12a7.82 7.82 0 01-2.83 3.12 9.66 9.66 0 01-5.33 1.44 13 13 0 01-7.56-2.19 14.26 14.26 0 01-5.05-6.06 21.41 21.41 0 01-1.87-8.82 21.67 21.67 0 011-6.73q2.06-6.57 7.22-9.31a11.82 11.82 0 015.58-1.34 10.39 10.39 0 018.84 4.6h.12V24.68q0-2.76 2.64-2.76c1.84 0 2.76 1 2.76 2.89v43.32zm-4.78-14.34a16.62 16.62 0 00-1.14-6.49q-2.4-5.89-7.83-5.89-5.82 0-8 6.45a18.56 18.56 0 00-1 5.81 16.37 16.37 0 002.15 8.69 7.18 7.18 0 006.36 3.76 7.73 7.73 0 005.48-1.81 9.88 9.88 0 003-4.58 19.66 19.66 0 001-5.94zm38.91-.54c0 1.82-1 2.72-3 2.72H333q.12 6.57 5 9a10.74 10.74 0 005 1.13 13.71 13.71 0 008.78-3.41 3.53 3.53 0 012-1c1.27 0 1.9.78 1.9 2.34a3 3 0 01-.79 2 14.72 14.72 0 01-5.09 3.44 17.2 17.2 0 01-7.17 1.53q-7.71 0-11.67-5.66a20.12 20.12 0 01-3.5-11.53 2.54 2.54 0 00.12-.31q.42-9.63 6.88-14.5a13 13 0 0115.06-.12 15.14 15.14 0 015.07 6.23 19.3 19.3 0 011.78 8.12zm-5.4-1.5a11.76 11.76 0 00-2.4-7.45 7.87 7.87 0 00-6.32-2.89 8.34 8.34 0 00-6.56 2.69 11.55 11.55 0 00-2.7 7.65z" transform="translate(-.18 -.41)"/><path class="cls-1" d="M377.31 39.4q0 2.25-3.72 3.24a13.37 13.37 0 00-2.35.8q-4.37 2.46-4.36 8.39v16.3q0 2.85-2.58 2.85-2.76 0-2.76-3V39.59q0-2.85 2.64-2.85c1.8 0 2.7.95 2.7 2.84v2.83h.12a15.24 15.24 0 013.18-4 6.31 6.31 0 014.07-1.86 3 3 0 012.12.8 2.63 2.63 0 01.94 2zm25.59 21.74a9.34 9.34 0 01-1.41 4.79 9.84 9.84 0 01-4 3.6 14.39 14.39 0 01-6.68 1.47 15.54 15.54 0 01-10.67-3.72 3.7 3.7 0 01-1.48-2.71 2.46 2.46 0 01.67-1.75 2.21 2.21 0 011.66-.71q1.15 0 3.51 1.71a10.18 10.18 0 001.65 1.08 9.51 9.51 0 004.54 1.24 8.75 8.75 0 004.66-1.1 3.72 3.72 0 002-3.5c0-1.49-.84-2.74-2.51-3.77a35 35 0 00-4.72-2.26q-3.52-1.44-4.64-2a12.36 12.36 0 01-3.95-3.13 6.91 6.91 0 01-1.43-4.46q0-5.31 5.11-7.94a12.4 12.4 0 015.56-1.39 15.93 15.93 0 015.82 1 11.54 11.54 0 014.14 2.33 3.74 3.74 0 011.29 2.6 2.24 2.24 0 01-.73 1.68 2.71 2.71 0 01-1.68.8 13.43 13.43 0 01-3-1.39c-1.76-1-2.75-1.58-3-1.69a5.52 5.52 0 00-2.35-.51A6.5 6.5 0 00387 42.6a4.09 4.09 0 00-1.61 3q.5 2.76 4.1 4.42a35.81 35.81 0 003.66 1.45q1.65.59 2.94 1.14a13.3 13.3 0 015.25 3.54 7.55 7.55 0 011.6 5z" transform="translate(-.18 -.41)"/><path class="cls-2" d="M435.06 68.13q0 2.85-2.52 2.85A2.25 2.25 0 01430 68.4v-2.46h-.18q-3.49 5-8.52 5a13.48 13.48 0 01-7.48-2.11q-7.2-4.49-7.2-14.94 0-11.07 7.47-15.47a12.79 12.79 0 016.54-1.91 11.6 11.6 0 019.19 4.6h.18V39.3a2.83 2.83 0 01.71-2 2.3 2.3 0 011.81-.79q2.52 0 2.52 2.85v28.77zm-5.15-14.34q0-7.76-4.23-10.89a7.54 7.54 0 00-4.61-1.49H421a7.42 7.42 0 00-6.6 3.56 16.2 16.2 0 00-2.4 8.82 18.05 18.05 0 001 6.05q2.16 6.28 7.68 6.28a7.94 7.94 0 007.24-3.84 16 16 0 002-8.49zm.67-24.68a3.2 3.2 0 01-1 2.37 3.29 3.29 0 01-2.38 1 3.19 3.19 0 01-2.35-1 3.24 3.24 0 01-1-2.38 3.46 3.46 0 01.93-2.47 3.12 3.12 0 012.38-1 3.21 3.21 0 012.41 1 3.41 3.41 0 011 2.47zm-11.48 0a3.27 3.27 0 01-1 2.37 3.08 3.08 0 01-2.3 1 3.3 3.3 0 01-2.39-1 3.19 3.19 0 01-1-2.38 3.41 3.41 0 011-2.48 3.23 3.23 0 012.42-1 3.05 3.05 0 012.33 1 3.52 3.52 0 01.92 2.46z" transform="translate(-.18 -.41)"/><path class="cls-1" d="M464.22 40.88c0 1.43-.8 2.22-2.4 2.35q-1.57-.55-3.15-1.14a10.68 10.68 0 00-3.24-.62q-5.71 0-8.12 6.14a16.27 16.27 0 00-1.2 5.75 18.12 18.12 0 001.9 8.43 7.74 7.74 0 006.51 4.4 2.58 2.58 0 01.91.12 9.5 9.5 0 002.72-.55l1.26-.54 1.18-.54a3.2 3.2 0 011.36-.39c1.35 0 2 .78 2 2.34s-1.09 2.85-3.27 3.6a16.45 16.45 0 01-5.27.75q-9 0-12.88-8.19a19.63 19.63 0 01-1.85-8.23 25.3 25.3 0 01.85-6.75q1.8-6.84 7.15-9.69a14.17 14.17 0 016.49-1.57 15 15 0 015.71.93 6 6 0 013.12 2.19 4.43 4.43 0 01.24 1.21zm31.05 27.25q0 2.85-2.7 2.85a2.44 2.44 0 01-1.91-.82 2.91 2.91 0 01-.73-2V49.78a8.83 8.83 0 00-2-6 7 7 0 00-5.46-2.41 7.58 7.58 0 00-3.79.94q-3.88 2.07-3.88 7.31v18.51q0 2.85-2.7 2.85a2.44 2.44 0 01-1.91-.82 2.91 2.91 0 01-.73-2V24.81c0-1.92.88-2.89 2.64-2.89s2.7 1 2.7 2.89l.09 16.19a10.18 10.18 0 018.78-4.48 10.71 10.71 0 0110.08 6.23 13.09 13.09 0 011.52 6.25v19.13zm29.14-6.99a9.34 9.34 0 01-1.41 4.79 9.71 9.71 0 01-4 3.6 14.37 14.37 0 01-6.68 1.47 15.55 15.55 0 01-10.67-3.72 3.7 3.7 0 01-1.48-2.71 2.46 2.46 0 01.67-1.75 2.23 2.23 0 011.67-.71c.77 0 1.94.57 3.5 1.71a10.18 10.18 0 001.65 1.08 9.55 9.55 0 004.55 1.24 8.77 8.77 0 004.66-1.1 3.73 3.73 0 002-3.5c0-1.49-.84-2.74-2.51-3.77a34.43 34.43 0 00-4.72-2.26q-3.53-1.44-4.63-2a12.41 12.41 0 01-4-3.13 6.91 6.91 0 01-1.43-4.46q0-5.31 5.11-7.94a12.44 12.44 0 015.57-1.39 15.88 15.88 0 015.81 1 11.54 11.54 0 014.14 2.33 3.74 3.74 0 011.29 2.6 2.27 2.27 0 01-.72 1.68 2.74 2.74 0 01-1.69.8 13.2 13.2 0 01-3-1.39c-1.77-1-2.76-1.58-3-1.69a5.45 5.45 0 00-2.35-.51 6.52 6.52 0 00-4.36 1.19 4.13 4.13 0 00-1.61 3q.5 2.76 4.11 4.42a36.49 36.49 0 003.65 1.45c1.1.39 2.09.77 3 1.14a13.3 13.3 0 015.25 3.54 7.6 7.6 0 011.59 5z" transform="translate(-.18 -.41)"/><path class="cls-2" d="M535.52 28.72a3.43 3.43 0 01-1 2.43 3.11 3.11 0 01-2.34 1.05 3.2 3.2 0 01-2.37-1 3.38 3.38 0 01-1-2.44 3.34 3.34 0 011-2.43 3.21 3.21 0 014.71 0 3.43 3.43 0 011 2.43zm-.61 39.41q0 2.85-2.7 2.85a2.44 2.44 0 01-1.91-.82 2.91 2.91 0 01-.73-2V39.53c0-2 .88-3 2.64-3s2.7 1 2.7 2.85v28.75z" transform="translate(-.18 -.41)"/><path class="cls-1" d="M564.05 61.14a9.34 9.34 0 01-1.41 4.79 9.8 9.8 0 01-4 3.6A14.37 14.37 0 01552 71a15.51 15.51 0 01-10.66-3.72 3.71 3.71 0 01-1.49-2.71 2.46 2.46 0 01.68-1.75 2.21 2.21 0 011.66-.71q1.15 0 3.51 1.71a10.18 10.18 0 001.65 1.08 9.48 9.48 0 004.54 1.24A8.75 8.75 0 00556.5 65a3.71 3.71 0 002-3.5c0-1.49-.83-2.74-2.5-3.77a35.27 35.27 0 00-4.73-2.26q-3.52-1.44-4.63-2a12.25 12.25 0 01-3.95-3.13 6.86 6.86 0 01-1.43-4.46q0-5.31 5.11-7.94a12.4 12.4 0 015.63-1.39 15.85 15.85 0 015.81 1 11.54 11.54 0 014.14 2.33 3.74 3.74 0 011.29 2.6 2.27 2.27 0 01-.72 1.68 2.71 2.71 0 01-1.69.8 13.2 13.2 0 01-3-1.39c-1.76-1-2.76-1.58-3-1.69a5.45 5.45 0 00-2.35-.51 6.52 6.52 0 00-4.36 1.19 4.13 4.13 0 00-1.61 3q.5 2.76 4.11 4.42a36.49 36.49 0 003.65 1.45c1.11.39 2.09.77 3 1.14a13.3 13.3 0 015.25 3.54 7.6 7.6 0 011.6 5zm27.19-20.26c0 1.43-.8 2.22-2.4 2.35q-1.58-.55-3.15-1.14a10.68 10.68 0 00-3.24-.62q-5.72 0-8.12 6.14a16.27 16.27 0 00-1.2 5.75 18.12 18.12 0 001.9 8.43 7.74 7.74 0 006.51 4.4 2.58 2.58 0 01.91.12 9.43 9.43 0 002.71-.55l1.26-.54 1.19-.54a3.2 3.2 0 011.36-.39c1.35 0 2 .78 2 2.34s-1.09 2.85-3.27 3.6a16.45 16.45 0 01-5.27.75q-9 0-12.88-8.19a19.48 19.48 0 01-1.86-8.23 25.31 25.31 0 01.86-6.75q1.8-6.84 7.15-9.69a14.14 14.14 0 016.49-1.57 14.93 14.93 0 015.7.93 6 6 0 013.11 2.19 4.43 4.43 0 01.24 1.21zm31.04 27.25c0 1.9-.89 2.85-2.69 2.85a2.44 2.44 0 01-1.91-.82 2.91 2.91 0 01-.73-2V49.78a8.83 8.83 0 00-2-6 7 7 0 00-5.46-2.41 7.56 7.56 0 00-3.79.94q-3.88 2.07-3.88 7.31v18.51q0 2.85-2.7 2.85a2.44 2.44 0 01-1.91-.82 2.91 2.91 0 01-.73-2V24.81c0-1.92.88-2.89 2.64-2.89s2.7 1 2.7 2.89L601.9 41a10.2 10.2 0 018.79-4.48 10.72 10.72 0 0110.08 6.23 13.08 13.08 0 011.51 6.25v19.13z" transform="translate(-.18 -.41)"/><path class="cls-2" d="M656.1 53.25c0 1.82-1 2.72-3 2.72h-20.38q.12 6.57 5 9a10.74 10.74 0 005 1.13 13.69 13.69 0 008.78-3.41 3.55 3.55 0 012-1c1.26 0 1.9.78 1.9 2.34a3 3 0 01-.8 2 14.53 14.53 0 01-5.09 3.44 17.2 17.2 0 01-7.16 1.53q-7.7 0-11.67-5.66a20.12 20.12 0 01-3.49-11.53 2.54 2.54 0 00.12-.31q.41-9.61 6.88-14.46a12.34 12.34 0 017.55-2.47 12.54 12.54 0 017.51 2.35 15.12 15.12 0 015.06 6.23 19.31 19.31 0 011.79 8.12zm-5.41-1.5a11.76 11.76 0 00-2.39-7.45 7.9 7.9 0 00-6.3-2.89 8.36 8.36 0 00-6.57 2.69 11.55 11.55 0 00-2.69 7.65zM307.49 120a12.19 12.19 0 01-6.62 11.18 15.08 15.08 0 01-7.64 1.88h-11.15q-3 0-3-3V90.61c0-2 .95-3 2.85-3H292q6.87 0 10.29 5.33a10.28 10.28 0 011.71 5.38 12.71 12.71 0 01-.6 4 8.54 8.54 0 01-5.67 6.08v.12q7.13 1.43 9 7.12a14.08 14.08 0 01.76 4.34zm-9.06-20.4a7.2 7.2 0 00-1.84-5.09 6.41 6.41 0 00-4.93-2.05h-7.1v14.33H291c3.12 0 5.3-1.23 6.56-3.69a7.57 7.57 0 00.85-3.5zm3.48 20.24a8.53 8.53 0 00-1-4.17q-2.29-4.29-8.28-4.3h-8v16.81H292q6.39 0 8.74-4.13a8.6 8.6 0 001.14-4.21zm18.52-29.11a3.43 3.43 0 01-1 2.46 3.23 3.23 0 01-2.41 1 3.35 3.35 0 01-2.44-1 3.45 3.45 0 010-4.93 3.35 3.35 0 012.45-1 3.26 3.26 0 012.42 1 3.41 3.41 0 011 2.45zm-.64 39.79c0 1.92-.93 2.88-2.78 2.88a2.55 2.55 0 01-2-.82 3 3 0 01-.76-2.06v-28.88q0-3 2.73-3c1.85 0 2.78 1 2.78 2.88v29z" transform="translate(-.18 -.41)"/><path class="cls-1" d="M333.73 130.4q0 3-2.79 3c-1.82 0-2.72-1-2.72-3V86.79c0-2 .9-2.92 2.72-2.92a2.47 2.47 0 012.79 2.8v43.73z" transform="translate(-.18 -.41)"/><path class="cls-2" d="M369.76 130.53a2.53 2.53 0 01-2.85 2.87 2.61 2.61 0 01-1.93-.8 2.65 2.65 0 01-.79-1.95v-1.83h-.13a7.93 7.93 0 01-2.92 3.15 10.2 10.2 0 01-5.5 1.43 13.62 13.62 0 01-7.81-2.19 14.56 14.56 0 01-5.21-6.12 21.16 21.16 0 01-1.93-8.91 21.53 21.53 0 011-6.79q2.13-6.65 7.45-9.4a12.41 12.41 0 015.76-1.35 10.81 10.81 0 019.12 4.64h.13V86.66c0-1.86.91-2.79 2.72-2.79s2.85 1 2.85 2.91v43.75zM364.82 116a16.49 16.49 0 00-1.17-6.54q-2.47-6-8.08-6-6 0-8.25 6.51a18.76 18.76 0 00-1.06 5.87 16.23 16.23 0 002.22 8.78 7.45 7.45 0 006.58 3.8 8.17 8.17 0 005.66-1.83 10 10 0 003.1-4.62 19.57 19.57 0 001-6z" transform="translate(-.18 -.41)"/><path class="cls-1" d="M405.18 120.2q0 7.83-5.83 11.35a14.68 14.68 0 01-7.72 1.85q-8.61 0-11.71-6.6a15.46 15.46 0 01-1.4-6.6v-18.68c0-1.92.91-2.88 2.72-2.88s2.79 1 2.79 2.87V120q0 8.46 7.73 8.46 7.9 0 7.91-8.46v-18.49c0-1.91.91-2.87 2.72-2.87s2.79 1 2.79 2.88v18.68zm35.09 10.33a2.76 2.76 0 01-5.51 0v-18.82a8.15 8.15 0 00-2.13-5.8 7.44 7.44 0 00-5.63-2.31 7.29 7.29 0 00-6.74 3.74 8.69 8.69 0 00-1.11 4.49v18.69c0 2-.89 3-2.66 3a2.68 2.68 0 01-2-.87 3.09 3.09 0 01-.8-2.14v-28.87c0-2 .91-3 2.72-3s2.79 1 2.79 3V103l.12.13a10.84 10.84 0 019.19-4.52q7 0 10.2 5.79a14.49 14.49 0 011.64 7.16v18.94z" transform="translate(-.18 -.41)"/><path class="cls-2" d="M476.31 130.66q0 9.76-6.86 14a15.32 15.32 0 01-8.07 2.14 19.5 19.5 0 01-10.52-3q-2.5-1.54-2.72-3.5a2.67 2.67 0 012.21-2.36 8.58 8.58 0 013.74 1.51 13.25 13.25 0 007.53 2.44 7.89 7.89 0 007.11-3.9 15.2 15.2 0 002.07-8.26v-1.27h-.13q-2.69 5-9 4.9a12.8 12.8 0 01-7.56-2.47 15.23 15.23 0 01-5-6.31 21.77 21.77 0 01.11-17.72 14.29 14.29 0 015.2-6.08 13.6 13.6 0 017.81-2.18q6.18.09 8.42 4.77h.13v-1.84a2.42 2.42 0 012.73-2.74 2.53 2.53 0 012.84 2.87v29zm-4.94-14.2q0-7.38-4.25-11a7.93 7.93 0 00-5.51-1.88 7.22 7.22 0 00-4.91 1.91 10.64 10.64 0 00-2.94 4.64 18.24 18.24 0 00-.94 6 19.09 19.09 0 001.09 6.33 9.85 9.85 0 003 4.42 7.57 7.57 0 004.81 1.74 8.44 8.44 0 007-3.27c1.78-2.16 2.67-5.11 2.67-8.83z" transform="translate(-.18 -.41)"/><path class="cls-1" d="M507.87 123.47a9.24 9.24 0 01-1.46 4.83 10.06 10.06 0 01-4.17 3.64 15.22 15.22 0 01-6.85 1.46 16.23 16.23 0 01-11-3.76 3.74 3.74 0 01-1.53-2.73 2.44 2.44 0 01.7-1.77 2.27 2.27 0 011.71-.72c.8 0 2 .58 3.62 1.73a10.4 10.4 0 001.7 1.09 10 10 0 004.69 1.26 9.3 9.3 0 004.81-1.12 3.74 3.74 0 002.09-3.53q0-2.25-2.59-3.81a37.74 37.74 0 00-4.87-2.28q-3.65-1.45-4.78-2a12.7 12.7 0 01-4.08-3.15 6.88 6.88 0 01-1.48-4.51q0-5.37 5.28-8a13 13 0 015.74-1.4 16.32 16.32 0 016 1 12.2 12.2 0 014.27 2.34 3.82 3.82 0 011.33 2.63 2.25 2.25 0 01-.75 1.7 2.8 2.8 0 01-1.74.81 14.75 14.75 0 01-3.09-1.4c-1.82-1-2.84-1.6-3.07-1.72a5.78 5.78 0 00-2.42-.51 6.86 6.86 0 00-4.5 1.2 4.18 4.18 0 00-1.67 3.06q.53 2.78 4.24 4.46a38.64 38.64 0 003.77 1.46c1.14.39 2.16.78 3.05 1.15a13.66 13.66 0 015.41 3.58 7.54 7.54 0 011.65 5z" transform="translate(-.18 -.41)"/><path d="M126.42 15.45C109.36 2 90.53-.01 71.02 9.59c-20.27 9.91-30.49 27.42-29.2 50-22-.56-40.54 19.79-38 41.61 2.06 17.59 14.13 30 31.66 32.56H142.7c21.71-2.71 25.86-6.89 29.47-21.81" fill="none" stroke="#7aa8da" stroke-linecap="round" stroke-linejoin="round" stroke-width="7.23"/><path class="cls-4" d="M119.24 90.16h1.11a1 1 0 011 1v1.11a1 1 0 01-1 1h-1.11a1 1 0 01-1-1v-1.15a1 1 0 011-1zm4.13 0h1.11a1 1 0 011 1v1.11a1 1 0 01-1 1h-1.11a1 1 0 01-1-1v-1.15a1 1 0 011-1zm12.4-61.97h1.1a1 1 0 011 1v1.11a1 1 0 01-1 1h-1.1a1 1 0 01-1-1v-1.15a1 1 0 011-1zm-4.13 0h1.1a1 1 0 011 1v1.11a1 1 0 01-1 1h-1.1a1 1 0 01-1-1v-1.15a1 1 0 011-1zm8.26 0h1.1a1 1 0 011 1v1.11a1 1 0 01-1 1h-1.1a1 1 0 01-1-1v-1.15a1 1 0 011-1zm8.26 0h1.11a1 1 0 011 1v1.11a1 1 0 01-1 1h-1.11a1 1 0 01-1-1v-1.15a1 1 0 011-1zm-4.16 0h1.1a1 1 0 011 1v1.11a1 1 0 01-1 1H144a1 1 0 01-1-1v-1.15a1 1 0 011-1zm-12.36 4.13h1.1a1 1 0 011 1v1.1a1 1 0 01-1 1h-1.1a1 1 0 01-1-1v-1.1a1 1 0 011-1zm-4.13 0h1.1a1 1 0 011 1v1.1a1 1 0 01-1 1h-1.1a1 1 0 01-1-1v-1.1a1 1 0 011-1zm8.26 0h1.1a1 1 0 011 1v1.1a1 1 0 01-1 1h-1.1a1 1 0 01-1-1v-1.1a1 1 0 011-1zm8.23 0h1.1a1 1 0 011 1v1.1a1 1 0 01-1 1H144a1 1 0 01-1-1v-1.1a1 1 0 011-1zm-4.1 0h1.1a1 1 0 011 1v1.1a1 1 0 01-1 1h-1.1a1 1 0 01-1-1v-1.1a1 1 0 011-1zm8.26 0h1.11a1 1 0 011 1v1.1a1 1 0 01-1 1h-1.11a1 1 0 01-1-1v-1.1a1 1 0 011-1zm4.13 0h1.11a1 1 0 011 1v1.1a1 1 0 01-1 1h-1.11a1 1 0 01-1-1v-1.1a1 1 0 011-1zm-24.78 4.13h1.1a1 1 0 011 1v1.1a1 1 0 01-1 1h-1.1a1 1 0 01-1-1v-1.1a1 1 0 011-1zm-4.14 0h1.11a1 1 0 011 1v1.1a1 1 0 01-1 1h-1.11a1 1 0 01-1-1v-1.1a1 1 0 011-1zm8.27 0h1.1a1 1 0 011 1v1.1a1 1 0 01-1 1h-1.1a1 1 0 01-1-1v-1.1a1 1 0 011-1zm8.26 0h1.1a1 1 0 011 1v1.1a1 1 0 01-1 1h-1.1a1 1 0 01-1-1v-1.1a1 1 0 011-1zm-4.13 0h1.1a1 1 0 011 1v1.1a1 1 0 01-1 1h-1.1a1 1 0 01-1-1v-1.1a1 1 0 011-1zm8.23 0h1.1a1 1 0 011 1v1.1a1 1 0 01-1 1H144a1 1 0 01-1-1v-1.1a1 1 0 011-1zm4.16 0h1.11a1 1 0 011 1v1.1a1 1 0 01-1 1h-1.11a1 1 0 01-1-1v-1.1a1 1 0 011-1zm8.26 0h1.11a1 1 0 011 1v1.1a1 1 0 01-1 1h-1.11a1 1 0 01-1-1v-1.1a1 1 0 011-1zm-4.13 0h1.11a1 1 0 011 1v1.1a1 1 0 01-1 1h-1.11a1 1 0 01-1-1v-1.1a1 1 0 011-1zm-28.92 4.13h1.11a1 1 0 011 1v1.1a1 1 0 01-1 1h-1.11a1 1 0 01-1-1v-1.1a1 1 0 011-1zm-4.13 0h1.11a1 1 0 011 1v1.1a1 1 0 01-1 1h-1.11a1 1 0 01-1-1v-1.1a1 1 0 011-1zm8.27 0h1.1a1 1 0 011 1v1.1a1 1 0 01-1 1h-1.1a1 1 0 01-1-1v-1.1a1 1 0 011-1zm8.26 0h1.1a1 1 0 011 1v1.1a1 1 0 01-1 1h-1.1a1 1 0 01-1-1v-1.1a1 1 0 011-1zm-4.13 0h1.1a1 1 0 011 1v1.1a1 1 0 01-1 1h-1.1a1 1 0 01-1-1v-1.1a1 1 0 011-1zm8.26 0h1.1a1 1 0 011 1v1.1a1 1 0 01-1 1h-1.1a1 1 0 01-1-1v-1.1a1 1 0 011-1zm4.1 0h1.1a1 1 0 011 1v1.1a1 1 0 01-1 1H144a1 1 0 01-1-1v-1.1a1 1 0 011-1zm8.29 0h1.11a1 1 0 011 1v1.1a1 1 0 01-1 1h-1.11a1 1 0 01-1-1v-1.1a1 1 0 011-1zm-4.13 0h1.11a1 1 0 011 1v1.1a1 1 0 01-1 1h-1.11a1 1 0 01-1-1v-1.1a1 1 0 011-1zm8.26 0h1.11a1 1 0 011 1v1.1a1 1 0 01-1 1h-1.11a1 1 0 01-1-1v-1.1a1 1 0 011-1zm4.14 0h1.1a1 1 0 011 1v1.1a1 1 0 01-1 1h-1.1a1 1 0 01-1-1v-1.1a1 1 0 011-1zm-41.32 4.14h1.11a1 1 0 011 1v1.1a1 1 0 01-1 1h-1.11a1 1 0 01-1-1v-1.1a1 1 0 011-1zm-4.13 0h1.1a1 1 0 011 1v1.1a1 1 0 01-1 1h-1.1a1 1 0 01-1-1v-1.1a1 1 0 011-1zm8.26 0h1.11a1 1 0 011 1v1.1a1 1 0 01-1 1h-1.11a1 1 0 01-1-1v-1.1a1 1 0 011-1zm8.27 0h1.1a1 1 0 011 1v1.1a1 1 0 01-1 1h-1.1a1 1 0 01-1-1v-1.1a1 1 0 011-1zm-4.13 0h1.1a1 1 0 011 1v1.1a1 1 0 01-1 1h-1.1a1 1 0 01-1-1v-1.1a1 1 0 011-1zm8.26 0h1.1a1 1 0 011 1v1.1a1 1 0 01-1 1h-1.1a1 1 0 01-1-1v-1.1a1 1 0 011-1zm4.13 0h1.1a1 1 0 011 1v1.1a1 1 0 01-1 1h-1.1a1 1 0 01-1-1v-1.1a1 1 0 011-1zm8.26 0h1.11a1 1 0 011 1v1.1a1 1 0 01-1 1h-1.11a1 1 0 01-1-1v-1.1a1 1 0 011-1zm-4.16 0h1.1a1 1 0 011 1v1.1a1 1 0 01-1 1H144a1 1 0 01-1-1v-1.1a1 1 0 011-1zm8.29 0h1.11a1 1 0 011 1v1.1a1 1 0 01-1 1h-1.11a1 1 0 01-1-1v-1.1a1 1 0 011-1zm4.13 0h1.11a1 1 0 011 1v1.1a1 1 0 01-1 1h-1.11a1 1 0 01-1-1v-1.1a1 1 0 011-1zm4.14 0h1.1a1 1 0 011 1v1.1a1 1 0 01-1 1h-1.1a1 1 0 01-1-1v-1.1a1 1 0 011-1zm4.13 0h1.1a1 1 0 011 1v1.1a1 1 0 01-1 1h-1.1a1 1 0 01-1-1v-1.1a1 1 0 011-1zm-45.45 4.13h1.11a1 1 0 011 1v1.1a1 1 0 01-1 1h-1.11a1 1 0 01-1-1v-1.1a1 1 0 011-1zm4.13 0h1.11a1 1 0 011 1v1.1a1 1 0 01-1 1h-1.11a1 1 0 01-1-1v-1.1a1 1 0 011-1zm16.53 0h1.1a1 1 0 011 1v1.1a1 1 0 01-1 1h-1.1a1 1 0 01-1-1v-1.1a1 1 0 011-1zm4.1 0h1.1a1 1 0 011 1v1.1a1 1 0 01-1 1H144a1 1 0 01-1-1v-1.1a1 1 0 011-1zm4.16 0h1.11a1 1 0 011 1v1.1a1 1 0 01-1 1h-1.11a1 1 0 01-1-1v-1.1a1 1 0 011-1zm4.13 0h1.11a1 1 0 011 1v1.1a1 1 0 01-1 1h-1.11a1 1 0 01-1-1v-1.1a1 1 0 011-1zm4.13 0h1.11a1 1 0 011 1v1.1a1 1 0 01-1 1h-1.11a1 1 0 01-1-1v-1.1a1 1 0 011-1zm4.14 0h1.1a1 1 0 011 1v1.1a1 1 0 01-1 1h-1.1a1 1 0 01-1-1v-1.1a1 1 0 011-1zm4.13 0h1.1a1 1 0 011 1v1.1a1 1 0 01-1 1h-1.1a1 1 0 01-1-1v-1.1a1 1 0 011-1zM139.9 53h1.1a1 1 0 011 1v1.11a1 1 0 01-1 1h-1.1a1 1 0 01-1-1v-1.17a1 1 0 011-1zm4.1 0h1.1a1 1 0 011 1v1.11a1 1 0 01-1 1H144a1 1 0 01-1-1v-1.17a1 1 0 011-1zm4.16 0h1.11a1 1 0 011 1v1.11a1 1 0 01-1 1h-1.11a1 1 0 01-1-1v-1.17a1 1 0 011-1zm4.13 0h1.11a1 1 0 011 1v1.11a1 1 0 01-1 1h-1.11a1 1 0 01-1-1v-1.17a1 1 0 011-1zm4.13 0h1.11a1 1 0 011 1v1.11a1 1 0 01-1 1h-1.11a1 1 0 01-1-1v-1.17a1 1 0 011-1zm4.14 0h1.1a1 1 0 011 1v1.11a1 1 0 01-1 1h-1.1a1 1 0 01-1-1v-1.17a1 1 0 011-1zm4.13 0h1.1a1 1 0 011 1v1.11a1 1 0 01-1 1h-1.1a1 1 0 01-1-1v-1.17a1 1 0 011-1zm-24.79 4.11h1.1a1 1 0 011 1v1.11a1 1 0 01-1 1h-1.1a1 1 0 01-1-1v-1.15a1 1 0 011-1zm4.1 0h1.1a1 1 0 011 1v1.11a1 1 0 01-1 1H144a1 1 0 01-1-1v-1.15a1 1 0 011-1zm4.16 0h1.11a1 1 0 011 1v1.11a1 1 0 01-1 1h-1.11a1 1 0 01-1-1v-1.15a1 1 0 011-1zm4.13 0h1.11a1 1 0 011 1v1.11a1 1 0 01-1 1h-1.11a1 1 0 01-1-1v-1.15a1 1 0 011-1zm4.13 0h1.11a1 1 0 011 1v1.11a1 1 0 01-1 1h-1.11a1 1 0 01-1-1v-1.15a1 1 0 011-1zm4.14 0h1.1a1 1 0 011 1v1.11a1 1 0 01-1 1h-1.1a1 1 0 01-1-1v-1.15a1 1 0 011-1zm4.13 0h1.1a1 1 0 011 1v1.11a1 1 0 01-1 1h-1.1a1 1 0 01-1-1v-1.15a1 1 0 011-1zM173 69.5h1.1a1 1 0 011 1v1.1a1 1 0 01-1 1H173a1 1 0 01-1-1v-1.1a1 1 0 011-1zm-33.1-8.26h1.1a1 1 0 011 1v1.11a1 1 0 01-1 1h-1.1a1 1 0 01-1-1V62.2a1 1 0 011-1zm4.1 0h1.1a1 1 0 011 1v1.11a1 1 0 01-1 1H144a1 1 0 01-1-1V62.2a1 1 0 011-1zm4.16 0h1.11a1 1 0 011 1v1.11a1 1 0 01-1 1h-1.11a1 1 0 01-1-1V62.2a1 1 0 011-1zm4.13 0h1.11a1 1 0 011 1v1.11a1 1 0 01-1 1h-1.11a1 1 0 01-1-1V62.2a1 1 0 011-1zm4.13 0h1.11a1 1 0 011 1v1.11a1 1 0 01-1 1h-1.11a1 1 0 01-1-1V62.2a1 1 0 011-1zm4.14 0h1.1a1 1 0 011 1v1.11a1 1 0 01-1 1h-1.1a1 1 0 01-1-1V62.2a1 1 0 011-1zm-28.92-37.18h1.1a1 1 0 011 1v1.11a1 1 0 01-1 1h-1.1a1 1 0 01-1-1V25a1 1 0 011-1zm4.13 0h1.1a1 1 0 011 1v1.11a1 1 0 01-1 1h-1.1a1 1 0 01-1-1V25a1 1 0 011-1zm28.92 37.18h1.1a1 1 0 011 1v1.11a1 1 0 01-1 1h-1.1a1 1 0 01-1-1V62.2a1 1 0 011-1zm4.13 0h1.1a1 1 0 011 1v1.11a1 1 0 01-1 1h-1.1a1 1 0 01-1-1V62.2a1 1 0 011-1zm-28.92 4.13h1.1a1 1 0 011 1v1.1a1 1 0 01-1 1h-1.1a1 1 0 01-1-1v-1.1a1 1 0 011-1zm4.1 0h1.1a1 1 0 011 1v1.1a1 1 0 01-1 1H144a1 1 0 01-1-1v-1.1a1 1 0 011-1zm4.16 0h1.11a1 1 0 011 1v1.1a1 1 0 01-1 1h-1.11a1 1 0 01-1-1v-1.1a1 1 0 011-1zm4.13 0h1.11a1 1 0 011 1v1.1a1 1 0 01-1 1h-1.11a1 1 0 01-1-1v-1.1a1 1 0 011-1zm4.13 0h1.11a1 1 0 011 1v1.1a1 1 0 01-1 1h-1.11a1 1 0 01-1-1v-1.1a1 1 0 011-1zm4.14 0h1.1a1 1 0 011 1v1.1a1 1 0 01-1 1h-1.1a1 1 0 01-1-1v-1.1a1 1 0 011-1zm4.13 0h1.1a1 1 0 011 1v1.1a1 1 0 01-1 1h-1.1a1 1 0 01-1-1v-1.1a1 1 0 011-1zm4.13 0h1.1a1 1 0 011 1v1.1a1 1 0 01-1 1h-1.1a1 1 0 01-1-1v-1.1a1 1 0 011-1zm-33.05 4.13h1.1a1 1 0 011 1v1.1a1 1 0 01-1 1h-1.1a1 1 0 01-1-1v-1.1a1 1 0 011-1zm4.13 0h1.1a1 1 0 011 1v1.1a1 1 0 01-1 1h-1.1a1 1 0 01-1-1v-1.1a1 1 0 011-1zm4.1 0h1.1a1 1 0 011 1v1.1a1 1 0 01-1 1H144a1 1 0 01-1-1v-1.1a1 1 0 011-1zm4.16 0h1.11a1 1 0 011 1v1.1a1 1 0 01-1 1h-1.11a1 1 0 01-1-1v-1.1a1 1 0 011-1zm4.13 0h1.11a1 1 0 011 1v1.1a1 1 0 01-1 1h-1.11a1 1 0 01-1-1v-1.1a1 1 0 011-1zm4.13 0h1.11a1 1 0 011 1v1.1a1 1 0 01-1 1h-1.11a1 1 0 01-1-1v-1.1a1 1 0 011-1zm4.14 0h1.1a1 1 0 011 1v1.1a1 1 0 01-1 1h-1.1a1 1 0 01-1-1v-1.1a1 1 0 011-1zm4.13 0h1.1a1 1 0 011 1v1.1a1 1 0 01-1 1h-1.1a1 1 0 01-1-1v-1.1a1 1 0 011-1zm4.13 0h1.1a1 1 0 011 1v1.1a1 1 0 01-1 1h-1.1a1 1 0 01-1-1v-1.1a1 1 0 011-1zm-33.05 4.14h1.1a1 1 0 011 1v1.1a1 1 0 01-1 1h-1.1a1 1 0 01-1-1V74.6a1 1 0 011-1zm4.13 0h1.1a1 1 0 011 1v1.1a1 1 0 01-1 1h-1.1a1 1 0 01-1-1V74.6a1 1 0 011-1zm4.1 0h1.1a1 1 0 011 1v1.1a1 1 0 01-1 1H144a1 1 0 01-1-1V74.6a1 1 0 011-1zm4.16 0h1.11a1 1 0 011 1v1.1a1 1 0 01-1 1h-1.11a1 1 0 01-1-1V74.6a1 1 0 011-1zm4.13 0h1.11a1 1 0 011 1v1.1a1 1 0 01-1 1h-1.11a1 1 0 01-1-1V74.6a1 1 0 011-1zm4.13 0h1.11a1 1 0 011 1v1.1a1 1 0 01-1 1h-1.11a1 1 0 01-1-1V74.6a1 1 0 011-1zm4.14 0h1.1a1 1 0 011 1v1.1a1 1 0 01-1 1h-1.1a1 1 0 01-1-1V74.6a1 1 0 011-1zm4.13 0h1.1a1 1 0 011 1v1.1a1 1 0 01-1 1h-1.1a1 1 0 01-1-1V74.6a1 1 0 011-1zm4.13 0h1.1a1 1 0 011 1v1.1a1 1 0 01-1 1h-1.1a1 1 0 01-1-1V74.6a1 1 0 011-1zm16.52 0h1.11a1 1 0 011 1v1.1a1 1 0 01-1 1h-1.11a1 1 0 01-1-1V74.6a1 1 0 011-1zm-12.34 0h1.1a1 1 0 011 1v1.1a1 1 0 01-1 1H173a1 1 0 01-1-1V74.6a1 1 0 011-1zm4.08 0h1.1a1 1 0 011 1v1.1a1 1 0 01-1 1h-1.1a1 1 0 01-1-1V74.6a1 1 0 011-1zm4.13 0h1.11a1 1 0 011 1v1.1a1 1 0 01-1 1h-1.11a1 1 0 01-1-1V74.6a1 1 0 011-1zm-45.44 4.13h1.1a1 1 0 011 1v1.1a1 1 0 01-1 1h-1.1a1 1 0 01-1-1v-1.1a1 1 0 011-1zm4.13 0h1.1a1 1 0 011 1v1.1a1 1 0 01-1 1h-1.1a1 1 0 01-1-1v-1.1a1 1 0 011-1zm4.1 0h1.1a1 1 0 011 1v1.1a1 1 0 01-1 1H144a1 1 0 01-1-1v-1.1a1 1 0 011-1zm4.16 0h1.11a1 1 0 011 1v1.1a1 1 0 01-1 1h-1.11a1 1 0 01-1-1v-1.1a1 1 0 011-1zm4.13 0h1.11a1 1 0 011 1v1.1a1 1 0 01-1 1h-1.11a1 1 0 01-1-1v-1.1a1 1 0 011-1zm4.13 0h1.11a1 1 0 011 1v1.1a1 1 0 01-1 1h-1.11a1 1 0 01-1-1v-1.1a1 1 0 011-1zm4.14 0h1.1a1 1 0 011 1v1.1a1 1 0 01-1 1h-1.1a1 1 0 01-1-1v-1.1a1 1 0 011-1zm4.13 0h1.1a1 1 0 011 1v1.1a1 1 0 01-1 1h-1.1a1 1 0 01-1-1v-1.1a1 1 0 011-1zm4.13 0h1.1a1 1 0 011 1v1.1a1 1 0 01-1 1h-1.1a1 1 0 01-1-1v-1.1a1 1 0 011-1zm16.52 0h1.11a1 1 0 011 1v1.1a1 1 0 01-1 1h-1.11a1 1 0 01-1-1v-1.1a1 1 0 011-1zm-12.34 0h1.1a1 1 0 011 1v1.1a1 1 0 01-1 1H173a1 1 0 01-1-1v-1.1a1 1 0 011-1zm4.08 0h1.1a1 1 0 011 1v1.1a1 1 0 01-1 1h-1.1a1 1 0 01-1-1v-1.1a1 1 0 011-1zm4.13 0h1.11a1 1 0 011 1v1.1a1 1 0 01-1 1h-1.11a1 1 0 01-1-1v-1.1a1 1 0 011-1zm8.27 0h1.1a1 1 0 011 1v1.1a1 1 0 01-1 1h-1.1a1 1 0 01-1-1v-1.1a1 1 0 011-1zm4.13 0h1.1a1 1 0 011 1v1.1a1 1 0 01-1 1h-1.1a1 1 0 01-1-1v-1.1a1 1 0 011-1zm4.13 0h1.1a1 1 0 011 1v1.1a1 1 0 01-1 1h-1.1a1 1 0 01-1-1v-1.1a1 1 0 011-1zm-74.37 4.13h1.11a1 1 0 011 1V84a1 1 0 01-1 1h-1.11a1 1 0 01-1-1v-1.1a1 1 0 011-1zm4.14 0h1.1a1 1 0 011 1V84a1 1 0 01-1 1h-1.1a1 1 0 01-1-1v-1.1a1 1 0 011-1zm4.13 0h1.1a1 1 0 011 1V84a1 1 0 01-1 1h-1.1a1 1 0 01-1-1v-1.1a1 1 0 011-1zm4.13 0h1.1a1 1 0 011 1V84a1 1 0 01-1 1h-1.1a1 1 0 01-1-1v-1.1a1 1 0 011-1zm4.13 0h1.1a1 1 0 011 1V84a1 1 0 01-1 1h-1.1a1 1 0 01-1-1v-1.1a1 1 0 011-1zm4.1 0h1.1a1 1 0 011 1V84a1 1 0 01-1 1H144a1 1 0 01-1-1v-1.1a1 1 0 011-1zm4.16 0h1.11a1 1 0 011 1V84a1 1 0 01-1 1h-1.11a1 1 0 01-1-1v-1.1a1 1 0 011-1zm4.13 0h1.11a1 1 0 011 1V84a1 1 0 01-1 1h-1.11a1 1 0 01-1-1v-1.1a1 1 0 011-1zm4.13 0h1.11a1 1 0 011 1V84a1 1 0 01-1 1h-1.11a1 1 0 01-1-1v-1.1a1 1 0 011-1zm16.58 0h1.1a1 1 0 011 1V84a1 1 0 01-1 1H173a1 1 0 01-1-1v-1.1a1 1 0 011-1zm-12.44 0h1.1a1 1 0 011 1V84a1 1 0 01-1 1h-1.1a1 1 0 01-1-1v-1.1a1 1 0 011-1zm4.13 0h1.1a1 1 0 011 1V84a1 1 0 01-1 1h-1.1a1 1 0 01-1-1v-1.1a1 1 0 011-1zm4.13 0h1.1a1 1 0 011 1V84a1 1 0 01-1 1h-1.1a1 1 0 01-1-1v-1.1a1 1 0 011-1zm8.26 0h1.1a1 1 0 011 1V84a1 1 0 01-1 1h-1.1a1 1 0 01-1-1v-1.1a1 1 0 011-1zm4.13 0h1.11a1 1 0 011 1V84a1 1 0 01-1 1h-1.11a1 1 0 01-1-1v-1.1a1 1 0 011-1zm4.13 0h1.11a1 1 0 011 1V84a1 1 0 01-1 1h-1.11a1 1 0 01-1-1v-1.1a1 1 0 011-1zm12.4 0h1.1a1 1 0 011 1V84a1 1 0 01-1 1h-1.1a1 1 0 01-1-1v-1.1a1 1 0 011-1zm-8.26 0h1.1a1 1 0 011 1V84a1 1 0 01-1 1h-1.1a1 1 0 01-1-1v-1.1a1 1 0 011-1zm4.13 0h1.1a1 1 0 011 1V84a1 1 0 01-1 1h-1.1a1 1 0 01-1-1v-1.1a1 1 0 011-1zm8.26 0H203a1 1 0 011 1V84a1 1 0 01-1 1h-1.1a1 1 0 01-1-1v-1.1a1 1 0 011-1zm4.13 0h1.1a1 1 0 011 1V84a1 1 0 01-1 1H206a1 1 0 01-1-1v-1.1a1 1 0 011-1zM123.37 86h1.11a1 1 0 011 1v1.1a1 1 0 01-1 1h-1.11a1 1 0 01-1-1V87a1 1 0 011-1zm4.14 12.42h1.1a1 1 0 011 1v1.1a1 1 0 01-1 1h-1.1a1 1 0 01-1-1v-1.1a1 1 0 011-1zm4.13 0h1.1a1 1 0 011 1v1.1a1 1 0 01-1 1h-1.1a1 1 0 01-1-1v-1.1a1 1 0 011-1zm4.13 8.27h1.1a1 1 0 011 1v1.1a1 1 0 01-1 1h-1.1a1 1 0 01-1-1v-1.1a1 1 0 011-1zm4.13 0h1.1a1 1 0 011 1v1.1a1 1 0 01-1 1h-1.1a1 1 0 01-1-1v-1.1a1 1 0 011-1z" transform="translate(-.18 -.41)"/><path class="cls-4" d="M119.24 90.16h1.11a1 1 0 011 1v1.11a1 1 0 01-1 1h-1.11a1 1 0 01-1-1v-1.15a1 1 0 011-1zm4.13 0h1.11a1 1 0 011 1v1.11a1 1 0 01-1 1h-1.11a1 1 0 01-1-1v-1.15a1 1 0 011-1zm0 4.13h1.11a1 1 0 011 1v1.1a1 1 0 01-1 1h-1.11a1 1 0 01-1-1v-1.1a1 1 0 011-1zm4.14 0h1.1a1 1 0 011 1v1.1a1 1 0 01-1 1h-1.1a1 1 0 01-1-1v-1.1a1 1 0 011-1zm4.13 0h1.1a1 1 0 011 1v1.1a1 1 0 01-1 1h-1.1a1 1 0 01-1-1v-1.1a1 1 0 011-1zm-4.13 8.27h1.1a1 1 0 011 1v1.1a1 1 0 01-1 1h-1.1a1 1 0 01-1-1v-1.1a1 1 0 011-1zm4.13 0h1.1a1 1 0 011 1v1.1a1 1 0 01-1 1h-1.1a1 1 0 01-1-1v-1.1a1 1 0 011-1zm4.13 0h1.1a1 1 0 011 1v1.1a1 1 0 01-1 1h-1.1a1 1 0 01-1-1v-1.1a1 1 0 011-1zm-4.13-12.4h1.1a1 1 0 011 1v1.11a1 1 0 01-1 1h-1.1a1 1 0 01-1-1v-1.15a1 1 0 011-1zm4.13 0h1.1a1 1 0 011 1v1.11a1 1 0 01-1 1h-1.1a1 1 0 01-1-1v-1.15a1 1 0 011-1zm4.13 0h1.1a1 1 0 011 1v1.11a1 1 0 01-1 1h-1.1a1 1 0 01-1-1v-1.15a1 1 0 011-1zM131.64 86h1.1a1 1 0 011 1v1.1a1 1 0 01-1 1h-1.1a1 1 0 01-1-1V87a1 1 0 011-1zm4.13 0h1.1a1 1 0 011 1v1.1a1 1 0 01-1 1h-1.1a1 1 0 01-1-1V87a1 1 0 011-1zm4.13 0h1.1a1 1 0 011 1v1.1a1 1 0 01-1 1h-1.1a1 1 0 01-1-1V87a1 1 0 011-1zm4.1 0h1.1a1 1 0 011 1v1.1a1 1 0 01-1 1H144a1 1 0 01-1-1V87a1 1 0 011-1zm4.16 0h1.11a1 1 0 011 1v1.1a1 1 0 01-1 1h-1.11a1 1 0 01-1-1V87a1 1 0 011-1zm4.13 0h1.11a1 1 0 011 1v1.1a1 1 0 01-1 1h-1.11a1 1 0 01-1-1V87a1 1 0 011-1zm4.13 0h1.11a1 1 0 011 1v1.1a1 1 0 01-1 1h-1.11a1 1 0 01-1-1V87a1 1 0 011-1zm4.14 0h1.1a1 1 0 011 1v1.1a1 1 0 01-1 1h-1.1a1 1 0 01-1-1V87a1 1 0 011-1zm4.13 0h1.1a1 1 0 011 1v1.1a1 1 0 01-1 1h-1.1a1 1 0 01-1-1V87a1 1 0 011-1zm16.52 0h1.11a1 1 0 011 1v1.1a1 1 0 01-1 1h-1.11a1 1 0 01-1-1V87a1 1 0 011-1zm-12.39 0h1.1a1 1 0 011 1v1.1a1 1 0 01-1 1h-1.1a1 1 0 01-1-1V87a1 1 0 011-1zm4.18 0h1.1a1 1 0 011 1v1.1a1 1 0 01-1 1H173a1 1 0 01-1-1V87a1 1 0 011-1zm4.08 0h1.1a1 1 0 011 1v1.1a1 1 0 01-1 1h-1.1a1 1 0 01-1-1V87a1 1 0 011-1zm8.26 0h1.11a1 1 0 011 1v1.1a1 1 0 01-1 1h-1.11a1 1 0 01-1-1V87a1 1 0 011-1zm4.14 0h1.1a1 1 0 011 1v1.1a1 1 0 01-1 1h-1.1a1 1 0 01-1-1V87a1 1 0 011-1zm4.13 0h1.1a1 1 0 011 1v1.1a1 1 0 01-1 1h-1.1a1 1 0 01-1-1V87a1 1 0 011-1zM206 86h1.1a1 1 0 011 1v1.1a1 1 0 01-1 1H206a1 1 0 01-1-1V87a1 1 0 011-1zm-8.26 0h1.1a1 1 0 011 1v1.1a1 1 0 01-1 1h-1.1a1 1 0 01-1-1V87a1 1 0 011-1zm4.13 0H203a1 1 0 011 1v1.1a1 1 0 01-1 1h-1.1a1 1 0 01-1-1V87a1 1 0 011-1zm8.26 0h1.11a1 1 0 011 1v1.1a1 1 0 01-1 1h-1.11a1 1 0 01-1-1V87a1 1 0 011-1zm4.13 0h1.11a1 1 0 011 1v1.1a1 1 0 01-1 1h-1.11a1 1 0 01-1-1V87a1 1 0 011-1zm4.14 0h1.1a1 1 0 011 1v1.1a1 1 0 01-1 1h-1.1a1 1 0 01-1-1V87a1 1 0 011-1zm-70.24 4.16h1.11a1 1 0 011 1v1.11a1 1 0 01-1 1h-1.11a1 1 0 01-1-1v-1.15a1 1 0 011-1zm4.13 0h1.11a1 1 0 011 1v1.11a1 1 0 01-1 1h-1.11a1 1 0 01-1-1v-1.15a1 1 0 011-1zm4.13 0h1.11a1 1 0 011 1v1.11a1 1 0 01-1 1h-1.11a1 1 0 01-1-1v-1.15a1 1 0 011-1zm4.14 0h1.1a1 1 0 011 1v1.11a1 1 0 01-1 1h-1.1a1 1 0 01-1-1v-1.15a1 1 0 011-1zm4.13 0h1.1a1 1 0 011 1v1.11a1 1 0 01-1 1h-1.1a1 1 0 01-1-1v-1.15a1 1 0 011-1zm4.13 0h1.1a1 1 0 011 1v1.11a1 1 0 01-1 1h-1.1a1 1 0 01-1-1v-1.15a1 1 0 011-1zm4.18 0h1.1a1 1 0 011 1v1.11a1 1 0 01-1 1H173a1 1 0 01-1-1v-1.15a1 1 0 011-1zm4.08 0h1.1a1 1 0 011 1v1.11a1 1 0 01-1 1h-1.1a1 1 0 01-1-1v-1.15a1 1 0 011-1zm4.13 0h1.11a1 1 0 011 1v1.11a1 1 0 01-1 1h-1.11a1 1 0 01-1-1v-1.15a1 1 0 011-1zm16.53 0h1.1a1 1 0 011 1v1.11a1 1 0 01-1 1h-1.1a1 1 0 01-1-1v-1.15a1 1 0 011-1zm-12.4 0h1.11a1 1 0 011 1v1.11a1 1 0 01-1 1h-1.11a1 1 0 01-1-1v-1.15a1 1 0 011-1zm4.14 0h1.1a1 1 0 011 1v1.11a1 1 0 01-1 1h-1.1a1 1 0 01-1-1v-1.15a1 1 0 011-1zm4.13 0h1.1a1 1 0 011 1v1.11a1 1 0 01-1 1h-1.1a1 1 0 01-1-1v-1.15a1 1 0 011-1zm8.26 0H203a1 1 0 011 1v1.11a1 1 0 01-1 1h-1.1a1 1 0 01-1-1v-1.15a1 1 0 011-1zm4.13 0h1.1a1 1 0 011 1v1.11a1 1 0 01-1 1H206a1 1 0 01-1-1v-1.15a1 1 0 011-1zm4.13 0h1.11a1 1 0 011 1v1.11a1 1 0 01-1 1h-1.11a1 1 0 01-1-1v-1.15a1 1 0 011-1zm-49.57 4.13h1.1a1 1 0 011 1v1.1a1 1 0 01-1 1h-1.1a1 1 0 01-1-1v-1.1a1 1 0 011-1zm4.13 0h1.1a1 1 0 011 1v1.1a1 1 0 01-1 1h-1.1a1 1 0 01-1-1v-1.1a1 1 0 011-1zm4.13 0h1.1a1 1 0 011 1v1.1a1 1 0 01-1 1h-1.1a1 1 0 01-1-1v-1.1a1 1 0 011-1zm4.18 0h1.1a1 1 0 011 1v1.1a1 1 0 01-1 1H173a1 1 0 01-1-1v-1.1a1 1 0 011-1zm4.08 0h1.1a1 1 0 011 1v1.1a1 1 0 01-1 1h-1.1a1 1 0 01-1-1v-1.1a1 1 0 011-1zm4.13 0h1.11a1 1 0 011 1v1.1a1 1 0 01-1 1h-1.11a1 1 0 01-1-1v-1.1a1 1 0 011-1zm4.13 0h1.11a1 1 0 011 1v1.1a1 1 0 01-1 1h-1.11a1 1 0 01-1-1v-1.1a1 1 0 011-1zm4.14 0h1.1a1 1 0 011 1v1.1a1 1 0 01-1 1h-1.1a1 1 0 01-1-1v-1.1a1 1 0 011-1zm4.13 0h1.1a1 1 0 011 1v1.1a1 1 0 01-1 1h-1.1a1 1 0 01-1-1v-1.1a1 1 0 011-1zm16.52 0h1.11a1 1 0 011 1v1.1a1 1 0 01-1 1h-1.11a1 1 0 01-1-1v-1.1a1 1 0 011-1zm-12.39 0h1.1a1 1 0 011 1v1.1a1 1 0 01-1 1h-1.1a1 1 0 01-1-1v-1.1a1 1 0 011-1zm4.13 0H203a1 1 0 011 1v1.1a1 1 0 01-1 1h-1.1a1 1 0 01-1-1v-1.1a1 1 0 011-1zm4.13 0h1.1a1 1 0 011 1v1.1a1 1 0 01-1 1H206a1 1 0 01-1-1v-1.1a1 1 0 011-1zm12.4 0h1.1a1 1 0 011 1v1.1a1 1 0 01-1 1h-1.1a1 1 0 01-1-1v-1.1a1 1 0 011-1zm4.13 0h1.1a1 1 0 011 1v1.1a1 1 0 01-1 1h-1.1a1 1 0 01-1-1v-1.1a1 1 0 011-1zm-45.45 4.13h1.1a1 1 0 011 1v1.1a1 1 0 01-1 1h-1.1a1 1 0 01-1-1v-1.1a1 1 0 011-1zm4.13 0h1.11a1 1 0 011 1v1.1a1 1 0 01-1 1h-1.11a1 1 0 01-1-1v-1.1a1 1 0 011-1zm4.13 0h1.11a1 1 0 011 1v1.1a1 1 0 01-1 1h-1.11a1 1 0 01-1-1v-1.1a1 1 0 011-1zm4.14 0h1.1a1 1 0 011 1v1.1a1 1 0 01-1 1h-1.1a1 1 0 01-1-1v-1.1a1 1 0 011-1zm4.13 0h1.1a1 1 0 011 1v1.1a1 1 0 01-1 1h-1.1a1 1 0 01-1-1v-1.1a1 1 0 011-1zm4.13 0h1.1a1 1 0 011 1v1.1a1 1 0 01-1 1h-1.1a1 1 0 01-1-1v-1.1a1 1 0 011-1zm4.13 0H203a1 1 0 011 1v1.1a1 1 0 01-1 1h-1.1a1 1 0 01-1-1v-1.1a1 1 0 011-1zm4.13 0h1.1a1 1 0 011 1v1.1a1 1 0 01-1 1H206a1 1 0 01-1-1v-1.1a1 1 0 011-1zm4.13 0h1.11a1 1 0 011 1v1.1a1 1 0 01-1 1h-1.11a1 1 0 01-1-1v-1.1a1 1 0 011-1zm16.53 0h1.1a1 1 0 011 1v1.1a1 1 0 01-1 1h-1.1a1 1 0 01-1-1v-1.1a1 1 0 011-1zm-8.26 0h1.1a1 1 0 011 1v1.1a1 1 0 01-1 1h-1.1a1 1 0 01-1-1v-1.1a1 1 0 011-1zm4.13 0h1.1a1 1 0 011 1v1.1a1 1 0 01-1 1h-1.1a1 1 0 01-1-1v-1.1a1 1 0 011-1zm-4.13 4.14h1.1a1 1 0 011 1v1.1a1 1 0 01-1 1h-1.1a1 1 0 01-1-1v-1.1a1 1 0 011-1zm0-12.4h1.1a1 1 0 011 1v1.11a1 1 0 01-1 1h-1.1a1 1 0 01-1-1v-1.15a1 1 0 011-1zm4.13 0h1.1a1 1 0 011 1v1.11a1 1 0 01-1 1h-1.1a1 1 0 01-1-1v-1.15a1 1 0 011-1zm-37.19 12.4h1.11a1 1 0 011 1v1.1a1 1 0 01-1 1h-1.11a1 1 0 01-1-1v-1.1a1 1 0 011-1zm4.14 0h1.1a1 1 0 011 1v1.1a1 1 0 01-1 1h-1.1a1 1 0 01-1-1v-1.1a1 1 0 011-1zm4.13 0h1.1a1 1 0 011 1v1.1a1 1 0 01-1 1h-1.1a1 1 0 01-1-1v-1.1a1 1 0 011-1zm4.13 0h1.1a1 1 0 011 1v1.1a1 1 0 01-1 1h-1.1a1 1 0 01-1-1v-1.1a1 1 0 011-1zm4.13 0H203a1 1 0 011 1v1.1a1 1 0 01-1 1h-1.1a1 1 0 01-1-1v-1.1a1 1 0 011-1zm4.13 0h1.1a1 1 0 011 1v1.1a1 1 0 01-1 1H206a1 1 0 01-1-1v-1.1a1 1 0 011-1zm4.13 0h1.11a1 1 0 011 1v1.1a1 1 0 01-1 1h-1.11a1 1 0 01-1-1v-1.1a1 1 0 011-1zm12.4 4.13h1.1a1 1 0 011 1v1.1a1 1 0 01-1 1h-1.1a1 1 0 01-1-1v-1.1a1 1 0 011-1zm0-4.13h1.1a1 1 0 011 1v1.1a1 1 0 01-1 1h-1.1a1 1 0 01-1-1v-1.1a1 1 0 011-1zm4.13 0h1.1a1 1 0 011 1v1.1a1 1 0 01-1 1h-1.1a1 1 0 01-1-1v-1.1a1 1 0 011-1zm-8.26 4.13h1.1a1 1 0 011 1v1.1a1 1 0 01-1 1h-1.1a1 1 0 01-1-1v-1.1a1 1 0 011-1zm8.26 0h1.1a1 1 0 011 1v1.1a1 1 0 01-1 1h-1.1a1 1 0 01-1-1v-1.1a1 1 0 011-1zm4.13 0h1.1a1 1 0 011 1v1.1a1 1 0 01-1 1h-1.1a1 1 0 01-1-1v-1.1a1 1 0 011-1zm0 12.39h1.1a1 1 0 011 1v1.11a1 1 0 01-1 1h-1.1a1 1 0 01-1-1V120a1 1 0 011-1zm-4.13-8.26h1.1a1 1 0 011 1v1.1a1 1 0 01-1 1h-1.1a1 1 0 01-1-1v-1.1a1 1 0 011-1zm-4.13 0h1.1a1 1 0 011 1v1.1a1 1 0 01-1 1h-1.1a1 1 0 01-1-1v-1.1a1 1 0 011-1zm8.26 0h1.1a1 1 0 011 1v1.1a1 1 0 01-1 1h-1.1a1 1 0 01-1-1v-1.1a1 1 0 011-1zm0 4.18h1.1a1 1 0 011 1v1a1 1 0 01-1 1h-1.1a1 1 0 01-1-1v-1.11a1 1 0 011-1zm-4.13 0h1.1a1 1 0 011 1v1a1 1 0 01-1 1h-1.1a1 1 0 01-1-1v-1.11a1 1 0 011-1zm8.26 0H236a1 1 0 011 1v1a1 1 0 01-1 1h-1.1a1 1 0 01-1-1v-1.11a1 1 0 011-1zm-49.58-8.31h1.11a1 1 0 011 1v1.1a1 1 0 01-1 1h-1.11a1 1 0 01-1-1v-1.1a1 1 0 011-1zm4.14 0h1.1a1 1 0 011 1v1.1a1 1 0 01-1 1h-1.1a1 1 0 01-1-1v-1.1a1 1 0 011-1zm4.13 0h1.1a1 1 0 011 1v1.1a1 1 0 01-1 1h-1.1a1 1 0 01-1-1v-1.1a1 1 0 011-1zm4.13 0h1.1a1 1 0 011 1v1.1a1 1 0 01-1 1h-1.1a1 1 0 01-1-1v-1.1a1 1 0 011-1zm4.13 0H203a1 1 0 011 1v1.1a1 1 0 01-1 1h-1.1a1 1 0 01-1-1v-1.1a1 1 0 011-1zm4.13 0h1.1a1 1 0 011 1v1.1a1 1 0 01-1 1H206a1 1 0 01-1-1v-1.1a1 1 0 011-1zm-16.52 4.13h1.1a1 1 0 011 1v1.1a1 1 0 01-1 1h-1.1a1 1 0 01-1-1v-1.1a1 1 0 011-1zm4.13 0h1.1a1 1 0 011 1v1.1a1 1 0 01-1 1h-1.1a1 1 0 01-1-1v-1.1a1 1 0 011-1zm4.13 0h1.1a1 1 0 011 1v1.1a1 1 0 01-1 1h-1.1a1 1 0 01-1-1v-1.1a1 1 0 011-1zm4.13 0H203a1 1 0 011 1v1.1a1 1 0 01-1 1h-1.1a1 1 0 01-1-1v-1.1a1 1 0 011-1zm4.13 0h1.1a1 1 0 011 1v1.1a1 1 0 01-1 1H206a1 1 0 01-1-1v-1.1a1 1 0 011-1zM193.61 115h1.1a1 1 0 011 1v1a1 1 0 01-1 1h-1.1a1 1 0 01-1-1v-1.11a1 1 0 011-1zm4.13 0h1.1a1 1 0 011 1v1a1 1 0 01-1 1h-1.1a1 1 0 01-1-1v-1.11a1 1 0 011-1zm4.13 0H203a1 1 0 011 1v1a1 1 0 01-1 1h-1.1a1 1 0 01-1-1v-1.11a1 1 0 011-1zm4.13 0h1.1a1 1 0 011 1v1a1 1 0 01-1 1H206a1 1 0 01-1-1v-1.11a1 1 0 011-1zm4.13 0h1.11a1 1 0 011 1v1a1 1 0 01-1 1h-1.11a1 1 0 01-1-1v-1.11a1 1 0 011-1zm-16.52 4.08h1.1a1 1 0 011 1v1.11a1 1 0 01-1 1h-1.1a1 1 0 01-1-1V120a1 1 0 011-1zm4.13 0h1.1a1 1 0 011 1v1.11a1 1 0 01-1 1h-1.1a1 1 0 01-1-1V120a1 1 0 011-1zm12.39 16.53h1.11a1 1 0 011 1v1.1a1 1 0 01-1 1h-1.11a1 1 0 01-1-1v-1.1a1 1 0 011-1zm0-4.14h1.11a1 1 0 011 1v1.1a1 1 0 01-1 1h-1.11a1 1 0 01-1-1v-1.1a1 1 0 011-1zm0-12.39h1.11a1 1 0 011 1v1.11a1 1 0 01-1 1h-1.11a1 1 0 01-1-1V120a1 1 0 011-1zm-16.52 4.13h1.1a1 1 0 011 1v1.1a1 1 0 01-1 1h-1.1a1 1 0 01-1-1v-1.1a1 1 0 011-1zm4.13 0h1.1a1 1 0 011 1v1.1a1 1 0 01-1 1h-1.1a1 1 0 01-1-1v-1.1a1 1 0 011-1zm8.26 20.66h1.1a1 1 0 011 1v1.11a1 1 0 01-1 1H206a1 1 0 01-1-1v-1.11a1 1 0 011-1zm0-4.13h1.1a1 1 0 011 1v1.1a1 1 0 01-1 1H206a1 1 0 01-1-1v-1.1a1 1 0 011-1zm4.13-16.53h1.11a1 1 0 011 1v1.1a1 1 0 01-1 1h-1.11a1 1 0 01-1-1v-1.1a1 1 0 011-1zm-20.65 4.13h1.1a1 1 0 011 1v1.1a1 1 0 01-1 1h-1.1a1 1 0 01-1-1v-1.1a1 1 0 011-1zm4.13 0h1.1a1 1 0 011 1v1.1a1 1 0 01-1 1h-1.1a1 1 0 01-1-1v-1.1a1 1 0 011-1zm12.39-4.13h1.1a1 1 0 011 1v1.1a1 1 0 01-1 1H206a1 1 0 01-1-1v-1.1a1 1 0 011-1zm0-4.13h1.1a1 1 0 011 1v1.11a1 1 0 01-1 1H206a1 1 0 01-1-1V120a1 1 0 011-1zm4.13 8.26h1.11a1 1 0 011 1v1.1a1 1 0 01-1 1h-1.11a1 1 0 01-1-1v-1.1a1 1 0 011-1zm-24.79 4.13h1.11a1 1 0 011 1v1.1a1 1 0 01-1 1h-1.11a1 1 0 01-1-1v-1.1a1 1 0 011-1zm4.14 0h1.1a1 1 0 011 1v1.1a1 1 0 01-1 1h-1.1a1 1 0 01-1-1v-1.1a1 1 0 011-1zm12.39 8.27H203a1 1 0 011 1v1.1a1 1 0 01-1 1h-1.1a1 1 0 01-1-1v-1.1a1 1 0 011-1zm4.13-8.27h1.1a1 1 0 011 1v1.1a1 1 0 01-1 1H206a1 1 0 01-1-1v-1.1a1 1 0 011-1zm0-4.13h1.1a1 1 0 011 1v1.1a1 1 0 01-1 1H206a1 1 0 01-1-1v-1.1a1 1 0 011-1zm0 8.27h1.1a1 1 0 011 1v1.1a1 1 0 01-1 1H206a1 1 0 01-1-1v-1.1a1 1 0 011-1zm-24.79 0h1.11a1 1 0 011 1v1.1a1 1 0 01-1 1h-1.11a1 1 0 01-1-1v-1.1a1 1 0 011-1zm4.13 0h1.11a1 1 0 011 1v1.1a1 1 0 01-1 1h-1.11a1 1 0 01-1-1v-1.1a1 1 0 011-1zm-4.13 4.13h1.11a1 1 0 011 1v1.1a1 1 0 01-1 1h-1.11a1 1 0 01-1-1v-1.1a1 1 0 011-1zm4.13 0h1.11a1 1 0 011 1v1.1a1 1 0 01-1 1h-1.11a1 1 0 01-1-1v-1.1a1 1 0 011-1zm-8.26 4.13h1.1a1 1 0 011 1v1.11a1 1 0 01-1 1h-1.1a1 1 0 01-1-1v-1.11a1 1 0 011-1zm4.13 0h1.11a1 1 0 011 1v1.11a1 1 0 01-1 1h-1.11a1 1 0 01-1-1v-1.11a1 1 0 011-1zm20.66 0H203a1 1 0 011 1v1.11a1 1 0 01-1 1h-1.1a1 1 0 01-1-1v-1.11a1 1 0 011-1zm-33.05-86.76h1.1a1 1 0 011 1v1.11a1 1 0 01-1 1h-1.1a1 1 0 01-1-1v-1.15a1 1 0 011-1zm4.18 8.26h1.1a1 1 0 011 1v1.1a1 1 0 01-1 1H173a1 1 0 01-1-1v-1.1a1 1 0 011-1zm4.08 4.13h1.1a1 1 0 011 1v1.1a1 1 0 01-1 1h-1.1a1 1 0 01-1-1v-1.1a1 1 0 011-1zm-45.44 8.27h1.1a1 1 0 011 1v1.1a1 1 0 01-1 1h-1.1a1 1 0 01-1-1v-1.1a1 1 0 011-1zM119.24 86h1.11a1 1 0 011 1v1.1a1 1 0 01-1 1h-1.11a1 1 0 01-1-1V87a1 1 0 011-1zm8.27-8.23h1.1a1 1 0 011 1v1.1a1 1 0 01-1 1h-1.1a1 1 0 01-1-1v-1.1a1 1 0 011-1zM537.08 103c0 1.45-.83 2.23-2.48 2.37l-3.25-1.15a11 11 0 00-3.34-.63q-5.89 0-8.38 6.21a16 16 0 00-1.24 5.8 18 18 0 002 8.51 8 8 0 006.72 4.44 2.69 2.69 0 01.94.13 10 10 0 002.8-.56c.33-.13.76-.31 1.3-.55l1.22-.54a3.43 3.43 0 011.41-.39c1.39 0 2.09.78 2.09 2.36s-1.12 2.87-3.37 3.63a17.17 17.17 0 01-5.44.76q-9.28 0-13.29-8.27a19.4 19.4 0 01-1.91-8.31 25 25 0 01.88-6.82q1.86-6.9 7.37-9.78a14.9 14.9 0 016.7-1.58 15.67 15.67 0 015.89.94 6.06 6.06 0 013.17 2.21 4.58 4.58 0 01.25 1.22zm12.04 27.4q0 3-2.79 3c-1.82 0-2.72-1-2.72-3V86.79c0-2 .9-2.92 2.72-2.92a2.47 2.47 0 012.79 2.8v43.73z" transform="translate(-.18 -.41)"/><path class="cls-5" d="M585.72 116q0 10.18-7 15a13.33 13.33 0 01-7.85 2.35q-9.15 0-13.08-8.73A20.6 20.6 0 01556 116q0-10.4 7.22-15.16a13.41 13.41 0 017.67-2.24 13.56 13.56 0 017.81 2.43 15.28 15.28 0 015.21 6.38 20.72 20.72 0 011.79 8.59zm-5.57 0a17.63 17.63 0 00-1-6.26q-2.31-6.24-8.2-6.24t-8.23 6.1a17.94 17.94 0 00-1.08 6.4 15.84 15.84 0 002.07 8.39 7.85 7.85 0 007.12 4.07q6.11 0 8.3-6.19a19.23 19.23 0 001.07-6.27z" transform="translate(-.18 -.41)"/><path class="cls-4" d="M619.29 120.2q0 7.83-5.83 11.35a14.68 14.68 0 01-7.72 1.85q-8.61 0-11.7-6.6a15.32 15.32 0 01-1.41-6.6v-18.68c0-1.92.91-2.88 2.72-2.88s2.79 1 2.79 2.87V120q0 8.46 7.73 8.46 7.9 0 7.91-8.46v-18.49c0-1.91.91-2.87 2.73-2.87s2.78 1 2.78 2.88v18.68z" transform="translate(-.18 -.41)"/><path class="cls-5" d="M655.33 130.53a2.53 2.53 0 01-2.85 2.87 2.71 2.71 0 01-2.72-2.75v-1.83h-.12a8 8 0 01-2.92 3.15 10.26 10.26 0 01-5.51 1.43 13.59 13.59 0 01-7.8-2.19 14.42 14.42 0 01-5.21-6.12 21.17 21.17 0 01-1.94-8.91 21.53 21.53 0 011-6.79q2.13-6.65 7.45-9.4a12.45 12.45 0 015.77-1.35 10.83 10.83 0 019.12 4.64h.12V86.66c0-1.86.91-2.79 2.72-2.79s2.85 1 2.85 2.91v43.75zM650.39 116a16.49 16.49 0 00-1.17-6.54q-2.47-6-8.07-6-6 0-8.26 6.51a18.46 18.46 0 00-1 5.87 16.22 16.22 0 002.21 8.78 7.45 7.45 0 006.59 3.8 8.2 8.2 0 005.66-1.83 10 10 0 003.09-4.62 19.57 19.57 0 001-6z" transform="translate(-.18 -.41)"/></g></g></svg>