<svg width="195" height="48" viewBox="0 0 195 48" fill="none" xmlns="http://www.w3.org/2000/svg"><path fill-rule="evenodd" clip-rule="evenodd" d="M66.85 24.929c0 .43-.183.644-.55.644-.279 0-.51-.134-.695-.4l-5.311-7.688v7.444c0 .41-.207.616-.623.616-.406 0-.608-.215-.608-.644v-9.058c0-.445.173-.669.522-.669.274 0 .51.143.709.43l5.297 7.658h.013v-7.39a.7.7 0 0 1 .168-.475.556.556 0 0 1 .442-.193c.425 0 .637.223.637.669v9.057m3.014-8.944a.768.768 0 0 1-.227.55.745.745 0 0 1-1.085.002.768.768 0 0 1-.002-1.104.74.74 0 0 1 .549-.23.732.732 0 0 1 .54.233.77.77 0 0 1 .224.55l.001-.002Zm-.142 8.913c0 .43-.207.645-.623.645a.574.574 0 0 1-.44-.185.656.656 0 0 1-.169-.46v-6.47c0-.448.203-.672.609-.672.415 0 .622.215.622.644V24.9h.001Zm7.8-3.364c0 .41-.232.614-.693.614h-4.702c.02.99.4 1.67 1.148 2.04.355.174.748.262 1.144.256.71 0 1.386-.257 2.026-.772.187-.151.343-.227.467-.227.293 0 .439.175.439.528a.67.67 0 0 1-.184.456c-.26.29-.652.55-1.176.78a4.044 4.044 0 0 1-1.641.334c-1.185 0-2.082-.427-2.694-1.28-.52-.728-.79-1.598-.805-2.609a.439.439 0 0 0 .028-.07c.062-1.45.592-2.541 1.587-3.27.5-.368 1.081-.554 1.743-.56a2.936 2.936 0 0 1 1.732.532c.5.345.89.815 1.168 1.41a4.29 4.29 0 0 1 .411 1.837l.001.001Zm-1.247-.34c-.013-.698-.198-1.26-.553-1.685-.361-.43-.847-.649-1.459-.655-.622-.007-1.126.196-1.513.61-.387.415-.595.99-.623 1.73h4.148Zm8.612 3.706c0 .428-.212.643-.637.643a.59.59 0 0 1-.433-.18.604.604 0 0 1-.176-.435v-.41h-.027a1.79 1.79 0 0 1-.653.705c-.318.206-.728.313-1.23.32a3.03 3.03 0 0 1-1.746-.491 3.23 3.23 0 0 1-1.165-1.372 4.736 4.736 0 0 1-.432-1.994 4.81 4.81 0 0 1 .231-1.52c.318-.994.873-1.696 1.666-2.107a2.761 2.761 0 0 1 1.29-.303c.845 0 1.525.346 2.039 1.04h.027v-3.725c0-.417.203-.625.609-.625.425 0 .637.219.637.654v9.8Zm-1.105-3.246c.013-.501-.076-1-.262-1.466-.37-.89-.97-1.335-1.805-1.335-.897 0-1.512.487-1.846 1.46-.15.423-.23.866-.235 1.314-.007.758.158 1.413.494 1.966.336.554.827.838 1.473.851.507.012.928-.124 1.265-.41A2.23 2.23 0 0 0 83.558 23c.145-.434.22-.888.225-1.345Zm8.979-.12c0 .41-.231.614-.692.614h-4.702c.019.99.4 1.67 1.148 2.04.355.174.747.262 1.143.256.71 0 1.386-.257 2.026-.772.187-.151.343-.227.467-.227.293 0 .44.175.44.528a.674.674 0 0 1-.184.456c-.26.29-.652.55-1.176.78a4.044 4.044 0 0 1-1.642.334c-1.184 0-2.082-.427-2.693-1.28-.52-.728-.79-1.598-.805-2.609a.529.529 0 0 0 .027-.07c.062-1.45.592-2.541 1.587-3.27.5-.368 1.081-.554 1.743-.56a2.943 2.943 0 0 1 1.732.532c.5.345.89.815 1.169 1.41a4.29 4.29 0 0 1 .41 1.837l.002.001Zm-1.246-.34c-.014-.698-.199-1.26-.553-1.685-.362-.43-.848-.649-1.46-.655-.621-.007-1.126.196-1.513.61-.386.415-.595.99-.622 1.73h4.148Zm6.076-2.794c0 .34-.285.584-.857.733-.277.075-.458.136-.543.182-.671.37-1.006 1.002-1.006 1.897v3.686c0 .43-.199.645-.596.645-.424 0-.636-.224-.636-.672v-6.43c0-.43.203-.644.608-.644.416 0 .623.215.623.644v.64h.028a3.44 3.44 0 0 1 .733-.906c.304-.27.618-.411.94-.42a.695.695 0 0 1 .488.18.594.594 0 0 1 .218.465m5.904 4.918a2.096 2.096 0 0 1-.325 1.083c-.207.335-.518.606-.934.815-.426.216-.936.325-1.531.327-.98.005-1.8-.276-2.46-.843-.195-.134-.308-.338-.343-.612a.542.542 0 0 1 .155-.395.506.506 0 0 1 .384-.161c.178 0 .447.13.81.388.175.128.301.21.38.244.304.173.653.268 1.047.281.375.015.747-.071 1.075-.25.311-.167.467-.43.467-.79 0-.337-.192-.621-.578-.854-.243-.146-.607-.317-1.09-.512l-1.068-.456c-.388-.202-.692-.438-.912-.706-.22-.27-.33-.607-.33-1.01 0-.802.393-1.4 1.18-1.798.397-.2.836-.307 1.282-.313.459-.006.914.074 1.342.235.447.164.766.34.955.526.198.196.297.393.297.59a.511.511 0 0 1-.167.38.63.63 0 0 1-.389.18c-.164-.04-.395-.146-.69-.313l-.687-.384a1.292 1.292 0 0 0-.542-.115c-.439-.007-.775.083-1.007.27a.925.925 0 0 0-.37.683c.075.416.39.75.947 1 .23.107.512.216.842.328l.681.257c.569.24.972.507 1.211.801.252.314.374.688.368 1.125m7.419 1.58c0 .43-.194.644-.581.644-.388 0-.58-.195-.58-.584v-.557h-.043c-.538.749-1.193 1.129-1.965 1.14a3.155 3.155 0 0 1-1.726-.477c-1.107-.676-1.661-1.803-1.661-3.379 0-1.67.574-2.835 1.723-3.498.498-.288 1.002-.432 1.509-.432.823 0 1.529.346 2.12 1.04h.043v-.42a.625.625 0 0 1 .162-.442.535.535 0 0 1 .418-.178c.386 0 .581.215.581.644V24.9Zm-1.188-3.244c0-1.17-.324-1.991-.975-2.464a1.773 1.773 0 0 0-1.065-.337h-.028c-.658 0-1.164.269-1.522.806-.345.522-.523 1.187-.532 1.995a3.95 3.95 0 0 0 .224 1.37c.332.947.922 1.421 1.771 1.421.747 0 1.303-.29 1.671-.869.304-.481.456-1.122.456-1.921v-.001Zm.154-5.582a.716.716 0 0 1-.23.536.768.768 0 0 1-.549.22.747.747 0 0 1-.543-.218.723.723 0 0 1-.221-.538.776.776 0 0 1 .216-.56.721.721 0 0 1 .548-.225.751.751 0 0 1 .556.225.76.76 0 0 1 .223.56Zm-2.648 0a.73.73 0 0 1-.218.536.72.72 0 0 1-.532.22.775.775 0 0 1-.723-.464.718.718 0 0 1-.056-.293c0-.225.074-.412.221-.561a.755.755 0 0 1 .558-.223.702.702 0 0 1 .537.229.78.78 0 0 1 .213.555Zm10.409 2.663c0 .323-.184.5-.553.53l-.726-.257a2.462 2.462 0 0 0-.747-.141c-.879 0-1.503.463-1.874 1.39a3.61 3.61 0 0 0-.277 1.3 4.03 4.03 0 0 0 .439 1.906c.293.585.793.916 1.501.996a.6.6 0 0 1 .211.028c.213-.012.424-.055.626-.126l.29-.122.273-.123a.758.758 0 0 1 .315-.087c.311 0 .467.177.467.529 0 .373-.251.645-.753.814-.339.113-.744.17-1.217.17-1.383 0-2.373-.618-2.97-1.852a4.345 4.345 0 0 1-.429-1.863 5.669 5.669 0 0 1 .197-1.527c.277-1.03.826-1.76 1.649-2.19a3.291 3.291 0 0 1 1.497-.355c.495-.008.934.063 1.317.21.364.144.6.309.709.496a.973.973 0 0 1 .055.274Zm7.163 6.162c0 .43-.207.645-.622.645a.574.574 0 0 1-.44-.185.653.653 0 0 1-.17-.46v-4.151c0-.543-.156-.992-.466-1.348-.311-.356-.732-.538-1.262-.546a1.779 1.779 0 0 0-.874.212c-.597.314-.896.865-.896 1.655v4.178c0 .43-.207.644-.622.644a.573.573 0 0 1-.44-.184.656.656 0 0 1-.17-.46v-9.8c0-.435.204-.653.609-.653.415 0 .623.218.623.653l.027 3.67c.223-.323.526-.586.88-.763a2.389 2.389 0 0 1 1.146-.25c1.046 0 1.822.47 2.327 1.409.233.433.353.916.349 1.405v4.328m6.725-1.579a2.078 2.078 0 0 1-.325 1.083c-.207.335-.519.606-.933.815-.427.216-.937.325-1.531.327-.98.005-1.8-.276-2.461-.843-.194-.134-.308-.338-.343-.612a.533.533 0 0 1 .156-.395.503.503 0 0 1 .383-.161c.178 0 .448.13.81.388.175.128.302.21.38.244.304.173.654.268 1.048.281.375.015.747-.071 1.075-.25.311-.167.467-.43.467-.79 0-.337-.193-.621-.578-.854a8.332 8.332 0 0 0-1.09-.512l-1.069-.456c-.387-.202-.691-.438-.911-.706-.221-.27-.331-.607-.331-1.01 0-.802.394-1.4 1.18-1.798a2.94 2.94 0 0 1 1.283-.313 3.7 3.7 0 0 1 1.342.235c.447.164.765.34.954.526.199.196.297.393.297.59a.495.495 0 0 1-.166.38.633.633 0 0 1-.388.18c-.165-.04-.395-.146-.691-.313l-.687-.384a1.292 1.292 0 0 0-.542-.115c-.44-.007-.775.083-1.007.27a.923.923 0 0 0-.371.683c.076.416.392.75.947 1 .232.107.512.216.843.328l.68.257c.57.24.973.507 1.211.801.252.314.375.688.368 1.125m2.562-7.335a.77.77 0 0 1-.227.55.72.72 0 0 1-.538.237.747.747 0 0 1-.547-.235.773.773 0 0 1-.174-.85.768.768 0 0 1 .172-.253.736.736 0 0 1 .549-.23.73.73 0 0 1 .54.233.77.77 0 0 1 .225.55v-.002Zm-.142 8.914c0 .43-.207.645-.623.645a.572.572 0 0 1-.439-.185.65.65 0 0 1-.17-.46v-6.47c0-.448.203-.672.609-.672.415 0 .622.215.622.644V24.9h.001Zm6.724-1.58a2.097 2.097 0 0 1-.325 1.083c-.207.335-.518.606-.933.815-.427.216-.937.325-1.532.327-.979.005-1.8-.276-2.46-.843-.195-.134-.308-.338-.343-.612a.533.533 0 0 1 .156-.395.503.503 0 0 1 .384-.161c.177 0 .447.13.809.388.176.128.302.21.381.244.319.178.679.275 1.047.281.375.015.747-.071 1.076-.25.31-.167.466-.43.466-.79 0-.337-.192-.621-.577-.854a8.332 8.332 0 0 0-1.09-.512l-1.069-.456c-.388-.202-.691-.438-.912-.706-.22-.27-.33-.607-.33-1.01 0-.802.393-1.4 1.179-1.798.397-.2.836-.307 1.282-.313a3.7 3.7 0 0 1 1.343.235c.447.164.765.34.954.526.199.196.297.393.297.59a.495.495 0 0 1-.166.38.633.633 0 0 1-.389.18c-.164-.04-.394-.146-.691-.313l-.687-.384a1.28 1.28 0 0 0-.541-.115c-.44-.007-.775.083-1.007.27a.923.923 0 0 0-.371.683c.076.416.392.75.947 1 .232.107.512.216.843.328l.68.257c.57.24.973.507 1.211.801.252.314.374.688.368 1.125m6.272-4.583c0 .323-.184.5-.553.53l-.726-.257a2.462 2.462 0 0 0-.747-.141c-.879 0-1.503.463-1.874 1.39a3.61 3.61 0 0 0-.277 1.3 4.03 4.03 0 0 0 .439 1.906c.293.585.793.916 1.501.996a.6.6 0 0 1 .211.028c.214-.012.424-.055.626-.126l.29-.122.273-.123a.758.758 0 0 1 .315-.087c.312 0 .467.177.467.529 0 .373-.251.645-.753.814-.339.113-.744.17-1.217.17-1.383 0-2.373-.618-2.97-1.852a4.345 4.345 0 0 1-.429-1.863 5.669 5.669 0 0 1 .197-1.527c.277-1.03.827-1.76 1.649-2.19a3.291 3.291 0 0 1 1.497-.355c.495-.008.934.063 1.317.21.364.144.6.309.709.496a.973.973 0 0 1 .055.274Zm7.163 6.162c0 .43-.207.645-.622.645a.574.574 0 0 1-.44-.185.653.653 0 0 1-.17-.46v-4.151c0-.543-.156-.992-.466-1.348-.311-.356-.732-.538-1.262-.546a1.779 1.779 0 0 0-.874.212c-.597.314-.895.865-.895 1.655v4.178c0 .43-.208.644-.623.644a.574.574 0 0 1-.44-.184.652.652 0 0 1-.17-.46v-9.8c0-.435.204-.653.609-.653.415 0 .623.218.623.653l.027 3.67c.223-.323.526-.586.88-.763a2.389 2.389 0 0 1 1.146-.25c1.046 0 1.822.47 2.326 1.409.234.433.354.916.35 1.405v4.328m7.802-3.363c0 .41-.231.614-.692.614h-4.702c.019.99.401 1.67 1.148 2.04.355.174.747.262 1.144.256.71 0 1.385-.257 2.026-.772.187-.151.343-.227.467-.227.293 0 .439.175.439.528a.671.671 0 0 1-.184.456c-.26.29-.652.55-1.176.78a4.04 4.04 0 0 1-1.641.334c-1.185 0-2.082-.427-2.694-1.28-.52-.728-.789-1.598-.805-2.609a.568.568 0 0 0 .028-.07c.062-1.45.591-2.541 1.587-3.27.5-.368 1.081-.554 1.743-.56a2.938 2.938 0 0 1 1.732.532c.5.345.889.815 1.168 1.41.272.576.412 1.203.411 1.837l.001.001Zm-1.246-.34c-.014-.698-.198-1.26-.553-1.685-.361-.43-.848-.649-1.459-.655-.622-.007-1.127.196-1.513.61-.387.415-.595.99-.623 1.73h4.148Zm-79.18 15.429c0 1.111-.509 1.954-1.526 2.529-.502.284-1.09.425-1.762.425h-2.572c-.466 0-.7-.226-.7-.678v-8.916c0-.45.22-.675.657-.675h2.337c1.057 0 1.847.401 2.374 1.206.25.385.379.789.389 1.214.007.279-.04.579-.14.9-.217.705-.653 1.164-1.308 1.375v.028c1.097.215 1.789.752 2.077 1.61.11.316.17.647.174.981Zm-2.09-4.605c0-.467-.141-.85-.423-1.15-.29-.31-.67-.465-1.138-.465h-1.638v3.24h1.49c.719 0 1.223-.278 1.513-.833.13-.245.196-.516.196-.791Zm.805 4.578a1.89 1.89 0 0 0-.24-.942c-.351-.649-.987-.974-1.909-.974h-1.855v3.803h1.723c.983 0 1.655-.311 2.016-.934.17-.29.262-.618.265-.953Zm4.27-6.584a.762.762 0 0 1-.233.555.742.742 0 0 1-.556.24.78.78 0 0 1-.564-.238.764.764 0 0 1-.001-1.114.77.77 0 0 1 .566-.234.756.756 0 0 1 .557.235.768.768 0 0 1 .232.556Zm-.145 9c0 .434-.215.65-.643.65a.598.598 0 0 1-.454-.185.653.653 0 0 1-.174-.465V32.48c0-.453.21-.68.628-.68.428 0 .643.217.643.652v6.56Zm3.214-.028c0 .453-.214.679-.643.679-.418 0-.628-.227-.628-.68v-9.863c0-.441.21-.662.628-.662.429 0 .643.211.643.634v9.892Zm8.314.03c0 .432-.22.649-.658.649a.613.613 0 0 1-.446-.18.603.603 0 0 1-.182-.442v-.414h-.029c-.138.276-.362.514-.674.713-.328.208-.751.316-1.27.323a3.174 3.174 0 0 1-1.8-.496 3.283 3.283 0 0 1-1.202-1.384c-.29-.6-.439-1.273-.446-2.014a4.752 4.752 0 0 1 .239-1.536c.328-1.002.9-1.71 1.72-2.127a2.909 2.909 0 0 1 1.329-.306c.872 0 1.574.35 2.104 1.05h.029v-3.76c0-.422.21-.632.628-.632.438 0 .658.22.658.66v9.895Zm-1.14-3.278a3.646 3.646 0 0 0-.272-1.48c-.38-.899-1.001-1.347-1.862-1.347-.925 0-1.56.49-1.905 1.473a4.094 4.094 0 0 0-.242 1.326c-.008.765.163 1.427.51 1.986.347.56.853.846 1.52.86.523.012.958-.126 1.305-.414.333-.274.571-.623.713-1.046.15-.438.228-.896.232-1.358Zm9.311.941c0 1.181-.449 2.037-1.346 2.568-.468.279-1.062.419-1.78.419-1.325 0-2.225-.498-2.701-1.493a3.42 3.42 0 0 1-.325-1.493v-4.226c0-.434.21-.65.628-.65.428 0 .643.216.643.65v4.19c0 1.276.594 1.914 1.783 1.914 1.217 0 1.826-.638 1.826-1.913v-4.191c0-.434.21-.65.628-.65.428 0 .643.216.643.65v4.226m8.096 2.336c0 .414-.214.62-.643.62-.418 0-.628-.206-.628-.62v-4.26c0-.53-.164-.967-.492-1.31-.335-.348-.77-.522-1.305-.522-.699 0-1.218.282-1.556.846-.171.284-.257.622-.257 1.014v4.229c0 .453-.204.68-.614.68a.626.626 0 0 1-.471-.198.68.68 0 0 1-.187-.482V32.48c0-.453.21-.68.63-.68.428 0 .642.23.642.689v.306l.028.029c.518-.682 1.225-1.022 2.119-1.022 1.07 0 1.855.436 2.355 1.31.252.441.378.981.378 1.62v4.284m8.316.028c0 1.474-.528 2.532-1.584 3.174-.53.319-1.15.481-1.862.486a4.586 4.586 0 0 1-2.425-.678c-.385-.233-.595-.497-.628-.792.057-.3.227-.477.509-.534.289.037.576.151.864.342.556.37 1.135.553 1.737.553.718 0 1.264-.294 1.641-.881.318-.495.478-1.118.478-1.87a2.307 2.307 0 0 0-.008-.143l-.007-.144h-.029c-.413.746-1.105 1.116-2.075 1.108a2.973 2.973 0 0 1-1.744-.56 3.458 3.458 0 0 1-1.152-1.426 4.637 4.637 0 0 1-.421-1.997c.007-.739.156-1.41.446-2.01a3.257 3.257 0 0 1 1.201-1.377 3.201 3.201 0 0 1 1.801-.493c.951.015 1.599.374 1.944 1.079h.028l.002-.415c0-.414.209-.62.627-.62.438 0 .657.216.657.65v6.55-.002Zm-1.14-3.211c0-1.114-.327-1.947-.981-2.497-.35-.293-.772-.435-1.27-.426a1.684 1.684 0 0 0-1.135.433c-.307.272-.533.62-.678 1.048a4.08 4.08 0 0 0-.218 1.355c.008.52.092.997.253 1.431.154.42.387.753.696 1 .318.256.689.387 1.11.393a1.96 1.96 0 0 0 1.605-.739c.411-.489.617-1.155.617-1.997l.001-.001Zm8.42 1.584a2.07 2.07 0 0 1-.335 1.094c-.214.338-.535.612-.963.822-.44.219-.967.328-1.58.33-1.01.006-1.857-.277-2.54-.85-.2-.136-.317-.342-.353-.618a.55.55 0 0 1 .556-.562c.184 0 .462.13.835.39.181.13.311.212.392.247.314.176.675.27 1.081.284.387.015.77-.072 1.11-.253a.849.849 0 0 0 .363-.329.82.82 0 0 0 .118-.47c0-.34-.198-.627-.596-.861-.252-.148-.628-.32-1.124-.517l-1.104-.46c-.399-.205-.713-.443-.94-.715-.228-.271-.341-.611-.341-1.02 0-.808.405-1.413 1.217-1.814a3.09 3.09 0 0 1 1.323-.316 3.91 3.91 0 0 1 1.385.237c.462.166.79.342.985.531.205.199.306.397.306.594a.51.51 0 0 1-.172.385.662.662 0 0 1-.401.183c-.17-.043-.407-.148-.712-.317l-.709-.387a1.357 1.357 0 0 0-.559-.117c-.454-.007-.801.084-1.039.273-.238.189-.366.419-.383.69.079.42.405.757.978 1.01.284.125.574.236.87.33l.701.26c.588.243 1.004.512 1.25.81.261.316.387.695.38 1.136" fill="#1B1B1B"/><path fill-rule="evenodd" clip-rule="evenodd" d="M134.453 32.79c0 .327-.19.505-.571.536l-.75-.259a2.584 2.584 0 0 0-.771-.142c-.907 0-1.551.468-1.934 1.404a3.575 3.575 0 0 0-.285 1.312 4.01 4.01 0 0 0 .452 1.925c.303.59.82.925 1.55 1.005.097 0 .17.01.217.028a2.38 2.38 0 0 0 .646-.127l.299-.124.283-.123a.789.789 0 0 1 .324-.088c.321 0 .482.178.482.534 0 .377-.26.651-.778.822-.349.115-.767.172-1.255.172-1.427 0-2.449-.624-3.064-1.87a4.313 4.313 0 0 1-.442-1.882c-.005-.52.063-1.04.203-1.542.285-1.04.853-1.778 1.701-2.212a3.465 3.465 0 0 1 1.545-.36 3.69 3.69 0 0 1 1.359.214c.376.144.619.31.731.5.038.118.057.21.057.276m2.778 6.196c0 .452-.214.679-.643.679-.418 0-.628-.227-.628-.68v-9.863c0-.441.21-.662.628-.662.429 0 .643.211.643.634v9.892Zm8.445-3.248c0 1.536-.535 2.668-1.604 3.396-.519.354-1.123.532-1.813.532-1.407 0-2.413-.659-3.017-1.976a4.584 4.584 0 0 1-.417-1.95c0-1.569.555-2.712 1.666-3.43a3.141 3.141 0 0 1 1.768-.508 3.178 3.178 0 0 1 1.802.55c.516.35.916.831 1.202 1.444a4.58 4.58 0 0 1 .413 1.944v-.002Zm-1.285 0a3.921 3.921 0 0 0-.243-1.417c-.354-.94-.984-1.41-1.89-1.41-.913 0-1.546.46-1.898 1.379a4 4 0 0 0-.25 1.448c0 .754.16 1.387.479 1.899.378.613.925.919 1.64.919.939 0 1.578-.466 1.916-1.4a4.26 4.26 0 0 0 .246-1.418Zm9.03.941c0 1.181-.448 2.037-1.345 2.567-.468.28-1.062.42-1.78.42-1.325 0-2.225-.498-2.701-1.493a3.414 3.414 0 0 1-.325-1.493v-4.226c0-.434.21-.65.628-.65.429 0 .643.216.643.65v4.19c0 1.276.594 1.914 1.783 1.914 1.217 0 1.826-.638 1.826-1.913v-4.191c0-.434.21-.65.629-.65.428 0 .642.216.642.65v4.226m8.315 2.335c0 .433-.22.65-.658.65a.614.614 0 0 1-.446-.181.601.601 0 0 1-.182-.44v-.415h-.029c-.137.276-.362.513-.674.713-.328.208-.751.316-1.269.323a3.175 3.175 0 0 1-1.801-.496 3.29 3.29 0 0 1-1.202-1.384 4.68 4.68 0 0 1-.445-2.015 4.769 4.769 0 0 1 .239-1.535c.328-1.002.901-1.711 1.719-2.127a2.91 2.91 0 0 1 1.33-.306c.872 0 1.574.35 2.104 1.05h.029v-3.76c0-.422.209-.632.629-.632.438 0 .657.22.657.66v9.895h-.001Zm-1.14-3.277a3.635 3.635 0 0 0-.272-1.48c-.38-.899-1.001-1.348-1.862-1.348-.925 0-1.56.492-1.905 1.474a4.088 4.088 0 0 0-.242 1.326c-.007.765.163 1.427.51 1.986.347.56.853.846 1.52.86.523.012.958-.126 1.305-.414.334-.276.582-.638.713-1.046.15-.438.228-.896.232-1.358h.001Z" fill="#78AAE5"/><path d="M26.607 11.01c4.789-2.304 9.478-1.815 13.667 1.424a.808.808 0 0 1 .104 1.122.848.848 0 0 1-1.137.163c-3.685-2.849-7.686-3.266-11.898-1.24-4.374 2.103-6.549 5.755-6.266 10.523a.803.803 0 0 1-.233.617.836.836 0 0 1-.621.249c-4.56-.114-8.445 4.057-7.914 8.5.421 3.532 2.818 6.016 6.357 6.613l.186.029h24.609l.201-.025c4.208-.535 5.042-1.163 5.796-4.11l.044-.175a.811.811 0 0 1 .373-.518.844.844 0 0 1 1.158.276.807.807 0 0 1 .09.628c-.938 3.796-2.297 4.883-7.228 5.519l-.278.035-.103.006H18.782l-.12-.008c-4.417-.632-7.493-3.733-8.012-8.08-.604-5.056 3.417-9.768 8.472-10.282l.26-.023v-.05c-.004-4.901 2.426-8.78 6.95-11.058l.275-.136Z" fill="#78AAE5"/><path fill-rule="evenodd" clip-rule="evenodd" d="M58.329 42.032a.22.22 0 0 1 .222.217v.25c0 .12-.1.218-.222.218h-.255a.225.225 0 0 1-.205-.134.214.214 0 0 1-.017-.084v-.25c0-.12.1-.217.222-.217h.255Zm-6.672 0a.22.22 0 0 1 .223.217v.25c0 .12-.1.218-.223.218h-.254a.225.225 0 0 1-.158-.064.216.216 0 0 1-.065-.154v-.25c0-.12.1-.217.223-.217h.254Zm.953 0a.22.22 0 0 1 .222.217v.25c0 .12-.1.218-.222.218h-.255a.225.225 0 0 1-.157-.064.218.218 0 0 1-.064-.154v-.25c0-.12.1-.217.221-.217h.255Zm4.766 0a.22.22 0 0 1 .222.217v.25c0 .12-.1.218-.222.218h-.255a.225.225 0 0 1-.157-.064.216.216 0 0 1-.066-.154v-.25c0-.12.1-.217.223-.217h.255Zm-3.813-.935a.22.22 0 0 1 .222.218v.25c0 .12-.1.217-.222.217h-.255a.224.224 0 0 1-.156-.063.216.216 0 0 1-.065-.154v-.25c0-.12.1-.218.221-.218h.255Zm4.766 0a.22.22 0 0 1 .222.218v.25c0 .12-.1.217-.222.217h-.255a.224.224 0 0 1-.157-.063.216.216 0 0 1-.065-.154v-.25c0-.12.1-.218.222-.218h.255Zm-.953 0a.22.22 0 0 1 .222.218v.25c0 .12-.1.217-.222.217h-.255a.225.225 0 0 1-.157-.063.216.216 0 0 1-.066-.154v-.25c0-.12.1-.218.223-.218h.255Zm-4.766 0a.22.22 0 0 1 .222.218v.25c0 .12-.1.217-.222.217h-.255a.224.224 0 0 1-.156-.063.216.216 0 0 1-.065-.154v-.25c0-.12.1-.218.221-.218h.255Zm.953-.934a.22.22 0 0 1 .222.218v.25c0 .12-.1.218-.222.218h-.255a.225.225 0 0 1-.157-.064.218.218 0 0 1-.064-.155v-.25c0-.12.1-.217.221-.217h.255Zm5.719 0a.22.22 0 0 1 .222.218v.25c0 .12-.1.218-.222.218h-.255a.225.225 0 0 1-.157-.064.217.217 0 0 1-.066-.155v-.25c0-.12.1-.217.223-.217h.255Zm-.953 0a.22.22 0 0 1 .222.218v.25c0 .12-.1.218-.222.218h-.255a.225.225 0 0 1-.205-.135.214.214 0 0 1-.017-.084v-.25c0-.12.1-.217.222-.217h.255Zm-5.719 0a.22.22 0 0 1 .222.218v.25c0 .12-.1.218-.222.218h-.255a.225.225 0 0 1-.157-.064.218.218 0 0 1-.064-.155v-.25c0-.12.1-.217.221-.217h.255Zm6.672-.934a.22.22 0 0 1 .222.217v.25c0 .12-.1.217-.222.217h-.255a.225.225 0 0 1-.206-.134.214.214 0 0 1-.017-.083v-.25c0-.12.1-.217.223-.217h.255Zm-.953 0a.22.22 0 0 1 .222.217v.25c0 .12-.1.217-.222.217h-.255a.224.224 0 0 1-.157-.063.216.216 0 0 1-.065-.154v-.25c0-.12.1-.217.222-.217h.255Zm-4.766 0a.22.22 0 0 1 .222.217v.25c0 .12-.1.217-.222.217h-.255a.224.224 0 0 1-.156-.063.216.216 0 0 1-.065-.154v-.25c0-.12.1-.217.221-.217h.255Zm.953 0a.22.22 0 0 1 .222.217v.25c0 .12-.1.217-.222.217h-.255a.225.225 0 0 1-.157-.063.216.216 0 0 1-.065-.154v-.25c0-.12.1-.217.222-.217h.255Zm3.813-.935a.22.22 0 0 1 .222.219v.25a.214.214 0 0 1-.065.154.223.223 0 0 1-.157.064h-.255a.225.225 0 0 1-.205-.135.214.214 0 0 1-.017-.084v-.25c0-.12.1-.218.222-.218h.255Zm-2.86 0a.22.22 0 0 1 .222.219v.25a.214.214 0 0 1-.065.154.222.222 0 0 1-.157.064h-.255a.225.225 0 0 1-.157-.064.218.218 0 0 1-.065-.155v-.25c0-.12.1-.218.222-.218h.255Zm3.813 0a.22.22 0 0 1 .222.219v.25a.216.216 0 0 1-.065.154.225.225 0 0 1-.157.064h-.255a.225.225 0 0 1-.157-.064.217.217 0 0 1-.066-.155v-.25c0-.12.1-.218.223-.218h.255Zm-4.766 0a.22.22 0 0 1 .222.219v.25a.214.214 0 0 1-.065.154.223.223 0 0 1-.157.064h-.255a.225.225 0 0 1-.157-.064.216.216 0 0 1-.065-.155v-.25c0-.12.1-.218.222-.218h.255Zm.953-.934a.22.22 0 0 1 .222.218v.25c0 .12-.1.218-.222.218h-.255a.225.225 0 0 1-.157-.064.218.218 0 0 1-.065-.154v-.25c0-.12.1-.218.222-.218h.255Zm.953 0a.22.22 0 0 1 .223.218v.25c0 .12-.1.218-.223.218h-.255a.225.225 0 0 1-.157-.064.22.22 0 0 1-.064-.154v-.25a.22.22 0 0 1 .221-.218h.255Zm1.906 0a.22.22 0 0 1 .222.218v.25c0 .12-.1.218-.222.218h-.255a.226.226 0 0 1-.157-.064.218.218 0 0 1-.065-.154v-.25c0-.12.1-.218.222-.218h.255Zm.953 0a.22.22 0 0 1 .223.218v.25c0 .12-.1.218-.223.218h-.255a.226.226 0 0 1-.206-.135.215.215 0 0 1-.016-.083v-.25c0-.12.1-.218.222-.218h.255Zm4.766-.935a.22.22 0 0 1 .222.218v.25c0 .12-.1.217-.222.217h-.255a.224.224 0 0 1-.157-.063.216.216 0 0 1-.065-.154v-.25c0-.12.1-.218.222-.218h.255Zm-8.579 0a.22.22 0 0 1 .222.218v.25c0 .12-.1.217-.222.217h-.254a.226.226 0 0 1-.157-.063.217.217 0 0 1-.065-.154v-.25c0-.12.1-.218.222-.218h.254Zm3.813 0a.22.22 0 0 1 .223.218v.25c0 .12-.1.217-.223.217h-.255a.225.225 0 0 1-.157-.063.216.216 0 0 1-.065-.154v-.25c0-.12.1-.218.222-.218h.255Zm-.953 0a.22.22 0 0 1 .222.218v.25c0 .12-.1.217-.222.217h-.255a.224.224 0 0 1-.157-.063.216.216 0 0 1-.065-.154v-.25c0-.12.1-.218.222-.218h.255Zm-1.906 0a.22.22 0 0 1 .223.218v.25c0 .12-.1.217-.223.217h-.255a.224.224 0 0 1-.157-.063.216.216 0 0 1-.064-.154v-.25a.22.22 0 0 1 .221-.218h.255Zm-.953-.934a.22.22 0 0 1 .222.218v.25c0 .12-.1.218-.222.218h-.255a.225.225 0 0 1-.157-.064.218.218 0 0 1-.065-.154v-.25c0-.12.1-.218.222-.218h.255Zm.953 0a.22.22 0 0 1 .223.218v.25c0 .12-.1.218-.223.218h-.255a.225.225 0 0 1-.157-.064.22.22 0 0 1-.064-.154v-.25a.22.22 0 0 1 .221-.218h.255Zm.953 0a.22.22 0 0 1 .222.218v.25c0 .12-.1.218-.222.218h-.255a.225.225 0 0 1-.157-.064.216.216 0 0 1-.065-.154v-.25c0-.12.1-.218.222-.218h.255Zm.953 0a.22.22 0 0 1 .222.218v.25c0 .12-.1.218-.222.218h-.255a.226.226 0 0 1-.157-.064.218.218 0 0 1-.065-.154v-.25c0-.12.1-.218.222-.218h.255Zm.953 0a.22.22 0 0 1 .223.218v.25c0 .12-.1.218-.223.218h-.255a.225.225 0 0 1-.157-.064.216.216 0 0 1-.065-.154v-.25c0-.12.1-.218.222-.218h.255Zm4.766 0a.22.22 0 0 1 .222.218v.25c0 .12-.1.218-.222.218h-.255a.225.225 0 0 1-.157-.064.218.218 0 0 1-.065-.154v-.25c0-.12.1-.218.222-.218h.255Zm-.953 0a.22.22 0 0 1 .221.218v.25a.22.22 0 0 1-.221.218h-.255a.225.225 0 0 1-.157-.064.218.218 0 0 1-.065-.154v-.25c0-.12.1-.218.222-.218h.255Zm1.905 0a.22.22 0 0 1 .223.218v.25c0 .12-.1.218-.222.218h-.255a.225.225 0 0 1-.157-.064.216.216 0 0 1-.066-.154v-.25c0-.12.1-.218.223-.218h.254Zm-.952-.934a.22.22 0 0 1 .222.217v.25c0 .12-.1.218-.222.218h-.255a.225.225 0 0 1-.157-.064.218.218 0 0 1-.065-.154v-.25c0-.12.1-.217.222-.217h.255Zm-7.625 0a.22.22 0 0 1 .223.217v.25c0 .12-.1.218-.223.218h-.255a.226.226 0 0 1-.205-.135.215.215 0 0 1-.017-.083v-.25c0-.12.1-.217.222-.217h.255Zm1.906 0a.22.22 0 0 1 .222.217v.25c0 .12-.1.218-.222.218h-.255a.226.226 0 0 1-.157-.064.218.218 0 0 1-.065-.154v-.25c0-.12.1-.217.222-.217h.255Zm-.953 0a.22.22 0 0 1 .222.217v.25c0 .12-.1.218-.222.218h-.255a.227.227 0 0 1-.157-.064.218.218 0 0 1-.065-.154v-.25c0-.12.1-.217.222-.217h.255Zm-1.906 0a.22.22 0 0 1 .222.217v.25c0 .12-.1.218-.222.218h-.255a.225.225 0 0 1-.157-.064.218.218 0 0 1-.065-.154v-.25c0-.12.1-.217.222-.217h.255Zm7.625 0a.22.22 0 0 1 .221.217v.25a.22.22 0 0 1-.221.218h-.255a.225.225 0 0 1-.157-.064.218.218 0 0 1-.065-.154v-.25c0-.12.1-.217.222-.217h.255Zm-.953 0a.22.22 0 0 1 .222.217v.25c0 .12-.1.218-.222.218h-.255a.226.226 0 0 1-.157-.064.218.218 0 0 1-.066-.154v-.25c0-.12.1-.217.223-.217h.255Zm-7.625 0a.22.22 0 0 1 .222.217v.25c0 .12-.1.218-.222.218h-.255a.225.225 0 0 1-.157-.064.216.216 0 0 1-.065-.154v-.25c0-.12.1-.217.222-.217h.255Zm7.625-.935a.22.22 0 0 1 .222.219v.25c0 .12-.1.217-.222.217h-.255a.225.225 0 0 1-.157-.064.219.219 0 0 1-.066-.154v-.25c0-.12.1-.218.223-.218h.255Zm-6.672 0a.22.22 0 0 1 .222.219v.25c0 .12-.1.217-.222.217h-.255a.224.224 0 0 1-.157-.064.216.216 0 0 1-.065-.154v-.25c0-.12.1-.218.222-.218h.255Zm.953 0a.22.22 0 0 1 .223.219v.25c0 .12-.1.217-.223.217h-.255a.226.226 0 0 1-.157-.064.219.219 0 0 1-.065-.154v-.25c0-.12.1-.218.222-.218h.255Zm-1.906 0a.22.22 0 0 1 .222.219v.25c0 .12-.1.217-.222.217h-.255a.225.225 0 0 1-.157-.064.216.216 0 0 1-.065-.154v-.25c0-.12.1-.218.222-.218h.255Zm2.86 0a.22.22 0 0 1 .222.219v.25c0 .12-.1.217-.222.217h-.255a.225.225 0 0 1-.157-.064.216.216 0 0 1-.066-.154v-.25c0-.12.1-.218.223-.218h.255Zm5.718 0a.22.22 0 0 1 .222.219v.25c0 .12-.1.217-.222.217h-.254a.224.224 0 0 1-.157-.064.216.216 0 0 1-.065-.154v-.25c0-.12.1-.218.222-.218h.254Zm-20.968 0a.22.22 0 0 1 .222.219v.25c0 .12-.1.217-.222.217h-.255a.224.224 0 0 1-.157-.064.216.216 0 0 1-.065-.154v-.25c0-.12.1-.218.222-.218h.255Zm.953 0a.22.22 0 0 1 .222.219v.25a.22.22 0 0 1-.222.217h-.255a.224.224 0 0 1-.157-.064.216.216 0 0 1-.065-.154v-.25c0-.12.1-.218.222-.218h.255Zm10.484 0a.22.22 0 0 1 .222.219v.25c0 .12-.1.217-.222.217h-.255a.226.226 0 0 1-.156-.064.217.217 0 0 1-.065-.154v-.25c0-.12.1-.218.221-.218h.255Zm10.484 0a.22.22 0 0 1 .223.219v.25c0 .12-.1.217-.223.217h-.254a.224.224 0 0 1-.157-.064.216.216 0 0 1-.065-.154v-.25c0-.12.1-.218.222-.218h.254Zm-2.86 0a.22.22 0 0 1 .223.219v.25c0 .12-.1.217-.222.217h-.255a.224.224 0 0 1-.157-.064.215.215 0 0 1-.065-.154v-.25c0-.12.1-.218.222-.218h.255Zm-2.86 0a.22.22 0 0 1 .223.219v.25c0 .12-.1.217-.222.217h-.255a.224.224 0 0 1-.157-.064.216.216 0 0 1-.065-.154v-.25c0-.12.1-.218.222-.218h.255Zm.954-.934a.22.22 0 0 1 .223.218v.25c0 .12-.1.218-.223.218h-.255a.226.226 0 0 1-.206-.135.215.215 0 0 1-.016-.083v-.25c0-.12.1-.218.222-.218h.255Zm3.813 0a.22.22 0 0 1 .221.218v.25a.22.22 0 0 1-.221.218h-.255a.225.225 0 0 1-.157-.064.218.218 0 0 1-.065-.154v-.25c0-.12.1-.218.222-.218h.255Zm-.953 0a.22.22 0 0 1 .222.218v.25c0 .12-.1.218-.222.218h-.255a.226.226 0 0 1-.157-.064.217.217 0 0 1-.066-.154v-.25c0-.12.1-.218.223-.218h.255Zm-20.969 0a.22.22 0 0 1 .223.218v.25c0 .12-.1.218-.223.218h-.255a.225.225 0 0 1-.157-.064.218.218 0 0 1-.064-.154v-.25c0-.12.1-.218.221-.218h.255Zm15.25 0a.22.22 0 0 1 .223.218v.25c0 .12-.1.218-.223.218h-.255a.226.226 0 0 1-.205-.135.215.215 0 0 1-.017-.083v-.25c0-.12.1-.218.222-.218h.255Zm-16.203 0a.22.22 0 0 1 .222.218v.25c0 .12-.1.218-.222.218h-.255a.225.225 0 0 1-.205-.135.214.214 0 0 1-.017-.083v-.25c0-.12.1-.218.223-.218h.254Zm13.343 0a.22.22 0 0 1 .222.218v.25c0 .12-.1.218-.222.218h-.254a.225.225 0 0 1-.206-.135.214.214 0 0 1-.016-.083v-.25c0-.12.1-.218.222-.218h.254Zm1.906 0a.22.22 0 0 1 .222.218v.25c0 .12-.1.218-.222.218h-.254a.225.225 0 0 1-.158-.064.218.218 0 0 1-.064-.154v-.25c0-.12.1-.218.222-.218h.254Zm-13.343 0a.22.22 0 0 1 .222.218v.25c0 .12-.1.218-.222.218h-.255a.225.225 0 0 1-.157-.064.218.218 0 0 1-.065-.154v-.25c0-.12.1-.218.222-.218h.255Zm19.062 0a.22.22 0 0 1 .223.218v.25c0 .12-.1.218-.223.218h-.255a.225.225 0 0 1-.205-.135.214.214 0 0 1-.017-.083v-.25c0-.12.1-.218.222-.218h.255Zm-6.672 0a.22.22 0 0 1 .222.218v.25c0 .12-.1.218-.222.218h-.254a.226.226 0 0 1-.158-.064.217.217 0 0 1-.065-.154v-.25c0-.12.1-.218.223-.218h.254Zm2.86 0a.22.22 0 0 1 .222.218v.25c0 .12-.1.218-.222.218h-.255a.227.227 0 0 1-.157-.064.217.217 0 0 1-.065-.154v-.25c0-.12.1-.218.222-.218h.255Zm.953 0a.22.22 0 0 1 .222.218v.25c0 .12-.1.218-.222.218h-.255a.226.226 0 0 1-.157-.064.218.218 0 0 1-.065-.154v-.25c0-.12.1-.218.222-.218h.255Zm-17.156-.936a.22.22 0 0 1 .223.217v.25c0 .12-.1.218-.223.218h-.255a.224.224 0 0 1-.157-.064.216.216 0 0 1-.064-.154v-.25c0-.12.1-.217.221-.217h.255Zm12.39 0a.22.22 0 0 1 .223.217v.25c0 .12-.1.218-.223.218h-.254a.224.224 0 0 1-.157-.064.215.215 0 0 1-.065-.154v-.25c0-.12.1-.217.222-.217h.254Zm4.766 0a.22.22 0 0 1 .222.217v.25c0 .12-.1.218-.222.218h-.255a.224.224 0 0 1-.157-.064.216.216 0 0 1-.065-.154v-.25c0-.12.1-.217.222-.217h.255Zm2.86 0a.22.22 0 0 1 .222.217v.25c0 .12-.1.218-.222.218h-.255a.224.224 0 0 1-.157-.064.215.215 0 0 1-.065-.154v-.25c0-.12.1-.217.222-.217h.255Zm-5.719 0a.22.22 0 0 1 .222.217v.25c0 .12-.1.218-.222.218h-.255a.224.224 0 0 1-.157-.064.216.216 0 0 1-.065-.154v-.25c0-.12.1-.217.222-.217h.255Zm-15.25 0a.22.22 0 0 1 .222.217v.25c0 .12-.1.218-.222.218h-.255a.224.224 0 0 1-.157-.064.216.216 0 0 1-.065-.154v-.25c0-.12.1-.217.223-.217h.254Zm11.437 0a.22.22 0 0 1 .223.217v.25c0 .12-.1.218-.223.218h-.254a.225.225 0 0 1-.157-.064.216.216 0 0 1-.066-.154v-.25c0-.12.1-.217.223-.217h.254Zm4.766 0a.22.22 0 0 1 .223.217v.25c0 .12-.1.218-.223.218h-.255a.226.226 0 0 1-.157-.064.219.219 0 0 1-.065-.154v-.25c0-.12.1-.217.222-.217h.255Zm-3.813 0a.22.22 0 0 1 .222.217v.25c0 .12-.1.218-.222.218h-.254a.224.224 0 0 1-.157-.064.216.216 0 0 1-.065-.154v-.25c0-.12.1-.217.222-.217h.254Zm4.766 0a.22.22 0 0 1 .222.217v.25c0 .12-.1.218-.222.218h-.255a.225.225 0 0 1-.157-.064.216.216 0 0 1-.065-.154v-.25c0-.12.1-.217.222-.217h.255Zm4.766 0a.22.22 0 0 1 .222.217v.25c0 .12-.1.218-.222.218h-.255a.225.225 0 0 1-.157-.064.219.219 0 0 1-.066-.154v-.25c0-.12.1-.217.223-.217h.255Zm-2.86 0a.22.22 0 0 1 .223.217v.25c0 .12-.1.218-.223.218h-.255a.226.226 0 0 1-.157-.064.217.217 0 0 1-.065-.154v-.25c0-.12.1-.217.222-.217h.255Zm3.813 0a.22.22 0 0 1 .221.217v.25a.22.22 0 0 1-.221.218h-.255a.226.226 0 0 1-.157-.064.217.217 0 0 1-.065-.154v-.25c0-.12.1-.217.222-.217h.255Zm-8.579 0a.22.22 0 0 1 .222.217v.25c0 .12-.1.218-.222.218h-.254a.225.225 0 0 1-.158-.064.216.216 0 0 1-.065-.154v-.25c0-.12.1-.217.223-.217h.254Zm-1.906-.935a.22.22 0 0 1 .222.219v.25c0 .12-.1.217-.222.217h-.254a.224.224 0 0 1-.157-.064.216.216 0 0 1-.065-.154v-.25c0-.12.1-.218.222-.218h.254Zm-3.812 0a.22.22 0 0 1 .222.219v.25c0 .12-.1.217-.222.217h-.255a.225.225 0 0 1-.157-.064.216.216 0 0 1-.066-.154v-.25c0-.12.1-.218.223-.218h.255Zm12.39 0a.22.22 0 0 1 .223.219v.25c0 .12-.1.217-.223.217h-.255a.226.226 0 0 1-.157-.063.219.219 0 0 1-.066-.155v-.25c0-.12.1-.218.223-.218h.255Zm-20.969 0a.22.22 0 0 1 .222.219v.25c0 .12-.1.217-.222.217h-.254a.224.224 0 0 1-.157-.064.216.216 0 0 1-.065-.154v-.25c0-.12.1-.218.222-.218h.254Zm11.438 0a.22.22 0 0 1 .222.219v.25c0 .12-.1.217-.222.217H51.4a.225.225 0 0 1-.157-.064.216.216 0 0 1-.066-.154v-.25c0-.12.1-.218.223-.218h.255Zm1.905 0a.22.22 0 0 1 .223.219v.25c0 .12-.1.217-.223.217h-.254a.224.224 0 0 1-.157-.064.216.216 0 0 1-.065-.154v-.25c0-.12.1-.218.222-.218h.254Zm4.766 0a.22.22 0 0 1 .222.219v.25c0 .12-.1.217-.222.217h-.255a.224.224 0 0 1-.156-.064.216.216 0 0 1-.065-.154v-.25c0-.12.1-.218.221-.218h.255Zm-7.624 0a.22.22 0 0 1 .222.219v.25c0 .12-.1.217-.222.217h-.255a.224.224 0 0 1-.157-.064.216.216 0 0 1-.065-.154v-.25c0-.12.1-.218.222-.218h.255Zm-.954 0a.22.22 0 0 1 .222.219v.25c0 .12-.1.217-.221.217h-.255a.224.224 0 0 1-.157-.064.215.215 0 0 1-.065-.154v-.25c0-.12.1-.218.222-.218h.255Zm12.39 0a.22.22 0 0 1 .223.219v.25a.22.22 0 0 1-.222.217h-.255a.225.225 0 0 1-.206-.134.214.214 0 0 1-.017-.084v-.25c0-.12.1-.218.223-.218h.255Zm-4.765 0a.22.22 0 0 1 .222.219v.25c0 .12-.1.217-.222.217h-.254a.225.225 0 0 1-.158-.064.216.216 0 0 1-.065-.154v-.25c0-.12.1-.218.223-.218h.254Zm-2.86 0a.22.22 0 0 1 .222.219v.25c0 .12-.1.217-.222.217h-.254a.225.225 0 0 1-.157-.064.216.216 0 0 1-.066-.154v-.25c0-.12.1-.218.223-.218h.254Zm.953 0a.22.22 0 0 1 .222.219v.25c0 .12-.1.217-.222.217h-.254a.224.224 0 0 1-.157-.064.216.216 0 0 1-.065-.154v-.25c0-.12.1-.218.222-.218h.254Zm-16.203 0a.22.22 0 0 1 .222.219v.25c0 .12-.1.217-.222.217h-.254a.224.224 0 0 1-.157-.064.216.216 0 0 1-.065-.154v-.25c0-.12.1-.218.222-.218h.254Zm20.016 0a.22.22 0 0 1 .223.219v.25c0 .12-.1.217-.223.217h-.255a.226.226 0 0 1-.157-.063.219.219 0 0 1-.065-.155v-.25c0-.12.1-.218.223-.218h.254Zm-2.86 0a.22.22 0 0 1 .223.219v.25c0 .12-.1.217-.223.217h-.254a.226.226 0 0 1-.158-.063.219.219 0 0 1-.065-.155v-.25c0-.12.1-.218.223-.218h.254Zm-15.25 0a.22.22 0 0 1 .223.219v.25c0 .12-.1.217-.223.217h-.254a.226.226 0 0 1-.158-.063.219.219 0 0 1-.065-.155v-.25c0-.12.1-.218.223-.218h.254Zm6.672 0a.22.22 0 0 1 .222.219v.25c0 .12-.1.217-.222.217h-.255a.224.224 0 0 1-.157-.064.216.216 0 0 1-.065-.154v-.25c0-.12.1-.218.222-.218h.255Zm8.578-.934a.22.22 0 0 1 .223.218v.25c0 .12-.1.218-.223.218h-.254a.225.225 0 0 1-.158-.064.216.216 0 0 1-.065-.155v-.25c0-.12.1-.217.223-.217h.254Zm-.953 0a.22.22 0 0 1 .222.218v.25c0 .12-.1.218-.222.218h-.254a.225.225 0 0 1-.157-.064.22.22 0 0 1-.065-.155v-.25c0-.12.1-.217.222-.217h.254Zm3.813 0a.22.22 0 0 1 .223.218v.25c0 .12-.1.218-.223.218h-.255a.225.225 0 0 1-.157-.064.216.216 0 0 1-.065-.155v-.25c0-.12.1-.217.223-.217h.254Zm-8.578 0a.22.22 0 0 1 .222.218v.25c0 .12-.1.218-.222.218h-.255a.225.225 0 0 1-.157-.064.218.218 0 0 1-.065-.155v-.25c0-.12.1-.217.222-.217h.255Zm-.953 0a.22.22 0 0 1 .222.218v.25c0 .12-.1.218-.222.218h-.255a.225.225 0 0 1-.205-.135.214.214 0 0 1-.017-.084v-.25c0-.12.1-.217.222-.217h.255Zm12.39 0a.22.22 0 0 1 .223.218v.25c0 .12-.1.218-.223.218h-.255a.225.225 0 0 1-.157-.064.216.216 0 0 1-.065-.155v-.25c0-.12.1-.217.222-.217h.255Zm-20.969 0a.22.22 0 0 1 .223.218v.25c0 .12-.1.218-.223.218h-.254a.226.226 0 0 1-.206-.135.215.215 0 0 1-.017-.084v-.25c0-.12.1-.217.223-.217h.254Zm17.156 0a.22.22 0 0 1 .222.218v.25c0 .12-.1.218-.222.218h-.254a.225.225 0 0 1-.158-.064.218.218 0 0 1-.064-.155v-.25c0-.12.1-.217.222-.217h.254Zm-5.718 0a.22.22 0 0 1 .222.218v.25c0 .12-.1.218-.222.218h-.255a.225.225 0 0 1-.205-.135.214.214 0 0 1-.017-.084v-.25c0-.12.1-.217.222-.217h.255Zm1.906 0a.22.22 0 0 1 .221.218v.25a.22.22 0 0 1-.221.218h-.255a.225.225 0 0 1-.157-.064.216.216 0 0 1-.066-.155v-.25c0-.12.1-.217.223-.217h.255Zm-12.39 0a.22.22 0 0 1 .221.218v.25c0 .12-.1.218-.222.218h-.254a.225.225 0 0 1-.206-.135.212.212 0 0 1-.016-.084v-.25c0-.12.1-.217.222-.217h.254Zm3.812 0a.22.22 0 0 1 .223.218v.25c0 .12-.1.218-.223.218h-.255a.225.225 0 0 1-.157-.064.216.216 0 0 1-.065-.155v-.25c0-.12.1-.217.222-.217h.255Zm-6.672 0a.22.22 0 0 1 .222.218v.25a.218.218 0 0 1-.171.211l-.05.006h-.255a.226.226 0 0 1-.157-.064.216.216 0 0 1-.065-.155v-.25c0-.12.1-.217.222-.217h.254v.001Zm7.625 0a.22.22 0 0 1 .222.218v.25c0 .12-.1.218-.222.218h-.255a.225.225 0 0 1-.157-.064.216.216 0 0 1-.065-.155v-.25c0-.12.1-.217.222-.217h.255Zm6.672 0a.22.22 0 0 1 .222.218v.25c0 .12-.1.218-.222.218h-.255a.226.226 0 0 1-.157-.064.218.218 0 0 1-.065-.155v-.25c0-.12.1-.217.222-.217h.255Zm-4.766 0a.22.22 0 0 1 .223.218v.25c0 .12-.1.218-.223.218h-.255a.225.225 0 0 1-.157-.064.216.216 0 0 1-.065-.155v-.25c0-.12.1-.217.222-.217h.255Zm-10.484 0a.22.22 0 0 1 .222.218v.25a.218.218 0 0 1-.171.211l-.05.006h-.255a.225.225 0 0 1-.157-.064.218.218 0 0 1-.065-.155v-.25c0-.12.1-.217.222-.217h.255l-.001.001Zm22.874 0a.22.22 0 0 1 .223.218v.25c0 .12-.1.218-.223.218h-.254a.225.225 0 0 1-.158-.064.218.218 0 0 1-.064-.155v-.25c0-.12.1-.217.222-.217h.254Zm-9.531 0a.22.22 0 0 1 .223.218v.25c0 .12-.1.218-.223.218h-.255a.226.226 0 0 1-.206-.135.215.215 0 0 1-.016-.084v-.25c0-.12.1-.217.222-.217h.255Zm5.718 0a.22.22 0 0 1 .222.218v.25c0 .12-.1.218-.221.218h-.255a.225.225 0 0 1-.158-.064.216.216 0 0 1-.065-.155v-.25c0-.12.1-.217.223-.217h.255Zm-14.297 0a.22.22 0 0 1 .223.218v.25c0 .12-.1.218-.223.218h-.254a.225.225 0 0 1-.157-.064.218.218 0 0 1-.065-.155v-.25c0-.12.1-.217.222-.217h.255Zm1.906 0a.22.22 0 0 1 .222.218v.25c0 .12-.1.218-.222.218h-.254a.225.225 0 0 1-.205-.135.214.214 0 0 1-.017-.084v-.25c0-.12.1-.217.222-.217h.254Zm2.86 0a.22.22 0 0 1 .222.218v.25c0 .12-.1.218-.222.218h-.254a.225.225 0 0 1-.158-.064.218.218 0 0 1-.064-.155v-.25c0-.12.1-.217.222-.217h.254Zm-4.766-.934a.22.22 0 0 1 .223.217v.25c0 .12-.1.217-.223.217h-.254a.224.224 0 0 1-.157-.063.216.216 0 0 1-.065-.154v-.25c0-.12.1-.217.222-.217h.255Zm-.953 0a.22.22 0 0 1 .222.217v.25c0 .12-.1.217-.221.217h-.255a.224.224 0 0 1-.157-.063.216.216 0 0 1-.065-.154v-.25c0-.12.1-.217.222-.217h.255Zm3.813 0a.22.22 0 0 1 .223.217v.25c0 .12-.1.217-.223.217h-.254a.225.225 0 0 1-.158-.063.218.218 0 0 1-.065-.154v-.25c0-.12.1-.217.223-.217h.254Zm1.906 0a.22.22 0 0 1 .222.217v.25c0 .12-.1.217-.222.217h-.254a.224.224 0 0 1-.157-.063.216.216 0 0 1-.065-.154v-.25c0-.12.1-.217.222-.217h.254Zm1.906 0a.22.22 0 0 1 .222.217v.25c0 .12-.1.217-.222.217h-.255a.224.224 0 0 1-.156-.063.216.216 0 0 1-.065-.154v-.25c0-.12.1-.217.221-.217h.255Zm-5.718 0a.22.22 0 0 1 .221.217v.25c0 .12-.1.217-.221.217h-.255a.225.225 0 0 1-.157-.063.216.216 0 0 1-.066-.154v-.25c0-.12.1-.217.223-.217h.255Zm11.437 0a.22.22 0 0 1 .222.217v.25c0 .12-.1.217-.222.217h-.255a.224.224 0 0 1-.157-.063.215.215 0 0 1-.065-.154v-.25c0-.12.1-.217.222-.217h.255Zm2.86 0a.22.22 0 0 1 .221.217v.25c0 .12-.1.217-.221.217h-.255a.224.224 0 0 1-.157-.063.216.216 0 0 1-.065-.154v-.25c0-.12.1-.217.222-.217h.255Zm-.953 0a.22.22 0 0 1 .221.217v.25c0 .12-.1.217-.221.217h-.255a.225.225 0 0 1-.157-.063.216.216 0 0 1-.066-.154v-.25c0-.12.1-.217.223-.217h.255Zm-.953 0a.22.22 0 0 1 .222.217v.25c0 .12-.1.217-.223.217h-.254a.226.226 0 0 1-.157-.063.218.218 0 0 1-.066-.154v-.25c0-.12.1-.217.223-.217h.255Zm-7.625 0a.22.22 0 0 1 .223.217v.25c0 .12-.1.217-.223.217h-.255a.225.225 0 0 1-.157-.063.216.216 0 0 1-.065-.154v-.25c0-.12.1-.217.222-.217h.255Zm10.484 0a.22.22 0 0 1 .223.217v.25c0 .12-.1.217-.223.217h-.254a.225.225 0 0 1-.157-.063.216.216 0 0 1-.066-.154v-.25c0-.12.1-.217.223-.217h.254Zm-8.578 0a.22.22 0 0 1 .222.217v.25c0 .12-.1.217-.222.217h-.255a.224.224 0 0 1-.157-.063.216.216 0 0 1-.065-.154v-.25c0-.12.1-.217.222-.217h.255Zm10.484 0a.22.22 0 0 1 .223.217v.25c0 .12-.1.217-.223.217h-.254a.224.224 0 0 1-.157-.063.216.216 0 0 1-.065-.154v-.25c0-.12.1-.217.222-.217h.254Zm-7.624 0a.22.22 0 0 1 .221.217v.25c0 .12-.099.217-.221.217h-.255a.227.227 0 0 1-.157-.063.218.218 0 0 1-.065-.154v-.25c0-.12.1-.217.222-.217h.255Zm-12.39 0a.22.22 0 0 1 .222.217v.25c0 .12-.1.217-.223.217h-.254a.226.226 0 0 1-.158-.063.218.218 0 0 1-.065-.154v-.25c0-.12.1-.217.223-.217h.254Zm10.484 0a.22.22 0 0 1 .222.217v.25c0 .12-.1.217-.222.217H51.4a.225.225 0 0 1-.157-.063.216.216 0 0 1-.066-.154v-.25c0-.12.1-.217.223-.217h.255Zm2.86 0a.22.22 0 0 1 .221.217v.25c0 .12-.1.217-.222.217h-.254a.225.225 0 0 1-.157-.063.216.216 0 0 1-.066-.154v-.25c0-.12.1-.217.223-.217h.254Zm-9.532 0a.22.22 0 0 1 .222.217v.25c0 .12-.1.217-.222.217h-.255a.224.224 0 0 1-.156-.063.216.216 0 0 1-.065-.154v-.25c0-.12.1-.217.221-.217h.255Zm1.906 0a.22.22 0 0 1 .222.217v.25c0 .12-.1.217-.222.217h-.255a.225.225 0 0 1-.157-.063.216.216 0 0 1-.065-.154v-.25c0-.12.1-.217.222-.217h.255Zm5.719 0a.22.22 0 0 1 .222.217v.25c0 .12-.1.217-.222.217h-.255a.224.224 0 0 1-.157-.063.215.215 0 0 1-.065-.154v-.25c0-.12.1-.217.222-.217h.255Zm7.624 0a.22.22 0 0 1 .222.217v.25c0 .12-.1.217-.222.217h-.254a.224.224 0 0 1-.157-.063.216.216 0 0 1-.065-.154v-.25c0-.12.1-.217.222-.217h.254Zm-20.968 0a.22.22 0 0 1 .221.217v.25c0 .12-.099.217-.221.217h-.255a.224.224 0 0 1-.157-.063.216.216 0 0 1-.065-.154v-.25c0-.12.1-.217.222-.217h.255Zm-.953 0a.22.22 0 0 1 .222.217v.25c0 .12-.1.217-.222.217h-.255a.224.224 0 0 1-.157-.063.215.215 0 0 1-.065-.154v-.25c0-.12.1-.217.222-.217h.255Zm1.906-.935a.22.22 0 0 1 .221.219v.25a.212.212 0 0 1-.064.154.222.222 0 0 1-.157.064h-.255a.225.225 0 0 1-.157-.064.218.218 0 0 1-.065-.155v-.25c0-.12.1-.218.222-.218h.255Zm10.484 0a.22.22 0 0 1 .222.219v.25a.214.214 0 0 1-.065.154.222.222 0 0 1-.157.064h-.255a.225.225 0 0 1-.157-.064.218.218 0 0 1-.065-.155v-.25c0-.12.1-.218.222-.218h.255Zm-.953 0a.22.22 0 0 1 .223.219v.25a.216.216 0 0 1-.066.154.225.225 0 0 1-.157.064h-.255a.225.225 0 0 1-.157-.064.216.216 0 0 1-.065-.155v-.25c0-.12.1-.218.222-.218h.255Zm-8.578 0a.22.22 0 0 1 .222.219v.25a.215.215 0 0 1-.065.154.224.224 0 0 1-.157.064h-.255a.225.225 0 0 1-.157-.064.216.216 0 0 1-.066-.155v-.25c0-.12.1-.218.223-.218h.255Zm2.86 0a.22.22 0 0 1 .221.219v.25a.214.214 0 0 1-.064.154.222.222 0 0 1-.158.064h-.254a.225.225 0 0 1-.158-.064.216.216 0 0 1-.065-.155v-.25c0-.12.1-.218.223-.218h.254Zm-4.766 0a.22.22 0 0 1 .221.219v.25a.214.214 0 0 1-.064.154.222.222 0 0 1-.157.064h-.255a.225.225 0 0 1-.157-.064.218.218 0 0 1-.065-.155v-.25c0-.12.1-.218.222-.218h.255Zm18.108 0a.22.22 0 0 1 .222.219v.25a.214.214 0 0 1-.064.154.222.222 0 0 1-.157.064h-.255a.225.225 0 0 1-.158-.064.216.216 0 0 1-.065-.155v-.25c0-.12.1-.218.223-.218h.255Zm-5.718 0a.22.22 0 0 1 .223.219v.25a.216.216 0 0 1-.066.154.225.225 0 0 1-.157.064h-.255a.225.225 0 0 1-.157-.064.216.216 0 0 1-.065-.155v-.25c0-.12.1-.218.222-.218h.255Zm-6.672 0a.22.22 0 0 1 .222.219v.25a.214.214 0 0 1-.065.154.224.224 0 0 1-.157.064h-.254a.225.225 0 0 1-.157-.064.218.218 0 0 1-.065-.155v-.25c0-.12.1-.218.222-.218h.254Zm2.86 0a.22.22 0 0 1 .222.219v.25a.214.214 0 0 1-.065.154.222.222 0 0 1-.157.064h-.255a.225.225 0 0 1-.157-.064.216.216 0 0 1-.065-.155v-.25c0-.12.1-.218.222-.218h.255Zm5.719 0a.22.22 0 0 1 .221.219v.25a.214.214 0 0 1-.064.154.222.222 0 0 1-.157.064h-.255a.226.226 0 0 1-.157-.064.218.218 0 0 1-.065-.155v-.25c0-.12.1-.218.222-.218h.255Zm2.86 0a.22.22 0 0 1 .222.219v.25a.216.216 0 0 1-.065.154.225.225 0 0 1-.158.064h-.254a.225.225 0 0 1-.205-.135.214.214 0 0 1-.017-.084v-.25c0-.12.1-.218.222-.218h.254Zm-10.485 0a.22.22 0 0 1 .223.219v.25a.216.216 0 0 1-.066.154.225.225 0 0 1-.157.064h-.255a.225.225 0 0 1-.157-.064.216.216 0 0 1-.065-.155v-.25c0-.12.1-.218.222-.218h.255Zm12.39 0a.22.22 0 0 1 .222.219v.25a.212.212 0 0 1-.065.154.222.222 0 0 1-.157.064h-.254a.225.225 0 0 1-.158-.064.218.218 0 0 1-.064-.155v-.25c0-.12.1-.218.222-.218h.254Zm-3.812 0a.22.22 0 0 1 .221.219v.25a.214.214 0 0 1-.064.154.222.222 0 0 1-.157.064h-.255a.225.225 0 0 1-.157-.064.216.216 0 0 1-.066-.155v-.25c0-.12.1-.218.223-.218h.255Zm-11.438 0a.22.22 0 0 1 .223.219v.25a.216.216 0 0 1-.065.154.225.225 0 0 1-.158.064h-.254a.225.225 0 0 1-.158-.064.218.218 0 0 1-.064-.155v-.25c0-.12.1-.218.222-.218h.254Zm12.39 0a.22.22 0 0 1 .222.219v.25a.214.214 0 0 1-.064.154.224.224 0 0 1-.157.064h-.255a.225.225 0 0 1-.157-.064.218.218 0 0 1-.065-.155v-.25c0-.12.1-.218.222-.218h.255Zm-2.86 0a.22.22 0 0 1 .223.219v.25a.214.214 0 0 1-.065.154.222.222 0 0 1-.157.064h-.255a.225.225 0 0 1-.205-.135.214.214 0 0 1-.017-.084v-.25c0-.12.1-.218.222-.218h.255Zm-10.483 0a.22.22 0 0 1 .221.219v.25a.212.212 0 0 1-.064.154.222.222 0 0 1-.157.064h-.255a.226.226 0 0 1-.157-.064.218.218 0 0 1-.065-.155v-.25c0-.12.1-.218.222-.218h.255Zm4.765 0a.22.22 0 0 1 .222.219v.25a.214.214 0 0 1-.065.154.222.222 0 0 1-.157.064h-.254a.225.225 0 0 1-.158-.064.216.216 0 0 1-.065-.155v-.25c0-.12.1-.218.223-.218h.254Zm1.906 0a.22.22 0 0 1 .223.219v.25a.215.215 0 0 1-.065.154.223.223 0 0 1-.158.064h-.254a.225.225 0 0 1-.158-.064.216.216 0 0 1-.065-.155v-.25c0-.12.1-.218.223-.218h.254Zm-5.718-.934a.22.22 0 0 1 .222.217v.25c0 .12-.1.218-.223.218h-.254a.225.225 0 0 1-.157-.064.218.218 0 0 1-.065-.154v-.25c0-.12.1-.217.222-.217h.255Zm10.484 0a.22.22 0 0 1 .222.217v.25c0 .12-.1.218-.222.218h-.255a.225.225 0 0 1-.157-.064.218.218 0 0 1-.065-.154v-.25c0-.12.1-.217.222-.217h.255Zm-1.906 0a.22.22 0 0 1 .223.217v.25c0 .12-.1.218-.223.218h-.255a.225.225 0 0 1-.157-.064.216.216 0 0 1-.065-.154v-.25c0-.12.1-.217.222-.217h.255Zm-1.906 0a.22.22 0 0 1 .222.217v.25c0 .12-.1.218-.222.218h-.255a.226.226 0 0 1-.157-.064.218.218 0 0 1-.065-.154v-.25c0-.12.1-.217.222-.217h.255Zm-3.813 0a.22.22 0 0 1 .223.217v.25c0 .12-.1.218-.223.218h-.254a.225.225 0 0 1-.158-.064.216.216 0 0 1-.065-.154v-.25c0-.12.1-.217.223-.217h.254Zm10.484 0a.22.22 0 0 1 .223.217v.25c0 .12-.1.218-.223.218h-.254a.225.225 0 0 1-.157-.064.216.216 0 0 1-.066-.154v-.25c0-.12.1-.217.223-.217h.255Zm-11.437 0a.22.22 0 0 1 .222.217v.25c0 .12-.1.218-.222.218h-.254a.225.225 0 0 1-.157-.064.218.218 0 0 1-.065-.154v-.25c0-.12.1-.217.222-.217h.254Zm2.86 0a.22.22 0 0 1 .222.217v.25c0 .12-.1.218-.222.218h-.255a.225.225 0 0 1-.157-.064.218.218 0 0 1-.065-.154v-.25c0-.12.1-.217.222-.217h.255Zm7.625 0a.22.22 0 0 1 .221.217v.25c0 .12-.1.218-.221.218h-.255a.225.225 0 0 1-.157-.064.218.218 0 0 1-.065-.154v-.25c0-.12.1-.217.222-.217h.255Zm-6.672 0a.22.22 0 0 1 .223.217v.25c0 .12-.1.218-.223.218h-.255a.225.225 0 0 1-.157-.064.216.216 0 0 1-.065-.154v-.25c0-.12.1-.217.222-.217h.255Zm-6.672 0a.22.22 0 0 1 .222.217v.25c0 .12-.1.218-.222.218h-.254a.225.225 0 0 1-.206-.134.212.212 0 0 1-.016-.084v-.25c0-.12.1-.217.222-.217h.254Zm12.39 0a.22.22 0 0 1 .223.217v.25c0 .12-.1.218-.222.218h-.255a.225.225 0 0 1-.157-.064.216.216 0 0 1-.066-.154v-.25c0-.12.1-.217.223-.217h.255Zm-1.905 0a.22.22 0 0 1 .222.217v.25c0 .12-.1.218-.222.218h-.255a.225.225 0 0 1-.205-.134.214.214 0 0 1-.017-.084v-.25c0-.12.1-.217.222-.217h.255Zm-8.579 0a.22.22 0 0 1 .222.217v.25c0 .12-.1.218-.222.218h-.254a.225.225 0 0 1-.158-.064.216.216 0 0 1-.065-.154v-.25c0-.12.1-.217.223-.217h.254Zm2.86 0a.22.22 0 0 1 .222.217v.25c0 .12-.1.218-.222.218h-.255a.225.225 0 0 1-.157-.064.216.216 0 0 1-.065-.154v-.25c0-.12.1-.217.222-.217h.255Zm-5.719 0a.22.22 0 0 1 .223.217v.25c0 .12-.1.218-.223.218h-.254a.225.225 0 0 1-.158-.064.216.216 0 0 1-.065-.154v-.25c0-.12.1-.217.223-.217h.254Zm9.532 0a.22.22 0 0 1 .222.217v.25c0 .12-.1.218-.222.218h-.255a.225.225 0 0 1-.157-.064.218.218 0 0 1-.065-.154v-.25c0-.12.1-.217.222-.217h.255Zm-10.485 0a.22.22 0 0 1 .222.217v.25c0 .12-.1.218-.222.218h-.254a.225.225 0 0 1-.157-.064.218.218 0 0 1-.065-.154v-.25c0-.12.1-.217.222-.217h.254Zm9.532-.935a.22.22 0 0 1 .222.218v.25c0 .12-.1.217-.222.217h-.255a.224.224 0 0 1-.157-.063.216.216 0 0 1-.065-.154v-.25c0-.12.1-.218.222-.218h.255Zm-3.813 0a.22.22 0 0 1 .223.218v.25c0 .12-.1.217-.223.217h-.255a.225.225 0 0 1-.157-.063.216.216 0 0 1-.065-.154v-.25c0-.12.1-.218.222-.218h.255Zm7.625 0a.22.22 0 0 1 .221.218v.25c0 .12-.099.217-.221.217h-.255a.227.227 0 0 1-.157-.063.218.218 0 0 1-.065-.154v-.25c0-.12.1-.218.222-.218h.255Zm-9.532 0a.22.22 0 0 1 .222.218v.25c0 .12-.1.217-.222.217h-.254a.225.225 0 0 1-.157-.063.216.216 0 0 1-.066-.154v-.25c0-.12.1-.218.223-.218h.254Zm8.579 0a.22.22 0 0 1 .222.218v.25c0 .12-.1.217-.222.217h-.255a.224.224 0 0 1-.157-.063.215.215 0 0 1-.065-.154v-.25c0-.12.1-.218.222-.218h.255Zm-1.906 0a.22.22 0 0 1 .222.218v.25c0 .12-.1.217-.222.217h-.255a.224.224 0 0 1-.157-.063.216.216 0 0 1-.065-.154v-.25c0-.12.1-.218.222-.218h.255Zm-2.86 0a.22.22 0 0 1 .222.218v.25c0 .12-.1.217-.222.217h-.255a.224.224 0 0 1-.157-.063.216.216 0 0 1-.065-.154v-.25c0-.12.1-.218.222-.218h.255Zm.953 0a.22.22 0 0 1 .223.218v.25c0 .12-.1.217-.223.217h-.255a.225.225 0 0 1-.157-.063.216.216 0 0 1-.065-.154v-.25c0-.12.1-.218.222-.218h.255Zm-5.719 0a.22.22 0 0 1 .223.218v.25c0 .12-.1.217-.223.217h-.254a.224.224 0 0 1-.157-.063.216.216 0 0 1-.065-.154v-.25c0-.12.1-.218.222-.218h.254Zm-.953 0a.22.22 0 0 1 .222.218v.25c0 .12-.1.217-.222.217h-.254a.224.224 0 0 1-.157-.063.215.215 0 0 1-.065-.154v-.25c0-.12.1-.218.222-.218h.254Zm9.532 0a.22.22 0 0 1 .222.218v.25c0 .12-.1.217-.222.217H51.4a.225.225 0 0 1-.157-.063.216.216 0 0 1-.066-.154v-.25c0-.12.1-.218.223-.218h.255Zm-4.766 0a.22.22 0 0 1 .222.218v.25c0 .12-.1.217-.222.217h-.255a.225.225 0 0 1-.157-.063.216.216 0 0 1-.065-.154v-.25c0-.12.1-.218.222-.218h.255Zm-1.906 0a.22.22 0 0 1 .222.218v.25c0 .12-.1.217-.222.217h-.255a.224.224 0 0 1-.156-.063.216.216 0 0 1-.065-.154v-.25c0-.12.1-.218.221-.218h.255Zm3.813-.934a.22.22 0 0 1 .223.218v.25c0 .12-.1.218-.223.218h-.255a.225.225 0 0 1-.157-.064.216.216 0 0 1-.066-.154v-.25c0-.12.1-.218.223-.218h.255Zm-3.813 0a.22.22 0 0 1 .222.218v.25c0 .12-.1.218-.222.218h-.255a.224.224 0 0 1-.156-.064.216.216 0 0 1-.065-.154v-.25c0-.12.1-.218.221-.218h.255Zm2.86 0a.22.22 0 0 1 .222.218v.25c0 .12-.1.218-.222.218h-.255a.224.224 0 0 1-.157-.064.216.216 0 0 1-.065-.154v-.25c0-.12.1-.218.222-.218h.255Zm-.953 0a.22.22 0 0 1 .222.218v.25c0 .12-.1.218-.222.218h-.255a.225.225 0 0 1-.157-.064.216.216 0 0 1-.066-.154v-.25c0-.12.1-.218.223-.218h.255Zm-3.813 0a.22.22 0 0 1 .223.218v.25c0 .12-.1.218-.223.218h-.254a.224.224 0 0 1-.157-.064.216.216 0 0 1-.065-.154v-.25c0-.12.1-.218.222-.218h.254Zm-.953 0a.22.22 0 0 1 .222.218v.25c0 .12-.1.218-.222.218h-.254a.224.224 0 0 1-.157-.064.215.215 0 0 1-.065-.154v-.25c0-.12.1-.218.222-.218h.254Zm7.625 0a.22.22 0 0 1 .222.218v.25c0 .12-.1.218-.222.218h-.255a.224.224 0 0 1-.157-.064.216.216 0 0 1-.065-.154v-.25c0-.12.1-.218.222-.218h.255Zm-3.813 0a.22.22 0 0 1 .223.218v.25c0 .12-.1.218-.223.218h-.255a.225.225 0 0 1-.157-.064.216.216 0 0 1-.065-.154v-.25c0-.12.1-.218.222-.218h.255Zm4.766 0a.22.22 0 0 1 .222.218v.25c0 .12-.1.218-.222.218h-.255a.224.224 0 0 1-.157-.064.216.216 0 0 1-.065-.154v-.25c0-.12.1-.218.222-.218h.255Zm-6.672 0a.22.22 0 0 1 .222.218v.25c0 .12-.1.218-.222.218h-.255a.225.225 0 0 1-.157-.064.216.216 0 0 1-.065-.154v-.25c0-.12.1-.218.223-.218h.254Zm7.625 0a.22.22 0 0 1 .222.218v.25c0 .12-.1.218-.222.218H51.4a.225.225 0 0 1-.157-.064.216.216 0 0 1-.066-.154v-.25c0-.12.1-.218.223-.218h.255Zm-3.813-.934a.22.22 0 0 1 .222.217v.25c0 .12-.1.218-.222.218h-.255a.225.225 0 0 1-.157-.064.218.218 0 0 1-.065-.154v-.25c0-.12.1-.217.222-.217h.255Zm-2.86 0a.22.22 0 0 1 .222.217v.25c0 .12-.1.218-.222.218h-.254a.225.225 0 0 1-.157-.064.218.218 0 0 1-.065-.154v-.25c0-.12.1-.217.222-.217h.254Zm.953 0a.22.22 0 0 1 .223.217v.25c0 .12-.1.218-.223.218h-.254a.225.225 0 0 1-.158-.064.216.216 0 0 1-.065-.154v-.25c0-.12.1-.217.223-.217h.254Zm-2.86 0a.22.22 0 0 1 .223.217v.25c0 .12-.1.218-.223.218h-.254a.225.225 0 0 1-.157-.064.218.218 0 0 1-.065-.154v-.25c0-.12.1-.217.222-.217h.255Zm.953 0a.22.22 0 0 1 .222.217v.25c0 .12-.1.218-.221.218h-.255a.225.225 0 0 1-.158-.064.216.216 0 0 1-.065-.154v-.25c0-.12.1-.217.223-.217h.255Zm2.86 0a.22.22 0 0 1 .222.217v.25c0 .12-.1.218-.222.218h-.254a.225.225 0 0 1-.158-.064.216.216 0 0 1-.065-.154v-.25c0-.12.1-.217.223-.217h.254Zm2.86 0a.22.22 0 0 1 .222.217v.25c0 .12-.1.218-.222.218h-.255a.226.226 0 0 1-.157-.064.218.218 0 0 1-.065-.154v-.25c0-.12.1-.217.222-.217h.255Zm.953 0a.22.22 0 0 1 .223.217v.25c0 .12-.1.218-.223.218h-.255a.225.225 0 0 1-.157-.064.218.218 0 0 1-.065-.154v-.25c0-.12.1-.217.222-.217h.255Zm-1.906 0a.22.22 0 0 1 .223.217v.25c0 .12-.1.218-.223.218h-.255a.225.225 0 0 1-.157-.064.216.216 0 0 1-.065-.154v-.25c0-.12.1-.217.222-.217h.255Zm.953-.935a.22.22 0 0 1 .222.219v.25c0 .12-.1.217-.222.217h-.255a.224.224 0 0 1-.157-.064.216.216 0 0 1-.065-.154v-.25c0-.12.1-.218.222-.218h.255Zm-.953 0a.22.22 0 0 1 .223.219v.25c0 .12-.1.217-.223.217h-.255a.225.225 0 0 1-.157-.064.216.216 0 0 1-.065-.154v-.25c0-.12.1-.218.222-.218h.255Zm-.953 0a.22.22 0 0 1 .222.219v.25c0 .12-.1.217-.222.217h-.255a.224.224 0 0 1-.157-.064.216.216 0 0 1-.065-.154v-.25c0-.12.1-.218.222-.218h.255Zm-2.86 0a.22.22 0 0 1 .222.219v.25c0 .12-.1.217-.222.217h-.254a.224.224 0 0 1-.157-.064.215.215 0 0 1-.065-.154v-.25c0-.12.1-.218.222-.218h.254Zm.953 0a.22.22 0 0 1 .223.219v.25c0 .12-.1.217-.223.217h-.254a.225.225 0 0 1-.158-.064.216.216 0 0 1-.065-.154v-.25c0-.12.1-.218.223-.218h.254Zm-1.906 0a.22.22 0 0 1 .222.219v.25c0 .12-.1.217-.222.217h-.254a.225.225 0 0 1-.157-.064.216.216 0 0 1-.066-.154v-.25c0-.12.1-.218.223-.218h.254Zm-.953 0a.22.22 0 0 1 .223.219v.25c0 .12-.1.217-.223.217h-.254a.224.224 0 0 1-.157-.064.216.216 0 0 1-.065-.154v-.25c0-.12.1-.218.222-.218h.254Zm3.813 0a.22.22 0 0 1 .222.219v.25c0 .12-.1.217-.222.217h-.255a.225.225 0 0 1-.157-.064.216.216 0 0 1-.065-.154v-.25c0-.12.1-.218.222-.218h.255Zm.953-.934a.22.22 0 0 1 .222.217v.25c0 .12-.1.218-.222.218h-.255a.225.225 0 0 1-.157-.064.218.218 0 0 1-.065-.154v-.25c0-.12.1-.217.222-.217h.255Zm-3.813 0a.22.22 0 0 1 .223.217v.25c0 .12-.1.218-.223.218h-.254a.225.225 0 0 1-.158-.064.216.216 0 0 1-.065-.154v-.25c0-.12.1-.217.223-.217h.254Zm2.86 0a.22.22 0 0 1 .222.217v.25c0 .12-.1.218-.222.218h-.255a.225.225 0 0 1-.157-.064.216.216 0 0 1-.065-.154v-.25c0-.12.1-.217.222-.217h.255Zm-.953 0a.22.22 0 0 1 .223.217v.25c0 .12-.1.218-.223.218h-.255a.225.225 0 0 1-.157-.064.216.216 0 0 1-.065-.154v-.25c0-.12.1-.217.222-.217h.255Zm2.86 0a.22.22 0 0 1 .223.217v.25c0 .12-.1.218-.223.218h-.255a.225.225 0 0 1-.157-.064.216.216 0 0 1-.066-.154v-.25c0-.12.1-.217.223-.217h.255Zm-3.813 0a.22.22 0 0 1 .222.217v.25c0 .12-.1.218-.222.218h-.255a.225.225 0 0 1-.157-.064.218.218 0 0 1-.064-.154v-.25c0-.12.1-.217.221-.217h.255Zm4.766 0a.22.22 0 0 1 .222.217v.25c0 .12-.1.218-.222.218h-.255a.225.225 0 0 1-.205-.134.214.214 0 0 1-.017-.084v-.25c0-.12.1-.217.222-.217h.255Zm-6.672 0a.22.22 0 0 1 .223.217v.25c0 .12-.1.218-.223.218h-.254a.226.226 0 0 1-.158-.064.218.218 0 0 1-.064-.154v-.25c0-.12.1-.217.222-.217h.254Zm1.906-.935a.22.22 0 0 1 .222.218v.25c0 .12-.1.217-.222.217h-.255a.224.224 0 0 1-.156-.064.216.216 0 0 1-.065-.153v-.25c0-.12.1-.218.221-.218h.255Zm-1.906 0a.22.22 0 0 1 .223.218v.25c0 .12-.1.217-.223.217h-.254a.224.224 0 0 1-.157-.064.216.216 0 0 1-.065-.153v-.25c0-.12.1-.218.222-.218h.254Zm3.813 0a.22.22 0 0 1 .222.218v.25c0 .12-.1.217-.222.217h-.255a.225.225 0 0 1-.157-.064.216.216 0 0 1-.066-.153v-.25c0-.12.1-.218.223-.218h.255Zm-.953 0a.22.22 0 0 1 .223.218v.25c0 .12-.1.217-.223.217h-.255a.226.226 0 0 1-.157-.063.219.219 0 0 1-.066-.154v-.25c0-.12.1-.218.223-.218h.255Zm2.86 0a.22.22 0 0 1 .222.218v.25c0 .12-.1.217-.222.217h-.255a.225.225 0 0 1-.157-.064.216.216 0 0 1-.066-.153v-.25c0-.12.1-.218.223-.218h.255Zm-.953 0a.22.22 0 0 1 .221.218v.25c0 .12-.099.217-.221.217h-.255a.224.224 0 0 1-.157-.064.216.216 0 0 1-.065-.153v-.25c0-.12.1-.218.222-.218h.255Zm-3.813 0a.22.22 0 0 1 .223.218v.25c0 .12-.1.217-.223.217h-.255a.225.225 0 0 1-.157-.064.216.216 0 0 1-.065-.153v-.25c0-.12.1-.218.222-.218h.255Zm3.813-.934a.22.22 0 0 1 .221.218v.25a.22.22 0 0 1-.221.218h-.255a.224.224 0 0 1-.157-.064.216.216 0 0 1-.065-.154v-.25c0-.12.1-.218.222-.218h.255Zm-.953 0a.22.22 0 0 1 .222.218v.25c0 .12-.1.218-.222.218h-.255a.225.225 0 0 1-.157-.064.216.216 0 0 1-.066-.154v-.25c0-.12.1-.218.223-.218h.255Zm-8.579 0a.22.22 0 0 1 .223.218v.25c0 .12-.1.218-.223.218h-.254a.224.224 0 0 1-.157-.064.216.216 0 0 1-.065-.154v-.25c0-.12.1-.218.222-.218h.254Zm.953 0a.22.22 0 0 1 .222.218v.25c0 .12-.1.218-.222.218h-.254a.224.224 0 0 1-.157-.064.215.215 0 0 1-.065-.154v-.25c0-.12.1-.218.222-.218h.254Zm9.532 0a.22.22 0 0 1 .222.218v.25c0 .12-.1.218-.222.218h-.255a.225.225 0 0 1-.157-.064.216.216 0 0 1-.066-.154v-.25c0-.12.1-.218.223-.218h.255Zm-4.766 0a.22.22 0 0 1 .223.218v.25c0 .12-.1.218-.223.218h-.255a.225.225 0 0 1-.157-.064.216.216 0 0 1-.065-.154v-.25c0-.12.1-.218.222-.218h.255Zm.953 0a.22.22 0 0 1 .222.218v.25c0 .12-.1.218-.222.218h-.255a.224.224 0 0 1-.157-.064.216.216 0 0 1-.065-.154v-.25c0-.12.1-.218.222-.218h.255Zm-1.906 0a.22.22 0 0 1 .223.218v.25c0 .12-.1.218-.223.218h-.255a.224.224 0 0 1-.157-.064.215.215 0 0 1-.064-.154v-.25a.22.22 0 0 1 .221-.218h.255Zm2.86 0a.22.22 0 0 1 .222.218v.25c0 .12-.1.218-.222.218h-.255a.226.226 0 0 1-.157-.064.219.219 0 0 1-.066-.154v-.25c0-.12.1-.218.223-.218h.255Zm-.953-.934a.22.22 0 0 1 .222.217v.25c0 .12-.1.218-.222.218h-.255a.225.225 0 0 1-.157-.064.218.218 0 0 1-.065-.154v-.25c0-.12.1-.217.222-.217h.255Zm-.953 0a.22.22 0 0 1 .223.217v.25c0 .12-.1.218-.223.218h-.255a.226.226 0 0 1-.157-.064.217.217 0 0 1-.066-.154v-.25c0-.12.1-.217.223-.217h.255Zm-3.813 0a.22.22 0 0 1 .222.217v.25c0 .12-.1.218-.222.218h-.255a.225.225 0 0 1-.205-.135.214.214 0 0 1-.017-.083v-.25c0-.12.1-.217.223-.217h.254Zm.953 0a.22.22 0 0 1 .223.217v.25c0 .12-.1.218-.223.218h-.255a.225.225 0 0 1-.157-.064.218.218 0 0 1-.064-.154v-.25c0-.12.1-.217.221-.217h.255Zm1.906 0a.22.22 0 0 1 .223.217v.25c0 .12-.1.218-.223.218h-.255a.225.225 0 0 1-.205-.135.212.212 0 0 1-.017-.083v-.25c0-.12.1-.217.222-.217h.255Zm2.86 0a.22.22 0 0 1 .222.217v.25c0 .12-.1.218-.222.218h-.255a.225.225 0 0 1-.157-.064.216.216 0 0 1-.066-.154v-.25c0-.12.1-.217.223-.217h.255Zm2.86 0a.22.22 0 0 1 .222.217v.25c0 .12-.1.218-.223.218h-.254a.225.225 0 0 1-.158-.064.216.216 0 0 1-.065-.154v-.25c0-.12.1-.217.223-.217h.254Zm-6.672 0a.22.22 0 0 1 .222.217v.25c0 .12-.1.218-.222.218h-.255a.225.225 0 0 1-.157-.064.218.218 0 0 1-.065-.154v-.25c0-.12.1-.217.222-.217h.255Zm5.718 0a.22.22 0 0 1 .222.217v.25c0 .12-.1.218-.222.218h-.254a.226.226 0 0 1-.157-.064.218.218 0 0 1-.065-.154v-.25c0-.12.1-.217.222-.217h.254Zm-.953 0a.22.22 0 0 1 .222.217v.25c0 .12-.1.218-.221.218h-.255a.226.226 0 0 1-.206-.135.215.215 0 0 1-.017-.083v-.25c0-.12.1-.217.223-.217h.255Zm-9.53 0a.22.22 0 0 1 .221.217v.25c0 .12-.1.218-.222.218h-.254a.225.225 0 0 1-.158-.064.216.216 0 0 1-.065-.154v-.25c0-.12.1-.217.223-.217h.254Zm.952 0a.22.22 0 0 1 .223.217v.25c0 .12-.1.218-.223.218h-.255a.225.225 0 0 1-.157-.064.218.218 0 0 1-.064-.154v-.25c0-.12.1-.217.221-.217h.255Zm.953 0a.22.22 0 0 1 .222.217v.25c0 .12-.1.218-.222.218h-.255a.225.225 0 0 1-.157-.064.218.218 0 0 1-.064-.154v-.25c0-.12.1-.217.221-.217h.255Zm8.578-.935a.22.22 0 0 1 .222.219v.25c0 .12-.1.217-.222.217h-.254a.224.224 0 0 1-.157-.064.216.216 0 0 1-.065-.154v-.25c0-.12.1-.218.222-.218h.254Zm-4.765 0a.22.22 0 0 1 .222.219v.25a.22.22 0 0 1-.222.217h-.255a.224.224 0 0 1-.157-.064.216.216 0 0 1-.065-.154v-.25c0-.12.1-.218.222-.218h.255Zm.953 0a.22.22 0 0 1 .222.219v.25c0 .12-.1.217-.222.217h-.255a.225.225 0 0 1-.157-.064.216.216 0 0 1-.066-.154v-.25c0-.12.1-.218.223-.218h.255Zm.953 0a.22.22 0 0 1 .222.219v.25c0 .12-.1.217-.222.217h-.255a.224.224 0 0 1-.157-.064.216.216 0 0 1-.065-.154v-.25c0-.12.1-.218.222-.218h.255Zm1.906 0a.22.22 0 0 1 .222.219v.25c0 .12-.1.217-.222.217h-.255a.225.225 0 0 1-.157-.064.216.216 0 0 1-.066-.154v-.25c0-.12.1-.218.223-.218h.255Zm-5.719 0a.22.22 0 0 1 .223.219v.25c0 .12-.1.217-.223.217h-.255a.225.225 0 0 1-.205-.134.214.214 0 0 1-.017-.084v-.25c0-.12.1-.218.222-.218h.255Zm-1.906 0a.22.22 0 0 1 .222.219v.25c0 .12-.1.217-.222.217h-.255a.224.224 0 0 1-.156-.064.216.216 0 0 1-.065-.154v-.25c0-.12.1-.218.221-.218h.255Zm-.953 0a.22.22 0 0 1 .223.219v.25c0 .12-.1.217-.223.217h-.255a.224.224 0 0 1-.156-.064.216.216 0 0 1-.065-.154v-.25c0-.12.1-.218.221-.218h.255Zm3.813 0a.22.22 0 0 1 .222.219v.25c0 .12-.1.217-.222.217h-.255a.224.224 0 0 1-.157-.064.216.216 0 0 1-.065-.154v-.25c0-.12.1-.218.222-.218h.255Zm-1.906 0a.22.22 0 0 1 .222.219v.25c0 .12-.1.217-.222.217h-.255a.224.224 0 0 1-.157-.064.215.215 0 0 1-.065-.154v-.25c0-.12.1-.218.222-.218h.255Zm5.718 0a.22.22 0 0 1 .223.219v.25c0 .12-.1.217-.223.217h-.254a.226.226 0 0 1-.157-.064.218.218 0 0 1-.066-.154v-.25c0-.12.1-.218.223-.218h.255Zm-4.765-.934a.22.22 0 0 1 .223.218v.25c0 .12-.1.217-.223.217h-.255a.224.224 0 0 1-.157-.063.216.216 0 0 1-.065-.154v-.25c0-.12.1-.218.222-.218h.255Zm.953 0a.22.22 0 0 1 .222.218v.25c0 .12-.1.217-.222.217h-.255a.224.224 0 0 1-.157-.063.216.216 0 0 1-.065-.154v-.25c0-.12.1-.218.222-.218h.255Zm.953 0a.22.22 0 0 1 .222.218v.25a.22.22 0 0 1-.222.217h-.255a.224.224 0 0 1-.157-.063.216.216 0 0 1-.065-.154v-.25c0-.12.1-.218.222-.218h.255Zm2.86 0a.22.22 0 0 1 .222.218v.25c0 .12-.1.217-.223.217h-.254a.226.226 0 0 1-.157-.063.218.218 0 0 1-.066-.154v-.25c0-.12.1-.218.223-.218h.255Zm-1.907 0a.22.22 0 0 1 .223.218v.25c0 .12-.1.217-.223.217h-.254a.225.225 0 0 1-.157-.063.216.216 0 0 1-.066-.154v-.25c0-.12.1-.218.223-.218h.255Zm2.86 0a.22.22 0 0 1 .222.218v.25c0 .12-.1.217-.222.217h-.254a.225.225 0 0 1-.157-.063.216.216 0 0 1-.066-.154v-.25c0-.12.1-.218.223-.218h.254Zm-1.906 0a.22.22 0 0 1 .222.218v.25c0 .12-.1.217-.222.217h-.254a.224.224 0 0 1-.157-.063.216.216 0 0 1-.065-.154v-.25c0-.12.1-.218.222-.218h.254Zm-4.765 0a.22.22 0 0 1 .222.218v.25c0 .12-.1.217-.222.217h-.255a.224.224 0 0 1-.157-.063.216.216 0 0 1-.065-.154v-.25c0-.12.1-.218.222-.218h.255Zm-.953 0a.22.22 0 0 1 .222.218v.25c0 .12-.1.217-.222.217h-.255a.224.224 0 0 1-.157-.063.216.216 0 0 1-.065-.154v-.25c0-.12.1-.218.222-.218h.255Zm1.906-.935a.22.22 0 0 1 .222.218v.25c0 .12-.1.217-.222.217h-.255a.224.224 0 0 1-.157-.064.216.216 0 0 1-.065-.153v-.25c0-.12.1-.218.222-.218h.255Zm-.953 0a.22.22 0 0 1 .222.218v.25c0 .12-.1.217-.222.217h-.255a.224.224 0 0 1-.157-.064.216.216 0 0 1-.065-.153v-.25c0-.12.1-.218.222-.218h.255Zm1.906 0a.22.22 0 0 1 .221.218v.25c0 .12-.099.217-.221.217h-.255a.224.224 0 0 1-.157-.064.216.216 0 0 1-.065-.153v-.25c0-.12.1-.218.222-.218h.255Zm1.905 0a.22.22 0 0 1 .223.218v.25c0 .12-.1.217-.223.217h-.254a.225.225 0 0 1-.157-.064.216.216 0 0 1-.066-.153v-.25c0-.12.1-.218.223-.218h.255Zm-.952 0a.22.22 0 0 1 .222.218v.25c0 .12-.1.217-.222.217h-.255a.224.224 0 0 1-.157-.064.216.216 0 0 1-.065-.153v-.25c0-.12.1-.218.222-.218h.255Zm1.906 0a.22.22 0 0 1 .221.218v.25c0 .12-.1.217-.221.217h-.255a.224.224 0 0 1-.157-.064.216.216 0 0 1-.065-.153v-.25c0-.12.1-.218.222-.218h.255Zm.953 0a.22.22 0 0 1 .222.218v.25c0 .12-.1.217-.223.217h-.254a.226.226 0 0 1-.157-.063.219.219 0 0 1-.066-.154v-.25c0-.12.1-.218.223-.218h.255Zm-3.813-.934a.22.22 0 0 1 .222.218v.25c0 .12-.1.218-.222.218h-.255a.225.225 0 0 1-.157-.064.218.218 0 0 1-.065-.154v-.25c0-.12.1-.218.222-.218h.255Zm-.953 0a.22.22 0 0 1 .223.218v.25c0 .12-.1.218-.223.218h-.255a.225.225 0 0 1-.157-.064.216.216 0 0 1-.066-.154v-.25c0-.12.1-.218.223-.218h.255Zm1.906 0a.22.22 0 0 1 .222.218v.25a.22.22 0 0 1-.222.218h-.255a.225.225 0 0 1-.157-.064.218.218 0 0 1-.065-.154v-.25c0-.12.1-.218.222-.218h.255Zm1.906 0a.22.22 0 0 1 .222.218v.25c0 .12-.1.218-.222.218h-.255a.225.225 0 0 1-.157-.064.218.218 0 0 1-.065-.154v-.25c0-.12.1-.218.222-.218h.255Zm-.953 0a.22.22 0 0 1 .222.218v.25c0 .12-.1.218-.222.218h-.255a.226.226 0 0 1-.157-.064.217.217 0 0 1-.066-.154v-.25c0-.12.1-.218.223-.218h.255Zm-2.86-.934a.22.22 0 0 1 .223.217v.25c0 .12-.1.217-.223.217h-.255a.225.225 0 0 1-.205-.134.214.214 0 0 1-.017-.083v-.25c0-.12.1-.217.222-.217h.255Zm.953 0a.22.22 0 0 1 .222.217v.25c0 .12-.1.217-.222.217h-.255a.224.224 0 0 1-.156-.063.216.216 0 0 1-.066-.154v-.25c0-.12.1-.217.222-.217h.255Z" fill="#78AAE5"/></svg>