<svg width="160" height="23" viewBox="0 0 160 23" fill="none" xmlns="http://www.w3.org/2000/svg"><mask id="a" style="mask-type:alpha" maskUnits="userSpaceOnUse" x="124" y="0" width="29" height="19"><path d="M124.5.81h28.054v17.768H124.5V.81Z" fill="#fff"/></mask><g mask="url(#a)"><path fill-rule="evenodd" clip-rule="evenodd" d="M141.509 18.525a2.338 2.338 0 0 0-2.158-1.448h-6.297l-2.013.02c-1.619 0-2.967-.134-4.084-1.093-2-1.5-.963-5.737 3.412-5.737.473 0 .987.05 1.539.158 0-2.134 1.709-3.588 3.895-3.588.653 0 1.349.13 2.054.41.481-2.993 3.621-4.84 6.799-4.951a9.86 9.86 0 0 1 .302-.005c2.038 0 4.069.726 5.418 2.366a2.063 2.063 0 0 0 2.177.661h.001C151.011 2.04 147.794.81 144.958.81c-.117 0-.235.002-.353.006-3.089.108-6.449 1.715-7.744 4.625a6.693 6.693 0 0 0-1.058-.085h-.001c-1.439 0-2.773.488-3.757 1.374a4.818 4.818 0 0 0-1.355 2.063 7.456 7.456 0 0 0-.321-.007h-.001c-3.253 0-5.037 1.877-5.623 3.633-.596 1.79-.081 3.688 1.283 4.74 1.553 1.308 3.401 1.419 5.013 1.419l.966-.01 1.047-.01h8.469l-.014-.033Z" fill="#3B424B"/></g><mask id="b" style="mask-type:alpha" maskUnits="userSpaceOnUse" x="0" y="4" width="8" height="15"><path d="M0 4.292h7.918v14.579H0V4.292Z" fill="#fff"/></mask><g mask="url(#b)"><path fill-rule="evenodd" clip-rule="evenodd" d="M2.661 13.97c0 1 .106 1.698.319 2.095.212.397.571.595 1.077.595.525 0 .921-.234 1.19-.703v-4.629c-.262-.5-.656-.749-1.18-.749-.488 0-.843.197-1.068.59-.225.394-.338 1.093-.338 2.098v.704ZM0 13.306c0-1.661.281-2.9.844-3.719.562-.818 1.38-1.228 2.454-1.228.78 0 1.43.338 1.95 1.013v-5.08h2.67v14.391H5.51l-.123-1.03c-.543.812-1.242 1.218-2.098 1.218-1.062 0-1.873-.406-2.431-1.218-.559-.812-.846-2.005-.858-3.579v-.768Z" fill="#9E292B"/></g><path fill-rule="evenodd" clip-rule="evenodd" d="M12.588 12.052v5.247h2.342c.65 0 1.165-.229 1.546-.686.382-.458.572-1.1.572-1.927 0-1.756-.693-2.634-2.08-2.634h-2.38Zm0-1.542h2.202c.593 0 1.073-.213 1.438-.642.365-.428.548-.997.548-1.706 0-.802-.166-1.387-.496-1.75-.331-.365-.837-.548-1.518-.548h-2.174v4.646Zm-1.714 8.361V4.292h3.888c1.243 0 2.178.324 2.806.971.627.647.942 1.62.942 2.914 0 .68-.16 1.282-.478 1.803-.318.52-.75.925-1.293 1.211.624.2 1.12.61 1.485 1.231.366.62.548 1.37.548 2.243 0 1.31-.336 2.337-1.007 3.084-.672.748-1.629 1.122-2.872 1.122h-4.02Z" fill="#3B424B"/><mask id="c" style="mask-type:alpha" maskUnits="userSpaceOnUse" x="0" y="0" width="160" height="23"><path d="M0 22.675h160V.81H0v21.865Z" fill="#fff"/></mask><g mask="url(#c)"><path fill-rule="evenodd" clip-rule="evenodd" d="M21.62 18.683h1.658v-10.7H21.62v10.7Zm1.79-13.388c0 .28-.079.515-.235.702-.157.188-.393.28-.712.28-.313 0-.547-.093-.703-.28a1.058 1.058 0 0 1-.234-.702c0-.28.078-.52.234-.713.156-.194.39-.29.703-.29.313 0 .548.098.707.295.16.2.245.45.24.708Zm2.987 13.388h1.659V4.293h-1.659v14.39Zm5.959-4.587c0 1.136.169 1.97.506 2.503.337.533.887.8 1.649.8.824 0 1.44-.414 1.845-1.244v-5.11c-.424-.81-1.036-1.216-1.836-1.216-.762 0-1.311.267-1.65.8-.337.534-.508 1.352-.514 2.456v1.011Zm-1.659-.941c0-1.561.292-2.751.876-3.57.584-.819 1.423-1.227 2.517-1.227.967 0 1.723.394 2.266 1.18V4.292h1.659v14.392h-1.518l-.084-1.087c-.543.85-1.321 1.274-2.334 1.274-1.049 0-1.871-.407-2.468-1.223-.596-.815-.902-1.965-.914-3.452v-1.04Zm15.422 4.638c-.55.718-1.352 1.077-2.408 1.077-.918 0-1.612-.316-2.08-.95-.468-.635-.706-1.558-.712-2.77V8.546h1.649v6.484c0 1.58.475 2.37 1.425 2.37 1.005 0 1.698-.45 2.079-1.349V8.545h1.659v10.138h-1.575l-.037-.89Zm6.052-9.247.047 1.096c.643-.856 1.465-1.283 2.464-1.283 1.793 0 2.701 1.196 2.726 3.588v6.737H55.76v-6.662c0-.793-.134-1.357-.399-1.69-.264-.335-.663-.502-1.194-.502a1.681 1.681 0 0 0-1.11.412 2.972 2.972 0 0 0-.792 1.078v7.364h-1.659V8.546h1.565Zm9.435 5.55c0 1.136.168 1.97.502 2.503.334.533.882.8 1.644.8.825 0 1.443-.42 1.855-1.263v-5.063c-.43-.83-1.044-1.244-1.836-1.244-.762 0-1.312.267-1.65.8-.336.534-.508 1.352-.515 2.456v1.011Zm-1.658-.941c0-1.58.287-2.774.862-3.584s1.415-1.213 2.52-1.213c1.03 0 1.814.44 2.352 1.322l.084-1.135h1.5v10.232c0 1.255-.323 2.219-.966 2.89-.643.672-1.54 1.008-2.689 1.008-.5 0-1.06-.124-1.682-.37-.62-.248-1.088-.552-1.4-.914l.674-1.143c.688.674 1.446 1.011 2.277 1.011 1.38 0 2.09-.752 2.127-2.257V17.68c-.537.793-1.3 1.189-2.286 1.189-1.05 0-1.868-.394-2.454-1.184-.587-.79-.895-1.927-.92-3.407v-1.124Zm15.093 2.933c0-.356-.134-.662-.403-.918-.268-.256-.787-.556-1.555-.9-.892-.368-1.522-.684-1.887-.946-.365-.263-.64-.56-.82-.895-.182-.335-.272-.732-.272-1.194 0-.825.3-1.51.904-2.057.604-.547 1.372-.82 2.31-.82.986 0 1.78.288 2.38.862.6.574.898 1.312.898 2.212h-1.648a1.628 1.628 0 0 0-.46-1.167c-.306-.321-.696-.482-1.17-.482-.488 0-.87.126-1.148.378-.279.252-.417.59-.417 1.013 0 .336.101.607.304.813.203.205.692.476 1.467.812 1.23.482 2.067.953 2.51 1.413.444.46.666 1.042.666 1.75 0 .881-.303 1.587-.909 2.116-.605.53-1.418.793-2.436.793-1.055 0-1.911-.303-2.568-.909-.656-.606-.983-1.374-.983-2.305h1.668c.019.563.19 1.003.516 1.321.325.319.78.478 1.367.478.55 0 .968-.123 1.256-.37.287-.247.43-.58.43-.998Zm7.72 1.368c.55 0 .99-.17 1.321-.51.331-.341.512-.826.544-1.458h1.565c-.038.975-.383 1.782-1.036 2.423-.652.64-1.45.96-2.394.96-1.255 0-2.212-.395-2.871-1.185-.66-.79-.989-1.966-.989-3.528v-1.115c0-1.53.329-2.693.984-3.49.655-.796 1.611-1.195 2.867-1.195 1.037 0 1.86.328 2.47.985.608.656.931 1.551.969 2.688h-1.565c-.037-.75-.217-1.312-.54-1.687-.321-.375-.766-.561-1.334-.561-.737 0-1.284.242-1.64.726-.355.483-.54 1.279-.552 2.384v1.293c0 1.193.176 2.037.529 2.53.352.494.91.74 1.672.74Zm5.856 1.227h1.658V4.293h-1.658v14.39Zm5.959-4.581c0 1.043.204 1.863.613 2.46.41.596.96.894 1.654.894 1.462 0 2.214-1.056 2.258-3.167v-1.143c0-1.037-.206-1.857-.618-2.46-.413-.602-.965-.903-1.658-.903-.681 0-1.227.301-1.636.904-.409.603-.613 1.419-.613 2.45v.965Zm-1.659-.956c0-1.474.358-2.64 1.073-3.5.715-.859 1.66-1.288 2.835-1.288 1.174 0 2.118.42 2.834 1.256.715.836 1.082 1.977 1.1 3.42v1.068c0 1.468-.355 2.63-1.067 3.485s-1.662 1.284-2.849 1.284c-1.174 0-2.116-.415-2.824-1.246-.708-.83-1.077-1.955-1.102-3.374v-1.105Zm15.535 4.647c-.551.718-1.353 1.077-2.408 1.077-.918 0-1.612-.316-2.08-.95-.468-.635-.706-1.558-.713-2.77V8.546h1.649v6.484c0 1.58.475 2.37 1.425 2.37 1.006 0 1.698-.45 2.079-1.349V8.545h1.659v10.138h-1.574l-.037-.89Zm5.798-3.697c0 1.136.169 1.97.506 2.503.337.533.887.8 1.649.8.825 0 1.44-.414 1.846-1.244v-5.11c-.425-.81-1.037-1.216-1.836-1.216-.763 0-1.312.267-1.65.8-.337.534-.509 1.352-.515 2.456v1.011Zm-1.658-.941c0-1.561.292-2.751.876-3.57.584-.819 1.423-1.227 2.516-1.227.968 0 1.724.394 2.267 1.18V4.292h1.658v14.392h-1.517l-.085-1.087c-.543.85-1.321 1.274-2.333 1.274-1.049 0-1.872-.407-2.468-1.223-.597-.815-.902-1.965-.914-3.452v-1.04Zm36.492 3-1.541.267a.583.583 0 0 1-.578-.24l-.523-.748a.588.588 0 0 1-.03-.621l.772-1.366c.085-.151.204-.282.346-.382l7.373-5.162a5.84 5.84 0 0 0-.924-.482 1.151 1.151 0 0 0-1.096.132l-6.183 4.33c-.099.07-.273.24-.326.376l-2.51 4.813c-.35.475.107 1.129.673.962l5.382-.713c.145-.003.365-.107.464-.177l6.189-4.333c.271-.19.457-.485.491-.813a3.807 3.807 0 0 0-.075-1.242l-7.434 5.205a1.17 1.17 0 0 1-.47.194Zm10.892-6.605c-.333-1.647-1.402-3.102-2.95-4.055a1.157 1.157 0 0 0-1.269.047l-.463.323-.291.204-.278.195c2.24.67 3.707 2.438 3.707 4.389 0 .315-.038.629-.112.935l1.184-.83a1.18 1.18 0 0 0 .472-1.208ZM148 14.93c.253.362.887.359 1.447-.034l7.223-5.058a4.664 4.664 0 0 0-.954-1.291l-7.19 5.035c-.56.391-.78.986-.526 1.348Z" fill="#3B424B"/></g></svg>