<svg xmlns="http://www.w3.org/2000/svg" viewBox="0 0 16 16" width="16" height="16"><path d="M10.153 3.212C8.45 3.283 6.775 4.495 6.51 6.431c-1.642-.807-3.18.267-3.173 2.058-3.038-.717-4.19 2.038-2.668 3.609.837.865 1.906.69 3.277.69h7.869c.394 0 .788.01 1.14 0A3.054 3.054 0 0016 9.73a3.03 3.03 0 00-.373-1.453c-.493.544-.978 1.082-1.418 1.569l-.138.065-2.165 1.013s-.186.17-.43.34c-.245.169-.54.35-.831.338-.57-.025-.963-.482-1.335-.892-.371-.41-.717-.774-1.143-.774-.213 0-.401.086-.59.23-.188.145-.371.347-.558.554-.187.208-.378.42-.595.587-.216.167-.464.287-.75.289a.944.944 0 01-.573-.215c-.163-.123-.305-.28-.443-.43a3.265 3.265 0 00-.406-.398c-.135-.101-.264-.159-.41-.157-.165 0-.46.182-.688.378-.228.197-.4.393-.4.393s.181-.21.426-.42.545-.44.86-.443c.219 0 .41.088.572.212.163.123.305.279.443.43.138.15.272.296.407.398.135.103.265.16.41.16.213 0 .401-.087.59-.233.189-.145.372-.347.559-.554.187-.208.377-.42.594-.587.217-.166.465-.285.752-.285.57 0 .969.45 1.341.861s.722.786 1.149.805c.152.01.44-.134.667-.291.227-.157.402-.317.402-.317l.783-2.228a.085.085 0 01.027-.038c.003-.01.008-.013.013-.02l.01-.011 1.423-1.574-.006-.02c-.386-2.628-2.12-3.698-3.824-3.627zm4.197 3.816L12.928 8.6a.28.28 0 01-.195.093c-.033 0-.064 0-.094-.01l-.355 1.002.627.566.965-.45a.29.29 0 01.052-.299l1.447-1.614a3.436 3.436 0 00-.107-.133l-.718.793-.636.703a.509.509 0 01-.712.047H13.2a.524.524 0 01-.152-.353.511.511 0 01.134-.371l1.32-1.46a2.303 2.303 0 00-.153-.085z"/></svg>