<svg version="1.1" xmlns="http://www.w3.org/2000/svg" viewBox="0 0 16 16" width="16px" height="16px"><defs transform="translate(-250.53 -310.35)"><linearGradient id="a"><stop stop-color="#b1063a" offset="0%"/><stop stop-color="#dd6108" offset="100%"/></linearGradient></defs><path d="m 10.153077,1039.5723 0,0 c -1.7041306,0.071 -3.3781978,1.2829 -3.64339,3.2187 -1.6412136,-0.8072 -3.179137,0.2671 -3.173073,2.0575 -3.03723917,-0.717 -4.18914343,2.0387 -2.66799077,3.6094 0.83747477,0.8648 1.90628277,0.6898 3.27698017,0.6898 l 7.8692056,0 c 0.394095,0 0.788582,0.01 1.139853,0 1.683574,0 3.045308,-1.3742 3.045338,-3.0578 -6e-4,-0.5203 -0.135389,-1.0165 -0.373441,-1.4532 -0.492134,0.5445 -0.977742,1.082 -1.41798,1.5688 l -0.137892,0.065 -2.164471,1.0136 a 0.13330576,0.13330552 0 0 1 -0.01406,0.014 c 0,0 -0.186401,0.1708 -0.430863,0.3399 -0.244462,0.169 -0.539541,0.3505 -0.830476,0.3379 -0.569124,-0.025 -0.962922,-0.4815 -1.3343858,-0.8918 -0.3714638,-0.4104 -0.7175052,-0.7739 -1.1437594,-0.7739 -0.2127614,0 -0.4008662,0.086 -0.589458,0.2305 -0.1885918,0.1445 -0.3716788,0.3462 -0.5585982,0.5535 -0.1869202,0.2074 -0.3776204,0.4205 -0.5941458,0.5872 -0.2165254,0.1666 -0.464675,0.2866 -0.751178,0.2886 -0.219403,0 -0.4097528,-0.091 -0.572661,-0.2148 -0.162908,-0.1237 -0.3044808,-0.2802 -0.4421912,-0.4309 -0.1377104,-0.1506 -0.271483,-0.2952 -0.4062534,-0.3969 -0.1347702,-0.1016 -0.264255,-0.1594 -0.409769,-0.1574 -0.1658312,0 -0.459924,0.1817 -0.6882868,0.3781 -0.228363,0.1964 -0.4000034,0.393 -0.4000034,0.393 a 0.13330576,0.13330552 0 1 1 -0.2007828,-0.175 c 0,0 0.181923,-0.2092 0.4269566,-0.4199 0.2450336,-0.2107 0.5445446,-0.4394 0.8589914,-0.443 0.2194782,0 0.4099576,0.088 0.5730518,0.2113 0.163094,0.123 0.3048002,0.2794 0.4425816,0.4301 0.1377814,0.1508 0.2716778,0.296 0.406644,0.3985 0.1349664,0.1024 0.2649414,0.1605 0.4105504,0.1605 0.212821,0 0.4011272,-0.088 0.5898484,-0.2336 0.1887216,-0.1452 0.3720212,-0.3469 0.558989,-0.5543 0.1869682,-0.2073 0.3774902,-0.4203 0.5941456,-0.5863 0.2166556,-0.166 0.4653956,-0.2855 0.7519594,-0.2855 0.5706282,0 0.9688018,0.4501 1.3410268,0.8613 0.3722248,0.4112 0.7216228,0.7859 1.1484468,0.8043 0.152301,0.01 0.439796,-0.1334 0.667193,-0.2907 0.227398,-0.1572 0.402347,-0.3171 0.402347,-0.3171 a 0.13330576,0.13330552 0 0 1 0.01445,-0.012 l 0.78321,-2.2282 c 0.0053,-0.015 0.01462,-0.028 0.02695,-0.038 0.0037,-0.01 0.0082,-0.013 0.01328,-0.019 l 0.01094,-0.012 1.422278,-1.5738 c -0.002,-0.01 -0.0038,-0.013 -0.0059,-0.019 -0.385912,-2.6285 -2.120119,-3.6984 -3.824251,-3.6274 z m 4.196909,3.8156 -1.421886,1.5723 c -0.0479,0.054 -0.117188,0.089 -0.195315,0.093 -0.03233,0 -0.06428,0 -0.09375,-0.011 l -0.355472,1.0027 0.62774,0.5664 0.964461,-0.4496 c -0.01156,-0.028 -0.01872,-0.059 -0.02031,-0.092 -0.004,-0.079 0.02411,-0.1519 0.07266,-0.207 l 1.446887,-1.6145 c -0.03466,-0.045 -0.07023,-0.09 -0.107423,-0.1336 l -0.717193,0.7938 -0.635943,0.7023 c -0.08756,0.098 -0.212583,0.1636 -0.354691,0.1707 -0.136359,0.01 -0.262299,-0.041 -0.358206,-0.123 l -4e-4,0 -4e-4,0 c -0.09171,-0.087 -0.144703,-0.2172 -0.151563,-0.3535 -0.0071,-0.1422 0.04465,-0.2735 0.133594,-0.3711 l 1.320714,-1.4602 c -0.0503,-0.03 -0.101236,-0.059 -0.153517,-0.085 l 0,0 z" transform="translate(0 -1036.36)"/></svg>