<svg width="239" height="60" viewBox="0 0 239 60" xmlns="http://www.w3.org/2000/svg" xmlns:xlink="http://www.w3.org/1999/xlink"><defs><path id="a" d="M0 .96h79.925v31.28H.001z"/></defs><g fill="none" fill-rule="evenodd"><path d="M48.246 40.27c0-.608-.223-1.104-.67-1.485-.448-.38-1.01-.728-1.685-1.042a67.108 67.108 0 00-2.2-.97 11.242 11.242 0 01-2.2-1.229 6.263 6.263 0 01-1.683-1.814c-.448-.724-.672-1.647-.672-2.77 0-.971.162-1.813.485-2.527a4.733 4.733 0 011.386-1.786c.598-.475 1.31-.828 2.127-1.057.819-.228 1.734-.342 2.742-.342 1.161 0 2.256.1 3.284.3 1.028.2 1.876.49 2.542.87l-1.228 3.285c-.419-.267-1.047-.51-1.885-.728a10.702 10.702 0 00-2.713-.329c-.914 0-1.614.181-2.099.544-.486.36-.729.848-.729 1.457 0 .571.225 1.046.672 1.428.448.38 1.01.733 1.685 1.055.675.324 1.408.657 2.198 1a11.9 11.9 0 012.2 1.241 6.356 6.356 0 011.686 1.801c.447.714.67 1.604.67 2.671 0 1.066-.175 1.984-.529 2.755a5.237 5.237 0 01-1.485 1.929c-.637.514-1.409.893-2.313 1.142-.905.247-1.899.37-2.984.37-1.428 0-2.685-.132-3.77-.4-1.084-.266-1.885-.531-2.4-.8l1.259-3.34c.208.113.478.237.812.372.333.132.71.256 1.128.37.42.114.861.21 1.33.285.466.078.946.115 1.44.115 1.162 0 2.052-.195 2.67-.587.62-.388.93-.983.93-1.784m17.721 5.484c-.942.192-1.909.286-2.899.286-1.2 0-2.337-.187-3.413-.557a7.313 7.313 0 01-2.841-1.799c-.819-.828-1.472-1.904-1.957-3.229-.484-1.322-.728-2.926-.728-4.811 0-1.961.27-3.603.815-4.928.541-1.321 1.247-2.388 2.112-3.197a7.768 7.768 0 012.9-1.742 10.14 10.14 0 013.198-.53c1.141 0 1.198 3.485.343 3.485-1.582 0-2.852.562-3.812 1.687-.962 1.122-1.443 2.864-1.443 5.225 0 1.028.114 1.966.342 2.814.229.847.576 1.57 1.044 2.169a4.794 4.794 0 001.74 1.4c.697.334 1.5.5 2.414.5.856 0 1.58-.086 2.171-.257.59-.172.956 3.294.014 3.484" fill="#5284B8"/><g transform="translate(22 13.4)"><mask id="b" fill="#fff"><use xlink:href="#a"/></mask><path d="M73.419 12.887l-.027-.087C72.185 4.493 66.887.96 61.552.96c-.17 0-.34.003-.512.01-5.502.231-10.911 4.184-11.767 10.497-1.225-.608-2.433-.89-3.564-.89a6.41 6.41 0 00-1.67.241c.126.207.243.423.34.662.35.873.424 1.772.424 2.372 0 .366-.027.705-.076 1.019.298-.138.623-.214.982-.214.541 0 1.13.157 1.749.464a4.079 4.079 0 003.725-.05 4.082 4.082 0 002.134-3.056c.593-4.38 4.421-6.822 7.894-6.967.113-.006.226-.009.34-.009 4.19 0 7.032 3.044 7.804 8.347.03.21.076.414.139.614.01.041.031.104.04.134a4.08 4.08 0 002.49 2.586c2.283.831 3.818 3.045 3.821 5.504 0 3.248-2.581 5.89-5.755 5.89-.032 0-.063 0-.096.002a39.68 39.68 0 01-.784.008c-.344 0-.698-.004-1.057-.007a115.72 115.72 0 00-1.2-.008l-.545.003h-19.65a5.87 5.87 0 01.463 1.832c.089.877.037 1.615-.105 2.248h19.292l.545-.003c.771 0 1.533.015 2.257.015.3 0 .595-.003.88-.01 5.438 0 9.835-4.48 9.835-9.97-.004-4.184-2.606-7.918-6.506-9.337zm-57.826 2.846H9.767v16.506H5.854V15.733H.001v-3.486h15.592v3.486z" fill="#185888" mask="url(#b)"/></g><path d="M117.794 15.642h-3.096V27h-1.35V15.642h-3.096V14.4h7.542v1.242zm10.695 5.544h-4.644V27h-1.35V14.4h1.35v5.544h4.644V14.4h1.35V27h-1.35v-5.814zm12.73-6.786h1.295v8.442c0 1.524-.297 2.625-.89 3.303-.595.678-1.438 1.017-2.53 1.017-1.272 0-2.199-.33-2.78-.99-.583-.66-.874-1.674-.874-3.042V14.4h1.35v8.028c0 .648.042 1.194.126 1.638.084.444.222.804.414 1.08.192.276.432.474.72.594s.642.18 1.062.18c.792 0 1.341-.276 1.647-.828.306-.552.46-1.44.46-2.664V14.4zm-4.5-1.692c0-.252.074-.456.224-.612.15-.156.357-.234.621-.234.252 0 .453.078.603.234.15.156.225.36.225.612s-.075.453-.225.603c-.15.15-.35.225-.603.225-.264 0-.47-.075-.62-.225-.15-.15-.226-.351-.226-.603zm2.843 0c0-.252.075-.456.225-.612.15-.156.351-.234.603-.234.264 0 .471.078.621.234.15.156.225.36.225.612s-.075.453-.225.603c-.15.15-.357.225-.62.225-.253 0-.454-.075-.604-.225-.15-.15-.225-.351-.225-.603zm8.553 1.818a8.877 8.877 0 011.305-.207c.474-.042.91-.063 1.305-.063.468 0 .912.057 1.332.171.42.114.786.306 1.098.576.312.27.561.624.747 1.062.186.438.28.987.28 1.647 0 .996-.208 1.794-.622 2.394a2.99 2.99 0 01-1.647 1.206l.684.666L155.081 27h-1.566l-2.7-5.49-1.35-.27V27h-1.35V14.526zm1.35 5.814h1.08c.684 0 1.224-.21 1.62-.63.396-.42.594-1.062.594-1.926 0-.66-.165-1.206-.495-1.638-.33-.432-.819-.648-1.467-.648-.24 0-.489.009-.747.027a3.238 3.238 0 00-.585.081v4.734zm10.858-5.94h1.35V27h-1.35V14.4zm9.147 4.608l-.774-1.98h-.054l.198 1.98V27h-1.296V14.202h.81l4.662 8.172.738 1.89h.072l-.198-1.89V14.4h1.296v12.798h-.828l-4.626-8.19zm14.529 1.71h3.474v5.544c-.336.312-.768.549-1.296.711a5.433 5.433 0 01-1.602.243 4.308 4.308 0 01-1.827-.378c-.546-.252-1.011-.645-1.395-1.179-.384-.534-.681-1.209-.891-2.025-.21-.816-.315-1.794-.315-2.934 0-1.176.126-2.175.378-2.997.252-.822.59-1.494 1.017-2.016.426-.522.912-.903 1.458-1.143a4.142 4.142 0 011.683-.36 7.55 7.55 0 011.449.117c.39.078.723.183.999.315l-.324 1.224a3.174 3.174 0 00-.855-.306 5.4 5.4 0 00-1.143-.108c-.42 0-.822.09-1.206.27-.384.18-.73.477-1.035.891-.306.414-.55.957-.73 1.629-.18.672-.27 1.5-.27 2.484 0 1.8.286 3.129.856 3.987.57.858 1.353 1.287 2.349 1.287.624 0 1.14-.15 1.548-.45v-3.672l-2.322-.342v-.792zm8.679-6.318h5.598v1.242h-4.248v4.266h3.906v1.242h-3.906v4.608h4.338V27h-5.688V14.4zm11.02.126a8.877 8.877 0 011.304-.207c.474-.042.91-.063 1.305-.063.468 0 .912.057 1.332.171.42.114.786.306 1.098.576.312.27.561.624.747 1.062.186.438.28.987.28 1.647 0 .996-.208 1.794-.622 2.394a2.99 2.99 0 01-1.647 1.206l.684.666L210.663 27h-1.566l-2.7-5.49-1.35-.27V27h-1.35V14.526zm1.35 5.814h1.08c.683 0 1.223-.21 1.62-.63.395-.42.593-1.062.593-1.926 0-.66-.165-1.206-.495-1.638-.33-.432-.819-.648-1.467-.648-.24 0-.489.009-.747.027a3.238 3.238 0 00-.585.081v4.734zM115.22 41.76a1.47 1.47 0 00-.342-.981 4.47 4.47 0 00-.855-.765c-.342-.24-.714-.486-1.116-.738a6.56 6.56 0 01-1.116-.882 4.42 4.42 0 01-.855-1.188c-.228-.456-.342-1.014-.342-1.674 0-.612.093-1.131.279-1.557a2.78 2.78 0 01.765-1.044c.324-.27.708-.468 1.152-.594a5.187 5.187 0 011.422-.189c.612 0 1.182.06 1.71.18s.966.282 1.314.486l-.702 1.998c-.204-.144-.507-.276-.909-.396a4.544 4.544 0 00-1.305-.18c-.468 0-.828.096-1.08.288-.252.192-.378.474-.378.846 0 .336.114.633.342.891.228.258.513.507.855.747.342.24.714.489 1.116.747.402.258.774.558 1.116.9.342.342.627.744.855 1.206.228.462.342 1.011.342 1.647 0 .636-.093 1.188-.279 1.656a3.03 3.03 0 01-.792 1.161 3.397 3.397 0 01-1.233.693 5.164 5.164 0 01-1.602.234c-.744 0-1.395-.072-1.953-.216-.558-.144-.987-.306-1.287-.486l.738-2.034c.24.144.57.288.99.432.42.144.87.216 1.35.216 1.2 0 1.8-.468 1.8-1.404zm12.658 2.736c-.312.264-.729.456-1.251.576-.522.12-1.041.18-1.557.18a4.849 4.849 0 01-1.809-.333c-.558-.222-1.047-.591-1.467-1.107-.42-.516-.75-1.194-.99-2.034-.24-.84-.36-1.872-.36-3.096 0-1.272.135-2.328.405-3.168.27-.84.624-1.509 1.062-2.007.438-.498.939-.849 1.503-1.053a4.995 4.995 0 011.71-.306c.588 0 1.101.048 1.539.144.438.096.795.204 1.071.324l-.45 1.998a3.135 3.135 0 00-.801-.279 5.227 5.227 0 00-1.089-.099c-.828 0-1.464.36-1.908 1.08-.444.72-.666 1.848-.666 3.384 0 .66.051 1.263.153 1.809.102.546.264 1.017.486 1.413.222.396.504.702.846.918.342.216.753.324 1.233.324.42 0 .78-.057 1.08-.171.3-.114.57-.249.81-.405l.45 1.908zm8.806-4.824h-3.438V45h-2.268V32.4h2.268v5.184h3.438V32.4h2.268V45h-2.268v-5.328zm11.47-7.272h2.142v8.172c0 1.632-.333 2.814-.999 3.546-.666.732-1.587 1.098-2.763 1.098-1.38 0-2.391-.357-3.033-1.071-.642-.714-.963-1.803-.963-3.267V32.4h2.268v8.082c0 .984.132 1.671.396 2.061.264.39.702.585 1.314.585.588 0 1.008-.207 1.26-.621.252-.414.378-1.089.378-2.025V32.4zM160.578 45h-6.696V32.4h2.268v10.512h4.428V45zm8.662-.504c-.312.264-.729.456-1.251.576-.522.12-1.041.18-1.557.18a4.849 4.849 0 01-1.809-.333c-.558-.222-1.047-.591-1.467-1.107-.42-.516-.75-1.194-.99-2.034-.24-.84-.36-1.872-.36-3.096 0-1.272.135-2.328.405-3.168.27-.84.624-1.509 1.062-2.007.438-.498.939-.849 1.503-1.053a4.995 4.995 0 011.71-.306c.588 0 1.101.048 1.539.144.438.096.795.204 1.071.324l-.45 1.998a3.135 3.135 0 00-.801-.279 5.227 5.227 0 00-1.089-.099c-.828 0-1.464.36-1.908 1.08-.444.72-.666 1.848-.666 3.384 0 .66.051 1.263.153 1.809.102.546.264 1.017.486 1.413.222.396.504.702.846.918.342.216.753.324 1.233.324.42 0 .78-.057 1.08-.171.3-.114.57-.249.81-.405l.45 1.908zm9.796.504h-6.696V32.4h2.268v10.512h4.428V45zm1.228-6.3c0-2.136.366-3.762 1.098-4.878.732-1.116 1.848-1.674 3.348-1.674.78 0 1.452.153 2.016.459a3.725 3.725 0 011.386 1.314c.36.57.627 1.26.801 2.07.174.81.261 1.713.261 2.709 0 2.136-.375 3.762-1.125 4.878s-1.863 1.674-3.339 1.674c-.792 0-1.467-.153-2.025-.459a3.746 3.746 0 01-1.377-1.314c-.36-.57-.624-1.26-.792-2.07a13.378 13.378 0 01-.252-2.709zm2.376 0c0 .636.036 1.227.108 1.773.072.546.192 1.017.36 1.413.168.396.381.708.639.936.258.228.579.342.963.342.696 0 1.218-.354 1.566-1.062.348-.708.522-1.842.522-3.402 0-.612-.036-1.191-.108-1.737a5.868 5.868 0 00-.351-1.422c-.162-.402-.375-.72-.639-.954-.264-.234-.594-.351-.99-.351-1.38 0-2.07 1.488-2.07 4.464zm15.448-6.3h2.142v8.172c0 1.632-.333 2.814-.999 3.546-.666.732-1.587 1.098-2.763 1.098-1.38 0-2.391-.357-3.033-1.071-.642-.714-.963-1.803-.963-3.267V32.4h2.268v8.082c0 .984.132 1.671.396 2.061.264.39.702.585 1.314.585.588 0 1.008-.207 1.26-.621.252-.414.378-1.089.378-2.025V32.4zm5.728 0c.216-.036.459-.063.729-.081l.828-.054c.282-.018.555-.03.819-.036.264-.006.498-.009.702-.009.996 0 1.827.153 2.493.459.666.306 1.2.738 1.602 1.296.402.558.687 1.227.855 2.007.168.78.252 1.65.252 2.61 0 .876-.081 1.713-.243 2.511-.162.798-.447 1.5-.855 2.106a4.375 4.375 0 01-1.656 1.449c-.696.36-1.572.54-2.628.54-.156 0-.366-.006-.63-.018-.264-.012-.54-.027-.828-.045l-.828-.054a6.77 6.77 0 01-.612-.063V32.4zm3.312 1.908c-.192 0-.387.003-.585.009a2.607 2.607 0 00-.459.045v8.676a.86.86 0 00.189.027 37.041 37.041 0 00.576.036c.09.006.153.009.189.009.54 0 .984-.126 1.332-.378a2.57 2.57 0 00.819-1.008c.198-.42.336-.903.414-1.449.078-.546.117-1.119.117-1.719 0-.552-.033-1.086-.099-1.602a4.458 4.458 0 00-.378-1.359 2.32 2.32 0 00-.792-.936c-.342-.234-.783-.351-1.323-.351z" fill="#185888" fill-rule="nonzero"/></g></svg>