<svg xmlns="http://www.w3.org/2000/svg" xmlns:xlink="http://www.w3.org/1999/xlink" width="239" height="60" viewBox="0 0 239 60"><defs><path id="a" d="M0 .96h79.925v31.28H.001z"/></defs><g fill="none" fill-rule="evenodd"><path d="M30.98 43.17c0-.77-.283-1.4-.85-1.884-.569-.482-1.282-.923-2.138-1.322a85.152 85.152 0 00-2.792-1.23 14.265 14.265 0 01-2.791-1.56 7.947 7.947 0 01-2.136-2.302c-.568-.918-.853-2.09-.853-3.515 0-1.232.206-2.3.616-3.206a6.006 6.006 0 011.758-2.266c.76-.603 1.663-1.05 2.7-1.341 1.039-.29 2.2-.434 3.479-.434 1.473 0 2.862.126 4.167.38 1.304.254 2.38.622 3.225 1.104l-1.558 4.168c-.532-.338-1.329-.647-2.392-.923a13.58 13.58 0 00-3.442-.418c-1.16 0-2.048.23-2.664.69-.616.457-.925 1.077-.925 1.85 0 .724.286 1.327.853 1.811.568.482 1.281.93 2.138 1.339.856.411 1.787.834 2.789 1.269a15.1 15.1 0 012.792 1.574 8.065 8.065 0 012.139 2.286c.567.906.85 2.035.85 3.389 0 1.353-.222 2.517-.671 3.496a6.645 6.645 0 01-1.885 2.447c-.808.653-1.787 1.134-2.934 1.45-1.149.313-2.41.469-3.787.469-1.812 0-3.407-.168-4.784-.508-1.375-.337-2.391-.673-3.045-1.015l1.598-4.238c.264.144.606.3 1.03.472.423.168.9.325 1.431.47.533.144 1.093.266 1.688.361.591.1 1.2.146 1.827.146 1.475 0 2.604-.247 3.388-.745.787-.492 1.18-1.247 1.18-2.263m22.486 6.958a18.378 18.378 0 01-3.678.363c-1.523 0-2.966-.237-4.331-.707a9.28 9.28 0 01-3.605-2.282c-1.04-1.05-1.868-2.416-2.483-4.098-.614-1.677-.924-3.712-.924-6.104 0-2.488.343-4.572 1.034-6.253.687-1.676 1.582-3.03 2.68-4.057a9.857 9.857 0 013.68-2.21 12.866 12.866 0 014.058-.673c1.447 0 1.52 4.422.435 4.422-2.007 0-3.619.713-4.837 2.141-1.22 1.424-1.831 3.634-1.831 6.63 0 1.304.145 2.495.434 3.57.29 1.075.73 1.993 1.325 2.753A6.083 6.083 0 0047.63 45.4c.885.424 1.904.635 3.064.635 1.086 0 2.004-.11 2.754-.326.749-.219 1.213 4.18.018 4.42" fill="#5284b8"/><g transform="translate(-2.323 9.076) scale(1.26888)"><mask id="b" fill="#fff"><use xlink:href="#a" width="100%" height="100%"/></mask><path d="M73.419 12.887l-.027-.087C72.185 4.493 66.887.96 61.552.96c-.17 0-.34.003-.512.01-5.502.231-10.911 4.184-11.767 10.497-1.225-.608-2.433-.89-3.564-.89a6.41 6.41 0 00-1.67.241c.126.207.243.423.34.662.35.873.424 1.772.424 2.372 0 .366-.027.705-.076 1.019.298-.138.623-.214.982-.214.541 0 1.13.157 1.749.464a4.079 4.079 0 003.725-.05 4.082 4.082 0 002.134-3.056c.593-4.38 4.421-6.822 7.894-6.967.113-.006.226-.009.34-.009 4.19 0 7.032 3.044 7.804 8.347.03.21.076.414.139.614.01.041.031.104.04.134a4.08 4.08 0 002.49 2.586c2.283.831 3.818 3.045 3.821 5.504 0 3.248-2.581 5.89-5.755 5.89-.032 0-.063 0-.096.002a39.68 39.68 0 01-.784.008c-.344 0-.698-.004-1.057-.007a115.72 115.72 0 00-1.2-.008l-.545.003h-19.65a5.87 5.87 0 01.463 1.832c.089.877.037 1.615-.105 2.248h19.292l.545-.003c.771 0 1.533.015 2.257.015.3 0 .595-.003.88-.01 5.438 0 9.835-4.48 9.835-9.97-.004-4.184-2.606-7.918-6.506-9.337zm-57.826 2.846H9.767v16.506H5.854V15.733H.001v-3.486h15.592z" mask="url(#b)" fill="#185888"/></g><path d="M119.228 11.92H115.3v14.413h-1.713V11.92h-3.929v-1.576h9.57zm13.57 7.035h-5.892v7.378h-1.713V10.345h1.713v7.034h5.893v-7.034h1.713v15.988h-1.713zm16.154-8.61h1.643v10.712c0 1.933-.377 3.33-1.13 4.19-.754.861-1.824 1.291-3.21 1.291-1.614 0-2.79-.419-3.527-1.256-.74-.837-1.109-2.124-1.109-3.86V10.345h1.713V20.53c0 .823.053 1.515.16 2.079.106.563.282 1.02.525 1.37.244.35.548.602.914.754.365.152.814.228 1.347.228 1.005 0 1.702-.35 2.09-1.05.388-.7.584-1.828.584-3.38zm-5.71-2.147c0-.32.094-.579.284-.777.19-.198.453-.297.788-.297.32 0 .575.1.765.297.19.198.286.457.286.777s-.095.575-.286.765c-.19.19-.444.285-.765.285-.335 0-.596-.095-.787-.285-.19-.19-.286-.445-.286-.765zm3.607 0c0-.32.095-.579.286-.777.19-.198.445-.297.765-.297.335 0 .598.1.788.297.19.198.285.457.285.777s-.095.575-.285.765c-.19.19-.453.285-.787.285-.32 0-.576-.095-.766-.285-.19-.19-.286-.445-.286-.765zm10.853 2.307a11.264 11.264 0 011.656-.263c.601-.053 1.155-.08 1.656-.08a6.41 6.41 0 011.69.217c.533.145.997.388 1.393.73.396.343.712.793.948 1.348.236.556.355 1.253.355 2.09 0 1.264-.264 2.277-.789 3.038a3.794 3.794 0 01-2.09 1.53l.868.845 3.152 6.373h-1.987l-3.426-6.967-1.713-.342v7.309h-1.713zm1.713 7.377h1.37c.868 0 1.554-.267 2.056-.8.503-.532.754-1.347.754-2.443 0-.838-.21-1.53-.628-2.079-.42-.548-1.04-.822-1.862-.822-.304 0-.62.011-.948.034a4.109 4.109 0 00-.742.103zm13.778-7.537h1.713v15.988h-1.713zm11.606 5.847l-.982-2.513h-.069l.252 2.513v10.14h-1.645V10.094h1.028l5.916 10.37.936 2.398h.091l-.25-2.398V10.345h1.644v16.239h-1.051zm18.436 2.17h4.408v7.034c-.427.396-.975.697-1.645.902a6.894 6.894 0 01-2.032.309 5.466 5.466 0 01-2.319-.48c-.692-.32-1.283-.818-1.77-1.496-.487-.678-.864-1.534-1.13-2.57-.267-1.035-.4-2.276-.4-3.722 0-1.493.16-2.76.48-3.803.32-1.043.748-1.896 1.29-2.558.54-.663 1.157-1.146 1.85-1.45a5.256 5.256 0 012.136-.457 9.58 9.58 0 011.838.148c.495.1.918.232 1.268.4l-.411 1.553a4.027 4.027 0 00-1.085-.388 6.852 6.852 0 00-1.45-.137c-.533 0-1.044.114-1.53.342-.488.229-.927.605-1.314 1.13-.388.526-.698 1.215-.926 2.068-.229.852-.343 1.903-.343 3.152 0 2.284.363 3.97 1.086 5.059.723 1.088 1.717 1.633 2.98 1.633.793 0 1.447-.19 1.965-.571V19.8l-2.946-.434zm11.012-8.017h7.104v1.576h-5.39v5.413h4.956v1.576h-4.957v5.847h5.505v1.576h-7.218zm13.983.16a11.264 11.264 0 011.655-.263 19.03 19.03 0 011.656-.08 6.41 6.41 0 011.69.217c.533.145.997.388 1.393.73.396.343.712.793.948 1.348.236.556.356 1.253.356 2.09 0 1.264-.264 2.277-.79 3.038a3.794 3.794 0 01-2.09 1.53l.868.845 3.152 6.373h-1.987l-3.426-6.967-1.713-.342v7.309h-1.713V10.505zm1.713 7.377h1.37c.867 0 1.553-.267 2.056-.8.502-.532.753-1.347.753-2.443 0-.838-.21-1.53-.628-2.079-.419-.548-1.04-.822-1.862-.822-.304 0-.62.011-.948.034a4.109 4.109 0 00-.742.103v6.007zm-113.98 27.18a1.865 1.865 0 00-.435-1.245 5.672 5.672 0 00-1.085-.971 32.769 32.769 0 00-1.416-.937 8.324 8.324 0 01-1.416-1.119 5.608 5.608 0 01-1.085-1.507c-.29-.579-.434-1.287-.434-2.124 0-.777.118-1.435.354-1.976a3.527 3.527 0 01.971-1.325 3.925 3.925 0 011.462-.753 6.582 6.582 0 011.804-.24c.777 0 1.5.076 2.17.228.67.153 1.226.358 1.667.617l-.89 2.535c-.26-.183-.644-.35-1.154-.502a5.766 5.766 0 00-1.656-.229c-.594 0-1.05.122-1.37.366-.32.243-.48.601-.48 1.073 0 .427.145.803.434 1.13.29.328.651.644 1.085.949.434.304.906.62 1.416.948.51.327.982.708 1.416 1.142.434.433.796.944 1.085 1.53.29.586.434 1.283.434 2.09 0 .807-.118 1.507-.354 2.1a3.845 3.845 0 01-1.005 1.474 4.31 4.31 0 01-1.565.88 6.553 6.553 0 01-2.032.296c-.944 0-1.77-.091-2.478-.274-.708-.182-1.253-.388-1.634-.616l.937-2.581c.304.182.723.365 1.256.548a5.247 5.247 0 001.713.274c1.523 0 2.284-.594 2.284-1.782zm16.06 3.471c-.395.335-.924.579-1.587.73a8.795 8.795 0 01-1.975.23 6.153 6.153 0 01-2.296-.423c-.708-.282-1.328-.75-1.861-1.405-.533-.655-.952-1.515-1.256-2.58-.305-1.067-.457-2.376-.457-3.93 0-1.613.171-2.953.514-4.02.342-1.065.791-1.914 1.347-2.546.556-.632 1.192-1.077 1.907-1.336a6.338 6.338 0 012.17-.388c.746 0 1.397.06 1.953.183.556.121 1.009.258 1.359.41l-.571 2.536a3.978 3.978 0 00-1.016-.354 6.632 6.632 0 00-1.382-.126c-1.05 0-1.858.457-2.421 1.37-.564.914-.845 2.346-.845 4.295 0 .837.064 1.602.194 2.295.13.693.335 1.29.616 1.793.282.502.64.89 1.074 1.165.434.274.955.41 1.564.41.533 0 .99-.071 1.37-.216a5.4 5.4 0 001.029-.514zm11.174-6.121h-4.362v6.76h-2.878V33.186h2.878v6.578h4.362v-6.578h2.878v15.988h-2.878zm14.555-9.227h2.718v10.369c0 2.07-.423 3.57-1.268 4.5-.845.928-2.014 1.393-3.506 1.393-1.751 0-3.034-.453-3.849-1.36-.814-.905-1.222-2.287-1.222-4.145V33.185h2.878V43.44c0 1.248.168 2.12.503 2.615.335.495.89.742 1.667.742.746 0 1.28-.262 1.599-.788.32-.525.48-1.382.48-2.57zm15.764 15.988h-8.496V33.185h2.878v13.338h5.618zm10.991-.64c-.396.335-.925.579-1.587.73a8.795 8.795 0 01-1.976.23 6.153 6.153 0 01-2.295-.423c-.708-.282-1.329-.75-1.862-1.405-.533-.655-.951-1.515-1.256-2.58-.304-1.067-.457-2.376-.457-3.93 0-1.613.172-2.953.514-4.02.343-1.065.792-1.914 1.348-2.546.556-.632 1.191-1.077 1.907-1.336a6.338 6.338 0 012.17-.388c.746 0 1.397.06 1.953.183.555.121 1.008.258 1.359.41l-.571 2.536a3.978 3.978 0 00-1.017-.354 6.632 6.632 0 00-1.382-.126c-1.05 0-1.857.457-2.42 1.37-.564.914-.846 2.346-.846 4.295 0 .837.065 1.602.194 2.295.13.693.335 1.29.617 1.793.282.502.64.89 1.074 1.165.433.274.955.41 1.564.41.533 0 .99-.071 1.37-.216a5.391 5.391 0 001.028-.514zm12.43.64h-8.496V33.185h2.878v13.338h5.618zm1.558-7.994c0-2.71.465-4.774 1.394-6.19.928-1.416 2.345-2.124 4.248-2.124.99 0 1.842.194 2.558.582a4.727 4.727 0 011.759 1.668c.456.723.795 1.598 1.016 2.626.22 1.028.331 2.174.331 3.438 0 2.71-.476 4.773-1.427 6.19-.952 1.415-2.364 2.123-4.237 2.123-1.005 0-1.862-.194-2.57-.582a4.753 4.753 0 01-1.747-1.667c-.457-.724-.792-1.6-1.005-2.627a16.975 16.975 0 01-.32-3.437zm3.015 0c0 .807.046 1.557.137 2.25.092.692.244 1.29.457 1.792.213.503.484.899.811 1.188.327.29.735.434 1.222.434.883 0 1.545-.45 1.987-1.348.442-.898.662-2.337.662-4.316 0-.777-.045-1.512-.137-2.204a7.446 7.446 0 00-.445-1.805c-.206-.51-.476-.913-.81-1.21-.336-.297-.755-.446-1.257-.446-1.751 0-2.627 1.888-2.627 5.665zm19.602-7.994h2.718v10.369c0 2.07-.423 3.57-1.268 4.5-.845.928-2.013 1.393-3.506 1.393-1.75 0-3.033-.453-3.848-1.36-.815-.905-1.222-2.287-1.222-4.145V33.185h2.878V43.44c0 1.248.167 2.12.502 2.615.335.495.891.742 1.668.742.746 0 1.279-.262 1.598-.788.32-.525.48-1.382.48-2.57zm7.268 0c.274-.046.583-.08.925-.103l1.05-.069a25.38 25.38 0 011.04-.045c.335-.008.632-.012.89-.012 1.265 0 2.32.194 3.164.583.845.388 1.523.936 2.033 1.644.51.708.872 1.557 1.085 2.547.213.99.32 2.093.32 3.312 0 1.111-.103 2.173-.309 3.186-.205 1.012-.567 1.903-1.085 2.672a5.551 5.551 0 01-2.101 1.839c-.883.456-1.995.685-3.335.685-.198 0-.464-.008-.799-.023a61.999 61.999 0 01-1.05-.057l-1.051-.069a8.59 8.59 0 01-.777-.08zm4.203 2.42c-.244 0-.491.004-.743.012a3.308 3.308 0 00-.582.057v11.009a1.091 1.091 0 00.24.034 47 47 0 00.73.046c.115.008.195.011.24.011.686 0 1.25-.16 1.69-.48a3.261 3.261 0 001.04-1.278 6.427 6.427 0 00.525-1.839c.1-.693.149-1.42.149-2.181 0-.7-.042-1.378-.126-2.033a5.657 5.657 0 00-.48-1.724 2.944 2.944 0 00-1.005-1.188c-.433-.297-.993-.445-1.678-.445z" fill="#185888" fill-rule="nonzero"/></g></svg>