<svg xmlns="http://www.w3.org/2000/svg" width="167" height="45" version="1">
  <g transform="translate(-3 -20)">
    <path fill="#f79392" d="M162.58 48.34c1.88.88 2.83 2.8 2.13 4.3l-1.69 3.63c-.7 1.5-2.79 2.01-4.66 1.14l-2.27-1.06 4.23-9.06 2.26 1.05z"/>
    <path fill="#facb1b" d="M152.7 54.76l4.22-9.06 3.4 1.59-4.23 9.06z"/>
    <path fill="#fbe158" d="M153.82 55.3l2.12-4.54 2.26 1.06-2.11 4.53z"/>
    <path fill="#0484ab" d="M158.05 46.23l-4.22 9.06-32.86-15.32-10.79-5.03-13.68-6.38 6.54.57-3.52-4.68 6.35.59.05-.12-3.38-4.58 11.87 5.54 10.79 5.03 32.85 15.32z"/>
    <path fill="#21b2d1" d="M155.94 50.76l-2.11 4.53-32.86-15.32-10.76-5.01-13.71-6.4 6.54.57-3.52-4.68 12.42 5.8 11.14 5.2 32.86 15.31z"/>
    <path fill="#f7b4b4" d="M156.1 56.35l2.26 1.06c1.87.87 3.96.36 4.66-1.14l.85-1.81-5.67-2.64-2.1 4.53z"/>
    <g>
      <path fill="#f4d0a1" d="M22.05 46.67L8.87 58l17.4-2.52 8.25-3.74-4.22-8.8-8.25 3.73z"/>
      <path fill="#edbc7c" d="M32.17 47.45l-2.11-4.4-8.01 3.62L8.87 58z"/>
      <path fill="#3e3e3f" d="M8.84 58l6.46-.94c.31-1.04.35-1.37.05-2-.3-.61-.58-.8-1.62-1.27z"/>
      <path fill="#0484ab" d="M21.89 46.74c-.12.06-.1.2.03.18 1.2-.15 2.32.31 2.76 1.24.5 1.01.02 2.27-1.07 3.07-.1.07-.04.18.08.15 1.32-.3 2.62.16 3.1 1.18.45.92.1 2.05-.8 2.85-.09.08 0 .19.12.14L65.1 37.89l13.83-6.27 4.64-4.5-5.84-.3 4.62-4.47-5.83-.35-10.99 4.98L21.9 46.74z"/>
      <path fill="#21b2d1" d="M23.65 51.3c-.07.04-.04.1.02.09 1.33-.3 2.64.15 3.13 1.17.44.92.1 2.03-.77 2.83-.1.09 0 .2.12.14l38.98-17.65 13.8-6.26 4.64-4.5-5.84-.3-10.08 4.56z"/>
    </g>
    <ellipse cx="15.5" cy="64" fill-opacity=".2" rx="12.5" ry="1"/>
    <ellipse cx="157.5" cy="64" fill-opacity=".2" rx="12.5" ry="1"/>
  </g>
</svg>
