<svg xmlns="http://www.w3.org/2000/svg" xmlns:xlink="http://www.w3.org/1999/xlink" viewBox="0 0 573 272.32"><defs><style>.cls-1{fill:#006192;}.cls-16,.cls-18,.cls-19,.cls-2,.cls-31{fill:none;}.cls-2{stroke:#68aa61;stroke-width:15px;}.cls-16,.cls-2{stroke-linecap:round;stroke-linejoin:round;}.cls-3{fill:#ffc9b8;}.cls-4{fill:#f2f2f2;}.cls-5{fill:url(#linear-gradient);}.cls-6{fill:url(#linear-gradient-2);}.cls-7{fill:#97c492;}.cls-8{fill:#56380d;}.cls-9{fill:#68aa61;}.cls-10{fill:#ffcbba;}.cls-11{fill:url(#linear-gradient-3);}.cls-12{fill:url(#linear-gradient-4);}.cls-13{fill:#6d4a16;}.cls-14{fill:#86283c;}.cls-15{fill:url(#linear-gradient-5);}.cls-16{stroke:#86283c;stroke-width:0.25px;}.cls-17{fill:url(#linear-gradient-6);}.cls-18,.cls-19,.cls-31{stroke-miterlimit:10;}.cls-18,.cls-19{stroke-width:17px;}.cls-18{stroke:url(#linear-gradient-7);}.cls-19{stroke:url(#linear-gradient-8);}.cls-20{fill:#ffd8ca;}.cls-21{fill:#66a0be;}.cls-22{fill:url(#linear-gradient-9);}.cls-23{fill:#ffb69f;}.cls-24{fill:url(#linear-gradient-10);}.cls-25{fill:#9e5363;}.cls-26{fill:url(#linear-gradient-11);}.cls-27{fill:url(#linear-gradient-12);}.cls-28{fill:#fff;}.cls-29{font-size:38px;font-family:PTSans-Regular, PT Sans;}.cls-30{letter-spacing:-0.01em;}.cls-31{stroke:#000;stroke-width:0.5px;}</style><linearGradient id="linear-gradient" x1="335.8" y1="218.08" x2="266.54" y2="178.09" gradientUnits="userSpaceOnUse"><stop offset="0" stop-color="#cce0f4"/><stop offset="0" stop-color="#c3d9ec"/><stop offset="0" stop-color="#a9c4d8"/><stop offset="0" stop-color="#80a4b6"/><stop offset="0" stop-color="#467688"/><stop offset="0" stop-color="#003f4f"/><stop offset="0.26" stop-color="#00445d"/><stop offset="0.75" stop-color="#005382"/><stop offset="0.99" stop-color="#005b97"/></linearGradient><linearGradient id="linear-gradient-2" x1="299.78" y1="138.49" x2="299.78" y2="-22.12" gradientUnits="userSpaceOnUse"><stop offset="0" stop-color="#68aa61"/><stop offset="0.1" stop-color="#7cb576"/><stop offset="0.41" stop-color="#b4d5b0"/><stop offset="0.67" stop-color="#ddecdb"/><stop offset="0.88" stop-color="#f6faf5"/><stop offset="1" stop-color="#fff"/></linearGradient><linearGradient id="linear-gradient-3" x1="300.65" y1="103.1" x2="300.65" y2="72.16" gradientTransform="matrix(1, 0, -0.01, 1, 1.16, -0.29)" gradientUnits="userSpaceOnUse"><stop offset="0.47" stop-color="#ffd8ca"/><stop offset="1" stop-color="#ffa183"/></linearGradient><linearGradient id="linear-gradient-4" x1="286.04" y1="66.87" x2="315.32" y2="16.16" gradientUnits="userSpaceOnUse"><stop offset="0" stop-color="#ffede6"/><stop offset="0.97" stop-color="#ff9676"/></linearGradient><linearGradient id="linear-gradient-5" x1="296.33" y1="62.74" x2="307.73" y2="62.74" gradientUnits="userSpaceOnUse"><stop offset="0" stop-color="#fb3847"/><stop offset="1" stop-color="#86283c"/></linearGradient><linearGradient id="linear-gradient-6" x1="209.94" y1="148.29" x2="209.94" y2="227.49" gradientTransform="translate(-2.45 7.82) rotate(-0.17)" gradientUnits="userSpaceOnUse"><stop offset="0" stop-color="#fd9da4"/><stop offset="1" stop-color="#86283c"/></linearGradient><linearGradient id="linear-gradient-7" x1="108.65" y1="124.22" x2="176.37" y2="124.22" gradientTransform="matrix(1, 0, 0, 1, 0, 0)" xlink:href="#linear-gradient-6"/><linearGradient id="linear-gradient-8" x1="240.01" y1="157.1" x2="269.68" y2="157.1" gradientTransform="matrix(1, 0, 0, 1, 0, 0)" xlink:href="#linear-gradient-6"/><linearGradient id="linear-gradient-9" x1="209.9" y1="117.07" x2="209.9" y2="75.44" gradientTransform="translate(-2.45 7.82) rotate(-0.17)" gradientUnits="userSpaceOnUse"><stop offset="0.12" stop-color="#ffd8ca"/><stop offset="0.66" stop-color="#ffa183"/></linearGradient><linearGradient id="linear-gradient-10" x1="209.73" y1="34.86" x2="209.73" y2="185.33" gradientTransform="translate(-2.45 7.82) rotate(-0.17)" xlink:href="#linear-gradient-4"/><linearGradient id="linear-gradient-11" x1="204.87" y1="81.52" x2="217.85" y2="81.52" gradientTransform="translate(-2.45 7.82) rotate(-0.17)" xlink:href="#linear-gradient-5"/><linearGradient id="linear-gradient-12" x1="210.8" y1="159.28" x2="210.8" y2="240.23" xlink:href="#linear-gradient-6"/></defs><title>finallogin_banner_v2</title><g id="Layer_2" data-name="Layer 2"><g id="Layer_1-2" data-name="Layer 1"><g id="Kid4"><path class="cls-1" d="M177.54,104.09h55.36a34.22,34.22,0,0,1,34.22,34.22v35.43a26.44,26.44,0,0,1-26.44,26.44H166.51a10.38,10.38,0,0,1-10.38-10.38V125.5A21.41,21.41,0,0,1,177.54,104.09Z"/><path class="cls-2" d="M178.27,105.15c18.61-14,67.69,5.41,90.18-11.73"/><path class="cls-3" d="M181.65,108.78c-.48-.94-1-1.88-1.48-2.8-1-1.78-2.11-3.47-3.06-5.3A20.3,20.3,0,0,1,176,98.13c-2.92,1.9-5.81,4-8.64,6.24a6.93,6.93,0,0,0-2.18,6.43,7.61,7.61,0,0,0,.72,2.27c1.51,3,4.62,3.88,6.94,2A104.13,104.13,0,0,1,181.65,108.78Z"/><path class="cls-2" d="M340.73,181c5.42-28,12.57-55.83-9.52-87.54"/><path class="cls-4" d="M172.74,104.09c3.21,4.17,6.35,8.41,9.28,12.83a43.67,43.67,0,0,0,9.47-7.08L178.86,94.33a40.42,40.42,0,0,1-9.11,5.93Q171.25,102.17,172.74,104.09Z"/><path class="cls-5" d="M338.55,212.94c.57-8.92-1.73-28.2-5.57-34.73a2.83,2.83,0,0,0-2.45-1.4H269a2.89,2.89,0,0,0-2.38,1.28c-4.9,7.25-6,26-5.27,34.88.13,1.48,1.71,1.6,3.19,1.6h71C337,214.57,338.45,214.42,338.55,212.94Z"/><path class="cls-3" d="M346.6,189.54c-5.42,3.13-9.2,7.93-14.15,11.45-.82-1.37-1.62-2.76-2.37-4.17-1.45-2.75-4.17-3.23-5.73-5.93a25.56,25.56,0,0,0-2.33-3.46c4.91-3.43,8.46-6.56,13.75-9.63"/><path class="cls-4" d="M337.42,175.47c5.7,2.42,9.9,4.11,14.71,7.22a48.89,48.89,0,0,1-7.33,10.79L327.13,182.6c2.25-2.75,5.94-4.35,7.73-8.41C336.26,175.26,335.78,174.78,337.42,175.47Z"/><path class="cls-6" d="M332,176.81c-10.7-32.17-5.74-69.95,5-92.33-16.6-16.06-62.43-10.81-74.43,0,12.7,19.91,14.72,61.55,5,92.33Z"/><path class="cls-7" d="M271.13,162.56a123.11,123.11,0,0,1-3.53,14.25H332a110.78,110.78,0,0,1-3.68-14.25Z"/><path class="cls-8" d="M272.78,62.49V24.55c0-13,12.42-23.72,27.59-23.72h1c15.18,0,27.6,10.67,27.6,23.72V62.49Z"/><path class="cls-9" d="M324.41,77.57c0,10.36-23.49,17.6-23.49,17.6s-23.49-7.24-23.49-17.6,10.27-12,23.24-12S324.41,67.21,324.41,77.57Z"/><path class="cls-10" d="M282,54.55l-3.47.43a1.09,1.09,0,0,1-1.26-.84l-1.85-11.58a1,1,0,0,1,.95-1.13l3.46-.44a1.13,1.13,0,0,1,1.27.85L283,53.42A1,1,0,0,1,282,54.55Z"/><path class="cls-10" d="M319.94,54.55l3.46.43a1.11,1.11,0,0,0,1.27-.84l1.85-11.58a1,1,0,0,0-.95-1.13L322.1,41a1.11,1.11,0,0,0-1.26.85L319,53.42A1,1,0,0,0,319.94,54.55Z"/><path class="cls-11" d="M300.72,95S290.9,83.41,291,78.56l.14-10.19h19.72l-.14,10.19C310.61,83.41,300.72,95,300.72,95Z"/><path class="cls-12" d="M304.62,72.89a8.67,8.67,0,0,1-7.09.09c-5.92-2.59-17.1-7.44-17.1-21V29.36c0-9.89,9.09-18,20.19-18h.48c11.11,0,20.19,8.09,20.19,18V52C321.29,65,310.4,70.18,304.62,72.89Z"/><path class="cls-13" d="M279,9.76c-11.79,24.26,21,22.54,21,22.54l-.28-12.21c4.26,8.46,13,13.4,29.25,16.36.85-13.91-.55-21.91-4.55-26.61C306.83-8.21,284.22,2.77,279,9.76Z"/><path class="cls-14" d="M296.55,44a2.25,2.25,0,0,0,.11-.68c0-1.56-1.69-2.83-3.79-2.83s-3.79,1.27-3.79,2.83a2,2,0,0,0,.12.68Z"/><path class="cls-14" d="M313.83,43.9a2.21,2.21,0,0,0,.12-.68c0-1.56-1.7-2.82-3.79-2.82s-3.79,1.26-3.79,2.82a2.2,2.2,0,0,0,.11.68Z"/><path class="cls-14" d="M292,58c0,.05,0,.1,0,.14,0,3.16,4.11,5.72,9.18,5.72s9.17-2.56,9.17-5.72V58Z"/><path class="cls-15" d="M302.36,61.63a22,22,0,0,0-4.68.9,11,11,0,0,0-1.35.51,13.55,13.55,0,0,0,4.84.86,12.32,12.32,0,0,0,6.56-1.73A14.33,14.33,0,0,0,302.36,61.63Z"/><path class="cls-16" d="M306.83,38.13a6.77,6.77,0,0,1,8,1.25"/><path class="cls-16" d="M288.05,39.66c1.5-2.06,5.27-2.94,7.89-1.59"/></g><g id="Kid2"><path class="cls-3" d="M105.62,117.62c1.14-1,2.27-1.93,3.36-2.94,2.11-2,4.07-4.07,6.27-6a24.76,24.76,0,0,1,3.14-2.36c-3.61-4-7.46-8-11.52-11.79a9.5,9.5,0,0,0-9.6-1.82,9.61,9.61,0,0,0-2.89,1.66,7.32,7.32,0,0,0-.45,11.16C98.08,109.46,102,113.51,105.62,117.62Z"/><path class="cls-17" d="M238.41,108.42,222.06,102v1l-28.54-.38v-.32l-16.32,6.21c-7,2.79-11.36,9.16-10.9,16l6,88.11a2.85,2.85,0,0,0,2.85,2.66l12.89,0,5.77,0,28.62-.08h5.33l15-.31a2.86,2.86,0,0,0,2.79-2.73l3.85-88C249.66,117.34,245.32,111.14,238.41,108.42Z"/><path class="cls-18" d="M171.91,125.24c-10.32,6.35-42.82,10.08-56.07-11"/><polygon class="cls-14" points="111.1 126.29 127 111.4 116.27 100.16 100.16 115.7 111.1 126.29"/><path class="cls-19" d="M244.81,125c12.93,8.84,28.19,47,2.19,64"/><path class="cls-20" d="M242.08,180.83s0,0,0,0c-.09.92-1,19.94-1,19.94l-26.94.12c-5.28,0-9.72-3.22-10.94-7.59a9,9,0,0,1-.31-3c.32-5.36,5.52-9.47,11.55-9.48Z"/><polygon class="cls-14" points="237.65 201.63 232.38 180.5 247.48 176.88 252.58 198.68 237.65 201.63"/><path class="cls-21" d="M169.64,174.36l-3.51-50.45c0-9.2,6.49-15,15-17Z"/><path class="cls-21" d="M247.37,174.13l3.21-50.46c0-9.21-6.58-14.94-15.12-17Z"/><path class="cls-14" d="M234.48,100.43c0,11.8-26.68,27.22-26.68,27.22S181,112.38,181,100.58,192.9,87.85,207.68,87.8,234.44,88.63,234.48,100.43Z"/><path class="cls-22" d="M207.79,126.15S193.58,112,193.56,105l-.05-14.59,28.36-.08,0,14.59C221.93,111.92,207.79,126.15,207.79,126.15Z"/><path class="cls-23" d="M236,81.09l-.39,0a2.83,2.83,0,0,1-2.48-3.12l1.06-10.58a2.8,2.8,0,0,1,3-2.55l.4,0A2.84,2.84,0,0,1,240.14,68l-1.06,10.58A2.81,2.81,0,0,1,236,81.09Z"/><path class="cls-23" d="M178.77,81l.4,0a2.85,2.85,0,0,0,2.46-3.14l-1.12-10.58a2.81,2.81,0,0,0-3.06-2.52l-.4,0a2.84,2.84,0,0,0-2.46,3.14l1.12,10.58A2.8,2.8,0,0,0,178.77,81Z"/><path class="cls-24" d="M185.88,33.05c-3.26,0-5.89,2.38-5.87,5.28l.23,38.52c0,12.82,12.08,18.88,17.38,23.13a8.83,8.83,0,0,0,5.53,1.89l8.36,0a10.42,10.42,0,0,0,6.56-2.29c5.48-4.51,16.82-10,16.78-22.86l-.11-38.14c0-3.12-2.85-5.63-6.34-5.62Z"/><path class="cls-25" d="M234.82,65.71l-5.82,0V34.4h2.37a3.2,3.2,0,0,1,3.38,3.06Z"/><rect class="cls-25" x="180.03" y="38.6" width="5.82" height="27.26" transform="translate(-0.15 0.53) rotate(-0.17)"/><path class="cls-14" d="M234.72,41.61,235,37c0-9.09-5.76-12.44-11.48-12.43L195,24.66c-4.87,0-11.09,1.58-11.08,6.84-5.74.49-3.92,8.08-3.69,10.38Z"/><path class="cls-14" d="M239.24,37c0-9.09-10-12.43-15.75-12.42L195,24.66c-4.87,0-11.09,1.58-11.08,6.84-7.94.67-5.62,8.48-5.62,8.48,1.07,5.69,16,11.77,27.89,12,0,0-3.15-7-2.71-6.92,7.25,6.11,20.81,9.22,35.83,8.46Z"/><path class="cls-14" d="M197.71,83.42c0,.06,0,.11,0,.16,0,3.6,4.7,6.5,10.47,6.48s10.44-2.94,10.43-6.54v-.16Z"/><path class="cls-26" d="M209.53,87.48a24.26,24.26,0,0,0-5.34,1,11.74,11.74,0,0,0-1.53.58,15.37,15.37,0,0,0,5.51,1,14.19,14.19,0,0,0,7.47-2A16.17,16.17,0,0,0,209.53,87.48Z"/><path class="cls-14" d="M202.84,67.36a2.49,2.49,0,0,0,.13-.77c0-1.78-1.94-3.21-4.33-3.21s-4.31,1.46-4.3,3.23a2.55,2.55,0,0,0,.13.78Z"/><path class="cls-14" d="M222.53,67.24a2.54,2.54,0,0,0,.13-.77c0-1.78-1.94-3.22-4.33-3.21S214,64.71,214,66.49a2.44,2.44,0,0,0,.13.77Z"/><path class="cls-14" d="M225.56,62.08l-10.7-2.33a.57.57,0,0,1-.47-.68l.48-1.72a.63.63,0,0,1,.76-.41l10.7,2.32a.58.58,0,0,1,.47.69l-.47,1.71A.66.66,0,0,1,225.56,62.08Z"/><path class="cls-14" d="M202.24,59.82,191.48,62a.64.64,0,0,1-.75-.43l-.43-1.73a.56.56,0,0,1,.48-.67L201.54,57a.63.63,0,0,1,.75.43l.43,1.72A.57.57,0,0,1,202.24,59.82Z"/><polygon class="cls-27" points="185.32 172.64 177.79 205.93 240.05 205.75 233.39 172.5 185.32 172.64"/></g><rect class="cls-3" x="109.1" y="92.16" width="5.84" height="10.04" rx="2.92" ry="2.92" transform="translate(19.29 -18.55) rotate(10.35)"/><rect class="cls-28" y="206.07" width="573" height="66" rx="12" ry="12"/><text class="cls-29" transform="translate(21.57 251.69)">Will<tspan class="cls-30" x="63.84" y="0">k</tspan><tspan x="81.58" y="0">ommen in der Schul-Cloud !</tspan></text><line class="cls-31" x1="74.5" y1="272.07" x2="450.5" y2="272.07"/><line class="cls-31" x1="93.5" y1="206.07" x2="432.5" y2="206.07"/></g></g></svg>
