<svg xmlns="http://www.w3.org/2000/svg" xmlns:xlink="http://www.w3.org/1999/xlink" viewBox="0 0 160.36 139.32"><defs><style>.cls-1,.cls-28{fill:none;}.cls-2,.cls-24,.cls-26{fill:#fff;}.cls-2{opacity:0.38;}.cls-3{fill:#e6e6e6;}.cls-4{fill:#201e1d;}.cls-5{fill:#256272;}.cls-6{fill:#105364;}.cls-7{fill:#f2f2f2;}.cls-8{fill:url(#linear-gradient);}.cls-9{font-size:14.65px;font-family:PTSans-Regular, PT Sans;}.cls-33,.cls-9{fill:#5591a8;}.cls-10{letter-spacing:0.03em;}.cls-11{clip-path:url(#clip-path);}.cls-12{fill:#41545b;}.cls-13{fill:#bf977b;}.cls-14{opacity:0.1;}.cls-15{fill:#eebdb5;}.cls-16{fill:#bae2df;}.cls-17{opacity:0.2;}.cls-18{fill:#e09226;}.cls-19{fill:#db7f00;}.cls-20{fill:#ffcbba;}.cls-21{fill:url(#linear-gradient-2);}.cls-22{fill:url(#linear-gradient-3);}.cls-23{fill:url(#linear-gradient-4);}.cls-25{fill:#006192;}.cls-26{stroke:#006192;stroke-width:0.5px;}.cls-26,.cls-28{stroke-linecap:round;stroke-linejoin:round;}.cls-27{fill:#a9dff9;}.cls-28{stroke:#e87601;stroke-width:4px;}.cls-29{fill:#86283c;}.cls-30{fill:url(#linear-gradient-5);}.cls-31{fill:url(#linear-gradient-6);}.cls-32{fill:#ffd8ca;}.cls-34{fill:#ec9134;}.cls-35{fill:#666;}</style><linearGradient id="linear-gradient" x1="77" y1="35.22" x2="94.76" y2="129.45" gradientUnits="userSpaceOnUse"><stop offset="0" stop-color="#c1e5ef"/><stop offset="1" stop-color="#5591a8"/></linearGradient><clipPath id="clip-path"><rect class="cls-1" x="45.33" y="30.34" width="69.7" height="47.15"/></clipPath><linearGradient id="linear-gradient-2" x1="103.62" y1="57.32" x2="103.62" y2="96.14" gradientTransform="matrix(1, 0, 0, 1, -31.28, -1.74)" gradientUnits="userSpaceOnUse"><stop offset="0" stop-color="#e87601"/><stop offset="1" stop-color="#201e1d"/></linearGradient><linearGradient id="linear-gradient-3" x1="-205.06" y1="56.92" x2="-205.06" y2="47.15" gradientTransform="matrix(1, 0, -0.01, 1, 278.12, -2.5)" gradientUnits="userSpaceOnUse"><stop offset="0" stop-color="#fff5f1"/><stop offset="0.82" stop-color="#ffa285"/></linearGradient><linearGradient id="linear-gradient-4" x1="-209.41" y1="42.43" x2="-209.41" y2="54.38" gradientTransform="matrix(1, 0, 0, 1, 281.77, -3.83)" gradientUnits="userSpaceOnUse"><stop offset="0" stop-color="#ffe0d4"/><stop offset="0.97" stop-color="#ffa082"/></linearGradient><linearGradient id="linear-gradient-5" x1="-628.45" y1="-251.91" x2="-625.35" y2="-251.91" gradientTransform="matrix(0.8, 0, 0, 0.8, 576.9, 245.36)" gradientUnits="userSpaceOnUse"><stop offset="0" stop-color="#fb3847"/><stop offset="1" stop-color="#86283c"/></linearGradient><linearGradient id="linear-gradient-6" x1="104.23" y1="60.62" x2="104.23" y2="-30.09" gradientTransform="matrix(1, 0, 0, 0.6, -30.97, 65.51)" xlink:href="#linear-gradient-2"/></defs><title>welcome_1_fobi</title><g id="Layer_2" data-name="Layer 2"><g id="Layer_1-2" data-name="Layer 1"><path class="cls-2" d="M145.78,20.94,17.23,38A9.26,9.26,0,0,1,6.76,28.83V11.77A9.25,9.25,0,0,1,16,2.53H144.56a9.25,9.25,0,0,1,9.25,9.24h0A9.25,9.25,0,0,1,145.78,20.94Z"/><ellipse class="cls-3" cx="80.85" cy="129.57" rx="65.81" ry="9.75"/><rect class="cls-4" x="58.95" y="53.51" width="42.44" height="66.69"/><path class="cls-5" d="M53,118.31h54.41A7.59,7.59,0,0,1,115,125.9v3.67a0,0,0,0,1,0,0H45.38a0,0,0,0,1,0,0V125.9A7.59,7.59,0,0,1,53,118.31Z"/><path class="cls-6" d="M141.66,103H18.75C-1.26,103,.32,86.76.32,66.75V31.61C.32,14.15-3.33,0,14.13,0H146.29C163.75,0,160,14.15,160,31.61V66.75C160,86.76,161.67,103,141.66,103Z"/><rect class="cls-7" x="6.65" y="6.5" width="147.04" height="90" rx="10.56" ry="10.56"/><rect class="cls-8" x="5.9" y="5.65" width="148.14" height="90.67" rx="10.64" ry="10.64"/><text class="cls-9" transform="translate(19.46 24.08)">Online-Fo<tspan class="cls-10" x="62.38" y="0">r</tspan><tspan x="67.8" y="0">tbildung</tspan></text><g class="cls-11"><rect class="cls-12" x="47" y="31.76" width="66.28" height="43.62"/><path class="cls-13" d="M112.55,75.24H47.85V32.64h64.69Zm1.93-44.9H45.34v46.6l.53.53,69.14,0,0-46.63Z"/><path class="cls-14" d="M113.71,56.47a1.3,1.3,0,0,0,0-.27ZM46.09,63.39a18.46,18.46,0,0,0-.27,2.75c.09.08,0,.69.15.37,0,1.09-.07.41-.11,1.12,0-.23.13-.36.15-.22,0-.36.07-.48.08-.73L46,66.9c0-.58,0-1.6.11-1a2.91,2.91,0,0,1,0-.9s0-.19-.09-.18c0-1.1.16-2.83,0-2.88a9.91,9.91,0,0,1,0,1C46,63.78,46.1,62.7,46.09,63.39Zm67.51-6.93a1,1,0,0,0,0-.22A1.18,1.18,0,0,0,113.6,56.46Zm-.43-12.34s0-.06,0-.07Zm0,2c.1,0,0-.4.1-1C113.15,45,113.14,45.74,113.14,46.14Zm.63-3,0-.79-.09.52c0,1,.11.08.16.46s0,1.79.13,2.37l0-.69c.05,0,.07.19.11.08V46c.14-.83,0-2.19.06-3C114,41.28,113.87,43.4,113.77,43.12Zm-.55,15.29a6.13,6.13,0,0,0-.14,1.42c0,.5.07,1.69,0,1.4,0,.19.08.09.12.38a6.7,6.7,0,0,0,0,1.61,10.88,10.88,0,0,0,.25-2.55C113.45,58.86,113.15,60.22,113.22,58.41Zm.15-15c.06-.31,0-1.3-.07-1.08a2.7,2.7,0,0,1,0,.61Zm-.12,1-.08-.31C113.21,44.38,113.2,45.23,113.25,44.43Zm.8,21.76v-.1l0,.81Zm.21,6.54c-.06-.09-.1-1.77-.19-.56,0,.4.06-.81.11,0l-.05.91Zm-.14-11.62c0,.8,0,.81,0,1.8C114.1,62.31,114.13,61.41,114.12,61.11Zm0-15.66c0-.51.13,2,.18.26l0-.09c0-1.12,0-2.91.09-3.66,0,.1-.08.15-.08-.23s0-1,.07-1.38a13.16,13.16,0,0,0-.2,2.11C114.13,42.55,114.15,44.44,114.08,45.45Zm.22-5.1c0-.09,0-.18.06-.25A.56.56,0,0,0,114.3,40.35Zm-.36,1,0,.6,0-.5,0,.09Zm.31-4.33v.1l0-.81Zm.08,4.75a.61.61,0,0,0,0,.15C114.33,41.88,114.35,41.76,114.33,41.81ZM45.52,54.37c-.08-.08,0,1.32-.06,1.83v.09a5.66,5.66,0,0,1,.1.77,3.07,3.07,0,0,1,.1-1.07c0,.11-.06.06-.08.06,0-.19,0-.39,0-.79l.14-.12C45.65,54.64,45.5,55.57,45.52,54.37ZM45.66,56a.51.51,0,0,0,0-.16C45.67,55.89,45.67,56,45.66,56Zm68.65,9.25a20.75,20.75,0,0,0-.12,2.32l.07.68-.13.33v2.89c.06-.91,0,1.19,0-.81,0,.34.08.79.11,1.28Zm-68.67-11c0-.28,0-.8,0-1.22A4.54,4.54,0,0,0,45.64,54.27Zm0,9.26,0-1.34,0-.19v1.54a9.44,9.44,0,0,0,0,1.24c0-2.67.28.67.37-1.8C45.94,63.86,45.77,63,45.68,63.53Zm0-9.26c0,.11,0,.18,0,.18A.92.92,0,0,0,45.64,54.27Zm-.16-2.39v.26l0-.29S45.49,51.87,45.48,51.88Zm.2.26,0,.41.12.18C45.75,53.13,45.76,51.43,45.68,52.14Zm0,8.86c0,.3,0-.21.06-.31-.07-.69,0-1.1-.08-1.58C45.63,59.72,45.74,60.6,45.7,61Zm-.22-9.51,0-.18c0,.34.06.56.15.44,0-.5.14-.43.14,0l.1-1.52a42.84,42.84,0,0,1-.16-4.55l.09-.71,0,1.28c.15-.43-.08-.88,0-1.5a4.93,4.93,0,0,0-.2,1.74v.09a4.66,4.66,0,0,1-.12.63c-.05-.39.07-.61,0-.89-.09.2,0,1-.08,1v.19c0,.17.07.18.15.23a3.92,3.92,0,0,1,0,.81l-.12-.38a3.56,3.56,0,0,1,0,.92Zm67.43,6.76c0-.09-.13.13-.14.63C112.84,58.87,112.87,59,112.91,58.25Zm0-2.39,0-.7-.14,0Zm-.08,5.8a14.75,14.75,0,0,0,0-1.48l-.08.91.07-.42ZM112.5,75v.26l0,0v-.07C112.53,75,112.52,75,112.5,75Zm.55-17.32c0,.62,0,1.76-.11,2v-.15a1.09,1.09,0,0,0,0,.17s0,0,0,0,0,.11,0,.1c0,.16.06,0,.06.3,0-.51,0-.28,0-.33a8.51,8.51,0,0,0,.12-1.1Zm-.24-.35c0,.78.12,0,.2-.15-.06-.28-.07.62-.12-.17l0-.41C112.85,56.07,112.89,57.36,112.81,57.28ZM112.63,52a12.62,12.62,0,0,0,.06-1.5l-.07-.05V52ZM113,63.83a1.47,1.47,0,0,0,.09-.61A6,6,0,0,0,113,63.83Zm-.29-10.9c0-.44-.08-.5-.12-.39v1.73C112.71,54.33,112.84,54.72,112.73,52.93Zm.81,4.11-.06-.68c-.07.61,0,1,0,2l.2-.74-.05-.59.08-.55c0,.13-.08.11-.11,0C113.61,56.72,113.52,56.56,113.54,57Zm.73,16.2-.16.81a2.35,2.35,0,0,1-.12-.77l0-.9-.12.22,0-1.39-.23.85,0,2.58a14.32,14.32,0,0,0-.08,1.66l.66.67Zm0-41.38c0-.34.1-.32.17-.38v-1.1l-.09.09A5.14,5.14,0,0,0,114.31,31.86Zm-1.12,37,.11.68.1-.32Zm.08-12a5.4,5.4,0,0,0,0,.7l0-.41C113.34,56.87,113.3,56.87,113.27,56.88Zm.1,18.33c0-.2-.08-.89-.16-.17C113.31,74.32,113.26,76.62,113.37,75.21Zm.07-25.14.06-.91-.07.81Zm0,6.68a6.89,6.89,0,0,1,0-1.3l-.14.43C113.36,56.07,113.35,56.36,113.43,56.75Zm0-21.42h0v0ZM113.36,39a2.69,2.69,0,0,0,0-.47C113.39,38.68,113.38,38.84,113.36,39ZM113,35.83c0-.2.06-.31.08-.31a7.64,7.64,0,0,1,0,2.09l.18-.13v1.09a.41.41,0,0,1,0-.09l0,.05a4,4,0,0,1-.05.54l-.07-.58a13,13,0,0,0,.09,1.48,2.78,2.78,0,0,0,.06-.34c0,.67,0,1.51-.09,2.3,0-.12.09.2.11-.51l0-1.81c0-.18,0-.39.07-.61,0,.19-.07.35-.11.36,0-.26,0-.5,0-.72a.84.84,0,0,1,0,.19c.06-.52,0-1.7.09-2.41l.06.48c0-.09,0-.3,0-.5a1,1,0,0,1,0-.23c0,.35-.08.17-.11.08V36c.09.44.06-.21.08-.5l0,.26v-.36s0,0,0,0,0-.07,0-.07l0-.61,0,.5,0,.21s0,.06,0,0c0-.6.1-1.32.18-1.13-.09-.68,0-2.48-.12-2.67s0,2-.16,2.23l0-1.21c-.13-.67-.09.82-.1,1.32l.06.09c0,.5-.09.42-.09.81,0-1.17-.08-2.11-.13-3.1l-.15.15C112.9,33.24,113,34.44,113,35.83Zm.31,7.69a10.69,10.69,0,0,0,0-1.09c0,.1,0,.11,0,0V42.1c0,.45-.07.88-.1,1.26Zm-.64,30.94,0,.9h0l0-.62ZM113.3,76l.1.1C113.38,75.73,113.33,75.79,113.3,76Zm.37-37.64a.29.29,0,0,0,0,.1A.23.23,0,0,0,113.67,38.37Zm-.2-2.2c0-.05,0-.1,0-.17S113.47,36.11,113.47,36.17Zm.06,2.92a3.44,3.44,0,0,0,0-.61c0,.07.07-.17.1-.11,0-.28,0-1.06-.07-1.48l0,.66a8.47,8.47,0,0,1,0-1.07l-.11-.08.07.19C113.49,37.4,113.57,38.68,113.53,39.09Zm0,13.48c0,.09.06-.11.07.18l0-1.49Zm-.29-10.64a.67.67,0,0,0,0,.17A1,1,0,0,1,113.2,41.93ZM114.32,38l.07.58,0-1Zm.13-.52h0a.19.19,0,0,0,0,.08Zm0,0h0v-.69C114.43,37.07,114.42,37.33,114.43,37.5Zm0-1.39a4.39,4.39,0,0,1,0,.7C114.45,36.34,114.47,35.9,114.4,36.11Zm-.1,15-.08-.09,0-1.5s-.08-.29-.07-.59l-.08.72.06.09c0,.39-.06.7-.07,1a12.22,12.22,0,0,1,.19,1.77C114.33,52.08,114.28,51.39,114.3,51.09Zm0,1.49s0,0,0-.08,0,.08,0,.12Zm0,7.38,0-.39c0,.75,0,.74.07.61v-.25Zm.07-17.87c0-.06,0-.08,0-.08v-.47A3.2,3.2,0,0,0,114.39,42.09Zm-.14,10.7a.61.61,0,0,0,0-.17l-.06.07Zm0,12.56,0-.15V63.66l-.09.3A5.35,5.35,0,0,1,114.26,65.35Zm-.68-6a.55.55,0,0,0,0-.13Zm.34-1.37V58a13.05,13.05,0,0,1,0-2,8.55,8.55,0,0,0-.23,1.69v0c0,.21-.06.36-.12.38a4.09,4.09,0,0,0,0,1.06c0-1.14.13-.19.12-1.11a10.55,10.55,0,0,1,.12,1.79l0-.39c0,.5,0,.9,0,.79s.05-.51.08-.12-.09,1.22-.22,1.74c0-.08,0,0,0,.19,0-.27,0-.44,0-.6a4.15,4.15,0,0,0,.23,1.24l0-2c0,.21-.05.31-.1.12l.13-.92A18.79,18.79,0,0,1,113.92,57.94Zm-.19,4.13v0Zm.07-6.47c.12-.93-.13-1,0-1.61-.06.11-.07-.58-.11-.08C113.86,54.59,113.6,55.44,113.8,55.6Zm.07,13.62a3.5,3.5,0,0,0-.11-1.27C113.79,68.84,113.85,68.13,113.87,69.22Zm.47-36.48c-.07.21.06.88,0,1.58.09-.32-.06-1.29.07-1.21s0,0,0,.07V31.75C114.41,31.8,114.35,31.93,114.34,32.74Zm0,2.27,0-.28,0,.9Zm-.25,19.6c0,.59,0,.9-.07.61,0,.79.1,2.18.15,2.76l.08-.91c-.07,0,0,.6-.09.41s0-1.29.12-1a9.53,9.53,0,0,1,0-2.2c-.11-.27-.26-.34-.26.66C114.06,54.62,114.1,54.72,114.13,54.61Zm0-20.81c0-.11,0-.51.1-.52L114.13,32A8.91,8.91,0,0,0,114.09,33.8ZM45.47,53.34v.07l.08.06,0-.2Zm1.64-11.67c0,.07,0,.1,0,.12A.4.4,0,0,0,47.11,41.67Zm-.32-1.52c-.15,2.13.24,2.54.06,4.57-.06.29.06,0,.08-.49,0,0,0,0,0,0,.15-.23-.07-2.77.13-1.52l0,.29c.08-.51,0-.49,0-1,0-.33.05-.38.07-.32a3.79,3.79,0,0,1,0-.39l.16,0c0,.36,0,.69,0,1l0-2.27-.06.28V38.76l0,0v-.38A5.9,5.9,0,0,0,47.17,37a1.88,1.88,0,0,1,0,.51l-.08-.68c.11.47,0-1.11.15-1.13,0-.94.08-2,.13-3.23v-.31L47.2,32c0,.51-.13-.11-.18.32l.06.09-.09.82h0l0,.91c0-.11.05-.41.08-.32a4.32,4.32,0,0,1-.05.87s0,0,0,0a19.42,19.42,0,0,1,0,2.41l0-.32a9.69,9.69,0,0,0,0,1.72c.15-.13,0-.89,0-1.2l.08-.12a25.15,25.15,0,0,1,0,2.9c0-.58-.1-1-.09-1.28C46.84,39,46.92,40.82,46.79,40.15Zm.14,4.08s0,0,0-.13A.53.53,0,0,1,46.93,44.23Zm.31-2c0-.57-.05-.41-.09-.46A2.72,2.72,0,0,0,47.24,42.25ZM47,46.1l0-1.21-.07,0C46.92,45.3,46.87,46.11,47,46.1Zm0-11.22,0-.2A.59.59,0,0,0,47,34.88Zm0,0a4.63,4.63,0,0,0-.06.55C47,35.91,47,35.23,47,34.88Zm0,1.92a2.31,2.31,0,0,0,0-.37ZM46.5,55l.1.28c0-.4,0-.19,0-.69.14-.23.06.88.08,1.48a11.5,11.5,0,0,0,0-2.27c0,.13-.07,1-.13.7a3.51,3.51,0,0,1,0-.6C46.48,54.07,46.5,54.57,46.5,55Zm.21,2.12a12.13,12.13,0,0,0,.2,1.55c.14.37,0-1.1.17-1.13A7.41,7.41,0,0,1,47,55.92c0-.7,0,.41-.06.71a3.47,3.47,0,0,1-.06-1.08l-.07.21v-.7C46.63,55.1,46.84,57.15,46.71,57.08Zm.23,16.83v0c0,.13,0,.76-.1.45a2.53,2.53,0,0,1,0-.6c-.13.32,0,1.49-.12,1.22l.16.26A11.09,11.09,0,0,1,46.94,73.91Zm0-26.61.07-.61s-.09-.09-.1.22A1,1,0,0,0,46.93,47.3Zm0,15.25v1l.16-.24A2.16,2.16,0,0,1,46.93,62.55ZM47,73.31l0-.71-.05.71ZM47,64c0,1-.05,2.3,0,3C47,65.93,47.1,65,47,64Zm-1,3.66a1.07,1.07,0,0,0,0-.28C46,67.49,46,67.58,46,67.69ZM47,69.82v.9l.05-.41Zm-.31-16.06v0Zm-.41-2.93v-.18C46.25,50.51,46.25,50.51,46.25,50.83Zm.13,10.74c0-.36,0-1.48-.08-1.38a4.66,4.66,0,0,1-.09,1.21c0,.71.06.49.06,1.09C46.32,62.48,46.33,61.7,46.38,61.57ZM46,30.88l0,0S46,30.89,46,30.88Zm67.21,39.78,0,0S113.18,70.66,113.17,70.66Zm.06.89c.06-.32,0-1.41,0-1.7-.1,0,0,.84-.07.86C113.22,70.88,113.18,71.47,113.23,71.55ZM45.54,57.66h0l0,.09-.06.51ZM113,63.71a11.47,11.47,0,0,0-.07-2.27c0,1.09-.11.32-.14,1h0s0-.06,0,.18c0,1.9-.24-.15-.27,1.55a12.06,12.06,0,0,1,0,1.9c.12.18.35-.17.27-1.55l.07-.22v1.4C113.07,65,112.78,63.27,113,63.71ZM46.71,36.59s0,.06,0,.09v.1Zm-.2,2.11v-.08c0,.1,0,.2,0,.28Zm-.57,4c0-.89.07-1.21,0-2.2l.08.58c.08-1.11-.1-.77,0-2.28l-.08.11,0-.51a4.08,4.08,0,0,1-.09-1.37l-.13.13c0-.51.12-.33.12-.93,0-.39-.09-.58-.13-.27a21.79,21.79,0,0,0,0-3.3c.07.18.06-.71.09-.42v.2A4.58,4.58,0,0,0,46,30.94L46,30.88a.29.29,0,0,0,0-.1l.68.68,0,.05c.05.37.09.29.12.06l.09.09c0,.91,0,1.83,0,2.7l0-.19c-.06.65,0,1.26,0,2l0,.42c0,.21,0,.59-.06.86,0,.08.08-.12.09.24,0,.06-.08,0-.12,0s0,.08,0,.07,0,.17,0,.38c.15.56,0,2,.13,2.76l-.09,1-.1-.77v.4c-.2-.66.09-.82,0-1.79l-.16-.06V39c-.06-.09-.14.22-.15.53a7.43,7.43,0,0,0,.18,1.05,1.16,1.16,0,0,0,0-.4c.13,1-.08.12,0,.91.06-.31.09.38.13.67a9.37,9.37,0,0,0,0,2.1l-.1.82.09.48c-.13.51.15,2.56,0,3.31a8,8,0,0,1,.08,1c0,.7-.12,0-.13.92.13-.33,0,1,.07,1.49-.09.08-.14-.86-.16-1.15l.06-.83c-.08.21,0-.59-.11-.28,0-1.21,0-1.8.12-3.51,0,.1-.07,0-.1.22l0-1.32a7.17,7.17,0,0,0-.18,1.84l0-1.18v.1L45.83,43C45.83,42.64,45.89,42.53,45.94,42.72Zm.27,17.16c0-.4-.08-.08-.12-.18a14.12,14.12,0,0,0,.08-1.41,3.55,3.55,0,0,0,0-.49l0-.07c0-.46,0-.93,0-1.44,0,0-.06.11-.07-.19l0-.4c-.09-.38-.05.71-.11.62a7.8,7.8,0,0,1,.11,1.27.15.15,0,0,1,0,.07l-.06-.16a3.47,3.47,0,0,1,0-.38,2.65,2.65,0,0,0-.05.79,5,5,0,0,0-.07.75l.08-.59a14,14,0,0,1,.06,1.74Zm-.13,9.49,0,.81s.07.38.08-.12C46,70.18,46.17,69.26,46.08,69.37ZM46.21,48l-.11,0C46.1,48.87,46.19,48.05,46.21,48Zm.22,13.62c0-.11,0-.13,0-.09S46.4,61.7,46.43,61.66Zm-.32,11.23c-.1-.38,0-.51,0-1.2l-.1.72a2.18,2.18,0,0,1,0,.6ZM45.5,61.05l.08.78c0-1.09.1-2.51,0-3.49l0,1.5-.06-.68c-.08.12.06,1.08,0,1.5a1.32,1.32,0,0,1,0,.23v.82Zm0-8.15v.22l0-.08Zm.11,17.29a2.89,2.89,0,0,1,0,.29A1,1,0,0,0,45.58,70.19Zm0-1.31a4.11,4.11,0,0,0,0,1.31,20.3,20.3,0,0,0,0-2.71h0c.05-.91,0-1.1,0-1.9l.08-.12c0-.8-.12-.18-.13-.08.1,1.18-.14,1.43-.06,2.41a3.37,3.37,0,0,1-.08-1.18.35.35,0,0,0,0-.06l0,2.4c0-.15,0-.3,0-.45Zm.86-16.2a1.57,1.57,0,0,0-.17.71c.12.07.12.15.16-.5a7.09,7.09,0,0,0,0,1.09c.08-.91-.08-1.18,0-2A3.92,3.92,0,0,0,46.42,52.68Zm-.13-.16v-.31l-.09-.28ZM46.43,64l-.09.41h0a8.11,8.11,0,0,0-.14,2.22c.1.38,0,1.2,0,1.68.14,0,0-2.08.16-2.22C46.44,65.41,46.46,64.61,46.43,64Zm0-8.15V56l0-.11,0,.21c0,.14,0,.29-.06.23a3.77,3.77,0,0,0,0-.63,9,9,0,0,0,0,1l0-.58,0,.39c0-.14,0-.26,0-.33l0-.18Zm-.74,16.39h0Zm.69-15.61,0,.33A2,2,0,0,0,46.41,56.65Zm.06-.19s0,.11,0,.17Zm-.12-.85s0,0,0,0a.92.92,0,0,1,0-.16Zm-.12.71.12-.71a1,1,0,0,1-.07-.2ZM45.75,43l0,.41.07,0ZM46,62.91v0Zm.13,3a.34.34,0,0,1,0,.1A.31.31,0,0,0,46.13,65.87Zm-.54-33.28a.14.14,0,0,0,0-.07v.54a.31.31,0,0,1,0,.13Zm-.13,40.32a1.26,1.26,0,0,1,.08.88c.12.57,0-1.09.07-1l-.08-.48c0-.09.12,0,.16,0,0-.3.09-1.11.13-.92l0-1.58A18.65,18.65,0,0,0,45.46,72.91ZM45.62,42a1,1,0,0,0,0,.26Zm-.06,1.75.09-.81v-.1l-.09.82Zm.19-2.73c0,.21,0,.32-.08.52l0,.1-.07.36C45.7,41.79,45.81,42.13,45.75,41.06ZM46.69,47c0-.61.07-.42.12-.56C46.75,46.47,46.67,45.85,46.69,47Zm.12,11.9a13.27,13.27,0,0,0,0,2A13.12,13.12,0,0,0,46.81,58.85Zm.27-9.71c0-.14,0-.29,0-.43A2.69,2.69,0,0,0,47.08,49.14Zm0,0c0,.08,0,.15,0,.22A1.12,1.12,0,0,0,47.08,49.14Zm.06-1.69c-.07-.18-.11.13-.14.43C47,48.37,47.06,47.37,47.14,47.45Zm-.34,6.42.13.07C46.89,53.45,46.83,53.36,46.8,53.87Zm.32-9.5c-.07,1.4.11.87,0,2.28.05.36.08,0,.1-.09l0-3.59c0,.17,0,.32,0,.47l-.14.23a3.09,3.09,0,0,1,0,.68Zm.2-8.85v-.94c0,.35,0,.68,0,.88A.14.14,0,0,0,47.32,35.52ZM47.05,45c0-.19,0-.41.06-.63A1.64,1.64,0,0,0,47.05,45Zm-.51,10.14,0,.41c0,.4.09.48.14.47C46.67,55.39,46.58,55.61,46.54,55.12ZM47.2,50c0,.12,0,.23,0,.34C47.19,50.2,47.2,50.08,47.2,50Zm-.5,3.62a6.63,6.63,0,0,0,0-1.09A8.08,8.08,0,0,0,46.7,53.61Zm.11-7.22a.71.71,0,0,0,0-.27A.94.94,0,0,1,46.81,46.39Zm-.2,12.4-.12,1s.06-.09.09-.12A5.73,5.73,0,0,0,46.61,58.79Zm0,1.4c0-.46,0-.52,0-.49A2.79,2.79,0,0,0,46.59,60.19ZM46.94,53c0-.7,0-1.29,0-2A10.11,10.11,0,0,0,46.94,53Zm.21,17.41v-.37A1.46,1.46,0,0,0,47.15,70.45Zm0-21.8c0,1.17.09.54.06,1.34a5,5,0,0,0,0-1h-.05l.05-.81,0,.08V47.23a9.88,9.88,0,0,0-.16,1.48C47.11,48.66,47.13,48.63,47.14,48.65Zm0,6.49c.06-1.11.07-2,0-3a2.17,2.17,0,0,1,.1-.28l0,3.9C47.2,55.27,47.18,55,47.1,55.14ZM72.47,75.83c.7,0,.48-.06,1.08-.06,0-.06-.79-.06-.92-.11-.35,0-1.48,0-1.38.08A4.73,4.73,0,0,1,72.47,75.83Zm-.41.51c.3,0-.21,0-.31-.06-.68.07-1.1,0-1.58.08C70.78,76.41,71.66,76.3,72.06,76.34Zm30.41.61c-.49,0-.37,0-.24,0h.62Zm-.89,0c-.6,0-1.62-.11-2.51-.07.72.1-.32,0-.55.08h3.06ZM72.72,75.61c-.11,0-.13,0-.09,0S72.77,75.64,72.72,75.61Zm11,1.2c-.22-.09-.08.09-.79,0,0,0,.39-.07.58-.1h-.9c.51.12-.11.18-.62.24h1.81C83.52,76.94,83.45,76.89,83.7,76.81ZM86,75.26l.08-.05H86S86.06,75.23,86,75.26Zm8,0c.81.07.28-.06,1.09,0,.06,0-.07,0-.2-.06h-.44Zm-22.07,0c-.34,0-.59,0-.94-.06h-.72l-.34,0A13.14,13.14,0,0,0,71.92,75.27Zm41.34.7-.2,0-.28.06h.51Zm-46.2-.56c-.61,0-.38,0-.87.09l.4,0C67,75.52,67.07,75.46,67.06,75.41Zm31-.2H97.9A.26.26,0,0,0,98.05,75.21Zm8.71,1.08.2.07S106.89,76.3,106.76,76.29ZM103,76h.46A1.77,1.77,0,0,0,103,76Zm.5,0c.07,0,.09,0,.05,0Zm7.46.25,0-.06C110.86,76.21,110.83,76.23,110.92,76.25Zm-3.22.41a16.24,16.24,0,0,0,1.74.2h-.21c-.09,0,.22,0,.42.07-.8,0-1.7,0-2.5,0,1.23-.3-2.23-.16-1.68-.4l-1.08.06.18-.09c.34,0,.62,0,.88,0a24.8,24.8,0,0,0-3.16-.07l.49-.07a5.71,5.71,0,0,0-1.16,0c-.32,0-1.55,0-1.75-.09.9,0,1.17-.1,1.79,0,.19,0,.16-.17-.23-.14.3,0,.67-.13,1.46-.16H103l1.16,0-.29,0H103l.41.07c.27,0,.57,0,1,0l0,0h.28l-.17,0,.07,0a.55.55,0,0,1,.31,0c-1.09.06-1.62-.09-2.51-.1h-.3c.82.07.33.15,1.35.22.78-.07-.51-.06,0-.12.32.11,1.61.07,1.92.13-.2,0,.09-.09-.52-.09l.58-.09c.61,0-.09,0,.12.08s.54.07.84.07h.12l.18,0c-.13,0-.37,0-.55,0h.63s.06-.09-.43-.07L107,76a10.24,10.24,0,0,0-1.43-.14l0,0,.65,0-.77.12c.39-.05-.64-.16-1-.11l.39-.08H105l-.21,0,.69,0c.69,0,.58-.1.27-.15a2.31,2.31,0,0,1-1.12-.11l-1.29,0c-1.51-.05-1.23-.16-2.44-.21-.09,0,.21,0,.41.07-1.1,0-2.18.06-3.3-.07l.11,0a5.9,5.9,0,0,0-1.41,0c-1.13-.2,2.48,0,1.37-.19h.35l-.15,0,.71,0h2.56v0c.39,0,1,0,1.5,0-.21,0-.18,0-.06-.06H110l.46,0h0l.29,0h.26c.19,0,.3,0,.49.06h.17v0q.4,0,.84,0l.2.2a6.48,6.48,0,0,1-.75,0l-.43.07,0-.09c-.35,0-.63-.07-1.07-.09l-.09,0c.1,0,.49,0,.6,0-.2,0-.59,0-.48.08l.59,0c-.78.08-1.88.07-2.57.13,1.6,0,.16.23,1.46.28a13.58,13.58,0,0,1,1.66,0,4,4,0,0,1,.6,0H112s0,0,0,0l-2.1,0a8,8,0,0,0,1.11.17h0l.9,0h-.55l1.09.12c.43,0,.75,0,1.12,0l.31.31h-.14s0,0-.09,0l0,0-.09,0h0c-.5-.08-1.88,0-2-.08v0a35.55,35.55,0,0,1-3.83-.18,13.6,13.6,0,0,0-2.26.08c.68,0,1.2.12,2.28.14.5,0,.28-.06.58,0S107.69,76.61,107.7,76.66Zm2.92-1h.9l-.61,0Zm0,1.17c-.28,0-.57,0-.84,0,.28,0,.38.08.72.1h.42C110.83,76.91,111.38,76.9,110.63,76.85ZM107,76.53c.19,0,.49,0,.68-.07l-.9,0ZM53.52,75.21H51.36a.34.34,0,0,1-.15,0A11.84,11.84,0,0,0,53.52,75.21Zm51.26.61h0Zm-3.09.54-.07,0h.07Zm8.1.51h0Zm-6.88-.42.8,0-.11-.06Zm10.76.2,0,.06S113.71,76.67,113.67,76.65Zm-1.77-.49.5,0C112.25,76.17,112.08,76.17,111.9,76.16ZM81,76.94h0Zm-5.32,0ZM74,76h0Zm3-.13h0Zm9.87-.51.22.12C87.42,75.52,87.59,75.38,86.8,75.4Zm-8,.62a.78.78,0,0,0-.28,0ZM74.45,76a18.61,18.61,0,0,0,2.75.27c.08-.09.69,0,.37-.15,1.09,0,.41.07,1.12.11-.23-.05-.36-.13-.22-.15-.36,0-.48-.07-.73-.08L78,76c-.58,0-1.6,0-1-.11a2.55,2.55,0,0,1-.9,0s-.19,0-.18.1c-1.1,0-2.82-.16-2.88,0,.48,0,.81,0,1,0C74.84,76,73.76,75.94,74.45,76Zm20.7.65c-.29,0-.18.05-.27.08C95.68,76.7,95.26,76.63,95.15,76.6Zm.21-.42H95c-.16,0-.62-.06-.62-.07a3.13,3.13,0,0,0-.6,0c-.1,0,.9.08,1.22.13.07,0,.06,0,0,0l.79,0Zm-4.18-.41.71,0,.39,0Zm1.76.69-.34-.18-1.07.14A5,5,0,0,1,92.94,76.46Zm-2,0-.42-.09-.08.08C90.75,76.47,90.86,76.53,91,76.49Zm-11.38.11.38-.12a4,4,0,0,0,1.3,0,20.3,20.3,0,0,0-2.71,0v0c-.91-.06-1.09,0-1.9,0l-.12-.08c-.8,0-.18.12-.08.13,1.18-.1,1.43.14,2.41.06a3.33,3.33,0,0,1-1.17.08c-.49.08,1.5,0,1,.16l-.49,0c.3,0,.6,0,.41.09a4.78,4.78,0,0,0-1.28,0l.3,0-.05,0h3.23c-.14-.07-.7,0-1.11-.14h.7c.38-.07,1.48,0,1.47-.11A11.77,11.77,0,0,1,79.57,76.6Zm6.06.34a.71.71,0,0,0-.31,0l-.89,0A11.19,11.19,0,0,0,85.63,76.94Zm-2.31-.62s0,0,0,0h0ZM80.43,76l.81,0s.38-.07-.12-.08C81.24,76,80.32,75.87,80.43,76Zm3.65.08L84,75.93c-.38.09-.5,0-1.2,0l.72.1A2.26,2.26,0,0,1,84.08,76Zm-11,.32h1.55a9.24,9.24,0,0,0,1.23,0c-2.67,0,.68-.28-1.8-.37.88.06,0,.23.55.32l-1.34,0Zm11.8.13c.57-.12-1.09,0-1-.06l-.48.08c-.09-.05,0-.12,0-.16-.3,0-1.11-.09-.92-.13l-1.58,0a18.79,18.79,0,0,0,3.16.31A1.29,1.29,0,0,1,84.86,76.49Zm-7.15-.68c.38-.1,1.21,0,1.69,0,0-.14-2.09,0-2.23-.16-.7,0-1.5,0-2.09,0l.41.1v0A8.21,8.21,0,0,0,77.71,75.81ZM65,75.21h-.29l.27,0Zm12.4,1.7A1.69,1.69,0,0,0,77,77Zm3.63,0c-.09,0-.07,0-.09,0H81S81,77,81,76.94Zm-4.29,0h0Zm4.56-.51.29,0A.92.92,0,0,0,81.25,76.46Zm1.21-45.61.2,0L82,30.74Zm8,1.14-.89,0,.71,0C90.49,32.06,90.88,32,90.48,32Zm-1.55.12,0,0a10.24,10.24,0,0,0,1.1,0L88.79,32C88.31,32,88.81,32.05,88.93,32.11Zm2.9-.39h.7l-1.41,0Zm-3.13.37v0C88.79,32.11,88.83,32.1,88.7,32.09Zm-.18-.28h0S88.56,31.81,88.52,31.81Zm19.28,0-.22,0-.47.08Zm-58.58.37h.44l.27,0C49.31,32.08,49.27,32.11,49.22,32.14Zm16.11,0h.36l-.29,0Zm22.33-.33a2.47,2.47,0,0,0,.86,0A4.79,4.79,0,0,0,87.66,31.81Zm26.72-1.33h0a.64.64,0,0,0,0-.09h-.14C114.09,30.41,114,30.46,114.38,30.48ZM88.59,32.14h.13v0Zm10.59,0c.1,0-.3,0-.49,0-.62-.09-.13-.13-.83-.14l.33.15h1.42Zm-48.53-1.4.79,0h-.6Zm35,.39-.57,0A3.37,3.37,0,0,0,85.67,31.08Zm10.57-.66a1.57,1.57,0,0,1,.61,0l.11-.06H94.49l2.06.09C96.35,30.45,96.25,30.44,96.24,30.42ZM79.75,31.63c-.69,0,.12.08.23.12C80.47,31.73,80.06,31.66,79.75,31.63Zm-5.08-1.25h0ZM93.5,76.32c.79-.08.53.1,1.41.06A4.31,4.31,0,0,0,93.5,76.32ZM85.67,31.08a5.15,5.15,0,0,0,1.45.09c.59-.05-.63-.15.57-.15l-1.32-.1C85.68,30.91,86,31.06,85.67,31.08Zm-5.46.9c-1,0,.08-.08-.12-.1l-1.19,0c0,.15.91.08,1.53.2l-.41,0h.61a1.39,1.39,0,0,1,.38,0l-.38,0c.86-.18,1.62.13,2.68,0C82.5,32,81,32,80.21,32Zm5.46-.1a4.59,4.59,0,0,0-.8,0A4.2,4.2,0,0,0,85.67,31.88Zm-4.5.26-.16,0,.15,0Zm1.83,0h0ZM53.21,76.71c-1.23.28-1.31-.06-2.75.2l-.61-.07.27.06a8.88,8.88,0,0,1-1.18-.07l.22.09-.47,0s0,0-.09,0h-.15c.08,0,.11,0,.12,0h-.25l.17,0h5.57C53.54,76.87,54.81,76.76,53.21,76.71Zm15.61-.18.52.06-.62-.09v0Zm-9.69-.59c.8,0,0-.09,0-.12Zm10.84,1-.35,0h2.22A18.4,18.4,0,0,0,70,76.93ZM57.32,76.8l.13,0Zm.3-.47c.2,0,.41.07.62.11a8.07,8.07,0,0,0-.89,0c.22.09,1.19,0,.91.1.4,0,.39-.07.47-.18a3.67,3.67,0,0,1,.8,0l-.38.12a3.32,3.32,0,0,1,1.54.19c-.14-.1.22-.14.68-.15s.73,0,1.27,0l-.27,0c.34,0,.56-.06.44-.15-.5,0-.42-.14,0-.14l-1.51-.1a40.45,40.45,0,0,1-4.56.15L56,76.21l1.28,0c-.42-.14-.87.09-1.49,0a4.82,4.82,0,0,0,1.73.2Zm9.73.27a2.84,2.84,0,0,1,.77-.12,3,3,0,0,1-1.06-.1c.1,0,0,.06.06.07a4.74,4.74,0,0,1-.79,0l-.13-.13c-.49,0,.43.17-.77.15C65.35,76.6,66.93,76.5,67.35,76.6Zm41.29-45.06a5.62,5.62,0,0,1-.91-.1l-.28.08A9.45,9.45,0,0,0,108.64,31.54ZM63,75.82l.58-.07h-.31Zm1-.19a8.56,8.56,0,0,0,1.09,0c-.91-.08-1.18.08-2,0a3.79,3.79,0,0,0,.7.07,1.62,1.62,0,0,0,.71.17C64.52,75.67,64.6,75.67,64,75.63Zm3.11.75-.17,0Zm-9.26.39-.21,0-.14,0Zm5.41-.41.41,0,.17-.12C64.19,76.28,62.49,76.28,63.21,76.36Zm-6.18.5a7.86,7.86,0,0,1-1.74,0c-.07,0-.39.12.07.13l0,0h.43Zm-1.81-.06.07,0S55.3,76.8,55.22,76.8Zm57.7-44.87.16-.16h0C113,31.81,112.67,31.88,112.92,31.93ZM64.68,75.34a6.75,6.75,0,0,0-1.1,0A8.22,8.22,0,0,0,64.68,75.34Zm44.71-43.48,0-.09h-.69ZM57.32,76.8c-.21,0-.4.07-.19.1S57.28,76.83,57.32,76.8Zm3,.1.47,0A2.83,2.83,0,0,0,60.27,76.9Zm.44-.08H58.82c.21.07.11.09-.49.06a10.2,10.2,0,0,0,1.94,0h-.14Zm4.41.15h0Zm-1.56-.11.06,0,.22,0Zm1.12-.08h0ZM60.84,77s-.05,0-.1,0H61c-.22-.09.89,0,.27-.13a18.32,18.32,0,0,1,2.14,0h.13c-.24,0-.49-.07-.61-.1l1,.07c.16-.19-1-.09-1.05-.28l.72.11.48-.09c.1,0,.32.11,0,.14,1.32.11,1.38-.07,3,0-1,.12,1.81.06,1.13.17a3.39,3.39,0,0,1,.71,0c-.71-.07-.82,0-1,0l.25,0Zm-12.52,0h-.23A.71.71,0,0,0,48.32,76.94Zm-.75,0,.52,0C48,76.9,48,76.85,47.57,76.9Zm-2-.14h0l-.09.09c.22,0,.31.08.38.07C46.13,76.87,45.82,76.81,45.61,76.76Zm18.92-.27-.19,0,.11.06ZM67.1,31.68h0Zm1.1,0h-.83A2.09,2.09,0,0,0,68.2,31.69Zm7.29.3h0ZM51.88,31.9c0,.05-.68.09-.07.13a7.35,7.35,0,0,1,1.13-.1A3.48,3.48,0,0,0,51.88,31.9Zm5.59-.41-.11-.08-.28.08Zm42.46-1.07-.7,0c-.09,0,.11.06.21.07Zm-42,.66-.28.08-1.3,0,.71.08a13.66,13.66,0,0,1,1.7,0C58.23,31.18,58.79,31.06,57.9,31.08Zm1.89,1L59,32l.71.06Zm-1.41-.53,1.79,0c-.22,0-.43-.12-.14-.18h-1.3l.41,0C59,31.36,58,31.41,58.38,31.5ZM75.49,32h-.25S75.32,32,75.49,32Zm22.2-.39a3.05,3.05,0,0,0,.82,0A4.11,4.11,0,0,0,97.69,31.6Zm.82,0h0Zm1.13-.17c0,.05-.49,0-.48.08h1Zm-2.3.42h0Zm-10.51.26h0ZM76.24,32l-.69,0c.18,0-.3.06-.39.09C76.26,32.12,75.54,32,76.24,32Zm-1.8,0a5.38,5.38,0,0,1,1.09,0l-.42-.07h.4l.09,0A3.07,3.07,0,0,0,74.44,32Zm25.11-.1-1.12-.1a6.43,6.43,0,0,1-1.09.07A17.11,17.11,0,0,0,99.55,31.9ZM85.8,32l1.35.07h.36l-.23,0h.47c-.35,0,0-.06.07-.11L88,32h-.18a1.46,1.46,0,0,0-.34,0,2.65,2.65,0,0,1-.38.05H87a4.84,4.84,0,0,1-1.08-.09C86.09,32,85,32,85.8,32Zm1.68-.52s-.48.08.22.07C87.69,31.53,87.79,31.5,87.48,31.49Zm-34.54.44a4.47,4.47,0,0,0,.52,0A3,3,0,0,0,52.94,31.93Zm7.32-1.06.07,0C60.21,30.85,60.21,30.86,60.26,30.87Zm-9.34.2a2,2,0,0,0,.51,0h-.51Zm-2.07.12h0Zm-.62-.12c-.21.07.06.1.47.11C48.24,31.13,49.24,31.08,48.23,31.07Zm22.71.75h0Zm6.72-.61h0Zm-3.2-.48c.12.06-1,.1-.07.13C74.08,30.78,75.48,30.8,74.46,30.73Zm-.09.5.77-.1a4.52,4.52,0,0,0-.9,0Zm-4.94-.79-1.2,0c-.09,0,.22.07.52.1C68.43,30.41,69.35,30.5,69.43,30.44Zm2.2.55h-.7l.61.07ZM91,31.65h-.8c1.19-.06-.32-.11-.14-.18l1.12.08c.39,0-.32-.11.47-.11l-1.61-.12.12.11-1.4,0c.81.05-.08.06-.37.1A9.31,9.31,0,0,0,91,31.65Zm5.22-.29h-.3c-.22-.07.29-.06.58-.07l.72.11c.22.09-1.19,0-.88.06.52.1,1.68,0,1-.1l1.19,0c-.1,0-.5,0-.31-.06l.39,0c-.92-.1-3.19,0-4.49,0,.2,0,.41,0,.7,0l-1.07.13C94.62,31.3,95.43,31.37,96.23,31.36Zm-46,.65h.89l-.5-.06C50.79,31.92,49.8,32,50.21,32Zm42.5-1.32.8,0h-.8Zm-28.24-.08.77,0A4.84,4.84,0,0,0,64.47,30.61Zm-14.89-.18a2.34,2.34,0,0,1-.89,0l.12.1c1.11,0,1.13-.09.93-.17h-.15S49.61,30.41,49.58,30.43Zm12.93.08.17.13.47-.05h.43C63.56,30.48,63.06,30.49,62.51,30.51Zm1.38.1c.31,0,.58.07.53.1.55-.07.56.15,1.37,0l-.55-.07a10.34,10.34,0,0,0,1.57,0C65.87,30.62,64.73,30.59,63.89,30.61Zm9.77.95c.18,0,.27,0,.12.09,1.23,0,.44-.07.34-.13A2.32,2.32,0,0,0,73.66,31.56Zm4.8-.06-.67,0-.05.08C78,31.55,78.22,31.52,78.46,31.5Zm-2.06.05-.06,0h0s.06,0,.07,0ZM62,31a4.31,4.31,0,0,1-1-.17h0A2.45,2.45,0,0,0,62,31Zm-1.71-.14h.1c.08,0,.1-.07,0-.1-.32,0-.52,0-.52.07a1.93,1.93,0,0,0,.41,0ZM60,30.78h0Zm-.42,0h0Zm3.94-.13-.37,0h.6Zm-14.34.45v0l.13,0Zm12.3-.69h2.71l-.08.09c1.46.16.7,0,1-.1h1c0,.06-.43.13.18.16a3.23,3.23,0,0,0,.69,0h0a3.59,3.59,0,0,1,1.08,0l-.43,0h-.09l-.25,0c-.44,0-.09.15-.08.23.7,0,.56-.17,1.38,0-.31-.11-.24-.21.35-.29l1.81.09c-.59,0-1.39,0-2.18.08,0,.1.76.3-.22.37a11.19,11.19,0,0,0,2.12.13l-.11-.06.71.17h0c.19,0,.46-.06.16-.07.29,0,.28.05,0,.09H70.9c.71,0,1.82.11,2.41.06l-.31,0,1,0v0c.89,0,1.3,0,2.6,0,.17-.12-.44-.17-.95-.23a8.15,8.15,0,0,1,1.6.06,8.27,8.27,0,0,0,2,.15l-.5,0,.26,0a12.1,12.1,0,0,1,1.65,0c.31.08,1.8,0,1.72.12-1.42-.11-3,.16-4.29,0a8.32,8.32,0,0,1,.83.14l-.87.11c-2.24-.21-2.68,0-4.81-.11,0,.12,1.14.2.56.28a5.37,5.37,0,0,1-1.21-.05h1.2A26.32,26.32,0,0,0,71,31.73l-.06.09c-.06-.09-1.82-.07-2.06-.15l-.09,0-.71-.06c.5,0,.29-.06.38-.1l-1,0-.61.07a9.73,9.73,0,0,0-2.11-.1h-.12c-1.14,0-.81-.07-.49-.13-.73,0-1.52-.05-2.14-.1l.32.08-1,0,.39,0a19.57,19.57,0,0,0-2.42-.12c-.32-.1.4,0,.7,0-.24-.07,0-.13.23-.2l-.09,0a6.08,6.08,0,0,1-1.88.07c-.21-.05.19-.05.18-.1a9.43,9.43,0,0,1,1.2,0l-.09-.09-1.62,0h-.18l-2,0,.18-.09c-.29.06-1.7,0-2.08.06l-.13-.15a1.33,1.33,0,0,0-.68.11l-.21-.07c.23.14-1.05.23-.23.34l1.19,0c.51,0-.69,0-.68.09.69,0,1.11,0,2,0s1.12.11.74.18c-.8,0-1.91-.05-2.61,0v0c-2,0-.6-.14-1.8-.17.37-.14-1.23,0-1.06-.17-.4,0-1.26.15-1.39,0l.6,0a3.19,3.19,0,0,0-.51-.15c-1,0-2,0-2.72,0,.55.27,3.32.14,4.06.37v-.05c.39.07.22.06,0,.06l.12,0h-.43l0,0c-.42,0-.74,0-.94,0h-.1c-.17,0-.17-.06,0-.12-.6,0-1.49,0-1.07.11a7.35,7.35,0,0,0-.92-.09H47l.42.07c-.07,0-.43,0-.55-.07h-.63l-.22-.21h0l-.16-.16c1,0,2,0,2.86,0v-.07c.7,0,.92.12,1.72.17,1.79-.05,2.44-.26,4.34-.25l-.41,0,1.32.05c.57-.12-.72-.06-1.23-.14a20.05,20.05,0,0,1-2.69,0c-1.07.08-1.22,0-1.33-.05h9a1.67,1.67,0,0,0,.6.13H59a3.86,3.86,0,0,0,.82.08h.08c.7,0,.69,0,.68-.08l1.12,0a2,2,0,0,1-.52-.07Zm29.36.15h.5c.18-.07-.41-.07-.82-.09C90.88,30.48,90.78,30.52,90.79,30.54Zm-27.64.05h-.07ZM85.21,32h-.62s-.06-.05-.4-.05l.16.07-.22.08a2.73,2.73,0,0,0,.8,0l.36.06h.76C86.09,32.08,85.3,32,85.21,32ZM53.69,32l-.12-.09v.05h-.12A.85.85,0,0,1,53.69,32ZM99,76.11a5.39,5.39,0,0,0,.79-.07C99.32,76,99.13,76.05,99,76.11Zm-31.33-.48-.58,0,.39,0a1.52,1.52,0,0,1-.33,0l-.18,0h0l-.11,0h.21c.14,0,.3,0,.24,0a4.07,4.07,0,0,0-.63,0C67.16,75.7,67.41,75.63,67.71,75.63ZM58,75.35c-.61,0-.42-.07-.56-.12C57.53,75.29,56.92,75.37,58,75.35Zm9.7.28.33,0Zm-15.59.65.52.09.1,0,.36.07C52.85,76.34,53.19,76.23,52.12,76.28Zm13.21.12c-.27,0-.8,0-1.22,0A4.54,4.54,0,0,0,65.33,76.4Zm-14.42.33-.28.08h.19Zm14.42-.33h0Zm1-1a5.82,5.82,0,0,1-.69,0c-.23-.14.89-.06,1.48-.09a12.26,12.26,0,0,0-2.27,0c.13,0,1,.07.7.13a3.46,3.46,0,0,1-.6,0c.21,0,.71,0,1.11,0Zm1.88.55A2.39,2.39,0,0,0,69,76a3.64,3.64,0,0,0,.75.08L69.13,76A12.38,12.38,0,0,1,70.87,76l.07-.13c-.4,0-.08.08-.18.12a14.12,14.12,0,0,0-1.41-.08,2.29,2.29,0,0,0-.48,0l-.07,0c-.47,0-.94,0-1.45,0,0,0,.11.06-.18.07l-.41,0c-.38.09.71,0,.62.11a7.8,7.8,0,0,1,1.27-.11l.07,0-.15.06Zm-3.36-.6h0Zm2.56.43-.7-.12a.79.79,0,0,1-.21.06Zm2-.6H66.12c0,.19,2.09,0,2,.12C68.49,75.27,69,75.26,69.38,75.21Zm-2.83.46.13,0h-.13Zm1-.11h0Zm2.34-.13,1,.11c.05,0-.08-.05-.12-.08A5.65,5.65,0,0,0,69.86,75.43Zm2.67,1.44-.55,0A2.36,2.36,0,0,0,72.53,76.87Zm-1.27-1.42c-.46,0-.53,0-.5,0A2.91,2.91,0,0,0,71.26,75.45Zm-13.89-.24.08,0-.05,0ZM71.85,77H73.4s-.09-.07-.51-.09a1.63,1.63,0,0,1,1,.06l-.27,0h1.12c.25-.06.31-.1.17-.16a6.9,6.9,0,0,1-1.2,0l.69,0-.92-.1v0l-1.32-.16.78-.07c-1.09,0-2.51-.1-3.5,0l1.51,0-.69.06c.12.08,1.09-.06,1.5,0a5,5,0,0,0,1.29.2c-.3,0-.25.1-.48.11l.26,0C72.3,76.92,72.12,77,71.85,77Zm25.22-.87h.57L97.23,76C97.16,76.05,97.21,76.08,97.07,76.1Zm16.26-44.58Zm-.46.46,0,0c-.65-.06-1.41,0-2.11,0l-.27.16a3.11,3.11,0,0,1,1-.1l0,.07H112l-.5-.08C111.92,32,112.39,32,112.87,32Zm-6.2-1.15-.09,0c-.3,0-1,0-1,.07a2.61,2.61,0,0,1,.45,0c-.42.09.28.1.67.16l-.49,0a13.65,13.65,0,0,0,2.11.07c-.08,0-.1,0-.09,0H109s0,0,0,0h.4a7.61,7.61,0,0,0,1.07,0,1.17,1.17,0,0,1-.27,0l.41,0a4.69,4.69,0,0,0,.75,0c.1,0,.11.11,1.06.09a5.72,5.72,0,0,0,.9-.09c.2,0,.39,0,.58,0l.36-.36h-1.12c-.21-.05-.91-.08-.23-.17-.86-.05-2.63.18-3.12,0l-.85.05c1.09,0,1.42.11,2.22.13C109.36,30.72,108.32,30.81,106.67,30.83Zm3.75.22h0Zm-1.09,0h0Zm-12.26,45h0Zm12.56-45.56.07,0h.13ZM98.22,76.61c.82.11,2.08-.07,1.37-.13C99.21,76.58,97.88,76.48,98.22,76.61Zm2.53-46.12c-.39,0,.62.11.41.07C101.25,30.52,101.34,30.46,100.75,30.49ZM54.48,76.55h0Zm7.41-.76h-.18C61.57,75.79,61.57,75.79,61.89,75.79Zm33.34.68a6.22,6.22,0,0,0-1.3,0C94.34,76.48,94.83,76.47,95.23,76.47Zm.51-.92c0,.07.23.17-.67.16-.21-.07-.13-.16.35-.22a3,3,0,0,0-1.16.15c-1.21-.09-3.29,0-4.2-.06l0-.1-.38.07c.52.13,1.39,0,2,.12s.9,0,2-.06c-.19,0,0,.1-.59.08a7.38,7.38,0,0,0,1.19,0c.7,0,.52.08.73.13-.59,0-1.2,0-1.9,0,.83.12-1,.08-.87.11a7.69,7.69,0,0,0,2,.07c-.4,0-.61,0-.52-.08.8,0,1.63.16,2.62.13.08-.11-.52-.13-.74-.2,1.8,0,2.79,0,4.4.06-.11,0-.11,0-.11,0H101a33.56,33.56,0,0,0-4-.2c.5,0,.11,0-.09.06S95.85,75.63,95.74,75.55ZM50,75.55l-.2,0h-.08Zm-2.22-.2h.1l-.19,0Zm9,.67-2.66.19c-.4,0-.51-.06-.32-.11-.89,0-1.21-.07-2.19,0l.58-.07c-1.12-.08-.78.1-2.29,0l.12.08-.51,0a4.17,4.17,0,0,1-1.38.09l.13.13c-.5,0-.33-.12-.93-.12-.39,0-.58.09-.27.13-.28,0-.62,0-1,0l1-1h.13l.42,0c.22,0,.59,0,.86.06.09,0-.12-.08.25-.09.06,0,0,.08,0,.12s.07,0,.06,0l.38,0c.56-.15,2-.06,2.76-.13l1,.09-.78.1h.4c-.66.2-.82-.09-1.79,0l-.06.16H50c-.09.06.23.14.53.15a7.83,7.83,0,0,0,1.06-.18,1.27,1.27,0,0,0-.41,0c1-.13.12.08.91,0-.31-.06.38-.09.67-.13a9.44,9.44,0,0,0,2.11.05l.81.1.48-.09c.51.12,2.57-.15,3.31,0a8,8,0,0,1,1-.08c.7,0,0,.12.92.13-.32-.13,1,0,1.49-.07.08.09-.85.14-1.15.16l-.83-.06c.22.07-.59,0-.28.11-1.2,0-1.8,0-3.51-.12.11,0,0,.07.22.1l-1.32,0a7.2,7.2,0,0,0,1.85.18L56.65,76Zm55.37-44.45a5.72,5.72,0,0,0,1.17-.05A2.86,2.86,0,0,0,112.13,31.57ZM54.86,76.48,54,76.39h-.1l.82.09Zm-.45-.21-.39,0,.41,0Zm-1,.2-.26,0A1.08,1.08,0,0,0,53.36,76.47Zm.7.09c-.2,0-.16.08-.36.09C53.25,76.58,53.66,76.57,54.06,76.56Z"/><path class="cls-15" d="M56.93,74.85c0,.2-.12.36-.27.36H50.78c-.15,0-.27-.16-.27-.36a.5.5,0,0,1,.14-.36h5.88A.35.35,0,0,1,56.93,74.85Z"/><path class="cls-16" d="M73.25,74.85c0,.2-.12.36-.27.36H67.1c-.15,0-.27-.16-.27-.36s.12-.36.27-.36H73C73.13,74.49,73.25,74.65,73.25,74.85Z"/><ellipse class="cls-14" cx="63.96" cy="74.84" rx="0.24" ry="0.35"/><path class="cls-14" d="M73.25,74.85c0,.23-.09.35-.25.35s-.25-.12-.25-.35.08-.36.25-.36S73.25,74.61,73.25,74.85Z"/><path class="cls-17" d="M45.36,77l.52.53H115l-.76-.53Zm2-1.73h.53V32.66l-.53-.52Zm65.23-43.12-65.22,0,.53.51,64.69,0Zm1.93-1.74.53.52V77.5l-.76-.53Z"/></g><g id="Lehrerin_2" data-name="Lehrerin 2"><path class="cls-18" d="M75.77,30.54A3,3,0,0,1,72.65,33a3,3,0,0,1-3.13-2.4c-.43-2.05,1.37-2.68,3.09-2.69S76.27,28.46,75.77,30.54Z"/><path class="cls-19" d="M75.32,31.11A2.43,2.43,0,0,1,72.81,33a2.39,2.39,0,0,1-2.53-1.83c-.35-1.57,1.11-2.05,2.5-2.05S75.73,29.52,75.32,31.11Z"/><path class="cls-20" d="M77.23,42.9h0a.44.44,0,0,1-.38-.53L77.54,40a.54.54,0,0,1,.64-.32h0a.44.44,0,0,1,.38.53l-.69,2.34A.54.54,0,0,1,77.23,42.9Z"/><path class="cls-20" d="M67.85,43h0a.55.55,0,0,1-.64-.31l-.73-2.33a.44.44,0,0,1,.38-.54h0a.54.54,0,0,1,.64.31l.73,2.33A.44.44,0,0,1,67.85,43Z"/><path class="cls-19" d="M68,43.55A23.76,23.76,0,0,1,66.75,37a4.07,4.07,0,0,1,4-4.65l3.75,0a4.07,4.07,0,0,1,4,4.75,23.27,23.27,0,0,1-1.45,6.35Z"/><path class="cls-21" d="M76.73,49.29,68.63,49l-2.51,1c-1.35.56-2.29,2.17-1.6,3.46,1.73,3.2,2.72,14.36,1.41,17.47l14.31-.07c-2.29-3.1-1.38-14,.4-17.07.71-1.24-.22-2.83-1.51-3.44Z"/><path class="cls-22" d="M72.8,53.75s-2.76-2.5-2.75-4.11l0-4.29,5.24,0,0,4.3C75.28,51.22,72.8,53.75,72.8,53.75Z"/><path class="cls-23" d="M73.83,47.65a2.23,2.23,0,0,1-2.27,0c-1.47-.86-3.75-3.38-3.73-5.67L67.68,39a4.09,4.09,0,0,1,4.06-4.1h1.55A4.09,4.09,0,0,1,77.38,39l-.2,2.88A7.15,7.15,0,0,1,73.83,47.65Z"/><polygon class="cls-3" points="70.03 47.64 68.34 49.21 70.66 57.06 72.67 53.51 70.03 47.64"/><polygon class="cls-24" points="75.27 47.78 72.38 53.64 75 56.81 76.91 49.28 75.27 47.78"/><polygon class="cls-25" points="68.72 40.46 67.55 40.47 67.14 39.41 68.72 39.41 68.72 40.46"/><rect class="cls-25" x="71.75" y="39.61" width="1.58" height="0.6" transform="translate(-0.18 0.34) rotate(-0.26)"/><path class="cls-26" d="M71.33,41.55H68.91a.68.68,0,0,1-.67-.7v-1a.58.58,0,0,1,.56-.6h2.34a.91.91,0,0,1,.89.94v.58A.72.72,0,0,1,71.33,41.55Z"/><polygon class="cls-25" points="76.73 40.48 77.72 40.47 78.31 39.41 76.73 39.42 76.73 40.48"/><path class="cls-26" d="M74.5,39.25h1.4A1.06,1.06,0,0,1,77,40.31v0a1.22,1.22,0,0,1-1.22,1.22H74a.84.84,0,0,1-.84-.84v-.13A1.32,1.32,0,0,1,74.5,39.25Z" transform="matrix(-1, 0, 0, -1, 150.34, 80.43)"/><path class="cls-27" d="M71.1,40.76a.59.59,0,0,0,0-.14c0-.32-.38-.57-.85-.57s-.84.26-.84.58a.59.59,0,0,0,0,.14Z"/><path class="cls-27" d="M75.84,40.74a.32.32,0,0,0,0-.14c0-.32-.39-.58-.85-.57s-.85.26-.85.58a.32.32,0,0,0,0,.14Z"/><polyline class="cls-28" points="78.58 52.24 85.46 59.24 90.83 48.64"/><path class="cls-18" d="M73.73,33.85a8.24,8.24,0,0,0-.79.67,3.2,3.2,0,0,1,2.21,3,3.46,3.46,0,0,1-.13.92,3.19,3.19,0,0,0-1.29-4.62Z"/><path class="cls-29" d="M70.67,44.38v0c0,.78.91,1.4,2,1.39s2-.63,2-1.4v0Z"/><path class="cls-30" d="M72.94,45.25a4.53,4.53,0,0,0-1,.22l-.29.13a2.73,2.73,0,0,0,2.48-.22A2.73,2.73,0,0,0,72.94,45.25Z"/><path class="cls-31" d="M65.85,70.92c-2.84,5.12.38,13.16.38,13.16L80.66,84a15.5,15.5,0,0,0-.41-13.15Z"/><path class="cls-32" d="M94.36,43.63l-3.2,1.22a.55.55,0,0,0-.22.14,2.32,2.32,0,0,0-1.24.7,2.66,2.66,0,0,0,.11,3.62,2.37,2.37,0,0,0,3.46,0,2.49,2.49,0,0,0,.65-1.94L95.05,47a.77.77,0,0,0,.32-1h0a.81.81,0,0,0-.82-.62l.41-.16a.79.79,0,0,0,.35-1h0A.79.79,0,0,0,94.36,43.63Z"/><ellipse class="cls-18" cx="72.66" cy="33.83" rx="4.72" ry="1.83" transform="translate(-0.16 0.34) rotate(-0.27)"/><path class="cls-32" d="M62.41,76l3-.72a.62.62,0,0,0,.22-.1,2.35,2.35,0,0,0,1.39-.6A2,2,0,0,0,67.45,72a2.29,2.29,0,0,0-3.24-.49,2.13,2.13,0,0,0-.87,1.5l-1.06.21a.63.63,0,0,0-.43.77h0a.64.64,0,0,0,.63.57l-.38.09a.67.67,0,0,0-.47.81h0A.67.67,0,0,0,62.41,76Z"/><polyline class="cls-28" points="65.95 52.37 60.42 61.85 65.33 71.07"/></g><rect class="cls-33" x="23.44" y="81.86" width="114.21" height="5.67" rx="1.41" ry="1.41"/><path class="cls-34" d="M26.48,83h33.3a0,0,0,0,1,0,0v3.53a0,0,0,0,1,0,0H26.48a.87.87,0,0,1-.87-.87V83.88a.87.87,0,0,1,.87-.87Z"/><circle class="cls-24" cx="80.49" cy="57.28" r="10.54"/><polyline class="cls-35" points="78.42 51.55 85.57 57.67 78.42 63.8"/></g></g></svg>