<svg width="24" height="24" viewBox="0 0 24 24" fill="none" xmlns="http://www.w3.org/2000/svg"><mask id="a" style="mask-type:alpha" maskUnits="userSpaceOnUse" x="3" y="3" width="18" height="18"><path d="M12 21a9 9 0 100-18 9 9 0 000 18z" fill="#fff"/></mask><g mask="url(#a)"><mask id="b" style="mask-type:alpha" maskUnits="userSpaceOnUse" x="-6" y="3" width="36" height="18"><path d="M-6 3v18h36V3H-6z" fill="#fff"/></mask><g mask="url(#b)"><path d="M-6 3v18h36V3H-6z" fill="#012169"/><path d="M-6 3l36 18L-6 3zm36 0L-6 21z" fill="#000"/><path d="M30 3L-6 21m0-18l36 18L-6 3z" stroke="#fff" stroke-width="3.6"/><mask id="c" style="mask-type:alpha" maskUnits="userSpaceOnUse" x="-6" y="3" width="36" height="18"><path d="M12 12h18v9l-18-9zm0 0v9H-6l18-9zm0 0H-6V3l18 9zm0 0V3h18l-18 9z" fill="#fff"/></mask><g mask="url(#c)"><path d="M-6 3l36 18L-6 3zm36 0L-6 21z" fill="#000"/><path d="M30 3L-6 21m0-18l36 18L-6 3z" stroke="#C8102E" stroke-width="2.4"/></g><path d="M12 3v18V3zm-18 9h36z" fill="#000"/><path d="M-6 12h36M12 3v18V3z" stroke="#fff" stroke-width="6"/><path d="M12 3v18V3zm-18 9h36z" fill="#000"/><path d="M-6 12h36M12 3v18V3z" stroke="#C8102E" stroke-width="3.6"/></g></g></svg>