<svg id="Layer_2" data-name="Layer 2" xmlns="http://www.w3.org/2000/svg" viewBox="0 0 24 24"><defs><style>.cls-1{fill:#373a3b}</style></defs><circle class="cls-1" cx="17.56" cy="8.77" r="3.63"/><path class="cls-1" d="M17.56 14.47a5.59 5.59 0 01-3-.86v7.73a.44.44 0 00.74.28l1-.9 1.29-1.07 1.29 1.07 1 .9a.45.45 0 00.75-.28v-7.77a5.7 5.7 0 01-3.07.9zm0 2.59zM6.27 7.27v.93a.47.47 0 00.46.47h5.14a5.86 5.86 0 01.13-.94 5.84 5.84 0 01.27-.93H6.73a.47.47 0 00-.46.47z"/><path class="cls-1" d="M15.71 3.41a4.4 4.4 0 01.62-.18A2.09 2.09 0 0016 3.1a2.43 2.43 0 00-.38 0H4.4a2.43 2.43 0 00-.4 0 2 2 0 00-.52.21 1.79 1.79 0 00-.42.3 2.53 2.53 0 00-.29.39 2 2 0 00-.2.53 2.21 2.21 0 000 .37v14.97a2.21 2.21 0 000 .37 2 2 0 00.2.53 2.53 2.53 0 00.31.42 1.79 1.79 0 00.42.3 2 2 0 00.5.21 2.43 2.43 0 00.38 0h8.28v-1.83H4.4V4.93h9a1 1 0 01.11-.1 5.64 5.64 0 012.2-1.42z"/><path class="cls-1" d="M6.73 10.55a.48.48 0 00-.47.47V12a.47.47 0 00.47.46h5.4v-1.95zm0 3.72a.47.47 0 00-.46.46v.94a.47.47 0 00.46.46h5.41v-1.86z"/><path id="Rectangle" fill="none" d="M0 0h24v24H0z"/></svg>