<svg width="402" height="283" viewBox="0 0 402 283" fill="none" xmlns="http://www.w3.org/2000/svg">
<g opacity="0.6">
<path d="M0.0102486 78.4663C0.0102486 72.6859 4.68736 68 10.4569 68H205.553C211.323 68 216 72.6859 216 78.4663V195.534C216 201.314 211.323 206 205.553 206H10.4569C4.68735 206 0.0102486 201.314 0.0102486 195.534V78.4663Z" fill="#ECEEF0"/>
<path d="M0.0102486 78.4663C0.0102486 72.6859 4.68736 68 10.4569 68H205.553C211.323 68 216 72.6859 216 78.4663V80.3754H0.0102486V78.4663Z" fill="#E3E7E9"/>
<path d="M11.4243 74.5755C11.4243 76.0206 10.255 77.192 8.81267 77.192C7.37029 77.192 6.20101 76.0206 6.20101 74.5755C6.20101 73.1304 7.37029 71.9589 8.81267 71.9589C10.255 71.9589 11.4243 73.1304 11.4243 74.5755Z" fill="#ECEEF0"/>
<path d="M19.2593 74.5755C19.2593 76.0206 18.0901 77.192 16.6477 77.192C15.2053 77.192 14.036 76.0206 14.036 74.5755C14.036 73.1304 15.2053 71.9589 16.6477 71.9589C18.0901 71.9589 19.2593 73.1304 19.2593 74.5755Z" fill="#ECEEF0"/>
<path d="M27.0943 74.5755C27.0943 76.0206 25.9251 77.192 24.4827 77.192C23.0403 77.192 21.871 76.0206 21.871 74.5755C21.871 73.1304 23.0403 71.9589 24.4827 71.9589C25.9251 71.9589 27.0943 73.1304 27.0943 74.5755Z" fill="#ECEEF0"/>
<path fill-rule="evenodd" clip-rule="evenodd" d="M0 80.3753H51.0939V205.971H10.4466C4.6771 205.971 0 201.285 0 195.505V80.3753Z" fill="#E3E7E9"/>
<path d="M18.2808 95.4352C18.2808 94.4584 19.0712 93.6665 20.0462 93.6665H41.6647C42.6397 93.6665 43.4301 94.4584 43.4301 95.4352C43.4301 96.412 42.6397 97.2039 41.6647 97.2039H20.0462C19.0712 97.2039 18.2808 96.412 18.2808 95.4352Z" fill="white"/>
<path d="M15.1033 95.4354C15.1033 98.1706 12.8902 100.388 10.1602 100.388C7.43023 100.388 5.21715 98.1706 5.21715 95.4354C5.21715 92.7003 7.43023 90.4831 10.1602 90.4831C12.8902 90.4831 15.1033 92.7003 15.1033 95.4354Z" fill="white"/>
<path d="M18.2808 113.267C18.2808 112.29 19.0712 111.498 20.0462 111.498H41.6647C42.6397 111.498 43.4301 112.29 43.4301 113.267C43.4301 114.244 42.6397 115.036 41.6647 115.036H20.0462C19.0712 115.036 18.2808 114.244 18.2808 113.267Z" fill="white"/>
<path d="M15.1033 113.267C15.1033 116.002 12.8902 118.219 10.1602 118.219C7.43023 118.219 5.21715 116.002 5.21715 113.267C5.21715 110.532 7.43023 108.315 10.1602 108.315C12.8902 108.315 15.1033 110.532 15.1033 113.267Z" fill="white"/>
<path d="M18.2808 131.098C18.2808 130.122 19.0712 129.33 20.0462 129.33H41.6647C42.6397 129.33 43.4301 130.122 43.4301 131.098C43.4301 132.075 42.6397 132.867 41.6647 132.867H20.0462C19.0712 132.867 18.2808 132.075 18.2808 131.098Z" fill="white"/>
<path d="M15.1033 131.098C15.1033 133.834 12.8902 136.051 10.1602 136.051C7.43023 136.051 5.21715 133.834 5.21715 131.098C5.21715 128.363 7.43023 126.146 10.1602 126.146C12.8902 126.146 15.1033 128.363 15.1033 131.098Z" fill="white"/>
<path d="M18.2808 148.93C18.2808 147.953 19.0712 147.161 20.0462 147.161H41.6647C42.6397 147.161 43.4301 147.953 43.4301 148.93C43.4301 149.906 42.6397 150.698 41.6647 150.698H20.0462C19.0712 150.698 18.2808 149.906 18.2808 148.93Z" fill="white"/>
<path d="M15.1033 148.93C15.1033 151.665 12.8902 153.882 10.1602 153.882C7.43023 153.882 5.21715 151.665 5.21715 148.93C5.21715 146.195 7.43023 143.977 10.1602 143.977C12.8902 143.977 15.1033 146.195 15.1033 148.93Z" fill="white"/>
<path d="M18.2808 166.761C18.2808 165.784 19.0712 164.993 20.0462 164.993H41.6647C42.6397 164.993 43.4301 165.784 43.4301 166.761C43.4301 167.738 42.6397 168.53 41.6647 168.53H20.0462C19.0712 168.53 18.2808 167.738 18.2808 166.761Z" fill="white"/>
<path d="M15.1033 166.761C15.1033 169.497 12.8902 171.714 10.1602 171.714C7.43023 171.714 5.21715 169.497 5.21715 166.761C5.21715 164.026 7.43023 161.809 10.1602 161.809C12.8902 161.809 15.1033 164.026 15.1033 166.761Z" fill="white"/>
<path d="M18.2806 184.77C18.2806 183.793 19.071 183.001 20.046 183.001H41.6645C42.6395 183.001 43.4299 183.793 43.4299 184.77C43.4299 185.746 42.6395 186.538 41.6645 186.538H20.046C19.071 186.538 18.2806 185.746 18.2806 184.77Z" fill="white"/>
<path d="M15.2795 184.77C15.2795 187.603 12.9874 189.899 10.16 189.899C7.33248 189.899 5.04036 187.603 5.04036 184.77C5.04036 181.937 7.33248 179.64 10.16 179.64C12.9874 179.64 15.2795 181.937 15.2795 184.77Z" fill="white"/>
</g>
<g opacity="0.4">
<path d="M186.01 98.5421C186.01 92.7199 190.687 88 196.457 88H391.553C397.323 88 402 92.7199 402 98.5421V216.458C402 222.28 397.323 227 391.553 227H196.457C190.687 227 186.01 222.28 186.01 216.458V98.5421Z" fill="#ECEEF0"/>
<path d="M186.01 98.5421C186.01 92.7199 190.687 88 196.457 88H391.553C397.323 88 402 92.7199 402 98.5421V100.465H186.01V98.5421Z" fill="#E3E7E9"/>
<path d="M197.424 94.6231C197.424 96.0787 196.255 97.2587 194.813 97.2587C193.37 97.2587 192.201 96.0787 192.201 94.6231C192.201 93.1676 193.37 91.9876 194.813 91.9876C196.255 91.9876 197.424 93.1676 197.424 94.6231Z" fill="#ECEEF0"/>
<path d="M205.259 94.6231C205.259 96.0787 204.09 97.2587 202.648 97.2587C201.205 97.2587 200.036 96.0787 200.036 94.6231C200.036 93.1676 201.205 91.9876 202.648 91.9876C204.09 91.9876 205.259 93.1676 205.259 94.6231Z" fill="#ECEEF0"/>
<path d="M213.094 94.6231C213.094 96.0787 211.925 97.2587 210.483 97.2587C209.04 97.2587 207.871 96.0787 207.871 94.6231C207.871 93.1676 209.04 91.9876 210.483 91.9876C211.925 91.9876 213.094 93.1676 213.094 94.6231Z" fill="#ECEEF0"/>
<path fill-rule="evenodd" clip-rule="evenodd" d="M186 100.465H237.094V226.971H196.447C190.677 226.971 186 222.251 186 216.428V100.465Z" fill="#E3E7E9"/>
<path d="M204.281 115.634C204.281 114.65 205.071 113.852 206.046 113.852H227.665C228.64 113.852 229.43 114.65 229.43 115.634C229.43 116.618 228.64 117.416 227.665 117.416H206.046C205.071 117.416 204.281 116.618 204.281 115.634Z" fill="white"/>
<path d="M201.103 115.634C201.103 118.389 198.89 120.622 196.16 120.622C193.43 120.622 191.217 118.389 191.217 115.634C191.217 112.879 193.43 110.646 196.16 110.646C198.89 110.646 201.103 112.879 201.103 115.634Z" fill="white"/>
<path d="M204.281 133.595C204.281 132.611 205.071 131.813 206.046 131.813H227.665C228.64 131.813 229.43 132.611 229.43 133.595C229.43 134.579 228.64 135.376 227.665 135.376H206.046C205.071 135.376 204.281 134.579 204.281 133.595Z" fill="white"/>
<path d="M201.103 133.595C201.103 136.35 198.89 138.583 196.16 138.583C193.43 138.583 191.217 136.35 191.217 133.595C191.217 130.84 193.43 128.607 196.16 128.607C198.89 128.607 201.103 130.84 201.103 133.595Z" fill="white"/>
<path d="M204.281 151.556C204.281 150.572 205.071 149.774 206.046 149.774H227.665C228.64 149.774 229.43 150.572 229.43 151.556C229.43 152.539 228.64 153.337 227.665 153.337H206.046C205.071 153.337 204.281 152.539 204.281 151.556Z" fill="white"/>
<path d="M201.103 151.556C201.103 154.311 198.89 156.544 196.16 156.544C193.43 156.544 191.217 154.311 191.217 151.556C191.217 148.801 193.43 146.567 196.16 146.567C198.89 146.567 201.103 148.801 201.103 151.556Z" fill="white"/>
<path d="M204.281 169.516C204.281 168.532 205.071 167.735 206.046 167.735H227.665C228.64 167.735 229.43 168.532 229.43 169.516C229.43 170.5 228.64 171.298 227.665 171.298H206.046C205.071 171.298 204.281 170.5 204.281 169.516Z" fill="white"/>
<path d="M201.103 169.516C201.103 172.271 198.89 174.505 196.16 174.505C193.43 174.505 191.217 172.271 191.217 169.516C191.217 166.761 193.43 164.528 196.16 164.528C198.89 164.528 201.103 166.761 201.103 169.516Z" fill="white"/>
<path d="M204.281 187.477C204.281 186.493 205.071 185.695 206.046 185.695H227.665C228.64 185.695 229.43 186.493 229.43 187.477C229.43 188.461 228.64 189.258 227.665 189.258H206.046C205.071 189.258 204.281 188.461 204.281 187.477Z" fill="white"/>
<path d="M201.103 187.477C201.103 190.232 198.89 192.465 196.16 192.465C193.43 192.465 191.217 190.232 191.217 187.477C191.217 184.722 193.43 182.489 196.16 182.489C198.89 182.489 201.103 184.722 201.103 187.477Z" fill="white"/>
<path d="M204.281 205.616C204.281 204.632 205.071 203.834 206.046 203.834H227.664C228.639 203.834 229.43 204.632 229.43 205.616C229.43 206.6 228.639 207.397 227.664 207.397H206.046C205.071 207.397 204.281 206.6 204.281 205.616Z" fill="white"/>
<path d="M201.28 205.616C201.28 208.469 198.987 210.782 196.16 210.782C193.332 210.782 191.04 208.469 191.04 205.616C191.04 202.763 193.332 200.449 196.16 200.449C198.987 200.449 201.28 202.763 201.28 205.616Z" fill="white"/>
</g>
<path d="M101.01 10.4663C101.01 4.68592 105.666 0 111.408 0H305.602C311.345 0 316 4.68592 316 10.4663V127.534C316 133.314 311.345 138 305.602 138H111.408C105.666 138 101.01 133.314 101.01 127.534V10.4663Z" fill="#ECEEF0"/>
<path d="M101.01 10.4663C101.01 4.68592 105.666 0 111.408 0H305.602C311.345 0 316 4.68592 316 10.4663V12.3754H101.01V10.4663Z" fill="#E3E7E9"/>
<path d="M112.371 6.57547C112.371 8.02057 111.208 9.19205 109.772 9.19205C108.336 9.19205 107.172 8.02057 107.172 6.57547C107.172 5.13038 108.336 3.9589 109.772 3.9589C111.208 3.9589 112.371 5.13038 112.371 6.57547Z" fill="#ECEEF0"/>
<path d="M120.17 6.57547C120.17 8.02057 119.006 9.19205 117.571 9.19205C116.135 9.19205 114.971 8.02057 114.971 6.57547C114.971 5.13038 116.135 3.9589 117.571 3.9589C119.006 3.9589 120.17 5.13038 120.17 6.57547Z" fill="#ECEEF0"/>
<path d="M127.969 6.57547C127.969 8.02057 126.805 9.19205 125.369 9.19205C123.934 9.19205 122.77 8.02057 122.77 6.57547C122.77 5.13038 123.934 3.9589 125.369 3.9589C126.805 3.9589 127.969 5.13038 127.969 6.57547Z" fill="#ECEEF0"/>
<path fill-rule="evenodd" clip-rule="evenodd" d="M101 12.3753H151.857V137.971H111.398C105.655 137.971 101 133.285 101 127.505V12.3753Z" fill="#E3E7E9"/>
<path d="M119.196 27.4352C119.196 26.4584 119.983 25.6665 120.953 25.6665H142.472C143.442 25.6665 144.229 26.4584 144.229 27.4352C144.229 28.412 143.442 29.2039 142.472 29.2039H120.953C119.983 29.2039 119.196 28.412 119.196 27.4352Z" fill="white"/>
<path d="M116.033 27.4354C116.033 30.1706 113.83 32.3878 111.113 32.3878C108.396 32.3878 106.193 30.1706 106.193 27.4354C106.193 24.7003 108.396 22.4831 111.113 22.4831C113.83 22.4831 116.033 24.7003 116.033 27.4354Z" fill="white"/>
<path d="M119.196 45.2669C119.196 44.29 119.983 43.4982 120.953 43.4982H142.472C143.442 43.4982 144.229 44.29 144.229 45.2669C144.229 46.2437 143.442 47.0356 142.472 47.0356H120.953C119.983 47.0356 119.196 46.2437 119.196 45.2669Z" fill="white"/>
<path d="M116.033 45.267C116.033 48.0021 113.83 50.2194 111.113 50.2194C108.396 50.2194 106.193 48.0021 106.193 45.267C106.193 42.5319 108.396 40.3147 111.113 40.3147C113.83 40.3147 116.033 42.5319 116.033 45.267Z" fill="white"/>
<path d="M119.196 63.0983C119.196 62.1215 119.983 61.3296 120.953 61.3296H142.472C143.442 61.3296 144.229 62.1215 144.229 63.0983C144.229 64.0752 143.442 64.867 142.472 64.867H120.953C119.983 64.867 119.196 64.0752 119.196 63.0983Z" fill="white"/>
<path d="M116.033 63.0984C116.033 65.8336 113.83 68.0508 111.113 68.0508C108.396 68.0508 106.193 65.8336 106.193 63.0984C106.193 60.3633 108.396 58.1461 111.113 58.1461C113.83 58.1461 116.033 60.3633 116.033 63.0984Z" fill="white"/>
<path d="M119.196 80.9297C119.196 79.9528 119.983 79.161 120.953 79.161H142.472C143.442 79.161 144.229 79.9528 144.229 80.9297C144.229 81.9065 143.442 82.6984 142.472 82.6984H120.953C119.983 82.6984 119.196 81.9065 119.196 80.9297Z" fill="white"/>
<path d="M116.033 80.9299C116.033 83.665 113.83 85.8822 111.113 85.8822C108.396 85.8822 106.193 83.665 106.193 80.9299C106.193 78.1947 108.396 75.9775 111.113 75.9775C113.83 75.9775 116.033 78.1947 116.033 80.9299Z" fill="white"/>
<path d="M119.196 98.7613C119.196 97.7845 119.983 96.9926 120.953 96.9926H142.472C143.442 96.9926 144.229 97.7845 144.229 98.7613C144.229 99.7381 143.442 100.53 142.472 100.53H120.953C119.983 100.53 119.196 99.7381 119.196 98.7613Z" fill="white"/>
<path d="M116.033 98.7614C116.033 101.497 113.83 103.714 111.113 103.714C108.396 103.714 106.193 101.497 106.193 98.7614C106.193 96.0263 108.396 93.8091 111.113 93.8091C113.83 93.8091 116.033 96.0263 116.033 98.7614Z" fill="white"/>
<path d="M119.196 116.77C119.196 115.793 119.983 115.001 120.953 115.001H142.472C143.442 115.001 144.229 115.793 144.229 116.77C144.229 117.746 143.442 118.538 142.472 118.538H120.953C119.983 118.538 119.196 117.746 119.196 116.77Z" fill="white"/>
<path d="M116.209 116.77C116.209 119.603 113.927 121.899 111.113 121.899C108.299 121.899 106.017 119.603 106.017 116.77C106.017 113.937 108.299 111.64 111.113 111.64C113.927 111.64 116.209 113.937 116.209 116.77Z" fill="white"/>
<path fill-rule="evenodd" clip-rule="evenodd" d="M243.671 251.058C305.118 251.058 349.885 256.607 349.885 260.842C349.885 265.077 300.072 270.811 238.625 270.811C177.178 270.811 127.365 265.077 127.365 260.842C127.365 256.607 182.224 251.058 243.671 251.058Z" fill="#ECEEF0"/>
<path fill-rule="evenodd" clip-rule="evenodd" d="M187.609 255.861L190.823 229.267L187.609 229L183.846 254.819C183.846 254.819 160.874 252.218 158.682 253.515C158.219 253.787 158.155 254.819 158.155 254.819L175.942 255.861C175.942 255.861 155.197 255.994 154.347 256.656C153.699 257.162 153.618 258.501 153.618 258.501L178.718 257.628C178.718 257.628 158.096 260.601 156.996 260.723C155.897 260.845 154.949 261.253 154.924 261.326C154.805 261.682 155.116 262.799 155.116 262.799L184.818 259.189L200.466 258.501C200.44 257.756 199.834 257.162 199.087 257.146L187.609 255.861Z" fill="#E98404"/>
<path fill-rule="evenodd" clip-rule="evenodd" d="M223.499 259.927L225.816 234.141L222.603 233.873L220.851 259.436C220.851 259.436 202.064 259.34 199.872 260.637C199.409 260.909 199.345 261.941 199.345 261.941L214.931 261.642C214.931 261.642 197.366 263.744 196.516 264.406C195.868 264.912 195.787 266.252 195.787 266.252L216.015 263.25L201.975 266.108L201.994 266.11C201.907 266.138 201.428 266.284 201.311 266.953C201.195 267.622 201.929 268.243 201.929 268.243L222.205 262.974H236.92C236.894 262.229 236.289 261.635 235.541 261.619L223.499 259.927Z" fill="#E98404"/>
<path fill-rule="evenodd" clip-rule="evenodd" d="M225.357 56.2723C236.863 65.093 239.801 78.7071 240.193 84.2713C240.217 84.634 239.941 84.9472 239.577 84.9708C239.516 84.9748 239.454 84.9702 239.394 84.957L236.863 83.1698C236.863 83.1698 239.236 97.3364 239.448 99.3841C239.673 101.545 239.295 102.284 238.667 102.317C238.248 102.339 232.553 98.4388 232.553 98.4388C234.134 103.088 240.257 175.707 276.694 188.087C283.993 190.567 291.447 193.269 300.924 193.79C310.4 194.31 275.366 193.215 274.218 198.968C272.172 209.222 288.083 221.527 279.73 224.14C264.194 229 231.102 237.11 213.839 237.11C196.576 237.11 176.654 239.089 159.699 218.869C142.744 198.649 151.819 154.876 151.819 154.876C159.288 133.867 175.118 100.799 178.074 89.9814L174.658 92.1991C173.519 89.0311 178.402 68.5061 184.275 60.4841C190.147 52.4621 205.707 44.2941 220.967 48.723C226.89 50.4421 233.367 56.5441 232.993 57.0905C232.619 57.6369 226.427 56.5095 225.357 56.2723Z" fill="#9E292B"/>
<path fill-rule="evenodd" clip-rule="evenodd" d="M188.236 60.8893C183.847 60.0508 181.748 65.71 181.526 68.1248C181.303 70.5399 185.224 74.0613 187.525 74.7114C189.825 75.3615 193.446 70.9788 193.669 68.5636C193.892 66.1484 192.626 61.7278 188.236 60.8893Z" fill="white"/>
<path fill-rule="evenodd" clip-rule="evenodd" d="M185.445 67.5825C185.445 69.7323 187.058 71.475 189.048 71.475C191.038 71.475 192.651 69.7323 192.651 67.5825C192.651 65.4327 191.038 63.69 189.048 63.69C187.058 63.69 185.445 65.4327 185.445 67.5825" fill="#501D2C"/>
<path fill-rule="evenodd" clip-rule="evenodd" d="M215.928 62.2586C220.904 61.7461 222.833 67.5454 222.902 69.9704C222.973 72.3958 218.322 75.6187 215.698 76.0974C213.074 76.5762 209.346 71.9377 209.276 69.5123C209.206 67.087 210.952 62.7712 215.928 62.2586Z" fill="white"/>
<path fill-rule="evenodd" clip-rule="evenodd" d="M221.71 69.2347C221.559 71.3793 219.828 73.0057 217.843 72.8673C215.858 72.7289 214.371 70.8783 214.521 68.7337C214.672 66.5891 216.403 64.9628 218.388 65.1012C220.373 65.2396 221.86 67.0901 221.71 69.2347" fill="#501D2C"/>
<path fill-rule="evenodd" clip-rule="evenodd" d="M192.528 53.7472C192.564 53.8354 192.59 53.9175 192.604 53.9924C192.661 54.2968 192.459 54.3532 192.119 54.2639C191.186 55.107 189.128 55.6928 186.739 55.6928C183.474 55.6928 180.827 54.5986 180.827 53.2488C180.827 51.9419 183.308 50.8746 186.43 50.8081C185.957 50.3486 185.829 49.9249 186.715 49.7865C187.853 49.6086 189.31 50.3885 190.492 51.3602C191.811 51.8085 192.651 52.488 192.651 53.2488C192.651 53.4196 192.609 53.5863 192.528 53.7472Z" fill="#501D2C"/>
<path fill-rule="evenodd" clip-rule="evenodd" d="M213.157 57.3907C213.316 56.1268 215.344 54.3806 216.834 54.7291C217.627 54.9146 217.271 55.4093 216.765 55.8317C218.124 55.1569 220.739 54.8136 220.855 55.2528C220.899 55.4212 220.701 55.665 220.411 55.9185C222.866 56.1265 224.674 56.8349 224.674 57.6768C224.674 58.682 222.096 59.497 218.917 59.497C215.738 59.497 213.161 58.682 213.161 57.6768C213.161 57.6545 213.162 57.6322 213.165 57.6101C213.149 57.5527 213.145 57.4803 213.157 57.3907Z" fill="#501D2C"/>
<path fill-rule="evenodd" clip-rule="evenodd" d="M174.735 124.873C175.9 121.854 177.95 118.9 178.913 119.15C179.876 119.4 179.164 121.708 178.913 122.668L178.58 123.955C175.095 137.555 173.802 147 174.658 152.126L174.735 152.548C175.474 156.301 177.257 156.914 181.423 154.6L181.887 154.336C181.887 154.336 185.186 151.884 185.585 152.183C185.985 152.482 184.543 156.323 184.543 156.323C180.816 171.137 179.266 181.366 179.866 186.849L179.917 187.279C180.412 191.097 181.639 191.583 185.153 189.234L185.546 188.966C185.546 188.966 188.127 186.705 188.508 186.911C188.888 187.118 188.375 190.506 188.375 190.506C188.135 197.044 188.698 201.4 189.917 203.424C190.77 204.841 192.55 206.205 194.932 204.659C195.765 204.118 197.234 203.514 197.777 204.345C198.32 205.176 197.097 205.852 196.263 206.393C192.336 208.942 188.875 208.672 186.827 205.273C185.462 203.006 184.786 199.339 184.722 194.193L184.717 193.529L184.592 193.581C178.913 197.763 175.741 193.005 175.03 187.279C174.319 181.553 176.866 173.16 179.75 160.797L180.165 159.04L180.029 159.082C175.378 160.46 172.145 158.384 171.151 152.985L171.104 152.716C170.112 146.78 170.125 136.819 174.735 124.873Z" fill="black" fill-opacity="0.1"/>
<path fill-rule="evenodd" clip-rule="evenodd" d="M163.196 126.846C163.196 142.969 182.609 132.236 194.207 132.765C201.72 133.108 205.877 134.589 207.009 137.858C208.141 141.127 155.875 206.755 135.417 191.27C125.018 183.399 125.648 155.848 131.89 142.058C138.132 128.268 151.052 113.246 173.285 103.371C173.285 103.371 163.196 126.846 163.196 126.846Z" fill="#85052C"/>
<path fill-rule="evenodd" clip-rule="evenodd" d="M206.653 71.5131L206.771 71.4533L207.767 70.3059C214.38 79.2739 199.334 83.64 196.023 83.6938L195.926 83.6945C193.107 83.6902 193.984 82.9832 193.774 81.3935C193.492 79.267 195.871 78.193 196.788 77.8606L197.199 76.3041L206.061 71.812C206.061 71.812 206.44 71.2341 206.653 71.5131ZM196.062 80.6111L196.752 77.9928L196.407 78.2259C195.469 78.8802 194.082 80.0137 195.17 80.3592C195.474 80.4558 195.772 80.5396 196.062 80.6111Z" fill="#AF6303"/>
<path fill-rule="evenodd" clip-rule="evenodd" d="M207.343 70.1496C207.343 70.1496 208.09 72.8755 207.343 74.5766C205.441 78.9079 187.621 78.857 188.398 94.6202C188.405 94.7522 188.255 94.8004 188.199 94.6794L188 94.2659C186.193 90.6363 180.06 81.7051 190.365 68.4187L190.661 68.0217C193.932 63.7146 201.329 58.5999 207.343 70.1496Z" fill="#F7A600"/>
<path fill-rule="evenodd" clip-rule="evenodd" d="M234.682 190.371L348.421 196.198C350.615 196.158 349.064 198.92 346.627 199.392L254.109 215.896L234.682 190.371Z" fill="#9E292B"/>
<path fill-rule="evenodd" clip-rule="evenodd" d="M247.96 193.821L269.407 208.094C294.161 209.308 345.15 219.282 355.922 221.303C357.849 221.665 356.721 224.73 353.058 225.183L352.848 225.206L222.603 236.054C188.108 240.238 234.527 176.588 247.96 193.821Z" fill="#9E292B"/>
<path fill-rule="evenodd" clip-rule="evenodd" d="M234.083 108.358C231.782 109.193 223.413 127.806 215.164 136.17C209.708 141.702 210.859 135.77 195.441 137.848C188.881 138.732 184.638 135.904 181.542 137.848C178.446 139.792 182.624 147.248 182.624 147.248C182.624 147.248 164.147 142.685 165.996 146.306C167.846 149.926 175.555 154.017 175.555 154.017C175.555 154.017 163.408 153.633 163.353 156.695C163.304 159.405 175.279 164.862 175.279 164.862C175.279 164.862 167.812 165.239 167.935 167.798C168.017 169.499 185.377 203.452 217.207 203.452C227.283 203.452 253.023 189.533 261.134 175.779C265.346 164.862 252.544 101.661 234.083 108.358Z" fill="#85052C"/>
<path fill-rule="evenodd" clip-rule="evenodd" d="M194.942 165.751C186.745 175.077 179.184 186.714 164.711 192.468C150.237 198.222 149.572 192.468 149.572 192.468C149.572 192.468 169.493 180.223 176.937 173.976C195.192 158.656 204.48 145.109 207.028 137.87C208.67 146.102 203.139 156.425 194.942 165.751Z" fill="black" fill-opacity="0.1"/>
<path fill-rule="evenodd" clip-rule="evenodd" d="M135.063 166.066C130.831 167.895 126.934 175.714 128.193 180.171C129.451 184.629 134.752 187.365 139.185 184.159C143.617 180.953 146.191 174.74 144.932 170.283C143.674 165.826 139.295 164.237 135.063 166.066ZM145.848 140.291C146.982 133.267 143.001 128.036 136.955 128.606C130.91 129.176 125.089 135.333 123.955 142.356C122.821 149.38 126.801 154.611 132.847 154.041C138.892 153.47 144.713 147.314 145.848 140.291ZM158.474 150.878C159.112 146.924 156.871 143.979 153.468 144.3C150.065 144.621 146.788 148.087 146.15 152.041C145.511 155.995 147.752 158.94 151.155 158.619C154.558 158.298 157.835 154.832 158.474 150.878Z" fill="black" fill-opacity="0.1"/>
<path fill-rule="evenodd" clip-rule="evenodd" d="M226.489 177.739C230.721 179.567 234.618 187.387 233.36 191.844C232.101 196.301 226.8 199.037 222.367 195.831C217.935 192.625 215.362 186.412 216.62 181.955C217.878 177.498 222.257 175.91 226.489 177.739ZM225.082 154.467C223.947 147.443 227.929 142.212 233.974 142.783C240.019 143.353 245.84 149.509 246.975 156.533C248.109 163.557 244.128 168.788 238.082 168.217C232.037 167.647 226.216 161.491 225.082 154.467ZM203.078 162.551C202.44 158.597 204.681 155.652 208.084 155.973C211.487 156.294 214.764 159.76 215.403 163.714C216.041 167.667 213.8 170.612 210.397 170.291C206.994 169.97 203.717 166.505 203.078 162.551Z" fill="black" fill-opacity="0.1"/>
</svg>
