<svg xmlns="http://www.w3.org/2000/svg" viewBox="0 0 369.43 337.52"><defs><style>.cls-1{fill:#eaeaea;}.cls-2{fill:#f4f4f4;}.cls-3{fill:#f9b772;}.cls-4{fill:#e9b6b6;}.cls-5{fill:#a2bbca;}.cls-6{fill:#c7cfd5;}.cls-7{fill:#fff;}.cls-8{fill:#91b0c1;}.cls-9{fill:#5691a7;}</style></defs><title>Template 1_1</title><g id="Layer_2" data-name="Layer 2"><g id="Layer_1-2" data-name="Layer 1"><rect class="cls-1" x="0.07" y="0.6" width="369.36" height="336.93" rx="25.3" ry="25.3"/><rect class="cls-2" width="364.77" height="334.03" rx="25.3" ry="25.3"/><path class="cls-3" d="M364.77,32.33V24.8A24.8,24.8,0,0,0,340,0H24.8A24.8,24.8,0,0,0,0,24.8v7.53Z"/><rect class="cls-3" x="59.03" y="67.1" width="83.75" height="10.23" rx="5.12" ry="5.12"/><rect class="cls-3" x="44.33" y="128.4" width="277.65" height="10.23" rx="5.12" ry="5.12"/><rect class="cls-3" x="44.33" y="96.51" width="277.65" height="10.23" rx="5.12" ry="5.12"/><rect class="cls-4" x="51.99" y="180.93" width="13.27" height="7.38" rx="3.69" ry="3.69"/><rect class="cls-4" x="73.63" y="180.93" width="98.81" height="7.38" rx="3.69" ry="3.69"/><rect class="cls-4" x="51.99" y="201.64" width="13.27" height="7.38" rx="3.69" ry="3.69"/><rect class="cls-4" x="73.63" y="201.64" width="64.17" height="7.38" rx="3.69" ry="3.69"/><rect class="cls-4" x="51.99" y="222.81" width="13.27" height="7.38" rx="3.69" ry="3.69"/><rect class="cls-4" x="73.63" y="222.81" width="85.96" height="7.38" rx="3.69" ry="3.69"/><path class="cls-5" d="M280.87,197.51h12.35a5.46,5.46,0,0,1,5.46,5.46v0a5.46,5.46,0,0,1-5.46,5.46H280.87a0,0,0,0,1,0,0V197.51a0,0,0,0,1,0,0Z"/><ellipse class="cls-6" cx="235.83" cy="201.51" rx="46.78" ry="47.78"/><path class="cls-5" d="M189.06,202.25c.39,26.05,21.17,47,46.77,47s46.37-21,46.76-47Z"/><ellipse class="cls-7" cx="216.29" cy="201.58" rx="24.33" ry="34.67"/><ellipse class="cls-5" cx="211.6" cy="201.63" rx="12.72" ry="20.73"/><path class="cls-8" d="M198.9,202.67c.33,11,5.89,19.69,12.7,19.69s12.37-8.72,12.7-19.69Z"/><ellipse class="cls-9" cx="211.06" cy="203.13" rx="5.69" ry="10.03"/><rect class="cls-3" x="44.33" y="267.83" width="277.65" height="10.23" rx="5.12" ry="5.12"/><rect class="cls-3" x="44.32" y="301.88" width="113.16" height="10.23" rx="5.12" ry="5.12"/></g></g></svg>