<svg xmlns="http://www.w3.org/2000/svg" viewBox="0 0 369.43 337.52"><defs><style>.cls-1{fill:#eaeaea;}.cls-2{fill:#f4f4f4;}.cls-3{fill:#f9b772;}.cls-4{fill:#fddab7;}.cls-5{fill:#fee2c5;}.cls-6{fill:#e9b6b6;}.cls-7{fill:#fcd4a9;}.cls-8{fill:#fabe80;}.cls-9{fill:#fbc68f;}.cls-10{fill:#f59e42;}</style></defs><title>Template 2</title><g id="Layer_2" data-name="Layer 2"><g id="Layer_1-2" data-name="Layer 1"><rect class="cls-1" x="0.07" y="0.6" width="369.36" height="336.93" rx="25.3" ry="25.3"/><rect class="cls-2" width="364.77" height="334.03" rx="25.3" ry="25.3"/><path class="cls-3" d="M364.77,32.33V24.8A24.8,24.8,0,0,0,340,0H24.8A24.8,24.8,0,0,0,0,24.8v7.53Z"/><path class="cls-4" d="M250,173.11,235.21,190.7a1.25,1.25,0,0,0-.28.79v16.34a1.24,1.24,0,0,0,.35.86L245.62,219a1.22,1.22,0,0,0,.86.36h27.58a1.22,1.22,0,0,1,1.22,1.22v60a1.22,1.22,0,0,0,1.22,1.22h7.36a1.21,1.21,0,0,0,.91-.41l29.59-32.87a1.25,1.25,0,0,0,.31-.82V229a1.2,1.2,0,0,1,.28-.77l13.39-16.32a1.23,1.23,0,0,0-1-2l-11.85.37a1.21,1.21,0,0,1-1.16-.74L301.54,179.3a1.24,1.24,0,0,0-1.13-.75H273.68a1.21,1.21,0,0,1-1.22-1.28l.35-7.71a1.23,1.23,0,0,0-1.48-1.25l-20.62,4.39A1.2,1.2,0,0,0,250,173.11Z"/><rect class="cls-5" x="171.92" y="218.73" width="53.16" height="103.04" transform="translate(-71.76 468.75) rotate(-90)"/><rect class="cls-6" x="154.49" y="251.96" width="9.76" height="5.42" rx="2.71" ry="2.71"/><rect class="cls-6" x="170.39" y="251.96" width="72.63" height="5.42" rx="2.71" ry="2.71"/><rect class="cls-6" x="154.49" y="267.19" width="9.76" height="5.42" rx="2.71" ry="2.71"/><rect class="cls-6" x="170.39" y="267.19" width="47.17" height="5.42" rx="2.71" ry="2.71"/><rect class="cls-6" x="154.49" y="282.75" width="9.76" height="5.42" rx="2.71" ry="2.71"/><rect class="cls-6" x="170.39" y="282.75" width="63.18" height="5.42" rx="2.71" ry="2.71"/><rect class="cls-3" x="60.65" y="65.56" width="83.75" height="10.23" rx="5.12" ry="5.12"/><rect class="cls-3" x="45.96" y="126.86" width="277.65" height="10.23" rx="5.12" ry="5.12"/><rect class="cls-3" x="45.96" y="94.96" width="277.65" height="10.23" rx="5.12" ry="5.12"/><rect class="cls-3" x="45.95" y="160.17" width="123.35" height="10.23" rx="5.12" ry="5.12"/><rect class="cls-3" x="45.95" y="193.48" width="123.35" height="10.23" rx="5.12" ry="5.12"/><circle class="cls-7" cx="86.2" cy="273.84" r="35.9" transform="translate(-21.3 7.64) rotate(-4.52)"/><path class="cls-8" d="M122.1,273.77a35.91,35.91,0,0,0-71.81,0Z"/><path class="cls-3" d="M86.94,237.94H86.2a35.91,35.91,0,1,0,0,71.81h.74Z"/><path class="cls-9" d="M86.94,273.52V237.94H86.2a35.77,35.77,0,0,0-24.85,10Z"/><path class="cls-10" d="M108.79,259.65H97.22a1.72,1.72,0,1,1,0-3.43h11.57a1.72,1.72,0,0,1,0,3.43Z"/><path class="cls-10" d="M83.55,252.29H72a1.72,1.72,0,1,1,0-3.43H83.55a1.72,1.72,0,1,1,0,3.43Z"/><path class="cls-10" d="M110.54,284.89H99a1.72,1.72,0,0,1,0-3.44h11.57a1.72,1.72,0,0,1,0,3.44Z"/><path class="cls-10" d="M79,284.19H62.17a1.72,1.72,0,0,1,0-3.44H79a1.72,1.72,0,0,1,0,3.44Z"/></g></g></svg>