<svg xmlns="http://www.w3.org/2000/svg" viewBox="0 0 369.43 337.52"><defs><style>.cls-1{fill:#eaeaea;}.cls-2{fill:#f4f4f4;}.cls-3{fill:#f9b772;}.cls-4{fill:#fee2c5;}.cls-5{fill:#e9b6b6;}.cls-6{fill:#4e6878;}.cls-7{fill:#385969;}.cls-8{fill:#214b5b;}.cls-9{fill:none;stroke:#2f5f70;stroke-linecap:round;stroke-miterlimit:10;stroke-width:3px;}</style></defs><title>Template 4</title><g id="Layer_2" data-name="Layer 2"><g id="Layer_1-2" data-name="Layer 1"><rect class="cls-1" x="0.07" y="0.6" width="369.36" height="336.93" rx="25.3" ry="25.3"/><rect class="cls-2" width="364.77" height="334.03" rx="25.3" ry="25.3"/><path class="cls-3" d="M364.77,32.33V24.8A24.8,24.8,0,0,0,340,0H24.8A24.8,24.8,0,0,0,0,24.8v7.53Z"/><rect class="cls-3" x="58.78" y="60.14" width="83.75" height="10.23" rx="5.12" ry="5.12"/><rect class="cls-3" x="48.92" y="85.5" width="240.82" height="10.23" rx="5.12" ry="5.12"/><rect class="cls-4" x="154.65" y="79.93" width="28.63" height="229.75" transform="translate(-25.83 363.77) rotate(-90)"/><rect class="cls-5" x="74.33" y="184.64" width="170.2" height="7.38" rx="3.69" ry="3.69"/><rect class="cls-5" x="74.33" y="196.81" width="182.37" height="7.38" rx="3.69" ry="3.69"/><circle class="cls-5" cx="64.56" cy="188.33" r="3.69"/><circle class="cls-5" cx="64.56" cy="200.5" r="3.69"/><rect class="cls-4" x="155.24" y="184.76" width="28.63" height="228.57" transform="translate(-129.48 468.6) rotate(-90)"/><rect class="cls-5" x="75.51" y="288.88" width="154.6" height="7.38" rx="3.69" ry="3.69"/><rect class="cls-5" x="75.51" y="301.05" width="161.5" height="7.38" rx="3.69" ry="3.69"/><circle class="cls-5" cx="65.74" cy="292.57" r="3.69"/><circle class="cls-5" cx="65.74" cy="304.74" r="3.69"/><path class="cls-6" d="M126,132h4.87a0,0,0,0,1,0,0v18.1a0,0,0,0,1,0,0H126A9.05,9.05,0,0,1,117,141v0A9.05,9.05,0,0,1,126,132Z"/><path class="cls-7" d="M144.4,159.56l-13.82-9.48V132l13.82-9.48c1.75-1.2,4.45-.2,4.45,1.65v33.77C148.85,159.76,146.15,160.76,144.4,159.56Z"/><path class="cls-7" d="M117,141.45v5.18a3.46,3.46,0,0,0,3.45,3.45h10.48v-8.63Z"/><path class="cls-8" d="M130.58,141.45v8.63l13.82,9.48c1.75,1.2,4.45.2,4.45-1.65V141.45Z"/><path class="cls-9" d="M155.81,149.46a13.11,13.11,0,0,0,.49-19.65"/><path class="cls-9" d="M163.5,157.15a23.95,23.95,0,0,0,.45-35"/><path class="cls-9" d="M170.63,164.28a34,34,0,0,0,.43-49.33"/><path class="cls-6" d="M126,241.31h4.87a0,0,0,0,1,0,0v18.1a0,0,0,0,1,0,0H126a9.05,9.05,0,0,1-9.05-9.05v0A9.05,9.05,0,0,1,126,241.31Z"/><path class="cls-7" d="M144.4,268.9l-13.82-9.49v-18.1l13.82-9.48c1.75-1.21,4.45-.2,4.45,1.65v33.76C148.85,269.09,146.15,270.1,144.4,268.9Z"/><path class="cls-7" d="M117,250.78V256a3.45,3.45,0,0,0,3.45,3.45h10.48v-8.63Z"/><path class="cls-8" d="M130.58,250.78v8.63l13.82,9.49c1.75,1.2,4.45.19,4.45-1.66V250.78Z"/><path class="cls-9" d="M155.81,258.79a13.1,13.1,0,0,0,.49-19.64"/><path class="cls-9" d="M163.5,266.49a23.95,23.95,0,0,0,.45-35"/><path class="cls-9" d="M170.63,273.62a34,34,0,0,0,.43-49.33"/></g></g></svg>