<svg xmlns="http://www.w3.org/2000/svg" viewBox="0 0 369.43 337.52"><defs><style>.cls-1{fill:#eaeaea;}.cls-2{fill:#f4f4f4;}.cls-3{fill:#f9b772;}.cls-4{fill:#f8f7f7;}.cls-4,.cls-5{stroke:#b2b2b2;stroke-miterlimit:10;stroke-width:0.5px;}.cls-5{fill:none;}.cls-6{fill:#add3e1;}.cls-7{fill:#f4e4a2;}.cls-8{fill:#f4a7b9;}.cls-9{fill:#a9d2a3;}.cls-10{fill:#d8c2df;}.cls-11{fill:#f9cc8f;}</style></defs><title>Template 5</title><g id="Layer_2" data-name="Layer 2"><g id="Layer_1-2" data-name="Layer 1"><rect class="cls-1" x="0.07" y="0.6" width="369.36" height="336.93" rx="25.3" ry="25.3"/><rect class="cls-2" width="364.77" height="334.03" rx="25.3" ry="25.3"/><path class="cls-3" d="M364.77,32.33V24.8A24.8,24.8,0,0,0,340,0H24.8A24.8,24.8,0,0,0,0,24.8v7.53Z"/><rect class="cls-3" x="51.86" y="53.22" width="83.75" height="10.23" rx="5.12" ry="5.12"/><rect class="cls-3" x="43.26" y="112.04" width="277.65" height="10.23" rx="5.12" ry="5.12"/><rect class="cls-3" x="43.26" y="82.63" width="277.65" height="10.23" rx="5.12" ry="5.12"/><rect class="cls-3" x="43.26" y="141.44" width="216.67" height="10.23" rx="5.12" ry="5.12"/><rect class="cls-4" x="124.49" y="99.58" width="113.76" height="277.8" transform="translate(-57.1 419.85) rotate(-90)"/><line class="cls-5" x1="112.58" y1="214.66" x2="134.58" y2="242.33"/><line class="cls-5" x1="171.24" y1="238.48" x2="178.42" y2="206.55"/><line class="cls-5" x1="185.24" y1="243.66" x2="226.91" y2="222.51"/><line class="cls-5" x1="233.06" y1="256.33" x2="233.06" y2="224.99"/><line class="cls-5" x1="249.91" y1="216.99" x2="290.58" y2="201.99"/><line class="cls-5" x1="239.58" y1="256.33" x2="286.58" y2="269.66"/><line class="cls-5" x1="198.24" y1="280.95" x2="160.99" y2="253.66"/><line class="cls-5" x1="75.84" y1="261.12" x2="107.08" y2="206.16"/><rect class="cls-6" x="71.67" y="193.11" width="60.33" height="26"/><rect class="cls-7" x="121.41" y="232.99" width="79.17" height="33.67"/><rect class="cls-8" x="160.99" y="192.16" width="48.5" height="22.5"/><rect class="cls-6" x="217.98" y="245.1" width="30.17" height="17.11"/><rect class="cls-9" x="221.31" y="206.55" width="41.23" height="25.33"/><rect class="cls-10" x="57.98" y="249.47" width="39.76" height="23.3"/><rect class="cls-11" x="176.33" y="275.33" width="48.5" height="11.25"/><rect class="cls-10" x="280.31" y="196.24" width="24.49" height="14.35"/><rect class="cls-8" x="271.69" y="258.76" width="34.56" height="23.16"/></g></g></svg>