<svg xmlns="http://www.w3.org/2000/svg" viewBox="0 0 369.43 337.52"><defs><style>.cls-1{fill:#eaeaea;}.cls-2{fill:#f4f4f4;}.cls-3{fill:#f9b772;}.cls-4{fill:#ffe0a7;}.cls-5{fill:#fed688;}.cls-10,.cls-6{fill:#fff;}.cls-7{fill:#c31e48;}.cls-8{fill:#e8f5f9;}.cls-9{fill:#5691a7;}.cls-10{stroke:#b2b2b2;stroke-width:0.5px;}.cls-10,.cls-11,.cls-12{stroke-miterlimit:10;}.cls-11,.cls-12{fill:none;}.cls-11{stroke:#b5b5b5;}.cls-12{stroke:#cac9c9;}</style></defs><title>Template 3_1</title><g id="Layer_2" data-name="Layer 2"><g id="Layer_1-2" data-name="Layer 1"><rect class="cls-1" x="0.07" y="0.6" width="369.36" height="336.93" rx="25.3" ry="25.3"/><rect class="cls-2" width="364.77" height="334.03" rx="25.3" ry="25.3"/><path class="cls-3" d="M364.77,32.33V24.8A24.8,24.8,0,0,0,340,0H24.8A24.8,24.8,0,0,0,0,24.8v7.53Z"/><rect class="cls-4" x="88.79" y="50.97" width="164.95" height="127.38" rx="11.37" ry="11.37"/><path class="cls-5" d="M247.3,51h-75V178.35h75a6.45,6.45,0,0,0,6.44-6.45V57.41A6.44,6.44,0,0,0,247.3,51Z"/><rect class="cls-6" x="95.39" y="162.25" width="151.33" height="5.05" rx="2.53" ry="2.53"/><circle class="cls-7" cx="117.61" cy="164.76" r="7.42"/><rect class="cls-6" x="98.86" y="58.06" width="146.24" height="94.47"/><polygon class="cls-8" points="245.1 152.53 99.37 152.53 99.03 125.22 245.1 82.41 245.1 152.53"/><circle class="cls-9" cx="173.35" cy="107.01" r="29.81"/><path class="cls-6" d="M166.25,90.23l27.48,15.86a1.69,1.69,0,0,1,0,2.93l-27.48,15.86a1.69,1.69,0,0,1-2.53-1.46V91.69A1.69,1.69,0,0,1,166.25,90.23Z"/><rect class="cls-3" x="40.32" y="199.28" width="277.65" height="10.23" rx="5.12" ry="5.12"/><rect class="cls-3" x="38.81" y="223.93" width="113.16" height="10.23" rx="5.12" ry="5.12"/><rect class="cls-10" x="150.59" y="141.13" width="62.97" height="277.8" transform="translate(-97.95 462.11) rotate(-90)"/><line class="cls-11" x1="57.06" y1="261.62" x2="171.05" y2="261.62"/><line class="cls-12" x1="57.06" y1="273.11" x2="145.89" y2="273.11"/><line class="cls-12" x1="57.06" y1="284.6" x2="192.27" y2="284.6"/><line class="cls-12" x1="57.06" y1="296.09" x2="130.46" y2="296.09"/></g></g></svg>