<svg xmlns="http://www.w3.org/2000/svg" width="59" height="60" fill-rule="evenodd" xmlns:v="https://vecta.io/nano"><path d="M36.31 14.009c3.998-.139 8.06 1.424 10.246 5.228h0l-5.868 5.861c-.127.127-.339.424-.381.636h0l-2.444 6.029c-.078.157-.097.313-.087.464-.422.263-.838.635-1.097.773-1.09.581-2.033.331-2.948-.449-.894-.763-1.567-1.753-2.582-2.375-.955-.584-2.028-.777-3.087-.36-1.078.425-1.821 1.208-2.611 2.018-.687.706-1.614 1.639-2.7 1.51-1.02-.121-1.693-1.217-2.411-1.841-.779-.678-1.733-1.096-2.771-.802-.928.263-1.627.929-2.339 1.54-.283.242-.698.503-.647.935.056.476.586.636.975.461.217-.097.385-.256.542-.426l.233-.258h0l.12-.124c.36-.35.817-.7 1.291-.878 1.076-.404 1.828.478 2.5 1.183.657.689 1.386 1.339 2.382 1.412 1.024.074 1.96-.413 2.731-1.041 1.267-1.031 2.707-3.377 4.617-2.616 2.165.863 3.217 4.049 5.926 3.644.442-.065 2.128-.746 2.872-1.441.11-.01.221-.035.332-.091h0l6.036-2.441c.213-.041.51-.253.637-.38h0l5.375-5.369C52.936 26.217 54 28.191 54 30.3c0 4.252-4.138 7.667-9.235 7.667h0H17.48c-4.138 0-7.376.419-9.894-1.737-3.598-2.695-1.14-10.841 8.035-9.044 0-4.492 4.677-7.128 9.655-5.151.779-4.852 5.876-7.847 11.034-8.026zm10.938 6.655a11.99 11.99 0 0 1 .34.994h0l-4.621 4.616c-.721.721-.891 1.652-.424 2.118s1.399.296 2.12-.424h0l4.394-4.39c.281.12.556.248.818.391h0l-4.609 4.602a1.48 1.48 0 0 0-.424 1.186h0l-3.139 1.101-1.694-1.693 1.102-3.136c.382.043.848-.084 1.188-.423h0z" fill="#d9174c"/><path d="M16.848 53v-8.4h-.9V53h.9zm14.131.132V44.6h-.864v5.316l.132 1.26h-.048l-.492-1.26-3.108-5.448h-.54V53h.864v-5.328l-.132-1.32h.036l.516 1.32 3.084 5.46h.552zM42.374 53v-7.572h2.064V44.6H39.41v.828h2.064V53h.9zm9.799.144a.58.58 0 0 0 .438-.168c.108-.112.162-.284.162-.516 0-.224-.054-.392-.162-.504a.58.58 0 0 0-.438-.168.58.58 0 0 0-.438.168c-.108.112-.162.28-.162.504 0 .232.054.404.162.516a.58.58 0 0 0 .438.168z" fill="#17212a" fill-rule="nonzero"/></svg>
