<svg xmlns="http://www.w3.org/2000/svg" xmlns:xlink="http://www.w3.org/1999/xlink" width="239" height="60" xmlns:v="https://vecta.io/nano"><defs><path d="M31.974 0l-.401.009h0c-5.372.188-10.681 3.307-11.494 8.361h0c-5.184-2.059-10.057.687-10.057 5.366h0c-9.557-1.873-12.118 6.613-8.371 9.421h0c2.624 2.246 5.997 1.809 10.308 1.809h0H36.82h3.56c5.309 0 9.62-3.556 9.62-7.986h0c0-2.198-1.109-4.254-2.967-5.718h0l-5.599 5.593c-.133.133-.442.353-.664.396h0l-6.288 2.544c-.152.075-.304.095-.452.091h0c-.779.686-2.459 1.363-2.897 1.428h0c-1.666.247-2.698-.819-3.793-1.951h0c-.703-.726-1.431-1.478-2.339-1.84h0c-.282-.112-.553-.163-.816-.163h0c-1.189 0-2.189 1.03-3.091 1.957h0c-.344.354-.668.687-.982.942h0c-.951.774-1.894 1.129-2.789 1.067h0c-1.041-.075-1.799-.786-2.43-1.446h0l-.114-.121c-.687-.724-1.464-1.545-2.574-1.13h0c-.559.211-1.055.623-1.372.931h0c-.088.085-.169.176-.251.269h0c-.201.225-.392.438-.659.557h0a.74.74 0 0 1-.643-.02h0a.51.51 0 0 1-.263-.399h0c-.041-.344.243-.574.516-.797h0l.131-.109h0l.226-.195c.653-.566 1.329-1.151 2.181-1.392h0c1.169-.328 2.175.263 2.813.819h0c.205.178.406.392.617.619h0c.561.601 1.141 1.222 1.936 1.316h0c1.187.141 2.205-.904 2.878-1.595h0l.074-.076c.794-.815 1.544-1.586 2.617-2.009h0c1.012-.398 2.101-.271 3.147.369h0c.639.393 1.159.939 1.662 1.468h0c.321.339.654.689 1.018 1h0c1.064.907 2.067 1.059 3.157.478h0c.142-.076.317-.209.521-.363h0a9.07 9.07 0 0 1 .589-.419h0a.94.94 0 0 1 .087-.577h0l2.547-6.28c.043-.222.264-.531.396-.663h0l6.113-6.106C40.081 1.688 36.151.03 32.189 0h0-.215zm5.838 12.09a1.55 1.55 0 0 1-1.237.441h0l-1.148 3.266 1.766 1.764 3.269-1.147c-.045-.398.088-.883.441-1.236h0l4.801-4.794a10.15 10.15 0 0 0-1.165-.535h0l-4.486 4.48c-.318.317-.687.529-1.042.599h0c-.309.059-.563.003-.725-.157h0c-.365-.365-.167-1.157.442-1.766h0l4.696-4.691a12.67 12.67 0 0 0-.456-1.373h0l-5.155 5.149z" id="A"/></defs><g transform="translate(15 13)" fill="none" fill-rule="evenodd"><g fill-rule="nonzero"><path d="M2.31 40V29.5H1.185V40H2.31zm17.664.165V29.5h-1.08v6.645l.165 1.575h-.06l-.615-1.575-3.885-6.81h-.675V40h1.08v-6.66l-.165-1.65h.045l.645 1.65 3.855 6.825h.69zM34.218 40v-9.465h2.58V29.5h-6.285v1.035h2.58V40h1.125zm17.859 0v-1.035h-3.615v-3.84h3.255V34.09h-3.255v-3.555h3.54V29.5h-4.665V40h4.74zm12.189 0v-4.8l1.125.225L67.641 40h1.305l-2.07-4.185-.57-.555a2.49 2.49 0 0 0 1.373-1.005c.345-.5.517-1.165.517-1.995 0-.55-.078-1.007-.233-1.372s-.362-.66-.623-.885-.565-.385-.915-.48a4.22 4.22 0 0 0-1.11-.143l-1.088.053c-.395.035-.758.092-1.087.172h0V40h1.125zm.9-5.55h-.9v-3.945c.11-.03.273-.052.488-.067l.623-.023c.54 0 .947.18 1.222.54s.412.815.412 1.365c0 .72-.165 1.255-.495 1.605s-.78.525-1.35.525h0zm20.694 5.715V29.5h-1.08v6.645l.165 1.575h-.06l-.615-1.575-3.885-6.81h-.675V40h1.08v-6.66l-.165-1.65h.045l.645 1.65 3.855 6.825h.69zM97.374 40l.84-2.94h2.97l.855 2.94h1.17l-3.165-10.665h-.615L96.264 40h1.11zm3.54-3.945h-2.4l.885-3.21.285-1.605h.03l.285 1.575.915 3.24zM115.743 40v-9.465h2.58V29.5h-6.285v1.035h2.58V40h1.125zm14.469 0V29.5h-1.125V40h1.125zm14.664.18c1.17 0 2.042-.46 2.617-1.38s.863-2.27.863-4.05a11.86 11.86 0 0 0-.195-2.25c-.13-.67-.333-1.24-.608-1.71s-.632-.832-1.072-1.087-.975-.383-1.605-.383c-1.17 0-2.04.46-2.61 1.38s-.855 2.27-.855 4.05c0 .83.063 1.58.188 2.25s.327 1.24.607 1.71.64.832 1.08 1.087.97.383 1.59.383zm0-1.035c-.41 0-.76-.12-1.05-.36s-.525-.56-.705-.96-.312-.865-.397-1.395-.127-1.09-.127-1.68c0-1.49.195-2.595.585-3.315s.955-1.08 1.695-1.08c.42 0 .775.12 1.065.36s.525.563.705.968.313.872.398 1.402.127 1.085.127 1.665c0 1.49-.195 2.595-.585 3.315s-.96 1.08-1.71 1.08zm20.604 1.02V29.5h-1.08v6.645l.165 1.575h-.06l-.615-1.575-3.885-6.81h-.675V40h1.08v-6.66l-.165-1.65h.045l.645 1.65 3.855 6.825h.69zM176.994 40l.84-2.94h2.97l.855 2.94h1.17l-3.165-10.665h-.615L175.884 40h1.11zm3.54-3.945h-2.4l.885-3.21.285-1.605h.03l.285 1.575.915 3.24zM198.288 40v-1.035h-3.93V29.5h-1.125V40h5.055z" fill="#17212a"/><path d="M11.591 20.702c0 .227-.186.413-.412.413H9.137c-.227 0-.412-.186-.412-.413v-6.311H2.867v6.311c0 .227-.186.413-.412.413H.413c-.227 0-.412-.186-.412-.413V6.182c0-.227.186-.392.413-.392h2.042c.227 0 .412.165.412.392v5.693h5.858V6.182c0-.227.186-.392.412-.392h2.042c.227 0 .412.165.412.392v14.52zm13.763-10.127c0 3.651-2.764 4.826-5.94 4.826-.536 0-1.361-.062-1.836-.082v5.383c0 .227-.165.413-.392.413h-2.063c-.227 0-.412-.186-.412-.413V6.512c0-.412.248-.557.66-.619 1.073-.165 2.537-.268 4.043-.268 3.176 0 5.94 1.114 5.94 4.764v.186zm-2.846 0v-.186c0-1.733-1.031-2.393-3.094-2.393l-1.836.083v4.909l1.836.062c2.227 0 3.094-.825 3.094-2.475zm8.122 10.127c0 .227-.186.413-.413.413h-2.042c-.227 0-.413-.186-.413-.413V6.182c0-.227.186-.392.413-.392h2.042c.227 0 .413.165.413.392v14.52zm71.151-3.548c0 1.98-1.031 4.125-5.094 4.125-1.444 0-2.516-.144-3.424-.289-.351-.062-.392-.144-.392-.371v-.825c0-.227.165-.33.351-.33h.062l3.403.124c2.475 0 3.135-.99 3.135-2.434 0-1.031-.598-1.609-2.475-2.764l-2.001-1.217c-1.897-1.155-2.846-2.207-2.846-3.857 0-2.496 1.794-3.651 4.929-3.651 1.217 0 2.805.124 3.589.248.206.041.351.144.351.351v.887c0 .206-.144.33-.351.33h-.041l-3.548-.124c-2.124 0-3.032.454-3.032 1.959 0 .969.681 1.547 2.248 2.496l1.898 1.134c2.392 1.423 3.238 2.557 3.238 4.208zm9.7 3.444c0 .268-.082.392-.412.454a14.96 14.96 0 0 1-2.578.227c-2.805 0-4.393-1.98-4.393-5.012v-1.609c0-3.032 1.568-5.012 4.393-5.012a15.13 15.13 0 0 1 2.578.227c.33.062.412.165.412.454v.742c0 .206-.165.309-.351.309h-.083a20.11 20.11 0 0 0-2.557-.144c-1.65 0-2.578 1.093-2.578 3.424v1.609c0 2.31.907 3.424 2.578 3.424a20.11 20.11 0 0 0 2.557-.144h.083c.186 0 .351.103.351.309v.743zm11.017.124c0 .227-.186.412-.412.412h-.99c-.227 0-.413-.186-.413-.412v-6.786c0-2.062-.866-2.702-2.207-2.702-.639 0-1.939.165-2.846.578v8.91a.43.43 0 0 1-.413.412h-1.011c-.206 0-.392-.186-.392-.412V6.038c0-.227.165-.412.392-.412h1.031c.227 0 .392.186.392.412v4.249c.99-.433 2.269-.639 3.156-.639 2.186 0 3.712 1.258 3.712 4.29v6.786zm11.513 0c0 .227-.165.412-.392.412h-1.031c-.227 0-.392-.186-.392-.412v-.392c-1.134.639-2.062.949-3.279.949-2.475 0-3.589-1.547-3.589-4.29v-6.786c0-.227.186-.412.413-.412h.99c.227 0 .413.186.413.412v6.786c0 2.083.701 2.722 2.269 2.722.866 0 1.836-.33 2.784-.804v-8.704a.43.43 0 0 1 .413-.412h1.011c.206 0 .392.186.392.412v10.519zm4.851 0c0 .206-.144.412-.371.412h-1.072c-.206 0-.371-.186-.371-.412V6.017c0-.206.144-.392.371-.392h1.072c.206 0 .371.165.371.392v14.706zm7.641-5.218c0 .206-.165.351-.392.351h-4.104c-.227 0-.392-.124-.392-.351V14.7c0-.206.165-.371.392-.371h4.104c.227 0 .392.144.392.371v.804zm11.89 5.094c0 .247-.186.371-.412.412-.866.165-1.671.268-3.424.268-2.537 0-5.445-1.361-5.445-6.373v-2.867c0-5.053 2.908-6.373 5.445-6.373 1.299 0 2.558.186 3.465.33.186.021.33.083.33.268v1.052c0 .124-.041.227-.248.227h-.062l-3.465-.186c-2.021 0-3.589 1.176-3.589 4.682v2.867c0 3.465 1.567 4.682 3.589 4.682l3.403-.165h.083c.227 0 .33.103.33.33v.846zm4.269.124c0 .206-.144.412-.371.412h-1.072c-.206 0-.371-.186-.371-.412V6.017c0-.206.144-.392.371-.392h1.072c.206 0 .371.165.371.392v14.706zm11.824-4.476c0 3.032-1.567 5.033-4.599 5.033s-4.579-2.001-4.579-5.033v-1.567c0-3.032 1.547-5.033 4.579-5.033s4.599 2.001 4.599 5.033v1.567zm-1.815 0v-1.567c0-2.104-.846-3.444-2.784-3.444-1.918 0-2.764 1.32-2.764 3.444v1.567c0 2.104.825 3.444 2.764 3.444 1.918 0 2.784-1.32 2.784-3.444zm13.035 4.476c0 .227-.165.412-.392.412h-1.031c-.227 0-.392-.186-.392-.412v-.392c-1.134.639-2.062.949-3.279.949-2.475 0-3.589-1.547-3.589-4.29v-6.786c0-.227.186-.412.413-.412h.99c.227 0 .412.186.412.412v6.786c0 2.083.701 2.722 2.269 2.722.866 0 1.836-.33 2.784-.804v-8.704a.43.43 0 0 1 .412-.412h1.011c.206 0 .392.186.392.412v10.519zm11.314-.268c0 .268-.062.413-.433.474-1.279.247-2.537.351-3.795.351-3.073 0-4.496-2.001-4.496-5.094V14.7c0-3.238 1.485-5.053 4.496-5.053.639 0 1.609.062 2.413.206V6.017c0-.206.165-.392.392-.392h1.052c.206 0 .371.165.371.392v14.438zm-1.815-.887v-8.188c-.681-.124-1.753-.144-2.413-.144-2.021 0-2.681 1.258-2.681 3.465v1.485c0 2.248.639 3.506 2.681 3.506a31.44 31.44 0 0 0 2.413-.124z" fill="#d9174c"/></g><g transform="translate(36.875)"><mask id="B" fill="#fff"><use xlink:href="#A"/></mask><path d="M31.974 0l-.401.009h0c-5.372.188-10.681 3.307-11.494 8.361h0c-5.184-2.059-10.057.687-10.057 5.366h0c-9.557-1.873-12.118 6.613-8.371 9.421h0c2.624 2.246 5.997 1.809 10.308 1.809h0H36.82h3.56c5.309 0 9.62-3.556 9.62-7.986h0c0-2.198-1.109-4.254-2.967-5.718h0l-5.599 5.593c-.133.133-.442.353-.664.396h0l-6.288 2.544c-.152.075-.304.095-.452.091h0c-.779.686-2.459 1.363-2.897 1.428h0c-1.666.247-2.698-.819-3.793-1.951h0c-.703-.726-1.431-1.478-2.339-1.84h0c-.282-.112-.553-.163-.816-.163h0c-1.189 0-2.189 1.03-3.091 1.957h0c-.344.354-.668.687-.982.942h0c-.951.774-1.894 1.129-2.789 1.067h0c-1.041-.075-1.799-.786-2.43-1.446h0l-.114-.121c-.687-.724-1.464-1.545-2.574-1.13h0c-.559.211-1.055.623-1.372.931h0c-.088.085-.169.176-.251.269h0c-.201.225-.392.438-.659.557h0a.74.74 0 0 1-.643-.02h0a.51.51 0 0 1-.263-.399h0c-.041-.344.243-.574.516-.797h0l.131-.109h0l.226-.195c.653-.566 1.329-1.151 2.181-1.392h0c1.169-.328 2.175.263 2.813.819h0c.205.178.406.392.617.619h0c.561.601 1.141 1.222 1.936 1.316h0c1.187.141 2.205-.904 2.878-1.595h0l.074-.076c.794-.815 1.544-1.586 2.617-2.009h0c1.012-.398 2.101-.271 3.147.369h0c.639.393 1.159.939 1.662 1.468h0c.321.339.654.689 1.018 1h0c1.064.907 2.067 1.059 3.157.478h0c.142-.076.317-.209.521-.363h0a9.07 9.07 0 0 1 .589-.419h0a.94.94 0 0 1 .087-.577h0l2.547-6.28c.043-.222.264-.531.396-.663h0l6.113-6.106C40.081 1.688 36.151.03 32.189 0h0-.215zm5.838 12.09a1.55 1.55 0 0 1-1.237.441h0l-1.148 3.266 1.766 1.764 3.269-1.147c-.045-.398.088-.883.441-1.236h0l4.801-4.794a10.15 10.15 0 0 0-1.165-.535h0l-4.486 4.48c-.318.317-.687.529-1.042.599h0c-.309.059-.563.003-.725-.157h0c-.365-.365-.167-1.157.442-1.766h0l4.696-4.691a12.67 12.67 0 0 0-.456-1.373h0l-5.155 5.149z" fill="#d9174c" mask="url(#B)"/></g></g></svg>
