<?xml version="1.0" encoding="UTF-8"?>
<svg width="239px" height="60px" viewBox="0 0 239 60" version="1.1" xmlns="http://www.w3.org/2000/svg" xmlns:xlink="http://www.w3.org/1999/xlink">
    <title>International-239x60</title>
    <defs>
        <path d="M31.974375,0 C31.840625,0.00125 31.706875,0.00375 31.573125,0.00875 L31.573125,0.00875 C26.20125,0.19625 20.891875,3.315625 20.079375,8.369375 L20.079375,8.369375 C14.895,6.310625 10.0225,9.05625 10.0225,13.735625 L10.0225,13.735625 C0.465625,11.863125 -2.095,20.34875 1.651875,23.156875 L1.651875,23.156875 C4.275625,25.4025 7.64875,24.965625 11.959375,24.965625 L11.959375,24.965625 L36.82,24.965625 L40.38,24.965625 C45.689375,24.965625 50,21.409375 50,16.979375 L50,16.979375 C50,14.781875 48.89125,12.725625 47.033125,11.26125 L47.033125,11.26125 L41.43375,16.85375 C41.30125,16.986875 40.991875,17.206875 40.77,17.25 L40.77,17.25 L34.4825,19.79375 C34.330625,19.86875 34.17875,19.88875 34.030625,19.884375 L34.030625,19.884375 C33.25125,20.570625 31.57125,21.246875 31.13375,21.311875 L31.13375,21.311875 C29.468125,21.55875 28.435625,20.4925 27.34125,19.36125 L27.34125,19.36125 C26.638125,18.635 25.91,17.883125 25.001875,17.52125 L25.001875,17.52125 C24.719375,17.40875 24.44875,17.358125 24.18625,17.358125 L24.18625,17.358125 C22.996875,17.358125 21.996875,18.388125 21.095625,19.315625 L21.095625,19.315625 C20.751875,19.669375 20.4275,20.0025 20.11375,20.2575 L20.11375,20.2575 C19.163125,21.03125 18.219375,21.38625 17.324375,21.324375 L17.324375,21.324375 C16.28375,21.249375 15.525,20.538125 14.894375,19.878125 L14.894375,19.878125 L14.78,19.756875 C14.093125,19.0325 13.31625,18.211875 12.20625,18.626875 L12.20625,18.626875 C11.646875,18.8375 11.15125,19.249375 10.834375,19.558125 L10.834375,19.558125 C10.746875,19.643125 10.665625,19.734375 10.583125,19.826875 L10.583125,19.826875 C10.381875,20.051875 10.19125,20.264375 9.924375,20.384375 L9.924375,20.384375 C9.71875,20.475625 9.465,20.46875 9.28125,20.364375 L9.28125,20.364375 C9.175625,20.305 9.044375,20.1875 9.018125,19.965 L9.018125,19.965 C8.976875,19.620625 9.26125,19.390625 9.534375,19.168125 L9.534375,19.168125 C9.58,19.13125 9.62375,19.095625 9.665625,19.059375 L9.665625,19.059375 L9.891875,18.864375 C10.545,18.29875 11.220625,17.71375 12.073125,17.471875 L12.073125,17.471875 C13.2425,17.14375 14.248125,17.735 14.88625,18.29125 L14.88625,18.29125 C15.09125,18.469375 15.291875,18.683125 15.50375,18.910625 L15.50375,18.910625 C16.064375,19.511875 16.645,20.1325 17.44,20.226875 L17.44,20.226875 C18.626875,20.368125 19.645,19.3225 20.318125,18.631875 L20.318125,18.631875 L20.391875,18.555625 C21.18625,17.740625 21.935625,16.97 23.009375,16.546875 L23.009375,16.546875 C24.02125,16.14875 25.110625,16.275625 26.15625,16.915625 L26.15625,16.915625 C26.795,17.308125 27.315,17.855 27.818125,18.38375 L27.818125,18.38375 C28.139375,18.7225 28.471875,19.073125 28.83625,19.38375 L28.83625,19.38375 C29.9,20.290625 30.903125,20.4425 31.993125,19.861875 L31.993125,19.861875 C32.135,19.78625 32.31,19.653125 32.514375,19.49875 L32.514375,19.49875 C32.695625,19.361875 32.898125,19.210625 33.10375,19.08 L33.10375,19.08 C33.073125,18.89625 33.094375,18.69875 33.190625,18.503125 L33.190625,18.503125 L35.7375,12.223125 C35.780625,12.00125 36.00125,11.6925 36.133125,11.56 L36.133125,11.56 L42.24625,5.454375 C40.08125,1.6875 36.150625,0.03 32.189375,0 L32.189375,0 L31.974375,0 Z M37.8125,12.09 C37.459375,12.4425 36.9725,12.575 36.575625,12.530625 L36.575625,12.530625 L35.428125,15.79625 L37.19375,17.56 L40.4625,16.413125 C40.4175,16.015625 40.550625,15.53 40.903125,15.1775 L40.903125,15.1775 L45.70375,10.383125 C45.335,10.1825 44.944375,10.00625 44.53875,9.848125 L44.53875,9.848125 L40.053125,14.328125 C39.735625,14.645 39.36625,14.8575 39.01125,14.926875 L39.01125,14.926875 C38.7025,14.98625 38.448125,14.93 38.28625,14.77 L38.28625,14.77 C37.92125,14.405 38.119375,13.6125 38.728125,13.004375 L38.728125,13.004375 L43.42375,8.31375 C43.294375,7.8325 43.14,7.376875 42.9675,6.940625 L42.9675,6.940625 L37.8125,12.09 Z" id="path-1"></path>
    </defs>
    <g id="International-239x60" stroke="none" stroke-width="1" fill="none" fill-rule="evenodd">
        <path d="M22.31,51 L22.31,40.5 L21.185,40.5 L21.185,51 L22.31,51 Z M39.973966,51.165 L39.973966,40.5 L38.893966,40.5 L38.893966,47.145 L39.058966,48.72 L38.998966,48.72 L38.383966,47.145 L34.498966,40.335 L33.823966,40.335 L33.823966,51 L34.903966,51 L34.903966,44.34 L34.738966,42.69 L34.783966,42.69 L35.428966,44.34 L39.283966,51.165 L39.973966,51.165 Z M54.217932,51 L54.217932,41.535 L56.797932,41.535 L56.797932,40.5 L50.512932,40.5 L50.512932,41.535 L53.092932,41.535 L53.092932,51 L54.217932,51 Z M72.076898,51 L72.076898,49.965 L68.461898,49.965 L68.461898,46.125 L71.716898,46.125 L71.716898,45.09 L68.461898,45.09 L68.461898,41.535 L72.001898,41.535 L72.001898,40.5 L67.336898,40.5 L67.336898,51 L72.076898,51 Z M84.265864,51 L84.265864,46.2 L85.390864,46.425 L87.640864,51 L88.945864,51 L86.875864,46.815 L86.305864,46.26 C86.875864,46.09 87.333364,45.755 87.678364,45.255 C88.023364,44.755 88.195864,44.09 88.195864,43.26 C88.195864,42.71 88.118364,42.2525 87.963364,41.8875 C87.808364,41.5225 87.600864,41.2275 87.340864,41.0025 C87.080864,40.7775 86.775864,40.6175 86.425864,40.5225 C86.075864,40.4275 85.705864,40.38 85.315864,40.38 C84.985864,40.38 84.623364,40.3975 84.228364,40.4325 C83.833364,40.4675 83.470864,40.525 83.140864,40.605 L83.140864,40.605 L83.140864,51 L84.265864,51 Z M85.165864,45.45 L84.265864,45.45 L84.265864,41.505 C84.375864,41.475 84.538364,41.4525 84.753364,41.4375 C84.968364,41.4225 85.175864,41.415 85.375864,41.415 C85.915864,41.415 86.323364,41.595 86.598364,41.955 C86.873364,42.315 87.010864,42.77 87.010864,43.32 C87.010864,44.04 86.845864,44.575 86.515864,44.925 C86.185864,45.275 85.735864,45.45 85.165864,45.45 L85.165864,45.45 Z M105.85983,51.165 L105.85983,40.5 L104.77983,40.5 L104.77983,47.145 L104.94483,48.72 L104.88483,48.72 L104.26983,47.145 L100.38483,40.335 L99.70983,40.335 L99.70983,51 L100.78983,51 L100.78983,44.34 L100.62483,42.69 L100.66983,42.69 L101.31483,44.34 L105.16983,51.165 L105.85983,51.165 Z M117.373796,51 L118.213796,48.06 L121.183796,48.06 L122.038796,51 L123.208796,51 L120.043796,40.335 L119.428796,40.335 L116.263796,51 L117.373796,51 Z M120.913796,47.055 L118.513796,47.055 L119.398796,43.845 L119.683796,42.24 L119.713796,42.24 L119.998796,43.815 L120.913796,47.055 Z M135.742762,51 L135.742762,41.535 L138.322762,41.535 L138.322762,40.5 L132.037762,40.5 L132.037762,41.535 L134.617762,41.535 L134.617762,51 L135.742762,51 Z M150.211728,51 L150.211728,40.5 L149.086728,40.5 L149.086728,51 L150.211728,51 Z M164.875694,51.18 C166.045694,51.18 166.918194,50.72 167.493194,49.8 C168.068194,48.88 168.355694,47.53 168.355694,45.75 C168.355694,44.92 168.290694,44.17 168.160694,43.5 C168.030694,42.83 167.828194,42.26 167.553194,41.79 C167.278194,41.32 166.920694,40.9575 166.480694,40.7025 C166.040694,40.4475 165.505694,40.32 164.875694,40.32 C163.705694,40.32 162.835694,40.78 162.265694,41.7 C161.695694,42.62 161.410694,43.97 161.410694,45.75 C161.410694,46.58 161.473194,47.33 161.598194,48 C161.723194,48.67 161.925694,49.24 162.205694,49.71 C162.485694,50.18 162.845694,50.5425 163.285694,50.7975 C163.725694,51.0525 164.255694,51.18 164.875694,51.18 Z M164.875694,50.145 C164.465694,50.145 164.115694,50.025 163.825694,49.785 C163.535694,49.545 163.300694,49.225 163.120694,48.825 C162.940694,48.425 162.808194,47.96 162.723194,47.43 C162.638194,46.9 162.595694,46.34 162.595694,45.75 C162.595694,44.26 162.790694,43.155 163.180694,42.435 C163.570694,41.715 164.135694,41.355 164.875694,41.355 C165.295694,41.355 165.650694,41.475 165.940694,41.715 C166.230694,41.955 166.465694,42.2775 166.645694,42.6825 C166.825694,43.0875 166.958194,43.555 167.043194,44.085 C167.128194,44.615 167.170694,45.17 167.170694,45.75 C167.170694,47.24 166.975694,48.345 166.585694,49.065 C166.195694,49.785 165.625694,50.145 164.875694,50.145 Z M185.47966,51.165 L185.47966,40.5 L184.39966,40.5 L184.39966,47.145 L184.56466,48.72 L184.50466,48.72 L183.88966,47.145 L180.00466,40.335 L179.32966,40.335 L179.32966,51 L180.40966,51 L180.40966,44.34 L180.24466,42.69 L180.28966,42.69 L180.93466,44.34 L184.78966,51.165 L185.47966,51.165 Z M196.993626,51 L197.833626,48.06 L200.803626,48.06 L201.658626,51 L202.828626,51 L199.663626,40.335 L199.048626,40.335 L195.883626,51 L196.993626,51 Z M200.533626,47.055 L198.133626,47.055 L199.018626,43.845 L199.303626,42.24 L199.333626,42.24 L199.618626,43.815 L200.533626,47.055 Z M218.287592,51 L218.287592,49.965 L214.357592,49.965 L214.357592,40.5 L213.232592,40.5 L213.232592,51 L218.287592,51 Z" id="INTERNATIONAL" fill="#FFFFFF" fill-rule="nonzero"></path>
        <g id="TXT" transform="translate(20.000000, 14.625000)" fill="#FFFFFF" fill-rule="nonzero">
            <path d="M11.59125,15.076875 C11.59125,15.30375 11.405625,15.489375 11.17875,15.489375 L9.136875,15.489375 C8.91,15.489375 8.724375,15.30375 8.724375,15.076875 L8.724375,8.765625 L2.866875,8.765625 L2.866875,15.076875 C2.866875,15.30375 2.68125,15.489375 2.454375,15.489375 L0.4125,15.489375 C0.185625,15.489375 0,15.30375 0,15.076875 L0,0.556875 C0,0.33 0.185625,0.165 0.4125,0.165 L2.454375,0.165 C2.68125,0.165 2.866875,0.33 2.866875,0.556875 L2.866875,6.249375 L8.724375,6.249375 L8.724375,0.556875 C8.724375,0.33 8.91,0.165 9.136875,0.165 L11.17875,0.165 C11.405625,0.165 11.59125,0.33 11.59125,0.556875 L11.59125,15.076875 Z M25.35375,4.95 C25.35375,8.600625 22.59,9.77625 19.41375,9.77625 C18.8775,9.77625 18.0525,9.714375 17.578125,9.69375 L17.578125,15.076875 C17.578125,15.30375 17.413125,15.489375 17.18625,15.489375 L15.12375,15.489375 C14.896875,15.489375 14.71125,15.30375 14.71125,15.076875 L14.71125,0.886875 C14.71125,0.474375 14.95875,0.33 15.37125,0.268125 C16.44375,0.103125 17.908125,0 19.41375,0 C22.59,0 25.35375,1.11375 25.35375,4.764375 L25.35375,4.95 Z M22.5075,4.95 L22.5075,4.764375 C22.5075,3.031875 21.47625,2.371875 19.41375,2.371875 C18.980625,2.371875 17.949375,2.413125 17.578125,2.454375 L17.578125,7.363125 C17.908125,7.38375 19.063125,7.425 19.41375,7.425 C21.64125,7.425 22.5075,6.6 22.5075,4.95 Z M30.6290625,15.076875 C30.6290625,15.30375 30.4434375,15.489375 30.2165625,15.489375 L28.1746875,15.489375 C27.9478125,15.489375 27.7621875,15.30375 27.7621875,15.076875 L27.7621875,0.556875 C27.7621875,0.33 27.9478125,0.165 28.1746875,0.165 L30.2165625,0.165 C30.4434375,0.165 30.6290625,0.33 30.6290625,0.556875 L30.6290625,15.076875 Z" id="HPI"></path>
            <path d="M101.78125,11.529375 C101.78125,13.509375 100.75,15.654375 96.686875,15.654375 C95.243125,15.654375 94.170625,15.51 93.263125,15.365625 C92.9125,15.30375 92.87125,15.22125 92.87125,14.994375 L92.87125,14.169375 C92.87125,13.9425 93.03625,13.839375 93.221875,13.839375 L93.28375,13.839375 C94.2325,13.921875 95.738125,13.963125 96.686875,13.963125 C99.161875,13.963125 99.821875,12.973125 99.821875,11.529375 C99.821875,10.498125 99.22375,9.920625 97.346875,8.765625 L95.34625,7.54875 C93.44875,6.39375 92.5,5.341875 92.5,3.691875 C92.5,1.19625 94.294375,0.04125 97.429375,0.04125 C98.64625,0.04125 100.234375,0.165 101.018125,0.28875 C101.224375,0.33 101.36875,0.433125 101.36875,0.639375 L101.36875,1.52625 C101.36875,1.7325 101.224375,1.85625 101.018125,1.85625 L100.976875,1.85625 C100.069375,1.794375 98.625625,1.7325 97.429375,1.7325 C95.305,1.7325 94.3975,2.18625 94.3975,3.691875 C94.3975,4.66125 95.078125,5.23875 96.645625,6.1875 L98.543125,7.321875 C100.935625,8.745 101.78125,9.879375 101.78125,11.529375 Z M111.480813,14.97375 C111.480813,15.241875 111.398313,15.365625 111.068313,15.4275 C110.387687,15.55125 109.459563,15.654375 108.490188,15.654375 C105.685187,15.654375 104.097062,13.674375 104.097062,10.6425 L104.097062,9.03375 C104.097062,6.001875 105.664563,4.021875 108.490188,4.021875 C109.438938,4.021875 110.387687,4.125 111.068313,4.24875 C111.398313,4.310625 111.480813,4.41375 111.480813,4.7025 L111.480813,5.445 C111.480813,5.65125 111.315813,5.754375 111.130188,5.754375 L111.047688,5.754375 C110.140187,5.65125 109.500812,5.61 108.490188,5.61 C106.840187,5.61 105.912063,6.703125 105.912063,9.03375 L105.912063,10.6425 C105.912063,12.9525 106.819563,14.06625 108.490188,14.06625 C109.500812,14.06625 110.140187,14.025 111.047688,13.921875 L111.130188,13.921875 C111.315813,13.921875 111.480813,14.025 111.480813,14.23125 L111.480813,14.97375 Z M122.498313,15.0975 C122.498313,15.324375 122.312688,15.51 122.085813,15.51 L121.095813,15.51 C120.868938,15.51 120.683313,15.324375 120.683313,15.0975 L120.683313,8.311875 C120.683313,6.249375 119.817063,5.61 118.476438,5.61 C117.837063,5.61 116.537688,5.775 115.630188,6.1875 L115.630188,15.0975 C115.630188,15.30375 115.444563,15.51 115.217688,15.51 L114.207063,15.51 C114.000813,15.51 113.815188,15.324375 113.815188,15.0975 L113.815188,0.4125 C113.815188,0.185625 113.980188,0 114.207063,0 L115.238313,0 C115.465188,0 115.630188,0.185625 115.630188,0.4125 L115.630188,4.66125 C116.620188,4.228125 117.898938,4.021875 118.785813,4.021875 C120.972063,4.021875 122.498313,5.28 122.498313,8.311875 L122.498313,15.0975 Z M134.010813,15.0975 C134.010813,15.324375 133.845813,15.51 133.618938,15.51 L132.587688,15.51 C132.360813,15.51 132.195813,15.324375 132.195813,15.0975 L132.195813,14.705625 C131.061438,15.345 130.133313,15.654375 128.916438,15.654375 C126.441438,15.654375 125.327688,14.1075 125.327688,11.364375 L125.327688,4.57875 C125.327688,4.351875 125.513313,4.16625 125.740188,4.16625 L126.730187,4.16625 C126.957063,4.16625 127.142688,4.351875 127.142688,4.57875 L127.142688,11.364375 C127.142688,13.4475 127.843938,14.086875 129.411438,14.086875 C130.277688,14.086875 131.247063,13.756875 132.195813,13.2825 L132.195813,4.57875 C132.195813,4.3725 132.381438,4.16625 132.608313,4.16625 L133.618938,4.16625 C133.825188,4.16625 134.010813,4.351875 134.010813,4.57875 L134.010813,15.0975 Z M138.861438,15.0975 C138.861438,15.30375 138.717063,15.51 138.490188,15.51 L137.417688,15.51 C137.211438,15.51 137.046438,15.324375 137.046438,15.0975 L137.046438,0.391875 C137.046438,0.185625 137.190813,0 137.417688,0 L138.490188,0 C138.696438,0 138.861438,0.165 138.861438,0.391875 L138.861438,15.0975 Z M146.502625,9.879375 C146.502625,10.085625 146.337625,10.23 146.11075,10.23 L142.006375,10.23 C141.7795,10.23 141.6145,10.10625 141.6145,9.879375 L141.6145,9.075 C141.6145,8.86875 141.7795,8.70375 142.006375,8.70375 L146.11075,8.70375 C146.337625,8.70375 146.502625,8.848125 146.502625,9.075 L146.502625,9.879375 Z M158.392563,14.97375 C158.392563,15.22125 158.206938,15.345 157.980063,15.38625 C157.113813,15.55125 156.309438,15.654375 154.556313,15.654375 C152.019438,15.654375 149.111313,14.293125 149.111313,9.28125 L149.111313,6.414375 C149.111313,1.36125 152.019438,0.04125 154.556313,0.04125 C155.855688,0.04125 157.113813,0.226875 158.021313,0.37125 C158.206938,0.391875 158.351313,0.45375 158.351313,0.639375 L158.351313,1.69125 C158.351313,1.815 158.310063,1.918125 158.103813,1.918125 L158.041938,1.918125 C157.299438,1.85625 155.773188,1.7325 154.576938,1.7325 C152.555688,1.7325 150.988188,2.908125 150.988188,6.414375 L150.988188,9.28125 C150.988188,12.74625 152.555688,13.963125 154.576938,13.963125 C155.752563,13.963125 157.237563,13.86 157.980063,13.798125 L158.062563,13.798125 C158.289438,13.798125 158.392563,13.90125 158.392563,14.128125 L158.392563,14.97375 Z M162.661563,15.0975 C162.661563,15.30375 162.517188,15.51 162.290313,15.51 L161.217813,15.51 C161.011563,15.51 160.846563,15.324375 160.846563,15.0975 L160.846563,0.391875 C160.846563,0.185625 160.990938,0 161.217813,0 L162.290313,0 C162.496563,0 162.661563,0.165 162.661563,0.391875 L162.661563,15.0975 Z M174.4855,10.621875 C174.4855,13.65375 172.918,15.654375 169.886125,15.654375 C166.85425,15.654375 165.307375,13.65375 165.307375,10.621875 L165.307375,9.054375 C165.307375,6.0225 166.85425,4.021875 169.886125,4.021875 C172.918,4.021875 174.4855,6.0225 174.4855,9.054375 L174.4855,10.621875 Z M172.6705,10.621875 L172.6705,9.054375 C172.6705,6.950625 171.824875,5.61 169.886125,5.61 C167.968,5.61 167.122375,6.93 167.122375,9.054375 L167.122375,10.621875 C167.122375,12.725625 167.947375,14.06625 169.886125,14.06625 C171.80425,14.06625 172.6705,12.74625 172.6705,10.621875 Z M185.705125,15.0975 C185.705125,15.324375 185.540125,15.51 185.31325,15.51 L184.282,15.51 C184.055125,15.51 183.890125,15.324375 183.890125,15.0975 L183.890125,14.705625 C182.75575,15.345 181.827625,15.654375 180.61075,15.654375 C178.13575,15.654375 177.022,14.1075 177.022,11.364375 L177.022,4.57875 C177.022,4.351875 177.207625,4.16625 177.4345,4.16625 L178.4245,4.16625 C178.651375,4.16625 178.837,4.351875 178.837,4.57875 L178.837,11.364375 C178.837,13.4475 179.53825,14.086875 181.10575,14.086875 C181.972,14.086875 182.941375,13.756875 183.890125,13.2825 L183.890125,4.57875 C183.890125,4.3725 184.07575,4.16625 184.302625,4.16625 L185.31325,4.16625 C185.5195,4.16625 185.705125,4.351875 185.705125,4.57875 L185.705125,15.0975 Z M197.019625,14.829375 C197.019625,15.0975 196.95775,15.241875 196.5865,15.30375 C195.30775,15.55125 194.049625,15.654375 192.7915,15.654375 C189.718375,15.654375 188.29525,13.65375 188.29525,10.56 L188.29525,9.075 C188.29525,5.836875 189.78025,4.021875 192.7915,4.021875 C193.430875,4.021875 194.40025,4.08375 195.204625,4.228125 L195.204625,0.391875 C195.204625,0.185625 195.369625,0 195.5965,0 L196.648375,0 C196.854625,0 197.019625,0.165 197.019625,0.391875 L197.019625,14.829375 Z M195.204625,13.9425 L195.204625,5.754375 C194.524,5.630625 193.4515,5.61 192.7915,5.61 C190.77025,5.61 190.11025,6.868125 190.11025,9.075 L190.11025,10.56 C190.11025,12.808125 190.749625,14.06625 192.7915,14.06625 C193.49275,14.06625 194.503375,14.004375 195.204625,13.9425 Z" id="Schul-Cloud"></path>
        </g>
        <g id="Bildmarke" transform="translate(56.875000, 9.000000)">
            <mask id="mask-2" fill="white">
                <use xlink:href="#path-1"></use>
            </mask>
            <g id="Clip-2"></g>
            <path d="M31.974375,0 C31.840625,0.00125 31.706875,0.00375 31.573125,0.00875 L31.573125,0.00875 C26.20125,0.19625 20.891875,3.315625 20.079375,8.369375 L20.079375,8.369375 C14.895,6.310625 10.0225,9.05625 10.0225,13.735625 L10.0225,13.735625 C0.465625,11.863125 -2.095,20.34875 1.651875,23.156875 L1.651875,23.156875 C4.275625,25.4025 7.64875,24.965625 11.959375,24.965625 L11.959375,24.965625 L36.82,24.965625 L40.38,24.965625 C45.689375,24.965625 50,21.409375 50,16.979375 L50,16.979375 C50,14.781875 48.89125,12.725625 47.033125,11.26125 L47.033125,11.26125 L41.43375,16.85375 C41.30125,16.986875 40.991875,17.206875 40.77,17.25 L40.77,17.25 L34.4825,19.79375 C34.330625,19.86875 34.17875,19.88875 34.030625,19.884375 L34.030625,19.884375 C33.25125,20.570625 31.57125,21.246875 31.13375,21.311875 L31.13375,21.311875 C29.468125,21.55875 28.435625,20.4925 27.34125,19.36125 L27.34125,19.36125 C26.638125,18.635 25.91,17.883125 25.001875,17.52125 L25.001875,17.52125 C24.719375,17.40875 24.44875,17.358125 24.18625,17.358125 L24.18625,17.358125 C22.996875,17.358125 21.996875,18.388125 21.095625,19.315625 L21.095625,19.315625 C20.751875,19.669375 20.4275,20.0025 20.11375,20.2575 L20.11375,20.2575 C19.163125,21.03125 18.219375,21.38625 17.324375,21.324375 L17.324375,21.324375 C16.28375,21.249375 15.525,20.538125 14.894375,19.878125 L14.894375,19.878125 L14.78,19.756875 C14.093125,19.0325 13.31625,18.211875 12.20625,18.626875 L12.20625,18.626875 C11.646875,18.8375 11.15125,19.249375 10.834375,19.558125 L10.834375,19.558125 C10.746875,19.643125 10.665625,19.734375 10.583125,19.826875 L10.583125,19.826875 C10.381875,20.051875 10.19125,20.264375 9.924375,20.384375 L9.924375,20.384375 C9.71875,20.475625 9.465,20.46875 9.28125,20.364375 L9.28125,20.364375 C9.175625,20.305 9.044375,20.1875 9.018125,19.965 L9.018125,19.965 C8.976875,19.620625 9.26125,19.390625 9.534375,19.168125 L9.534375,19.168125 C9.58,19.13125 9.62375,19.095625 9.665625,19.059375 L9.665625,19.059375 L9.891875,18.864375 C10.545,18.29875 11.220625,17.71375 12.073125,17.471875 L12.073125,17.471875 C13.2425,17.14375 14.248125,17.735 14.88625,18.29125 L14.88625,18.29125 C15.09125,18.469375 15.291875,18.683125 15.50375,18.910625 L15.50375,18.910625 C16.064375,19.511875 16.645,20.1325 17.44,20.226875 L17.44,20.226875 C18.626875,20.368125 19.645,19.3225 20.318125,18.631875 L20.318125,18.631875 L20.391875,18.555625 C21.18625,17.740625 21.935625,16.97 23.009375,16.546875 L23.009375,16.546875 C24.02125,16.14875 25.110625,16.275625 26.15625,16.915625 L26.15625,16.915625 C26.795,17.308125 27.315,17.855 27.818125,18.38375 L27.818125,18.38375 C28.139375,18.7225 28.471875,19.073125 28.83625,19.38375 L28.83625,19.38375 C29.9,20.290625 30.903125,20.4425 31.993125,19.861875 L31.993125,19.861875 C32.135,19.78625 32.31,19.653125 32.514375,19.49875 L32.514375,19.49875 C32.695625,19.361875 32.898125,19.210625 33.10375,19.08 L33.10375,19.08 C33.073125,18.89625 33.094375,18.69875 33.190625,18.503125 L33.190625,18.503125 L35.7375,12.223125 C35.780625,12.00125 36.00125,11.6925 36.133125,11.56 L36.133125,11.56 L42.24625,5.454375 C40.08125,1.6875 36.150625,0.03 32.189375,0 L32.189375,0 L31.974375,0 Z M37.8125,12.09 C37.459375,12.4425 36.9725,12.575 36.575625,12.530625 L36.575625,12.530625 L35.428125,15.79625 L37.19375,17.56 L40.4625,16.413125 C40.4175,16.015625 40.550625,15.53 40.903125,15.1775 L40.903125,15.1775 L45.70375,10.383125 C45.335,10.1825 44.944375,10.00625 44.53875,9.848125 L44.53875,9.848125 L40.053125,14.328125 C39.735625,14.645 39.36625,14.8575 39.01125,14.926875 L39.01125,14.926875 C38.7025,14.98625 38.448125,14.93 38.28625,14.77 L38.28625,14.77 C37.92125,14.405 38.119375,13.6125 38.728125,13.004375 L38.728125,13.004375 L43.42375,8.31375 C43.294375,7.8325 43.14,7.376875 42.9675,6.940625 L42.9675,6.940625 L37.8125,12.09 Z" id="Fill-1" fill="#FFFFFF" mask="url(#mask-2)"></path>
        </g>
    </g>
</svg>