<svg height="50" viewBox="0 0 215 50" width="215" xmlns="http://www.w3.org/2000/svg"><g fill="none" fill-rule="evenodd"><path d="m0 0h215v50h-215z"/><path d="m152.875694 33.32c.63 0 1.165.1275 1.605.3825s.7975.6175 1.0725 1.0875.4775 1.04.6075 1.71.195 1.42.195 2.25c0 1.78-.2875 3.13-.8625 4.05s-1.4475 1.38-2.6175 1.38c-.62 0-1.15-.1275-1.59-.3825s-.8-.6175-1.08-1.0875-.4825-1.04-.6075-1.71-.1875-1.42-.1875-2.25c0-1.78.285-3.13.855-4.05s1.44-1.38 2.61-1.38zm15.128966.015 3.885 6.81.615 1.575h.06l-.165-1.575v-6.645h1.08v10.665h-.69l-3.855-6.825-.645-1.65h-.045l.165 1.65v6.66h-1.08v-10.665zm-145.505694 0 3.885 6.81.615 1.575h.06l-.165-1.575v-6.645h1.08v10.665h-.69l-3.855-6.825-.645-1.65h-.045l.165 1.65v6.66h-1.08v-10.665zm65.885864 0 3.885 6.81.615 1.575h.06l-.165-1.575v-6.645h1.08v10.665h-.69l-3.855-6.825-.645-1.65h-.045l.165 1.65v6.66h-1.08v-10.665zm49.826898.165v10.5h-1.125v-10.5zm64.145864 0v9.465h3.93v1.035h-5.055v-10.5zm-14.693966-.165 3.165 10.665h-1.17l-.855-2.94h-2.97l-.84 2.94h-1.11l3.165-10.665zm-177.353626.165v10.5h-1.125v-10.5zm34.487932 0v1.035h-2.58v9.465h-1.125v-9.465h-2.58v-1.035zm15.203966 0v1.035h-3.54v3.555h3.255v1.035h-3.255v3.84h3.615v1.035h-4.74v-10.5zm13.313966-.12c.39 0 .76.0475 1.11.1425s.655.255.915.48.4675.52.6225.885.2325.8225.2325 1.3725c0 .83-.1725 1.495-.5175 1.995-.3066667.4444444-.7022222.7585185-1.1866667.9422222l-.1858333.0627778.57.555 2.07 4.185h-1.305l-2.25-4.575-1.125-.225v4.8h-1.125v-10.395l.2535938-.0557813c.2596875-.0515625.5376562-.0904687.8339062-.1167187.395-.035.7575-.0525 1.0875-.0525zm34.727932-.045 3.165 10.665h-1.17l-.855-2.94h-2.97l-.84 2.94h-1.11l3.165-10.665zm18.278966.165v1.035h-2.58v9.465h-1.125v-9.465h-2.58v-1.035zm26.552932.855c-.74 0-1.305.36-1.695 1.08s-.585 1.825-.585 3.315c0 .59.0425 1.15.1275 1.68s.2175.995.3975 1.395.415.72.705.96.64.36 1.05.36c.75 0 1.32-.36 1.71-1.08s.585-1.825.585-3.315c0-.58-.0425-1.135-.1275-1.665s-.2175-.9975-.3975-1.4025-.415-.7275-.705-.9675-.645-.36-1.065-.36zm-45.161898.885h-.03l-.285 1.605-.885 3.21h2.4l-.915-3.24zm79.61983 0h-.03l-.285 1.605-.885 3.21h2.4l-.915-3.24zm-113.957762-.825c-.2 0-.4075.0075-.6225.0225-.16125.01125-.2929687.0267188-.3951562.0464063l-.0923438.0210937v3.945h.9c.57 0 1.02-.175 1.35-.525s.495-.885.495-1.605c0-.55-.1375-1.005-.4125-1.365s-.6825-.54-1.2225-.54zm3.688511-30.415.3210811.00600842c3.7443636.11192902 7.419364 1.69182113 9.5564185 5.14755721l.1793754.30080937-6.113125 6.105625-.0611753.0668094c-.1040904.1217055-.2320268.3086099-.2979635.4758749l-.0364862.1204407-2.59581 6.397475c-.040305.11745-.055275.23445-.049905.347625l.011965.111775-.203912.1362037-.197801.1421759-.306732.2301554c-.115485.086655-.220125.16305-.31311.221355l-.08907.051985-.1808876.0899846c-.3002229.1386574-.5943747.2206983-.885617.2456404l-.1744215.0081096c-.5746058.004125-1.1402835-.2159782-1.7215736-.6640528l-.1943753-.1578068-.267627-.2396582c-.1748632-.1636914-.3430468-.3341406-.5071289-.5048633l-.4603243-.4826924c-.3643039-.378863-.7446428-.7544005-1.1781432-1.0637482l-.2667766-.1771629-.2096724-.1211548c-.5604904-.3048163-1.1311259-.4634519-1.6935126-.4741052l-.2104724.0029452c-.2800185.0131852-.5574.0634222-.8298452.1509363l-.2033724.0726285-.2850761.1237857c-.7310979.3475118-1.312161.8600972-1.88008 1.4254176l-.7719205.785981-.2814356.2734879c-.540186.5056966-1.2105873 1.0088232-1.9617296 1.0765679l-.1929134.0075764-.1962198-.0128165-.1797445-.0308722c-.5763797-.1299837-1.0390095-.5361974-1.4716238-.9835927l-.4935854-.5238916c-.0916049-.0959568-.1820165-.1877572-.2726063-.2734808l-.13619-.1237877-.1163837-.0983308c-.5205011-.4259912-1.2488983-.8396203-2.0940786-.8141092l-.1970732.0138769c-.0884726.0098047-.1780999.0245743-.2687837.0447692l-.1368058.0344189-.2505981.0824938c-.564114.211456-1.0515762.5686185-1.5128939.9528877l-.7082268.6062591-.1580274.1292004c-.2111403.1753781-.4064429.3624769-.4274057.6115818l.0021519.1107022.0212703.102717c.0384143.1258681.1138194.2085417.1875115.2619097l.0543432.0347483.0971615.0440596c.067934.0239526.1414583.0370602.2161979.0392998l.1124739-.0047946c.0499074-.0057562.0993827-.0163477.1471297-.0317815l.070162-.0267833.15167-.08246c.14391-.09228.266625-.2121.38691-.34218l.24392-.2700475.1275-.1315625.1269824-.1200208c.2698242-.2473315.6321094-.5312695 1.0383399-.7234057l.2065527-.0878235.164032-.0531493c.1615942-.0442151.3159668-.0621269.463938-.0582307l.1458679.0109991c.5392309.0672583.9922906.4201227 1.4024501.821548l.2675589.2722098.3814292.3998356c.5568968.5689832 1.2159949 1.1395408 2.0741162 1.2787281l.2187327.0255594.2073848.0068778.2090012-.0079275c.6992376-.0511066 1.4235093-.3490556 2.1537551-.8947002l.2192339-.1711251.189595-.161915c.12734-.11358.25666-.23782.38852-.36904l.7260961-.7406849.3314223-.3272125c.6725209-.6444962 1.4048707-1.2072909 2.2289243-1.2900611l.2079423-.0104615.158505.006165c.15954.01242.322275.043875.489015.096795l.168105.060165.2671925.1198469c.6115725.3050031 1.14254.7807406 1.6460675 1.2846531l.7357211.7538439.3350519.3328957c.7855455.757106 1.6095481 1.3548313 2.7272362 1.3348209l.2068837-.0105787.2137221-.0248568.0896676-.0176934c.5062056-.11844 1.873898-.6812549 2.6503938-1.2808968l.1568136-.1289098.1117383-.0017676c.0748828-.0048633.1504687-.0177344.226289-.0424414l6.4013477-2.590166.0996757-.0285423c.165586-.0605335.3545562-.1865178.4816695-.292913l.0824048-.0747947 5.599375-5.5925.2283366.186097c1.6454654 1.3868392 2.6486654 3.2552408 2.7327897 5.2581088l.0057487.2739192-.0041048.2364703c-.1474343 4.24087-4.2480983 7.6247449-9.3324387 7.7463929l-.2834565.0033868-28.8220053.0011847-1.3620695.0160587c-.4430424.006692-.8751861.0133627-1.2966772.0159304l-.358675.001101c-2.616182-.0006924-4.8126719-.2103553-6.6509491-1.6484033l-.2377489-.1946215-.1239093-.0967834c-3.1999851-2.6040574-1.4241583-9.5394872 5.809176-9.5913447l.2773079.0013624c.6220739.0104816 1.2830562.0709946 1.9832363.1882788l.4248141.0772369.0037835-.2249002c.1182513-3.4994147 2.9942709-5.86097 6.6413107-5.8341336l.2338177.0049687c.9045172.0317252 1.8530862.2094336 2.8161798.5517107l.3617833.1361044.0487512-.2737347c.9391184-4.80187646 5.9791447-7.79066054 11.1520761-8.07376138l.2929227-.01312892.200625-.00578125zm57.665812 9.79125c.226876 0 .412501.185625.412501.4125v6.785625c0 2.083125.701249 2.7225 2.26875 2.7225.86625 0 1.835625-.33 2.784374-.804375v-8.70375c0-.20625.185626-.4125.412501-.4125h1.010625c.20625 0 .391875.185625.391875.4125v10.51875c0 .226875-.165.4125-.391875.4125h-1.03125c-.226875 0-.391876-.185625-.391876-.4125v-.391875c-1.134374.639375-2.062499.94875-3.279374.94875-2.475 0-3.588751-1.546875-3.588751-4.29v-6.785625c0-.226875.185625-.4125.4125-.4125zm-18.239999-.144375c.94875 0 1.8975.103125 2.578125.226875.33.061875.4125.165.4125.45375v.7425c0 .20625-.165.309375-.350625.309375h-.0825c-.9075-.103125-1.546875-.144375-2.5575-.144375-1.65 0-2.578125 1.093125-2.578125 3.42375v1.60875c0 2.31.9075 3.42375 2.578125 3.42375 1.010625 0 1.65-.04125 2.5575-.144375h.0825c.185625 0 .350625.103125.350625.309375v.7425c0 .268125-.0825.391875-.4125.45375-.680625.12375-1.60875.226875-2.578125.226875-2.805 0-4.393125-1.98-4.393125-5.011875v-1.60875c0-3.031875 1.5675-5.011875 4.393125-5.011875zm61.395937 0c3.031875 0 4.599375 2.000625 4.599375 5.0325v1.5675c0 3.031875-1.5675 5.0325-4.599375 5.0325s-4.57875-2.000625-4.57875-5.0325v-1.5675c0-3.031875 1.546875-5.0325 4.57875-5.0325zm8.538375.144375c.226875 0 .4125.185625.4125.4125v6.785625c0 2.083125.70125 2.7225 2.26875 2.7225.86625 0 1.835625-.33 2.784375-.804375v-8.70375c0-.20625.185625-.4125.4125-.4125h1.010625c.20625 0 .391875.185625.391875.4125v10.51875c0 .226875-.165.4125-.391875.4125h-1.03125c-.226875 0-.391875-.185625-.391875-.4125v-.391875c-1.134375.639375-2.0625.94875-3.279375.94875-2.475 0-3.58875-1.546875-3.58875-4.29v-6.785625c0-.226875.185625-.4125.4125-.4125zm-80.995125-4.125c.374423 0 .783994.01171598 1.194466.03154301l.612104.03537324c.100703.00675922.200392.01391272.298532.02140419l.565972.04855371c.089803.008618.176988.01746131.261018.0264736l.462049.05565088c.069272.00946291.134321.01898214.194609.02850137.20625.04125.350625.144375.350625.350625v.886875c0 .20625-.144375.33-.350625.33h-.04125l-.60258-.03663-.69366-.03366-.74712-.02772c-.50754-.01584-1.02564-.02574-1.50414-.02574-2.124375 0-3.031875.45375-3.031875 1.959375 0 .8724375.551306 1.4274562 1.804275 2.2213744l.44385.2742506 1.8975 1.134375c2.3925 1.423125 3.238125 2.5575 3.238125 4.2075 0 1.98-1.03125 4.125-5.094375 4.125-.91875 0-1.687159-.0584659-2.358378-.1381921l-.552769-.0726757-.512603-.0778822c-.350625-.061875-.391875-.144375-.391875-.37125v-.825c0-.226875.165-.33.350625-.33h.061875c.474375.04125 1.087969.0721875 1.701563.0928125l.902988.0232031c.289394.0051563.561386.0077344.798574.0077344 2.475 0 3.135-.99 3.135-2.43375 0-.9453125-.502591-1.509349-2.032028-2.4864345l-.442972-.2773155-2.000625-1.216875c-1.8975-1.155-2.84625-2.206875-2.84625-3.856875 0-2.495625 1.794375-3.650625 4.929375-3.650625zm99.219-.04125c.20625 0 .37125.165.37125.391875v14.4375c0 .268125-.061875.4125-.433125.474375-1.27875.2475-2.536875.350625-3.795.350625-3.073125 0-4.49625-2.000625-4.49625-5.094375v-1.485c0-3.238125 1.485-5.053125 4.49625-5.053125.639375 0 1.60875.061875 2.413125.20625v-3.83625c0-.20625.165-.391875.391875-.391875zm-42.092062.04125c.909562 0 1.798912.09095625 2.561934.19505063l.620606.09062624.28246.04432313c.185625.020625.33.0825.33.268125v1.051875c0 .12375-.04125.226875-.2475.226875h-.061875l-.875544-.069282-.831722-.05551c-.097201-.0057454-.195492-.0112654-.294364-.0164756l-.596163-.0268679c-.297518-.0108993-.59115-.0174895-.867207-.0174895-2.02125 0-3.58875 1.175625-3.58875 4.681875v2.866875c0 3.465 1.5675 4.681875 3.58875 4.681875.180865 0 .369053-.0024408.560733-.0067968l.581687-.0182874.579659-.0266238.815415-.0486664.865631-.0646256h.0825c.226875 0 .33.103125.33.33v.845625c0 .2475-.185625.37125-.4125.4125l-.323918.058894-.329959.0526099-.347846.0458423-.377574.0385913-.419147.0308569-.472562.0226392-.537821.013938c-.191466.0031421-.395783.0047534-.614923.0047534-2.536875 0-5.445001-1.36125-5.445001-6.373125v-2.866875c0-4.648875 2.461437-6.138033 4.830702-6.34654548l.308301-.02008908c.102453-.00437844.204523-.00649044.305998-.00649044zm-39.318-.04125c.226874 0 .391874.185625.391874.4125v4.24875c.990001-.433125 2.268751-.639375 3.155626-.639375 2.186249 0 3.712499 1.258125 3.712499 4.29v6.785625c0 .226875-.185624.4125-.412499.4125h-.99c-.226875 0-.412501-.185625-.412501-.4125v-6.785625c0-2.0625-.866249-2.701875-2.206874-2.701875-.639375 0-1.93875.165-2.846251.5775v8.91c0 .20625-.185624.4125-.4125.4125h-1.010624c-.206251 0-.391876-.185625-.391876-.4125v-14.685c0-.226875.165-.4125.391876-.4125zm47.052 0c.20625 0 .37125.165.37125.391875v14.705625c0 .20625-.144375.4125-.37125.4125h-1.0725c-.20625 0-.37125-.185625-.37125-.4125v-14.705625c0-.20625.144375-.391875.37125-.391875zm-23.800126 0c.20625 0 .37125.165.37125.391875v14.705625c0 .20625-.144375.4125-.37125.4125h-1.0725c-.206249 0-.37125-.185625-.37125-.4125v-14.705625c0-.20625.144376-.391875.37125-.391875zm-136.035812.165c.226875 0 .4125.165.4125.391875v5.6925h5.8575v-5.6925c0-.226875.185625-.391875.4125-.391875h2.041875c.226875 0 .4125.165.4125.391875v14.52c0 .226875-.185625.4125-.4125.4125h-2.041875c-.226875 0-.4125-.185625-.4125-.4125v-6.31125h-5.8575v6.31125c0 .226875-.185625.4125-.4125.4125h-2.041875c-.226875 0-.4125-.185625-.4125-.4125v-14.52c0-.226875.185625-.391875.4125-.391875zm27.7621875 0c.226875 0 .4125.165.4125.391875v14.52c0 .226875-.185625.4125-.4125.4125h-2.041875c-.226875 0-.4125-.185625-.4125-.4125v-14.52c0-.226875.185625-.391875.4125-.391875zm-10.8028125-.165.2158957.00174256.4272937.01424119c2.8970876.14768457 5.2968106 1.34667255 5.2968106 4.74839125v.185625c0 3.650625-2.76375 4.82625-5.94 4.82625-.2298214 0-.5126786-.0113648-.7982416-.0259767l-1.0373834-.0565233v5.383125c0 .226875-.165.4125-.391875.4125h-2.0625c-.226875 0-.4125-.185625-.4125-.4125v-14.19c0-.4125.2475-.556875.66-.61875 1.0725-.165 2.536875-.268125 4.0425-.268125zm150.472375 5.61c-1.918125 0-2.76375 1.32-2.76375 3.444375v1.5675c0 2.10375.825 3.444375 2.76375 3.444375 1.918125 0 2.784375-1.32 2.784375-3.444375v-1.5675c0-2.10375-.845625-3.444375-2.784375-3.444375zm22.905375 0c-2.02125 0-2.68125 1.258125-2.68125 3.465v1.485c0 2.248125.639375 3.50625 2.68125 3.50625.70125 0 1.711875-.061875 2.413125-.12375v-8.188125c-.510469-.0928125-1.241367-.1276172-1.85335-.1392188zm-112.949-4.294375.1258691.330918c.0815039.223164.1580469.4515625.2287696.6859765l.1016113.3562305-4.695625 4.690625-.1092914.1160347c-.4872229.550184-.6527637 1.212251-.3944592 1.5762924l.0618756.0732979.0749271.0621848c.1071574.0743513.2427405.1142711.3996356.1175437l.1215561-.0044515.1288812-.018402.1528298-.0383819c.2555394-.0781979.5135842-.2265944.7499909-.4310678l.1390543-.1293003 4.485625-4.48.4003704.1643981c.1754938.0759568.347572.1559054.515631.2403944l.2489986.1302075-4.800625 4.794375-.1094316.1221271c-.2366461.2950514-.3433565.6557638-.3395396.9780375l.0083462.1354604-3.26875 1.146875-1.765625-1.76375 1.1475-3.265625.1353181.0081816.1401431-.0052752c.2838838-.0242438.5856688-.131358.8390587-.3341204l.1223551-.109411zm66.26825 7.388125c.226875 0 .391875.144375.391875.37125v.804375c0 .20625-.165.350625-.391875.350625h-4.104375c-.226875 0-.391875-.12375-.391875-.350625v-.804375c0-.20625.165-.37125.391875-.37125zm-126.697-6.331875-.3635545.0056584-.4579373.0151646-.4694804.0219548-.3981842.0260288c-.0558205.0045267-.1052186.0091101-.1464686.0136934v4.90875l.68772.03069.85404.02673.293865.004455c2.2275 0 3.09375-.825 3.09375-2.475v-.185625c0-1.7325-1.03125-2.3925-3.09375-2.3925z" fill="#d9174c" fill-rule="nonzero"/></g></svg>