<svg xmlns="http://www.w3.org/2000/svg" width="380" height="60" fill="#e4032e" fill-rule="evenodd" xmlns:v="https://vecta.io/nano"><path d="M95.497 40.065a1.6 1.6 0 0 0-.596-1.292c-.397-.331-.896-.633-1.496-.907l-1.953-.844c-.702-.29-1.353-.646-1.953-1.068s-1.099-.948-1.496-1.577-.596-1.432-.596-2.409c0-.844.144-1.577.431-2.198s.697-1.138 1.23-1.552 1.162-.72 1.89-.919S92.495 27 93.391 27c1.031 0 2.004.087 2.917.261s1.665.426 2.257.758l-1.091 2.856c-.372-.232-.93-.443-1.674-.633s-1.547-.286-2.409-.286c-.812 0-1.433.157-1.864.472s-.647.737-.647 1.267a1.55 1.55 0 0 0 .596 1.242c.397.331.896.638 1.496.919l1.953.869c.702.298 1.353.658 1.953 1.08s1.099.944 1.496 1.565.596 1.395.596 2.322-.156 1.726-.469 2.397-.752 1.229-1.319 1.677-1.251.778-2.054.994-1.687.323-2.65.323c-1.268 0-2.384-.116-3.348-.348s-1.674-.464-2.13-.695l1.116-2.906c.186.099.427.207.723.323a9.43 9.43 0 0 0 1.002.323 11.78 11.78 0 0 0 1.179.248 8.1 8.1 0 0 0 1.281.099c1.031 0 1.822-.17 2.371-.509s.824-.857.824-1.552zm14.685 3.9c-.507.364-1.12.642-1.839.832s-1.458.286-2.219.286c-1.015 0-1.873-.157-2.574-.472s-1.272-.758-1.712-1.329-.757-1.263-.951-2.074-.292-1.706-.292-2.683c0-2.103.482-3.722 1.446-4.856s2.367-1.701 4.21-1.701c.93 0 1.678.075 2.245.224a7.72 7.72 0 0 1 1.534.571l-.786 2.633c-.389-.182-.774-.323-1.154-.422s-.816-.149-1.306-.149c-.913 0-1.606.294-2.08.882s-.71 1.528-.71 2.819c0 .53.059 1.018.178 1.465s.296.836.533 1.167.545.592.926.782.824.286 1.332.286c.558 0 1.031-.07 1.42-.211a5.02 5.02 0 0 0 1.04-.509l.761 2.459zm9.765.77V37.68c0-1.01-.144-1.739-.431-2.186s-.812-.671-1.573-.671c-.558 0-1.069.186-1.534.559s-.774.849-.926 1.428v7.923h-3.297V27.348h3.297v6.359h.101c.406-.53.905-.952 1.496-1.267s1.344-.472 2.257-.472c.643 0 1.209.083 1.699.248s.9.439 1.23.82.575.898.736 1.552.241 1.461.241 2.422v7.725h-3.297zm9.232-12.419v7.054c0 1.01.123 1.739.368 2.186s.723.671 1.433.671c.626 0 1.146-.182 1.56-.546s.723-.811.926-1.341v-8.023h3.297v8.644a19.43 19.43 0 0 0 .101 1.999c.068.654.169 1.246.304 1.776h-2.486l-.583-1.838h-.101c-.389.629-.93 1.151-1.623 1.565s-1.513.621-2.46.621c-.643 0-1.217-.083-1.725-.248a2.84 2.84 0 0 1-1.268-.82c-.338-.381-.596-.894-.774-1.54s-.266-1.457-.266-2.434v-7.725h3.297zm13.874 8.246c0 .58.076 1.002.228 1.267s.397.397.736.397c.203 0 .402-.017.596-.05a3.66 3.66 0 0 0 .723-.224l.355 2.533c-.271.132-.685.265-1.243.397a7.44 7.44 0 0 1-1.725.199c-.964 0-1.699-.219-2.207-.658s-.761-1.163-.761-2.173V27.348h3.297v13.214zm3.982-4.396h6.366v2.856h-6.366v-2.856zm21.305 7.849c-.541.381-1.23.654-2.067.82s-1.695.248-2.574.248c-1.065 0-2.076-.161-3.031-.484a6.5 6.5 0 0 1-2.524-1.565c-.727-.72-1.306-1.656-1.737-2.807s-.647-2.546-.647-4.185c0-1.706.241-3.134.723-4.285s1.108-2.078 1.877-2.782 1.627-1.209 2.574-1.515 1.894-.46 2.841-.46c1.015 0 1.873.066 2.574.199s1.281.29 1.737.472l-.685 2.881c-.389-.182-.85-.315-1.382-.397s-1.179-.124-1.94-.124c-1.403 0-2.532.488-3.386 1.465s-1.281 2.492-1.281 4.545c0 .894.101 1.71.304 2.447s.511 1.366.926 1.888.93.927 1.547 1.217 1.332.435 2.143.435c.761 0 1.403-.075 1.928-.224s.981-.339 1.37-.571l.71 2.782zm5.478-3.452c0 .58.076 1.002.228 1.267s.397.397.736.397c.203 0 .402-.017.596-.05a3.66 3.66 0 0 0 .723-.224l.355 2.533c-.271.132-.685.265-1.243.397a7.44 7.44 0 0 1-1.725.199c-.964 0-1.699-.219-2.207-.658s-.761-1.163-.761-2.173V27.348h3.297v13.214zm3.449-2.037c0-2.103.524-3.722 1.573-4.856s2.519-1.701 4.413-1.701c1.015 0 1.894.157 2.638.472s1.361.758 1.851 1.329.858 1.263 1.103 2.074.368 1.706.368 2.683c0 2.103-.52 3.722-1.56 4.856s-2.507 1.701-4.4 1.701c-1.015 0-1.894-.157-2.638-.472s-1.365-.758-1.864-1.329-.871-1.263-1.116-2.074-.368-1.706-.368-2.683zm3.399 0c0 .546.051 1.051.152 1.515s.254.869.457 1.217a2.18 2.18 0 0 0 .799.807c.33.19.723.286 1.179.286.862 0 1.505-.306 1.928-.919s.634-1.581.634-2.906c0-1.143-.194-2.066-.583-2.769s-1.048-1.056-1.978-1.056c-.812 0-1.446.298-1.902.894s-.685 1.573-.685 2.931zm14-6.21v7.054c0 1.01.123 1.739.368 2.186s.723.671 1.433.671c.626 0 1.146-.182 1.56-.546s.723-.811.926-1.341v-8.023h3.297v8.644a19.43 19.43 0 0 0 .101 1.999c.068.654.169 1.246.304 1.776h-2.486l-.583-1.838h-.101c-.389.629-.93 1.151-1.623 1.565s-1.513.621-2.46.621c-.643 0-1.217-.083-1.725-.248a2.84 2.84 0 0 1-1.268-.82c-.338-.381-.596-.894-.774-1.54s-.266-1.457-.266-2.434v-7.725h3.297zm21.254 8.048l.025 2.086c.017.695.093 1.465.228 2.31h-2.359l-.457-1.614h-.101c-.338.58-.824 1.047-1.458 1.403s-1.382.534-2.245.534c-1.589 0-2.824-.513-3.703-1.54s-1.319-2.633-1.319-4.819c0-2.12.49-3.767 1.471-4.943s2.418-1.763 4.312-1.763c.524 0 .955.029 1.294.087s.676.153 1.015.286v-5.042h3.297v13.015zm-5.605 1.987c.643 0 1.15-.153 1.522-.46s.634-.749.786-1.329v-5.266c-.237-.182-.499-.319-.786-.41s-.659-.137-1.116-.137c-.93 0-1.627.306-2.092.919s-.697 1.664-.697 3.154c0 1.06.19 1.913.571 2.558s.985.969 1.813.969zm27.595-11.028c0 .414-.068.836-.203 1.267a4.16 4.16 0 0 1-.609 1.205 4.02 4.02 0 0 1-1.04.981c-.423.281-.922.497-1.496.646v.099c.507.083.993.224 1.458.422a3.97 3.97 0 0 1 1.23.82c.355.348.643.77.862 1.267s.33 1.085.33 1.763c0 .894-.19 1.668-.571 2.322s-.879 1.188-1.496 1.602-1.323.72-2.118.919a10 10 0 0 1-2.435.298h-1.015a20.78 20.78 0 0 1-1.217-.037l-1.268-.099a7.4 7.4 0 0 1-1.116-.186V27.497l2.181-.248 2.714-.099c.659 0 1.332.054 2.016.161a5.67 5.67 0 0 1 1.864.621c.558.306 1.019.733 1.382 1.279s.545 1.25.545 2.111zm-5.884 11.823a6.59 6.59 0 0 0 1.573-.186c.507-.124.955-.323 1.344-.596s.697-.609.926-1.006.342-.869.342-1.416c0-.679-.139-1.225-.418-1.639a2.9 2.9 0 0 0-1.091-.969 4.79 4.79 0 0 0-1.509-.472 11.39 11.39 0 0 0-1.674-.124h-2.207v6.234c.118.033.287.058.507.075l.71.05.786.037.71.012zm-1.395-8.147l1.04-.025 1.015-.075c.406-.132.786-.294 1.141-.484s.672-.414.951-.671.499-.555.659-.894a2.55 2.55 0 0 0 .241-1.105c0-.546-.106-.998-.317-1.354a2.45 2.45 0 0 0-.85-.857c-.355-.215-.761-.368-1.217-.46s-.922-.137-1.395-.137l-1.534.037c-.465.025-.816.062-1.053.112v5.911h1.319zm17.171-.77a4.66 4.66 0 0 0-1.446-.248c-.727 0-1.302.195-1.725.584s-.685.882-.786 1.478v8.693h-2.029V32.315h1.42l.38 1.515h.101c.321-.563.706-.998 1.154-1.304s1.019-.46 1.712-.46c.49 0 1.04.083 1.649.248l-.431 1.913zm2.435-.994c.643-.381 1.391-.662 2.245-.844s1.746-.273 2.676-.273c.879 0 1.585.116 2.118.348s.938.534 1.217.907.465.782.558 1.229a6.57 6.57 0 0 1 .139 1.341l-.076 2.906-.076 2.683.076 1.739a8.07 8.07 0 0 0 .279 1.515h-1.496l-.533-1.739h-.127c-.152.232-.342.46-.571.683s-.503.422-.824.596a5.27 5.27 0 0 1-1.116.435c-.423.116-.905.174-1.446.174s-1.044-.083-1.509-.248a3.54 3.54 0 0 1-1.205-.708 3.31 3.31 0 0 1-.799-1.105c-.194-.431-.292-.919-.292-1.465 0-.729.152-1.337.457-1.826s.731-.878 1.281-1.167 1.209-.497 1.978-.621 1.619-.186 2.549-.186h.697a5.03 5.03 0 0 1 .697.05l.076-1.341c0-.911-.186-1.548-.558-1.913s-1.048-.546-2.029-.546c-.287 0-.596.021-.926.062l-1.015.174a8.58 8.58 0 0 0-.989.273c-.313.108-.588.228-.824.36l-.634-1.49zm3.602 9.96c.473 0 .896-.062 1.268-.186a3.7 3.7 0 0 0 .964-.472c.271-.19.495-.402.672-.633s.309-.455.393-.671v-2.062l-.723-.037-.723-.012a13.29 13.29 0 0 0-1.534.087c-.499.058-.938.166-1.319.323s-.685.373-.913.646-.342.617-.342 1.031c0 .58.211 1.056.634 1.428s.964.559 1.623.559zm17.323 1.54v-7.079c0-1.292-.19-2.264-.571-2.918s-1.078-.981-2.092-.981c-.896 0-1.636.236-2.219.708a3.77 3.77 0 0 0-1.23 1.776v8.495h-2.029V32.315h1.42l.38 1.515h.101c.406-.53.951-.965 1.636-1.304s1.501-.509 2.448-.509c.693 0 1.302.079 1.826.236a2.74 2.74 0 0 1 1.306.832c.347.397.609.931.786 1.602s.266 1.519.266 2.546v7.501h-2.029zm15.471-4.272l.025 2.298a11.51 11.51 0 0 0 .228 2.024h-1.37l-.507-1.763h-.101c-.338.58-.829 1.06-1.471 1.441s-1.395.571-2.257.571c-1.691 0-2.946-.522-3.766-1.565s-1.23-2.674-1.23-4.893c0-2.12.511-3.73 1.534-4.831s2.431-1.652 4.223-1.652c.626 0 1.12.033 1.484.099s.757.174 1.179.323v-5.166h2.029v13.114zm-5.123 2.832c.862 0 1.547-.219 2.054-.658s.854-1.105 1.04-1.999v-6.16c-.304-.232-.651-.397-1.04-.497s-.905-.149-1.547-.149c-1.167 0-2.08.377-2.739 1.13s-.989 1.958-.989 3.614a10.14 10.14 0 0 0 .165 1.888c.11.58.292 1.076.545 1.49s.588.741 1.002.981.917.36 1.509.36zm18.287.447c-.507.397-1.146.712-1.915.944a8.44 8.44 0 0 1-2.448.348c-.964 0-1.801-.153-2.511-.46s-1.294-.745-1.75-1.316-.795-1.254-1.015-2.049-.33-1.689-.33-2.683c0-2.12.482-3.734 1.446-4.843s2.342-1.664 4.134-1.664c.575 0 1.15.062 1.725.186a3.87 3.87 0 0 1 1.547.708c.457.348.829.84 1.116 1.478s.431 1.478.431 2.521a12.06 12.06 0 0 1-.152 1.813h-8.142c0 .729.076 1.374.228 1.937s.389 1.039.71 1.428.74.687 1.255.894 1.146.31 1.89.31a5.25 5.25 0 0 0 1.725-.298c.575-.199 1.006-.431 1.294-.695l.761 1.441zm-4.362-9.985c-.998 0-1.797.257-2.397.77s-.96 1.391-1.078 2.633h6.29c0-1.258-.245-2.14-.736-2.645s-1.184-.758-2.08-.758zm16.131 10.978v-7.079c0-1.292-.19-2.264-.571-2.918s-1.078-.981-2.092-.981c-.896 0-1.636.236-2.219.708a3.77 3.77 0 0 0-1.23 1.776v8.495h-2.029V32.315h1.42l.38 1.515h.101c.406-.53.951-.965 1.636-1.304s1.501-.509 2.448-.509c.693 0 1.302.079 1.826.236a2.74 2.74 0 0 1 1.306.832c.347.397.609.931.786 1.602s.266 1.519.266 2.546v7.501h-2.029zm5.732-17.387h2.029v6.185h.101a3.9 3.9 0 0 1 1.484-1.118c.6-.265 1.255-.397 1.966-.397 1.64 0 2.87.513 3.69 1.54s1.23 2.616 1.23 4.769c0 2.169-.541 3.817-1.623 4.943s-2.604 1.689-4.565 1.689c-.947 0-1.805-.099-2.574-.298s-1.348-.414-1.737-.646V27.348zm5.225 6.408c-.845 0-1.53.232-2.054.695s-.905 1.118-1.141 1.962v6.259c.321.182.71.319 1.167.41s.93.137 1.42.137c1.15 0 2.067-.397 2.752-1.192s1.027-2.037 1.027-3.726c0-.646-.059-1.25-.178-1.813s-.304-1.043-.558-1.441a2.85 2.85 0 0 0-.976-.944c-.397-.232-.883-.348-1.458-.348zm10.297-1.441v7.079c0 .646.038 1.213.114 1.701s.207.894.393 1.217.44.567.761.733.727.248 1.217.248c.457 0 .862-.07 1.217-.211a3.18 3.18 0 0 0 .951-.584c.279-.248.524-.534.736-.857a5.15 5.15 0 0 0 .52-1.031v-8.296h2.029v8.892l.063 1.85c.042.638.114 1.196.216 1.677h-1.395l-.507-1.962h-.127c-.389.646-.913 1.184-1.573 1.614s-1.496.646-2.511.646c-.676 0-1.272-.079-1.788-.236a2.74 2.74 0 0 1-1.294-.832c-.347-.397-.609-.931-.786-1.602s-.266-1.519-.266-2.546v-7.501h2.029zm17.83 1.913a4.66 4.66 0 0 0-1.446-.248c-.727 0-1.302.195-1.725.584s-.685.882-.786 1.478v8.693h-2.029V32.315h1.42l.38 1.515h.101c.321-.563.706-.998 1.154-1.304s1.019-.46 1.712-.46c.49 0 1.04.083 1.649.248l-.431 1.913zM363 45.306c0 1.606-.435 2.79-1.306 3.552S359.534 50 357.826 50c-1.015 0-1.83-.062-2.448-.186s-1.146-.286-1.585-.484l.533-1.689 1.294.422c.473.132 1.091.199 1.851.199.71 0 1.289-.062 1.737-.186s.807-.331 1.078-.621.457-.662.558-1.118.152-.998.152-1.627v-1.192h-.101c-.338.48-.769.849-1.294 1.105s-1.209.385-2.054.385c-1.708 0-2.963-.522-3.766-1.565s-1.205-2.666-1.205-4.868c0-2.12.516-3.73 1.547-4.831s2.553-1.652 4.565-1.652c.964 0 1.788.075 2.473.224s1.298.323 1.839.522v12.469zm-5.098-2.037c.862 0 1.539-.211 2.029-.633s.837-1.08 1.04-1.975v-6.359c-.676-.315-1.539-.472-2.587-.472-1.15 0-2.054.381-2.714 1.143s-.989 1.954-.989 3.577c0 .695.059 1.333.178 1.913s.304 1.076.558 1.49.583.737.989.969.905.348 1.496.348z" fill-rule="nonzero"/><path d="M33.958 24l.252.005 4.469 3.091c-.325.531-.997.778-1.594.472-4.213-2.153-8.141.559-8.125 5.519.003.841-.75 1.463-1.538 1.269-7.619-1.869-11.522 4.888-7.163 9.569 1.566 1.678 3.013 1.963 7.534 1.872h0l28.091-.022 1.919-.003c1.797 0 3.45-.616 4.809-1.634h0L65 46.615c-1.856 1.456-4.134 2.347-6.625 2.347l-.623.009h-.595l-.82-.006h0l-29 .019c-5.378.109-7.409-.288-9.706-2.753-6.034-6.475-1.038-15.95 8.378-14.678.625-4.688 4.075-7.7 8.2-7.547zm19.232-13l8.61 10.931 4.962-.659 2.676 1.734v1.68l-.937-.957h-1.739l-1.32 1.174L78 31.832V43l-6.53-7.875-14.453-6.896-5.494 3.821-7.761-2.003 2.448-2.016 9.269-1.376-5.583-9.386L40 11h13.189z"/></svg>