<svg xmlns="http://www.w3.org/2000/svg" width="239" height="60" fill-rule="evenodd" fill="#e4032e" xmlns:v="https://vecta.io/nano"><path d="M92.998 25.559a1.19 1.19 0 0 0-.421-.945c-.28-.242-.633-.463-1.056-.663l-1.379-.618a7.02 7.02 0 0 1-1.379-.781c-.424-.309-.776-.694-1.056-1.154s-.421-1.048-.421-1.763c0-.618.101-1.154.304-1.608a3.01 3.01 0 0 1 .868-1.136 3.71 3.71 0 0 1 1.334-.672c.513-.145 1.086-.218 1.719-.218.728 0 1.414.064 2.059.191s1.176.312 1.593.554l-.77 2.09c-.263-.17-.656-.324-1.182-.463s-1.092-.209-1.701-.209c-.573 0-1.012.115-1.316.345a1.1 1.1 0 0 0-.457.927 1.15 1.15 0 0 0 .421.909c.28.242.633.466 1.056.672l1.379.636c.495.218.955.482 1.379.79s.776.691 1.056 1.145.421 1.021.421 1.699-.11 1.263-.331 1.754-.531.9-.931 1.227-.883.569-1.45.727-1.191.236-1.871.236c-.895 0-1.683-.085-2.363-.254s-1.182-.339-1.504-.509l.788-2.126c.131.073.301.151.51.236a6.49 6.49 0 0 0 .707.236 8.06 8.06 0 0 0 .833.182c.292.048.594.073.904.073.728 0 1.286-.124 1.674-.373s.582-.627.582-1.136zm10.814 2.853c-.358.267-.791.469-1.298.609a5.89 5.89 0 0 1-1.567.209c-.716 0-1.322-.115-1.817-.345s-.898-.554-1.209-.972-.534-.924-.671-1.517-.206-1.248-.206-1.963c0-1.539.34-2.723 1.021-3.553s1.671-1.245 2.972-1.245c.656 0 1.185.055 1.584.164a5.33 5.33 0 0 1 1.083.418l-.555 1.926a4.65 4.65 0 0 0-.815-.309 3.54 3.54 0 0 0-.922-.109c-.645 0-1.134.215-1.468.645s-.501 1.118-.501 2.063c0 .388.042.745.125 1.072a2.64 2.64 0 0 0 .376.854 1.77 1.77 0 0 0 .653.572c.269.139.582.209.94.209.394 0 .728-.051 1.003-.154s.519-.227.734-.373l.537 1.799zm7.341.563v-5.161c0-.739-.101-1.272-.304-1.599s-.573-.491-1.11-.491c-.394 0-.755.136-1.083.409s-.546.621-.653 1.045v5.797h-2.327V16.254h2.327v4.652h.072a3.25 3.25 0 0 1 1.056-.927c.418-.23.949-.345 1.593-.345.454 0 .853.061 1.2.182a1.95 1.95 0 0 1 .868.6c.233.279.406.657.519 1.136s.17 1.069.17 1.772v5.652h-2.327zm6.965-9.086v5.161c0 .739.087 1.272.26 1.599s.51.491 1.012.491c.442 0 .809-.133 1.101-.4s.51-.594.653-.981v-5.87h2.327v6.324l.072 1.463c.048.479.119.912.215 1.299h-1.755l-.412-1.345h-.072a3.37 3.37 0 0 1-1.146 1.145c-.489.303-1.068.454-1.737.454-.454 0-.859-.061-1.217-.182a2 2 0 0 1-.895-.6c-.239-.279-.421-.654-.546-1.127s-.188-1.066-.188-1.781v-5.652h2.327zm10.241 6.033c0 .424.054.733.161.927s.28.291.519.291c.143 0 .283-.012.421-.036s.307-.079.51-.164l.251 1.854c-.191.097-.483.194-.877.291s-.8.145-1.217.145c-.68 0-1.2-.161-1.558-.482s-.537-.851-.537-1.59V16.254h2.327v9.668zm3.258-3.217h4.494v2.09h-4.494v-2.09zm15.487 5.742c-.382.279-.868.479-1.459.6s-1.197.182-1.817.182c-.752 0-1.465-.118-2.14-.354s-1.268-.618-1.781-1.145-.922-1.211-1.226-2.053-.457-1.863-.457-3.062c0-1.248.17-2.293.51-3.135s.782-1.52 1.325-2.035 1.149-.884 1.817-1.109S143.212 16 143.88 16c.716 0 1.322.048 1.817.145s.904.212 1.226.345l-.483 2.108a3.51 3.51 0 0 0-.976-.291c-.376-.061-.833-.091-1.37-.091-.991 0-1.787.357-2.39 1.072s-.904 1.823-.904 3.326c0 .654.072 1.251.215 1.79a3.88 3.88 0 0 0 .653 1.381c.292.382.656.678 1.092.89s.94.318 1.513.318c.537 0 .991-.055 1.361-.164s.692-.248.967-.418l.501 2.035zm4.315-2.526c0 .424.054.733.161.927s.28.291.519.291c.143 0 .283-.012.421-.036s.307-.079.51-.164l.251 1.854c-.191.097-.483.194-.877.291s-.8.145-1.217.145c-.68 0-1.2-.161-1.558-.482s-.537-.851-.537-1.59V16.254h2.327v9.668zm2.883-1.49c0-1.539.37-2.723 1.11-3.553s1.778-1.245 3.115-1.245c.716 0 1.337.115 1.862.345s.961.554 1.307.972.606.924.779 1.517.26 1.248.26 1.963c0 1.539-.367 2.723-1.101 3.553s-1.769 1.245-3.106 1.245c-.716 0-1.337-.115-1.862-.345a3.56 3.56 0 0 1-1.316-.972c-.352-.418-.615-.924-.788-1.517s-.26-1.248-.26-1.963zm2.399 0a5.37 5.37 0 0 0 .107 1.109 3.12 3.12 0 0 0 .322.89c.143.254.331.451.564.591s.51.209.833.209c.609 0 1.062-.224 1.361-.672s.448-1.157.448-2.126c0-.836-.137-1.511-.412-2.026s-.74-.772-1.396-.772c-.573 0-1.021.218-1.343.654s-.483 1.151-.483 2.144zm10.33-4.543v5.161c0 .739.087 1.272.26 1.599s.51.491 1.012.491c.442 0 .809-.133 1.101-.4s.51-.594.653-.981v-5.87h2.327v6.324l.072 1.463c.048.479.119.912.215 1.299h-1.755l-.412-1.345h-.072a3.37 3.37 0 0 1-1.146 1.145c-.489.303-1.068.454-1.737.454-.454 0-.859-.061-1.217-.182a2 2 0 0 1-.895-.6c-.239-.279-.421-.654-.546-1.127s-.188-1.066-.188-1.781v-5.652h2.327zm15.451 5.888l.018 1.526a13.17 13.17 0 0 0 .161 1.69h-1.665l-.322-1.181h-.072c-.239.424-.582.766-1.029 1.027s-.976.391-1.584.391c-1.122 0-1.993-.376-2.614-1.127s-.931-1.926-.931-3.525c0-1.551.346-2.756 1.038-3.616s1.707-1.29 3.044-1.29a5.38 5.38 0 0 1 .913.064c.239.042.477.112.716.209v-3.689h2.327v9.522zm-3.957 1.454c.454 0 .812-.112 1.074-.336s.448-.548.555-.972V22.07a1.77 1.77 0 0 0-.555-.3c-.203-.067-.465-.1-.788-.1-.656 0-1.149.224-1.477.672s-.492 1.218-.492 2.308c0 .775.134 1.399.403 1.872s.695.709 1.28.709zm-82.93 10.104c0 .303-.048.612-.143.927a3.09 3.09 0 0 1-.43.881c-.191.273-.436.512-.734.718s-.651.363-1.056.472v.073c.358.061.701.164 1.029.309a2.8 2.8 0 0 1 .868.6c.251.254.454.563.609.927s.233.794.233 1.29c0 .654-.134 1.221-.403 1.699s-.621.869-1.056 1.172-.934.527-1.495.672-1.134.218-1.719.218h-.716c-.275 0-.561-.009-.859-.027l-.895-.073c-.298-.03-.561-.076-.788-.136V34.536l1.54-.182 1.916-.073c.466 0 .94.039 1.423.118s.922.23 1.316.454.719.536.976.936.385.915.385 1.545zm-4.154 8.65c.382 0 .752-.045 1.11-.136s.674-.236.949-.436a2.25 2.25 0 0 0 .653-.736c.161-.291.242-.636.242-1.036 0-.497-.098-.897-.295-1.199s-.454-.539-.77-.709-.671-.285-1.065-.345-.788-.091-1.182-.091h-1.558v4.561c.084.024.203.042.358.055l.501.036.555.027.501.009zm-.985-5.961l.734-.018.716-.055a4.86 4.86 0 0 0 .806-.354c.251-.139.474-.303.671-.491a2.1 2.1 0 0 0 .465-.654c.113-.248.17-.518.17-.809 0-.4-.075-.73-.224-.99s-.349-.469-.6-.627-.537-.27-.859-.336a4.85 4.85 0 0 0-.985-.1l-1.083.027c-.328.018-.576.045-.743.082v4.325h.931zm12.031-.563c-.358-.121-.698-.182-1.021-.182-.513 0-.919.142-1.217.427s-.483.645-.555 1.081v6.36h-1.432v-9.086h1.003l.269 1.109h.072c.227-.412.498-.73.815-.954s.719-.336 1.209-.336c.346 0 .734.061 1.164.182l-.304 1.399zm1.629-.727c.454-.279.982-.485 1.584-.618s1.232-.2 1.889-.2c.621 0 1.119.085 1.495.254s.662.391.859.663a2.29 2.29 0 0 1 .394.9c.066.327.098.654.098.981l-.054 2.126-.054 1.963.054 1.272a6.1 6.1 0 0 0 .197 1.109h-1.056l-.376-1.272h-.09c-.107.17-.242.336-.403.5s-.355.309-.582.436-.489.233-.788.318-.639.127-1.021.127-.737-.061-1.065-.182a2.48 2.48 0 0 1-.85-.518 2.42 2.42 0 0 1-.564-.809c-.137-.315-.206-.672-.206-1.072 0-.533.107-.978.322-1.336s.516-.642.904-.854.853-.363 1.396-.454 1.143-.136 1.799-.136h.492a3.43 3.43 0 0 1 .492.036l.054-.981c0-.666-.131-1.133-.394-1.399s-.74-.4-1.432-.4a5.08 5.08 0 0 0-.653.045l-.716.127a5.89 5.89 0 0 0-.698.2c-.221.079-.415.167-.582.263l-.448-1.09zm2.542 7.287a2.73 2.73 0 0 0 .895-.136c.263-.091.489-.206.68-.345a2.18 2.18 0 0 0 .474-.463c.125-.17.218-.333.278-.491v-1.508l-.51-.027-.51-.009c-.37 0-.731.021-1.083.064s-.662.121-.931.236-.483.273-.645.472-.242.451-.242.754a1.35 1.35 0 0 0 .448 1.045c.298.273.68.409 1.146.409zm12.139 1.127v-5.179c0-.945-.134-1.657-.403-2.135s-.761-.718-1.477-.718c-.633 0-1.155.173-1.567.518a2.76 2.76 0 0 0-.868 1.299v6.215h-1.432v-9.086h1.003l.269 1.109h.072c.286-.388.671-.706 1.155-.954s1.059-.373 1.728-.373c.489 0 .919.058 1.289.173s.677.318.922.609.43.681.555 1.172.188 1.112.188 1.863v5.488h-1.432zm10.832-3.126l.018 1.681c.012.503.066.996.161 1.481h-.967l-.358-1.29h-.072c-.239.424-.585.775-1.038 1.054s-.985.418-1.593.418c-1.194 0-2.08-.382-2.659-1.145s-.868-1.957-.868-3.58c0-1.551.361-2.729 1.083-3.535s1.716-1.208 2.981-1.208c.442 0 .791.024 1.047.073s.534.127.833.236v-3.78h1.432v9.595zm-3.617 2.072c.609 0 1.092-.161 1.45-.482s.603-.809.734-1.463v-4.507c-.215-.17-.46-.291-.734-.363s-.639-.109-1.092-.109c-.824 0-1.468.276-1.934.827s-.698 1.433-.698 2.644c0 .497.039.957.116 1.381s.206.787.385 1.09a2.02 2.02 0 0 0 .707.718c.292.176.648.263 1.065.263zm12.819.327c-.358.291-.809.521-1.352.691s-1.119.254-1.728.254c-.68 0-1.271-.112-1.772-.336a3.16 3.16 0 0 1-1.235-.963c-.322-.418-.561-.918-.716-1.499s-.233-1.236-.233-1.963c0-1.551.34-2.732 1.021-3.544s1.653-1.218 2.918-1.218c.406 0 .812.045 1.217.136s.77.263 1.092.518.585.615.788 1.081.304 1.081.304 1.844c0 .4-.036.842-.107 1.327h-5.747c0 .533.054 1.006.161 1.417s.275.76.501 1.045.522.503.886.654.809.227 1.334.227a3.59 3.59 0 0 0 1.217-.218c.406-.145.71-.315.913-.509l.537 1.054zm-3.079-7.305c-.704 0-1.268.188-1.692.563s-.677 1.018-.761 1.926h4.44c0-.921-.173-1.566-.519-1.935s-.836-.554-1.468-.554zm11.297 8.032v-5.179c0-.945-.134-1.657-.403-2.135s-.761-.718-1.477-.718c-.633 0-1.155.173-1.567.518a2.76 2.76 0 0 0-.868 1.299v6.215h-1.432v-9.086h1.003l.269 1.109h.072c.286-.388.671-.706 1.155-.954s1.059-.373 1.728-.373c.489 0 .919.058 1.289.173s.677.318.922.609.43.681.555 1.172.188 1.112.188 1.863v5.488h-1.432zm3.957-12.721h1.432v4.525h.072c.275-.351.624-.624 1.047-.818s.886-.291 1.388-.291c1.158 0 2.026.376 2.605 1.127s.868 1.914.868 3.489c0 1.587-.382 2.792-1.146 3.616s-1.838 1.236-3.223 1.236c-.668 0-1.274-.073-1.817-.218s-.952-.303-1.226-.472V34.427zm3.688 4.688c-.597 0-1.08.17-1.45.509s-.639.818-.806 1.436v4.579c.227.133.501.233.824.3a4.94 4.94 0 0 0 1.003.1c.812 0 1.459-.291 1.943-.872s.725-1.49.725-2.726a6.67 6.67 0 0 0-.125-1.327c-.084-.412-.215-.763-.394-1.054s-.409-.521-.689-.691-.624-.254-1.029-.254zm7.179-1.054v5.179c0 .472.027.887.081 1.245s.146.654.278.89.31.415.537.536.513.182.859.182c.322 0 .609-.051.859-.154s.474-.245.671-.427a3.1 3.1 0 0 0 .519-.627 3.82 3.82 0 0 0 .367-.754v-6.07h1.432v6.506l.045 1.354c.03.466.081.875.152 1.227h-.985l-.358-1.436h-.09a3.59 3.59 0 0 1-1.11 1.181c-.466.315-1.056.472-1.772.472-.477 0-.898-.058-1.262-.173a1.93 1.93 0 0 1-.913-.609c-.245-.291-.43-.681-.555-1.172s-.188-1.112-.188-1.863v-5.488h1.432zm12.497 1.399c-.358-.121-.698-.182-1.021-.182-.513 0-.919.142-1.217.427s-.483.645-.555 1.081v6.36h-1.432v-9.086h1.003l.269 1.109h.072c.227-.412.498-.73.815-.954s.719-.336 1.209-.336c.346 0 .734.061 1.164.182l-.304 1.399zm8.63 8.105c0 1.175-.307 2.041-.922 2.599s-1.525.836-2.73.836c-.716 0-1.292-.045-1.728-.136s-.809-.209-1.119-.354l.376-1.236a10.11 10.11 0 0 0 .913.309c.334.097.77.145 1.307.145.501 0 .91-.045 1.226-.136s.57-.242.761-.454.322-.485.394-.818.107-.73.107-1.19v-.872h-.072c-.239.351-.543.621-.913.809s-.853.282-1.45.282c-1.206 0-2.092-.382-2.659-1.145s-.85-1.95-.85-3.562c0-1.551.364-2.729 1.092-3.535s1.802-1.208 3.223-1.208c.68 0 1.262.055 1.746.164a9.6 9.6 0 0 1 1.298.382v9.123zm-3.599-1.49c.609 0 1.086-.154 1.432-.463s.591-.79.734-1.445v-4.652c-.477-.23-1.086-.345-1.826-.345-.812 0-1.45.279-1.916.836s-.698 1.43-.698 2.617c0 .509.042.975.125 1.399s.215.787.394 1.09a1.97 1.97 0 0 0 .698.709c.286.17.639.254 1.056.254z" fill-rule="nonzero"/><path d="M29.258 24l.256.006 5.005 3.462c-.364.595-1.117.872-1.785.529-4.718-2.412-9.118.627-9.1 6.181.003.942-.84 1.638-1.722 1.421-8.533-2.093-12.905 5.474-8.022 10.717 1.754 1.88 3.374 2.198 8.439 2.097h0l31.462-.025.863.007h.627l.659-.01c2.013 0 3.864-.69 5.387-1.831h0L64 49.329c-2.079 1.631-4.631 2.629-7.42 2.629l-.848.011h-.331l-1.103-.007h0l-32.48.021c-6.024.123-8.299-.322-10.871-3.084-6.759-7.252-1.162-17.864 9.384-16.44.7-5.25 4.564-8.624 9.184-8.453zm21.319-14l9.517 11.956 5.485-.721 2.957 1.897v1.837L67.5 23.923h-1.921l-1.46 1.285L78 32.785V45l-7.217-8.614-15.974-7.542-6.072 4.179-8.578-2.191 2.706-2.205 10.244-1.505-6.17-10.265L36 10h14.578z"/></svg>