<?xml version="1.0" encoding="UTF-8"?>
<svg width="48px" height="48px" viewBox="0 0 48 48" version="1.1" xmlns="http://www.w3.org/2000/svg" xmlns:xlink="http://www.w3.org/1999/xlink">
    <!-- Generator: Sketch 54.1 (76490) - https://sketchapp.com -->
    <title>web_Logo_BRB-SC_Bildmarke_mono_48x48</title>
    <desc>Created with Sketch.</desc>
    <g id="web_Logo_BRB-SC_Bildmarke_mono_48x48" stroke="none" stroke-width="1" fill="none" fill-rule="evenodd">
        <g id="Logo">
            <polygon id="BG" points="0 48 48 48 48 0 0 0"></polygon>
            <path d="M12.1874,33.95 L30.1654,33.936 C30.8014,33.942 31.0614,33.942 31.3934,33.934 C32.5434,33.934 33.6014,33.54 34.4714,32.888 L35.9994,34.474 C34.8114,35.406 33.3534,35.976 31.7594,35.976 C31.4094,35.984 31.1314,35.984 30.4554,35.978 L11.8954,35.99 C8.4534,36.06 7.1534,35.806 5.6834,34.228 C1.8214,30.084 5.0194,24.02 11.0454,24.834 C11.4454,21.834 13.6534,19.906 16.2934,20.004 L19.1534,21.982 C18.9454,22.322 18.5154,22.48 18.1334,22.284 C15.4374,20.906 12.9234,22.642 12.9334,25.816 C12.9354,26.354 12.4534,26.752 11.9494,26.628 C7.0734,25.432 4.5754,29.756 7.3654,32.752 C8.3674,33.826 9.2934,34.008 12.1874,33.95 Z M20,11.9998 L28.33,11.9998 L33.768,18.8318 L36.902,18.4198 L38.592,19.5038 L38.592,20.5538 L38,19.9558 L36.902,19.9558 L36.068,20.6898 L44,25.0198 L44,31.9998 L39.876,27.0778 L30.748,22.7678 L27.278,25.1558 L22.376,23.9038 L23.922,22.6438 L29.776,21.7838 L26.25,15.9178 L20,11.9998 Z" id="Combined-Shape" fill="#FFFFFF"></path>
        </g>
    </g>
</svg>