<?xml version="1.0" encoding="UTF-8"?>
<svg width="239px" height="60px" viewBox="0 0 239 60" version="1.1" xmlns="http://www.w3.org/2000/svg" xmlns:xlink="http://www.w3.org/1999/xlink">
    <title>TH-239x60 Copy 3</title>
    <g id="TH-239x60-Copy-3" stroke="none" stroke-width="1" fill="none" fill-rule="evenodd">
        <g id="Schul-CloudBrandenburg-2" transform="translate(90.540000, 17.720000)" fill="#E4032E" fill-rule="nonzero">
            <path d="M6.45776203,9.83867082 C6.45776203,9.45099148 6.31751725,9.13600675 6.0370235,8.89370717 C5.75652974,8.65140758 5.40442584,8.43031253 4.98070123,8.23041537 C4.55697662,8.03051821 4.09745119,7.82456665 3.60211115,7.61255452 C3.10677112,7.40054238 2.64724568,7.14007423 2.22352107,6.83114226 C1.79979646,6.52221029 1.44769256,6.13756547 1.16719881,5.67719626 C0.88670505,5.21682705 0.746460276,4.62925937 0.746460276,3.9144756 C0.746460276,3.29661166 0.847913943,2.76053187 1.05082432,2.30622015 C1.2537347,1.85190842 1.54317604,1.473321 1.91915703,1.17044652 C2.29513802,0.86757204 2.7397438,0.643448287 3.25298769,0.498068536 C3.76623159,0.352688785 4.33914641,0.28 4.97174935,0.28 C5.69983952,0.28 6.38614374,0.343602687 7.03068258,0.470809969 C7.67522142,0.598017251 8.20636121,0.782767913 8.62411787,1.0250675 L7.85425587,3.11489097 C7.59166598,2.94528126 7.19778703,2.79081759 6.67260724,2.65149533 C6.14742744,2.51217307 5.58048048,2.44251298 4.97174935,2.44251298 C4.39882593,2.44251298 3.96018802,2.55760356 3.65582245,2.78778816 C3.35145689,3.01797277 3.19927639,3.3269001 3.19927639,3.71457944 C3.19927639,4.07802882 3.33952116,4.38089875 3.62001492,4.62319834 C3.90050868,4.86549792 4.25261258,5.08962168 4.67633719,5.29557632 C5.1000618,5.50153097 5.55958723,5.71353993 6.05492727,5.93160955 C6.5502673,6.14967918 7.00979273,6.41317603 7.43351734,6.722108 C7.85724195,7.03103997 8.20934586,7.41265609 8.48983961,7.86696781 C8.77033337,8.32127953 8.91057814,8.88764631 8.91057814,9.56608515 C8.91057814,10.244524 8.80017268,10.829063 8.57935845,11.3197196 C8.35854421,11.8103763 8.04821535,12.2192507 7.64836255,12.5463551 C7.24850975,12.8734596 6.76511287,13.1157555 6.1981574,13.2732503 C5.63120194,13.430745 5.00756028,13.5094912 4.32721373,13.5094912 C3.43202089,13.5094912 2.64426301,13.4246876 1.96391645,13.2550779 C1.28356989,13.0854682 0.782269422,12.915861 0.46,12.7462513 L1.24776576,10.6200831 C1.37906071,10.6927729 1.5491448,10.7715191 1.75802313,10.856324 C1.96690145,10.9411288 2.20263203,11.019875 2.46522193,11.0925649 C2.72781183,11.1652548 3.00531745,11.2258288 3.29774711,11.2742887 C3.59017677,11.3227486 3.89155384,11.3469782 4.20188736,11.3469782 C4.92997753,11.3469782 5.4879727,11.2228015 5.87588959,10.9744444 C6.26380649,10.7260874 6.45776203,10.3474999 6.45776203,9.83867082 Z M17.2716374,12.6917342 C16.9135603,12.9582637 16.4808903,13.1611866 15.9736143,13.3005088 C15.4663384,13.4398311 14.9441504,13.5094912 14.4070347,13.5094912 C13.6908804,13.5094912 13.0851423,13.3944006 12.5898023,13.164216 C12.0944623,12.9340314 11.6916315,12.6099606 11.381298,12.1919938 C11.0709645,11.774027 10.8471697,11.2682342 10.7099068,10.6746002 C10.5726438,10.0809662 10.5040134,9.42676716 10.5040134,8.71198339 C10.5040134,7.17338102 10.8441816,5.98915957 11.5245282,5.15928349 C12.2048747,4.32940741 13.1955399,3.9144756 14.4965535,3.9144756 C15.1530283,3.9144756 15.6811841,3.96899219 16.0810369,4.078027 C16.4808897,4.18706181 16.8419454,4.32638198 17.1642148,4.49599169 L16.6091981,6.42226376 C16.3346723,6.28899899 16.0631345,6.18602321 15.7945767,6.11333333 C15.5260188,6.04064346 15.2186739,6.00429907 14.8725326,6.00429907 C14.2279938,6.00429907 13.738629,6.21933672 13.4044237,6.64941848 C13.0702184,7.07950025 12.9031182,7.76701501 12.9031182,8.71198339 C12.9031182,9.09966272 12.9448933,9.45704925 13.0284446,9.78415369 C13.1119959,10.1112581 13.2373211,10.3959559 13.4044237,10.6382555 C13.5715264,10.880555 13.7893534,11.0713631 14.0579112,11.2106854 C14.3264691,11.3500076 14.6397819,11.4196677 14.997859,11.4196677 C15.3917439,11.4196677 15.7259442,11.3681798 16.00047,11.2652025 C16.2749958,11.1622252 16.5196781,11.0380485 16.7345244,10.8926687 L17.2716374,12.6917342 Z M24.612182,13.2550779 L24.612182,8.09412253 C24.612182,7.3551088 24.5107284,6.82205771 24.307818,6.49495327 C24.1049076,6.16784883 23.7349001,6.00429907 23.1977844,6.00429907 C22.8038996,6.00429907 22.4428439,6.14059054 22.1146065,6.41317757 C21.7863691,6.6857646 21.5685421,7.03406503 21.461119,7.4580893 L21.461119,13.2550779 L19.1336292,13.2550779 L19.1336292,0.534413292 L21.461119,0.534413292 L21.461119,5.18654206 L21.5327341,5.18654206 C21.8191958,4.79886272 22.1712997,4.48993538 22.5890563,4.25975078 C23.006813,4.02956617 23.5379528,3.9144756 24.1824916,3.9144756 C24.636056,3.9144756 25.0359028,3.97504958 25.382044,4.09619938 C25.7281852,4.21734917 26.0176266,4.41724333 26.2503767,4.69588785 C26.4831269,4.97453237 26.6561949,5.35311979 26.769586,5.83166147 C26.8829771,6.31020315 26.9396718,6.90079953 26.9396718,7.60346833 L26.9396718,13.2550779 L24.612182,13.2550779 Z M31.5767475,4.16888889 L31.5767475,9.32984424 C31.5767475,10.068858 31.6632815,10.6019091 31.8363521,10.9290135 C32.0094227,11.2561179 32.346607,11.4196677 32.847915,11.4196677 C33.2895434,11.4196677 33.656567,11.2864049 33.9489966,11.0198754 C34.2414263,10.7533458 34.4592533,10.4262463 34.6024841,10.038567 L34.6024841,4.16888889 L36.9299739,4.16888889 L36.9299739,10.4928764 C36.9299739,10.9895906 36.9538453,11.4772112 37.001589,11.9557529 C37.0493326,12.4342945 37.1209469,12.8673985 37.2164342,13.2550779 L35.461865,13.2550779 L35.0500783,11.9103219 L34.9784633,11.9103219 C34.7039375,12.3706911 34.3219942,12.7523072 33.8326222,13.0551817 C33.3432501,13.3580562 32.7643674,13.5094912 32.0959567,13.5094912 C31.6423924,13.5094912 31.2365777,13.4489172 30.8785006,13.3277674 C30.5204234,13.2066176 30.2220303,13.0067234 29.9833122,12.7280789 C29.7445941,12.4494344 29.5625743,12.0738757 29.4372473,11.6013915 C29.3119203,11.1289073 29.2492577,10.5352822 29.2492577,9.82049844 L29.2492577,4.16888889 L31.5767475,4.16888889 Z M41.8177023,10.2021184 C41.8177023,10.6261427 41.8714131,10.93507 41.9788363,11.1289097 C42.0862594,11.3227493 42.2593274,11.4196677 42.4980455,11.4196677 C42.6412764,11.4196677 42.7815211,11.4075529 42.918784,11.3833229 C43.0560469,11.359093 43.226131,11.3045764 43.4290414,11.2197715 L43.6796941,13.0733541 C43.4887197,13.1702739 43.1962944,13.2671923 42.8024095,13.3641121 C42.4085247,13.461032 42.00271,13.5094912 41.5849534,13.5094912 C40.9046068,13.5094912 40.3854028,13.3489701 40.0273256,13.0279232 C39.6692485,12.7068762 39.4902126,12.1768538 39.4902126,11.4378401 L39.4902126,0.534413292 L41.8177023,0.534413292 L41.8177023,10.2021184 Z M45.076188,6.98560748 L49.5700336,6.98560748 L49.5700336,9.07543094 L45.076188,9.07543094 L45.076188,6.98560748 Z M60.5629467,12.7280789 C60.1809977,13.0067234 59.6946169,13.2066176 59.1037896,13.3277674 C58.5129624,13.4489172 57.9072243,13.5094912 57.2865573,13.5094912 C56.5345953,13.5094912 55.8214357,13.3913719 55.1470571,13.1551298 C54.4726785,12.9188877 53.8788761,12.5372716 53.3656322,12.01027 C52.8523883,11.4832684 52.4435897,10.7987823 52.1392242,9.95679128 C51.8348586,9.11480022 51.6826781,8.09412853 51.6826781,6.89474559 C51.6826781,5.64690273 51.8527622,4.60200144 52.1929355,3.76001038 C52.5331088,2.91801933 52.9747306,2.23959067 53.5178142,1.72470405 C54.0608979,1.20981743 54.666636,0.840316109 55.3350466,0.616188993 C56.0034573,0.392061877 56.6718579,0.28 57.3402686,0.28 C58.0564228,0.28 58.6621609,0.32845919 59.1575009,0.425379024 C59.652841,0.522298858 60.0616396,0.637389434 60.383909,0.770654206 L59.9005073,2.87865005 C59.6259815,2.74538528 59.300733,2.6484669 58.924752,2.587892 C58.548771,2.52731711 58.0922295,2.49703011 57.5551138,2.49703011 C56.5644337,2.49703011 55.767724,2.85441664 55.1649608,3.56920042 C54.5621977,4.28398419 54.2608206,5.39248816 54.2608206,6.89474559 C54.2608206,7.54895447 54.3324349,8.14560824 54.4756658,8.68472482 C54.6188967,9.22384139 54.8367236,9.6842037 55.1291533,10.0658255 C55.421583,10.4474474 55.7856226,10.7442599 56.2212831,10.9562721 C56.6569436,11.1682842 57.161228,11.2742887 57.7341514,11.2742887 C58.2712671,11.2742887 58.7248247,11.2197721 59.0948377,11.1107373 C59.4648508,11.0017025 59.7871154,10.8623823 60.0616412,10.6927726 L60.5629467,12.7280789 Z M64.8777546,10.2021184 C64.8777546,10.6261427 64.9314653,10.93507 65.0388885,11.1289097 C65.1463116,11.3227493 65.3193796,11.4196677 65.5580977,11.4196677 C65.7013286,11.4196677 65.8415734,11.4075529 65.9788363,11.3833229 C66.1160992,11.359093 66.2861832,11.3045764 66.4890936,11.2197715 L66.7397464,13.0733541 C66.5487719,13.1702739 66.2563466,13.2671923 65.8624618,13.3641121 C65.4685769,13.461032 65.0627623,13.5094912 64.6450056,13.5094912 C63.964659,13.5094912 63.445455,13.3489701 63.0873778,13.0279232 C62.7293007,12.7068762 62.5502648,12.1768538 62.5502648,11.4378401 L62.5502648,0.534413292 L64.8777546,0.534413292 L64.8777546,10.2021184 Z M67.7602611,8.71198339 C67.7602611,7.17338102 68.1302686,5.98915957 68.8702947,5.15928349 C69.6103207,4.32940741 70.6487289,3.9144756 71.9855502,3.9144756 C72.7017044,3.9144756 73.3223622,4.02956617 73.847542,4.25975078 C74.3727218,4.48993538 74.8083757,4.81400622 75.154517,5.231973 C75.5006582,5.64993978 75.7602611,6.15573258 75.9333308,6.74936656 C76.1064015,7.34300055 76.1929355,7.99719961 76.1929355,8.71198339 C76.1929355,10.2505857 75.8259119,11.4348072 75.0918538,12.2646833 C74.3577957,13.0945594 73.3223715,13.5094912 71.9855502,13.5094912 C71.2693959,13.5094912 70.6487382,13.3944006 70.1235584,13.164216 C69.5983786,12.9340314 69.1597407,12.6099606 68.8076315,12.1919938 C68.4555223,11.774027 68.1929363,11.2682342 68.0198657,10.6746002 C67.8467951,10.0809662 67.7602611,9.42676716 67.7602611,8.71198339 Z M70.1593659,8.71198339 C70.1593659,9.1117777 70.1951731,9.48127902 70.2667885,9.82049844 C70.3384039,10.1597179 70.4458255,10.4565304 70.5890563,10.710945 C70.7322872,10.9653595 70.9202749,11.162225 71.153025,11.3015472 C71.3857751,11.4408695 71.6632807,11.5105296 71.9855502,11.5105296 C72.5942813,11.5105296 73.0478389,11.2864058 73.3462365,10.8381516 C73.6446341,10.3898974 73.7938307,9.68118172 73.7938307,8.71198339 C73.7938307,7.87604982 73.6565698,7.20064986 73.382044,6.68576324 C73.1075182,6.17087662 72.6420249,5.91343718 71.9855502,5.91343718 C71.4126268,5.91343718 70.965037,6.13150353 70.6427676,6.56764278 C70.3204982,7.00378204 70.1593659,7.71855509 70.1593659,8.71198339 Z M80.4898396,4.16888889 L80.4898396,9.32984424 C80.4898396,10.068858 80.5763736,10.6019091 80.7494442,10.9290135 C80.9225149,11.2561179 81.2596991,11.4196677 81.7610071,11.4196677 C82.2026356,11.4196677 82.5696591,11.2864049 82.8620888,11.0198754 C83.1545184,10.7533458 83.3723454,10.4262463 83.5155763,10.038567 L83.5155763,4.16888889 L85.843066,4.16888889 L85.843066,10.4928764 C85.843066,10.9895906 85.8669375,11.4772112 85.9146811,11.9557529 C85.9624247,12.4342945 86.0340391,12.8673985 86.1295263,13.2550779 L84.3749571,13.2550779 L83.9631705,11.9103219 L83.8915554,11.9103219 C83.6170296,12.3706911 83.2350864,12.7523072 82.7457143,13.0551817 C82.2563422,13.3580562 81.6774595,13.5094912 81.0090489,13.5094912 C80.5554845,13.5094912 80.1496698,13.4489172 79.7915927,13.3277674 C79.4335156,13.2066176 79.1351224,13.0067234 78.8964043,12.7280789 C78.6576862,12.4494344 78.4756664,12.0738757 78.3503394,11.6013915 C78.2250124,11.1289073 78.1623499,10.5352822 78.1623499,9.82049844 L78.1623499,4.16888889 L80.4898396,4.16888889 Z M95.9407907,10.0567394 C95.9407907,10.5655685 95.9467586,11.07439 95.9586945,11.5832191 C95.9706304,12.0920482 96.0243412,12.6553863 96.1198284,13.2732503 L94.4547781,13.2732503 L94.1325103,12.0920457 L94.0608952,12.0920457 C93.8221771,12.51607 93.479025,12.858313 93.0314286,13.118785 C92.5838322,13.3792571 92.0556763,13.5094912 91.4469452,13.5094912 C90.3249701,13.5094912 89.4536622,13.1339325 88.8329952,12.3828037 C88.2123281,11.631675 87.9019993,10.4565397 87.9019993,8.85736241 C87.9019993,7.30664507 88.2481353,6.10122272 88.9404178,5.24105919 C89.6327002,4.38089566 90.6472369,3.95082035 91.9840582,3.95082035 C92.3540712,3.95082035 92.6584322,3.97202125 92.8971503,4.01442368 C93.1358684,4.0568261 93.3745829,4.12648619 93.613301,4.22340602 L93.613301,0.534413292 L95.9407907,0.534413292 L95.9407907,10.0567394 Z M91.9840582,11.5105296 C92.4376226,11.5105296 92.7956943,11.3984677 93.0582842,11.1743406 C93.3208741,10.9502135 93.5058779,10.6261427 93.613301,10.2021184 L93.613301,6.34957425 C93.4461983,6.21630948 93.2611946,6.1163624 93.0582842,6.04973001 C92.8553738,5.98309762 92.5927879,5.94978193 92.2705185,5.94978193 C91.6140437,5.94978193 91.121695,6.17390569 90.7934577,6.62215992 C90.4652203,7.07041415 90.3011041,7.83970379 90.3011041,8.93005192 C90.3011041,9.70541059 90.435381,10.3293227 90.7039388,10.8018069 C90.9724967,11.274291 91.3991989,11.5105296 91.9840582,11.5105296 Z M9.05380828,21.6143718 C9.05380828,21.9172462 9.00606538,22.2261736 8.91057814,22.541163 C8.81509091,22.8561525 8.6718622,23.1499363 8.48088773,23.4225234 C8.28991326,23.6951104 8.04523088,23.9343776 7.74683327,24.1403323 C7.44843566,24.3462869 7.09633176,24.5037793 6.690511,24.6128141 L6.690511,24.6855036 C7.04858814,24.7460785 7.39174025,24.8490543 7.71997762,24.9944341 C8.04821499,25.1398138 8.33765634,25.339708 8.58831033,25.5941225 C8.83896433,25.8485371 9.04187166,26.1574644 9.19703842,26.5209138 C9.35220518,26.8843632 9.42978739,27.3144385 9.42978739,27.8111526 C9.42978739,28.4653615 9.29551048,29.0317283 9.02695263,29.51027 C8.75839478,29.9888117 8.40629088,30.3795139 7.97063036,30.6823884 C7.53496985,30.9852629 7.03665331,31.2093866 6.4756658,31.3547664 C5.91467828,31.5001461 5.34176346,31.5728349 4.75690414,31.5728349 L4.04075345,31.5728349 C3.76622765,31.5728349 3.47977023,31.5637488 3.18137262,31.5455763 C2.88297501,31.5274039 2.58458187,31.5031743 2.28618426,31.4728868 C1.98778665,31.4425994 1.72520069,31.3971689 1.4984185,31.336594 L1.4984185,18.8158255 C1.94004697,18.7431357 2.45328316,18.6825617 3.03814248,18.6341018 C3.62300181,18.5856418 4.26156312,18.5614123 4.95384558,18.5614123 C5.41934586,18.5614123 5.89379094,18.6007853 6.37719508,18.6795327 C6.86059921,18.7582801 7.29923712,18.909715 7.69312197,19.1338422 C8.08700682,19.3579693 8.41225534,19.6699253 8.66887728,20.0697196 C8.92549923,20.4695139 9.05380828,20.9843928 9.05380828,21.6143718 Z M4.90013428,30.2644237 C5.28208322,30.2644237 5.65209071,30.2189932 6.01016785,30.1281308 C6.36824498,30.0372685 6.68454171,29.8918909 6.95906751,29.6919938 C7.23359332,29.4920966 7.45142031,29.246772 7.61255502,28.9560125 C7.77368973,28.665253 7.85425587,28.3199812 7.85425587,27.9201869 C7.85425587,27.4234728 7.75578614,27.0236844 7.55884372,26.72081 C7.36190129,26.4179355 7.10528319,26.1816969 6.78898172,26.0120872 C6.47268025,25.8424775 6.11759242,25.7273869 5.72370757,25.666812 C5.32982272,25.6062371 4.93594378,25.5759502 4.54205893,25.5759502 L2.98443118,25.5759502 L2.98443118,30.137217 C3.06798251,30.161447 3.18733977,30.1796192 3.34250653,30.1917342 C3.49767329,30.2038491 3.66477344,30.2159639 3.84381201,30.2280789 C4.02285058,30.2401939 4.20785432,30.24928 4.3988288,30.2553375 C4.58980327,30.261395 4.75690342,30.2644237 4.90013428,30.2644237 Z M3.91542708,24.3038837 C4.11833746,24.3038837 4.36301983,24.2978263 4.64948154,24.2857113 C4.93594325,24.2735963 5.17465775,24.2554241 5.36563223,24.2311942 C5.65209394,24.1342744 5.92064776,24.0161551 6.17130175,23.8768328 C6.42195575,23.7375106 6.6457506,23.5739608 6.84269302,23.3861786 C7.03963545,23.1983964 7.19479988,22.9803301 7.30819097,22.731973 C7.42158207,22.4836159 7.47827676,22.2140617 7.47827676,21.9233022 C7.47827676,21.5235079 7.40367848,21.1933796 7.25447967,20.9329076 C7.10528087,20.6724355 6.90535746,20.4634553 6.65470347,20.3059605 C6.40404947,20.1484658 6.11759206,20.0364039 5.79532264,19.9697715 C5.47305322,19.9031392 5.14482077,19.8698235 4.81061544,19.8698235 C4.41673059,19.8698235 4.0556749,19.8789096 3.72743752,19.897082 C3.39920015,19.9152545 3.15153385,19.9425128 2.98443118,19.9788577 L2.98443118,24.3038837 L3.91542708,24.3038837 Z M15.9467587,23.74054 C15.5886815,23.6193902 15.2485134,23.5588162 14.9262439,23.5588162 C14.413,23.5588162 14.0071854,23.7011651 13.7087878,23.9858671 C13.4103902,24.2705691 13.2253864,24.6309843 13.153771,25.0671236 L13.153771,31.4274559 L11.7214696,31.4274559 L11.7214696,22.3412669 L12.7240806,22.3412669 L12.9926371,23.4497819 L13.0642521,23.4497819 C13.2910343,23.0378726 13.5625721,22.7198592 13.8788736,22.4957321 C14.195175,22.271605 14.5980058,22.1595431 15.0873778,22.1595431 C15.4335191,22.1595431 15.8214302,22.2201171 16.2511227,22.3412669 L15.9467587,23.74054 Z M17.5760015,23.0136449 C18.0295659,22.7350003 18.5577217,22.5290488 19.1604849,22.395784 C19.7632481,22.2625192 20.3928576,22.1958879 21.0493323,22.1958879 C21.6699994,22.1958879 22.1683159,22.2806914 22.5442969,22.4503011 C22.9202779,22.6199109 23.2067353,22.8410059 23.4036777,23.1135929 C23.6006202,23.38618 23.7319131,23.6860212 23.7975606,24.0131256 C23.8632081,24.3402301 23.8960313,24.6673296 23.8960313,24.9944341 C23.8960313,25.7213328 23.8781277,26.4300485 23.84232,27.1206023 C23.8065123,27.8111561 23.7886087,28.4653552 23.7886087,29.0832191 C23.7886087,29.5314733 23.8065123,29.9554913 23.84232,30.3552856 C23.8781277,30.7550799 23.9437742,31.1245812 24.0392615,31.4638006 L22.9829392,31.4638006 L22.6069601,30.1917342 L22.5174413,30.1917342 C22.4100181,30.3613439 22.2757412,30.5279223 22.1146065,30.6914746 C21.9534718,30.8550268 21.7595162,31.0004043 21.5327341,31.1276116 C21.3059519,31.2548189 21.0433659,31.3608234 20.7449683,31.4456282 C20.4465707,31.5304331 20.1064025,31.5728349 19.7244536,31.5728349 C19.3425046,31.5728349 18.9874168,31.5122609 18.6591794,31.3911111 C18.330942,31.2699613 18.0474686,31.0973255 17.8087505,30.8731983 C17.5700324,30.6490712 17.3820447,30.379517 17.2447818,30.0645275 C17.1075189,29.7495381 17.0388885,29.3921515 17.0388885,28.9923572 C17.0388885,28.4592981 17.14631,28.0140793 17.3611563,27.6566874 C17.5760026,27.2992955 17.8773796,27.0145978 18.2652965,26.8025857 C18.6532134,26.5905735 19.1187067,26.4391386 19.6617904,26.3482762 C20.204874,26.2574139 20.8046442,26.2119834 21.461119,26.2119834 L21.9534726,26.2119834 C22.1146073,26.2119834 22.2787235,26.2240982 22.4458262,26.2483281 C22.4816339,25.8848788 22.4995375,25.5577792 22.4995375,25.2670197 C22.4995375,24.6006959 22.3682445,24.1342762 22.1056546,23.8677466 C21.8430647,23.6012171 21.3656357,23.4679543 20.6733532,23.4679543 C20.4704428,23.4679543 20.2526159,23.4830978 20.0198657,23.5133853 C19.7871156,23.5436727 19.5484011,23.5860745 19.303715,23.6405919 C19.059029,23.6951093 18.8262823,23.7617407 18.6054681,23.8404881 C18.3846539,23.9192354 18.1906983,24.0070677 18.0235957,24.1039875 L17.5760015,23.0136449 Z M20.1183364,30.3007684 C20.4525418,30.3007684 20.7509349,30.2553379 21.0135248,30.1644756 C21.2761147,30.0736133 21.5028935,29.9585227 21.693868,29.8192004 C21.8848424,29.6798782 22.0429908,29.5254145 22.1683178,29.3558048 C22.2936448,29.1861951 22.3861467,29.0226453 22.4458262,28.8651506 L22.4458262,27.3568432 C22.2787235,27.3447282 22.1086394,27.3356421 21.9355688,27.3295846 C21.7624982,27.3235271 21.5924141,27.3204984 21.4253115,27.3204984 C21.0552984,27.3204984 20.6942427,27.3416993 20.3421335,27.3841018 C19.9900243,27.4265042 19.6796955,27.5052504 19.4111376,27.6203427 C19.1425798,27.735435 18.9277367,27.8929273 18.766602,28.0928245 C18.6054673,28.2927217 18.5249012,28.5441037 18.5249012,28.8469782 C18.5249012,29.2710025 18.6740977,29.6193029 18.9724953,29.8918899 C19.270893,30.164477 19.6528362,30.3007684 20.1183364,30.3007684 Z M32.2570906,31.4274559 L32.2570906,26.2483281 C32.2570906,25.3033598 32.1228137,24.5916154 31.8542559,24.1130737 C31.585698,23.634532 31.0933493,23.3952648 30.3771951,23.3952648 C29.7445921,23.3952648 29.2224041,23.5679007 28.8106154,23.9131776 C28.3988267,24.2584545 28.1093854,24.6915585 27.9422827,25.2125026 L27.9422827,31.4274559 L26.5099814,31.4274559 L26.5099814,22.3412669 L27.5125923,22.3412669 L27.7811488,23.4497819 L27.8527639,23.4497819 C28.1392256,23.0621026 28.5241527,22.7440892 29.0075569,22.4957321 C29.490961,22.247375 30.0668598,22.1231983 30.7352704,22.1231983 C31.2246425,22.1231983 31.6543286,22.1807436 32.0243417,22.2958359 C32.3943547,22.4109282 32.7016996,22.6138511 32.9463857,22.9046106 C33.1910717,23.1953701 33.3760755,23.5860723 33.5014025,24.076729 C33.6267295,24.5673856 33.689392,25.188269 33.689392,25.9393977 L33.689392,31.4274559 L32.2570906,31.4274559 Z M43.0888698,28.3018069 C43.0888698,28.9196708 43.0948377,29.4799802 43.1067736,29.9827518 C43.1187095,30.4855235 43.1724203,30.9792015 43.2679075,31.4638006 L42.3011041,31.4638006 L41.9430287,30.1735618 L41.8714137,30.1735618 C41.6326956,30.5975861 41.2865595,30.9489152 40.8329952,31.2275597 C40.3794308,31.5062042 39.848291,31.6455244 39.2395599,31.6455244 C38.0459694,31.6455244 37.1597418,31.2639083 36.5808504,30.5006646 C36.0019591,29.7374209 35.7125177,28.5441133 35.7125177,26.9207061 C35.7125177,25.3699888 36.0735734,24.1918247 36.7956956,23.3861786 C37.5178179,22.5805325 38.511467,22.1777155 39.7766729,22.1777155 C40.2183014,22.1777155 40.5674213,22.2019451 40.8240433,22.250405 C41.0806652,22.2988649 41.3581708,22.3776111 41.6565684,22.4866459 L41.6565684,18.7067913 L43.0888698,18.7067913 L43.0888698,28.3018069 Z M39.4723088,30.3734579 C40.08104,30.3734579 40.5644369,30.2129369 40.922514,29.8918899 C41.2805911,29.570843 41.5252735,29.0832224 41.6565684,28.4290135 L41.6565684,23.9222638 C41.4417222,23.752654 41.1970398,23.6315061 40.922514,23.5588162 C40.6479882,23.4861263 40.2839486,23.4497819 39.8303842,23.4497819 C39.0068068,23.4497819 38.3622776,23.7253936 37.8967773,24.2766251 C37.431277,24.8278567 37.1985304,25.7092082 37.1985304,26.9207061 C37.1985304,27.4174203 37.2373215,27.8777826 37.3149049,28.3018069 C37.3924883,28.7258311 37.5207973,29.0892751 37.6998359,29.3921495 C37.8788744,29.695024 38.114605,29.9342913 38.4070347,30.1099585 C38.6994643,30.2856257 39.0545522,30.3734579 39.4723088,30.3734579 Z M52.2914062,30.7005607 C51.9333291,30.9913202 51.4827554,31.2215014 50.9396718,31.3911111 C50.3965881,31.5607208 49.8206894,31.6455244 49.2119582,31.6455244 C48.5316117,31.6455244 47.9407933,31.5334625 47.4394853,31.3093354 C46.9381773,31.0852083 46.5263947,30.7641662 46.2041253,30.3461994 C45.8818559,29.9282326 45.6431414,29.4284972 45.4879746,28.8469782 C45.3328079,28.2654592 45.2552257,27.6112601 45.2552257,26.8843614 C45.2552257,25.333644 45.5953938,24.1524513 46.2757404,23.3407477 C46.956087,22.5290441 47.9288486,22.1231983 49.1940545,22.1231983 C49.5998752,22.1231983 50.0056899,22.1686288 50.4115106,22.2594912 C50.8173314,22.3503535 51.181371,22.5229894 51.5036404,22.7774039 C51.8259099,23.0318185 52.0884958,23.3922337 52.2914062,23.8586604 C52.4943166,24.3250871 52.5957702,24.9399131 52.5957702,25.7031568 C52.5957702,26.1029511 52.5599631,26.5451412 52.4883476,27.0297404 L46.7412383,27.0297404 C46.7412383,27.5627995 46.7949491,28.0352766 46.9023722,28.4471859 C47.0097954,28.8590952 47.1768955,29.2073956 47.4036777,29.4920976 C47.6304599,29.7767996 47.9258691,29.994866 48.2899142,30.1463032 C48.6539593,30.2977405 49.0985651,30.3734579 49.6237449,30.3734579 C50.0295656,30.3734579 50.4353803,30.3007692 50.841201,30.1553894 C51.2470218,30.0100097 51.5513828,29.8404025 51.7542932,29.6465628 L52.2914062,30.7005607 Z M49.2119582,23.3952648 C48.5077399,23.3952648 47.9437768,23.5830442 47.5200522,23.9586085 C47.0963276,24.3341729 46.8426934,24.9762571 46.7591421,25.8848806 L51.1992764,25.8848806 C51.1992764,24.9641422 51.0262084,24.3190292 50.6800671,23.9495223 C50.3339259,23.5800155 49.8445612,23.3952648 49.2119582,23.3952648 Z M60.5092354,31.4274559 L60.5092354,26.2483281 C60.5092354,25.3033598 60.3749584,24.5916154 60.1064006,24.1130737 C59.8378427,23.634532 59.3454941,23.3952648 58.6293398,23.3952648 C57.9967369,23.3952648 57.4745489,23.5679007 57.0627602,23.9131776 C56.6509715,24.2584545 56.3615301,24.6915585 56.1944275,25.2125026 L56.1944275,31.4274559 L54.7621261,31.4274559 L54.7621261,22.3412669 L55.764737,22.3412669 L56.0332935,23.4497819 L56.1049086,23.4497819 C56.3913703,23.0621026 56.7762975,22.7440892 57.2597016,22.4957321 C57.7431057,22.247375 58.3190045,22.1231983 58.9874151,22.1231983 C59.4767872,22.1231983 59.9064733,22.1807436 60.2764864,22.2958359 C60.6464994,22.4109282 60.9538444,22.6138511 61.1985304,22.9046106 C61.4432164,23.1953701 61.6282202,23.5860723 61.7535472,24.076729 C61.8788742,24.5673856 61.9415367,25.188269 61.9415367,25.9393977 L61.9415367,31.4274559 L60.5092354,31.4274559 Z M64.4659679,18.7067913 L65.8982693,18.7067913 L65.8982693,23.2317134 L65.9698844,23.2317134 C66.2444102,22.880379 66.5935301,22.6077961 67.0172548,22.4139564 C67.4409794,22.2201167 67.9034887,22.1231983 68.4047967,22.1231983 C69.5625795,22.1231983 70.4309035,22.4987571 71.0097949,23.2498858 C71.5886862,24.0010145 71.8781276,25.164035 71.8781276,26.7389823 C71.8781276,28.3260446 71.4961843,29.531467 70.7322865,30.3552856 C69.9683886,31.1791042 68.8941733,31.5910073 67.5096084,31.5910073 C66.8411977,31.5910073 66.2354596,31.5183185 65.692376,31.3729387 C65.1492923,31.227559 64.7404937,31.0700666 64.4659679,30.9004569 L64.4659679,18.7067913 Z M68.154144,23.3952648 C67.5573488,23.3952648 67.0739519,23.564872 66.7039388,23.9040914 C66.3339258,24.2433108 66.065372,24.7218453 65.8982693,25.3397092 L65.8982693,29.9191485 C66.1250515,30.0524133 66.3995732,30.1523603 66.7218426,30.2189927 C67.044112,30.2856251 67.3783123,30.3189408 67.7244536,30.3189408 C68.5360951,30.3189408 69.1836082,30.0281857 69.6670123,29.4466667 C70.1504164,28.8651477 70.3921149,27.9565379 70.3921149,26.72081 C70.3921149,26.2483258 70.3503398,25.8061357 70.2667885,25.3942264 C70.1832372,24.9823171 70.0519442,24.630988 69.8729056,24.3402285 C69.6938671,24.049469 69.4641043,23.8192878 69.1836106,23.6496781 C68.9031168,23.4800684 68.5599647,23.3952648 68.154144,23.3952648 Z M75.3335546,22.3412669 L75.3335546,27.5203946 C75.3335546,27.9928788 75.36041,28.4078106 75.4141216,28.7652025 C75.4678332,29.1225944 75.560335,29.4194069 75.69163,29.655649 C75.8229249,29.8918911 76.0019608,30.0705844 76.228743,30.1917342 C76.4555252,30.312884 76.7419826,30.3734579 77.0881238,30.3734579 C77.4103933,30.3734579 77.6968507,30.3219701 77.9475047,30.2189927 C78.1981587,30.1160154 78.4219535,29.9736665 78.6188959,29.7919418 C78.8158384,29.6102172 78.9889064,29.4012369 79.1381052,29.1649948 C79.287304,28.9287527 79.4096452,28.6773707 79.5051324,28.4108411 L79.5051324,22.3412669 L80.9374338,22.3412669 L80.9374338,28.8469782 C80.9374338,29.2831174 80.9523535,29.7343937 80.9821932,30.2008204 C81.012033,30.6672471 81.0627598,31.0761215 81.1343752,31.4274559 L80.149668,31.4274559 L79.7915927,29.991838 L79.7020739,29.991838 C79.427548,30.4643222 79.0575406,30.8580531 78.5920403,31.1730426 C78.12654,31.488032 77.5357216,31.6455244 76.8195673,31.6455244 C76.3421311,31.6455244 75.9213968,31.5879791 75.5573517,31.4728868 C75.1933066,31.3577945 74.8889456,31.1548717 74.6442596,30.8641121 C74.3995736,30.5733526 74.2145698,30.1826504 74.0892428,29.6919938 C73.9639158,29.2013371 73.9012533,28.5804537 73.9012533,27.829325 L73.9012533,22.3412669 L75.3335546,22.3412669 Z M87.8303842,23.74054 C87.472307,23.6193902 87.1321389,23.5588162 86.8098695,23.5588162 C86.2966256,23.5588162 85.8908109,23.7011651 85.5924133,23.9858671 C85.2940157,24.2705691 85.1090119,24.6309843 85.0373965,25.0671236 L85.0373965,31.4274559 L83.6050951,31.4274559 L83.6050951,22.3412669 L84.6077061,22.3412669 L84.8762626,23.4497819 L84.9478777,23.4497819 C85.1746598,23.0378726 85.4461976,22.7198592 85.7624991,22.4957321 C86.0788005,22.271605 86.4816313,22.1595431 86.9710034,22.1595431 C87.3171446,22.1595431 87.7050557,22.2201171 88.1347482,22.3412669 L87.8303842,23.74054 Z M96.46,31.8454206 C96.46,33.0205735 96.1526551,33.8867816 95.537956,34.4440706 C94.9232569,35.0013597 94.0131578,35.28 92.8076315,35.28 C92.0914772,35.28 91.5155785,35.2345695 91.0799179,35.1437072 C90.6442574,35.0528448 90.271266,34.9347255 89.9609325,34.7893458 L90.3369116,33.5536241 C90.6114374,33.6626589 90.9157984,33.7656347 91.2500037,33.8625545 C91.5842091,33.9594744 92.019863,34.0079335 92.5569787,34.0079335 C93.0582867,34.0079335 93.4670853,33.9625031 93.7833868,33.8716407 C94.0996883,33.7807784 94.3533224,33.6293434 94.5442969,33.4173313 C94.7352714,33.2053191 94.8665644,32.9327362 94.9381798,32.5995742 C95.0097952,32.2664123 95.0456024,31.8696527 95.0456024,31.4092835 L95.0456024,30.5370093 L94.9739873,30.5370093 C94.7352692,30.8883437 94.4309082,31.157898 94.0608952,31.3456802 C93.6908821,31.5334623 93.2074853,31.627352 92.61069,31.627352 C91.4051637,31.627352 90.5189361,31.2457359 89.9519806,30.4824922 C89.3850251,29.7192485 89.1015517,28.5319984 89.1015517,26.9207061 C89.1015517,25.3699888 89.4655913,24.1918247 90.1936815,23.3861786 C90.9217716,22.5805325 91.9959869,22.1777155 93.4163596,22.1777155 C94.0967061,22.1777155 94.6785727,22.2322321 95.1619769,22.3412669 C95.645381,22.4503017 96.0780511,22.5775071 96.46,22.7228868 L96.46,31.8454206 Z M92.8613428,30.3552856 C93.4700739,30.3552856 93.9475029,30.2008219 94.2936442,29.8918899 C94.6397854,29.582958 94.8844678,29.1013948 95.0276986,28.4471859 L95.0276986,23.7950571 C94.5502624,23.5648725 93.9415404,23.4497819 93.2015144,23.4497819 C92.3898729,23.4497819 91.7513115,23.7284223 91.2858113,24.2857113 C90.820311,24.8430004 90.5875643,25.7152658 90.5875643,26.9025337 C90.5875643,27.4113629 90.6293394,27.8777826 90.7128907,28.3018069 C90.796442,28.7258311 90.927735,29.0892751 91.1067736,29.3921495 C91.2858122,29.695024 91.5185588,29.9312626 91.8050205,30.1008723 C92.0914822,30.270482 92.4435861,30.3552856 92.8613428,30.3552856 Z" id="Schul-CloudBrandenburg"></path>
        </g>
        <path d="M29.2584854,24.0003548 L29.51436,24.0062456 L34.5193804,27.4677694 C34.1553789,28.0627735 33.4028758,28.3392754 32.7343731,27.9962731 C28.016354,25.5847565 23.6168361,28.6227774 23.6343362,34.1773156 C23.6378362,35.1188221 22.7943328,35.8153269 21.9123292,35.5983254 C13.3792946,33.505311 9.00777682,41.0723631 13.8902966,46.3153992 C15.6438038,48.1949122 17.2643103,48.5134144 22.3288309,48.4119137 L22.3288309,48.4119137 L53.7904586,48.3874135 C54.1329215,48.3906443 54.4130883,48.392881 54.6537975,48.3940216 L55.2803909,48.3940535 C55.5111815,48.3926117 55.7160048,48.3892981 55.9394673,48.3839135 C57.9519755,48.3839135 59.803483,47.6944087 61.3259891,46.5534009 L61.3259891,46.5534009 L64,49.32892 C61.9209916,50.9599312 59.3694812,51.9574381 56.5799699,51.9574381 C56.2972764,51.9638996 56.0414233,51.967379 55.7315454,51.9682201 L55.4006642,51.9681946 C55.1049314,51.9674618 54.7529625,51.9649766 54.2979606,51.9609381 L54.2979606,51.9609381 L21.8178288,51.9819382 C15.7943044,52.1044391 13.5192951,51.659936 10.9467847,48.898417 C4.18825726,41.6463671 9.78477997,31.034294 20.3303228,32.4588038 C21.0303256,27.2087677 24.8943413,23.8347444 29.51436,24.0062456 Z M50.5775,10 L60.094,21.956 L65.5785,21.235 L68.536,23.132 L68.536,24.9695 L67.5,23.923 L65.5785,23.923 L64.119,25.2075 L78,32.785 L78,45 L70.783,36.3865 L54.809,28.844 L48.7365,33.023 L40.158,30.832 L42.8635,28.627 L53.108,27.122 L46.9375,16.8565 L36,10 L50.5775,10 Z" id="Combined-Shape" fill="#E4032E"></path>
    </g>
</svg>