<?xml version="1.0" encoding="UTF-8"?>
<svg width="300px" height="48px" viewBox="0 0 300 48" version="1.1" xmlns="http://www.w3.org/2000/svg" xmlns:xlink="http://www.w3.org/1999/xlink">
    <!-- Generator: Sketch 54.1 (76490) - https://sketchapp.com -->
    <title>web_Logo_BRB-SC_Wort-Bildmarke-banner_mono</title>
    <desc>Created with Sketch.</desc>
    <g id="web_Logo_BRB-SC_Wort-Bildmarke-banner_mono" stroke="none" stroke-width="1" fill="none" fill-rule="evenodd">
        <g id="Logo" transform="translate(13.000000, 12.000000)" fill="#FFFFFF">
            <path d="M59.24,18.24 C59.24,17.8133312 59.0833349,17.466668 58.77,17.2 C58.4566651,16.933332 58.0633357,16.6900011 57.59,16.47 C57.1166643,16.2499989 56.6033361,16.0233345 56.05,15.79 C55.4966639,15.5566655 54.9833357,15.2700017 54.51,14.93 C54.0366643,14.5899983 53.6433349,14.1666692 53.33,13.66 C53.0166651,13.1533308 52.86,12.5066706 52.86,11.72 C52.86,11.0399966 52.9733322,10.4500025 53.2,9.95 C53.4266678,9.4499975 53.7499979,9.033335 54.17,8.7 C54.5900021,8.366665 55.0866638,8.1200008 55.66,7.96 C56.2333362,7.7999992 56.8733298,7.72 57.58,7.72 C58.3933374,7.72 59.1599964,7.7899993 59.88,7.93 C60.6000036,8.0700007 61.193331,8.273332 61.66,8.54 L60.8,10.84 C60.5066652,10.6533324 60.0666696,10.4833341 59.48,10.33 C58.8933304,10.1766659 58.2600034,10.1 57.58,10.1 C56.9399968,10.1 56.4500017,10.2266654 56.11,10.48 C55.7699983,10.7333346 55.6,11.0733312 55.6,11.5 C55.6,11.900002 55.7566651,12.233332 56.07,12.5 C56.3833349,12.766668 56.7766643,13.0133322 57.25,13.24 C57.7233357,13.4666678 58.2366639,13.6999988 58.79,13.94 C59.3433361,14.1800012 59.8566643,14.4699983 60.33,14.81 C60.8033357,15.1500017 61.1966651,15.5699975 61.51,16.07 C61.8233349,16.5700025 61.98,17.1933296 61.98,17.94 C61.98,18.6866704 61.8566679,19.3299973 61.61,19.87 C61.3633321,20.4100027 61.0166689,20.8599982 60.57,21.22 C60.1233311,21.5800018 59.5833365,21.8466658 58.95,22.02 C58.3166635,22.1933342 57.6200038,22.28 56.86,22.28 C55.859995,22.28 54.9800038,22.1866676 54.22,22 C53.4599962,21.8133324 52.9000018,21.6266676 52.54,21.44 L53.42,19.1 C53.5666674,19.1800004 53.7566655,19.2666662 53.99,19.36 C54.2233345,19.4533338 54.4866652,19.5399996 54.78,19.62 C55.0733348,19.7000004 55.3833317,19.7666664 55.71,19.82 C56.0366683,19.8733336 56.3733316,19.9 56.72,19.9 C57.5333374,19.9 58.1566645,19.7633347 58.59,19.49 C59.0233355,19.2166653 59.24,18.8000028 59.24,18.24 Z M70.82,21.38 C70.419998,21.6733348 69.9366695,21.8966659 69.37,22.05 C68.8033305,22.2033341 68.220003,22.28 67.62,22.28 C66.819996,22.28 66.1433361,22.1533346 65.59,21.9 C65.0366639,21.6466654 64.5866684,21.2900023 64.24,20.83 C63.8933316,20.3699977 63.6433341,19.8133366 63.49,19.16 C63.3366659,18.5066634 63.26,17.7866706 63.26,17 C63.26,15.3066582 63.6399962,14.0033379 64.4,13.09 C65.1600038,12.1766621 66.2666594,11.72 67.72,11.72 C68.453337,11.72 69.0433311,11.7799994 69.49,11.9 C69.9366689,12.0200006 70.3399982,12.1733324 70.7,12.36 L70.08,14.48 C69.7733318,14.3333326 69.4700015,14.2200004 69.17,14.14 C68.8699985,14.0599996 68.5266686,14.02 68.14,14.02 C67.4199964,14.02 66.8733352,14.2566643 66.5,14.73 C66.1266648,15.2033357 65.94,15.9599948 65.94,17 C65.94,17.4266688 65.9866662,17.8199982 66.08,18.18 C66.1733338,18.5400018 66.3133324,18.853332 66.5,19.12 C66.6866676,19.386668 66.9299985,19.5966659 67.23,19.75 C67.5300015,19.9033341 67.879998,19.98 68.28,19.98 C68.7200022,19.98 69.0933318,19.9233339 69.4,19.81 C69.7066682,19.6966661 69.9799988,19.5600008 70.22,19.4 L70.82,21.38 Z M78.52,22 L78.52,16.32 C78.52,15.5066626 78.4066678,14.9200018 78.18,14.56 C77.9533322,14.1999982 77.540003,14.02 76.94,14.02 C76.4999978,14.02 76.0966685,14.1699985 75.73,14.47 C75.3633315,14.7700015 75.1200006,15.153331 75,15.62 L75,22 L72.4,22 L72.4,8 L75,8 L75,13.12 L75.08,13.12 C75.4000016,12.6933312 75.793331,12.3533346 76.26,12.1 C76.726669,11.8466654 77.3199964,11.72 78.04,11.72 C78.5466692,11.72 78.9933314,11.786666 79.38,11.92 C79.7666686,12.053334 80.0899987,12.2733318 80.35,12.58 C80.6100013,12.8866682 80.8033327,13.3033307 80.93,13.83 C81.0566673,14.3566693 81.12,15.0066628 81.12,15.78 L81.12,22 L78.52,22 Z M85.8,12 L85.8,17.68 C85.8,18.4933374 85.8966657,19.0799982 86.09,19.44 C86.2833343,19.8000018 86.6599972,19.98 87.22,19.98 C87.7133358,19.98 88.1233317,19.8333348 88.45,19.54 C88.7766683,19.2466652 89.0199992,18.8866688 89.18,18.46 L89.18,12 L91.78,12 L91.78,18.96 C91.78,19.5066694 91.8066664,20.0433307 91.86,20.57 C91.9133336,21.0966693 91.9933328,21.5733312 92.1,22 L90.14,22 L89.68,20.52 L89.6,20.52 C89.2933318,21.0266692 88.8666694,21.446665 88.32,21.78 C87.7733306,22.113335 87.1266704,22.28 86.38,22.28 C85.8733308,22.28 85.420002,22.213334 85.02,22.08 C84.619998,21.946666 84.286668,21.7266682 84.02,21.42 C83.753332,21.1133318 83.5500007,20.7000026 83.41,20.18 C83.2699993,19.6599974 83.2,19.0066706 83.2,18.22 L83.2,12 L85.8,12 Z M96.74,18.64 C96.74,19.106669 96.7999994,19.4466656 96.92,19.66 C97.0400006,19.8733344 97.233332,19.98 97.5,19.98 C97.6600008,19.98 97.8166659,19.9666668 97.97,19.94 C98.1233341,19.9133332 98.3133322,19.8533338 98.54,19.76 L98.82,21.8 C98.6066656,21.9066672 98.2800022,22.0133328 97.84,22.12 C97.3999978,22.2266672 96.946669,22.28 96.48,22.28 C95.7199962,22.28 95.140002,22.1033351 94.74,21.75 C94.339998,21.3966649 94.14,20.8133374 94.14,20 L94.14,8 L96.74,8 L96.74,18.64 Z M99.88,15.1 L104.9,15.1 L104.9,17.4 L99.88,17.4 L99.88,15.1 Z M116.68,21.42 C116.253331,21.7266682 115.710003,21.946666 115.05,22.08 C114.389997,22.213334 113.713337,22.28 113.02,22.28 C112.179996,22.28 111.383337,22.1500013 110.63,21.89 C109.876663,21.6299987 109.213336,21.2100029 108.64,20.63 C108.066664,20.0499971 107.610002,19.2966713 107.27,18.37 C106.929998,17.4433287 106.76,16.3200066 106.76,15 C106.76,13.6266598 106.949998,12.4766713 107.33,11.55 C107.710002,10.6233287 108.20333,9.8766695 108.81,9.31 C109.41667,8.7433305 110.09333,8.3366679 110.84,8.09 C111.58667,7.8433321 112.33333,7.72 113.08,7.72 C113.880004,7.72 114.556664,7.7733328 115.11,7.88 C115.663336,7.9866672 116.119998,8.1133326 116.48,8.26 L115.94,10.58 C115.633332,10.4333326 115.270002,10.326667 114.85,10.26 C114.429998,10.193333 113.920003,10.16 113.32,10.16 C112.213328,10.16 111.323337,10.5533294 110.65,11.34 C109.976663,12.1266706 109.64,13.3466584 109.64,15 C109.64,15.7200036 109.719999,16.3766637 109.88,16.97 C110.040001,17.5633363 110.283332,18.0699979 110.61,18.49 C110.936668,18.9100021 111.343331,19.2366655 111.83,19.47 C112.316669,19.7033345 112.879997,19.82 113.52,19.82 C114.120003,19.82 114.626665,19.7600006 115.04,19.64 C115.453335,19.5199994 115.813332,19.3666676 116.12,19.18 L116.68,21.42 Z M121,18.64 C121,19.106669 121.059999,19.4466656 121.18,19.66 C121.300001,19.8733344 121.493332,19.98 121.76,19.98 C121.920001,19.98 122.076666,19.9666668 122.23,19.94 C122.383334,19.9133332 122.573332,19.8533338 122.8,19.76 L123.08,21.8 C122.866666,21.9066672 122.540002,22.0133328 122.1,22.12 C121.659998,22.2266672 121.206669,22.28 120.74,22.28 C119.979996,22.28 119.400002,22.1033351 119,21.75 C118.599998,21.3966649 118.4,20.8133374 118.4,20 L118.4,8 L121,8 L121,18.64 Z M123.72,17 C123.72,15.3066582 124.133329,14.0033379 124.96,13.09 C125.786671,12.1766621 126.946659,11.72 128.44,11.72 C129.240004,11.72 129.93333,11.8466654 130.52,12.1 C131.10667,12.3533346 131.593331,12.7099977 131.98,13.17 C132.366669,13.6300023 132.656666,14.1866634 132.85,14.84 C133.043334,15.4933366 133.14,16.2133294 133.14,17 C133.14,18.6933418 132.730004,19.9966621 131.91,20.91 C131.089996,21.8233379 129.933341,22.28 128.44,22.28 C127.639996,22.28 126.94667,22.1533346 126.36,21.9 C125.77333,21.6466654 125.283335,21.2900023 124.89,20.83 C124.496665,20.3699977 124.203334,19.8133366 124.01,19.16 C123.816666,18.5066634 123.72,17.7866706 123.72,17 Z M126.4,17 C126.4,17.4400022 126.44,17.8466648 126.52,18.22 C126.6,18.5933352 126.719999,18.9199986 126.88,19.2 C127.040001,19.4800014 127.249999,19.6966659 127.51,19.85 C127.770001,20.0033341 128.079998,20.08 128.44,20.08 C129.120003,20.08 129.626665,19.8333358 129.96,19.34 C130.293335,18.8466642 130.46,18.066672 130.46,17 C130.46,16.0799954 130.306668,15.3366695 130,14.77 C129.693332,14.2033305 129.173337,13.92 128.44,13.92 C127.799997,13.92 127.300002,14.1599976 126.94,14.64 C126.579998,15.1200024 126.4,15.9066612 126.4,17 Z M137.44,12 L137.44,17.68 C137.44,18.4933374 137.536666,19.0799982 137.73,19.44 C137.923334,19.8000018 138.299997,19.98 138.86,19.98 C139.353336,19.98 139.763332,19.8333348 140.09,19.54 C140.416668,19.2466652 140.659999,18.8866688 140.82,18.46 L140.82,12 L143.42,12 L143.42,18.96 C143.42,19.5066694 143.446666,20.0433307 143.5,20.57 C143.553334,21.0966693 143.633333,21.5733312 143.74,22 L141.78,22 L141.32,20.52 L141.24,20.52 C140.933332,21.0266692 140.506669,21.446665 139.96,21.78 C139.413331,22.113335 138.76667,22.28 138.02,22.28 C137.513331,22.28 137.060002,22.213334 136.66,22.08 C136.259998,21.946666 135.926668,21.7266682 135.66,21.42 C135.393332,21.1133318 135.190001,20.7000026 135.05,20.18 C134.909999,19.6599974 134.84,19.0066706 134.84,18.22 L134.84,12 L137.44,12 Z M154.2,18.48 C154.2,19.0400028 154.206667,19.5999972 154.22,20.16 C154.233333,20.7200028 154.293333,21.3399966 154.4,22.02 L152.54,22.02 L152.18,20.72 L152.1,20.72 C151.833332,21.186669 151.450003,21.5633319 150.95,21.85 C150.449997,22.1366681 149.860003,22.28 149.18,22.28 C147.92666,22.28 146.953337,21.8666708 146.26,21.04 C145.566663,20.2133292 145.22,18.9200088 145.22,17.16 C145.22,15.4533248 145.606663,14.1266714 146.38,13.18 C147.153337,12.2333286 148.286659,11.76 149.78,11.76 C150.193335,11.76 150.533332,11.7833331 150.8,11.83 C151.066668,11.8766669 151.333332,11.9533328 151.6,12.06 L151.6,8 L154.2,8 L154.2,18.48 Z M149.78,20.08 C150.286669,20.08 150.686665,19.9566679 150.98,19.71 C151.273335,19.4633321 151.479999,19.106669 151.6,18.64 L151.6,14.4 C151.413332,14.2533326 151.206668,14.1433337 150.98,14.07 C150.753332,13.9966663 150.460002,13.96 150.1,13.96 C149.366663,13.96 148.816668,14.2066642 148.45,14.7 C148.083331,15.1933358 147.9,16.039994 147.9,17.24 C147.9,18.0933376 148.049999,18.7799974 148.35,19.3 C148.650002,19.8200026 149.126663,20.08 149.78,20.08 Z M171.54,11.2 C171.54,11.533335 171.486667,11.8733316 171.38,12.22 C171.273333,12.5666684 171.113334,12.8899985 170.9,13.19 C170.686666,13.4900015 170.413335,13.7533322 170.08,13.98 C169.746665,14.2066678 169.353336,14.3799994 168.9,14.5 L168.9,14.58 C169.300002,14.646667 169.683332,14.7599992 170.05,14.92 C170.416669,15.0800008 170.739999,15.2999986 171.02,15.58 C171.300001,15.8600014 171.526666,16.199998 171.7,16.6 C171.873334,17.000002 171.96,17.4733306 171.96,18.02 C171.96,18.7400036 171.810001,19.3633307 171.51,19.89 C171.209998,20.4166693 170.816669,20.846665 170.33,21.18 C169.843331,21.513335 169.28667,21.7599992 168.66,21.92 C168.03333,22.0800008 167.393337,22.16 166.74,22.16 L165.94,22.16 C165.633332,22.16 165.313335,22.1500001 164.98,22.13 C164.646665,22.1099999 164.313335,22.0833335 163.98,22.05 C163.646665,22.0166665 163.353335,21.966667 163.1,21.9 L163.1,8.12 C163.593336,8.0399996 164.166663,7.9733336 164.82,7.92 C165.473337,7.8666664 166.186663,7.84 166.96,7.84 C167.480003,7.84 168.009997,7.8833329 168.55,7.97 C169.090003,8.0566671 169.579998,8.2233321 170.02,8.47 C170.460002,8.7166679 170.823332,9.0599978 171.11,9.5 C171.396668,9.9400022 171.54,10.5066632 171.54,11.2 Z M166.9,20.72 C167.326669,20.72 167.739998,20.6700005 168.14,20.57 C168.540002,20.4699995 168.893332,20.3100011 169.2,20.09 C169.506668,19.8699989 169.749999,19.6000016 169.93,19.28 C170.110001,18.9599984 170.2,18.5800022 170.2,18.14 C170.2,17.5933306 170.090001,17.153335 169.87,16.82 C169.649999,16.486665 169.363335,16.2266676 169.01,16.04 C168.656665,15.8533324 168.260002,15.726667 167.82,15.66 C167.379998,15.593333 166.940002,15.56 166.5,15.56 L164.76,15.56 L164.76,20.58 C164.853334,20.6066668 164.986666,20.6266666 165.16,20.64 C165.333334,20.6533334 165.519999,20.6666666 165.72,20.68 C165.920001,20.6933334 166.126666,20.7033333 166.34,20.71 C166.553334,20.7166667 166.739999,20.72 166.9,20.72 Z M165.8,14.16 C166.026668,14.16 166.299998,14.1533334 166.62,14.14 C166.940002,14.1266666 167.206666,14.1066668 167.42,14.08 C167.740002,13.9733328 168.039999,13.8433341 168.32,13.69 C168.600001,13.5366659 168.849999,13.3566677 169.07,13.15 C169.290001,12.9433323 169.463333,12.7033347 169.59,12.43 C169.716667,12.1566653 169.78,11.8600016 169.78,11.54 C169.78,11.0999978 169.696667,10.7366681 169.53,10.45 C169.363333,10.1633319 169.140001,9.9333342 168.86,9.76 C168.579999,9.5866658 168.260002,9.4633337 167.9,9.39 C167.539998,9.3166663 167.173335,9.28 166.8,9.28 C166.359998,9.28 165.956669,9.2899999 165.59,9.31 C165.223332,9.3300001 164.946668,9.3599998 164.76,9.4 L164.76,14.16 L165.8,14.16 Z M179.34,13.54 C178.939998,13.406666 178.560002,13.34 178.2,13.34 C177.626664,13.34 177.173335,13.4966651 176.84,13.81 C176.506665,14.1233349 176.3,14.5199976 176.22,15 L176.22,22 L174.62,22 L174.62,12 L175.74,12 L176.04,13.22 L176.12,13.22 C176.373335,12.7666644 176.676665,12.4166679 177.03,12.17 C177.383335,11.9233321 177.833331,11.8 178.38,11.8 C178.766669,11.8 179.199998,11.866666 179.68,12 L179.34,13.54 Z M181.26,12.74 C181.766669,12.4333318 182.356663,12.2066674 183.03,12.06 C183.703337,11.9133326 184.406663,11.84 185.14,11.84 C185.833337,11.84 186.389998,11.9333324 186.81,12.12 C187.230002,12.3066676 187.549999,12.5499985 187.77,12.85 C187.990001,13.1500015 188.136666,13.4799982 188.21,13.84 C188.283334,14.2000018 188.32,14.5599982 188.32,14.92 C188.32,15.720004 188.3,16.4999962 188.26,17.26 C188.22,18.0200038 188.2,18.7399966 188.2,19.42 C188.2,19.9133358 188.22,20.3799978 188.26,20.82 C188.3,21.2600022 188.373333,21.6666648 188.48,22.04 L187.3,22.04 L186.88,20.64 L186.78,20.64 C186.659999,20.8266676 186.510001,21.0099991 186.33,21.19 C186.149999,21.3700009 185.933335,21.5299993 185.68,21.67 C185.426665,21.8100007 185.133335,21.9266662 184.8,22.02 C184.466665,22.1133338 184.086669,22.16 183.66,22.16 C183.233331,22.16 182.836669,22.093334 182.47,21.96 C182.103331,21.826666 181.786668,21.6366679 181.52,21.39 C181.253332,21.1433321 181.043334,20.8466684 180.89,20.5 C180.736666,20.1533316 180.66,19.7600022 180.66,19.32 C180.66,18.7333304 180.779999,18.2433353 181.02,17.85 C181.260001,17.4566647 181.596665,17.1433345 182.03,16.91 C182.463335,16.6766655 182.98333,16.5100005 183.59,16.41 C184.19667,16.3099995 184.866663,16.26 185.6,16.26 L186.15,16.26 C186.330001,16.26 186.513332,16.2733332 186.7,16.3 C186.74,15.899998 186.76,15.5400016 186.76,15.22 C186.76,14.486663 186.613335,13.9733348 186.32,13.68 C186.026665,13.3866652 185.493337,13.24 184.72,13.24 C184.493332,13.24 184.250001,13.2566665 183.99,13.29 C183.729999,13.3233335 183.463335,13.3699997 183.19,13.43 C182.916665,13.4900003 182.656668,13.5633329 182.41,13.65 C182.163332,13.7366671 181.946668,13.8333328 181.76,13.94 L181.26,12.74 Z M184.1,20.76 C184.473335,20.76 184.806665,20.7100005 185.1,20.61 C185.393335,20.5099995 185.646666,20.3833341 185.86,20.23 C186.073334,20.0766659 186.249999,19.9066676 186.39,19.72 C186.530001,19.5333324 186.633333,19.3533342 186.7,19.18 L186.7,17.52 C186.513332,17.5066666 186.323334,17.4966667 186.13,17.49 C185.936666,17.4833333 185.746668,17.48 185.56,17.48 C185.146665,17.48 184.743335,17.5033331 184.35,17.55 C183.956665,17.5966669 183.610002,17.6833327 183.31,17.81 C183.009998,17.9366673 182.770001,18.1099989 182.59,18.33 C182.409999,18.5500011 182.32,18.826665 182.32,19.16 C182.32,19.626669 182.486665,20.0099985 182.82,20.31 C183.153335,20.6100015 183.579997,20.76 184.1,20.76 Z M197.76,22 L197.76,16.3 C197.76,15.2599948 197.610002,14.4766693 197.31,13.95 C197.009999,13.4233307 196.460004,13.16 195.66,13.16 C194.95333,13.16 194.370002,13.3499981 193.91,13.73 C193.449998,14.1100019 193.126668,14.5866638 192.94,15.16 L192.94,22 L191.34,22 L191.34,12 L192.46,12 L192.76,13.22 L192.84,13.22 C193.160002,12.7933312 193.589997,12.4433347 194.13,12.17 C194.670003,11.8966653 195.31333,11.76 196.06,11.76 C196.606669,11.76 197.086665,11.8233327 197.5,11.95 C197.913335,12.0766673 198.256665,12.2999984 198.53,12.62 C198.803335,12.9400016 199.009999,13.3699973 199.15,13.91 C199.290001,14.4500027 199.36,15.1333292 199.36,15.96 L199.36,22 L197.76,22 Z M209.96,18.56 C209.96,19.2400034 209.966667,19.8566639 209.98,20.41 C209.993333,20.9633361 210.053333,21.506664 210.16,22.04 L209.08,22.04 L208.68,20.62 L208.6,20.62 C208.333332,21.086669 207.946669,21.4733318 207.44,21.78 C206.933331,22.0866682 206.340003,22.24 205.66,22.24 C204.32666,22.24 203.33667,21.8200042 202.69,20.98 C202.04333,20.1399958 201.72,18.8266756 201.72,17.04 C201.72,15.3333248 202.123329,14.0366711 202.93,13.15 C203.736671,12.2633289 204.84666,11.82 206.26,11.82 C206.753336,11.82 207.143332,11.8466664 207.43,11.9 C207.716668,11.9533336 208.026665,12.0399994 208.36,12.16 L208.36,8 L209.96,8 L209.96,18.56 Z M205.92,20.84 C206.600003,20.84 207.139998,20.6633351 207.54,20.31 C207.940002,19.9566649 208.213333,19.4200036 208.36,18.7 L208.36,13.74 C208.119999,13.5533324 207.846668,13.4200004 207.54,13.34 C207.233332,13.2599996 206.826669,13.22 206.32,13.22 C205.399995,13.22 204.680003,13.5233303 204.16,14.13 C203.639997,14.7366697 203.38,15.70666 203.38,17.04 C203.38,17.5866694 203.423333,18.093331 203.51,18.56 C203.596667,19.026669 203.739999,19.426665 203.94,19.76 C204.140001,20.093335 204.403332,20.3566657 204.73,20.55 C205.056668,20.7433343 205.453331,20.84 205.92,20.84 Z M220.34,21.2 C219.939998,21.5200016 219.43667,21.7733324 218.83,21.96 C218.22333,22.1466676 217.580003,22.24 216.9,22.24 C216.139996,22.24 215.480003,22.1166679 214.92,21.87 C214.359997,21.6233321 213.900002,21.2700023 213.54,20.81 C213.179998,20.3499977 212.913334,19.8000032 212.74,19.16 C212.566666,18.5199968 212.48,17.800004 212.48,17 C212.48,15.2933248 212.859996,13.9933378 213.62,13.1 C214.380004,12.2066622 215.46666,11.76 216.88,11.76 C217.333336,11.76 217.786664,11.8099995 218.24,11.91 C218.693336,12.0100005 219.099998,12.1999986 219.46,12.48 C219.820002,12.7600014 220.113332,13.1566641 220.34,13.67 C220.566668,14.1833359 220.68,14.8599958 220.68,15.7 C220.68,16.1400022 220.64,16.626664 220.56,17.16 L214.14,17.16 C214.14,17.7466696 214.199999,18.2666644 214.32,18.72 C214.440001,19.1733356 214.626665,19.5566651 214.88,19.87 C215.133335,20.1833349 215.463331,20.4233325 215.87,20.59 C216.276669,20.7566675 216.77333,20.84 217.36,20.84 C217.813336,20.84 218.266664,20.7600008 218.72,20.6 C219.173336,20.4399992 219.513332,20.2533344 219.74,20.04 L220.34,21.2 Z M216.9,13.16 C216.113329,13.16 215.483336,13.3666646 215.01,13.78 C214.536664,14.1933354 214.253334,14.899995 214.16,15.9 L219.12,15.9 C219.12,14.8866616 218.926669,14.1766687 218.54,13.77 C218.153331,13.3633313 217.60667,13.16 216.9,13.16 Z M229.62,22 L229.62,16.3 C229.62,15.2599948 229.470002,14.4766693 229.17,13.95 C228.869999,13.4233307 228.320004,13.16 227.52,13.16 C226.81333,13.16 226.230002,13.3499981 225.77,13.73 C225.309998,14.1100019 224.986668,14.5866638 224.8,15.16 L224.8,22 L223.2,22 L223.2,12 L224.32,12 L224.62,13.22 L224.7,13.22 C225.020002,12.7933312 225.449997,12.4433347 225.99,12.17 C226.530003,11.8966653 227.17333,11.76 227.92,11.76 C228.466669,11.76 228.946665,11.8233327 229.36,11.95 C229.773335,12.0766673 230.116665,12.2999984 230.39,12.62 C230.663335,12.9400016 230.869999,13.3699973 231.01,13.91 C231.150001,14.4500027 231.22,15.1333292 231.22,15.96 L231.22,22 L229.62,22 Z M234.14,8 L235.74,8 L235.74,12.98 L235.82,12.98 C236.126668,12.5933314 236.516664,12.2933344 236.99,12.08 C237.463336,11.8666656 237.979997,11.76 238.54,11.76 C239.83334,11.76 240.80333,12.1733292 241.45,13 C242.09667,13.8266708 242.42,15.106658 242.42,16.84 C242.42,18.5866754 241.993338,19.9133288 241.14,20.82 C240.286662,21.7266712 239.086674,22.18 237.54,22.18 C236.79333,22.18 236.11667,22.1000008 235.51,21.94 C234.90333,21.7799992 234.446668,21.6066676 234.14,21.42 L234.14,8 Z M238.26,13.16 C237.59333,13.16 237.053335,13.3466648 236.64,13.72 C236.226665,14.0933352 235.926668,14.6199966 235.74,15.3 L235.74,20.34 C235.993335,20.4866674 236.299998,20.5966663 236.66,20.67 C237.020002,20.7433337 237.393331,20.78 237.78,20.78 C238.686671,20.78 239.409997,20.4600032 239.95,19.82 C240.490003,19.1799968 240.76,18.1800068 240.76,16.82 C240.76,16.2999974 240.713334,15.8133356 240.62,15.36 C240.526666,14.9066644 240.380001,14.5200016 240.18,14.2 C239.979999,13.8799984 239.723335,13.6266676 239.41,13.44 C239.096665,13.2533324 238.713336,13.16 238.26,13.16 Z M246.38,12 L246.38,17.7 C246.38,18.2200026 246.41,18.6766647 246.47,19.07 C246.53,19.4633353 246.633333,19.7899987 246.78,20.05 C246.926667,20.3100013 247.126665,20.506666 247.38,20.64 C247.633335,20.773334 247.953331,20.84 248.34,20.84 C248.700002,20.84 249.019999,20.7833339 249.3,20.67 C249.580001,20.5566661 249.829999,20.400001 250.05,20.2 C250.270001,19.999999 250.463333,19.7700013 250.63,19.51 C250.796668,19.2499987 250.933333,18.9733348 251.04,18.68 L251.04,12 L252.64,12 L252.64,19.16 C252.64,19.6400024 252.656667,20.1366641 252.69,20.65 C252.723334,21.1633359 252.78,21.6133314 252.86,22 L251.76,22 L251.36,20.42 L251.26,20.42 C250.953332,20.9400026 250.540003,21.3733316 250.02,21.72 C249.499997,22.0666684 248.840004,22.24 248.04,22.24 C247.506664,22.24 247.036669,22.1766673 246.63,22.05 C246.223331,21.9233327 245.883335,21.7000016 245.61,21.38 C245.336665,21.0599984 245.130001,20.6300027 244.99,20.09 C244.849999,19.5499973 244.78,18.8666708 244.78,18.04 L244.78,12 L246.38,12 Z M260.44,13.54 C260.039998,13.406666 259.660002,13.34 259.3,13.34 C258.726664,13.34 258.273335,13.4966651 257.94,13.81 C257.606665,14.1233349 257.4,14.5199976 257.32,15 L257.32,22 L255.72,22 L255.72,12 L256.84,12 L257.14,13.22 L257.22,13.22 C257.473335,12.7666644 257.776665,12.4166679 258.13,12.17 C258.483335,11.9233321 258.933331,11.8 259.48,11.8 C259.866669,11.8 260.299998,11.866666 260.78,12 L260.44,13.54 Z M270.18,22.46 C270.18,23.7533398 269.83667,24.7066636 269.15,25.32 C268.46333,25.9333364 267.446673,26.24 266.1,26.24 C265.299996,26.24 264.656669,26.1900005 264.17,26.09 C263.683331,25.9899995 263.266668,25.8600008 262.92,25.7 L263.34,24.34 C263.646668,24.4600006 263.986665,24.5733328 264.36,24.68 C264.733335,24.7866672 265.219997,24.84 265.82,24.84 C266.380003,24.84 266.836665,24.7900005 267.19,24.69 C267.543335,24.5899995 267.826666,24.4233345 268.04,24.19 C268.253334,23.9566655 268.4,23.6566685 268.48,23.29 C268.56,22.9233315 268.6,22.4866692 268.6,21.98 L268.6,21.02 L268.52,21.02 C268.253332,21.4066686 267.913335,21.7033323 267.5,21.91 C267.086665,22.1166677 266.54667,22.22 265.88,22.22 C264.533327,22.22 263.543337,21.8000042 262.91,20.96 C262.276664,20.1199958 261.96,18.8133422 261.96,17.04 C261.96,15.3333248 262.366663,14.0366711 263.18,13.15 C263.993337,12.2633289 265.193325,11.82 266.78,11.82 C267.540004,11.82 268.189997,11.8799994 268.73,12 C269.270003,12.1200006 269.753331,12.2599992 270.18,12.42 L270.18,22.46 Z M266.16,20.82 C266.840003,20.82 267.373331,20.6500017 267.76,20.31 C268.146669,19.9699983 268.419999,19.4400036 268.58,18.72 L268.58,13.6 C268.046664,13.3466654 267.366671,13.22 266.54,13.22 C265.633329,13.22 264.920003,13.5266636 264.4,14.14 C263.879997,14.7533364 263.62,15.7133268 263.62,17.02 C263.62,17.5800028 263.666666,18.093331 263.76,18.56 C263.853334,19.026669 263.999999,19.426665 264.2,19.76 C264.400001,20.093335 264.659998,20.3533324 264.98,20.54 C265.300002,20.7266676 265.693331,20.82 266.16,20.82 Z" id="Schul-CloudBrandenburg" fill-rule="nonzero"></path>
            <path d="M8.18787013,21.9502 L26.1658701,21.9362 C26.8018701,21.9422 27.0618701,21.9422 27.3938701,21.9342 C28.5438701,21.9342 29.6018701,21.5402 30.4718701,20.8882 L31.9998701,22.4742 C30.8118701,23.4062 29.3538701,23.9762 27.7598701,23.9762 C27.4098701,23.9842 27.1318701,23.9842 26.4558701,23.9782 L7.89587013,23.9902 C4.45387013,24.0602 3.15387013,23.8062 1.68387013,22.2282 C-2.17812987,18.0842 1.01987013,12.0202 7.04587013,12.8342 C7.44587013,9.8342 9.65387013,7.9062 12.2938701,8.0042 L15.1538701,9.9822 C14.9458701,10.3222 14.5158701,10.4802 14.1338701,10.2842 C11.4378701,8.9062 8.92387013,10.6422 8.93387013,13.8162 C8.93587013,14.3542 8.45387013,14.7522 7.94987013,14.6282 C3.07387013,13.4322 0.575870132,17.7562 3.36587013,20.7522 C4.36787013,21.8262 5.29387013,22.0082 8.18787013,21.9502 Z M16.0004701,0 L24.3304701,0 L29.7684701,6.832 L32.9024701,6.42 L34.5924701,7.504 L34.5924701,8.554 L34.0004701,7.956 L32.9024701,7.956 L32.0684701,8.69 L40.0004701,13.02 L40.0004701,20 L35.8764701,15.078 L26.7484701,10.768 L23.2784701,13.156 L18.3764701,11.904 L19.9224701,10.644 L25.7764701,9.784 L22.2504701,3.918 L16.0004701,0 Z" id="Combined-Shape"></path>
        </g>
    </g>
</svg>