<?xml version="1.0" encoding="UTF-8"?>
<svg width="204px" height="60px" viewBox="0 0 204 60" version="1.1" xmlns="http://www.w3.org/2000/svg" xmlns:xlink="http://www.w3.org/1999/xlink">
    <!-- Generator: Sketch 54.1 (76490) - https://sketchapp.com -->
    <title>web_Logo_BRB-SC_Wort-Bildmarke-horizontal_mono</title>
    <desc>Created with Sketch.</desc>
    <g id="web_Logo_BRB-SC_Wort-Bildmarke-horizontal_mono" stroke="none" stroke-width="1" fill="none" fill-rule="evenodd">
        <g id="Logo">
            <rect id="Rectangle" x="0" y="0" width="206" height="60"></rect>
            <path d="M85.24,24.24 C85.24,23.8133312 85.0833349,23.466668 84.77,23.2 C84.4566651,22.933332 84.0633357,22.6900011 83.59,22.47 C83.1166643,22.2499989 82.6033361,22.0233345 82.05,21.79 C81.4966639,21.5566655 80.9833357,21.2700017 80.51,20.93 C80.0366643,20.5899983 79.6433349,20.1666692 79.33,19.66 C79.0166651,19.1533308 78.86,18.5066706 78.86,17.72 C78.86,17.0399966 78.9733322,16.4500025 79.2,15.95 C79.4266678,15.4499975 79.7499979,15.033335 80.17,14.7 C80.5900021,14.366665 81.0866638,14.1200008 81.66,13.96 C82.2333362,13.7999992 82.8733298,13.72 83.58,13.72 C84.3933374,13.72 85.1599964,13.7899993 85.88,13.93 C86.6000036,14.0700007 87.193331,14.273332 87.66,14.54 L86.8,16.84 C86.5066652,16.6533324 86.0666696,16.4833341 85.48,16.33 C84.8933304,16.1766659 84.2600034,16.1 83.58,16.1 C82.9399968,16.1 82.4500017,16.2266654 82.11,16.48 C81.7699983,16.7333346 81.6,17.0733312 81.6,17.5 C81.6,17.900002 81.7566651,18.233332 82.07,18.5 C82.3833349,18.766668 82.7766643,19.0133322 83.25,19.24 C83.7233357,19.4666678 84.2366639,19.6999988 84.79,19.94 C85.3433361,20.1800012 85.8566643,20.4699983 86.33,20.81 C86.8033357,21.1500017 87.1966651,21.5699975 87.51,22.07 C87.8233349,22.5700025 87.98,23.1933296 87.98,23.94 C87.98,24.6866704 87.8566679,25.3299973 87.61,25.87 C87.3633321,26.4100027 87.0166689,26.8599982 86.57,27.22 C86.1233311,27.5800018 85.5833365,27.8466658 84.95,28.02 C84.3166635,28.1933342 83.6200038,28.28 82.86,28.28 C81.859995,28.28 80.9800038,28.1866676 80.22,28 C79.4599962,27.8133324 78.9000018,27.6266676 78.54,27.44 L79.42,25.1 C79.5666674,25.1800004 79.7566655,25.2666662 79.99,25.36 C80.2233345,25.4533338 80.4866652,25.5399996 80.78,25.62 C81.0733348,25.7000004 81.3833317,25.7666664 81.71,25.82 C82.0366683,25.8733336 82.3733316,25.9 82.72,25.9 C83.5333374,25.9 84.1566645,25.7633347 84.59,25.49 C85.0233355,25.2166653 85.24,24.8000028 85.24,24.24 Z M97.32,27.38 C96.919998,27.6733348 96.4366695,27.8966659 95.87,28.05 C95.3033305,28.2033341 94.720003,28.28 94.12,28.28 C93.319996,28.28 92.6433361,28.1533346 92.09,27.9 C91.5366639,27.6466654 91.0866684,27.2900023 90.74,26.83 C90.3933316,26.3699977 90.1433341,25.8133366 89.99,25.16 C89.8366659,24.5066634 89.76,23.7866706 89.76,23 C89.76,21.3066582 90.1399962,20.0033379 90.9,19.09 C91.6600038,18.1766621 92.7666594,17.72 94.22,17.72 C94.953337,17.72 95.5433311,17.7799994 95.99,17.9 C96.4366689,18.0200006 96.8399982,18.1733324 97.2,18.36 L96.58,20.48 C96.2733318,20.3333326 95.9700015,20.2200004 95.67,20.14 C95.3699985,20.0599996 95.0266686,20.02 94.64,20.02 C93.9199964,20.02 93.3733352,20.2566643 93,20.73 C92.6266648,21.2033357 92.44,21.9599948 92.44,23 C92.44,23.4266688 92.4866662,23.8199982 92.58,24.18 C92.6733338,24.5400018 92.8133324,24.853332 93,25.12 C93.1866676,25.386668 93.4299985,25.5966659 93.73,25.75 C94.0300015,25.9033341 94.379998,25.98 94.78,25.98 C95.2200022,25.98 95.5933318,25.9233339 95.9,25.81 C96.2066682,25.6966661 96.4799988,25.5600008 96.72,25.4 L97.32,27.38 Z M105.52,28 L105.52,22.32 C105.52,21.5066626 105.406668,20.9200018 105.18,20.56 C104.953332,20.1999982 104.540003,20.02 103.94,20.02 C103.499998,20.02 103.096668,20.1699985 102.73,20.47 C102.363331,20.7700015 102.120001,21.153331 102,21.62 L102,28 L99.4,28 L99.4,14 L102,14 L102,19.12 L102.08,19.12 C102.400002,18.6933312 102.793331,18.3533346 103.26,18.1 C103.726669,17.8466654 104.319996,17.72 105.04,17.72 C105.546669,17.72 105.993331,17.786666 106.38,17.92 C106.766669,18.053334 107.089999,18.2733318 107.35,18.58 C107.610001,18.8866682 107.803333,19.3033307 107.93,19.83 C108.056667,20.3566693 108.12,21.0066628 108.12,21.78 L108.12,28 L105.52,28 Z M113.3,18 L113.3,23.68 C113.3,24.4933374 113.396666,25.0799982 113.59,25.44 C113.783334,25.8000018 114.159997,25.98 114.72,25.98 C115.213336,25.98 115.623332,25.8333348 115.95,25.54 C116.276668,25.2466652 116.519999,24.8866688 116.68,24.46 L116.68,18 L119.28,18 L119.28,24.96 C119.28,25.5066694 119.306666,26.0433307 119.36,26.57 C119.413334,27.0966693 119.493333,27.5733312 119.6,28 L117.64,28 L117.18,26.52 L117.1,26.52 C116.793332,27.0266692 116.366669,27.446665 115.82,27.78 C115.273331,28.113335 114.62667,28.28 113.88,28.28 C113.373331,28.28 112.920002,28.213334 112.52,28.08 C112.119998,27.946666 111.786668,27.7266682 111.52,27.42 C111.253332,27.1133318 111.050001,26.7000026 110.91,26.18 C110.769999,25.6599974 110.7,25.0066706 110.7,24.22 L110.7,18 L113.3,18 Z M124.74,24.64 C124.74,25.106669 124.799999,25.4466656 124.92,25.66 C125.040001,25.8733344 125.233332,25.98 125.5,25.98 C125.660001,25.98 125.816666,25.9666668 125.97,25.94 C126.123334,25.9133332 126.313332,25.8533338 126.54,25.76 L126.82,27.8 C126.606666,27.9066672 126.280002,28.0133328 125.84,28.12 C125.399998,28.2266672 124.946669,28.28 124.48,28.28 C123.719996,28.28 123.140002,28.1033351 122.74,27.75 C122.339998,27.3966649 122.14,26.8133374 122.14,26 L122.14,14 L124.74,14 L124.74,24.64 Z M128.38,21.1 L133.4,21.1 L133.4,23.4 L128.38,23.4 L128.38,21.1 Z M145.68,27.42 C145.253331,27.7266682 144.710003,27.946666 144.05,28.08 C143.389997,28.213334 142.713337,28.28 142.02,28.28 C141.179996,28.28 140.383337,28.1500013 139.63,27.89 C138.876663,27.6299987 138.213336,27.2100029 137.64,26.63 C137.066664,26.0499971 136.610002,25.2966713 136.27,24.37 C135.929998,23.4433287 135.76,22.3200066 135.76,21 C135.76,19.6266598 135.949998,18.4766713 136.33,17.55 C136.710002,16.6233287 137.20333,15.8766695 137.81,15.31 C138.41667,14.7433305 139.09333,14.3366679 139.84,14.09 C140.58667,13.8433321 141.33333,13.72 142.08,13.72 C142.880004,13.72 143.556664,13.7733328 144.11,13.88 C144.663336,13.9866672 145.119998,14.1133326 145.48,14.26 L144.94,16.58 C144.633332,16.4333326 144.270002,16.326667 143.85,16.26 C143.429998,16.193333 142.920003,16.16 142.32,16.16 C141.213328,16.16 140.323337,16.5533294 139.65,17.34 C138.976663,18.1266706 138.64,19.3466584 138.64,21 C138.64,21.7200036 138.719999,22.3766637 138.88,22.97 C139.040001,23.5633363 139.283332,24.0699979 139.61,24.49 C139.936668,24.9100021 140.343331,25.2366655 140.83,25.47 C141.316669,25.7033345 141.879997,25.82 142.52,25.82 C143.120003,25.82 143.626665,25.7600006 144.04,25.64 C144.453335,25.5199994 144.813332,25.3666676 145.12,25.18 L145.68,27.42 Z M150.5,24.64 C150.5,25.106669 150.559999,25.4466656 150.68,25.66 C150.800001,25.8733344 150.993332,25.98 151.26,25.98 C151.420001,25.98 151.576666,25.9666668 151.73,25.94 C151.883334,25.9133332 152.073332,25.8533338 152.3,25.76 L152.58,27.8 C152.366666,27.9066672 152.040002,28.0133328 151.6,28.12 C151.159998,28.2266672 150.706669,28.28 150.24,28.28 C149.479996,28.28 148.900002,28.1033351 148.5,27.75 C148.099998,27.3966649 147.9,26.8133374 147.9,26 L147.9,14 L150.5,14 L150.5,24.64 Z M153.72,23 C153.72,21.3066582 154.133329,20.0033379 154.96,19.09 C155.786671,18.1766621 156.946659,17.72 158.44,17.72 C159.240004,17.72 159.93333,17.8466654 160.52,18.1 C161.10667,18.3533346 161.593331,18.7099977 161.98,19.17 C162.366669,19.6300023 162.656666,20.1866634 162.85,20.84 C163.043334,21.4933366 163.14,22.2133294 163.14,23 C163.14,24.6933418 162.730004,25.9966621 161.91,26.91 C161.089996,27.8233379 159.933341,28.28 158.44,28.28 C157.639996,28.28 156.94667,28.1533346 156.36,27.9 C155.77333,27.6466654 155.283335,27.2900023 154.89,26.83 C154.496665,26.3699977 154.203334,25.8133366 154.01,25.16 C153.816666,24.5066634 153.72,23.7866706 153.72,23 Z M156.4,23 C156.4,23.4400022 156.44,23.8466648 156.52,24.22 C156.6,24.5933352 156.719999,24.9199986 156.88,25.2 C157.040001,25.4800014 157.249999,25.6966659 157.51,25.85 C157.770001,26.0033341 158.079998,26.08 158.44,26.08 C159.120003,26.08 159.626665,25.8333358 159.96,25.34 C160.293335,24.8466642 160.46,24.066672 160.46,23 C160.46,22.0799954 160.306668,21.3366695 160,20.77 C159.693332,20.2033305 159.173337,19.92 158.44,19.92 C157.799997,19.92 157.300002,20.1599976 156.94,20.64 C156.579998,21.1200024 156.4,21.9066612 156.4,23 Z M167.94,18 L167.94,23.68 C167.94,24.4933374 168.036666,25.0799982 168.23,25.44 C168.423334,25.8000018 168.799997,25.98 169.36,25.98 C169.853336,25.98 170.263332,25.8333348 170.59,25.54 C170.916668,25.2466652 171.159999,24.8866688 171.32,24.46 L171.32,18 L173.92,18 L173.92,24.96 C173.92,25.5066694 173.946666,26.0433307 174,26.57 C174.053334,27.0966693 174.133333,27.5733312 174.24,28 L172.28,28 L171.82,26.52 L171.74,26.52 C171.433332,27.0266692 171.006669,27.446665 170.46,27.78 C169.913331,28.113335 169.26667,28.28 168.52,28.28 C168.013331,28.28 167.560002,28.213334 167.16,28.08 C166.759998,27.946666 166.426668,27.7266682 166.16,27.42 C165.893332,27.1133318 165.690001,26.7000026 165.55,26.18 C165.409999,25.6599974 165.34,25.0066706 165.34,24.22 L165.34,18 L167.94,18 Z M185.2,24.48 C185.2,25.0400028 185.206667,25.5999972 185.22,26.16 C185.233333,26.7200028 185.293333,27.3399966 185.4,28.02 L183.54,28.02 L183.18,26.72 L183.1,26.72 C182.833332,27.186669 182.450002,27.5633319 181.95,27.85 C181.449997,28.1366681 180.860003,28.28 180.18,28.28 C178.92666,28.28 177.953337,27.8666708 177.26,27.04 C176.566663,26.2133292 176.22,24.9200088 176.22,23.16 C176.22,21.4533248 176.606663,20.1266714 177.38,19.18 C178.153337,18.2333286 179.286659,17.76 180.78,17.76 C181.193335,17.76 181.533332,17.7833331 181.8,17.83 C182.066668,17.8766669 182.333332,17.9533328 182.6,18.06 L182.6,14 L185.2,14 L185.2,24.48 Z M180.78,26.08 C181.286669,26.08 181.686665,25.9566679 181.98,25.71 C182.273335,25.4633321 182.479999,25.106669 182.6,24.64 L182.6,20.4 C182.413332,20.2533326 182.206668,20.1433337 181.98,20.07 C181.753332,19.9966663 181.460002,19.96 181.1,19.96 C180.366663,19.96 179.816668,20.2066642 179.45,20.7 C179.083331,21.1933358 178.9,22.039994 178.9,23.24 C178.9,24.0933376 179.049998,24.7799974 179.35,25.3 C179.650001,25.8200026 180.126663,26.08 180.78,26.08 Z M88.14,37.2 C88.14,37.533335 88.0866672,37.8733316 87.98,38.22 C87.8733328,38.5666684 87.7133344,38.8899985 87.5,39.19 C87.2866656,39.4900015 87.013335,39.7533322 86.68,39.98 C86.346665,40.2066678 85.9533356,40.3799994 85.5,40.5 L85.5,40.58 C85.900002,40.646667 86.2833315,40.7599992 86.65,40.92 C87.0166685,41.0800008 87.3399986,41.2999986 87.62,41.58 C87.9000014,41.8600014 88.1266658,42.199998 88.3,42.6 C88.4733342,43.000002 88.56,43.4733306 88.56,44.02 C88.56,44.7400036 88.4100015,45.3633307 88.11,45.89 C87.8099985,46.4166693 87.4166691,46.846665 86.93,47.18 C86.4433309,47.513335 85.8866698,47.7599992 85.26,47.92 C84.6333302,48.0800008 83.9933366,48.16 83.34,48.16 L82.54,48.16 C82.2333318,48.16 81.913335,48.1500001 81.58,48.13 C81.246665,48.1099999 80.913335,48.0833335 80.58,48.05 C80.246665,48.0166665 79.9533346,47.966667 79.7,47.9 L79.7,34.12 C80.1933358,34.0399996 80.7666634,33.9733336 81.42,33.92 C82.0733366,33.8666664 82.7866628,33.84 83.56,33.84 C84.0800026,33.84 84.6099973,33.8833329 85.15,33.97 C85.6900027,34.0566671 86.1799978,34.2233321 86.62,34.47 C87.0600022,34.7166679 87.4233319,35.0599978 87.71,35.5 C87.9966681,35.9400022 88.14,36.5066632 88.14,37.2 Z M83.5,46.72 C83.9266688,46.72 84.339998,46.6700005 84.74,46.57 C85.140002,46.4699995 85.4933318,46.3100011 85.8,46.09 C86.1066682,45.8699989 86.3499991,45.6000016 86.53,45.28 C86.7100009,44.9599984 86.8,44.5800022 86.8,44.14 C86.8,43.5933306 86.6900011,43.153335 86.47,42.82 C86.2499989,42.486665 85.9633351,42.2266676 85.61,42.04 C85.2566649,41.8533324 84.8600022,41.726667 84.42,41.66 C83.9799978,41.593333 83.5400022,41.56 83.1,41.56 L81.36,41.56 L81.36,46.58 C81.4533338,46.6066668 81.5866658,46.6266666 81.76,46.64 C81.9333342,46.6533334 82.119999,46.6666666 82.32,46.68 C82.520001,46.6933334 82.7266656,46.7033333 82.94,46.71 C83.1533344,46.7166667 83.3399992,46.72 83.5,46.72 Z M82.4,40.16 C82.6266678,40.16 82.8999984,40.1533334 83.22,40.14 C83.5400016,40.1266666 83.8066656,40.1066668 84.02,40.08 C84.3400016,39.9733328 84.6399986,39.8433341 84.92,39.69 C85.2000014,39.5366659 85.4499989,39.3566677 85.67,39.15 C85.8900011,38.9433323 86.0633327,38.7033347 86.19,38.43 C86.3166673,38.1566653 86.38,37.8600016 86.38,37.54 C86.38,37.0999978 86.2966675,36.7366681 86.13,36.45 C85.9633325,36.1633319 85.7400014,35.9333342 85.46,35.76 C85.1799986,35.5866658 84.8600018,35.4633337 84.5,35.39 C84.1399982,35.3166663 83.7733352,35.28 83.4,35.28 C82.9599978,35.28 82.5566685,35.2899999 82.19,35.31 C81.8233315,35.3300001 81.5466676,35.3599998 81.36,35.4 L81.36,40.16 L82.4,40.16 Z M95.84,39.54 C95.439998,39.406666 95.0600018,39.34 94.7,39.34 C94.1266638,39.34 93.673335,39.4966651 93.34,39.81 C93.006665,40.1233349 92.8000004,40.5199976 92.72,41 L92.72,48 L91.12,48 L91.12,38 L92.24,38 L92.54,39.22 L92.62,39.22 C92.8733346,38.7666644 93.1766649,38.4166679 93.53,38.17 C93.8833351,37.9233321 94.3333306,37.8 94.88,37.8 C95.2666686,37.8 95.6999976,37.866666 96.18,38 L95.84,39.54 Z M97.66,38.74 C98.1666692,38.4333318 98.7566633,38.2066674 99.43,38.06 C100.103337,37.9133326 100.806663,37.84 101.54,37.84 C102.233337,37.84 102.789998,37.9333324 103.21,38.12 C103.630002,38.3066676 103.949999,38.5499985 104.17,38.85 C104.390001,39.1500015 104.536666,39.4799982 104.61,39.84 C104.683334,40.2000018 104.72,40.5599982 104.72,40.92 C104.72,41.720004 104.7,42.4999962 104.66,43.26 C104.62,44.0200038 104.6,44.7399966 104.6,45.42 C104.6,45.9133358 104.62,46.3799978 104.66,46.82 C104.7,47.2600022 104.773333,47.6666648 104.88,48.04 L103.7,48.04 L103.28,46.64 L103.18,46.64 C103.059999,46.8266676 102.910001,47.0099991 102.73,47.19 C102.549999,47.3700009 102.333335,47.5299993 102.08,47.67 C101.826665,47.8100007 101.533335,47.9266662 101.2,48.02 C100.866665,48.1133338 100.486669,48.16 100.06,48.16 C99.6333312,48.16 99.2366685,48.093334 98.87,47.96 C98.5033315,47.826666 98.186668,47.6366679 97.92,47.39 C97.653332,47.1433321 97.4433341,46.8466684 97.29,46.5 C97.1366659,46.1533316 97.06,45.7600022 97.06,45.32 C97.06,44.7333304 97.1799988,44.2433353 97.42,43.85 C97.6600012,43.4566647 97.9966645,43.1433345 98.43,42.91 C98.8633355,42.6766655 99.3833303,42.5100005 99.99,42.41 C100.59667,42.3099995 101.266663,42.26 102,42.26 L102.55,42.26 C102.730001,42.26 102.913332,42.2733332 103.1,42.3 C103.14,41.899998 103.16,41.5400016 103.16,41.22 C103.16,40.486663 103.013335,39.9733348 102.72,39.68 C102.426665,39.3866652 101.893337,39.24 101.12,39.24 C100.893332,39.24 100.650001,39.2566665 100.39,39.29 C100.129999,39.3233335 99.8633347,39.3699997 99.59,39.43 C99.3166653,39.4900003 99.0566679,39.5633329 98.81,39.65 C98.5633321,39.7366671 98.3466676,39.8333328 98.16,39.94 L97.66,38.74 Z M100.5,46.76 C100.873335,46.76 101.206665,46.7100005 101.5,46.61 C101.793335,46.5099995 102.046666,46.3833341 102.26,46.23 C102.473334,46.0766659 102.649999,45.9066676 102.79,45.72 C102.930001,45.5333324 103.033333,45.3533342 103.1,45.18 L103.1,43.52 C102.913332,43.5066666 102.723334,43.4966667 102.53,43.49 C102.336666,43.4833333 102.146668,43.48 101.96,43.48 C101.546665,43.48 101.143335,43.5033331 100.75,43.55 C100.356665,43.5966669 100.010001,43.6833327 99.71,43.81 C99.4099985,43.9366673 99.1700009,44.1099989 98.99,44.33 C98.8099991,44.5500011 98.72,44.826665 98.72,45.16 C98.72,45.626669 98.886665,46.0099985 99.22,46.31 C99.553335,46.6100015 99.9799974,46.76 100.5,46.76 Z M114.06,48 L114.06,42.3 C114.06,41.2599948 113.910001,40.4766693 113.61,39.95 C113.309998,39.4233307 112.760004,39.16 111.96,39.16 C111.25333,39.16 110.670002,39.3499981 110.21,39.73 C109.749998,40.1100019 109.426668,40.5866638 109.24,41.16 L109.24,48 L107.64,48 L107.64,38 L108.76,38 L109.06,39.22 L109.14,39.22 C109.460002,38.7933312 109.889997,38.4433347 110.43,38.17 C110.970003,37.8966653 111.61333,37.76 112.36,37.76 C112.906669,37.76 113.386665,37.8233327 113.8,37.95 C114.213335,38.0766673 114.556665,38.2999984 114.83,38.62 C115.103335,38.9400016 115.309999,39.3699973 115.45,39.91 C115.590001,40.4500027 115.66,41.1333292 115.66,41.96 L115.66,48 L114.06,48 Z M126.16,44.56 C126.16,45.2400034 126.166667,45.8566639 126.18,46.41 C126.193333,46.9633361 126.253333,47.506664 126.36,48.04 L125.28,48.04 L124.88,46.62 L124.8,46.62 C124.533332,47.086669 124.146669,47.4733318 123.64,47.78 C123.133331,48.0866682 122.540003,48.24 121.86,48.24 C120.52666,48.24 119.53667,47.8200042 118.89,46.98 C118.24333,46.1399958 117.92,44.8266756 117.92,43.04 C117.92,41.3333248 118.323329,40.0366711 119.13,39.15 C119.936671,38.2633289 121.04666,37.82 122.46,37.82 C122.953336,37.82 123.343332,37.8466664 123.63,37.9 C123.916668,37.9533336 124.226665,38.0399994 124.56,38.16 L124.56,34 L126.16,34 L126.16,44.56 Z M122.12,46.84 C122.800003,46.84 123.339998,46.6633351 123.74,46.31 C124.140002,45.9566649 124.413333,45.4200036 124.56,44.7 L124.56,39.74 C124.319999,39.5533324 124.046668,39.4200004 123.74,39.34 C123.433332,39.2599996 123.026669,39.22 122.52,39.22 C121.599995,39.22 120.880003,39.5233303 120.36,40.13 C119.839997,40.7366697 119.58,41.70666 119.58,43.04 C119.58,43.5866694 119.623333,44.093331 119.71,44.56 C119.796667,45.026669 119.939999,45.426665 120.14,45.76 C120.340001,46.093335 120.603332,46.3566657 120.93,46.55 C121.256668,46.7433343 121.653331,46.84 122.12,46.84 Z M136.44,47.2 C136.039998,47.5200016 135.53667,47.7733324 134.93,47.96 C134.32333,48.1466676 133.680003,48.24 133,48.24 C132.239996,48.24 131.580003,48.1166679 131.02,47.87 C130.459997,47.6233321 130.000002,47.2700023 129.64,46.81 C129.279998,46.3499977 129.013334,45.8000032 128.84,45.16 C128.666666,44.5199968 128.58,43.800004 128.58,43 C128.58,41.2933248 128.959996,39.9933378 129.72,39.1 C130.480004,38.2066622 131.56666,37.76 132.98,37.76 C133.433336,37.76 133.886664,37.8099995 134.34,37.91 C134.793336,38.0100005 135.199998,38.1999986 135.56,38.48 C135.920002,38.7600014 136.213332,39.1566641 136.44,39.67 C136.666668,40.1833359 136.78,40.8599958 136.78,41.7 C136.78,42.1400022 136.74,42.626664 136.66,43.16 L130.24,43.16 C130.24,43.7466696 130.299999,44.2666644 130.42,44.72 C130.540001,45.1733356 130.726665,45.5566651 130.98,45.87 C131.233335,46.1833349 131.563331,46.4233325 131.97,46.59 C132.376669,46.7566675 132.87333,46.84 133.46,46.84 C133.913336,46.84 134.366664,46.7600008 134.82,46.6 C135.273336,46.4399992 135.613332,46.2533344 135.84,46.04 L136.44,47.2 Z M133,39.16 C132.213329,39.16 131.583336,39.3666646 131.11,39.78 C130.636664,40.1933354 130.353334,40.899995 130.26,41.9 L135.22,41.9 C135.22,40.8866616 135.026669,40.1766687 134.64,39.77 C134.253331,39.3633313 133.70667,39.16 133,39.16 Z M145.62,48 L145.62,42.3 C145.62,41.2599948 145.470001,40.4766693 145.17,39.95 C144.869998,39.4233307 144.320004,39.16 143.52,39.16 C142.81333,39.16 142.230002,39.3499981 141.77,39.73 C141.309998,40.1100019 140.986668,40.5866638 140.8,41.16 L140.8,48 L139.2,48 L139.2,38 L140.32,38 L140.62,39.22 L140.7,39.22 C141.020002,38.7933312 141.449997,38.4433347 141.99,38.17 C142.530003,37.8966653 143.17333,37.76 143.92,37.76 C144.466669,37.76 144.946665,37.8233327 145.36,37.95 C145.773335,38.0766673 146.116665,38.2999984 146.39,38.62 C146.663335,38.9400016 146.869999,39.3699973 147.01,39.91 C147.150001,40.4500027 147.22,41.1333292 147.22,41.96 L147.22,48 L145.62,48 Z M150.04,34 L151.64,34 L151.64,38.98 L151.72,38.98 C152.026668,38.5933314 152.416664,38.2933344 152.89,38.08 C153.363336,37.8666656 153.879997,37.76 154.44,37.76 C155.73334,37.76 156.70333,38.1733292 157.35,39 C157.99667,39.8266708 158.32,41.106658 158.32,42.84 C158.32,44.5866754 157.893338,45.9133288 157.04,46.82 C156.186662,47.7266712 154.986674,48.18 153.44,48.18 C152.69333,48.18 152.01667,48.1000008 151.41,47.94 C150.80333,47.7799992 150.346668,47.6066676 150.04,47.42 L150.04,34 Z M154.16,39.16 C153.49333,39.16 152.953335,39.3466648 152.54,39.72 C152.126665,40.0933352 151.826668,40.6199966 151.64,41.3 L151.64,46.34 C151.893335,46.4866674 152.199998,46.5966663 152.56,46.67 C152.920002,46.7433337 153.293331,46.78 153.68,46.78 C154.586671,46.78 155.309997,46.4600032 155.85,45.82 C156.390003,45.1799968 156.66,44.1800068 156.66,42.82 C156.66,42.2999974 156.613334,41.8133356 156.52,41.36 C156.426666,40.9066644 156.280001,40.5200016 156.08,40.2 C155.879999,39.8799984 155.623335,39.6266676 155.31,39.44 C154.996665,39.2533324 154.613336,39.16 154.16,39.16 Z M162.18,38 L162.18,43.7 C162.18,44.2200026 162.21,44.6766647 162.27,45.07 C162.33,45.4633353 162.433333,45.7899987 162.58,46.05 C162.726667,46.3100013 162.926665,46.506666 163.18,46.64 C163.433335,46.773334 163.753331,46.84 164.14,46.84 C164.500002,46.84 164.819999,46.7833339 165.1,46.67 C165.380001,46.5566661 165.629999,46.400001 165.85,46.2 C166.070001,45.999999 166.263332,45.7700013 166.43,45.51 C166.596667,45.2499987 166.733333,44.9733348 166.84,44.68 L166.84,38 L168.44,38 L168.44,45.16 C168.44,45.6400024 168.456666,46.1366641 168.49,46.65 C168.523333,47.1633359 168.58,47.6133314 168.66,48 L167.56,48 L167.16,46.42 L167.06,46.42 C166.753332,46.9400026 166.340003,47.3733316 165.82,47.72 C165.299997,48.0666684 164.640004,48.24 163.84,48.24 C163.306664,48.24 162.836669,48.1766673 162.43,48.05 C162.023331,47.9233327 161.683335,47.7000016 161.41,47.38 C161.136665,47.0599984 160.930001,46.6300027 160.79,46.09 C160.649999,45.5499973 160.58,44.8666708 160.58,44.04 L160.58,38 L162.18,38 Z M176.14,39.54 C175.739998,39.406666 175.360002,39.34 175,39.34 C174.426664,39.34 173.973335,39.4966651 173.64,39.81 C173.306665,40.1233349 173.1,40.5199976 173.02,41 L173.02,48 L171.42,48 L171.42,38 L172.54,38 L172.84,39.22 L172.92,39.22 C173.173335,38.7666644 173.476665,38.4166679 173.83,38.17 C174.183335,37.9233321 174.633331,37.8 175.18,37.8 C175.566669,37.8 175.999998,37.866666 176.48,38 L176.14,39.54 Z M185.78,48.46 C185.78,49.7533398 185.43667,50.7066636 184.75,51.32 C184.06333,51.9333364 183.046673,52.24 181.7,52.24 C180.899996,52.24 180.256669,52.1900005 179.77,52.09 C179.283331,51.9899995 178.866668,51.8600008 178.52,51.7 L178.94,50.34 C179.246668,50.4600006 179.586665,50.5733328 179.96,50.68 C180.333335,50.7866672 180.819997,50.84 181.42,50.84 C181.980003,50.84 182.436665,50.7900005 182.79,50.69 C183.143335,50.5899995 183.426666,50.4233345 183.64,50.19 C183.853334,49.9566655 184,49.6566685 184.08,49.29 C184.16,48.9233315 184.2,48.4866692 184.2,47.98 L184.2,47.02 L184.12,47.02 C183.853332,47.4066686 183.513335,47.7033323 183.1,47.91 C182.686665,48.1166677 182.14667,48.22 181.48,48.22 C180.133327,48.22 179.143336,47.8000042 178.51,46.96 C177.876663,46.1199958 177.56,44.8133422 177.56,43.04 C177.56,41.3333248 177.966663,40.0366711 178.78,39.15 C179.593337,38.2633289 180.793325,37.82 182.38,37.82 C183.140004,37.82 183.789997,37.8799994 184.33,38 C184.870003,38.1200006 185.353331,38.2599992 185.78,38.42 L185.78,48.46 Z M181.76,46.82 C182.440003,46.82 182.973331,46.6500017 183.36,46.31 C183.746669,45.9699983 184.019999,45.4400036 184.18,44.72 L184.18,39.6 C183.646664,39.3466654 182.966671,39.22 182.14,39.22 C181.233329,39.22 180.520003,39.5266636 180,40.14 C179.479997,40.7533364 179.22,41.7133268 179.22,43.02 C179.22,43.5800028 179.266666,44.093331 179.36,44.56 C179.453334,45.026669 179.599999,45.426665 179.8,45.76 C180.000001,46.093335 180.259998,46.3533324 180.58,46.54 C180.900002,46.7266676 181.293331,46.82 181.76,46.82 Z" id="Schul-CloudBrandenburg" fill="#FFFFFF" fill-rule="nonzero"></path>
            <path d="M24.2348377,44.43775 L46.7073377,44.42025 C47.5023377,44.42775 47.8273377,44.42775 48.2423377,44.41775 C49.6798377,44.41775 51.0023377,43.92525 52.0898377,43.11025 L53.9998377,45.09275 C52.5148377,46.25775 50.6923377,46.97025 48.6998377,46.97025 C48.2623377,46.98025 47.9148377,46.98025 47.0698377,46.97275 L23.8698377,46.98775 C19.5673377,47.07525 17.9423377,46.75775 16.1048377,44.78525 C11.2773377,39.60525 15.2748377,32.02525 22.8073377,33.04275 C23.3073377,29.29275 26.0673377,26.88275 29.3673377,27.00525 L32.9423377,29.47775 C32.6823377,29.90275 32.1448377,30.10025 31.6673377,29.85525 C28.2973377,28.13275 25.1548377,30.30275 25.1673377,34.27025 C25.1698377,34.94275 24.5673377,35.44025 23.9373377,35.28525 C17.8423377,33.79025 14.7198377,39.19525 18.2073377,42.94025 C19.4598377,44.28275 20.6173377,44.51025 24.2348377,44.43775 Z M34.0005877,17 L44.4130877,17 L51.2105877,25.54 L55.1280877,25.025 L57.2405877,26.38 L57.2405877,27.6925 L56.5005877,26.945 L55.1280877,26.945 L54.0855877,27.8625 L64.0005877,33.275 L64.0005877,42 L58.8455877,35.8475 L47.4355877,30.46 L43.0980877,33.445 L36.9705877,31.88 L38.9030877,30.305 L46.2205877,29.23 L41.8130877,21.8975 L34.0005877,17 Z" id="Combined-Shape" fill="#FFFFFF"></path>
        </g>
    </g>
</svg>