<svg xmlns="http://www.w3.org/2000/svg" width="59" height="60" xmlns:v="https://vecta.io/nano"><path d="M20.137 25.001l.229.004 3.575 2.473c-.26.425-.797.623-1.275.378-3.37-1.723-6.512.447-6.5 4.415.003.672-.6 1.17-1.23 1.015-6.095-1.495-9.218 3.91-5.73 7.655 1.253 1.343 2.41 1.57 6.028 1.498h0l22.473-.017.764.005h.28l.491-.007c1.438 0 2.76-.492 3.847-1.307h0l1.91 1.983c-1.485 1.165-3.308 1.877-5.3 1.877l-.118.002-.232.004a65.57 65.57 0 0 1-1.28-.004h0l-23.2.015c-4.302.088-5.927-.23-7.765-2.203-4.828-5.18-.83-12.76 6.702-11.742.5-3.75 3.26-6.16 6.56-6.038zM35.413 15l6.797 8.54 3.917-.515 2.113 1.355v1.313l-.74-.748h-1.373l-1.042.918L55 31.275V40l-5.155-6.152-11.41-5.388-4.338 2.985-6.127-1.565 1.933-1.575 7.317-1.075-4.407-7.332L25 15h10.413z" fill="#e4032e" fill-rule="evenodd"/></svg>