<svg width="161" height="35" viewBox="0 0 161 35" fill="none" xmlns="http://www.w3.org/2000/svg">
<path fill-rule="evenodd" clip-rule="evenodd" d="M24.2867 8.03973L17.4647 3.76318H26.557L32.4926 11.2204L35.9134 10.7707L37.7581 11.9539V13.1L37.1119 12.4473H35.9134L35.0031 13.2484L43.661 17.9747V25.5934L39.1596 20.221L29.1963 15.5166L25.4087 18.1231L20.0581 16.7565L21.7456 15.3812L28.1353 14.4425L24.2867 8.03973ZM3.67389 26.4144C4.76758 27.5867 5.77832 27.7854 8.93716 27.7221L28.5604 27.7068C29.2546 27.7133 29.5384 27.7133 29.9007 27.7046C31.156 27.7046 32.3108 27.2745 33.2604 26.5629L34.9282 28.294C33.6315 29.3113 32.0401 29.9335 30.3002 29.9335C29.9182 29.9422 29.6148 29.9422 28.8769 29.9357L8.61844 29.9487C4.86145 30.0252 3.44249 29.7479 1.83796 28.0255C-2.37746 23.5023 1.1132 16.8833 7.69065 17.7718C8.12726 14.4973 10.5373 12.3929 13.4189 12.4998L16.5406 14.6588C16.3136 15.03 15.8442 15.2024 15.4273 14.9885C12.4846 13.4844 9.74051 15.3792 9.75143 18.8437C9.75361 19.4309 9.2275 19.8654 8.67738 19.73C3.35517 18.4246 0.628569 23.1443 3.67389 26.4144Z" fill="#E4032E"/>
<path fill-rule="evenodd" clip-rule="evenodd" d="M62.5115 9.22962C62.5115 8.85705 62.3747 8.55434 62.1011 8.32148C61.8275 8.08863 61.484 7.87615 61.0707 7.68404C60.6574 7.49193 60.2092 7.29401 59.726 7.09026C59.2428 6.88651 58.7946 6.63619 58.3812 6.3393C57.9679 6.04241 57.6245 5.67275 57.3508 5.23032C57.0772 4.78789 56.9404 4.22322 56.9404 3.5363C56.9404 2.94251 57.0394 2.42732 57.2373 1.99071C57.4353 1.55411 57.7176 1.19027 58.0843 0.899203C58.4511 0.608131 58.8848 0.392742 59.3854 0.253027C59.8861 0.113313 60.4449 0.043457 61.062 0.043457C61.7722 0.043457 62.4417 0.104581 63.0704 0.226831C63.6991 0.349081 64.2172 0.526632 64.6247 0.759489L63.8737 2.76787C63.6176 2.60487 63.2334 2.45643 62.7211 2.32253C62.2088 2.18864 61.6558 2.1217 61.062 2.1217C60.5031 2.1217 60.0753 2.2323 59.7784 2.45352C59.4815 2.67473 59.333 2.97162 59.333 3.34419C59.333 3.69348 59.4698 3.98454 59.7434 4.2174C60.017 4.45026 60.3605 4.66565 60.7738 4.86357C61.1872 5.0615 61.6354 5.26525 62.1186 5.47482C62.6017 5.68439 63.05 5.93762 63.4633 6.23451C63.8766 6.53141 64.2201 6.89815 64.4937 7.33476C64.7673 7.77137 64.9041 8.31566 64.9041 8.96766C64.9041 9.61966 64.7964 10.1814 64.581 10.653C64.3656 11.1245 64.0629 11.5174 63.6729 11.8318C63.2828 12.1461 62.8113 12.379 62.2583 12.5304C61.7052 12.6817 61.0969 12.7574 60.4333 12.7574C59.5601 12.7574 58.7916 12.6759 58.128 12.5129C57.4644 12.3499 56.9754 12.1869 56.661 12.0239L57.4294 9.98058C57.5575 10.0504 57.7234 10.1261 57.9272 10.2076C58.1309 10.2891 58.3609 10.3648 58.617 10.4347C58.8731 10.5045 59.1438 10.5627 59.4291 10.6093C59.7143 10.6559 60.0083 10.6792 60.311 10.6792C61.0212 10.6792 61.5655 10.5598 61.9439 10.3211C62.3223 10.0825 62.5115 9.71862 62.5115 9.22962ZM73.0599 11.9714C72.7106 12.2275 72.2885 12.4226 71.7937 12.5564C71.2989 12.6903 70.7895 12.7573 70.2656 12.7573C69.567 12.7573 68.9762 12.6467 68.493 12.4255C68.0098 12.2043 67.6169 11.8928 67.3142 11.4911C67.0114 11.0895 66.7931 10.6034 66.6592 10.0329C66.5254 9.46237 66.4584 8.83367 66.4584 8.14674C66.4584 6.6681 66.7902 5.53003 67.4539 4.73249C68.1175 3.93495 69.0839 3.53619 70.3529 3.53619C70.9933 3.53619 71.5085 3.58859 71.8985 3.69337C72.2885 3.79816 72.6407 3.93205 72.9551 4.09505L72.4137 5.94625C72.1459 5.81818 71.881 5.71922 71.6191 5.64936C71.3571 5.5795 71.0573 5.54458 70.7197 5.54458C70.091 5.54458 69.6136 5.75123 69.2876 6.16455C68.9616 6.57788 68.7986 7.2386 68.7986 8.14674C68.7986 8.51931 68.8394 8.86277 68.9209 9.17713C69.0024 9.49148 69.1246 9.76509 69.2876 9.99794C69.4506 10.2308 69.6631 10.4142 69.9251 10.5481C70.187 10.682 70.4926 10.7489 70.8419 10.7489C71.2261 10.7489 71.5521 10.6994 71.8199 10.6005C72.0877 10.5015 72.3264 10.3822 72.5359 10.2424L73.0599 11.9714ZM80.2202 7.55301V12.5128H82.4906V7.08147C82.4906 6.40619 82.4353 5.83861 82.3246 5.37872C82.214 4.91882 82.0452 4.55499 81.8182 4.2872C81.5911 4.01942 81.3088 3.82731 80.9712 3.71089C80.6335 3.59446 80.2435 3.53624 79.8011 3.53624C79.1724 3.53624 78.6543 3.64685 78.2468 3.86806C77.8393 4.08928 77.4958 4.38617 77.2164 4.75874H77.1465V0.287903H74.8762V12.5128H77.1465V6.94176C77.2513 6.53426 77.4638 6.19953 77.784 5.93757C78.1041 5.67561 78.4563 5.54463 78.8405 5.54463C79.3645 5.54463 79.7254 5.7018 79.9233 6.01616C80.1212 6.33052 80.2202 6.84279 80.2202 7.55301ZM87.0138 3.78064V8.74047C87.0138 9.45068 87.0982 9.96296 87.2671 10.2773C87.4359 10.5917 87.7648 10.7489 88.2538 10.7489C88.6846 10.7489 89.0426 10.6208 89.3278 10.3646C89.6131 10.1085 89.8256 9.79414 89.9653 9.42157V3.78064H92.2356V9.85818C92.2356 10.3355 92.2589 10.8042 92.3055 11.264C92.3521 11.7239 92.4219 12.1402 92.5151 12.5127H90.8036L90.4019 11.2204H90.332C90.0642 11.6628 89.6917 12.0296 89.2143 12.3206C88.737 12.6117 88.1723 12.7572 87.5203 12.7572C87.0779 12.7572 86.682 12.699 86.3327 12.5826C85.9834 12.4662 85.6924 12.2741 85.4595 12.0063C85.2267 11.7385 85.0491 11.3776 84.9269 10.9235C84.8046 10.4694 84.7435 9.89893 84.7435 9.212V3.78064H87.0138ZM97.1606 10.4695C97.0558 10.2832 97.0034 9.98635 97.0034 9.57885V0.287903H94.733V10.7664C94.733 11.4766 94.9077 11.986 95.257 12.2945C95.6062 12.6031 96.1127 12.7573 96.7763 12.7573C97.1838 12.7573 97.5797 12.7108 97.9639 12.6176C98.3481 12.5245 98.6334 12.4313 98.8197 12.3382L98.5752 10.5568C98.3772 10.6383 98.2113 10.6907 98.0774 10.714C97.9435 10.7373 97.8067 10.749 97.667 10.749C97.4342 10.749 97.2653 10.6558 97.1606 10.4695ZM100.182 6.48739H104.565V8.49578H100.182V6.48739ZM113.865 12.5827C114.441 12.4663 114.916 12.2742 115.288 12.0064L114.799 10.0504C114.531 10.2134 114.217 10.3473 113.856 10.4521C113.495 10.5569 113.053 10.6093 112.529 10.6093C111.97 10.6093 111.478 10.5074 111.053 10.3037C110.628 10.0999 110.273 9.81468 109.988 9.44793C109.703 9.08118 109.49 8.63875 109.35 8.12065C109.211 7.60254 109.141 7.02914 109.141 6.40042C109.141 4.95671 109.435 3.8914 110.023 3.20448C110.611 2.51755 111.388 2.17409 112.354 2.17409C112.878 2.17409 113.324 2.2032 113.69 2.26141C114.057 2.31962 114.374 2.41277 114.642 2.54084L115.114 0.51499C114.799 0.386919 114.4 0.276313 113.917 0.183171C113.434 0.0900277 112.843 0.043457 112.145 0.043457C111.493 0.043457 110.841 0.151152 110.189 0.366545C109.537 0.581937 108.946 0.937039 108.416 1.43186C107.886 1.92668 107.456 2.57867 107.124 3.38785C106.792 4.19703 106.626 5.20121 106.626 6.40042C106.626 7.55307 106.774 8.53396 107.071 9.34314C107.368 10.1523 107.767 10.8101 108.268 11.3166C108.768 11.8231 109.348 12.1898 110.005 12.4168C110.663 12.6439 111.359 12.7574 112.092 12.7574C112.698 12.7574 113.289 12.6992 113.865 12.5827ZM119.497 9.57885C119.497 9.98635 119.55 10.2832 119.654 10.4695C119.759 10.6558 119.928 10.749 120.161 10.749C120.301 10.749 120.437 10.7373 120.571 10.714C120.705 10.6907 120.871 10.6383 121.069 10.5568L121.314 12.3382C121.127 12.4313 120.842 12.5245 120.458 12.6176C120.074 12.7108 119.678 12.7573 119.27 12.7573C118.607 12.7573 118.1 12.6031 117.751 12.2945C117.402 11.986 117.227 11.4766 117.227 10.7664V0.287903H119.497V9.57885ZM123.392 4.73249C122.67 5.53003 122.309 6.6681 122.309 8.14674C122.309 8.83367 122.393 9.46237 122.562 10.0329C122.731 10.6034 122.987 11.0895 123.331 11.4911C123.674 11.8928 124.102 12.2043 124.614 12.4255C125.126 12.6467 125.732 12.7573 126.43 12.7573C127.734 12.7573 128.744 12.3585 129.46 11.561C130.177 10.7635 130.535 9.62538 130.535 8.14674C130.535 7.45981 130.45 6.83111 130.281 6.26061C130.112 5.69011 129.859 5.20403 129.522 4.80235C129.184 4.40067 128.759 4.08923 128.247 3.86801C127.734 3.6468 127.129 3.53619 126.43 3.53619C125.126 3.53619 124.114 3.93495 123.392 4.73249ZM124.649 8.14691C124.649 8.53113 124.684 8.88623 124.754 9.21223C124.824 9.53823 124.929 9.82347 125.068 10.068C125.208 10.3125 125.391 10.5017 125.618 10.6356C125.845 10.7695 126.116 10.8364 126.431 10.8364C127.024 10.8364 127.467 10.621 127.758 10.1902C128.049 9.75944 128.194 9.07834 128.194 8.14691C128.194 7.34356 128.061 6.69448 127.793 6.19966C127.525 5.70483 127.071 5.45743 126.431 5.45743C125.872 5.45743 125.435 5.66699 125.121 6.08614C124.806 6.50528 124.649 7.1922 124.649 8.14691ZM134.726 8.74047V3.78064H132.456V9.212C132.456 9.89893 132.517 10.4694 132.639 10.9235C132.761 11.3776 132.939 11.7385 133.172 12.0063C133.405 12.2741 133.696 12.4662 134.045 12.5826C134.394 12.699 134.79 12.7572 135.232 12.7572C135.884 12.7572 136.449 12.6117 136.927 12.3206C137.404 12.0296 137.776 11.6628 138.044 11.2204H138.114L138.516 12.5127H140.227C140.134 12.1402 140.064 11.7239 140.018 11.264C139.971 10.8042 139.948 10.3355 139.948 9.85818V3.78064H137.677V9.42157C137.538 9.79414 137.325 10.1085 137.04 10.3646C136.755 10.6208 136.397 10.7489 135.966 10.7489C135.477 10.7489 135.148 10.5917 134.979 10.2773C134.81 9.96296 134.726 9.45068 134.726 8.74047ZM149.798 9.43914C149.798 9.92814 149.803 10.4171 149.815 10.9061C149.827 11.3951 149.879 11.9365 149.972 12.5303H148.348L148.034 11.3951H147.964C147.731 11.8026 147.396 12.1315 146.96 12.3819C146.523 12.6322 146.008 12.7573 145.414 12.7573C144.32 12.7573 143.47 12.3964 142.864 11.6746C142.259 10.9527 141.956 9.82336 141.956 8.2865C141.956 6.79622 142.294 5.63777 142.969 4.81113C143.644 3.98449 144.634 3.57117 145.938 3.57117C146.299 3.57117 146.596 3.59155 146.829 3.6323C147.061 3.67305 147.294 3.73999 147.527 3.83313V0.287903H149.798V9.43914ZM146.986 10.5132C146.73 10.7286 146.38 10.8363 145.938 10.8363C145.368 10.8363 144.951 10.6092 144.689 10.1552C144.427 9.70109 144.296 9.10149 144.296 8.35634C144.296 7.30849 144.457 6.56918 144.777 6.13839C145.097 5.70761 145.577 5.49222 146.217 5.49222C146.532 5.49222 146.788 5.52423 146.986 5.58827C147.184 5.65231 147.364 5.74836 147.527 5.87643V9.57884C147.423 9.98634 147.242 10.2978 146.986 10.5132ZM65.0439 20.5464C65.0439 20.8375 64.9973 21.1344 64.9042 21.4371C64.811 21.7398 64.6713 22.0221 64.485 22.2841C64.2987 22.5461 64.0601 22.776 63.769 22.9739C63.4779 23.1719 63.1345 23.3232 62.7386 23.428V23.4979C63.0879 23.5561 63.4226 23.655 63.7428 23.7947C64.063 23.9345 64.3453 24.1266 64.5898 24.3711C64.8343 24.6156 65.0322 24.9125 65.1836 25.2617C65.3349 25.611 65.4106 26.0243 65.4106 26.5017C65.4106 27.1304 65.2796 27.6747 65.0177 28.1346C64.7557 28.5945 64.4123 28.97 63.9873 29.261C63.5623 29.5521 63.0762 29.7675 62.529 29.9072C61.9818 30.0469 61.423 30.1168 60.8525 30.1168H60.1539C59.8861 30.1168 59.6067 30.1081 59.3156 30.0906C59.0245 30.0731 58.7335 30.0498 58.4424 30.0207C58.1513 29.9916 57.8952 29.948 57.674 29.8898V17.8569C58.1048 17.7871 58.6054 17.7289 59.1759 17.6823C59.7464 17.6357 60.3693 17.6124 61.0446 17.6124C61.4986 17.6124 61.9614 17.6503 62.433 17.7259C62.9045 17.8016 63.3324 17.9472 63.7166 18.1625C64.1008 18.3779 64.4181 18.6777 64.6684 19.062C64.9187 19.4462 65.0439 19.941 65.0439 20.5464ZM62.0749 28.7282C61.7256 28.8156 61.3647 28.8592 60.9921 28.8592C60.8524 28.8592 60.6894 28.8563 60.5031 28.8505C60.3168 28.8447 60.1364 28.8359 59.9617 28.8243C59.7871 28.8126 59.6241 28.801 59.4727 28.7894C59.3214 28.7777 59.2049 28.7602 59.1234 28.737V24.3534H60.6428C61.027 24.3534 61.4112 24.3826 61.7955 24.4408C62.1797 24.499 62.526 24.6096 62.8346 24.7726C63.1431 24.9356 63.3934 25.1626 63.5855 25.4537C63.7776 25.7448 63.8737 26.129 63.8737 26.6063C63.8737 26.9905 63.7951 27.3224 63.6379 27.6018C63.4808 27.8812 63.2683 28.117 63.0005 28.3091C62.7327 28.5012 62.4242 28.6409 62.0749 28.7282ZM60.0316 23.1312C60.2295 23.1312 60.4682 23.1253 60.7476 23.1137C61.027 23.1021 61.2599 23.0846 61.4462 23.0613C61.7256 22.9682 61.9876 22.8546 62.2321 22.7208C62.4766 22.5869 62.6949 22.4297 62.887 22.2492C63.0791 22.0688 63.2304 21.8592 63.341 21.6205C63.4516 21.3818 63.5069 21.1228 63.5069 20.8434C63.5069 20.4591 63.4342 20.1419 63.2886 19.8916C63.1431 19.6412 62.9481 19.4404 62.7036 19.289C62.4591 19.1377 62.1797 19.03 61.8653 18.966C61.551 18.9019 61.2308 18.8699 60.9048 18.8699C60.5206 18.8699 60.1684 18.8786 59.8482 18.8961C59.528 18.9136 59.2864 18.9398 59.1234 18.9747V23.1312H60.0316ZM70.7721 22.4151C71.0864 22.4151 71.4182 22.4733 71.7675 22.5898L72.0644 21.245C71.6453 21.1286 71.2669 21.0704 70.9292 21.0704C70.4519 21.0704 70.0589 21.1781 69.7504 21.3935C69.4419 21.6088 69.177 21.9145 68.9558 22.3103H68.8859L68.624 21.245H67.646V29.9771H69.0431V23.8646C69.113 23.4455 69.2934 23.0991 69.5845 22.8255C69.8756 22.5519 70.2714 22.4151 70.7721 22.4151ZM73.3568 21.891C73.7992 21.6233 74.3144 21.4253 74.9024 21.2973C75.4904 21.1692 76.1045 21.1052 76.7449 21.1052C77.3503 21.1052 77.8364 21.1867 78.2031 21.3497C78.5699 21.5127 78.8493 21.7251 79.0414 21.9871C79.2335 22.2491 79.3616 22.5372 79.4256 22.8516C79.4897 23.1659 79.5217 23.4803 79.5217 23.7946C79.5217 24.4932 79.5042 25.1743 79.4693 25.838C79.4343 26.5016 79.4169 27.1303 79.4169 27.7241C79.4169 28.1549 79.4343 28.5624 79.4693 28.9466C79.5042 29.3308 79.5682 29.6859 79.6614 30.0119H78.631L78.2642 28.7894H78.1769C78.0721 28.9524 77.9412 29.1125 77.784 29.2697C77.6268 29.4268 77.4376 29.5666 77.2164 29.6888C76.9952 29.8111 76.739 29.9129 76.448 29.9944C76.1569 30.0759 75.8251 30.1167 75.4525 30.1167C75.0799 30.1167 74.7336 30.0585 74.4134 29.942C74.0932 29.8256 73.8167 29.6597 73.5838 29.4443C73.351 29.2289 73.1676 28.9699 73.0337 28.6672C72.8998 28.3644 72.8329 28.021 72.8329 27.6368C72.8329 27.1245 72.9377 26.6966 73.1472 26.3531C73.3568 26.0097 73.6508 25.7361 74.0292 25.5323C74.4076 25.3286 74.8616 25.183 75.3914 25.0957C75.9211 25.0084 76.5062 24.9647 77.1465 24.9647H77.6268C77.784 24.9647 77.9441 24.9764 78.1071 24.9997C78.142 24.6504 78.1595 24.336 78.1595 24.0566C78.1595 23.4163 78.0314 22.968 77.7752 22.7119C77.5191 22.4557 77.0534 22.3277 76.3781 22.3277C76.1802 22.3277 75.9677 22.3422 75.7407 22.3713C75.5136 22.4004 75.2808 22.4412 75.0421 22.4936C74.8034 22.546 74.5764 22.61 74.361 22.6857C74.1456 22.7613 73.9564 22.8458 73.7934 22.9389L73.3568 21.891ZM76.71 28.7634C76.4538 28.8507 76.1628 28.8944 75.8368 28.8944C75.3827 28.8944 75.0101 28.7634 74.7191 28.5014C74.428 28.2395 74.2824 27.9047 74.2824 27.4972C74.2824 27.2062 74.361 26.9646 74.5182 26.7725C74.6754 26.5804 74.885 26.429 75.1469 26.3184C75.4089 26.2078 75.7116 26.1321 76.0551 26.0914C76.3985 26.0506 76.7507 26.0302 77.1116 26.0302C77.2746 26.0302 77.4406 26.0331 77.6094 26.039C77.7782 26.0448 77.9441 26.0535 78.1071 26.0652V27.5147C78.0489 27.666 77.9587 27.8232 77.8364 27.9862C77.7142 28.1492 77.5599 28.2977 77.3736 28.4316C77.1873 28.5655 76.9661 28.6761 76.71 28.7634ZM87.6774 29.9772V25C87.6774 24.0918 87.5464 23.4078 87.2845 22.9479C87.0225 22.488 86.5422 22.2581 85.8437 22.2581C85.2266 22.2581 84.7172 22.424 84.3156 22.7558C83.9139 23.0876 83.6315 23.5038 83.4685 24.0045V29.9772H82.0714V21.2451H83.0494L83.3114 22.3105H83.3812C83.6607 21.9379 84.0361 21.6323 84.5077 21.3936C84.9792 21.1549 85.541 21.0356 86.193 21.0356C86.6703 21.0356 87.0895 21.0909 87.4504 21.2015C87.8113 21.3121 88.1111 21.5071 88.3498 21.7865C88.5885 22.066 88.7689 22.4414 88.8912 22.913C89.0134 23.3845 89.0746 23.9812 89.0746 24.7031V29.9772H87.6774ZM98.2606 28.5886C98.249 28.1054 98.2432 27.5669 98.2432 26.9731V17.752H96.846V21.3846C96.555 21.2798 96.2843 21.2041 96.0339 21.1576C95.7836 21.111 95.4431 21.0877 95.0123 21.0877C93.7782 21.0877 92.8089 21.4748 92.1045 22.2491C91.4001 23.0233 91.0479 24.1556 91.0479 25.6459C91.0479 27.206 91.3303 28.3528 91.8949 29.0863C92.4596 29.8198 93.3241 30.1865 94.4884 30.1865C95.0822 30.1865 95.6003 30.0527 96.0427 29.7849C96.4851 29.5171 96.8227 29.1794 97.0556 28.7719H97.1255L97.4747 30.0119H98.4178C98.3247 29.5462 98.2723 29.0718 98.2606 28.5886ZM94.7155 28.9643C95.3093 28.9643 95.7808 28.81 96.1301 28.5015C96.4794 28.193 96.7181 27.7244 96.8461 27.0956V22.7645C96.6366 22.6015 96.3979 22.4851 96.1301 22.4152C95.8623 22.3454 95.5072 22.3104 95.0648 22.3104C94.2614 22.3104 93.6327 22.5753 93.1786 23.1051C92.7246 23.6348 92.4975 24.4818 92.4975 25.6461C92.4975 26.1235 92.5354 26.5659 92.6111 26.9734C92.6867 27.3809 92.8119 27.7302 92.9865 28.0212C93.1612 28.3123 93.3911 28.5423 93.6764 28.7111C93.9616 28.8799 94.308 28.9643 94.7155 28.9643ZM105.901 29.9423C106.431 29.7793 106.871 29.5581 107.22 29.2787L106.696 28.2658C106.498 28.452 106.201 28.615 105.805 28.7548C105.409 28.8945 105.014 28.9643 104.618 28.9643C104.105 28.9643 103.672 28.8916 103.317 28.746C102.962 28.6005 102.673 28.3909 102.452 28.1173C102.231 27.8437 102.068 27.509 101.963 27.1131C101.858 26.7173 101.806 26.2632 101.806 25.7509H107.412C107.482 25.2852 107.517 24.8602 107.517 24.476C107.517 23.7425 107.418 23.1517 107.22 22.7034C107.022 22.2552 106.766 21.9088 106.451 21.6643C106.137 21.4198 105.782 21.2539 105.386 21.1666C104.99 21.0792 104.594 21.0356 104.199 21.0356C102.964 21.0356 102.016 21.4256 101.352 22.2057C100.688 22.9858 100.356 24.1209 100.356 25.6112C100.356 26.3098 100.432 26.9385 100.584 27.4973C100.735 28.0562 100.968 28.5364 101.282 28.9381C101.596 29.3398 101.998 29.6483 102.487 29.8637C102.976 30.0791 103.552 30.1868 104.216 30.1868C104.81 30.1868 105.372 30.1053 105.901 29.9423ZM104.216 22.2578C103.529 22.2578 102.979 22.4383 102.566 22.7992C102.152 23.1601 101.905 23.7772 101.823 24.6504H106.155C106.155 23.7655 105.986 23.1456 105.648 22.7905C105.31 22.4354 104.833 22.2578 104.216 22.2578ZM115.236 25V29.9772H116.633V24.7031C116.633 23.9812 116.572 23.3845 116.45 22.913C116.327 22.4414 116.147 22.066 115.908 21.7865C115.67 21.5071 115.37 21.3121 115.009 21.2015C114.648 21.0909 114.229 21.0356 113.751 21.0356C113.099 21.0356 112.538 21.1549 112.066 21.3936C111.595 21.6323 111.219 21.9379 110.94 22.3105H110.87L110.608 21.2451H109.63V29.9772H111.027V24.0045C111.19 23.5038 111.472 23.0876 111.874 22.7558C112.276 22.424 112.785 22.2581 113.402 22.2581C114.101 22.2581 114.581 22.488 114.843 22.9479C115.105 23.4078 115.236 24.0918 115.236 25ZM119.095 17.752H120.493V22.1006H120.562C120.83 21.763 121.171 21.501 121.584 21.3147C121.997 21.1285 122.449 21.0353 122.938 21.0353C124.067 21.0353 124.914 21.3962 125.479 22.1181C126.043 22.8399 126.326 23.9576 126.326 25.4712C126.326 26.9964 125.953 28.1549 125.208 28.9466C124.463 29.7383 123.415 30.1342 122.064 30.1342C121.412 30.1342 120.822 30.0643 120.292 29.9246C119.762 29.7849 119.363 29.6335 119.095 29.4705V17.752ZM121.279 22.7468C121.64 22.4208 122.111 22.2578 122.693 22.2578C123.089 22.2578 123.424 22.3393 123.697 22.5023C123.971 22.6653 124.195 22.8865 124.37 23.1659C124.544 23.4454 124.672 23.783 124.754 24.1789C124.835 24.5747 124.876 24.9997 124.876 25.4538C124.876 26.6413 124.64 27.5145 124.169 28.0734C123.697 28.6322 123.066 28.9117 122.274 28.9117C121.936 28.9117 121.61 28.8796 121.296 28.8156C120.982 28.7516 120.714 28.6555 120.493 28.5275V24.1265C120.656 23.5327 120.918 23.0728 121.279 22.7468ZM129.696 21.2448V26.2221C129.696 26.6761 129.723 27.0749 129.775 27.4184C129.827 27.7618 129.918 28.0471 130.046 28.2741C130.174 28.5012 130.348 28.6729 130.57 28.7893C130.791 28.9057 131.07 28.9639 131.408 28.9639C131.722 28.9639 132.002 28.9145 132.246 28.8155C132.491 28.7165 132.709 28.5797 132.901 28.4051C133.093 28.2305 133.262 28.0296 133.407 27.8026C133.553 27.5755 133.672 27.334 133.765 27.0778V21.2448H135.163V27.497C135.163 27.9161 135.177 28.3498 135.206 28.798C135.235 29.2463 135.285 29.6392 135.355 29.9769H134.394L134.045 28.5972H133.958C133.69 29.0513 133.329 29.4297 132.875 29.7324C132.421 30.0351 131.844 30.1864 131.146 30.1864C130.68 30.1864 130.27 30.1311 129.915 30.0205C129.56 29.9099 129.263 29.7149 129.024 29.4355C128.785 29.1561 128.605 28.7806 128.483 28.309C128.36 27.8375 128.299 27.2408 128.299 26.519V21.2448H129.696ZM140.891 22.4151C141.205 22.4151 141.537 22.4733 141.886 22.5898L142.183 21.245C141.764 21.1286 141.386 21.0704 141.048 21.0704C140.571 21.0704 140.178 21.1781 139.869 21.3935C139.561 21.6088 139.296 21.9145 139.074 22.3103H139.005L138.743 21.245H137.765V29.9771H139.162V23.8646C139.232 23.4455 139.412 23.0991 139.703 22.8255C139.994 22.5519 140.39 22.4151 140.891 22.4151ZM150.304 30.3787C150.304 31.5081 150.004 32.3405 149.405 32.8761C148.805 33.4117 147.917 33.6794 146.741 33.6794C146.043 33.6794 145.481 33.6358 145.056 33.5485C144.631 33.4611 144.267 33.3476 143.965 33.2079L144.331 32.0203C144.599 32.1251 144.896 32.2241 145.222 32.3172C145.548 32.4104 145.973 32.457 146.497 32.457C146.986 32.457 147.385 32.4133 147.693 32.326C148.002 32.2387 148.249 32.0931 148.435 31.8894C148.622 31.6856 148.75 31.4237 148.82 31.1035C148.889 30.7833 148.924 30.402 148.924 29.9596V29.1213H148.855C148.622 29.4589 148.325 29.718 147.964 29.8984C147.603 30.0789 147.131 30.1691 146.549 30.1691C145.373 30.1691 144.509 29.8024 143.956 29.0689C143.403 28.3354 143.126 27.1944 143.126 25.6459C143.126 24.1556 143.481 23.0234 144.192 22.2491C144.902 21.4749 145.95 21.0878 147.335 21.0878C147.999 21.0878 148.566 21.1402 149.038 21.2449C149.509 21.3497 149.931 21.472 150.304 21.6117V30.3787ZM148.191 28.5015C147.853 28.7984 147.387 28.9468 146.794 28.9468C146.386 28.9468 146.043 28.8653 145.763 28.7023C145.484 28.5393 145.257 28.3123 145.082 28.0212C144.908 27.7302 144.779 27.3809 144.698 26.9734C144.616 26.5659 144.576 26.1176 144.576 25.6286C144.576 24.4876 144.803 23.6494 145.257 23.1138C145.711 22.5782 146.334 22.3104 147.125 22.3104C147.847 22.3104 148.441 22.4211 148.907 22.6423V27.1131C148.767 27.7418 148.528 28.2046 148.191 28.5015Z" fill="#E4032E"/>
</svg>
