<?xml version="1.0" encoding="UTF-8"?>
<svg width="239px" height="60px" viewBox="0 0 239 60" version="1.1" xmlns="http://www.w3.org/2000/svg" xmlns:xlink="http://www.w3.org/1999/xlink">
    <title>HPI Schul-Cloud Copy 3</title>
    <defs>
        <path d="M33.25335,0 C33.11425,0.0013 32.97515,0.0039 32.83605,0.0091 L32.83605,0.0091 C27.2493,0.2041 21.72755,3.44825 20.88255,8.70415 L20.88255,8.70415 C15.4908,6.56305 10.4234,9.4185 10.4234,14.28505 L10.4234,14.28505 C0.48425,12.33765 -2.1788,21.1627 1.71795,24.08315 L1.71795,24.08315 C4.44665,26.4186 7.9547,25.96425 12.43775,25.96425 L12.43775,25.96425 L38.2928,25.96425 L41.9952,25.96425 C47.51695,25.96425 52,22.26575 52,17.65855 L52,17.65855 C52,15.37315 50.8469,13.23465 48.91445,11.7117 L48.91445,11.7117 L43.0911,17.5279 C42.9533,17.66635 42.63155,17.89515 42.4008,17.94 L42.4008,17.94 L35.8618,20.5855 C35.70385,20.6635 35.5459,20.6843 35.39185,20.67975 L35.39185,20.67975 C34.5813,21.39345 32.8341,22.09675 32.3791,22.16435 L32.3791,22.16435 C30.64685,22.4211 29.57305,21.3122 28.4349,20.1357 L28.4349,20.1357 C27.70365,19.3804 26.9464,18.59845 26.00195,18.2221 L26.00195,18.2221 C25.70815,18.1051 25.4267,18.05245 25.1537,18.05245 L25.1537,18.05245 C23.91675,18.05245 22.87675,19.12365 21.93945,20.08825 L21.93945,20.08825 C21.58195,20.45615 21.2446,20.8026 20.9183,21.0678 L20.9183,21.0678 C19.92965,21.8725 18.94815,22.2417 18.01735,22.17735 L18.01735,22.17735 C16.9351,22.09935 16.146,21.35965 15.49015,20.67325 L15.49015,20.67325 L15.3712,20.54715 C14.65685,19.7938 13.8489,18.94035 12.6945,19.37195 L12.6945,19.37195 C12.11275,19.591 11.5973,20.01935 11.26775,20.34045 L11.26775,20.34045 C11.17675,20.42885 11.09225,20.52375 11.00645,20.61995 L11.00645,20.61995 C10.79715,20.85395 10.5989,21.07495 10.32135,21.19975 L10.32135,21.19975 C10.1075,21.29465 9.8436,21.2875 9.6525,21.17895 L9.6525,21.17895 C9.54265,21.1172 9.40615,20.995 9.37885,20.7636 L9.37885,20.7636 C9.33595,20.40545 9.6317,20.16625 9.91575,19.93485 L9.91575,19.93485 C9.9632,19.8965 10.0087,19.85945 10.05225,19.82175 L10.05225,19.82175 L10.28755,19.61895 C10.9668,19.0307 11.66945,18.4223 12.55605,18.17075 L12.55605,18.17075 C13.7722,17.8295 14.81805,18.4444 15.4817,19.0229 L15.4817,19.0229 C15.6949,19.20815 15.90355,19.43045 16.1239,19.66705 L16.1239,19.66705 C16.70695,20.29235 17.3108,20.9378 18.1376,21.03595 L18.1376,21.03595 C19.37195,21.18285 20.4308,20.0954 21.13085,19.37715 L21.13085,19.37715 L21.20755,19.29785 C22.0337,18.45025 22.81305,17.6488 23.92975,17.20875 L23.92975,17.20875 C24.9821,16.7947 26.11505,16.92665 27.2025,17.59225 L27.2025,17.59225 C27.8668,18.00045 28.4076,18.5692 28.93085,19.1191 L28.93085,19.1191 C29.26495,19.4714 29.61075,19.83605 29.9897,20.1591 L29.9897,20.1591 C31.096,21.10225 32.13925,21.2602 33.27285,20.65635 L33.27285,20.65635 C33.4204,20.5777 33.6024,20.43925 33.81495,20.2787 L33.81495,20.2787 C34.00345,20.13635 34.21405,19.97905 34.4279,19.8432 L34.4279,19.8432 C34.39605,19.6521 34.41815,19.4467 34.51825,19.24325 L34.51825,19.24325 L37.167,12.71205 C37.21185,12.4813 37.4413,12.1602 37.57845,12.0224 L37.57845,12.0224 L43.9361,5.67255 C41.6845,1.755 37.59665,0.0312 33.47695,0 L33.47695,0 L33.25335,0 Z M39.325,12.5736 C38.95775,12.9402 38.4514,13.078 38.03865,13.03185 L38.03865,13.03185 L36.84525,16.4281 L38.6815,18.2624 L42.081,17.06965 C42.0342,16.65625 42.17265,16.1512 42.53925,15.7846 L42.53925,15.7846 L47.5319,10.79845 C47.1484,10.5898 46.74215,10.4065 46.3203,10.24205 L46.3203,10.24205 L41.65525,14.90125 C41.32505,15.2308 40.9409,15.4518 40.5717,15.52395 L40.5717,15.52395 C40.2506,15.5857 39.98605,15.5272 39.8177,15.3608 L39.8177,15.3608 C39.4381,14.9812 39.64415,14.157 40.27725,13.52455 L40.27725,13.52455 L45.1607,8.6463 C45.02615,8.1458 44.8656,7.67195 44.6862,7.21825 L44.6862,7.21825 L39.325,12.5736 Z" id="path-1"></path>
    </defs>
    <g id="HPI-Schul-Cloud-Copy-3" stroke="none" stroke-width="1" fill="none" fill-rule="evenodd">
        <g id="Logo" transform="translate(15.000000, 20.000000)">
            <g id="TXT" transform="translate(0.000000, 6.000000)" fill="#126DC4" fill-rule="nonzero">
                <path d="M12.0314241,15.7727308 C12.0314241,16.0100769 11.83875,16.2042692 11.6032595,16.2042692 L9.48384494,16.2042692 C9.24835443,16.2042692 9.05568038,16.0100769 9.05568038,15.7727308 L9.05568038,9.17019231 L2.97574367,9.17019231 L2.97574367,15.7727308 C2.97574367,16.0100769 2.78306962,16.2042692 2.54757911,16.2042692 L0.428164557,16.2042692 C0.192674051,16.2042692 0,16.0100769 0,15.7727308 L0,0.582576923 C0,0.345230769 0.192674051,0.172615385 0.428164557,0.172615385 L2.54757911,0.172615385 C2.78306962,0.172615385 2.97574367,0.345230769 2.97574367,0.582576923 L2.97574367,6.53780769 L9.05568038,6.53780769 L9.05568038,0.582576923 C9.05568038,0.345230769 9.24835443,0.172615385 9.48384494,0.172615385 L11.6032595,0.172615385 C11.83875,0.172615385 12.0314241,0.345230769 12.0314241,0.582576923 L12.0314241,15.7727308 Z M26.3165506,5.17846154 C26.3165506,8.99757692 23.4478481,10.2274615 20.150981,10.2274615 C19.5943671,10.2274615 18.738038,10.1627308 18.2456487,10.1411538 L18.2456487,15.7727308 C18.2456487,16.0100769 18.0743829,16.2042692 17.8388924,16.2042692 L15.6980696,16.2042692 C15.4625791,16.2042692 15.2699051,16.0100769 15.2699051,15.7727308 L15.2699051,0.927807692 C15.2699051,0.496269231 15.5268038,0.345230769 15.9549684,0.2805 C17.0681962,0.107884615 18.5881804,0 20.150981,0 C23.4478481,0 26.3165506,1.16515385 26.3165506,4.98426923 L26.3165506,5.17846154 Z M23.3622152,5.17846154 L23.3622152,4.98426923 C23.3622152,3.17180769 22.2918038,2.48134615 20.150981,2.48134615 C19.7014082,2.48134615 18.6309968,2.5245 18.2456487,2.56765385 L18.2456487,7.70296154 C18.5881804,7.72453846 19.7870411,7.76769231 20.150981,7.76769231 C22.4630696,7.76769231 23.3622152,6.90461538 23.3622152,5.17846154 Z M31.7921915,15.7727308 C31.7921915,16.0100769 31.5995174,16.2042692 31.3640269,16.2042692 L29.2446123,16.2042692 C29.0091218,16.2042692 28.8164478,16.0100769 28.8164478,15.7727308 L28.8164478,0.582576923 C28.8164478,0.345230769 29.0091218,0.172615385 29.2446123,0.172615385 L31.3640269,0.172615385 C31.5995174,0.172615385 31.7921915,0.345230769 31.7921915,0.582576923 L31.7921915,15.7727308 Z" id="HPI"></path>
                <path d="M105.646361,12.0615 C105.646361,14.1328846 104.575949,16.3768846 100.358528,16.3768846 C98.8599525,16.3768846 97.7467247,16.2258462 96.8047627,16.0748077 C96.4408228,16.0100769 96.3980063,15.9237692 96.3980063,15.6864231 L96.3980063,14.8233462 C96.3980063,14.586 96.5692722,14.4781154 96.7619462,14.4781154 L96.8261709,14.4781154 C97.8109494,14.5644231 99.37375,14.6075769 100.358528,14.6075769 C102.927516,14.6075769 103.612579,13.5718846 103.612579,12.0615 C103.612579,10.9826538 102.991741,10.3785 101.043592,9.17019231 L98.9669937,7.89715385 C96.9974367,6.68884615 96.0126582,5.58842308 96.0126582,3.86226923 C96.0126582,1.25146154 97.8751741,0.0431538462 101.129225,0.0431538462 C102.39231,0.0431538462 104.040744,0.172615385 104.854256,0.302076923 C105.068339,0.345230769 105.218196,0.453115385 105.218196,0.668884615 L105.218196,1.59669231 C105.218196,1.81246154 105.068339,1.94192308 104.854256,1.94192308 L104.81144,1.94192308 C103.869478,1.87719231 102.370902,1.81246154 101.129225,1.81246154 C98.9241772,1.81246154 97.9822152,2.28715385 97.9822152,3.86226923 C97.9822152,4.87638462 98.6886867,5.48053846 100.315712,6.47307692 L102.285269,7.65980769 C104.768623,9.14861538 105.646361,10.3353462 105.646361,12.0615 Z M115.714261,15.6648462 C115.714261,15.9453462 115.628628,16.0748077 115.286097,16.1395385 C114.579625,16.269 113.616255,16.3768846 112.610068,16.3768846 C109.698549,16.3768846 108.050116,14.3055 108.050116,11.1336923 L108.050116,9.45069231 C108.050116,6.27888462 109.677141,4.2075 112.610068,4.2075 C113.594847,4.2075 114.579625,4.31538462 115.286097,4.44484615 C115.628628,4.50957692 115.714261,4.61746154 115.714261,4.91953846 L115.714261,5.69630769 C115.714261,5.91207692 115.542995,6.01996154 115.350321,6.01996154 L115.264688,6.01996154 C114.322726,5.91207692 113.659071,5.86892308 112.610068,5.86892308 C110.89741,5.86892308 109.93404,7.0125 109.93404,9.45069231 L109.93404,11.1336923 C109.93404,13.5503077 110.876002,14.7154615 112.610068,14.7154615 C113.659071,14.7154615 114.322726,14.6723077 115.264688,14.5644231 L115.350321,14.5644231 C115.542995,14.5644231 115.714261,14.6723077 115.714261,14.8880769 L115.714261,15.6648462 Z M127.150147,15.7943077 C127.150147,16.0316538 126.957473,16.2258462 126.721983,16.2258462 L125.694388,16.2258462 C125.458897,16.2258462 125.266223,16.0316538 125.266223,15.7943077 L125.266223,8.6955 C125.266223,6.53780769 124.367078,5.86892308 122.975543,5.86892308 C122.311888,5.86892308 120.963169,6.04153846 120.021207,6.47307692 L120.021207,15.7943077 C120.021207,16.0100769 119.828533,16.2258462 119.593043,16.2258462 L118.54404,16.2258462 C118.329957,16.2258462 118.137283,16.0316538 118.137283,15.7943077 L118.137283,0.431538462 C118.137283,0.194192308 118.308549,0 118.54404,0 L119.614451,0 C119.849941,0 120.021207,0.194192308 120.021207,0.431538462 L120.021207,4.87638462 C121.048802,4.42326923 122.376112,4.2075 123.296666,4.2075 C125.565938,4.2075 127.150147,5.52369231 127.150147,8.6955 L127.150147,15.7943077 Z M139.099831,15.7943077 C139.099831,16.0316538 138.928565,16.2258462 138.693074,16.2258462 L137.622663,16.2258462 C137.387172,16.2258462 137.215907,16.0316538 137.215907,15.7943077 L137.215907,15.3843462 C136.038454,16.0532308 135.075084,16.3768846 133.811998,16.3768846 C131.243011,16.3768846 130.086967,14.7586154 130.086967,11.8888846 L130.086967,4.79007692 C130.086967,4.55273077 130.279641,4.35853846 130.515131,4.35853846 L131.542726,4.35853846 C131.778217,4.35853846 131.970891,4.55273077 131.970891,4.79007692 L131.970891,11.8888846 C131.970891,14.0681538 132.698771,14.7370385 134.325796,14.7370385 C135.224941,14.7370385 136.231128,14.3918077 137.215907,13.8955385 L137.215907,4.79007692 C137.215907,4.57430769 137.408581,4.35853846 137.644071,4.35853846 L138.693074,4.35853846 C138.907157,4.35853846 139.099831,4.55273077 139.099831,4.79007692 L139.099831,15.7943077 Z M144.134657,15.7943077 C144.134657,16.0100769 143.984799,16.2258462 143.749309,16.2258462 L142.636081,16.2258462 C142.421998,16.2258462 142.250733,16.0316538 142.250733,15.7943077 L142.250733,0.409961538 C142.250733,0.194192308 142.40059,0 142.636081,0 L143.749309,0 C143.963391,0 144.134657,0.172615385 144.134657,0.409961538 L144.134657,15.7943077 Z M152.066016,10.3353462 C152.066016,10.5511154 151.89475,10.7021538 151.659259,10.7021538 L147.399022,10.7021538 C147.163532,10.7021538 146.992266,10.5726923 146.992266,10.3353462 L146.992266,9.49384615 C146.992266,9.27807692 147.163532,9.10546154 147.399022,9.10546154 L151.659259,9.10546154 C151.89475,9.10546154 152.066016,9.2565 152.066016,9.49384615 L152.066016,10.3353462 Z M164.40747,15.6648462 C164.40747,15.9237692 164.214796,16.0532308 163.979305,16.0963846 C163.08016,16.269 162.245239,16.3768846 160.42554,16.3768846 C157.792328,16.3768846 154.773767,14.9528077 154.773767,9.70961538 L154.773767,6.71042308 C154.773767,1.42407692 157.792328,0.0431538462 160.42554,0.0431538462 C161.774258,0.0431538462 163.08016,0.237346154 164.022122,0.388384615 C164.214796,0.409961538 164.364653,0.474692308 164.364653,0.668884615 L164.364653,1.76930769 C164.364653,1.89876923 164.321837,2.00665385 164.107755,2.00665385 L164.04353,2.00665385 C163.272834,1.94192308 161.688625,1.81246154 160.446948,1.81246154 C158.348941,1.81246154 156.721916,3.04234615 156.721916,6.71042308 L156.721916,9.70961538 C156.721916,13.3345385 158.348941,14.6075769 160.446948,14.6075769 C161.667217,14.6075769 163.208609,14.4996923 163.979305,14.4349615 L164.064938,14.4349615 C164.300429,14.4349615 164.40747,14.5428462 164.40747,14.7801923 L164.40747,15.6648462 Z M168.838584,15.7943077 C168.838584,16.0100769 168.688726,16.2258462 168.453236,16.2258462 L167.340008,16.2258462 C167.125926,16.2258462 166.95466,16.0316538 166.95466,15.7943077 L166.95466,0.409961538 C166.95466,0.194192308 167.104517,0 167.340008,0 L168.453236,0 C168.667318,0 168.838584,0.172615385 168.838584,0.409961538 L168.838584,15.7943077 Z M181.111532,11.1121154 C181.111532,14.2839231 179.484506,16.3768846 176.337497,16.3768846 C173.190487,16.3768846 171.58487,14.2839231 171.58487,11.1121154 L171.58487,9.47226923 C171.58487,6.30046154 173.190487,4.2075 176.337497,4.2075 C179.484506,4.2075 181.111532,6.30046154 181.111532,9.47226923 L181.111532,11.1121154 Z M179.227608,11.1121154 L179.227608,9.47226923 C179.227608,7.27142308 178.34987,5.86892308 176.337497,5.86892308 C174.346532,5.86892308 173.468794,7.24984615 173.468794,9.47226923 L173.468794,11.1121154 C173.468794,13.3129615 174.325123,14.7154615 176.337497,14.7154615 C178.328462,14.7154615 179.227608,13.3345385 179.227608,11.1121154 Z M192.757218,15.7943077 C192.757218,16.0316538 192.585953,16.2258462 192.350462,16.2258462 L191.280051,16.2258462 C191.04456,16.2258462 190.873294,16.0316538 190.873294,15.7943077 L190.873294,15.3843462 C189.695842,16.0532308 188.732472,16.3768846 187.469386,16.3768846 C184.900399,16.3768846 183.744354,14.7586154 183.744354,11.8888846 L183.744354,4.79007692 C183.744354,4.55273077 183.937028,4.35853846 184.172519,4.35853846 L185.200114,4.35853846 C185.435604,4.35853846 185.628278,4.55273077 185.628278,4.79007692 L185.628278,11.8888846 C185.628278,14.0681538 186.356158,14.7370385 187.983184,14.7370385 C188.882329,14.7370385 189.888516,14.3918077 190.873294,13.8955385 L190.873294,4.79007692 C190.873294,4.57430769 191.065968,4.35853846 191.301459,4.35853846 L192.350462,4.35853846 C192.564544,4.35853846 192.757218,4.55273077 192.757218,4.79007692 L192.757218,15.7943077 Z M204.501383,15.5138077 C204.501383,15.7943077 204.437158,15.9453462 204.05181,16.0100769 C202.7245,16.269 201.418598,16.3768846 200.112696,16.3768846 C196.92287,16.3768846 195.445703,14.2839231 195.445703,11.0473846 L195.445703,9.49384615 C195.445703,6.10626923 196.987095,4.2075 200.112696,4.2075 C200.776351,4.2075 201.782538,4.27223077 202.617459,4.42326923 L202.617459,0.409961538 C202.617459,0.194192308 202.788725,0 203.024215,0 L204.116035,0 C204.330117,0 204.501383,0.172615385 204.501383,0.409961538 L204.501383,15.5138077 Z M202.617459,14.586 L202.617459,6.01996154 C201.910987,5.8905 200.797759,5.86892308 200.112696,5.86892308 C198.01469,5.86892308 197.329627,7.18511538 197.329627,9.49384615 L197.329627,11.0473846 C197.329627,13.3992692 197.993282,14.7154615 200.112696,14.7154615 C200.840576,14.7154615 201.889579,14.6507308 202.617459,14.586 Z" id="Schul-Cloud"></path>
            </g>
            <g id="Bildmarke" transform="translate(38.000000, 0.000000)">
                <mask id="mask-2" fill="white">
                    <use xlink:href="#path-1"></use>
                </mask>
                <g id="Clip-2"></g>
                <path d="M33.25335,0 C33.11425,0.0013 32.97515,0.0039 32.83605,0.0091 L32.83605,0.0091 C27.2493,0.2041 21.72755,3.44825 20.88255,8.70415 L20.88255,8.70415 C15.4908,6.56305 10.4234,9.4185 10.4234,14.28505 L10.4234,14.28505 C0.48425,12.33765 -2.1788,21.1627 1.71795,24.08315 L1.71795,24.08315 C4.44665,26.4186 7.9547,25.96425 12.43775,25.96425 L12.43775,25.96425 L38.2928,25.96425 L41.9952,25.96425 C47.51695,25.96425 52,22.26575 52,17.65855 L52,17.65855 C52,15.37315 50.8469,13.23465 48.91445,11.7117 L48.91445,11.7117 L43.0911,17.5279 C42.9533,17.66635 42.63155,17.89515 42.4008,17.94 L42.4008,17.94 L35.8618,20.5855 C35.70385,20.6635 35.5459,20.6843 35.39185,20.67975 L35.39185,20.67975 C34.5813,21.39345 32.8341,22.09675 32.3791,22.16435 L32.3791,22.16435 C30.64685,22.4211 29.57305,21.3122 28.4349,20.1357 L28.4349,20.1357 C27.70365,19.3804 26.9464,18.59845 26.00195,18.2221 L26.00195,18.2221 C25.70815,18.1051 25.4267,18.05245 25.1537,18.05245 L25.1537,18.05245 C23.91675,18.05245 22.87675,19.12365 21.93945,20.08825 L21.93945,20.08825 C21.58195,20.45615 21.2446,20.8026 20.9183,21.0678 L20.9183,21.0678 C19.92965,21.8725 18.94815,22.2417 18.01735,22.17735 L18.01735,22.17735 C16.9351,22.09935 16.146,21.35965 15.49015,20.67325 L15.49015,20.67325 L15.3712,20.54715 C14.65685,19.7938 13.8489,18.94035 12.6945,19.37195 L12.6945,19.37195 C12.11275,19.591 11.5973,20.01935 11.26775,20.34045 L11.26775,20.34045 C11.17675,20.42885 11.09225,20.52375 11.00645,20.61995 L11.00645,20.61995 C10.79715,20.85395 10.5989,21.07495 10.32135,21.19975 L10.32135,21.19975 C10.1075,21.29465 9.8436,21.2875 9.6525,21.17895 L9.6525,21.17895 C9.54265,21.1172 9.40615,20.995 9.37885,20.7636 L9.37885,20.7636 C9.33595,20.40545 9.6317,20.16625 9.91575,19.93485 L9.91575,19.93485 C9.9632,19.8965 10.0087,19.85945 10.05225,19.82175 L10.05225,19.82175 L10.28755,19.61895 C10.9668,19.0307 11.66945,18.4223 12.55605,18.17075 L12.55605,18.17075 C13.7722,17.8295 14.81805,18.4444 15.4817,19.0229 L15.4817,19.0229 C15.6949,19.20815 15.90355,19.43045 16.1239,19.66705 L16.1239,19.66705 C16.70695,20.29235 17.3108,20.9378 18.1376,21.03595 L18.1376,21.03595 C19.37195,21.18285 20.4308,20.0954 21.13085,19.37715 L21.13085,19.37715 L21.20755,19.29785 C22.0337,18.45025 22.81305,17.6488 23.92975,17.20875 L23.92975,17.20875 C24.9821,16.7947 26.11505,16.92665 27.2025,17.59225 L27.2025,17.59225 C27.8668,18.00045 28.4076,18.5692 28.93085,19.1191 L28.93085,19.1191 C29.26495,19.4714 29.61075,19.83605 29.9897,20.1591 L29.9897,20.1591 C31.096,21.10225 32.13925,21.2602 33.27285,20.65635 L33.27285,20.65635 C33.4204,20.5777 33.6024,20.43925 33.81495,20.2787 L33.81495,20.2787 C34.00345,20.13635 34.21405,19.97905 34.4279,19.8432 L34.4279,19.8432 C34.39605,19.6521 34.41815,19.4467 34.51825,19.24325 L34.51825,19.24325 L37.167,12.71205 C37.21185,12.4813 37.4413,12.1602 37.57845,12.0224 L37.57845,12.0224 L43.9361,5.67255 C41.6845,1.755 37.59665,0.0312 33.47695,0 L33.47695,0 L33.25335,0 Z M39.325,12.5736 C38.95775,12.9402 38.4514,13.078 38.03865,13.03185 L38.03865,13.03185 L36.84525,16.4281 L38.6815,18.2624 L42.081,17.06965 C42.0342,16.65625 42.17265,16.1512 42.53925,15.7846 L42.53925,15.7846 L47.5319,10.79845 C47.1484,10.5898 46.74215,10.4065 46.3203,10.24205 L46.3203,10.24205 L41.65525,14.90125 C41.32505,15.2308 40.9409,15.4518 40.5717,15.52395 L40.5717,15.52395 C40.2506,15.5857 39.98605,15.5272 39.8177,15.3608 L39.8177,15.3608 C39.4381,14.9812 39.64415,14.157 40.27725,13.52455 L40.27725,13.52455 L45.1607,8.6463 C45.02615,8.1458 44.8656,7.67195 44.6862,7.21825 L44.6862,7.21825 L39.325,12.5736 Z" id="Fill-1" fill="#126DC4" mask="url(#mask-2)"></path>
            </g>
        </g>
    </g>
</svg>
