<svg xmlns="http://www.w3.org/2000/svg" width="59" height="60" fill="#78aae5" fill-rule="evenodd" xmlns:v="https://vecta.io/nano"><path d="M20.784 17.524c4.033-1.978 7.981-1.558 11.507 1.223.305.24.357.682.117.987s-.682.357-.987.117c-3.102-2.447-6.471-2.805-10.018-1.065-3.682 1.806-5.514 4.943-5.276 9.037.024.411-.308.754-.719.743-3.839-.098-7.11 3.484-6.664 7.298.355 3.032 2.371 5.165 5.349 5.679l.16.025H34.97l.596-.079c3.108-.44 3.819-1.02 4.417-3.316l.077-.306c.091-.377.471-.609.848-.517s.609.471.517.848c-.776 3.2-1.892 4.158-5.859 4.709l-.461.061-.087.005H14.195l-.101-.007c-3.719-.542-6.309-3.206-6.746-6.939-.508-4.337 2.87-8.379 7.121-8.828l.233-.021v-.042c-.004-4.21 2.042-7.539 5.852-9.497l.231-.116z" fill-rule="nonzero"/><path d="M47.493 44.163c.103 0 .187.084.187.187v.214c0 .103-.084.187-.187.187h-.214c-.103 0-.187-.084-.187-.187v-.214c0-.103.084-.187.187-.187h.214zm-5.618 0c.104 0 .187.084.187.187v.214c0 .103-.084.187-.187.187h-.214c-.103 0-.187-.084-.187-.187v-.214c0-.103.084-.187.187-.187h.214zm.803 0c.103 0 .187.084.187.187v.214c0 .103-.084.187-.187.187h-.214c-.103 0-.187-.084-.187-.187v-.214c0-.103.084-.187.187-.187h.214zm4.013 0c.103 0 .187.084.187.187v.214c0 .103-.084.187-.187.187h-.214c-.103 0-.187-.084-.187-.187v-.214c0-.103.084-.187.187-.187h.214zm-3.21-.802c.103 0 .187.084.187.187v.214c0 .103-.084.187-.187.187h-.214c-.103 0-.187-.084-.187-.187v-.214c0-.103.084-.187.187-.187h.214zm4.013 0c.103 0 .187.084.187.187v.214c0 .103-.084.187-.187.187h-.214c-.103 0-.187-.084-.187-.187v-.214c0-.103.084-.187.187-.187h.214zm-.802 0c.103 0 .187.084.187.187v.214c0 .103-.084.187-.187.187h-.214c-.103 0-.187-.084-.187-.187v-.214c0-.103.084-.187.187-.187h.214zm-4.013 0c.103 0 .187.084.187.187v.214c0 .103-.084.187-.187.187h-.214c-.103 0-.187-.084-.187-.187v-.214c0-.103.084-.187.187-.187h.214zm.802-.803c.103 0 .187.084.187.187v.214c0 .103-.084.187-.187.187h-.214c-.103 0-.187-.084-.187-.187v-.214c0-.103.084-.187.187-.187h.214zm4.815 0c.103 0 .187.084.187.187v.214c0 .103-.084.187-.187.187h-.214c-.104 0-.187-.084-.187-.187v-.214c0-.103.084-.187.187-.187h.214zm-.802 0c.103 0 .187.084.187.187v.214c0 .103-.084.187-.187.187h-.214c-.103 0-.187-.084-.187-.187v-.214c0-.103.084-.187.187-.187h.214zm-4.815 0c.103 0 .187.084.187.187v.214c0 .103-.084.187-.187.187h-.214c-.103 0-.187-.084-.187-.187v-.214c0-.103.084-.187.187-.187h.214zm5.618-.802c.103 0 .187.084.187.187v.214c0 .103-.084.187-.187.187h-.214c-.104 0-.187-.084-.187-.187v-.214c0-.103.084-.187.187-.187h.214zm-.802 0c.103 0 .187.084.187.187v.214c0 .103-.084.187-.187.187h-.214c-.103 0-.187-.084-.187-.187v-.214c0-.103.084-.187.187-.187h.214zm-4.013 0c.103 0 .187.084.187.187v.214c0 .103-.084.187-.187.187h-.214c-.103 0-.187-.084-.187-.187v-.214c0-.103.084-.187.187-.187h.214zm.803 0c.103 0 .187.084.187.187v.214c0 .103-.084.187-.187.187h-.214c-.103 0-.187-.084-.187-.187v-.214c0-.103.084-.187.187-.187h.214zm3.21-.803c.103 0 .187.084.187.187v.214c0 .104-.084.187-.187.187h-.214c-.103 0-.187-.084-.187-.187v-.214c0-.103.084-.187.187-.187h.214zm-2.408 0c.103 0 .187.084.187.187v.214c0 .104-.084.187-.187.187h-.214c-.103 0-.187-.084-.187-.187v-.214c0-.103.084-.187.187-.187h.214zm3.21 0c.103 0 .187.084.187.187v.214c0 .104-.084.187-.187.187h-.214c-.103 0-.187-.084-.187-.187v-.214c0-.103.084-.187.187-.187h.214zm-4.012 0c.103 0 .187.084.187.187v.214c0 .104-.084.187-.187.187h-.214c-.103 0-.187-.084-.187-.187v-.214c0-.103.084-.187.187-.187h.214zm.802-.802c.103 0 .187.084.187.187v.214c0 .103-.084.187-.187.187h-.214c-.103 0-.187-.084-.187-.187v-.214c0-.104.084-.187.187-.187h.214zm.802 0c.103 0 .187.084.187.187v.214c0 .103-.084.187-.187.187h-.214c-.103 0-.187-.084-.187-.187v-.214c0-.104.084-.187.187-.187h.214zm1.605 0c.103 0 .187.084.187.187v.214c0 .103-.084.187-.187.187h-.214c-.103 0-.187-.084-.187-.187v-.214c0-.104.084-.187.187-.187h.214zm.802 0c.103 0 .187.084.187.187v.214c0 .103-.084.187-.187.187h-.214c-.103 0-.187-.084-.187-.187v-.214c0-.104.084-.187.187-.187h.214zm4.013-.802c.103 0 .187.084.187.187v.214c0 .103-.084.187-.187.187h-.214c-.103 0-.187-.084-.187-.187v-.214c0-.103.084-.187.187-.187h.214zm-7.223 0c.103 0 .187.084.187.187v.214c0 .103-.084.187-.187.187h-.214c-.103 0-.187-.084-.187-.187v-.214c0-.103.084-.187.187-.187h.214zm3.21 0c.103 0 .187.084.187.187v.214c0 .103-.084.187-.187.187h-.214c-.103 0-.187-.084-.187-.187v-.214c0-.103.084-.187.187-.187h.214zm-.802 0c.103 0 .187.084.187.187v.214c0 .103-.084.187-.187.187h-.214c-.103 0-.187-.084-.187-.187v-.214c0-.103.084-.187.187-.187h.214zm-1.605 0c.103 0 .187.084.187.187v.214c0 .103-.084.187-.187.187h-.214c-.103 0-.187-.084-.187-.187v-.214c0-.103.084-.187.187-.187h.214zm-.802-.803c.103 0 .187.084.187.187v.214c0 .103-.084.187-.187.187h-.214c-.103 0-.187-.084-.187-.187v-.214c0-.103.084-.187.187-.187h.214zm.802 0c.103 0 .187.084.187.187v.214c0 .103-.084.187-.187.187h-.214c-.103 0-.187-.084-.187-.187v-.214c0-.103.084-.187.187-.187h.214zm.803 0c.103 0 .187.084.187.187v.214c0 .103-.084.187-.187.187h-.214c-.103 0-.187-.084-.187-.187v-.214c0-.103.084-.187.187-.187h.214zm.802 0c.103 0 .187.084.187.187v.214c0 .103-.084.187-.187.187h-.214c-.103 0-.187-.084-.187-.187v-.214c0-.103.084-.187.187-.187h.214zm.802 0c.103 0 .187.084.187.187v.214c0 .103-.084.187-.187.187h-.214c-.103 0-.187-.084-.187-.187v-.214c0-.103.084-.187.187-.187h.214zm4.013 0c.103 0 .187.084.187.187v.214c0 .103-.084.187-.187.187h-.214c-.103 0-.187-.084-.187-.187v-.214c0-.103.084-.187.187-.187h.214zm-.802 0c.103 0 .187.084.187.187v.214c0 .103-.084.187-.187.187h-.214c-.103 0-.187-.084-.187-.187v-.214c0-.103.084-.187.187-.187h.214zm1.605 0c.103 0 .187.084.187.187v.214c0 .103-.084.187-.187.187h-.214c-.103 0-.187-.084-.187-.187v-.214c0-.103.084-.187.187-.187h.214zm-.803-.802c.103 0 .187.084.187.187v.214c0 .103-.084.187-.187.187h-.214c-.103 0-.187-.084-.187-.187v-.214c0-.103.084-.187.187-.187h.214zm-6.42 0c.103 0 .187.084.187.187v.214c0 .103-.084.187-.187.187h-.214c-.104 0-.187-.084-.187-.187v-.214c0-.103.084-.187.187-.187h.214zm1.605 0c.103 0 .187.084.187.187v.214c0 .103-.084.187-.187.187h-.214c-.103 0-.187-.084-.187-.187v-.214c0-.103.084-.187.187-.187h.214zm-.802 0c.103 0 .187.084.187.187v.214c0 .103-.084.187-.187.187h-.214c-.103 0-.187-.084-.187-.187v-.214c0-.103.084-.187.187-.187h.214zm-1.605 0c.103 0 .187.084.187.187v.214c0 .103-.084.187-.187.187h-.214c-.103 0-.187-.084-.187-.187v-.214c0-.103.084-.187.187-.187h.214zm6.42 0c.103 0 .187.084.187.187v.214c0 .103-.084.187-.187.187h-.214c-.103 0-.187-.084-.187-.187v-.214c0-.103.084-.187.187-.187h.214zm-.803 0c.104 0 .187.084.187.187v.214c0 .103-.084.187-.187.187h-.214c-.104 0-.187-.084-.187-.187v-.214c0-.103.084-.187.187-.187h.214zm-6.42 0c.103 0 .187.084.187.187v.214c0 .103-.084.187-.187.187h-.214c-.103 0-.187-.084-.187-.187v-.214c0-.103.084-.187.187-.187h.214zm6.42-.803c.104 0 .187.084.187.187v.214c0 .103-.084.187-.187.187h-.214c-.104 0-.187-.084-.187-.187v-.214c0-.103.084-.187.187-.187h.214zm-5.618 0c.103 0 .187.084.187.187v.214c0 .103-.084.187-.187.187h-.214c-.103 0-.187-.084-.187-.187v-.214c0-.103.084-.187.187-.187h.214zm.802 0c.103 0 .187.084.187.187v.214c0 .103-.084.187-.187.187h-.214c-.104 0-.187-.084-.187-.187v-.214c0-.103.084-.187.187-.187h.214zm-1.605 0c.103 0 .187.084.187.187v.214c0 .103-.084.187-.187.187h-.214c-.103 0-.187-.084-.187-.187v-.214c0-.103.084-.187.187-.187h.214zm2.408 0c.103 0 .187.084.187.187v.214c0 .103-.084.187-.187.187h-.214c-.103 0-.187-.084-.187-.187v-.214c0-.103.084-.187.187-.187h.214zm4.815 0c.103 0 .187.084.187.187v.214c0 .103-.084.187-.187.187h-.214c-.103 0-.187-.084-.187-.187v-.214c0-.103.084-.187.187-.187h.214zm-17.656 0c.103 0 .187.084.187.187v.214c0 .103-.084.187-.187.187h-.214c-.103 0-.187-.084-.187-.187v-.214c0-.103.084-.187.187-.187h.214zm.802 0c.103 0 .187.084.187.187v.214c0 .103-.084.187-.187.187h-.214c-.103 0-.187-.084-.187-.187v-.214c0-.103.084-.187.187-.187h.214zm8.828 0c.103 0 .187.084.187.187v.214c0 .103-.084.187-.187.187h-.214c-.103 0-.187-.084-.187-.187v-.214c0-.103.084-.187.187-.187h.214zm8.828 0c.103 0 .187.084.187.187v.214c0 .103-.084.187-.187.187h-.214c-.103 0-.187-.084-.187-.187v-.214c0-.103.084-.187.187-.187h.214zm-2.408 0c.103 0 .187.084.187.187v.214c0 .103-.084.187-.187.187h-.214c-.103 0-.187-.084-.187-.187v-.214c0-.103.084-.187.187-.187h.214zm-2.408 0c.103 0 .187.084.187.187v.214c0 .103-.084.187-.187.187h-.214c-.103 0-.187-.084-.187-.187v-.214c0-.103.084-.187.187-.187h.214zm.802-.802c.103 0 .187.084.187.187v.214c0 .103-.084.187-.187.187h-.214c-.103 0-.187-.084-.187-.187v-.214c0-.104.084-.187.187-.187h.214zm3.21 0c.103 0 .187.084.187.187v.214c0 .103-.084.187-.187.187h-.214c-.103 0-.187-.084-.187-.187v-.214c0-.104.084-.187.187-.187h.214zm-.803 0c.104 0 .187.084.187.187v.214c0 .103-.084.187-.187.187h-.214c-.104 0-.187-.084-.187-.187v-.214c0-.104.084-.187.187-.187h.214zm-17.656 0c.103 0 .187.084.187.187v.214c0 .103-.084.187-.187.187h-.214c-.103 0-.187-.084-.187-.187v-.214c0-.104.084-.187.187-.187h.214zm12.84 0c.103 0 .187.084.187.187v.214c0 .103-.084.187-.187.187h-.214c-.104 0-.187-.084-.187-.187v-.214c0-.104.084-.187.187-.187h.214zm-13.643 0c.103 0 .187.084.187.187v.214c0 .103-.084.187-.187.187h-.214c-.103 0-.187-.084-.187-.187v-.214c0-.104.084-.187.187-.187h.214zm11.235 0c.103 0 .187.084.187.187v.214c0 .103-.084.187-.187.187h-.214c-.103 0-.187-.084-.187-.187v-.214c0-.104.084-.187.187-.187h.214zm1.605 0c.103 0 .187.084.187.187v.214c0 .103-.084.187-.187.187h-.214c-.103 0-.187-.084-.187-.187v-.214c0-.104.084-.187.187-.187h.214zm-11.235 0c.103 0 .187.084.187.187v.214c0 .103-.084.187-.187.187h-.214c-.103 0-.187-.084-.187-.187v-.214c0-.104.084-.187.187-.187h.214zm16.05 0c.103 0 .187.084.187.187v.214c0 .103-.084.187-.187.187h-.214c-.103 0-.187-.084-.187-.187v-.214c0-.104.084-.187.187-.187h.214zm-5.618 0c.103 0 .187.084.187.187v.214c0 .103-.084.187-.187.187h-.214c-.103 0-.187-.084-.187-.187v-.214c0-.104.084-.187.187-.187h.214zm2.408 0c.103 0 .187.084.187.187v.214c0 .103-.084.187-.187.187h-.214c-.103 0-.187-.084-.187-.187v-.214c0-.104.084-.187.187-.187h.214zm.802 0c.103 0 .187.084.187.187v.214c0 .103-.084.187-.187.187h-.214c-.103 0-.187-.084-.187-.187v-.214c0-.104.084-.187.187-.187h.214zm-14.446-.802c.103 0 .187.084.187.187v.214c0 .103-.084.187-.187.187h-.214c-.103 0-.187-.084-.187-.187v-.214c0-.103.084-.187.187-.187h.214zm10.433 0c.103 0 .187.084.187.187v.214c0 .103-.084.187-.187.187h-.214c-.103 0-.187-.084-.187-.187v-.214c0-.103.084-.187.187-.187h.214zm4.013 0c.103 0 .187.084.187.187v.214c0 .103-.084.187-.187.187h-.214c-.103 0-.187-.084-.187-.187v-.214c0-.103.084-.187.187-.187h.214zm2.408 0c.103 0 .187.084.187.187v.214c0 .103-.084.187-.187.187h-.214c-.103 0-.187-.084-.187-.187v-.214c0-.103.084-.187.187-.187h.214zm-4.815 0c.103 0 .187.084.187.187v.214c0 .103-.084.187-.187.187h-.214c-.103 0-.187-.084-.187-.187v-.214c0-.103.084-.187.187-.187h.214zm-12.84 0c.103 0 .187.084.187.187v.214c0 .103-.084.187-.187.187h-.214c-.103 0-.187-.084-.187-.187v-.214c0-.103.084-.187.187-.187h.214zm9.63 0c.104 0 .187.084.187.187v.214c0 .103-.084.187-.187.187h-.214c-.103 0-.187-.084-.187-.187v-.214c0-.103.084-.187.187-.187h.214zm4.013 0c.103 0 .187.084.187.187v.214c0 .103-.084.187-.187.187h-.214c-.104 0-.187-.084-.187-.187v-.214c0-.103.084-.187.187-.187h.214zm-3.21 0c.103 0 .187.084.187.187v.214c0 .103-.084.187-.187.187h-.214c-.103 0-.187-.084-.187-.187v-.214c0-.103.084-.187.187-.187h.214zm4.013 0c.103 0 .187.084.187.187v.214c0 .103-.084.187-.187.187h-.214c-.103 0-.187-.084-.187-.187v-.214c0-.103.084-.187.187-.187h.214zm4.012 0c.104 0 .187.084.187.187v.214c0 .103-.084.187-.187.187h-.214c-.104 0-.187-.084-.187-.187v-.214c0-.103.084-.187.187-.187h.214zm-2.408 0c.103 0 .187.084.187.187v.214c0 .103-.084.187-.187.187h-.214c-.103 0-.187-.084-.187-.187v-.214c0-.103.084-.187.187-.187h.214zm3.21 0c.103 0 .187.084.187.187v.214c0 .103-.084.187-.187.187h-.214c-.103 0-.187-.084-.187-.187v-.214c0-.103.084-.187.187-.187h.214zm-7.223 0c.103 0 .187.084.187.187v.214c0 .103-.084.187-.187.187h-.214c-.103 0-.187-.084-.187-.187v-.214c0-.103.084-.187.187-.187h.214zm-1.605-.803c.103 0 .187.084.187.187v.214c0 .103-.084.187-.187.187h-.214c-.103 0-.187-.084-.187-.187v-.214c0-.103.084-.187.187-.187h.214zm-3.21 0c.104 0 .187.084.187.187v.214c0 .103-.084.187-.187.187h-.214c-.103 0-.187-.084-.187-.187v-.214c0-.103.084-.187.187-.187h.214zm10.433 0c.103 0 .187.084.187.187v.214c0 .103-.084.187-.187.187h-.214c-.104 0-.187-.084-.187-.187v-.214c0-.103.084-.187.187-.187h.214zm-17.656 0c.103 0 .187.084.187.187v.214c0 .103-.084.187-.187.187h-.214c-.103 0-.187-.084-.187-.187v-.214c0-.103.084-.187.187-.187h.214zm9.63 0c.104 0 .187.084.187.187v.214c0 .103-.084.187-.187.187h-.214c-.103 0-.187-.084-.187-.187v-.214c0-.103.084-.187.187-.187h.214zm1.605 0c.103 0 .187.084.187.187v.214c0 .103-.084.187-.187.187h-.214c-.103 0-.187-.084-.187-.187v-.214c0-.103.084-.187.187-.187h.214zm4.013 0c.103 0 .187.084.187.187v.214c0 .103-.084.187-.187.187h-.214c-.103 0-.187-.084-.187-.187v-.214c0-.103.084-.187.187-.187h.214zm-6.42 0c.103 0 .187.084.187.187v.214c0 .103-.084.187-.187.187h-.214c-.103 0-.187-.084-.187-.187v-.214c0-.103.084-.187.187-.187h.214zm-.802 0c.103 0 .187.084.187.187v.214c0 .103-.084.187-.187.187h-.214c-.103 0-.187-.084-.187-.187v-.214c0-.103.084-.187.187-.187h.214zm10.433 0c.104 0 .187.084.187.187v.214c0 .103-.084.187-.187.187h-.214c-.104 0-.187-.084-.187-.187v-.214c0-.103.084-.187.187-.187h.214zm-4.012 0c.103 0 .187.084.187.187v.214c0 .103-.084.187-.187.187h-.214c-.103 0-.187-.084-.187-.187v-.214c0-.103.084-.187.187-.187h.214zm-2.408 0c.103 0 .187.084.187.187v.214c0 .103-.084.187-.187.187h-.214c-.103 0-.187-.084-.187-.187v-.214c0-.103.084-.187.187-.187h.214zm.802 0c.103 0 .187.084.187.187v.214c0 .103-.084.187-.187.187h-.214c-.103 0-.187-.084-.187-.187v-.214c0-.103.084-.187.187-.187h.214zm-13.643 0c.103 0 .187.084.187.187v.214c0 .103-.084.187-.187.187h-.214c-.103 0-.187-.084-.187-.187v-.214c0-.103.084-.187.187-.187h.214zm16.853 0c.103 0 .187.084.187.187v.214c0 .103-.084.187-.187.187h-.214c-.104 0-.187-.084-.187-.187v-.214c0-.103.084-.187.187-.187h.214zm-2.408 0c.103 0 .187.084.187.187v.214c0 .103-.084.187-.187.187h-.214c-.104 0-.187-.084-.187-.187v-.214c0-.103.084-.187.187-.187h.214zm-12.84 0c.103 0 .187.084.187.187v.214c0 .103-.084.187-.187.187h-.214c-.104 0-.187-.084-.187-.187v-.214c0-.103.084-.187.187-.187h.214zm5.618 0c.103 0 .187.084.187.187v.214c0 .103-.084.187-.187.187h-.214c-.103 0-.187-.084-.187-.187v-.214c0-.103.084-.187.187-.187h.214zm7.223-.802c.103 0 .187.084.187.187v.214c0 .103-.084.187-.187.187h-.214c-.104 0-.187-.084-.187-.187v-.214c0-.103.084-.187.187-.187h.214zm-.802 0c.103 0 .187.084.187.187v.214c0 .103-.084.187-.187.187h-.214c-.103 0-.187-.084-.187-.187v-.214c0-.103.084-.187.187-.187h.214zm3.21 0c.103 0 .187.084.187.187v.214c0 .103-.084.187-.187.187h-.214c-.103 0-.187-.084-.187-.187v-.214c0-.103.084-.187.187-.187h.214zm-7.223 0c.103 0 .187.084.187.187v.214c0 .103-.084.187-.187.187h-.214c-.103 0-.187-.084-.187-.187v-.214c0-.103.084-.187.187-.187h.214zm-.802 0c.103 0 .187.084.187.187v.214c0 .103-.084.187-.187.187h-.214c-.103 0-.187-.084-.187-.187v-.214c0-.103.084-.187.187-.187h.214zm10.433 0c.104 0 .187.084.187.187v.214c0 .103-.084.187-.187.187h-.214c-.104 0-.187-.084-.187-.187v-.214c0-.103.084-.187.187-.187h.214zm-17.656 0c.103 0 .187.084.187.187v.214c0 .103-.084.187-.187.187h-.214c-.104 0-.187-.084-.187-.187v-.214c0-.103.084-.187.187-.187h.214zm14.446 0c.103 0 .187.084.187.187v.214c0 .103-.084.187-.187.187h-.214c-.103 0-.187-.084-.187-.187v-.214c0-.103.084-.187.187-.187h.214zm-4.815 0c.103 0 .187.084.187.187v.214c0 .103-.084.187-.187.187h-.214c-.103 0-.187-.084-.187-.187v-.214c0-.103.084-.187.187-.187h.214zm1.605 0c.103 0 .187.084.187.187v.214c0 .103-.084.187-.187.187h-.214c-.103 0-.187-.084-.187-.187v-.214c0-.103.084-.187.187-.187h.214zm-10.433 0c.103 0 .187.084.187.187v.214c0 .103-.084.187-.187.187h-.214c-.103 0-.187-.084-.187-.187v-.214c0-.103.084-.187.187-.187h.214zm3.21 0c.103 0 .187.084.187.187v.214c0 .103-.084.187-.187.187h-.214c-.104 0-.187-.084-.187-.187v-.214c0-.103.084-.187.187-.187h.214zm-5.618 0c.103 0 .187.084.187.187v.214c0 .095-.07.173-.162.186l-.025.002h-.214c-.103 0-.187-.084-.187-.187v-.214c0-.103.084-.187.187-.187h.214zm6.42 0c.103 0 .187.084.187.187v.214c0 .103-.084.187-.187.187h-.214c-.103 0-.187-.084-.187-.187v-.214c0-.103.084-.187.187-.187h.214zm5.618 0c.103 0 .187.084.187.187v.214c0 .103-.084.187-.187.187h-.214c-.103 0-.187-.084-.187-.187v-.214c0-.103.084-.187.187-.187h.214zm-4.013 0c.104 0 .187.084.187.187v.214c0 .103-.084.187-.187.187h-.214c-.103 0-.187-.084-.187-.187v-.214c0-.103.084-.187.187-.187h.214zm-8.828 0c.103 0 .187.084.187.187v.214c0 .095-.071.173-.162.186l-.025.002h-.214c-.103 0-.187-.084-.187-.187v-.214c0-.103.084-.187.187-.187h.214zm19.261 0c.103 0 .187.084.187.187v.214c0 .103-.084.187-.187.187h-.214c-.103 0-.187-.084-.187-.187v-.214c0-.103.084-.187.187-.187h.214zm-8.025 0c.103 0 .187.084.187.187v.214c0 .103-.084.187-.187.187h-.214c-.103 0-.187-.084-.187-.187v-.214c0-.103.084-.187.187-.187h.214zm4.815 0c.103 0 .187.084.187.187v.214c0 .103-.084.187-.187.187h-.214c-.103 0-.187-.084-.187-.187v-.214c0-.103.084-.187.187-.187h.214zm-12.038 0c.103 0 .187.084.187.187v.214c0 .103-.084.187-.187.187h-.214c-.103 0-.187-.084-.187-.187v-.214c0-.103.084-.187.187-.187h.214zm1.605 0c.103 0 .187.084.187.187v.214c0 .103-.084.187-.187.187h-.214c-.103 0-.187-.084-.187-.187v-.214c0-.103.084-.187.187-.187h.214zm2.408 0c.103 0 .187.084.187.187v.214c0 .103-.084.187-.187.187h-.214c-.103 0-.187-.084-.187-.187v-.214c0-.103.084-.187.187-.187h.214zm-4.013-.802c.103 0 .187.084.187.187v.214c0 .103-.084.187-.187.187h-.214c-.103 0-.187-.084-.187-.187v-.214c0-.103.084-.187.187-.187h.214zm-.802 0c.103 0 .187.084.187.187v.214c0 .103-.084.187-.187.187h-.214c-.103 0-.187-.084-.187-.187v-.214c0-.103.084-.187.187-.187h.214zm3.21 0c.104 0 .187.084.187.187v.214c0 .103-.084.187-.187.187h-.214c-.104 0-.187-.084-.187-.187v-.214c0-.103.084-.187.187-.187h.214zm1.605 0c.103 0 .187.084.187.187v.214c0 .103-.084.187-.187.187h-.214c-.103 0-.187-.084-.187-.187v-.214c0-.103.084-.187.187-.187h.214zm1.605 0c.103 0 .187.084.187.187v.214c0 .103-.084.187-.187.187h-.214c-.103 0-.187-.084-.187-.187v-.214c0-.103.084-.187.187-.187h.214zm-4.815 0c.103 0 .187.084.187.187v.214c0 .103-.084.187-.187.187h-.214c-.103 0-.187-.084-.187-.187v-.214c0-.103.084-.187.187-.187h.214zm9.63 0c.103 0 .187.084.187.187v.214c0 .103-.084.187-.187.187h-.214c-.103 0-.187-.084-.187-.187v-.214c0-.103.084-.187.187-.187h.214zm2.408 0c.103 0 .187.084.187.187v.214c0 .103-.084.187-.187.187h-.214c-.103 0-.187-.084-.187-.187v-.214c0-.103.084-.187.187-.187h.214zm-.802 0c.103 0 .187.084.187.187v.214c0 .103-.084.187-.187.187h-.214c-.103 0-.187-.084-.187-.187v-.214c0-.103.084-.187.187-.187h.214zm-.803 0c.103 0 .187.084.187.187v.214c0 .103-.084.187-.187.187h-.214c-.104 0-.187-.084-.187-.187v-.214c0-.103.084-.187.187-.187h.214zm-6.42 0c.104 0 .187.084.187.187v.214c0 .103-.084.187-.187.187h-.214c-.103 0-.187-.084-.187-.187v-.214c0-.103.084-.187.187-.187h.214zm8.828 0c.103 0 .187.084.187.187v.214c0 .103-.084.187-.187.187h-.214c-.103 0-.187-.084-.187-.187v-.214c0-.103.084-.187.187-.187h.214zm-7.223 0c.103 0 .187.084.187.187v.214c0 .103-.084.187-.187.187h-.214c-.103 0-.187-.084-.187-.187v-.214c0-.103.084-.187.187-.187h.214zm8.828 0c.103 0 .187.084.187.187v.214c0 .103-.084.187-.187.187h-.214c-.103 0-.187-.084-.187-.187v-.214c0-.103.084-.187.187-.187h.214zm-6.42 0c.103 0 .187.084.187.187v.214c0 .103-.084.187-.187.187h-.214c-.103 0-.187-.084-.187-.187v-.214c0-.103.084-.187.187-.187h.214zm-10.433 0c.103 0 .187.084.187.187v.214c0 .103-.084.187-.187.187h-.214c-.104 0-.187-.084-.187-.187v-.214c0-.103.084-.187.187-.187h.214zm8.828 0c.103 0 .187.084.187.187v.214c0 .103-.084.187-.187.187h-.214c-.103 0-.187-.084-.187-.187v-.214c0-.103.084-.187.187-.187h.214zm2.408 0c.103 0 .187.084.187.187v.214c0 .103-.084.187-.187.187h-.214c-.103 0-.187-.084-.187-.187v-.214c0-.103.084-.187.187-.187h.214zm-8.025 0c.103 0 .187.084.187.187v.214c0 .103-.084.187-.187.187h-.214c-.103 0-.187-.084-.187-.187v-.214c0-.103.084-.187.187-.187h.214zm1.605 0c.103 0 .187.084.187.187v.214c0 .103-.084.187-.187.187h-.214c-.103 0-.187-.084-.187-.187v-.214c0-.103.084-.187.187-.187h.214zm4.815 0c.103 0 .187.084.187.187v.214c0 .103-.084.187-.187.187h-.214c-.103 0-.187-.084-.187-.187v-.214c0-.103.084-.187.187-.187h.214zm6.42 0c.103 0 .187.084.187.187v.214c0 .103-.084.187-.187.187h-.214c-.103 0-.187-.084-.187-.187v-.214c0-.103.084-.187.187-.187h.214zm-17.656 0c.103 0 .187.084.187.187v.214c0 .103-.084.187-.187.187h-.214c-.103 0-.187-.084-.187-.187v-.214c0-.103.084-.187.187-.187h.214zm-.803 0c.103 0 .187.084.187.187v.214c0 .103-.084.187-.187.187h-.214c-.103 0-.187-.084-.187-.187v-.214c0-.103.084-.187.187-.187h.214zm1.605-.803c.103 0 .187.084.187.187v.214c0 .104-.084.187-.187.187h-.214c-.103 0-.187-.084-.187-.187v-.214c0-.103.084-.187.187-.187h.214zm8.828 0c.103 0 .187.084.187.187v.214c0 .104-.084.187-.187.187h-.214c-.103 0-.187-.084-.187-.187v-.214c0-.103.084-.187.187-.187h.214zm-.803 0c.104 0 .187.084.187.187v.214c0 .104-.084.187-.187.187h-.214c-.103 0-.187-.084-.187-.187v-.214c0-.103.084-.187.187-.187h.214zm-7.223 0c.103 0 .187.084.187.187v.214c0 .104-.084.187-.187.187h-.214c-.104 0-.187-.084-.187-.187v-.214c0-.103.084-.187.187-.187h.214zm2.408 0c.103 0 .187.084.187.187v.214c0 .104-.084.187-.187.187h-.214c-.103 0-.187-.084-.187-.187v-.214c0-.103.084-.187.187-.187h.214zm-4.013 0c.103 0 .187.084.187.187v.214c0 .104-.084.187-.187.187h-.214c-.103 0-.187-.084-.187-.187v-.214c0-.103.084-.187.187-.187h.214zm15.248 0c.103 0 .187.084.187.187v.214c0 .104-.084.187-.187.187h-.214c-.103 0-.187-.084-.187-.187v-.214c0-.103.084-.187.187-.187h.214zm-4.815 0c.103 0 .187.084.187.187v.214c0 .104-.084.187-.187.187h-.214c-.103 0-.187-.084-.187-.187v-.214c0-.103.084-.187.187-.187h.214zm-5.618 0c.103 0 .187.084.187.187v.214c0 .104-.084.187-.187.187h-.214c-.103 0-.187-.084-.187-.187v-.214c0-.103.084-.187.187-.187h.214zm2.408 0c.103 0 .187.084.187.187v.214c0 .104-.084.187-.187.187h-.214c-.103 0-.187-.084-.187-.187v-.214c0-.103.084-.187.187-.187h.214zm4.815 0c.103 0 .187.084.187.187v.214c0 .104-.084.187-.187.187h-.214c-.103 0-.187-.084-.187-.187v-.214c0-.103.084-.187.187-.187h.214zm2.408 0c.103 0 .187.084.187.187v.214c0 .104-.084.187-.187.187h-.214c-.103 0-.187-.084-.187-.187v-.214c0-.103.084-.187.187-.187h.214zm-8.828 0c.103 0 .187.084.187.187v.214c0 .104-.084.187-.187.187h-.214c-.104 0-.187-.084-.187-.187v-.214c0-.103.084-.187.187-.187h.214zm10.433 0c.103 0 .187.084.187.187v.214c0 .104-.084.187-.187.187h-.214c-.103 0-.187-.084-.187-.187v-.214c0-.103.084-.187.187-.187h.214zm-3.21 0c.103 0 .187.084.187.187v.214c0 .104-.084.187-.187.187h-.214c-.103 0-.187-.084-.187-.187v-.214c0-.103.084-.187.187-.187h.214zm-9.63 0c.103 0 .187.084.187.187v.214c0 .104-.084.187-.187.187h-.214c-.103 0-.187-.084-.187-.187v-.214c0-.103.084-.187.187-.187h.214zm10.433 0c.103 0 .187.084.187.187v.214c0 .104-.084.187-.187.187h-.214c-.103 0-.187-.084-.187-.187v-.214c0-.103.084-.187.187-.187h.214zm-2.408 0c.103 0 .187.084.187.187v.214c0 .104-.084.187-.187.187h-.214c-.103 0-.187-.084-.187-.187v-.214c0-.103.084-.187.187-.187h.214zm-8.828 0c.103 0 .187.084.187.187v.214c0 .104-.084.187-.187.187h-.214c-.103 0-.187-.084-.187-.187v-.214c0-.103.084-.187.187-.187h.214zm4.013 0c.103 0 .187.084.187.187v.214c0 .104-.084.187-.187.187h-.214c-.103 0-.187-.084-.187-.187v-.214c0-.103.084-.187.187-.187h.214zm1.605 0c.103 0 .187.084.187.187v.214c0 .104-.084.187-.187.187h-.214c-.103 0-.187-.084-.187-.187v-.214c0-.103.084-.187.187-.187h.214zm-4.815-.802c.103 0 .187.084.187.187v.214c0 .103-.084.187-.187.187h-.214c-.103 0-.187-.084-.187-.187v-.214c0-.103.084-.187.187-.187h.214zm8.828 0c.103 0 .187.084.187.187v.214c0 .103-.084.187-.187.187h-.214c-.103 0-.187-.084-.187-.187v-.214c0-.103.084-.187.187-.187h.214zm-1.605 0c.103 0 .187.084.187.187v.214c0 .103-.084.187-.187.187h-.214c-.103 0-.187-.084-.187-.187v-.214c0-.103.084-.187.187-.187h.214zm-1.605 0c.103 0 .187.084.187.187v.214c0 .103-.084.187-.187.187h-.214c-.103 0-.187-.084-.187-.187v-.214c0-.103.084-.187.187-.187h.214zm-3.21 0c.103 0 .187.084.187.187v.214c0 .103-.084.187-.187.187h-.214c-.103 0-.187-.084-.187-.187v-.214c0-.103.084-.187.187-.187h.214zm8.828 0c.103 0 .187.084.187.187v.214c0 .103-.084.187-.187.187h-.214c-.104 0-.187-.084-.187-.187v-.214c0-.103.084-.187.187-.187h.214zm-9.63 0c.103 0 .187.084.187.187v.214c0 .103-.084.187-.187.187h-.214c-.103 0-.187-.084-.187-.187v-.214c0-.103.084-.187.187-.187h.214zm2.408 0c.103 0 .187.084.187.187v.214c0 .103-.084.187-.187.187h-.214c-.103 0-.187-.084-.187-.187v-.214c0-.103.084-.187.187-.187h.214zm6.42 0c.103 0 .187.084.187.187v.214c0 .103-.084.187-.187.187h-.214c-.103 0-.187-.084-.187-.187v-.214c0-.103.084-.187.187-.187h.214zm-5.618 0c.104 0 .187.084.187.187v.214c0 .103-.084.187-.187.187h-.214c-.103 0-.187-.084-.187-.187v-.214c0-.103.084-.187.187-.187h.214zm-5.618 0c.103 0 .187.084.187.187v.214c0 .103-.084.187-.187.187h-.214c-.103 0-.187-.084-.187-.187v-.214c0-.103.084-.187.187-.187h.214zm10.433 0c.103 0 .187.084.187.187v.214c0 .103-.084.187-.187.187h-.214c-.103 0-.187-.084-.187-.187v-.214c0-.103.084-.187.187-.187h.214zm-1.605 0c.103 0 .187.084.187.187v.214c0 .103-.084.187-.187.187h-.214c-.103 0-.187-.084-.187-.187v-.214c0-.103.084-.187.187-.187h.214zm-7.223 0c.103 0 .187.084.187.187v.214c0 .103-.084.187-.187.187h-.214c-.103 0-.187-.084-.187-.187v-.214c0-.103.084-.187.187-.187h.214zm2.408 0c.103 0 .187.084.187.187v.214c0 .103-.084.187-.187.187h-.214c-.103 0-.187-.084-.187-.187v-.214c0-.103.084-.187.187-.187h.214zm-4.815 0c.103 0 .187.084.187.187v.214c0 .103-.084.187-.187.187h-.214c-.104 0-.187-.084-.187-.187v-.214c0-.103.084-.187.187-.187h.214zm8.025 0c.103 0 .187.084.187.187v.214c0 .103-.084.187-.187.187h-.214c-.103 0-.187-.084-.187-.187v-.214c0-.103.084-.187.187-.187h.214zm-8.828 0c.103 0 .187.084.187.187v.214c0 .103-.084.187-.187.187h-.214c-.103 0-.187-.084-.187-.187v-.214c0-.103.084-.187.187-.187h.214zm8.025-.802c.103 0 .187.084.187.187v.214c0 .103-.084.187-.187.187h-.214c-.103 0-.187-.084-.187-.187v-.214c0-.103.084-.187.187-.187h.214zm-3.21 0c.103 0 .187.084.187.187v.214c0 .103-.084.187-.187.187h-.214c-.103 0-.187-.084-.187-.187v-.214c0-.103.084-.187.187-.187h.214zm6.42 0c.103 0 .187.084.187.187v.214c0 .103-.084.187-.187.187h-.214c-.103 0-.187-.084-.187-.187v-.214c0-.103.084-.187.187-.187h.214zm-8.025 0c.103 0 .187.084.187.187v.214c0 .103-.084.187-.187.187h-.214c-.103 0-.187-.084-.187-.187v-.214c0-.103.084-.187.187-.187h.214zm7.223 0c.103 0 .187.084.187.187v.214c0 .103-.084.187-.187.187h-.214c-.103 0-.187-.084-.187-.187v-.214c0-.103.084-.187.187-.187h.214zm-1.605 0c.103 0 .187.084.187.187v.214c0 .103-.084.187-.187.187h-.214c-.103 0-.187-.084-.187-.187v-.214c0-.103.084-.187.187-.187h.214zm-2.408 0c.103 0 .187.084.187.187v.214c0 .103-.084.187-.187.187h-.214c-.103 0-.187-.084-.187-.187v-.214c0-.103.084-.187.187-.187h.214zm.802 0c.104 0 .187.084.187.187v.214c0 .103-.084.187-.187.187h-.214c-.103 0-.187-.084-.187-.187v-.214c0-.103.084-.187.187-.187h.214zm-4.815 0c.103 0 .187.084.187.187v.214c0 .103-.084.187-.187.187h-.214c-.103 0-.187-.084-.187-.187v-.214c0-.103.084-.187.187-.187h.214zm-.802 0c.103 0 .187.084.187.187v.214c0 .103-.084.187-.187.187h-.214c-.103 0-.187-.084-.187-.187v-.214c0-.103.084-.187.187-.187h.214zm8.025 0c.103 0 .187.084.187.187v.214c0 .103-.084.187-.187.187h-.214c-.103 0-.187-.084-.187-.187v-.214c0-.103.084-.187.187-.187h.214zm-4.012 0c.103 0 .187.084.187.187v.214c0 .103-.084.187-.187.187h-.214c-.103 0-.187-.084-.187-.187v-.214c0-.103.084-.187.187-.187h.214zm-1.605 0c.103 0 .187.084.187.187v.214c0 .103-.084.187-.187.187h-.214c-.103 0-.187-.084-.187-.187v-.214c0-.103.084-.187.187-.187h.214zm3.21-.803c.104 0 .187.084.187.187v.214c0 .103-.084.187-.187.187h-.214c-.103 0-.187-.084-.187-.187v-.214c0-.103.084-.187.187-.187h.214zm-3.21 0c.103 0 .187.084.187.187v.214c0 .103-.084.187-.187.187h-.214c-.103 0-.187-.084-.187-.187v-.214c0-.103.084-.187.187-.187h.214zm2.408 0c.103 0 .187.084.187.187v.214c0 .103-.084.187-.187.187h-.214c-.103 0-.187-.084-.187-.187v-.214c0-.103.084-.187.187-.187h.214zm-.802 0c.103 0 .187.084.187.187v.214c0 .103-.084.187-.187.187h-.214c-.103 0-.187-.084-.187-.187v-.214c0-.103.084-.187.187-.187h.214zm-3.21 0c.103 0 .187.084.187.187v.214c0 .103-.084.187-.187.187h-.214c-.103 0-.187-.084-.187-.187v-.214c0-.103.084-.187.187-.187h.214zm-.802 0c.103 0 .187.084.187.187v.214c0 .103-.084.187-.187.187h-.214c-.103 0-.187-.084-.187-.187v-.214c0-.103.084-.187.187-.187h.214zm6.42 0c.103 0 .187.084.187.187v.214c0 .103-.084.187-.187.187h-.214c-.103 0-.187-.084-.187-.187v-.214c0-.103.084-.187.187-.187h.214zm-3.21 0c.103 0 .187.084.187.187v.214c0 .103-.084.187-.187.187h-.214c-.103 0-.187-.084-.187-.187v-.214c0-.103.084-.187.187-.187h.214zm4.013 0c.103 0 .187.084.187.187v.214c0 .103-.084.187-.187.187h-.214c-.103 0-.187-.084-.187-.187v-.214c0-.103.084-.187.187-.187h.214zm-5.618 0c.103 0 .187.084.187.187v.214c0 .103-.084.187-.187.187h-.214c-.103 0-.187-.084-.187-.187v-.214c0-.103.084-.187.187-.187h.214zm6.42 0c.104 0 .187.084.187.187v.214c0 .103-.084.187-.187.187h-.214c-.103 0-.187-.084-.187-.187v-.214c0-.103.084-.187.187-.187h.214zm-3.21-.802c.103 0 .187.084.187.187v.214c0 .103-.084.187-.187.187h-.214c-.103 0-.187-.084-.187-.187v-.214c0-.103.084-.187.187-.187h.214zm-2.408 0c.103 0 .187.084.187.187v.214c0 .103-.084.187-.187.187h-.214c-.103 0-.187-.084-.187-.187v-.214c0-.103.084-.187.187-.187h.214zm.802 0c.103 0 .187.084.187.187v.214c0 .103-.084.187-.187.187h-.214c-.103 0-.187-.084-.187-.187v-.214c0-.103.084-.187.187-.187h.214zm-2.408 0c.103 0 .187.084.187.187v.214c0 .103-.084.187-.187.187h-.214c-.103 0-.187-.084-.187-.187v-.214c0-.103.084-.187.187-.187h.214zm.803 0c.103 0 .187.084.187.187v.214c0 .103-.084.187-.187.187h-.214c-.103 0-.187-.084-.187-.187v-.214c0-.103.084-.187.187-.187h.214zm2.408 0c.103 0 .187.084.187.187v.214c0 .103-.084.187-.187.187h-.214c-.103 0-.187-.084-.187-.187v-.214c0-.103.084-.187.187-.187h.214zm2.408 0c.103 0 .187.084.187.187v.214c0 .103-.084.187-.187.187h-.214c-.103 0-.187-.084-.187-.187v-.214c0-.103.084-.187.187-.187h.214zm.802 0c.103 0 .187.084.187.187v.214c0 .103-.084.187-.187.187h-.214c-.103 0-.187-.084-.187-.187v-.214c0-.103.084-.187.187-.187h.214zm-1.605 0c.104 0 .187.084.187.187v.214c0 .103-.084.187-.187.187h-.214c-.103 0-.187-.084-.187-.187v-.214c0-.103.084-.187.187-.187h.214zm.803-.803c.103 0 .187.084.187.187v.214c0 .103-.084.187-.187.187h-.214c-.103 0-.187-.084-.187-.187V28.3c0-.103.084-.187.187-.187h.214zm-.803 0c.104 0 .187.084.187.187v.214c0 .103-.084.187-.187.187h-.214c-.103 0-.187-.084-.187-.187V28.3c0-.103.084-.187.187-.187h.214zm-.802 0c.103 0 .187.084.187.187v.214c0 .103-.084.187-.187.187h-.214c-.103 0-.187-.084-.187-.187V28.3c0-.103.084-.187.187-.187h.214zm-2.408 0c.103 0 .187.084.187.187v.214c0 .103-.084.187-.187.187h-.214c-.103 0-.187-.084-.187-.187V28.3c0-.103.084-.187.187-.187h.214zm.802 0c.103 0 .187.084.187.187v.214c0 .103-.084.187-.187.187h-.214c-.103 0-.187-.084-.187-.187V28.3c0-.103.084-.187.187-.187h.214zm-1.605 0c.103 0 .187.084.187.187v.214c0 .103-.084.187-.187.187h-.214c-.103 0-.187-.084-.187-.187V28.3c0-.103.084-.187.187-.187h.214zm-.803 0c.103 0 .187.084.187.187v.214c0 .103-.084.187-.187.187h-.214c-.103 0-.187-.084-.187-.187V28.3c0-.103.084-.187.187-.187h.214zm3.21 0c.103 0 .187.084.187.187v.214c0 .103-.084.187-.187.187h-.214c-.103 0-.187-.084-.187-.187V28.3c0-.103.084-.187.187-.187h.214zm.802-.802c.103 0 .187.084.187.187v.214c0 .103-.084.187-.187.187h-.214c-.103 0-.187-.084-.187-.187v-.214c0-.103.084-.187.187-.187h.214zm-3.21 0c.103 0 .187.084.187.187v.214c0 .103-.084.187-.187.187h-.214c-.103 0-.187-.084-.187-.187v-.214c0-.103.084-.187.187-.187h.214zm2.408 0c.103 0 .187.084.187.187v.214c0 .103-.084.187-.187.187h-.214c-.103 0-.187-.084-.187-.187v-.214c0-.103.084-.187.187-.187h.214zm-.803 0c.103 0 .187.084.187.187v.214c0 .103-.084.187-.187.187h-.214c-.104 0-.187-.084-.187-.187v-.214c0-.103.084-.187.187-.187h.214zm2.408 0c.104 0 .187.084.187.187v.214c0 .103-.084.187-.187.187h-.214c-.103 0-.187-.084-.187-.187v-.214c0-.103.084-.187.187-.187h.214zm-3.21 0c.103 0 .187.084.187.187v.214c0 .103-.084.187-.187.187h-.214c-.103 0-.187-.084-.187-.187v-.214c0-.103.084-.187.187-.187h.214zm4.013 0c.103 0 .187.084.187.187v.214c0 .103-.084.187-.187.187h-.214c-.103 0-.187-.084-.187-.187v-.214c0-.103.084-.187.187-.187h.214zm-5.618 0c.103 0 .187.084.187.187v.214c0 .103-.084.187-.187.187h-.214c-.103 0-.187-.084-.187-.187v-.214c0-.103.084-.187.187-.187h.214zm1.605-.802c.103 0 .187.084.187.187v.214c0 .103-.084.187-.187.187h-.214c-.103 0-.187-.084-.187-.187v-.214c0-.103.084-.187.187-.187h.214zm-1.605 0c.103 0 .187.084.187.187v.214c0 .103-.084.187-.187.187h-.214c-.103 0-.187-.084-.187-.187v-.214c0-.103.084-.187.187-.187h.214zm3.21 0c.103 0 .187.084.187.187v.214c0 .103-.084.187-.187.187h-.214c-.103 0-.187-.084-.187-.187v-.214c0-.103.084-.187.187-.187h.214zm-.803 0c.103 0 .187.084.187.187v.214c0 .103-.084.187-.187.187h-.214c-.104 0-.187-.084-.187-.187v-.214c0-.103.084-.187.187-.187h.214zm2.408 0c.104 0 .187.084.187.187v.214c0 .103-.084.187-.187.187h-.214c-.103 0-.187-.084-.187-.187v-.214c0-.103.084-.187.187-.187h.214zm-.802 0c.103 0 .187.084.187.187v.214c0 .103-.084.187-.187.187h-.214c-.103 0-.187-.084-.187-.187v-.214c0-.103.084-.187.187-.187h.214zm-3.21 0c.103 0 .187.084.187.187v.214c0 .103-.084.187-.187.187h-.214c-.103 0-.187-.084-.187-.187v-.214c0-.103.084-.187.187-.187h.214zm3.21-.803c.103 0 .187.084.187.187v.214c0 .103-.084.187-.187.187h-.214c-.103 0-.187-.084-.187-.187v-.214c0-.103.084-.187.187-.187h.214zm-.802 0c.103 0 .187.084.187.187v.214c0 .103-.084.187-.187.187h-.214c-.103 0-.187-.084-.187-.187v-.214c0-.103.084-.187.187-.187h.214zm-7.223 0c.103 0 .187.084.187.187v.214c0 .103-.084.187-.187.187h-.214c-.103 0-.187-.084-.187-.187v-.214c0-.103.084-.187.187-.187h.214zm.803 0c.103 0 .187.084.187.187v.214c0 .103-.084.187-.187.187h-.214c-.103 0-.187-.084-.187-.187v-.214c0-.103.084-.187.187-.187h.214zm8.025 0c.104 0 .187.084.187.187v.214c0 .103-.084.187-.187.187h-.214c-.103 0-.187-.084-.187-.187v-.214c0-.103.084-.187.187-.187h.214zm-4.013 0c.103 0 .187.084.187.187v.214c0 .103-.084.187-.187.187h-.214c-.103 0-.187-.084-.187-.187v-.214c0-.103.084-.187.187-.187h.214zm.803 0c.103 0 .187.084.187.187v.214c0 .103-.084.187-.187.187h-.214c-.103 0-.187-.084-.187-.187v-.214c0-.103.084-.187.187-.187h.214zm-1.605 0c.103 0 .187.084.187.187v.214c0 .103-.084.187-.187.187h-.214c-.103 0-.187-.084-.187-.187v-.214c0-.103.084-.187.187-.187h.214zm2.408 0c.103 0 .187.084.187.187v.214c0 .103-.084.187-.187.187h-.214c-.104 0-.187-.084-.187-.187v-.214c0-.103.084-.187.187-.187h.214zm-.802-.802c.103 0 .187.084.187.187v.214c0 .103-.084.187-.187.187h-.214c-.103 0-.187-.084-.187-.187v-.214c0-.103.084-.187.187-.187h.214zm-.803 0c.103 0 .187.084.187.187v.214c0 .103-.084.187-.187.187h-.214c-.103 0-.187-.084-.187-.187v-.214c0-.103.084-.187.187-.187h.214zm-3.21 0c.103 0 .187.084.187.187v.214c0 .103-.084.187-.187.187h-.214c-.103 0-.187-.084-.187-.187v-.214c0-.103.084-.187.187-.187h.214zm.802 0c.103 0 .187.084.187.187v.214c0 .103-.084.187-.187.187h-.214c-.103 0-.187-.084-.187-.187v-.214c0-.103.084-.187.187-.187h.214zm1.605 0c.103 0 .187.084.187.187v.214c0 .103-.084.187-.187.187h-.214c-.103 0-.187-.084-.187-.187v-.214c0-.103.084-.187.187-.187h.214zm2.408 0c.103 0 .187.084.187.187v.214c0 .103-.084.187-.187.187h-.214c-.104 0-.187-.084-.187-.187v-.214c0-.103.084-.187.187-.187h.214zm2.408 0c.104 0 .187.084.187.187v.214c0 .103-.084.187-.187.187h-.214c-.103 0-.187-.084-.187-.187v-.214c0-.103.084-.187.187-.187h.214zm-5.618 0c.103 0 .187.084.187.187v.214c0 .103-.084.187-.187.187h-.214c-.103 0-.187-.084-.187-.187v-.214c0-.103.084-.187.187-.187h.214zm4.815 0c.103 0 .187.084.187.187v.214c0 .103-.084.187-.187.187h-.214c-.103 0-.187-.084-.187-.187v-.214c0-.103.084-.187.187-.187h.214zm-.802 0c.103 0 .187.084.187.187v.214c0 .103-.084.187-.187.187h-.214c-.103 0-.187-.084-.187-.187v-.214c0-.103.084-.187.187-.187h.214zm-8.025 0c.103 0 .187.084.187.187v.214c0 .103-.084.187-.187.187h-.214c-.103 0-.187-.084-.187-.187v-.214c0-.103.084-.187.187-.187h.214zm.802 0c.103 0 .187.084.187.187v.214c0 .103-.084.187-.187.187h-.214c-.103 0-.187-.084-.187-.187v-.214c0-.103.084-.187.187-.187h.214zm.803 0c.103 0 .187.084.187.187v.214c0 .103-.084.187-.187.187h-.214c-.103 0-.187-.084-.187-.187v-.214c0-.103.084-.187.187-.187h.214zm7.223-.803c.103 0 .187.084.187.187v.214c0 .103-.084.187-.187.187h-.214c-.103 0-.187-.084-.187-.187v-.214c0-.103.084-.187.187-.187h.214zm-4.013 0c.103 0 .187.084.187.187v.214c0 .103-.084.187-.187.187h-.214c-.103 0-.187-.084-.187-.187v-.214c0-.103.084-.187.187-.187h.214zm.803 0c.103 0 .187.084.187.187v.214c0 .103-.084.187-.187.187h-.214c-.103 0-.187-.084-.187-.187v-.214c0-.103.084-.187.187-.187h.214zm.802 0c.103 0 .187.084.187.187v.214c0 .103-.084.187-.187.187h-.214c-.103 0-.187-.084-.187-.187v-.214c0-.103.084-.187.187-.187h.214zm1.605 0c.103 0 .187.084.187.187v.214c0 .103-.084.187-.187.187h-.214c-.103 0-.187-.084-.187-.187v-.214c0-.103.084-.187.187-.187h.214zm-4.815 0c.103 0 .187.084.187.187v.214c0 .103-.084.187-.187.187h-.214c-.104 0-.187-.084-.187-.187v-.214c0-.103.084-.187.187-.187h.214zm-1.605 0c.103 0 .187.084.187.187v.214c0 .103-.084.187-.187.187h-.214c-.103 0-.187-.084-.187-.187v-.214c0-.103.084-.187.187-.187h.214zm-.803 0c.103 0 .187.084.187.187v.214c0 .103-.084.187-.187.187h-.214c-.103 0-.187-.084-.187-.187v-.214c0-.103.084-.187.187-.187h.214zm3.21 0c.103 0 .187.084.187.187v.214c0 .103-.084.187-.187.187h-.214c-.103 0-.187-.084-.187-.187v-.214c0-.103.084-.187.187-.187h.214zm-1.605 0c.103 0 .187.084.187.187v.214c0 .103-.084.187-.187.187h-.214c-.103 0-.187-.084-.187-.187v-.214c0-.103.084-.187.187-.187h.214zm4.815 0c.103 0 .187.084.187.187v.214c0 .103-.084.187-.187.187h-.214c-.104 0-.187-.084-.187-.187v-.214c0-.103.084-.187.187-.187h.214zm-4.013-.802c.103 0 .187.084.187.187v.214c0 .103-.084.187-.187.187h-.214c-.103 0-.187-.084-.187-.187v-.214c0-.103.084-.187.187-.187h.214zm.803 0c.103 0 .187.084.187.187v.214c0 .103-.084.187-.187.187h-.214c-.103 0-.187-.084-.187-.187v-.214c0-.103.084-.187.187-.187h.214zm.802 0c.103 0 .187.084.187.187v.214c0 .103-.084.187-.187.187h-.214c-.103 0-.187-.084-.187-.187v-.214c0-.103.084-.187.187-.187h.214zm2.408 0c.103 0 .187.084.187.187v.214c0 .103-.084.187-.187.187h-.214c-.104 0-.187-.084-.187-.187v-.214c0-.103.084-.187.187-.187h.214zm-1.605 0c.103 0 .187.084.187.187v.214c0 .103-.084.187-.187.187h-.214c-.103 0-.187-.084-.187-.187v-.214c0-.103.084-.187.187-.187h.214zm2.408 0c.103 0 .187.084.187.187v.214c0 .103-.084.187-.187.187h-.214c-.103 0-.187-.084-.187-.187v-.214c0-.103.084-.187.187-.187h.214zm-1.605 0c.103 0 .187.084.187.187v.214c0 .103-.084.187-.187.187h-.214c-.103 0-.187-.084-.187-.187v-.214c0-.103.084-.187.187-.187h.214zm-4.013 0c.103 0 .187.084.187.187v.214c0 .103-.084.187-.187.187h-.214c-.103 0-.187-.084-.187-.187v-.214c0-.103.084-.187.187-.187h.214zm-.802 0c.103 0 .187.084.187.187v.214c0 .103-.084.187-.187.187h-.214c-.103 0-.187-.084-.187-.187v-.214c0-.103.084-.187.187-.187h.214zm1.605-.802c.103 0 .187.084.187.187v.214c0 .103-.084.187-.187.187h-.214c-.103 0-.187-.084-.187-.187v-.214c0-.103.084-.187.187-.187h.214zm-.802 0c.103 0 .187.084.187.187v.214c0 .103-.084.187-.187.187h-.214c-.103 0-.187-.084-.187-.187v-.214c0-.103.084-.187.187-.187h.214zm1.605 0c.103 0 .187.084.187.187v.214c0 .103-.084.187-.187.187h-.214c-.103 0-.187-.084-.187-.187v-.214c0-.103.084-.187.187-.187h.214zm1.605 0c.103 0 .187.084.187.187v.214c0 .103-.084.187-.187.187h-.214c-.103 0-.187-.084-.187-.187v-.214c0-.103.084-.187.187-.187h.214zm-.802 0c.103 0 .187.084.187.187v.214c0 .103-.084.187-.187.187h-.214c-.103 0-.187-.084-.187-.187v-.214c0-.103.084-.187.187-.187h.214zm1.605 0c.103 0 .187.084.187.187v.214c0 .103-.084.187-.187.187h-.214c-.103 0-.187-.084-.187-.187v-.214c0-.103.084-.187.187-.187h.214zm.802 0c.103 0 .187.084.187.187v.214c0 .103-.084.187-.187.187h-.214c-.104 0-.187-.084-.187-.187v-.214c0-.103.084-.187.187-.187h.214zm-3.21-.803c.103 0 .187.084.187.187v.214c0 .103-.084.187-.187.187h-.214c-.103 0-.187-.084-.187-.187v-.214c0-.104.084-.187.187-.187h.214zm-.803 0c.103 0 .187.084.187.187v.214c0 .103-.084.187-.187.187h-.214c-.104 0-.187-.084-.187-.187v-.214c0-.104.084-.187.187-.187h.214zm1.605 0c.103 0 .187.084.187.187v.214c0 .103-.084.187-.187.187h-.214c-.103 0-.187-.084-.187-.187v-.214c0-.104.084-.187.187-.187h.214zm1.605 0c.103 0 .187.084.187.187v.214c0 .103-.084.187-.187.187h-.214c-.103 0-.187-.084-.187-.187v-.214c0-.104.084-.187.187-.187h.214zm-.802 0c.103 0 .187.084.187.187v.214c0 .103-.084.187-.187.187h-.214c-.103 0-.187-.084-.187-.187v-.214c0-.104.084-.187.187-.187h.214zm-2.408-.802c.103 0 .187.084.187.187v.214c0 .103-.084.187-.187.187h-.214c-.104 0-.187-.084-.187-.187v-.214c0-.103.084-.187.187-.187h.214zm.803 0c.103 0 .187.084.187.187v.214c0 .103-.084.187-.187.187h-.214c-.103 0-.187-.084-.187-.187v-.214c0-.103.084-.187.187-.187h.214z"/></svg>