<svg xmlns="http://www.w3.org/2000/svg" width="50" height="31" fill="none" fill-rule="evenodd" xmlns:v="https://vecta.io/nano"><path d="M26.263 3.434C22.754.666 18.88.254 14.865 2.223c-4.17 2.044-6.27 5.646-6.002 10.282-4.52-.116-8.34 4.07-7.815 8.56.423 3.62 2.907 6.173 6.513 6.698h22.052c4.466-.558 5.318-1.418 6.062-4.488" stroke="#fff" stroke-width="1.488" stroke-linecap="round" stroke-linejoin="round"/><path d="M42.824 29.767c.11 0 .198.09.198.198v.227c0 .11-.09.198-.198.198h-.227c-.11 0-.198-.09-.198-.198v-.227c0-.11.09-.198.198-.198h.227zm-5.95 0c.1 0 .198.09.198.198v.227c0 .11-.09.198-.198.198h-.227c-.11 0-.198-.09-.198-.198v-.227c0-.11.09-.198.198-.198h.227zm.85 0c.11 0 .198.09.198.198v.227c0 .11-.09.198-.198.198h-.227c-.11 0-.198-.09-.198-.198v-.227c0-.11.09-.198.198-.198h.227zm4.25 0c.11 0 .198.09.198.198v.227c0 .11-.09.198-.198.198h-.227c-.11 0-.198-.09-.198-.198v-.227c0-.11.09-.198.198-.198h.227zm-3.4-.85c.11 0 .198.09.198.198v.227c0 .11-.09.198-.198.198h-.227c-.11 0-.198-.09-.198-.198v-.227c0-.11.09-.198.198-.198h.227zm4.25 0c.11 0 .198.09.198.198v.227c0 .11-.09.198-.198.198h-.227c-.11 0-.198-.09-.198-.198v-.227c0-.11.09-.198.198-.198h.227zm-.85 0c.11 0 .198.09.198.198v.227c0 .11-.09.198-.198.198h-.227c-.11 0-.198-.09-.198-.198v-.227c0-.11.09-.198.198-.198h.227zm-4.25 0c.11 0 .198.09.198.198v.227c0 .11-.09.198-.198.198h-.227c-.11 0-.198-.09-.198-.198v-.227c0-.11.09-.198.198-.198h.227zm.85-.85c.11 0 .198.09.198.198v.227c0 .11-.09.198-.198.198h-.227c-.11 0-.198-.09-.198-.198v-.227c0-.11.09-.198.198-.198h.227zm5.1 0c.11 0 .198.09.198.198v.227c0 .11-.09.198-.198.198h-.227c-.1 0-.198-.09-.198-.198v-.227c0-.11.09-.198.198-.198h.227zm-.85 0c.11 0 .198.09.198.198v.227c0 .11-.09.198-.198.198h-.227c-.11 0-.198-.09-.198-.198v-.227c0-.11.09-.198.198-.198h.227zm-5.1 0c.11 0 .198.09.198.198v.227c0 .11-.09.198-.198.198h-.227c-.11 0-.198-.09-.198-.198v-.227c0-.11.09-.198.198-.198h.227zm5.95-.85c.11 0 .198.09.198.198v.227c0 .11-.09.198-.198.198h-.227c-.1 0-.198-.09-.198-.198v-.227c0-.11.09-.198.198-.198h.227zm-.85 0c.11 0 .198.09.198.198v.227c0 .11-.09.198-.198.198h-.227c-.11 0-.198-.09-.198-.198v-.227c0-.11.09-.198.198-.198h.227zm-4.25 0c.11 0 .198.09.198.198v.227c0 .11-.09.198-.198.198h-.227c-.11 0-.198-.09-.198-.198v-.227c0-.11.09-.198.198-.198h.227zm.85 0c.11 0 .198.09.198.198v.227c0 .11-.09.198-.198.198h-.227c-.11 0-.198-.09-.198-.198v-.227c0-.11.09-.198.198-.198h.227zm3.4-.85c.11 0 .198.09.198.198v.227c0 .1-.09.198-.198.198h-.227c-.11 0-.198-.09-.198-.198v-.227c0-.11.09-.198.198-.198h.227zm-2.55 0c.11 0 .198.09.198.198v.227c0 .1-.09.198-.198.198h-.227c-.11 0-.198-.09-.198-.198v-.227c0-.11.09-.198.198-.198h.227zm3.4 0c.11 0 .198.09.198.198v.227c0 .1-.09.198-.198.198h-.227c-.11 0-.198-.09-.198-.198v-.227c0-.11.09-.198.198-.198h.227zm-4.25 0c.11 0 .198.09.198.198v.227c0 .1-.09.198-.198.198h-.227c-.11 0-.198-.09-.198-.198v-.227c0-.11.09-.198.198-.198h.227zm.85-.85c.11 0 .198.09.198.198v.227c0 .11-.09.198-.198.198h-.227c-.11 0-.198-.09-.198-.198v-.227c0-.1.09-.198.198-.198h.227zm.85 0c.11 0 .198.09.198.198v.227c0 .11-.09.198-.198.198h-.227c-.11 0-.198-.09-.198-.198v-.227c0-.1.09-.198.198-.198h.227zm1.7 0c.11 0 .198.09.198.198v.227c0 .11-.09.198-.198.198h-.227c-.11 0-.198-.09-.198-.198v-.227c0-.1.09-.198.198-.198h.227zm.85 0c.11 0 .198.09.198.198v.227c0 .11-.09.198-.198.198h-.227c-.11 0-.198-.09-.198-.198v-.227c0-.1.09-.198.198-.198h.227zm4.25-.85c.11 0 .198.09.198.198v.227c0 .11-.09.198-.198.198h-.227c-.11 0-.198-.09-.198-.198v-.227c0-.11.09-.198.198-.198h.227zm-7.65 0c.11 0 .198.09.198.198v.227c0 .11-.09.198-.198.198h-.227c-.11 0-.198-.09-.198-.198v-.227c0-.11.09-.198.198-.198h.227zm3.4 0c.11 0 .198.09.198.198v.227c0 .11-.09.198-.198.198h-.227c-.11 0-.198-.09-.198-.198v-.227c0-.11.09-.198.198-.198h.227zm-.85 0c.11 0 .198.09.198.198v.227c0 .11-.09.198-.198.198h-.227c-.11 0-.198-.09-.198-.198v-.227c0-.11.09-.198.198-.198h.227zm-1.7 0c.11 0 .198.09.198.198v.227c0 .11-.09.198-.198.198h-.227c-.11 0-.198-.09-.198-.198v-.227c0-.11.09-.198.198-.198h.227zm-.85-.85c.11 0 .198.09.198.198v.227c0 .11-.09.198-.198.198h-.227c-.11 0-.198-.09-.198-.198v-.227c0-.11.09-.198.198-.198h.227zm.85 0c.11 0 .198.09.198.198v.227c0 .11-.09.198-.198.198h-.227c-.11 0-.198-.09-.198-.198v-.227c0-.11.09-.198.198-.198h.227zm.85 0c.11 0 .198.09.198.198v.227c0 .11-.09.198-.198.198h-.227c-.11 0-.198-.09-.198-.198v-.227c0-.11.09-.198.198-.198h.227zm.85 0c.11 0 .198.09.198.198v.227c0 .11-.09.198-.198.198h-.227c-.11 0-.198-.09-.198-.198v-.227c0-.11.09-.198.198-.198h.227zm.85 0c.11 0 .198.09.198.198v.227c0 .11-.09.198-.198.198h-.227c-.11 0-.198-.09-.198-.198v-.227c0-.11.09-.198.198-.198h.227zm4.25 0c.11 0 .198.09.198.198v.227c0 .11-.09.198-.198.198h-.227c-.11 0-.198-.09-.198-.198v-.227c0-.11.09-.198.198-.198h.227zm-.85 0c.11 0 .198.09.198.198v.227c0 .11-.09.198-.198.198h-.227c-.11 0-.198-.09-.198-.198v-.227c0-.11.09-.198.198-.198h.227zm1.7 0c.11 0 .198.09.198.198v.227c0 .11-.09.198-.198.198h-.227c-.11 0-.198-.09-.198-.198v-.227c0-.11.09-.198.198-.198h.227zm-.85-.85c.11 0 .198.09.198.198v.227c0 .11-.09.198-.198.198h-.227c-.11 0-.198-.09-.198-.198v-.227c0-.11.09-.198.198-.198h.227zm-6.8 0c.11 0 .198.09.198.198v.227c0 .11-.09.198-.198.198h-.227c-.1 0-.198-.09-.198-.198v-.227c0-.11.09-.198.198-.198h.227zm1.7 0c.11 0 .198.09.198.198v.227c0 .11-.09.198-.198.198h-.227c-.11 0-.198-.09-.198-.198v-.227c0-.11.09-.198.198-.198h.227zm-.85 0c.11 0 .198.09.198.198v.227c0 .11-.09.198-.198.198h-.227c-.11 0-.198-.09-.198-.198v-.227c0-.11.09-.198.198-.198h.227zm-1.7 0c.11 0 .198.09.198.198v.227c0 .11-.09.198-.198.198h-.227c-.11 0-.198-.09-.198-.198v-.227c0-.11.09-.198.198-.198h.227zm6.8 0c.11 0 .198.09.198.198v.227c0 .11-.09.198-.198.198h-.227c-.11 0-.198-.09-.198-.198v-.227c0-.11.09-.198.198-.198h.227zm-.85 0c.1 0 .198.09.198.198v.227c0 .11-.09.198-.198.198h-.227c-.1 0-.198-.09-.198-.198v-.227c0-.11.09-.198.198-.198h.227zm-6.8 0c.11 0 .198.09.198.198v.227c0 .11-.09.198-.198.198h-.227c-.11 0-.198-.09-.198-.198v-.227c0-.11.09-.198.198-.198h.227zm6.8-.85c.1 0 .198.09.198.198v.227c0 .11-.09.198-.198.198h-.227c-.1 0-.198-.09-.198-.198v-.227c0-.11.09-.198.198-.198h.227zm-5.95 0c.11 0 .198.09.198.198v.227c0 .11-.09.198-.198.198h-.227c-.11 0-.198-.09-.198-.198v-.227c0-.11.09-.198.198-.198h.227zm.85 0c.11 0 .198.09.198.198v.227c0 .11-.09.198-.198.198h-.227c-.1 0-.198-.09-.198-.198v-.227c0-.11.09-.198.198-.198h.227zm-1.7 0c.11 0 .198.09.198.198v.227c0 .11-.09.198-.198.198h-.227c-.11 0-.198-.09-.198-.198v-.227c0-.11.09-.198.198-.198h.227zm2.55 0c.11 0 .198.09.198.198v.227c0 .11-.09.198-.198.198h-.227c-.11 0-.198-.09-.198-.198v-.227c0-.11.09-.198.198-.198h.227zm5.1 0c.11 0 .198.09.198.198v.227c0 .11-.09.198-.198.198h-.227c-.11 0-.198-.09-.198-.198v-.227c0-.11.09-.198.198-.198h.227zm-18.697 0c.11 0 .198.09.198.198v.227c0 .11-.09.198-.198.198h-.227c-.11 0-.198-.09-.198-.198v-.227c0-.11.09-.198.198-.198h.227zm.85 0c.11 0 .198.09.198.198v.227c0 .11-.09.198-.198.198H29c-.11 0-.198-.09-.198-.198v-.227c0-.11.09-.198.198-.198h.227zm9.35 0c.11 0 .198.09.198.198v.227c0 .11-.09.198-.198.198h-.227c-.11 0-.198-.09-.198-.198v-.227c0-.11.09-.198.198-.198h.227zm9.35 0c.11 0 .198.09.198.198v.227c0 .11-.09.198-.198.198h-.227c-.11 0-.198-.09-.198-.198v-.227c0-.11.09-.198.198-.198h.227zm-2.55 0c.11 0 .198.09.198.198v.227c0 .11-.09.198-.198.198h-.227c-.11 0-.198-.09-.198-.198v-.227c0-.11.09-.198.198-.198h.227zm-2.55 0c.11 0 .198.09.198.198v.227c0 .11-.09.198-.198.198h-.227c-.11 0-.198-.09-.198-.198v-.227c0-.11.09-.198.198-.198h.227zm.85-.85c.11 0 .198.09.198.198v.227c0 .11-.09.198-.198.198h-.227c-.11 0-.198-.09-.198-.198v-.227c0-.1.09-.198.198-.198h.227zm3.4 0c.11 0 .198.09.198.198v.227c0 .11-.09.198-.198.198h-.227c-.11 0-.198-.09-.198-.198v-.227c0-.1.09-.198.198-.198h.227zm-.85 0c.1 0 .198.09.198.198v.227c0 .11-.09.198-.198.198h-.227c-.1 0-.198-.09-.198-.198v-.227c0-.1.09-.198.198-.198h.227zm-18.697 0c.11 0 .198.09.198.198v.227c0 .11-.09.198-.198.198H27.3c-.11 0-.198-.09-.198-.198v-.227c0-.1.09-.198.198-.198h.227zm13.598 0c.11 0 .198.09.198.198v.227c0 .11-.09.198-.198.198h-.227c-.1 0-.198-.09-.198-.198v-.227c0-.1.09-.198.198-.198h.227zm-14.448 0c.11 0 .198.09.198.198v.227c0 .11-.09.198-.198.198h-.227c-.11 0-.198-.09-.198-.198v-.227c0-.1.09-.198.198-.198h.227zm11.898 0c.11 0 .198.09.198.198v.227c0 .11-.09.198-.198.198h-.227c-.11 0-.198-.09-.198-.198v-.227c0-.1.09-.198.198-.198h.227zm1.7 0c.11 0 .198.09.198.198v.227c0 .11-.09.198-.198.198h-.227c-.11 0-.198-.09-.198-.198v-.227c0-.1.09-.198.198-.198h.227zm-11.898 0c.11 0 .198.09.198.198v.227c0 .11-.09.198-.198.198h-.227c-.11 0-.198-.09-.198-.198v-.227c0-.1.09-.198.198-.198h.227zm16.998 0c.11 0 .198.09.198.198v.227c0 .11-.09.198-.198.198h-.227c-.11 0-.198-.09-.198-.198v-.227c0-.1.09-.198.198-.198h.227zm-5.95 0c.11 0 .198.09.198.198v.227c0 .11-.09.198-.198.198h-.227c-.11 0-.198-.09-.198-.198v-.227c0-.1.09-.198.198-.198h.227zm2.55 0c.11 0 .198.09.198.198v.227c0 .11-.09.198-.198.198h-.227c-.11 0-.198-.09-.198-.198v-.227c0-.1.09-.198.198-.198h.227zm.85 0c.11 0 .198.09.198.198v.227c0 .11-.09.198-.198.198h-.227c-.11 0-.198-.09-.198-.198v-.227c0-.1.09-.198.198-.198h.227zm-15.298-.85c.11 0 .198.09.198.198v.227c0 .11-.09.198-.198.198H27.3c-.11 0-.198-.09-.198-.198v-.227c0-.11.09-.198.198-.198h.227zm11.05 0c.11 0 .198.09.198.198v.227c0 .11-.09.198-.198.198h-.227c-.11 0-.198-.09-.198-.198v-.227c0-.11.09-.198.198-.198h.227zm4.25 0c.11 0 .198.09.198.198v.227c0 .11-.09.198-.198.198h-.227c-.11 0-.198-.09-.198-.198v-.227c0-.11.09-.198.198-.198h.227zm2.55 0c.11 0 .198.09.198.198v.227c0 .11-.09.198-.198.198h-.227c-.11 0-.198-.09-.198-.198v-.227c0-.11.09-.198.198-.198h.227zm-5.1 0c.11 0 .198.09.198.198v.227c0 .11-.09.198-.198.198h-.227c-.11 0-.198-.09-.198-.198v-.227c0-.11.09-.198.198-.198h.227zm-13.598 0c.11 0 .198.09.198.198v.227c0 .11-.09.198-.198.198h-.227c-.11 0-.198-.09-.198-.198v-.227c0-.11.09-.198.198-.198h.227zm10.198 0c.1 0 .198.09.198.198v.227c0 .11-.09.198-.198.198h-.227c-.11 0-.198-.09-.198-.198v-.227c0-.11.09-.198.198-.198h.227zm4.25 0c.11 0 .198.09.198.198v.227c0 .11-.09.198-.198.198h-.227c-.1 0-.198-.09-.198-.198v-.227c0-.11.09-.198.198-.198h.227zm-3.4 0c.11 0 .198.09.198.198v.227c0 .11-.09.198-.198.198h-.227c-.11 0-.198-.09-.198-.198v-.227c0-.11.09-.198.198-.198h.227zm4.25 0c.11 0 .198.09.198.198v.227c0 .11-.09.198-.198.198h-.227c-.11 0-.198-.09-.198-.198v-.227c0-.11.09-.198.198-.198h.227zm4.25 0c.1 0 .198.09.198.198v.227c0 .11-.09.198-.198.198h-.227c-.1 0-.198-.09-.198-.198v-.227c0-.11.09-.198.198-.198h.227zm-2.55 0c.11 0 .198.09.198.198v.227c0 .11-.09.198-.198.198h-.227c-.11 0-.198-.09-.198-.198v-.227c0-.11.09-.198.198-.198h.227zm3.4 0c.11 0 .198.09.198.198v.227c0 .11-.09.198-.198.198h-.227c-.11 0-.198-.09-.198-.198v-.227c0-.11.09-.198.198-.198h.227zm-7.65 0c.11 0 .198.09.198.198v.227c0 .11-.09.198-.198.198h-.227c-.11 0-.198-.09-.198-.198v-.227c0-.11.09-.198.198-.198h.227zm-1.7-.85c.11 0 .198.09.198.198v.227c0 .11-.09.198-.198.198h-.227c-.11 0-.198-.09-.198-.198v-.227c0-.11.09-.198.198-.198h.227zm-3.4 0c.1 0 .198.09.198.198v.227c0 .11-.09.198-.198.198h-.227c-.11 0-.198-.09-.198-.198v-.227c0-.11.09-.198.198-.198h.227zm11.05 0c.11 0 .198.09.198.198v.227c0 .11-.09.198-.198.198h-.227c-.1 0-.198-.09-.198-.198v-.227c0-.11.09-.198.198-.198h.227zm-18.697 0c.11 0 .198.09.198.198v.227c0 .11-.09.198-.198.198h-.227c-.11 0-.198-.09-.198-.198v-.227c0-.11.09-.198.198-.198h.227zm10.198 0c.1 0 .198.09.198.198v.227c0 .11-.09.198-.198.198h-.227c-.11 0-.198-.09-.198-.198v-.227c0-.11.09-.198.198-.198h.227zm1.7 0c.11 0 .198.09.198.198v.227c0 .11-.09.198-.198.198h-.227c-.11 0-.198-.09-.198-.198v-.227c0-.11.09-.198.198-.198h.227zm4.25 0c.11 0 .198.09.198.198v.227c0 .11-.09.198-.198.198h-.227c-.11 0-.198-.09-.198-.198v-.227c0-.11.09-.198.198-.198h.227zm-6.8 0c.11 0 .198.09.198.198v.227c0 .11-.09.198-.198.198h-.227c-.11 0-.198-.09-.198-.198v-.227c0-.11.09-.198.198-.198h.227zm-.85 0c.11 0 .198.09.198.198v.227c0 .11-.09.198-.198.198h-.227c-.11 0-.198-.09-.198-.198v-.227c0-.11.09-.198.198-.198h.227zm11.048 0c.1 0 .198.09.198.198v.227c0 .11-.09.198-.198.198h-.227c-.1 0-.198-.09-.198-.198v-.227c0-.11.09-.198.198-.198h.227zm-4.25 0c.11 0 .198.09.198.198v.227c0 .11-.09.198-.198.198h-.227c-.11 0-.198-.09-.198-.198v-.227c0-.11.09-.198.198-.198h.227zm-2.55 0c.11 0 .198.09.198.198v.227c0 .11-.09.198-.198.198h-.227c-.11 0-.198-.09-.198-.198v-.227c0-.11.09-.198.198-.198h.227zm.85 0c.11 0 .198.09.198.198v.227c0 .11-.09.198-.198.198h-.227c-.11 0-.198-.09-.198-.198v-.227c0-.11.09-.198.198-.198h.227zm-14.448 0c.11 0 .198.09.198.198v.227c0 .11-.09.198-.198.198H25.6c-.11 0-.198-.09-.198-.198v-.227c0-.11.09-.198.198-.198h.227zm17.847 0c.11 0 .198.09.198.198v.227c0 .11-.09.198-.198.198h-.227c-.1 0-.198-.09-.198-.198v-.227c0-.11.09-.198.198-.198h.227zm-2.55 0c.11 0 .198.09.198.198v.227c0 .11-.09.198-.198.198h-.227c-.1 0-.198-.09-.198-.198v-.227c0-.11.09-.198.198-.198h.227zm-13.598 0c.11 0 .198.09.198.198v.227c0 .11-.09.198-.198.198H27.3c-.1 0-.198-.09-.198-.198v-.227c0-.11.09-.198.198-.198h.227zm5.95 0c.11 0 .198.09.198.198v.227c0 .11-.09.198-.198.198h-.227c-.11 0-.198-.09-.198-.198v-.227c0-.11.09-.198.198-.198h.227zm7.65-.85c.11 0 .198.09.198.198v.227c0 .11-.09.198-.198.198h-.227c-.1 0-.198-.09-.198-.198v-.227c0-.11.09-.198.198-.198h.227zm-.85 0c.11 0 .198.09.198.198v.227c0 .11-.09.198-.198.198h-.227c-.11 0-.198-.09-.198-.198v-.227c0-.11.09-.198.198-.198h.227zm3.4 0c.11 0 .198.09.198.198v.227c0 .11-.09.198-.198.198h-.227c-.11 0-.198-.09-.198-.198v-.227c0-.11.09-.198.198-.198h.227zm-7.65 0c.11 0 .198.09.198.198v.227c0 .11-.09.198-.198.198h-.227c-.11 0-.198-.09-.198-.198v-.227c0-.11.09-.198.198-.198h.227zm-.85 0c.11 0 .198.09.198.198v.227c0 .11-.09.198-.198.198h-.227c-.11 0-.198-.09-.198-.198v-.227c0-.11.09-.198.198-.198h.227zm11.048 0c.1 0 .198.09.198.198v.227c0 .11-.09.198-.198.198h-.227c-.1 0-.198-.09-.198-.198v-.227c0-.11.09-.198.198-.198h.227zm-18.697 0c.11 0 .198.09.198.198v.227c0 .11-.09.198-.198.198H27.3c-.1 0-.198-.09-.198-.198v-.227c0-.11.09-.198.198-.198h.227zm15.298 0c.11 0 .198.09.198.198v.227c0 .11-.09.198-.198.198h-.227c-.11 0-.198-.09-.198-.198v-.227c0-.11.09-.198.198-.198h.227zm-5.1 0c.11 0 .198.09.198.198v.227c0 .11-.09.198-.198.198h-.227c-.11 0-.198-.09-.198-.198v-.227c0-.11.09-.198.198-.198h.227zm1.7 0c.11 0 .198.09.198.198v.227c0 .11-.09.198-.198.198h-.227c-.11 0-.198-.09-.198-.198v-.227c0-.11.09-.198.198-.198h.227zm-11.05 0c.11 0 .198.09.198.198v.227c0 .11-.09.198-.198.198h-.227c-.11 0-.198-.09-.198-.198v-.227c0-.11.09-.198.198-.198h.227zm3.4 0c.11 0 .198.09.198.198v.227c0 .11-.09.198-.198.198h-.227c-.1 0-.198-.09-.198-.198v-.227c0-.11.09-.198.198-.198h.227zm-5.95 0c.11 0 .198.09.198.198v.227c0 .1-.075.183-.17.196h-.027-.227c-.11 0-.198-.09-.198-.198v-.227c0-.11.09-.198.198-.198h.227zm6.8 0c.11 0 .198.09.198.198v.227c0 .11-.09.198-.198.198h-.227c-.11 0-.198-.09-.198-.198v-.227c0-.11.09-.198.198-.198h.227zm5.95 0c.11 0 .198.09.198.198v.227c0 .11-.09.198-.198.198h-.227c-.11 0-.198-.09-.198-.198v-.227c0-.11.09-.198.198-.198h.227zm-4.25 0c.1 0 .198.09.198.198v.227c0 .11-.09.198-.198.198h-.227c-.11 0-.198-.09-.198-.198v-.227c0-.11.09-.198.198-.198h.227zm-9.35 0c.11 0 .198.09.198.198v.227c0 .1-.075.183-.17.196h-.027-.227c-.11 0-.198-.09-.198-.198v-.227c0-.11.09-.198.198-.198h.227zm20.397 0c.11 0 .198.09.198.198v.227c0 .11-.09.198-.198.198h-.227c-.11 0-.198-.09-.198-.198v-.227c0-.11.09-.198.198-.198h.227zm-8.5 0c.11 0 .198.09.198.198v.227c0 .11-.09.198-.198.198h-.227c-.11 0-.198-.09-.198-.198v-.227c0-.11.09-.198.198-.198h.227zm5.1 0c.11 0 .198.09.198.198v.227c0 .11-.09.198-.198.198h-.227c-.11 0-.198-.09-.198-.198v-.227c0-.11.09-.198.198-.198h.227zm-12.748 0c.11 0 .198.09.198.198v.227c0 .11-.09.198-.198.198H29c-.11 0-.198-.09-.198-.198v-.227c0-.11.09-.198.198-.198h.227zm1.7 0c.11 0 .198.09.198.198v.227c0 .11-.09.198-.198.198h-.227c-.11 0-.198-.09-.198-.198v-.227c0-.11.09-.198.198-.198h.227zm2.55 0c.11 0 .198.09.198.198v.227c0 .11-.09.198-.198.198h-.227c-.11 0-.198-.09-.198-.198v-.227c0-.11.09-.198.198-.198h.227zm-4.25-.85c.11 0 .198.09.198.198v.227c0 .11-.09.198-.198.198H29c-.11 0-.198-.09-.198-.198v-.227c0-.11.09-.198.198-.198h.227zm-.85 0c.11 0 .198.09.198.198v.227c0 .11-.09.198-.198.198h-.227c-.11 0-.198-.09-.198-.198v-.227c0-.11.09-.198.198-.198h.227zm3.4 0c.1 0 .198.09.198.198v.227c0 .11-.09.198-.198.198h-.227c-.1 0-.198-.09-.198-.198v-.227c0-.11.09-.198.198-.198h.227zm1.7 0c.11 0 .198.09.198.198v.227c0 .11-.09.198-.198.198h-.227c-.11 0-.198-.09-.198-.198v-.227c0-.11.09-.198.198-.198h.227zm1.7 0c.11 0 .198.09.198.198v.227c0 .11-.09.198-.198.198h-.227c-.11 0-.198-.09-.198-.198v-.227c0-.11.09-.198.198-.198h.227zm-5.1 0c.11 0 .198.09.198.198v.227c0 .11-.09.198-.198.198h-.227c-.11 0-.198-.09-.198-.198v-.227c0-.11.09-.198.198-.198h.227zm10.198 0c.11 0 .198.09.198.198v.227c0 .11-.09.198-.198.198h-.227c-.11 0-.198-.09-.198-.198v-.227c0-.11.09-.198.198-.198h.227zm2.55 0c.11 0 .198.09.198.198v.227c0 .11-.09.198-.198.198h-.227c-.11 0-.198-.09-.198-.198v-.227c0-.11.09-.198.198-.198h.227zm-.85 0c.11 0 .198.09.198.198v.227c0 .11-.09.198-.198.198h-.227c-.11 0-.198-.09-.198-.198v-.227c0-.11.09-.198.198-.198h.227zm-.85 0c.11 0 .198.09.198.198v.227c0 .11-.09.198-.198.198h-.227c-.1 0-.198-.09-.198-.198v-.227c0-.11.09-.198.198-.198h.227zm-6.8 0c.1 0 .198.09.198.198v.227c0 .11-.09.198-.198.198h-.227c-.11 0-.198-.09-.198-.198v-.227c0-.11.09-.198.198-.198h.227zm9.35 0c.11 0 .198.09.198.198v.227c0 .11-.09.198-.198.198h-.227c-.11 0-.198-.09-.198-.198v-.227c0-.11.09-.198.198-.198h.227zm-7.65 0c.11 0 .198.09.198.198v.227c0 .11-.09.198-.198.198h-.227c-.11 0-.198-.09-.198-.198v-.227c0-.11.09-.198.198-.198h.227zm9.35 0c.11 0 .198.09.198.198v.227c0 .11-.09.198-.198.198h-.227c-.11 0-.198-.09-.198-.198v-.227c0-.11.09-.198.198-.198h.227zm-6.8 0c.11 0 .198.09.198.198v.227c0 .11-.09.198-.198.198h-.227c-.11 0-.198-.09-.198-.198v-.227c0-.11.09-.198.198-.198h.227zm-11.05 0c.11 0 .198.09.198.198v.227c0 .11-.09.198-.198.198H27.3c-.1 0-.198-.09-.198-.198v-.227c0-.11.09-.198.198-.198h.227zm9.35 0c.11 0 .198.09.198.198v.227c0 .11-.09.198-.198.198h-.227c-.11 0-.198-.09-.198-.198v-.227c0-.11.09-.198.198-.198h.227zm2.55 0c.11 0 .198.09.198.198v.227c0 .11-.09.198-.198.198h-.227c-.11 0-.198-.09-.198-.198v-.227c0-.11.09-.198.198-.198h.227zm-8.5 0c.11 0 .198.09.198.198v.227c0 .11-.09.198-.198.198h-.227c-.11 0-.198-.09-.198-.198v-.227c0-.11.09-.198.198-.198h.227zm1.7 0c.11 0 .198.09.198.198v.227c0 .11-.09.198-.198.198h-.227c-.11 0-.198-.09-.198-.198v-.227c0-.11.09-.198.198-.198h.227zm5.1 0c.11 0 .198.09.198.198v.227c0 .11-.09.198-.198.198h-.227c-.11 0-.198-.09-.198-.198v-.227c0-.11.09-.198.198-.198h.227zm6.8 0c.11 0 .198.09.198.198v.227c0 .11-.09.198-.198.198h-.227c-.11 0-.198-.09-.198-.198v-.227c0-.11.09-.198.198-.198h.227zm-18.697 0c.11 0 .198.09.198.198v.227c0 .11-.09.198-.198.198H25.6c-.11 0-.198-.09-.198-.198v-.227c0-.11.09-.198.198-.198h.227zm-.85 0c.11 0 .198.09.198.198v.227c0 .11-.09.198-.198.198h-.227c-.11 0-.198-.09-.198-.198v-.227c0-.11.09-.198.198-.198h.227zm1.7-.85c.11 0 .198.09.198.198v.227c0 .1-.09.198-.198.198h-.227c-.11 0-.198-.09-.198-.198v-.227c0-.11.09-.198.198-.198h.227zm9.35 0c.11 0 .198.09.198.198v.227c0 .1-.09.198-.198.198h-.227c-.11 0-.198-.09-.198-.198v-.227c0-.11.09-.198.198-.198h.227zm-.85 0c.1 0 .198.09.198.198v.227c0 .1-.09.198-.198.198h-.227c-.11 0-.198-.09-.198-.198v-.227c0-.11.09-.198.198-.198h.227zm-7.65 0c.11 0 .198.09.198.198v.227c0 .1-.09.198-.198.198H27.3c-.1 0-.198-.09-.198-.198v-.227c0-.11.09-.198.198-.198h.227zm2.55 0c.11 0 .198.09.198.198v.227c0 .1-.09.198-.198.198h-.227c-.11 0-.198-.09-.198-.198v-.227c0-.11.09-.198.198-.198h.227zm-4.25 0c.11 0 .198.09.198.198v.227c0 .1-.09.198-.198.198H25.6c-.11 0-.198-.09-.198-.198v-.227c0-.11.09-.198.198-.198h.227zm16.148 0c.11 0 .198.09.198.198v.227c0 .1-.09.198-.198.198h-.227c-.11 0-.198-.09-.198-.198v-.227c0-.11.09-.198.198-.198h.227zm-5.1 0c.11 0 .198.09.198.198v.227c0 .1-.09.198-.198.198h-.227c-.11 0-.198-.09-.198-.198v-.227c0-.11.09-.198.198-.198h.227zm-5.95 0c.11 0 .198.09.198.198v.227c0 .1-.09.198-.198.198h-.227c-.11 0-.198-.09-.198-.198v-.227c0-.11.09-.198.198-.198h.227zm2.55 0c.11 0 .198.09.198.198v.227c0 .1-.09.198-.198.198h-.227c-.11 0-.198-.09-.198-.198v-.227c0-.11.09-.198.198-.198h.227zm5.1 0c.11 0 .198.09.198.198v.227c0 .1-.09.198-.198.198h-.227c-.11 0-.198-.09-.198-.198v-.227c0-.11.09-.198.198-.198h.227zm2.55 0c.11 0 .198.09.198.198v.227c0 .1-.09.198-.198.198h-.227c-.11 0-.198-.09-.198-.198v-.227c0-.11.09-.198.198-.198h.227zm-9.35 0c.11 0 .198.09.198.198v.227c0 .1-.09.198-.198.198h-.227c-.1 0-.198-.09-.198-.198v-.227c0-.11.09-.198.198-.198h.227zm11.05 0c.11 0 .198.09.198.198v.227c0 .1-.09.198-.198.198h-.227c-.11 0-.198-.09-.198-.198v-.227c0-.11.09-.198.198-.198h.227zm-3.4 0c.11 0 .198.09.198.198v.227c0 .1-.09.198-.198.198h-.227c-.11 0-.198-.09-.198-.198v-.227c0-.11.09-.198.198-.198h.227zm-10.2 0c.11 0 .198.09.198.198v.227c0 .1-.09.198-.198.198H29c-.11 0-.198-.09-.198-.198v-.227c0-.11.09-.198.198-.198h.227zm11.05 0c.11 0 .198.09.198.198v.227c0 .1-.09.198-.198.198h-.227c-.11 0-.198-.09-.198-.198v-.227c0-.11.09-.198.198-.198h.227zm-2.55 0c.11 0 .198.09.198.198v.227c0 .1-.09.198-.198.198h-.227c-.11 0-.198-.09-.198-.198v-.227c0-.11.09-.198.198-.198h.227zm-9.35 0c.11 0 .198.09.198.198v.227c0 .1-.09.198-.198.198h-.227c-.11 0-.198-.09-.198-.198v-.227c0-.11.09-.198.198-.198h.227zm4.25 0c.11 0 .198.09.198.198v.227c0 .1-.09.198-.198.198h-.227c-.11 0-.198-.09-.198-.198v-.227c0-.11.09-.198.198-.198h.227zm1.7 0c.11 0 .198.09.198.198v.227c0 .1-.09.198-.198.198h-.227c-.11 0-.198-.09-.198-.198v-.227c0-.11.09-.198.198-.198h.227zm-5.1-.85c.11 0 .198.09.198.198v.227c0 .11-.09.198-.198.198H29c-.11 0-.198-.09-.198-.198v-.227c0-.11.09-.198.198-.198h.227zm9.35 0c.11 0 .198.09.198.198v.227c0 .11-.09.198-.198.198h-.227c-.11 0-.198-.09-.198-.198v-.227c0-.11.09-.198.198-.198h.227zm-1.7 0c.11 0 .198.09.198.198v.227c0 .11-.09.198-.198.198h-.227c-.11 0-.198-.09-.198-.198v-.227c0-.11.09-.198.198-.198h.227zm-1.7 0c.11 0 .198.09.198.198v.227c0 .11-.09.198-.198.198h-.227c-.11 0-.198-.09-.198-.198v-.227c0-.11.09-.198.198-.198h.227zm-3.4 0c.11 0 .198.09.198.198v.227c0 .11-.09.198-.198.198h-.227c-.11 0-.198-.09-.198-.198v-.227c0-.11.09-.198.198-.198h.227zm9.35 0c.11 0 .198.09.198.198v.227c0 .11-.09.198-.198.198h-.227c-.1 0-.198-.09-.198-.198v-.227c0-.11.09-.198.198-.198h.227zm-10.198 0c.11 0 .198.09.198.198v.227c0 .11-.09.198-.198.198h-.227c-.11 0-.198-.09-.198-.198v-.227c0-.11.09-.198.198-.198h.227zm2.55 0c.11 0 .198.09.198.198v.227c0 .11-.09.198-.198.198h-.227c-.11 0-.198-.09-.198-.198v-.227c0-.11.09-.198.198-.198h.227zm6.8 0c.11 0 .198.09.198.198v.227c0 .11-.09.198-.198.198h-.227c-.11 0-.198-.09-.198-.198v-.227c0-.11.09-.198.198-.198h.227zm-5.95 0c.1 0 .198.09.198.198v.227c0 .11-.09.198-.198.198h-.227c-.11 0-.198-.09-.198-.198v-.227c0-.11.09-.198.198-.198h.227zm-5.95 0c.11 0 .198.09.198.198v.227c0 .11-.09.198-.198.198h-.227c-.11 0-.198-.09-.198-.198v-.227c0-.11.09-.198.198-.198h.227zm11.05 0c.11 0 .198.09.198.198v.227c0 .11-.09.198-.198.198h-.227c-.11 0-.198-.09-.198-.198v-.227c0-.11.09-.198.198-.198h.227zm-1.7 0c.11 0 .198.09.198.198v.227c0 .11-.09.198-.198.198h-.227c-.11 0-.198-.09-.198-.198v-.227c0-.11.09-.198.198-.198h.227zm-7.65 0c.11 0 .198.09.198.198v.227c0 .11-.09.198-.198.198h-.227c-.11 0-.198-.09-.198-.198v-.227c0-.11.09-.198.198-.198h.227zm2.55 0c.11 0 .198.09.198.198v.227c0 .11-.09.198-.198.198h-.227c-.11 0-.198-.09-.198-.198v-.227c0-.11.09-.198.198-.198h.227zm-5.1 0c.11 0 .198.09.198.198v.227c0 .11-.09.198-.198.198H27.3c-.1 0-.198-.09-.198-.198v-.227c0-.11.09-.198.198-.198h.227zm8.5 0c.11 0 .198.09.198.198v.227c0 .11-.09.198-.198.198h-.227c-.11 0-.198-.09-.198-.198v-.227c0-.11.09-.198.198-.198h.227zm-9.35 0c.11 0 .198.09.198.198v.227c0 .11-.09.198-.198.198h-.227c-.11 0-.198-.09-.198-.198v-.227c0-.11.09-.198.198-.198h.227zm8.5-.85c.11 0 .198.09.198.198v.227c0 .11-.09.198-.198.198h-.227c-.11 0-.198-.09-.198-.198v-.227c0-.11.09-.198.198-.198h.227zm-3.4 0c.11 0 .198.09.198.198v.227c0 .11-.09.198-.198.198h-.227c-.11 0-.198-.09-.198-.198v-.227c0-.11.09-.198.198-.198h.227zm6.8 0c.11 0 .198.09.198.198v.227c0 .11-.09.198-.198.198h-.227c-.11 0-.198-.09-.198-.198v-.227c0-.11.09-.198.198-.198h.227zm-8.5 0c.11 0 .198.09.198.198v.227c0 .11-.09.198-.198.198h-.227c-.11 0-.198-.09-.198-.198v-.227c0-.11.09-.198.198-.198h.227zm7.65 0c.11 0 .198.09.198.198v.227c0 .11-.09.198-.198.198h-.227c-.11 0-.198-.09-.198-.198v-.227c0-.11.09-.198.198-.198h.227zm-1.7 0c.11 0 .198.09.198.198v.227c0 .11-.09.198-.198.198h-.227c-.11 0-.198-.09-.198-.198v-.227c0-.11.09-.198.198-.198h.227zm-2.55 0c.11 0 .198.09.198.198v.227c0 .11-.09.198-.198.198h-.227c-.11 0-.198-.09-.198-.198v-.227c0-.11.09-.198.198-.198h.227zm.85 0c.1 0 .198.09.198.198v.227c0 .11-.09.198-.198.198h-.227c-.11 0-.198-.09-.198-.198v-.227c0-.11.09-.198.198-.198h.227zm-5.1 0c.11 0 .198.09.198.198v.227c0 .11-.09.198-.198.198H29c-.11 0-.198-.09-.198-.198v-.227c0-.11.09-.198.198-.198h.227zm-.85 0c.11 0 .198.09.198.198v.227c0 .11-.09.198-.198.198h-.227c-.11 0-.198-.09-.198-.198v-.227c0-.11.09-.198.198-.198h.227zm8.5 0c.11 0 .198.09.198.198v.227c0 .11-.09.198-.198.198h-.227c-.11 0-.198-.09-.198-.198v-.227c0-.11.09-.198.198-.198h.227zm-4.25 0c.11 0 .198.09.198.198v.227c0 .11-.09.198-.198.198h-.227c-.11 0-.198-.09-.198-.198v-.227c0-.11.09-.198.198-.198h.227zm-1.7 0c.11 0 .198.09.198.198v.227c0 .11-.09.198-.198.198h-.227c-.11 0-.198-.09-.198-.198v-.227c0-.11.09-.198.198-.198h.227zm3.4-.85c.1 0 .198.09.198.198v.227c0 .11-.09.198-.198.198h-.227c-.11 0-.198-.09-.198-.198v-.227c0-.11.09-.198.198-.198h.227zm-3.4 0c.11 0 .198.09.198.198v.227c0 .11-.09.198-.198.198h-.227c-.11 0-.198-.09-.198-.198v-.227c0-.11.09-.198.198-.198h.227zm2.55 0c.11 0 .198.09.198.198v.227c0 .11-.09.198-.198.198h-.227c-.11 0-.198-.09-.198-.198v-.227c0-.11.09-.198.198-.198h.227zm-.85 0c.11 0 .198.09.198.198v.227c0 .11-.09.198-.198.198h-.227c-.11 0-.198-.09-.198-.198v-.227c0-.11.09-.198.198-.198h.227zm-3.4 0c.11 0 .198.09.198.198v.227c0 .11-.09.198-.198.198H29c-.11 0-.198-.09-.198-.198v-.227c0-.11.09-.198.198-.198h.227zm-.85 0c.11 0 .198.09.198.198v.227c0 .11-.09.198-.198.198h-.227c-.11 0-.198-.09-.198-.198v-.227c0-.11.09-.198.198-.198h.227zm6.8 0c.11 0 .198.09.198.198v.227c0 .11-.09.198-.198.198h-.227c-.11 0-.198-.09-.198-.198v-.227c0-.11.09-.198.198-.198h.227zm-3.4 0c.11 0 .198.09.198.198v.227c0 .11-.09.198-.198.198h-.227c-.11 0-.198-.09-.198-.198v-.227c0-.11.09-.198.198-.198h.227zm4.25 0c.11 0 .198.09.198.198v.227c0 .11-.09.198-.198.198h-.227c-.11 0-.198-.09-.198-.198v-.227c0-.11.09-.198.198-.198h.227zm-5.95 0c.11 0 .198.09.198.198v.227c0 .11-.09.198-.198.198h-.227c-.11 0-.198-.09-.198-.198v-.227c0-.11.09-.198.198-.198h.227zm6.8 0c.1 0 .198.09.198.198v.227c0 .11-.09.198-.198.198h-.227c-.11 0-.198-.09-.198-.198v-.227c0-.11.09-.198.198-.198h.227zm-3.4-.85c.11 0 .198.09.198.198v.227c0 .11-.09.198-.198.198h-.227c-.11 0-.198-.09-.198-.198v-.227c0-.11.09-.198.198-.198h.227zm-2.55 0c.11 0 .198.09.198.198v.227c0 .11-.09.198-.198.198h-.227c-.11 0-.198-.09-.198-.198v-.227c0-.11.09-.198.198-.198h.227zm.85 0c.11 0 .198.09.198.198v.227c0 .11-.09.198-.198.198h-.227c-.11 0-.198-.09-.198-.198v-.227c0-.11.09-.198.198-.198h.227zm-2.55 0c.11 0 .198.09.198.198v.227c0 .11-.09.198-.198.198H29c-.11 0-.198-.09-.198-.198v-.227c0-.11.09-.198.198-.198h.227zm.85 0c.11 0 .198.09.198.198v.227c0 .11-.09.198-.198.198h-.227c-.11 0-.198-.09-.198-.198v-.227c0-.11.09-.198.198-.198h.227zm2.55 0c.11 0 .198.09.198.198v.227c0 .11-.09.198-.198.198h-.227c-.11 0-.198-.09-.198-.198v-.227c0-.11.09-.198.198-.198h.227zm2.55 0c.11 0 .198.09.198.198v.227c0 .11-.09.198-.198.198h-.227c-.11 0-.198-.09-.198-.198v-.227c0-.11.09-.198.198-.198h.227zm.85 0c.11 0 .198.09.198.198v.227c0 .11-.09.198-.198.198h-.227c-.11 0-.198-.09-.198-.198v-.227c0-.11.09-.198.198-.198h.227zm-1.7 0c.1 0 .198.09.198.198v.227c0 .11-.09.198-.198.198h-.227c-.11 0-.198-.09-.198-.198v-.227c0-.11.09-.198.198-.198h.227zm.85-.85c.11 0 .198.09.198.198v.227c0 .11-.09.198-.198.198h-.227c-.11 0-.198-.09-.198-.198v-.227c0-.11.09-.198.198-.198h.227zm-.85 0c.1 0 .198.09.198.198v.227c0 .11-.09.198-.198.198h-.227c-.11 0-.198-.09-.198-.198v-.227c0-.11.09-.198.198-.198h.227zm-.85 0c.11 0 .198.09.198.198v.227c0 .11-.09.198-.198.198h-.227c-.11 0-.198-.09-.198-.198v-.227c0-.11.09-.198.198-.198h.227zm-2.55 0c.11 0 .198.09.198.198v.227c0 .11-.09.198-.198.198h-.227c-.11 0-.198-.09-.198-.198v-.227c0-.11.09-.198.198-.198h.227zm.85 0c.11 0 .198.09.198.198v.227c0 .11-.09.198-.198.198h-.227c-.11 0-.198-.09-.198-.198v-.227c0-.11.09-.198.198-.198h.227zm-1.7 0c.11 0 .198.09.198.198v.227c0 .11-.09.198-.198.198h-.227c-.11 0-.198-.09-.198-.198v-.227c0-.11.09-.198.198-.198h.227zm-.85 0c.11 0 .198.09.198.198v.227c0 .11-.09.198-.198.198H29c-.11 0-.198-.09-.198-.198v-.227c0-.11.09-.198.198-.198h.227zm3.4 0c.11 0 .198.09.198.198v.227c0 .11-.09.198-.198.198h-.227c-.11 0-.198-.09-.198-.198v-.227c0-.11.09-.198.198-.198h.227zm.85-.85c.11 0 .198.09.198.198v.227c0 .11-.09.198-.198.198h-.227c-.11 0-.198-.09-.198-.198v-.227c0-.11.09-.198.198-.198h.227zm-3.4 0c.11 0 .198.09.198.198v.227c0 .11-.09.198-.198.198h-.227c-.11 0-.198-.09-.198-.198v-.227c0-.11.09-.198.198-.198h.227zm2.55 0c.11 0 .198.09.198.198v.227c0 .11-.09.198-.198.198h-.227c-.11 0-.198-.09-.198-.198v-.227c0-.11.09-.198.198-.198h.227zm-.85 0c.11 0 .198.09.198.198v.227c0 .11-.09.198-.198.198h-.227c-.1 0-.198-.09-.198-.198v-.227c0-.11.09-.198.198-.198h.227zm2.55 0c.1 0 .198.09.198.198v.227c0 .11-.09.198-.198.198h-.227c-.11 0-.198-.09-.198-.198v-.227c0-.11.09-.198.198-.198h.227zm-3.4 0c.11 0 .198.09.198.198v.227c0 .11-.09.198-.198.198h-.227c-.11 0-.198-.09-.198-.198v-.227c0-.11.09-.198.198-.198h.227zm4.25 0c.11 0 .198.09.198.198v.227c0 .11-.09.198-.198.198h-.227c-.11 0-.198-.09-.198-.198v-.227c0-.11.09-.198.198-.198h.227zm-5.95 0c.11 0 .198.09.198.198v.227c0 .11-.09.198-.198.198H29c-.11 0-.198-.09-.198-.198v-.227c0-.11.09-.198.198-.198h.227zm1.7-.85c.11 0 .198.09.198.198v.227c0 .11-.09.198-.198.198h-.227c-.11 0-.198-.09-.198-.198v-.227c0-.11.09-.198.198-.198h.227zm-1.7 0c.11 0 .198.09.198.198v.227c0 .11-.09.198-.198.198H29c-.11 0-.198-.09-.198-.198v-.227c0-.11.09-.198.198-.198h.227zm3.4 0c.11 0 .198.09.198.198v.227c0 .11-.09.198-.198.198h-.227c-.11 0-.198-.09-.198-.198v-.227c0-.11.09-.198.198-.198h.227zm-.85 0c.11 0 .198.09.198.198v.227c0 .11-.09.198-.198.198h-.227c-.1 0-.198-.09-.198-.198v-.227c0-.11.09-.198.198-.198h.227zm2.55 0c.1 0 .198.09.198.198v.227c0 .11-.09.198-.198.198h-.227c-.11 0-.198-.09-.198-.198v-.227c0-.11.09-.198.198-.198h.227zm-.85 0c.11 0 .198.09.198.198v.227c0 .11-.09.198-.198.198h-.227c-.11 0-.198-.09-.198-.198v-.227c0-.11.09-.198.198-.198h.227zm-3.4 0c.11 0 .198.09.198.198v.227c0 .11-.09.198-.198.198h-.227c-.11 0-.198-.09-.198-.198v-.227c0-.11.09-.198.198-.198h.227zm3.4-.85c.11 0 .198.09.198.198v.227c0 .11-.09.198-.198.198h-.227c-.11 0-.198-.09-.198-.198v-.227c0-.11.09-.198.198-.198h.227zm-.85 0c.11 0 .198.09.198.198v.227c0 .11-.09.198-.198.198h-.227c-.11 0-.198-.09-.198-.198v-.227c0-.11.09-.198.198-.198h.227zm-7.65 0c.11 0 .198.09.198.198v.227c0 .11-.09.198-.198.198h-.227c-.11 0-.198-.09-.198-.198v-.227c0-.11.09-.198.198-.198h.227zm.85 0c.11 0 .198.09.198.198v.227c0 .11-.09.198-.198.198H25.6c-.11 0-.198-.09-.198-.198v-.227c0-.11.09-.198.198-.198h.227zm8.5 0c.1 0 .198.09.198.198v.227c0 .11-.09.198-.198.198h-.227c-.11 0-.198-.09-.198-.198v-.227c0-.11.09-.198.198-.198h.227zm-4.25 0c.11 0 .198.09.198.198v.227c0 .11-.09.198-.198.198h-.227c-.11 0-.198-.09-.198-.198v-.227c0-.11.09-.198.198-.198h.227zm.85 0c.11 0 .198.09.198.198v.227c0 .11-.09.198-.198.198h-.227c-.11 0-.198-.09-.198-.198v-.227c0-.11.09-.198.198-.198h.227zm-1.7 0c.11 0 .198.09.198.198v.227c0 .11-.09.198-.198.198H29c-.11 0-.198-.09-.198-.198v-.227c0-.11.09-.198.198-.198h.227zm2.55 0c.11 0 .198.09.198.198v.227c0 .11-.09.198-.198.198h-.227c-.1 0-.198-.09-.198-.198v-.227c0-.11.09-.198.198-.198h.227zm-.85-.85c.11 0 .198.09.198.198v.227c0 .11-.09.198-.198.198h-.227c-.11 0-.198-.09-.198-.198v-.227c0-.11.09-.198.198-.198h.227zm-.85 0c.11 0 .198.09.198.198v.227c0 .11-.09.198-.198.198h-.227c-.11 0-.198-.09-.198-.198v-.227c0-.11.09-.198.198-.198h.227zm-3.4 0c.11 0 .198.09.198.198v.227c0 .11-.09.198-.198.198h-.227c-.11 0-.198-.09-.198-.198v-.227c0-.11.09-.198.198-.198h.227zm.85 0c.11 0 .198.09.198.198v.227c0 .11-.09.198-.198.198H27.3c-.11 0-.198-.09-.198-.198v-.227c0-.11.09-.198.198-.198h.227zm1.7 0c.11 0 .198.09.198.198v.227c0 .11-.09.198-.198.198H29c-.11 0-.198-.09-.198-.198v-.227c0-.11.09-.198.198-.198h.227zm2.55 0c.11 0 .198.09.198.198v.227c0 .11-.09.198-.198.198h-.227c-.1 0-.198-.09-.198-.198v-.227c0-.11.09-.198.198-.198h.227zm2.55 0c.1 0 .198.09.198.198v.227c0 .11-.09.198-.198.198h-.227c-.11 0-.198-.09-.198-.198v-.227c0-.11.09-.198.198-.198h.227zm-5.95 0c.11 0 .198.09.198.198v.227c0 .11-.09.198-.198.198h-.227c-.11 0-.198-.09-.198-.198v-.227c0-.11.09-.198.198-.198h.227zm5.1 0c.11 0 .198.09.198.198v.227c0 .11-.09.198-.198.198h-.227c-.11 0-.198-.09-.198-.198v-.227c0-.11.09-.198.198-.198h.227zm-.85 0c.11 0 .198.09.198.198v.227c0 .11-.09.198-.198.198h-.227c-.11 0-.198-.09-.198-.198v-.227c0-.11.09-.198.198-.198h.227zm-8.5 0c.11 0 .198.09.198.198v.227c0 .11-.09.198-.198.198H23.9c-.11 0-.198-.09-.198-.198v-.227c0-.11.09-.198.198-.198h.227zm.85 0c.11 0 .198.09.198.198v.227c0 .11-.09.198-.198.198h-.227c-.11 0-.198-.09-.198-.198v-.227c0-.11.09-.198.198-.198h.227zm.85 0c.11 0 .198.09.198.198v.227c0 .11-.09.198-.198.198H25.6c-.11 0-.198-.09-.198-.198v-.227c0-.11.09-.198.198-.198h.227zm7.65-.85c.11 0 .198.09.198.198v.227c0 .11-.09.198-.198.198h-.227c-.11 0-.198-.09-.198-.198v-.227c0-.11.09-.198.198-.198h.227zm-4.25 0c.11 0 .198.09.198.198v.227c0 .11-.09.198-.198.198H29c-.11 0-.198-.09-.198-.198v-.227c0-.11.09-.198.198-.198h.227zm.85 0c.11 0 .198.09.198.198v.227c0 .11-.09.198-.198.198h-.227c-.11 0-.198-.09-.198-.198v-.227c0-.11.09-.198.198-.198h.227zm.85 0c.11 0 .198.09.198.198v.227c0 .11-.09.198-.198.198h-.227c-.11 0-.198-.09-.198-.198v-.227c0-.11.09-.198.198-.198h.227zm1.7 0c.11 0 .198.09.198.198v.227c0 .11-.09.198-.198.198h-.227c-.11 0-.198-.09-.198-.198v-.227c0-.11.09-.198.198-.198h.227zm-5.1 0c.11 0 .198.09.198.198v.227c0 .11-.09.198-.198.198H27.3c-.1 0-.198-.09-.198-.198v-.227c0-.11.09-.198.198-.198h.227zm-1.7 0c.11 0 .198.09.198.198v.227c0 .11-.09.198-.198.198H25.6c-.11 0-.198-.09-.198-.198v-.227c0-.11.09-.198.198-.198h.227zm-.85 0c.11 0 .198.09.198.198v.227c0 .11-.09.198-.198.198h-.227c-.11 0-.198-.09-.198-.198v-.227c0-.11.09-.198.198-.198h.227zm3.4 0c.11 0 .198.09.198.198v.227c0 .11-.09.198-.198.198h-.227c-.11 0-.198-.09-.198-.198v-.227c0-.11.09-.198.198-.198h.227zm-1.7 0c.11 0 .198.09.198.198v.227c0 .11-.09.198-.198.198h-.227c-.11 0-.198-.09-.198-.198v-.227c0-.11.09-.198.198-.198h.227zm5.1 0c.11 0 .198.09.198.198v.227c0 .11-.09.198-.198.198h-.227c-.1 0-.198-.09-.198-.198v-.227c0-.11.09-.198.198-.198h.227zm-4.25-.85c.11 0 .198.09.198.198v.227c0 .11-.09.198-.198.198H27.3c-.11 0-.198-.09-.198-.198v-.227c0-.11.09-.198.198-.198h.227zm.85 0c.11 0 .198.09.198.198v.227c0 .11-.09.198-.198.198h-.227c-.11 0-.198-.09-.198-.198v-.227c0-.11.09-.198.198-.198h.227zm.85 0c.11 0 .198.09.198.198v.227c0 .11-.09.198-.198.198H29c-.11 0-.198-.09-.198-.198v-.227c0-.11.09-.198.198-.198h.227zm2.55 0c.11 0 .198.09.198.198v.227c0 .11-.09.198-.198.198h-.227c-.1 0-.198-.09-.198-.198v-.227c0-.11.09-.198.198-.198h.227zm-1.7 0c.11 0 .198.09.198.198v.227c0 .11-.09.198-.198.198h-.227c-.11 0-.198-.09-.198-.198v-.227c0-.11.09-.198.198-.198h.227zm2.55 0c.11 0 .198.09.198.198v.227c0 .11-.09.198-.198.198h-.227c-.11 0-.198-.09-.198-.198v-.227c0-.11.09-.198.198-.198h.227zm-1.7 0c.11 0 .198.09.198.198v.227c0 .11-.09.198-.198.198h-.227c-.11 0-.198-.09-.198-.198v-.227c0-.11.09-.198.198-.198h.227zm-4.25 0c.11 0 .198.09.198.198v.227c0 .11-.09.198-.198.198h-.227c-.11 0-.198-.09-.198-.198v-.227c0-.11.09-.198.198-.198h.227zm-.85 0c.11 0 .198.09.198.198v.227c0 .11-.09.198-.198.198H25.6c-.11 0-.198-.09-.198-.198v-.227c0-.11.09-.198.198-.198h.227zm1.7-.85c.11 0 .198.09.198.198v.227c0 .11-.09.198-.198.198H27.3c-.11 0-.198-.09-.198-.198v-.227c0-.11.09-.198.198-.198h.227zm-.85 0c.11 0 .198.09.198.198v.227c0 .11-.09.198-.198.198h-.227c-.11 0-.198-.09-.198-.198v-.227c0-.11.09-.198.198-.198h.227zm1.7 0c.11 0 .198.09.198.198v.227c0 .11-.09.198-.198.198h-.227c-.11 0-.198-.09-.198-.198v-.227c0-.11.09-.198.198-.198h.227zm1.7 0c.11 0 .198.09.198.198v.227c0 .11-.09.198-.198.198h-.227c-.11 0-.198-.09-.198-.198v-.227c0-.11.09-.198.198-.198h.227zm-.85 0c.11 0 .198.09.198.198v.227c0 .11-.09.198-.198.198H29c-.11 0-.198-.09-.198-.198v-.227c0-.11.09-.198.198-.198h.227zm1.7 0c.11 0 .198.09.198.198v.227c0 .11-.09.198-.198.198h-.227c-.11 0-.198-.09-.198-.198v-.227c0-.11.09-.198.198-.198h.227zm.85 0c.11 0 .198.09.198.198v.227c0 .11-.09.198-.198.198h-.227c-.1 0-.198-.09-.198-.198v-.227c0-.11.09-.198.198-.198h.227zm-3.4-.85c.11 0 .198.09.198.198v.227c0 .11-.09.198-.198.198h-.227c-.11 0-.198-.09-.198-.198v-.227c0-.1.09-.198.198-.198h.227zm-.85 0c.11 0 .198.09.198.198v.227c0 .11-.09.198-.198.198H27.3c-.1 0-.198-.09-.198-.198v-.227c0-.1.09-.198.198-.198h.227zm1.7 0c.11 0 .198.09.198.198v.227c0 .11-.09.198-.198.198H29c-.11 0-.198-.09-.198-.198v-.227c0-.1.09-.198.198-.198h.227zm1.7 0c.11 0 .198.09.198.198v.227c0 .11-.09.198-.198.198h-.227c-.11 0-.198-.09-.198-.198v-.227c0-.1.09-.198.198-.198h.227zm-.85 0c.11 0 .198.09.198.198v.227c0 .11-.09.198-.198.198h-.227c-.11 0-.198-.09-.198-.198v-.227c0-.1.09-.198.198-.198h.227zm-2.55-.85c.11 0 .198.09.198.198v.227c0 .11-.09.198-.198.198H27.3c-.1 0-.198-.09-.198-.198v-.227c0-.11.09-.198.198-.198h.227zm.85 0c.11 0 .198.09.198.198v.227c0 .11-.09.198-.198.198h-.227c-.11 0-.198-.09-.198-.198v-.227c0-.11.09-.198.198-.198h.227z" fill="#fff"/></svg>