<svg xmlns="http://www.w3.org/2000/svg" xmlns:xlink="http://www.w3.org/1999/xlink" viewBox="0 0 1345.45 1086.58"><style><![CDATA[.Ak{fill:#fff}.Al{fill:#201e1d}.Am{fill:#db7f00}.An{fill:none}.Ao{stroke-linecap:round}.Ap{fill:#f69f41}.Aq{fill:#f9bc3d}.Ar{fill:#c21d47}.As{fill:#fef0e1}.At{stroke-miterlimit:10}.Au{fill:#66a0be}.Av{fill:#fce0c2}.Aw{fill:#86283c}.Ax{stroke-width:53.1}.Ay{fill:#006192}.Az{fill:#f8ae5f}.BA{fill:#fbd1a4}.BB{fill:#f9bc7c}.BC{fill:#ae3a58}.BD{fill:#8ebcd1}.BE{stroke-width:47.2}.BF{stroke-linejoin:round}.BG{stroke-width:30.42}]]></style><defs><linearGradient id="A" x1="620.12" y1="275.55" x2="815.57" y2="275.55" xlink:href="#f"><stop offset=".13" stop-color="#c32045"/><stop offset=".81" stop-color="#fbb800"/></linearGradient><linearGradient id="B" y1="282.14" y2="282.14" xlink:href="#A"/><linearGradient id="C" x1="648.36" y1="356.04" x2="792.19" y2="356.04" xlink:href="#f"><stop offset=".31" stop-color="#c21d47"/><stop offset=".71" stop-color="#fbb800"/></linearGradient><linearGradient id="D" y1="355.97" y2="355.97" xlink:href="#C"/><linearGradient id="E" y1="356.06" y2="356.06" xlink:href="#C"/><linearGradient id="F" y1="359.53" y2="359.53" xlink:href="#C"/><linearGradient id="G" y1="359.6" y2="359.6" xlink:href="#C"/><linearGradient id="H" y1="359.61" y2="359.61" xlink:href="#C"/><linearGradient id="I" y1="359.54" y2="359.54" xlink:href="#C"/><linearGradient id="J" xlink:href="#C"/><linearGradient id="K" y1="359.17" y2="359.17" xlink:href="#C"/><linearGradient id="L" x1="1092.33" y1="702.81" x2="1182.75" y2="895.64" xlink:href="#f"><stop offset="0" stop-color="#c1e5ef"/><stop offset="1" stop-color="#5591a8"/></linearGradient><linearGradient id="M" x1="1252.78" y1="786.19" x2="981.12" y2="786.19" xlink:href="#L"/><linearGradient id="N" x1="1241.754" y1="697.312" x2="1231.651" y2="613.958" xlink:href="#f"><stop offset=".12" stop-color="#ffd8ca"/><stop offset=".66" stop-color="#ffa183"/></linearGradient><linearGradient id="O" x1="1244.9" y1="730.63" x2="1244.9" y2="353.9" xlink:href="#f"><stop offset="0" stop-color="#68aa61"/><stop offset=".1" stop-color="#7cb576"/><stop offset=".41" stop-color="#b4d5b0"/><stop offset=".67" stop-color="#ddecdb"/><stop offset=".88" stop-color="#f6faf5"/><stop offset="1" stop-color="#fff"/></linearGradient><linearGradient id="P" x1="1225.395" y1="493.132" x2="1248.301" y2="667.57" xlink:href="#f"><stop offset=".01" stop-color="#ffe9e1"/><stop offset=".97" stop-color="#ffa082"/></linearGradient><linearGradient id="Q" x1="318.52" y1="703.77" x2="228.1" y2="896.61" xlink:href="#L"/><linearGradient id="R" x1="157.35" y1="786.82" x2="429.01" y2="786.82" xlink:href="#L"/><linearGradient id="S" x1="94.55" y1="657.03" x2="94.55" y2="612.62" xlink:href="#f"><stop offset="0" stop-color="#ffede6"/><stop offset=".97" stop-color="#ff9676"/></linearGradient><linearGradient id="T" x1="93.787" y1="748.395" x2="95.391" y2="908.795" xlink:href="#f"><stop offset="0" stop-color="#fb3847"/><stop offset="1" stop-color="#86283c"/></linearGradient><linearGradient id="U" x1="64.335" y1="420.423" x2="129.601" y2="724.998" xlink:href="#S"/><linearGradient id="V" x1="574.85" y1="509.29" x2="574.85" y2="616.75" xlink:href="#f"><stop offset=".01" stop-color="#268baa"/><stop offset=".42" stop-color="#00779b"/></linearGradient><linearGradient id="W" x1="543.05" y1="894.43" x2="543.05" y2="679.15" xlink:href="#f"><stop offset="0" stop-color="#3381a8"/><stop offset=".79" stop-color="#006192"/></linearGradient><linearGradient id="X" x1="608.23" y1="895.74" x2="608.23" y2="680.45" xlink:href="#W"/><linearGradient id="Y" x1="578.93" y1="363.12" x2="578.93" y2="458.32" xlink:href="#f"><stop offset="0" stop-color="#ffd8ca"/><stop offset=".97" stop-color="#ff9676"/></linearGradient><linearGradient id="Z" x1="569.94" y1="414.77" x2="591.12" y2="414.77" xlink:href="#T"/><path id="a" d="M1062.1 685.44a5.83 5.83 0 1 0 5.83 5.83 5.83 5.83 0 0 0-5.83-5.83zm0 10a4.18 4.18 0 1 1 4.18-4.18 4.18 4.18 0 0 1-4.18 4.2z"/><path id="b" d="M1062.1 748.42a5.83 5.83 0 1 0 5.83 5.83 5.83 5.83 0 0 0-5.83-5.83zm0 10a4.18 4.18 0 1 1 4.18-4.18 4.18 4.18 0 0 1-4.18 4.19z"/><path id="c" d="M1034 692.38l-.56.26-.1-.08-.22-.2a0 0 0 0 1 0 0l.14-.4.06-.18a.16.16 0 0 0 .13 0l.08-.08.05-.06.16-.18.5-.57h.08l-.06.07-.33.36-.12.14-.22.25a.44.44 0 0 0-.08.11.31.31 0 0 0 0 .18.28.28 0 0 0 .09.16.27.27 0 0 0 .16.07.31.31 0 0 0 .14 0 .38.38 0 0 0 .13-.1l.05-.06.16-.18.17-.2.13-.14.17-.2.07-.08.06.07-.06.07-.22.24-.15.17-.2.22-.15.17-.06.07a.17.17 0 0 0-.02.06z"/><path id="d" d="M112.5 1028.3l-17.7 28.32 51.92 24.77 14.16-31.85-48.38-21.24z"/><path id="e" d="M590.43 378.37a4.32 4.32 0 0 1-.18-1.23c0-2.82 2.73-5.1 6.1-5.1s6.1 2.3 6.1 5.1a4.32 4.32 0 0 1-.18 1.23z"/><linearGradient id="f" gradientUnits="userSpaceOnUse"/></defs><path d="M81 473.33h19.83v22.8H81z" fill="#fda947"/><rect x="220.04" y="74.2" width="1016.08" height="530.5" rx="39.58" opacity=".1" class="Al"/><rect x="200.6" y="76.43" width="1015.38" height="509.81" rx="50.09" fill="#f2f2f2"/><path d="M523.8 586.7h-76.35a5.41 5.41 0 0 1-5.41-5.41v-4.14a5.41 5.41 0 0 1 5.41-5.41h76.36l9 4.35a3.56 3.56 0 0 1 0 6.44z" class="Am"/><path d="M642.8,584.23H566.45a5.41,5.41,0,0,1-5.41-5.41v-4.14a5.41,5.41,0,0,1,5.41-5.41H642.8l9,4.35a3.56,3.56,0,0,1,0,6.44Z" fill="#fec600"/><rect x="323.31" y="577.65" width="825.6" height="45.55" rx="17.82" opacity=".1" class="Al"/><rect x="334.08" y="584.61" width="799" height="27" rx="13.5" class="Ak"/><rect x="699.26" y="692.11" width="167.44" height="89.3" rx="11.85" class="Aq"/><path d="M509.26 749.23h522.6v224.92h-522.6z" fill="#ec9134"/><path d="M510.28 746.18h522.6v17.58h-522.6z" opacity=".1" class="Al"/><path d="M514.93 721.76H1017a27.59 27.59 0 0 1 27.59 27.59 0 0 0 0 1 0 0H487.34a0 0 0 0 1 0 0 27.59 27.59 0 0 1 27.59-27.59z" fill="#fda947"/><path d="M953.93 676.74v45h-136.5a4.62 4.62 0 0 1-4.62-4.62v-35.8a4.62 4.62 0 0 1 4.62-4.62h136.5z" fill="#ed973e"/><path d="M880.7 688.15v22.2h-43.34v-22.2z" fill="#f2b271"/><path d="M812.8 717.45v-17.33h141.12v21.66h-136.2a4.65 4.65 0 0 1-4.92-4.33z" fill="#e87601" opacity=".6"/><path d="M593.7 709.17l-9-75.82a5.41 5.41 0 0 1 4.73-6l4.1-.5a5.41 5.41 0 0 1 6 4.73l9 75.82-3.25 9.43a3.56 3.56 0 0 1-6.4.72z" class="Am"/><path d="M578.34 704.66l34.55-68.13a5.41 5.41 0 0 1 7.27-2.37l3.7 1.88a5.42 5.42 0 0 1 2.38 7.28l-34.55 68.13-7.94 6a3.57 3.57 0 0 1-5.72-3z" fill="#fec600"/><path d="M574.78 666.56h37.37a5.25 5.25 0 0 1 5.25 5.25v49.27a0 0 0 0 1 0 0h-47.87a0 0 0 0 1 0 0V671.8a5.25 5.25 0 0 1 5.25-5.25z" class="Ak"/><path d="M591.88 671.2h21.46v49.88h-21.46z" opacity=".1" class="Al"/><path d="M569.37 681a12.81 12.81 0 1 0 12.81 12.81A12.81 12.81 0 0 0 569.37 681zm0 19.67a6.86 6.86 0 1 1 6.86-6.86 6.86 6.86 0 0 1-6.86 6.91z" class="Ak"/><rect x="416.11" y="117.11" width="593.62" height="411.17" rx="41.28" opacity=".14" class="Al"/><rect x="424.4" y="125.73" width="570.51" height="380.11" rx="38.78" class="Ak"/><path d="M994.9 176.3v-11.8a38.78 38.78 0 0 0-38.78-38.78H463.18a38.78 38.78 0 0 0-38.78 38.78v11.8z" class="Ar"/><path d="M995.13 191.94l-570.87-.86V162.1l570.87.86v28.97z" opacity=".15" class="Al"/><path d="M723.74,265.48a84.91,84.91,0,0,0,0,169.83" opacity=".28" class="Ak"/><path d="M449.9 255.6h113.6v219.55H449.9z" class="As"/><g class="Ak"><rect x="465.5" y="280.44" width="71.55" height="18.13" rx="9.06"/><rect x="465.5" y="318.17" width="71.55" height="18.13" rx="9.06"/><rect x="465.5" y="355.9" width="71.55" height="18.13" rx="9.06"/><rect x="465.5" y="393.63" width="71.55" height="18.13" rx="9.06"/><rect x="465.5" y="431.36" width="71.55" height="18.13" rx="9.06"/></g><g class="Av"><path d="M600.74 216.52a21.13 21.13 0 1 0 21.13 21.13 21.13 21.13 0 0 0-21.13-21.13zm0 36.28a15.15 15.15 0 1 1 15.15-15.15 15.15 15.15 0 0 1-15.15 15.15z"/><rect x="596.77" y="230.21" width="7.88" height="16.17" rx="3.94"/><path d="M600.74 444.7a21.13 21.13 0 1 0 21.13 21.13 21.13 21.13 0 0 0-21.13-21.13zm0 36.28a15.15 15.15 0 1 1 15.15-15.15A15.15 15.15 0 0 1 600.74 481z"/><rect x="596.77" y="458.38" width="7.88" height="16.17" rx="3.94"/><rect x="864.41" y="226.8" width="101.95" height="18.13" rx="9.06"/><rect x="864.41" y="254.3" width="75.39" height="18.13" rx="9.06"/><path d="M836.17 218a21.13 21.13 0 1 0 21.13 21.13A21.13 21.13 0 0 0 836.17 218zm0 36.28a15.15 15.15 0 1 1 15.15-15.15 15.15 15.15 0 0 1-15.15 15.17z"/><rect x="832.2" y="231.71" width="7.88" height="16.17" rx="3.94"/></g><path d="M839.88 336.64h142.5v144h-142.5z" class="As"/><path d="M861.05 405.1h24.52v47.8h-24.52z" class="Az"/><path d="M898.4 352.5h24.52v100.4H898.4z" class="BA"/><path d="M935.77 388.66h24.52v64.25h-24.52z" class="BB"/><path d="M845.3 460.5h131.93v8.76H845.3z" class="Ap"/><path d="M450.2 218.03h113.23v39.66H450.2z" class="Ar"/><path d="M465.55 244.07v-.7a.2.2 0 0 0 0 0c0-.17 0-.34.06-.5a5 5 0 0 1 .49-1.41 4.92 4.92 0 0 1 1.28-1.54 5.43 5.43 0 0 1 1.62-.9 5 5 0 0 1 1.12-.27c.3 0 .63-.08.94-.1a6.38 6.38 0 0 1 1.13.05c.22 0 .44.05.66.1l.67.12v-.53a4.13 4.13 0 0 1 0-.45c0-.27.1-.53.17-.8a5.32 5.32 0 0 1 .65-1.5 4.84 4.84 0 0 1 1-1.2 4.15 4.15 0 0 1 .83-.55 5.55 5.55 0 0 1 .88-.35 5.25 5.25 0 0 1 1-.17 6.79 6.79 0 0 1 .93 0 4.29 4.29 0 0 1 1.11.24l.9.34a.23.23 0 0 0 0-.05c0-.23.08-.47.13-.7a8 8 0 0 1 .62-1.79 8.6 8.6 0 0 1 .73-1.25 8 8 0 0 1 .9-1.08 9.71 9.71 0 0 1 .76-.68 10.06 10.06 0 0 1 .86-.63 7.56 7.56 0 0 1 1.43-.75l1.34-.45a6.12 6.12 0 0 1 1.25-.23c.36 0 .7-.06 1.07-.07a5.19 5.19 0 0 1 .65 0c.27 0 .54 0 .8.1s.7.14 1 .24a7.61 7.61 0 0 1 1.82.8 8.23 8.23 0 0 1 1.39 1.05 8.38 8.38 0 0 1 .84.93 9.09 9.09 0 0 1 1 1.52 8.7 8.7 0 0 1 .42.94l.48 1.47c.13.47.22 1.06.32 1.6a.1.1 0 0 1 0 .08l-1.3 1.45-.7.76-.7.8-.63.7a.86.86 0 0 0-.15.22l-.16.43-1.68 4.8a.28.28 0 0 1-.07.12l-.55.46a6.16 6.16 0 0 1-1.34.82 1.53 1.53 0 0 1-.77.17 2.33 2.33 0 0 1-.91-.32 4.72 4.72 0 0 1-.9-.72l-.57-.6-.9-1c-.15-.16-.32-.3-.5-.45a3.9 3.9 0 0 0-.78-.56 2.6 2.6 0 0 0-1.6-.31 2.55 2.55 0 0 0-.75.22 3.53 3.53 0 0 0-1 .64l-.9.87-.86.94-.7.65a2.59 2.59 0 0 1-.89.51 1.52 1.52 0 0 1-1.07 0 2.41 2.41 0 0 1-.78-.52l-.7-.72-.83-.83a2.66 2.66 0 0 0-.79-.53 1.81 1.81 0 0 0-1-.16 2.59 2.59 0 0 0-1 .41 6.07 6.07 0 0 0-1 .75l-.92.92a.28.28 0 0 0 0 .41.3.3 0 0 0 .43 0l.1-.13 1-.95a4.37 4.37 0 0 1 1-.66 1.16 1.16 0 0 1 1 0 2.82 2.82 0 0 1 .84.6l1.2 1.24a3.62 3.62 0 0 0 .77.61 1.91 1.91 0 0 0 .83.29 3.28 3.28 0 0 0 .66 0 2.51 2.51 0 0 0 1-.38 4 4 0 0 0 .7-.53l.68-.66.83-.92a7.41 7.41 0 0 1 1.05-1 2.32 2.32 0 0 1 1.15-.46 1.87 1.87 0 0 1 .94.18 4.21 4.21 0 0 1 1.13.82l.6.63.88 1a7.87 7.87 0 0 0 .64.58 4.47 4.47 0 0 0 .6.42 2.4 2.4 0 0 0 1.07.36 3.13 3.13 0 0 0 .62 0 2.77 2.77 0 0 0 1-.41 10 10 0 0 0 1.42-1 1.14 1.14 0 0 1 .21-.18l1.47-.7 1.54-.72.8-.38 1.54-.72a.69.69 0 0 0 .2-.16l2.14-2.38.65-.7.24-.27.3-.3.34.75a6.5 6.5 0 0 1 .38 1.23 5.91 5.91 0 0 1 .14 1 .37.37 0 0 0 0 .08v.77a6.07 6.07 0 0 1-.13 1 6.7 6.7 0 0 1-.54 1.64l-.4.76a6.49 6.49 0 0 1-.84 1.11 7.33 7.33 0 0 1-2.89 1.91 6 6 0 0 1-1.35.33 8.79 8.79 0 0 1-1 .09h-25.58c-.28 0-.7-.08-1-.13a5.11 5.11 0 0 1-1.43-.46 4.65 4.65 0 0 1-1.07-.71 6.13 6.13 0 0 1-.93-1 5.62 5.62 0 0 1-.69-1.29 4.65 4.65 0 0 1-.29-1.22c.22-.05.2-.14.2-.22zm33.2-2.42l-2 .95-.34-.3-.78-.7-.17-.16a.11.11 0 0 1 0-.09l.5-1.4.23-.65a.6.6 0 0 0 .48-.07 2.46 2.46 0 0 0 .29-.28l.2-.22.6-.64 2.02-2.25a.08.08 0 0 1 .07 0l.3.15-.2.24-.4.44-.8.87-.45.5-.8.9a1.61 1.61 0 0 0-.31.42 1.11 1.11 0 0 0-.08.66 1 1 0 0 0 .9.85 1.13 1.13 0 0 0 .51-.08 1.38 1.38 0 0 0 .48-.38l.2-.23.6-.64.63-.7.47-.52.62-.68.25-.3.2.26a0 0 0 0 1 0 0l-.23.26-.8.88-.55.6-1.27 1.4c-.08.1-.16.17-.22.26a.63.63 0 0 0-.11.63z" class="Ak"/><path d="M803.33 291.34a25.39 25.39 0 0 0-.61-4.49 28 28 0 0 0-1.64-5.3l-1.46-3.23-1.26 1.35-1 1.17-2.77 3-3.1 3.42-3 3.33-3.1 3.4a3 3 0 0 1-.84.67l-6.6 3.1-3.5 1.63-12.96 6.06a4.9 4.9 0 0 0-.91.76 43.11 43.11 0 0 1-6.1 4.44 11.93 11.93 0 0 1-4.38 1.77 13.44 13.44 0 0 1-2.68.07 10.31 10.31 0 0 1-4.61-1.56 19.22 19.22 0 0 1-2.56-1.82 33.84 33.84 0 0 1-2.73-2.49l-3.8-4.1-2.58-2.72a18.1 18.1 0 0 0-4.86-3.53 8.06 8.06 0 0 0-4-.77 10 10 0 0 0-4.94 2 31.86 31.86 0 0 0-4.51 4.14l-3.58 3.94-2.92 2.85a17.31 17.31 0 0 1-3 2.29 10.77 10.77 0 0 1-4.21 1.64 14.1 14.1 0 0 1-2.85.15 8.2 8.2 0 0 1-3.57-1.25 15.59 15.59 0 0 1-3.29-2.64l-2.66-2.74-2.5-2.63a12.13 12.13 0 0 0-3.61-2.57 5 5 0 0 0-4.37.18 18.8 18.8 0 0 0-4.36 2.86l-4.33 4.08c-.17.16-.3.37-.47.54a1.3 1.3 0 0 1-1.84 0 1.19 1.19 0 0 1-.15-1.75l4-4a26.07 26.07 0 0 1 4.09-3.22 11.15 11.15 0 0 1 4.33-1.76 7.8 7.8 0 0 1 4.38.67 11.42 11.42 0 0 1 3.39 2.27l3.6 3.58 3 3.08a10.36 10.36 0 0 0 3.35 2.25 6.55 6.55 0 0 0 4.59 0 11.14 11.14 0 0 0 3.82-2.21l3-2.8 3.7-4.05 3.8-3.74a15.16 15.16 0 0 1 4.1-2.75 10.94 10.94 0 0 1 3.22-.95 11.17 11.17 0 0 1 6.9 1.32 16.77 16.77 0 0 1 3.36 2.39l2.1 2 3.93 4.23 2.46 2.6a20.26 20.26 0 0 0 3.89 3.09 10 10 0 0 0 3.9 1.36 6.59 6.59 0 0 0 3.33-.72 26.48 26.48 0 0 0 5.75-3.51c.82-.62 1.6-1.3 2.37-2a1.2 1.2 0 0 0 .29-.51l1.9-5.44 3.17-9.06 2.16-6.13.67-1.84a3.72 3.72 0 0 1 .66-.93l2.7-3 3.07-3.4 3-3.27 3-3.3q1.3-1.46 2.6-2.94a.43.43 0 0 0 .08-.33l-1.4-6.84c-.6-2.25-1.3-4.24-2.07-6.32a37.38 37.38 0 0 0-1.82-4 39.07 39.07 0 0 0-4.19-6.54 36 36 0 0 0-3.63-4 35.39 35.39 0 0 0-6-4.53 32.72 32.72 0 0 0-7.81-3.44 42.57 42.57 0 0 0-4.46-1c-1.13-.2-2.3-.3-3.45-.4a22.26 22.26 0 0 0-2.78-.15l-4.6.3a26.33 26.33 0 0 0-5.36 1l-5.75 1.93a32.49 32.49 0 0 0-6.16 3.21 43.23 43.23 0 0 0-3.71 2.72 41.79 41.79 0 0 0-3.25 2.92 34.4 34.4 0 0 0-3.87 4.64 37 37 0 0 0-3.13 5.35 34.34 34.34 0 0 0-2.65 7.69l-.56 3a1 1 0 0 1-.09.23l-3.87-1.47a18.42 18.42 0 0 0-4.78-1 29.21 29.21 0 0 0-4-.13 22.54 22.54 0 0 0-4.29.74 23.85 23.85 0 0 0-3.79 1.48 17.82 17.82 0 0 0-3.57 2.36 20.8 20.8 0 0 0-4.5 5.17 22.86 22.86 0 0 0-2.78 6.47l-.72 3.4a17.78 17.78 0 0 0-.17 1.93c0 .75-.08 1.5-.12 2.27l-2.86-.52-2.85-.4-4.85-.23c-1.35 0-2.7.23-4.05.38a21.43 21.43 0 0 0-4.83 1.16 23.34 23.34 0 0 0-6.83 3.74 21.17 21.17 0 0 0-5.51 6.64 21.54 21.54 0 0 0-2.11 6c-.14.72-.17 1.46-.26 2.2a.87.87 0 0 1-.08.2v3l.16 1.07a20 20 0 0 0 1.25 5.25 24.15 24.15 0 0 0 3 5.56 26.38 26.38 0 0 0 4 4.4 20 20 0 0 0 4.6 3.07 22 22 0 0 0 6.13 2q2.22.35 4.46.56l3.66.16h6.67q49.82 0 99.65-.1a37.81 37.81 0 0 0 4.17-.39 25.94 25.94 0 0 0 5.81-1.44 31.51 31.51 0 0 0 12.18-8.26 27.88 27.88 0 0 0 3.62-4.76l1.78-3.28a28.81 28.81 0 0 0 2.33-7 26.11 26.11 0 0 0 .56-4.46c0-.05 0-.1.08-.16v-3.3a1.58 1.58 0 0 1-.04-.37z" fill="url(#A)"/><path d="M779.45 273.3l-3 3.36-2.86 3.1-.93 1.08a12 12 0 0 1-1.43 1.35 2.9 2.9 0 0 1-2.31.33l-1.12 3.2-2.44 6.82a.51.51 0 0 0 .07.43c.26.28.56.53.85.78l5.47 4.9 9.85-4.64a3.06 3.06 0 0 1 .35-2.83c.32-.45.72-.85 1.08-1.26l2.67-3 3.5-3.9 2.67-3 3.9-4.3q.57-.63 1.12-1.3a.24.24 0 0 0 0-.23l-1-1.26-1.23 1.4-3 3.33-2.3 2.53-3.07 3.4-2.86 3.1-1 1.1a6.73 6.73 0 0 1-2.35 1.84 5.49 5.49 0 0 1-2.49.37 4.76 4.76 0 0 1-2.88-1.21 4.91 4.91 0 0 1-1.51-2.91 5.39 5.39 0 0 1 .39-3.21 7.81 7.81 0 0 1 1.49-2l3.92-4.33 2.2-2.33 3.84-4.24 2-2.14 1-1.2-1.4-.75a.38.38 0 0 0-.33.1l-.75.82-3 3.36z" fill="url(#B)"/><path d="M803.17 343.73a1.57 1.57 0 1 0-3.17.27q0 2.57 0 5.13v.4l-2.53-.22a10.28 10.28 0 0 0-3.7.18 6.2 6.2 0 0 0-4.22 3.32 10.22 10.22 0 0 0-1.07 4.43 32.39 32.39 0 0 0 .12 5.54 8.9 8.9 0 0 0 1.82 4.61 6.05 6.05 0 0 0 3.52 2.15l1.17.24h2.25l1.23-.16 3.53-.57a1.15 1.15 0 0 0 1-1.28q.05-12.02.05-24.05zM800 366.5l-2.06.25a16.9 16.9 0 0 1-2.07.08 4.6 4.6 0 0 1-2.37-.6 3.68 3.68 0 0 1-1.5-2.41 16.29 16.29 0 0 1-.33-2.57 25.57 25.57 0 0 1-.08-2.91 11.88 11.88 0 0 1 .55-3.73 3.25 3.25 0 0 1 3-2.29 23.94 23.94 0 0 1 4.87.24z" fill="url(#C)"/><path d="M652.46 356.84l-6-3.88a15.41 15.41 0 0 1-2.94-2.17 3.4 3.4 0 0 1-.89-3.23 2.52 2.52 0 0 1 1.85-1.82 10.2 10.2 0 0 1 3.54-.48l2.8.1 2.78.13a1.21 1.21 0 0 0 1.19-1.07 1.4 1.4 0 0 0-.69-1.66 5.09 5.09 0 0 0-1.4-.31l-3.95-.3c-.86 0-1.72.1-2.57.14a9.33 9.33 0 0 0-4 1.16 5.25 5.25 0 0 0-2.49 2.93 7.19 7.19 0 0 0-.25 2.47 5.28 5.28 0 0 0 .54 2.28 8.16 8.16 0 0 0 3 3.28l5 3.2a14.59 14.59 0 0 1 3.59 2.69 3.05 3.05 0 0 1 .56.93 4.9 4.9 0 0 1 0 2.69 3 3 0 0 1-1.36 1.94 5.67 5.67 0 0 1-3 .8c-1.3 0-2.6 0-3.9-.08a21.07 21.07 0 0 1-2.16-.23 1.6 1.6 0 0 0-1.69.65c-.4.68-.28 2.08.82 2.28s2.26.3 3.4.43l.48.08h3.13a.7.7 0 0 1 .2-.08 9.37 9.37 0 0 0 4-1 5.8 5.8 0 0 0 3.09-3.77 8.26 8.26 0 0 0 .17-4.09 6.68 6.68 0 0 0-2.83-4.01z" fill="url(#D)"/><path d="M687.06 353.46a5.53 5.53 0 0 0-1.53-2.39 7.17 7.17 0 0 0-4.6-1.79 18 18 0 0 0-4.6.39V344a1.39 1.39 0 0 0-1.31-1.62 1.43 1.43 0 0 0-1.82 1.44q0 12.13 0 24.26a1.68 1.68 0 0 0 1.06 1.74h1a1.71 1.71 0 0 0 1.05-1.75V353.2c0-.37.1-.57.46-.6l2.2-.25a10.62 10.62 0 0 1 1.55-.07 5.15 5.15 0 0 1 2.27.54 3.15 3.15 0 0 1 1.46 2.15 5.89 5.89 0 0 1 .17 1.45q0 5.7 0 11.4a1.91 1.91 0 0 0 1.05 2h1a1.69 1.69 0 0 0 1.06-1.74V356.5a9.85 9.85 0 0 0-.46-3.04z" fill="url(#E)"/><path d="M768 355.2a7.49 7.49 0 0 0-1.94-3.83 6.91 6.91 0 0 0-4.82-2.09 12.86 12.86 0 0 0-2.73.16 6.43 6.43 0 0 0-4.45 2.81 9.33 9.33 0 0 0-1.51 5v3.7a11.24 11.24 0 0 0 .8 4.55 6.46 6.46 0 0 0 4.51 4c.52.14 1.06.22 1.6.33h1.93a1 1 0 0 1 .24-.08 7.09 7.09 0 0 0 2.89-.81 6.51 6.51 0 0 0 2.8-3 10.61 10.61 0 0 0 1-4.4v-3.5a21.41 21.41 0 0 0-.31-2.84zm-3.5 9.33a3.58 3.58 0 0 1-3.21 2.23 6.85 6.85 0 0 1-2.62-.17 3.52 3.52 0 0 1-2.44-2.37 9.07 9.07 0 0 1-.56-3.2v-3.48a7.5 7.5 0 0 1 1.09-3.77 3.54 3.54 0 0 1 2.53-1.49 7.18 7.18 0 0 1 2.6.07 3.44 3.44 0 0 1 2.58 2.09 7.44 7.44 0 0 1 .66 2.93l.06 3.8a8.69 8.69 0 0 1-.68 3.37z" fill="url(#F)"/><path d="M731.45 348a5 5 0 0 1 4.35-2.76c1.42-.1 2.85 0 4.27.06h.16l2.4.2a1.17 1.17 0 0 0 .56-.15 1.35 1.35 0 0 0 .69-1.51 1.33 1.33 0 0 0-1-1.29 6.83 6.83 0 0 0-1.2-.17l-4.15-.3a20 20 0 0 0-3.28.24 7.32 7.32 0 0 0-3.81 1.81 9.48 9.48 0 0 0-2.55 4 15.53 15.53 0 0 0-.78 5l.07 6.12a21 21 0 0 0 .24 2.6 10.31 10.31 0 0 0 1.82 4.5 7.57 7.57 0 0 0 4.61 3.09l1.6.32h3.2s.05-.07.08-.07l3.4-.25a1.62 1.62 0 0 0 1.73-1.91 1.37 1.37 0 0 0-1.39-1.22l-2.52.23h-4.76a4.87 4.87 0 0 1-4-3.06 9 9 0 0 1-.89-3.88l.07-7.76a8.57 8.57 0 0 1 1.08-3.85z" fill="url(#D)"/><path d="M783.58 349.52a1.55 1.55 0 0 0-1 1.49q0 7.12 0 14.24c0 .24 0 .44-.28.54l-2.16.7a7.81 7.81 0 0 1-2.91.25 3.48 3.48 0 0 1-1.34-.39 3.44 3.44 0 0 1-1.73-3.24v-11.87a2.52 2.52 0 0 0-.15-.88 1.51 1.51 0 0 0-1.78-.92A1.6 1.6 0 0 0 771 351v10.7a12.06 12.06 0 0 0 .41 3.56 6.13 6.13 0 0 0 2.26 3.28 6.31 6.31 0 0 0 3.8 1.21 1.12 1.12 0 0 1 .28.08h.32l.4-.08 2.1-.3s1.47-.42 2.2-.64a1.72 1.72 0 0 0 2.28.61 1.59 1.59 0 0 0 .78-1.6q0-8.26 0-16.52a1.91 1.91 0 0 0-.42-1.35 1.71 1.71 0 0 0-1.83-.44z" fill="url(#G)"/><path d="M705.2 350.2a1.58 1.58 0 0 0-2.95.85v14c0 .47-.1.72-.58.9a11 11 0 0 1-4.73.86 3.49 3.49 0 0 1-1.21-.3 3.46 3.46 0 0 1-1.9-3.33v-11.63a5.6 5.6 0 0 0-.08-.82 1.58 1.58 0 0 0-3.13.43v6.54l.1 5.72a8.87 8.87 0 0 0 .48 2.33 5.68 5.68 0 0 0 2.34 3 6.46 6.46 0 0 0 3.42 1 2.52 2.52 0 0 1 .4.08h.32l.4-.08 2.1-.3s1.32-.4 2-.58a.41.41 0 0 1 .35.09 1.66 1.66 0 0 0 1.9.59 1.59 1.59 0 0 0 1-1.72q0-8.3 0-16.6a2.19 2.19 0 0 0-.23-1.01z" fill="url(#H)"/><path d="M664.7 352.25a18.93 18.93 0 0 1 2.63.07c.3 0 .62.1.93.13a7.59 7.59 0 0 0 1.62.06c.6-.1 1.07-.66 1-1.65a1.46 1.46 0 0 0-1.26-1.27l-3.38-.3a13.26 13.26 0 0 0-2.89.17 6.46 6.46 0 0 0-4.73 3.68 10.63 10.63 0 0 0-1 4.49 27.07 27.07 0 0 0 .21 5.53 8.31 8.31 0 0 0 2.66 5.1 5.5 5.5 0 0 0 2.37 1.25l1.47.32h2a.52.52 0 0 1 .16-.08l3-.25a1.39 1.39 0 0 0 1.39-1.16 1.38 1.38 0 0 0-1.41-1.8l-2.4.23h-2.6a3.19 3.19 0 0 1-2.62-1.46 6.47 6.47 0 0 1-1-3.58v-3.93a11.09 11.09 0 0 1 .24-2.19c.5-2.36 1.6-3.16 3.62-3.35z" fill="url(#I)"/><path d="M748.2 342.36a1.43 1.43 0 0 0-1.84 1.46q0 12.1 0 24.23a1.72 1.72 0 0 0 1.05 1.75h1a1.69 1.69 0 0 0 1.06-1.74q0-12.05 0-24.1c.03-.95-.3-1.4-1.27-1.6z" fill="url(#E)"/><path d="M709.75 342.48a1.38 1.38 0 0 0-.76 1.4q0 12.1 0 24.2a1.68 1.68 0 0 0 1.01 1.73h1a1.55 1.55 0 0 0 1-1.43q0-12.33 0-24.67a1.34 1.34 0 0 0-.55-1.08 1.73 1.73 0 0 0-1.7-.14z" fill="url(#J)"/><path d="M723.32 357.6q-3.35 0-6.7 0a1.52 1.52 0 0 0-1.33.61 1.66 1.66 0 0 0-.14 1.75 1.44 1.44 0 0 0 1.45.76h6.9a1.87 1.87 0 0 0 1-.39 1.59 1.59 0 0 0-1.17-2.71z" fill="url(#K)"/><path d="M987.26 641.3h224.62a5.85 5.85 0 0 1 5.85 5.85v147.26h-230.2c-1 0-6.12-4.94-6.12-5.9V647.16a5.85 5.85 0 0 1 5.84-5.85z" fill="url(#L)"/><path d="M981.12 782.37h271.66V790H981.12z" fill="url(#M)"/><path d="M981.12 790h271.66a4.41 4.41 0 0 1-4.41 4.41H985.53a4.41 4.41 0 0 1-4.41-4.41zm186.58-7.63a4.4 4.4 0 0 1-4.35 3.82h-35.87a4.39 4.39 0 0 1-4.35-3.82z" fill="#5591a8"/><path d="M990.64 649.34h217.86v125.7H990.64z" class="Ak"/><rect x="1011.15" y="658.01" width="163.84" height="113.49" rx="11.4" opacity=".14" class="Al"/><rect x="1013.44" y="660.38" width="157.47" height="104.91" rx="10.7" class="Ak"/><path d="M1170.9 674.34v-3.25a10.7 10.7 0 0 0-10.7-10.7h-136.07a10.7 10.7 0 0 0-10.7 10.7v3.25z" class="Ar"/><path d="M1170.97 678.66l-157.57-.24v-8l157.57.24v8z" opacity=".15" class="Al"/><g opacity=".8"><circle cx="1096.15" cy="722.39" r="26.03" class="Ap"/><circle cx="1096.15" cy="722.39" r="23.44" fill="#f8b66e"/><path d="M1096.06,745.83V699a23.44,23.44,0,0,0,0,46.87Z" opacity=".35" class="Ak"/><g class="Ap"><path d="M1097.3 746.83H1095v-49.35h2.32z"/><path d="M1071.3 723.55v-2.32h49.35v2.32z"/><path d="M1095.9 698c4.06 0 7.83 2.66 10.62 7.5a38.16 38.16 0 0 1 0 34.56c-2.78 4.84-6.55 7.5-10.62 7.5s-7.83-2.66-10.62-7.5a38.16 38.16 0 0 1 0-34.56c2.8-4.85 6.56-7.5 10.62-7.5zm0 47.24c3.2 0 6.26-2.25 8.6-6.34a35.87 35.87 0 0 0 0-32.25c-2.35-4.1-5.4-6.34-8.6-6.34s-6.26 2.25-8.6 6.34a35.87 35.87 0 0 0 0 32.25c2.36 4.1 5.4 6.32 8.6 6.32z"/><path d="M1074.78 734.83h42.5v2.32h-42.5zm0-27.4h42.5v2.32h-42.5z"/></g></g><path d="M1020.48 696.23h31.35v60.6h-31.35z" class="As"/><rect x="1069.91" y="687.87" width="19.75" height="5" rx="2.5" class="Av"/><g class="Ak"><rect x="1024.78" y="703.09" width="19.75" height="5" rx="2.5"/><rect x="1024.78" y="713.5" width="19.75" height="5" rx="2.5"/><rect x="1024.78" y="723.91" width="19.75" height="5" rx="2.5"/><rect x="1024.78" y="734.33" width="19.75" height="5" rx="2.5"/><rect x="1024.78" y="744.74" width="19.75" height="5" rx="2.5"/></g><g class="Av"><use xlink:href="#a"/><rect x="1061.02" y="689.22" width="2.17" height="4.46" rx="1.09"/><rect x="1069.91" y="750.84" width="19.75" height="5" rx="2.5"/><use xlink:href="#b"/><rect x="1061.02" y="752.2" width="2.17" height="4.46" rx="1.09"/><rect x="1134.89" y="688.28" width="28.14" height="5" rx="2.5"/><rect x="1134.89" y="695.87" width="20.81" height="5" rx="2.5"/><use xlink:href="#b" x="65" y="-62.56"/><rect x="1126" y="689.64" width="2.17" height="4.46" rx="1.09"/></g><path d="M1128.12 718.6h39.33v39.75h-39.33z" class="As"/><path d="M1133.96 737.5h6.77v13.2h-6.77z" class="Az"/><path d="M1144.27 722.98h6.77v27.7h-6.77z" class="BA"/><path d="M1154.6 732.95h6.77v17.74h-6.77z" class="BB"/><path d="M1129.6 752.78h36.4v2.42h-36.4z" class="Ap"/><path d="M1020.57 685.86h31.25v10.95h-31.25z" class="Ar"/><g class="Ak"><path d="M1024.8 693v-.34a1.38 1.38 0 0 1 .14-.39 1.36 1.36 0 0 1 .35-.43 1.5 1.5 0 0 1 .44-.24 1.38 1.38 0 0 1 .31-.07h.93v-.15a1.14 1.14 0 0 1 0-.12v-.22a1.47 1.47 0 0 1 .18-.42 1.34 1.34 0 0 1 .29-.33 1.15 1.15 0 0 1 .23-.15l.24-.1h.54a1.18 1.18 0 0 1 .31.07l.25.1v-.2a2.2 2.2 0 0 1 .17-.49 2.37 2.37 0 0 1 .2-.34 2.21 2.21 0 0 1 .25-.3l.2-.2.24-.17a2.09 2.09 0 0 1 .4-.21l.37-.12a1.69 1.69 0 0 1 .34-.06h.7l.3.07a2.1 2.1 0 0 1 .5.22 2.27 2.27 0 0 1 .38.29 2.31 2.31 0 0 1 .23.26 2.51 2.51 0 0 1 .27.42 2.4 2.4 0 0 1 .12.26c0 .13.1.27.13.4l.1.44a0 0 0 0 1 0 0l-.17.2-.38.42-.2.22-.17.2v.18l-.14.4-.2.58-.12.35-.15.13a1.7 1.7 0 0 1-.37.23.42.42 0 0 1-.21 0 .64.64 0 0 1-.25-.09 1.3 1.3 0 0 1-.25-.2l-.16-.17-.25-.27-.13-.13a1.08 1.08 0 0 0-.22-.15.72.72 0 0 0-.44-.09.7.7 0 0 0-.21.06 1 1 0 0 0-.26.18l-.24.24-.24.26-.2.18a.72.72 0 0 1-.25.14.42.42 0 0 1-.29 0 .67.67 0 0 1-.21-.14l-.2-.2-.23-.23a.73.73 0 0 0-.22-.15.5.5 0 0 0-.28 0 .72.72 0 0 0-.28.11 1.68 1.68 0 0 0-.26.21l-.25.25a.08.08 0 1 0 .12.11l.28-.26a1.21 1.21 0 0 1 .28-.18.32.32 0 0 1 .28 0 .78.78 0 0 1 .23.17l.16.17.17.18a1 1 0 0 0 .21.17.53.53 0 0 0 .23.08h.18a.69.69 0 0 0 .27-.11 1.11 1.11 0 0 0 .19-.15l.2-.18.23-.25a2 2 0 0 1 .29-.27.64.64 0 0 1 .32-.13.52.52 0 0 1 .26 0 1.16 1.16 0 0 1 .31.23l.17.17.24.26.18.16.16.12a.66.66 0 0 0 .3.1h.17a.77.77 0 0 0 .28-.11 2.77 2.77 0 0 0 .39-.29h.06l.18-.1.22-.1.43-.2.22-.1.42-.2h.05l.2-.22.2-.2.2-.22.18-.2.07-.07.08-.1.1.2a1.8 1.8 0 0 1 .11.34 1.63 1.63 0 0 1 0 .29v.23a1.68 1.68 0 0 1 0 .29 1.85 1.85 0 0 1-.15.45l-.1.2a1.79 1.79 0 0 1-.23.31 2 2 0 0 1-.8.53 1.66 1.66 0 0 1-.37.09h-7.62a1.41 1.41 0 0 1-.39-.13 1.28 1.28 0 0 1-.3-.2 1.69 1.69 0 0 1-.26-.28 1.55 1.55 0 0 1-.19-.36 1.28 1.28 0 0 1-.08-.34z"/><use xlink:href="#c"/></g><path d="M995.16 652.56v119.42l207.67-119.42H995.16z" opacity=".06" class="Al"/><path d="M887.1 1052.6h-18.3V816.3h18.3zm163.3 0h-18.3V816.3h18.3z" class="Am"/><path d="M1269.32 821.58h-401.2v-.77c0-14.564 11.806-26.37 26.37-26.37h348.46a26.37 26.37 0 0 1 26.37 26.37v.77z" fill="#de8914"/><path d="M1052.23 821.58h-184.1v-.77c0-14.564 11.806-26.37 26.37-26.37h131.37c14.78 0 26.76 11.98 26.76 26.76a.38.38 0 0 1-.39.38z" fill="#fac352"/><path d="M890.5 951c20.8-9.93 50.6 10 66.6 44.5s12.12 70.54-8.67 80.47-50.6-10-66.6-44.5S869.7 961 890.5 951zm6.28 72.47c12 25.87 32.94 41.5 46.8 34.87s15.35-33 3.35-58.83-32.9-41.5-46.8-34.85-15.35 32.96-3.35 58.83z" class="BC"/><path d="M837.23 1085.6l78.06 1a13.62 13.62 0 0 0 13.59-13.89l-.44-93.5c-.14-29.4-23.62-53.74-52.17-54.1h-1.52c-28.56-.35-51.8 23.4-51.67 52.8l.44 93.5a14.19 14.19 0 0 0 13.71 14.17z" fill="#9f173b"/><path d="M876.74 1070.7l35.4.44a7.43 7.43 0 0 0 7.41-7.58l-.3-64.52c-.06-13.4-10.76-24.48-23.77-24.64h-3c-13-.16-23.6 10.66-23.54 24.06l.3 64.52a7.74 7.74 0 0 0 7.5 7.72z" class="BC"/><path d="M881.27 996.7l29.65.87a2.87 2.87 0 0 0 2.92-2.88 3 3 0 0 0-2.85-3.05l-29.65-.87a2.87 2.87 0 0 0-2.92 2.88 3 3 0 0 0 2.85 3.05z" fill="#9f173b"/><path d="M839.4 1026h.3a10.84 10.84 0 0 0 11-10.88l.4-34.2a11.32 11.32 0 0 0-10.75-11.52H840a10.84 10.84 0 0 0-11 10.88l-.4 34.2a11.32 11.32 0 0 0 10.8 11.52z" class="BC"/><path d="M1245.15 678.84s-22.44-23.24-23.63-34l-4.9-42.23 38.75-4.76 4.9 42.23c1.2 10.76-15.12 38.76-15.12 38.76z" fill="url(#N)"/><path d="M1191 1045.6c-11.84-22.3-106.78-157.8 56-157.1" stroke="#19719d" class="An Ao At Ax"/><path d="M1211.56 1027.85l20.75 26.17-48.83 30.42-17.63-30.08 45.7-26.5z" class="Au"/><path d="M1114.8 1043.63c-9.27-23.5-87.42-161.94 72.6-152.13" stroke="#006192" class="An Ao At Ax"/><path d="M1137.22 1028.3l17.7 28.32-51.9 24.77-14.16-31.85 48.37-21.24z" class="Au"/><path d="M1196.92 919.4h70.4a39.14 39.14 0 0 0 38.73-35.53l1.56-15.7h-151l1.57 15.74a39.14 39.14 0 0 0 38.73 35.49z" class="Ay"/><path d="M1307.67 882.14l-2.35-182.9c-.62-47.62-10.1-51.35-36.17-55.43-40.72-6.37-73.33 3.92-73.33 3.92-47.28 78.28 48.06 109.3-12.4 217.8z" fill="url(#O)"/><path d="M1304.24 672.2l1.07 23.42-109.5-46.7a7.4 7.4 0 0 1 7.4-7.4h64.2c19.88.46 36.85 10.07 36.85 30.67z" fill="#68aa61"/><g fill="#ffbfab"><rect x="1041.52" y="737.98" width="55.98" height="16.19" rx="8.09" transform="matrix(-.906013 .423251 -.423251 -.906013 2354.29 969.32)"/><rect x="1054.19" y="748.98" width="55.98" height="16.19" rx="8.09" transform="matrix(-.889895 .456166 -.456166 -.889895 2390.57 937.06)"/><circle cx="1097.25" cy="751.42" r="24.37"/></g><path d="M1224.84 675.76c1.3 21.8 12.46 119.5-90.72 88.63" stroke="#68aa61" class="An Ao At BE"/><path d="M1096.72 777.8l16.04-46.02 26.1 8.8-15.7 46.45-26.44-9.22z" fill="#a6cda2"/><path d="M1193.73 594.37l-7.5-57.82a46.47 46.47 0 0 1 40-51.91l1.1-.14a46.47 46.47 0 0 1 51.91 40l7.5 57.82c2.92 22.5-67.32 31.5-67.32 31.5-17.97-1.08-24.25-8.3-25.7-19.46z" fill="url(#P)"/><path d="M1184.78 495.23c-26.78 68.54 44.5 52.77 44.5 52.77l-4.54-31.13c10.34 20.64 27.43 31.25 57.1 35.1-3.1-35.76 2.2-54.48-6.42-65.57-36.9-42.1-83.66-10.22-90.64 8.83z" fill="#ce8e27"/><path d="M1222 651.27l-15.1-112.36c-4.32-33.35 11.24-63.1 34.6-66.14l1.5-.2c23.35-3 46 21.78 50.3 55.13l13.1 105.8z" fill="#d7a34e"/><rect x="1211.02" y="557.27" width="13.18" height="35.29" rx="6.59" transform="matrix(.994631 -.103487 .103487 .994631 -53 129.2)" fill="#ffcbba"/><g class="Am"><path d="M1317.5 932.78h-13.58V824.1h13.58zm0 144.62h-13.58V938.7h13.58zm-62.7-144.62h-13.58V824.1h13.58zm0 144.68h-13.58V938.78h13.58zm-75 0h-13.58V938.78h13.58z"/><rect x="1191.63" y="725.49" width="153.82" height="115.64" rx="18.76" transform="matrix(-1 0 0 -1 2537.09 1566.61)"/></g><rect x="1203.06" y="725.49" width="142.4" height="115.64" rx="18.05" transform="matrix(-1 0 0 -1 2548.51 1566.61)" class="Aq"/><rect x="1144.59" y="915.07" width="176.29" height="31.67" rx="15.83" transform="matrix(-1 0 0 -1 2465.47 1861.81)" class="Am"/><path d="M1144.6 930.13a15.88 15.88 0 0 1 15.81-15.06H1305a15.88 15.88 0 0 1 15.81 15.06z" class="Aq"/><path d="M422.86 641.93H198.24a5.86 5.86 0 0 0-5.85 5.85v147.27h236.33V647.8a5.86 5.86 0 0 0-5.86-5.86z" fill="url(#Q)"/><path d="M157.35 783H429v7.64H157.35z" fill="url(#R)"/><path d="M429 790.64H157.35a4.41 4.41 0 0 0 4.41 4.41H424.6a4.41 4.41 0 0 0 4.41-4.41zM242.44 783a4.4 4.4 0 0 0 4.35 3.82h35.87A4.39 4.39 0 0 0 287 783z" fill="#5591a8"/><path d="M201.62 649.96h217.86v125.7H201.62z" class="Ak"/><rect x="228.61" y="658.63" width="163.84" height="113.49" rx="11.4" opacity=".14" class="Al"/><rect x="230.89" y="661.01" width="157.47" height="104.91" rx="10.7" class="Ak"/><path d="M388.36,675v-3.25a10.7,10.7,0,0,0-10.7-10.7H241.6a10.7,10.7,0,0,0-10.7,10.7V675Z" class="Ar"/><path d="M388.43 679.28l-157.57-.23v-8l157.57.24v8z" opacity=".15" class="Al"/><g opacity=".8"><circle cx="313.61" cy="723.02" r="26.03" class="Ap"/><circle cx="313.61" cy="723.02" r="23.44" fill="#f8b66e"/><path d="M313.52,746.46V699.58a23.44,23.44,0,0,0,0,46.87Z" opacity=".35" class="Ak"/><g class="Ap"><path d="M314.77 747.46h-2.32V698.1h2.32z"/><path d="M288.74 724.18v-2.32h49.35v2.32z"/><path d="M313.35 698.6c4.06 0 7.83 2.66 10.62 7.5a38.16 38.16 0 0 1 0 34.56c-2.78 4.84-6.55 7.5-10.62 7.5s-7.83-2.66-10.62-7.5a38.16 38.16 0 0 1 0-34.56c2.78-4.84 6.55-7.5 10.62-7.5zm0 47.24c3.2 0 6.26-2.25 8.6-6.34a35.87 35.87 0 0 0 0-32.25c-2.35-4.1-5.4-6.34-8.6-6.34s-6.26 2.25-8.6 6.34a35.87 35.87 0 0 0 0 32.25c2.35 4.1 5.4 6.34 8.6 6.34z"/><path d="M292.23 735.46h42.5v2.32h-42.5zm0-27.4h42.5v2.32h-42.5z"/></g></g><path d="M237.94 696.85h31.35v60.6h-31.35z" class="As"/><rect x="287.37" y="688.49" width="19.75" height="5" rx="2.5" class="Av"/><g class="Ak"><rect x="242.24" y="703.71" width="19.75" height="5" rx="2.5"/><rect x="242.24" y="714.13" width="19.75" height="5" rx="2.5"/><rect x="242.24" y="724.54" width="19.75" height="5" rx="2.5"/><rect x="242.24" y="734.95" width="19.75" height="5" rx="2.5"/><rect x="242.24" y="745.37" width="19.75" height="5" rx="2.5"/></g><g class="Av"><use xlink:href="#b" x="-782.53" y="-62.35"/><rect x="278.47" y="689.85" width="2.17" height="4.46" rx="1.09"/><rect x="287.37" y="751.47" width="19.75" height="5" rx="2.5"/><path d="M279.57 749a5.83 5.83 0 1 0 5.83 5.83 5.83 5.83 0 0 0-5.83-5.83zm0 10a4.18 4.18 0 1 1 4.18-4.18 4.18 4.18 0 0 1-4.18 4.24z"/><rect x="278.47" y="752.83" width="2.17" height="4.46" rx="1.09"/><rect x="352.35" y="688.91" width="28.14" height="5" rx="2.5"/><rect x="352.35" y="696.5" width="20.81" height="5" rx="2.5"/><use xlink:href="#a" x="-717.55" y="1.04"/><rect x="343.45" y="690.26" width="2.17" height="4.46" rx="1.09"/></g><path d="M345.57 719.22h39.33v39.75h-39.33z" class="As"/><path d="M351.42 738.12h6.77v13.2h-6.77z" class="Az"/><path d="M361.73 723.6h6.77v27.7h-6.77z" class="BA"/><path d="M372.04 733.58h6.77v17.74h-6.77z" class="BB"/><path d="M347.07 753.4h36.4v2.42h-36.4z" class="Ap"/><path d="M238.02 686.5h31.25v10.95h-31.25z" class="Ar"/><g class="Ak"><path d="M242.25 693.67v-.34a1.38 1.38 0 0 1 .14-.39 1.36 1.36 0 0 1 .35-.43 1.5 1.5 0 0 1 .44-.24 1.38 1.38 0 0 1 .31-.07h.93v-.15a1.14 1.14 0 0 1 0-.12v-.22a1.47 1.47 0 0 1 .18-.42 1.34 1.34 0 0 1 .4-.29 1.15 1.15 0 0 1 .23-.15l.24-.1h.53a1.18 1.18 0 0 1 .31.07l.25.1v-.2a2.2 2.2 0 0 1 .17-.49 2.37 2.37 0 0 1 .2-.34 2.21 2.21 0 0 1 .25-.3l.2-.2.24-.17a2.09 2.09 0 0 1 .4-.21l.37-.12a1.69 1.69 0 0 1 .34-.06h.7l.3.07a2.1 2.1 0 0 1 .5.22 2.27 2.27 0 0 1 .38.29 2.31 2.31 0 0 1 .23.26 2.51 2.51 0 0 1 .27.42 2.4 2.4 0 0 1 .12.26c0 .13.1.27.13.4l.1.44a0 0 0 0 1 0 0l-.17.2-.38.42-.2.22-.17.2v.18l-.14.4-.2.58-.12.35-.15.13a1.7 1.7 0 0 1-.37.23.42.42 0 0 1-.21 0 .64.64 0 0 1-.33-.09 1.3 1.3 0 0 1-.25-.2l-.16-.17-.25-.27-.13-.13a1.08 1.08 0 0 0-.22-.15.72.72 0 0 0-.44-.09.7.7 0 0 0-.21.06 1 1 0 0 0-.26.18l-.24.24-.24.26-.2.18a.72.72 0 0 1-.25.14.42.42 0 0 1-.29 0 .67.67 0 0 1-.21-.14l-.2-.2-.23-.23a.73.73 0 0 0-.22-.15.5.5 0 0 0-.28 0 .72.72 0 0 0-.28.11 1.68 1.68 0 0 0-.26.21l-.25.25a.08.08 0 1 0 .12.11l.28-.26a1.21 1.21 0 0 1 .28-.18.32.32 0 0 1 .28 0 .78.78 0 0 1 .23.17l.16.17.17.18a1 1 0 0 0 .21.17.53.53 0 0 0 .23.08h.18a.69.69 0 0 0 .27-.11 1.11 1.11 0 0 0 .19-.15l.2-.18.23-.25a2 2 0 0 1 .29-.27.64.64 0 0 1 .32-.13.52.52 0 0 1 .26 0 1.16 1.16 0 0 1 .31.23l.17.17.24.26.18.16.16.12a.66.66 0 0 0 .3.1h.17a.77.77 0 0 0 .28-.11 2.77 2.77 0 0 0 .39-.29h.06l.18-.1.22-.1.43-.2.22-.1.42-.2h.05l.2-.22.2-.2.2-.22.18-.2.07-.07.08-.1.1.2a1.8 1.8 0 0 1 .11.34 1.63 1.63 0 0 1 0 .29v.23a1.68 1.68 0 0 1 0 .29 1.85 1.85 0 0 1-.15.45l-.1.2a1.79 1.79 0 0 1-.23.31 2 2 0 0 1-.8.53 1.66 1.66 0 0 1-.37.09h-7.62a1.41 1.41 0 0 1-.39-.13 1.28 1.28 0 0 1-.3-.2 1.69 1.69 0 0 1-.26-.28 1.55 1.55 0 0 1-.19-.36 1.28 1.28 0 0 1-.08-.34z"/><use xlink:href="#c" x="-782.58" y="0.62"/></g><path d="M206.68 653.96v119.42l207.67-119.42H206.68z" opacity=".06" class="Al"/><g class="Am"><path d="M457.77 816.28h18.3v236.3h-18.3zm-163.32 0h18.3v236.3h-18.3z"/><path d="M101.9 794.44h348.45a26.37 26.37 0 0 1 26.37 26.37v.77a0 0 0 0 1 0 0H75.54a0 0 0 0 1 0 0v-.77a26.37 26.37 0 0 1 26.37-26.37z"/></g><path d="M319 794.44h131.36a26.37 26.37 0 0 1 26.37 26.37v.77a0 0 0 0 1 0 0h-184.1a.38.38 0 0 1-.38-.38A26.76 26.76 0 0 1 319 794.44z" class="Aq"/><path d="M439 957.72c-19.7-9.7-48.33 8.94-64 41.63s-12.36 67.06 7.33 76.76 48.33-8.94 64-41.63 12.4-67.06-7.33-76.76zm-6.82 69c-11.73 24.5-31.86 39.14-45 32.68s-14.24-31.57-2.52-56.1 31.86-39.14 45-32.68 14.28 31.55 2.56 56.06z" class="BD"/><path d="M488.22 1086.56h-74.38a13 13 0 0 1-12.78-13.39l1.5-89.1c.47-28 23.12-50.92 50.33-50.93h1.45c27.2 0 49.1 22.9 48.62 50.9l-1.5 89.1a13.52 13.52 0 0 1-13.24 13.41z" fill="#5b9ebd"/><path d="M450.75 1071.9H417a7.08 7.08 0 0 1-7-7.3l1-61.47c.2-12.76 10.53-23.2 22.93-23.2h2.85c12.4 0 22.36 10.43 22.15 23.2l-1 61.47a7.38 7.38 0 0 1-7.18 7.31z" class="BD"/><path d="M447.3 1001.35l-28.26.5a2.74 2.74 0 0 1-2.75-2.78 2.86 2.86 0 0 1 2.75-2.88l28.26-.5a2.74 2.74 0 0 1 2.75 2.78 2.86 2.86 0 0 1-2.75 2.88z" fill="#5b9ebd"/><path d="M486.84 1029.7h-.3a10.33 10.33 0 0 1-10.36-10.49v-32.58a10.79 10.79 0 0 1 10.38-10.85h.3a10.33 10.33 0 0 1 10.36 10.49v32.58a10.79 10.79 0 0 1-10.38 10.85z" class="BD"/><path d="M94.55 694.08s-28.43-31.95-28.43-47.65v-32.85H123v32.85c0 15.7-28.45 47.65-28.45 47.65z" fill="url(#S)"/><path d="M134.9 1043.63c9.27-23.5 88.5-168.74-73.16-149.86" stroke="#19719d" class="An Ao At Ax"/><use xlink:href="#d" class="Au"/><path d="M222.23 1043.63c9.27-23.5 87.42-161.94-72.6-152.13" stroke="#006192" class="An Ao At Ax"/><use xlink:href="#d" x="87.3" class="Au"/><path d="M139.54 919.4H68.12a39.48 39.48 0 0 1-39.28-35.53l-1.58-15.7H180.4l-1.6 15.74a39.48 39.48 0 0 1-39.27 35.49z" class="Ay"/><path d="M153 653.78l-34.9-14.27-52 .6-31.4 14.9c-13.5 6.67-21.77 21.76-20.68 37.86l13.36 176.9 141.03-1.63 6.15-177.65c.46-15.85-8.12-30.4-21.54-36.7z" fill="url(#T)"/><path d="M129.87 645.52l.07-1.5c0-6.67-3.93-12.12-8.73-12.12H68.55c-4.8 0-8.73 5.45-8.73 12.12 0 .5 0 1 .07 1.5z" class="Aw"/><g fill="#ffbfab"><rect x="280.56" y="748.98" width="55.98" height="16.19" rx="8.09" transform="matrix(.906013 .423251 -.423251 .906013 349.46 -59.44)"/><rect x="267.89" y="759.98" width="55.98" height="16.19" rx="8.09" transform="matrix(.889895 .456166 -.456166 .889895 382.99 -50.4)"/><circle cx="280.81" cy="762.42" r="24.37"/></g><path d="M153.23 686.76c-1.3 21.8-12.46 119.5 90.72 88.63" stroke="#fb3847" class="An Ao At BE"/><path d="M281.34 788.8l-16.03-46.02-26.1 8.8 15.7 46.45 26.43-9.22z" class="Aw"/><path d="M32.8 491.4a11.55 11.55 0 0 0-8.92 13.7l17.65 83.37a45.52 45.52 0 0 0 53.87 35.12l15.76-3.3a45.52 45.52 0 0 0 35.2-53.89l-17.3-82.5a12.4 12.4 0 0 0-14.69-9.59z" fill="url(#U)"/><path d="M117.28 473.67L32.8 491.4a11.55 11.55 0 0 0-8.92 13.7L41.53 588A45.67 45.67 0 0 0 47 602.17l46.12-9.68a27.24 27.24 0 0 0 21.06-32.25l-2.9-13.8 20.44-3.85z" fill="#923d50"/><path d="M101.94 458.5L42.9 472.2a16.17 16.17 0 0 0-12.1 19.41A11.4 11.4 0 0 0 23 505.05l2.62 8.34 103.9-24.1-3.9-16.78c-2.32-10.23-13.46-16.4-23.7-14.02z" class="Aw"/><path d="M122.3 570.84l-.77.14c-3 .54-6-1.78-6.66-5.15L110 543c-.7-3.37 1.12-6.56 4.07-7.1l.77-.14c3-.54 6 1.78 6.66 5.15l4.84 22.87c.74 3.32-1.1 6.52-4.04 7.05z" fill="#ffb69f"/><path d="M84.2 462.8l53.06-12.5-7.5 38.85L84.2 462.8z" class="Aw"/><g class="Am"><path d="M27.96 824.1h13.58v108.68H27.96zm0 114.62h13.58v138.68H27.96zm62.7-114.62h13.58v108.68h-13.6zm0 114.68h13.58v138.68h-13.6zm75 0h13.58v138.68h-13.58z"/><rect y="725.49" width="153.82" height="115.64" rx="18.76"/></g><rect y="725.49" width="142.4" height="115.64" rx="18.05" class="Aq"/><rect x="24.57" y="915.07" width="176.29" height="31.67" rx="15.83" class="Am"/><path d="M200.84 930.13A15.88 15.88 0 0 0 185 915.07H40.4a15.88 15.88 0 0 0-15.81 15.06z" class="Aq"/><path d="M502.63 619.53c-29.54-49.64-12-117.78 24.57-146.5" stroke="#268baa" class="An Ao BF BG"/><path d="M505.74 669.44l16.4-19.6a4.31 4.31 0 0 0 .86-1.72 17.06 17.06 0 0 0 5.54-9c2.38-9.85-3.88-20.26-14-23.25s-20.24 2.58-22.62 12.44a19 19 0 0 0 2.88 15.05l-6 6.5c-1.73 1.9-1 5.36 1.62 7.72 2.47 2.22 5.76 2.66 7.58 1.13l-2.07 2.47c-1.83 2.2-1.13 5.85 1.56 8.12 2.7 2.24 6.4 2.3 8.24.12z" fill="#ffded3"/><path d="M532.6 375.2c3.2 35.1 17.27 65.6 47.17 65.08 25.8-.44 41.82-29 46.24-63.87 6.94-54.7-20.9-64-46.7-64.3s-51.24 13.6-46.7 63.1z" class="Al"/><path d="M623.82 339.75c8.85 19.27-.35 63.1-6.54 86.12l-9.1-40z" fill="#3a3938"/><path d="M537.13,337.83c-3.47,12.23-6.6,27.27-9.24,46.4l9.64-20.92Z" class="Al"/><path d="M635.45 692.38c3.93-24.32-3.8-52-9.77-60.7l-100.9-.9c-14.26 22.73-11.54 38.14-9.3 60.68z" class="Ay"/><path d="M626.58 632.3c-27-55.07-3.92-121.6 8.1-169.4-26.7-29-100.4-19.53-119.7 0 16.72 57.57 32.15 114.68 8.1 168.52z" fill="url(#V)"/><path d="M565.84 985.25a5.23 5.23 0 0 0 5.23-5.23l-22.37-17.5c-34.32 7.35-42.83 16.9-40.73 22.73z" fill="#fdd66e"/><path d="M548.7 962.52a167.63 167.63 0 0 0-20 5.42v17.3h37.1a5.23 5.23 0 0 0 5.23-5.23z" fill="#fbb800"/><path d="M509.07 979.55c-1.44 2.1-1.7 4-1.1 5.7h57.87a5.23 5.23 0 0 0 5.23-5.23v-.46z" class="Ak"/><path d="M571.07 969.25V688.33h-56.04L548.3 962.4l22.78 6.84z" fill="url(#W)"/><path d="M545.95 945.6l2.34 16.8 22.78 17.78V964l-25.12-18.4z" class="Au"/><path d="M585.44 985.25a5.23 5.23 0 0 1-5.23-5.23l22.37-17.5c34.32 7.35 42.83 16.9 40.73 22.73z" fill="#fdd66e"/><path d="M602.6 962.52a167.63 167.63 0 0 1 20 5.42v17.3h-37.1a5.23 5.23 0 0 1-5.23-5.23z" fill="#fbb800"/><path d="M642.2 979.55c1.44 2.1 1.7 4 1.1 5.7h-57.87a5.23 5.23 0 0 1-5.23-5.23v-.46z" class="Ak"/><path d="M580.2 969.25V688.33h56.04L603 962.4l-22.78 6.84z" fill="url(#X)"/><path d="M605.33 945.6L603 962.4 580.2 980.2V964l25.12-18.4z" class="Au"/><path d="M576.52 488.1s-15.9-33.87-15.8-42L561 410h32l-.23 36.13c-.12 8.1-16.25 41.96-16.25 41.96z" fill="#298cab"/><path d="M624.75 471.43c43.8 37.64 89.5 5.73 105.67-32.52" stroke="#268baa" class="An Ao BF BG"/><g fill="#ffc9b8"><path d="M751.15 426.57l-7.26 20-28.64-10.32 7.26-20a15.22 15.22 0 1 1 28.64 10.32z"/><rect x="711.93" y="394.19" width="43.7" height="10.24" rx="4.9" transform="matrix(.338902 -.940822 .940822 .338902 109.44 954.36)"/></g><g fill="#ffe0d6"><rect x="726.62" y="404.66" width="28.64" height="10.24" rx="4.04" transform="matrix(.338902 -.940822 .940822 .338902 104.33 968.03)"/><path d="M757.52 408.72l-8 21.34a4.06 4.06 0 0 1-5.17 2.43l-2-.73a4.05 4.05 0 0 1-2.44-5.17l7-19.34a4.06 4.06 0 0 1 5.17-2.43l2 .73c2.1.75 4.2 1.07 3.44 3.17z"/></g><rect x="706.97" y="407.24" width="31.92" height="10.53" rx="5.27" transform="matrix(-.147119 -.989119 .989119 -.147119 421.32 1188.28)" fill="#ffc9b8"/><g fill="#ff9676"><rect x="612.27" y="377.79" width="8.07" height="21.96" rx="4.04" transform="matrix(-.966734 -.255783 .255783 -.966734 1112.68 922.25)"/><rect x="538.18" y="377.79" width="8.07" height="21.96" rx="4.04" transform="matrix(.966734 -.255783 .255783 .966734 -81.4 151.61)"/></g><path d="M543 373.58c0 31.82 16.1 57.62 36 57.62s36-25.8 36-57.62-16.1-46.2-36-46.2-36 14.4-36 46.2z" fill="url(#Y)"/><path d="M572.42 375.62c4.57-2.3 9.72-2.12 15.3 0a2.14 2.14 0 0 0 2.13-2.13 2.14 2.14 0 0 0-2.13-2.13c-5.55-2-10.68-2.16-15.3 0a2.14 2.14 0 0 0-2.13 2.13 2.14 2.14 0 0 0 2.13 2.13z" fill="#a81b5b"/><g fill="#a9dff9" stroke="#a81b5b" stroke-width="3.26"><circle cx="600.15" cy="375.64" r="16.56"/><circle cx="558.74" cy="375.64" r="16.56"/></g><path d="M561.9 405v.3c0 6.58 7.63 11.9 17 11.9s17-5.33 17-11.9v-.3z" class="Aw"/><path d="M581.16 412.47a36.2 36.2 0 0 0-8.71 1.88 20.7 20.7 0 0 0-2.51 1.05 22.63 22.63 0 0 0 9 1.79 21.12 21.12 0 0 0 12.19-3.59 23.7 23.7 0 0 0-9.97-1.13z" fill="url(#Z)"/><g class="Ay"><use xlink:href="#e"/><use xlink:href="#e" x="-33.89"/></g><path d="M581.16 305.22c3.88 4.4-3 17.2-15.37 28.58s-25 18.22-28.93 13.83 1.7-19.54 14.06-30.94 26.36-15.86 30.24-11.47z" class="Al"/><path d="M568 305.34c11.7-7.78 35.08.5 47.3 17s12.63 36.2.9 44c-23-.37-40.7-28.9-40.7-28.9l5.2 21.55a54 54 0 0 1-7.78-8.47c-12.22-16.53-16.6-37.4-4.9-45.2z" fill="#3a3938"/><path d="M572.17 43.06l-116.7 75.2h524.5l-230.8-76.7-177 1.5z" fill="#f9dabb" opacity=".4"/><path d="M605.87 0H741.3a37.89 37.89 0 0 1 37.89 37.89V55.7a0 0 0 0 1 0 0H568a0 0 0 0 1 0 0V37.9A37.89 37.89 0 0 1 605.87 0z" fill="#eaeaea"/></svg>