<svg xmlns="http://www.w3.org/2000/svg" xmlns:xlink="http://www.w3.org/1999/xlink" viewBox="0 0 1442.69 974.92"><defs><style>.cls-1{fill:#f4f4f4;}.cls-2,.cls-7{fill:#201e1d;}.cls-2,.cls-6{opacity:0.1;}.cls-3{fill:#fff;}.cls-4{fill:#007193;}.cls-5{fill:url(#linear-gradient);}.cls-8{fill:#daeff6;}.cls-9{fill:#c1e5ef;}.cls-10{fill:#ec8c2a;}.cls-11{fill:#e87601;}.cls-12{fill:#fccd4c;}.cls-13{fill:#fbc01f;}.cls-14{fill:#4c7984;}.cls-15{fill:#336673;}.cls-16{fill:#195261;}.cls-17{fill:none;stroke:#286473;stroke-linecap:round;stroke-miterlimit:10;stroke-width:9.61px;}.cls-18{fill:#fde08f;}.cls-19{fill:#fdd66b;}.cls-20{fill:#c21d47;}.cls-21{fill:#e6f5f9;}.cls-22{fill:#5591a8;}.cls-23{fill:#e8f5f9;}.cls-24{fill:#fffbf2;}</style><linearGradient id="linear-gradient" x1="690.52" y1="684.45" x2="690.52" y2="946.81" gradientUnits="userSpaceOnUse"><stop offset="0.19" stop-color="#85bbcb"/><stop offset="1" stop-color="#007193"/></linearGradient></defs><title>Lernstore_empty</title><g id="Layer_2" data-name="Layer 2"><g id="Para"><path class="cls-1" d="M1442,571.2c-.36-13.33-2.61-26.41-5.31-39.41a246.26,246.26,0,0,0-14.45-46.57c-4-9.28-8.29-18.41-12.81-28.38-4.12,4.4-7.64,8.05-11,11.82-3,3.35-5.85,6.9-8.89,10.24-8.08,8.87-16.27,17.64-24.36,26.5q-13.64,15-27.19,30-13.23,14.61-26.44,29.25c-9,10-18,20.07-27.23,30a26,26,0,0,1-7.4,5.88c-19.29,9.25-38.7,18.25-58.08,27.33l-30.63,14.32-58.12,27.23q-15.32,7.17-30.63,14.32c-8.34,3.87-16.82,7.47-25,11.64-3,1.54-5.37,4.34-8,6.63a377.61,377.61,0,0,1-53.6,39c-11.93,7.24-24.49,13.5-38.42,15.59-7.7,1.15-15.7,1-23.52.59-14.7-.76-28-6.46-40.49-13.68a168.76,168.76,0,0,1-22.47-16,297.3,297.3,0,0,1-24-21.87c-11.39-11.67-22.16-23.94-33.26-35.89-7.46-8-14.67-16.37-22.63-23.89-12.86-12.13-26.28-23.6-42.66-31-11.29-5.12-23.06-7.81-35.33-6.81-16.09,1.33-30.26,8-43.38,17.21-14.8,10.41-27.22,23.4-39.65,36.33-10.79,11.23-20.69,23.31-31.39,34.62-8.2,8.67-17,16.74-25.6,25.06a152,152,0,0,1-26.4,20.09c-11.44,7-23.55,12.61-36.94,14.41-8.27,1.11-16.76,1.89-25,1.3-11.23-.79-21.62-5.22-31.3-10.94a136.66,136.66,0,0,1-28.91-23.2c-7.75-8-15.6-16-23.31-24.06-7.34-7.68-14.29-15.74-21.9-23.13-9.38-9.12-19.54-17.34-31.73-22.58-13-5.6-25.78-4.58-38.37,1.59-13.83,6.77-26.89,14.79-38.32,25.09-12.93,11.64-25.38,23.8-38,35.78-1.5,1.43-2.62,3.26-4.09,4.73-4.44,4.44-11.38,4.39-16.19-.14-4.09-3.84-6.18-10.36-1.31-15.34,11.46-11.75,23-23.4,34.8-34.83A228.49,228.49,0,0,1,299,641.71c11.7-7.53,24.17-13.31,38-15.45,13.34-2.06,26.2.52,38.44,5.9a100.31,100.31,0,0,1,29.76,19.9c10.65,10.34,21.11,20.87,31.49,31.48,8.73,8.93,16.92,18.42,25.91,27.08,8.58,8.25,18.16,15.33,29.39,19.78,13.45,5.33,26.88,4.23,40.29-.15a97.75,97.75,0,0,0,33.52-19.43c9.17-7.91,18.28-16,26.69-24.66,11.15-11.52,21.32-24,32.42-35.58,10.81-11.28,22.11-22.09,33.45-32.84a133.22,133.22,0,0,1,36-24.18,96.2,96.2,0,0,1,28.28-8.3c21.5-2.75,41.64,1.37,60.57,11.63a147.29,147.29,0,0,1,29.52,21c6.18,5.68,12.63,11.1,18.42,17.15,11.69,12.2,23,24.77,34.48,37.15,7.15,7.69,14.07,15.63,21.64,22.9,10.5,10.08,21.41,19.84,34.13,27.11,10.62,6.08,21.79,10.55,34.26,11.94,10.68,1.19,19.94-2.43,29.22-6.3,18.4-7.66,34.72-18.88,50.5-30.85,7.18-5.45,14-11.4,20.82-17.29a10.43,10.43,0,0,0,2.52-4.44c5.59-15.89,11.09-31.83,16.64-47.74q13.91-39.76,27.83-79.53,9.45-26.93,19-53.85c1.91-5.4,3.55-10.92,5.87-16.14a32.91,32.91,0,0,1,5.76-8.14c7.85-8.75,15.9-17.33,23.83-26q13.51-14.83,26.94-29.75,13-14.37,25.94-28.76t26.18-29q11.52-12.84,22.91-25.81a3.82,3.82,0,0,0,.67-2.86c-4-20-7.11-40.3-12.26-60-4.92-18.8-11.48-37.23-18.2-55.49a327.32,327.32,0,0,0-16-35.52,342.13,342.13,0,0,0-36.78-57.45A316.2,316.2,0,0,0,1145.21,84a310.88,310.88,0,0,0-52.65-39.78A287.11,287.11,0,0,0,1024,14.05C1011.1,10.38,998,7.45,984.8,5c-10-1.87-20.14-2.67-30.25-3.61C946.45.62,938.28-.22,930.18.05c-13.45.44-26.88,1.69-40.31,2.68a231,231,0,0,0-47.09,8.62c-17,4.92-33.89,10.67-50.5,16.92-19.09,7.19-36.95,17.09-54,28.15a381.43,381.43,0,0,0-32.59,23.85,368.77,368.77,0,0,0-28.51,25.67,302.26,302.26,0,0,0-34,40.78,324.65,324.65,0,0,0-27.49,47c-10.24,21.64-18.35,44-23.25,67.51-1.83,8.77-3.29,17.61-5,26.41a8.21,8.21,0,0,1-.82,2c-11.45-4.38-22.57-9-33.95-12.89-13.6-4.67-27.56-8.18-42-9.12-11.74-.76-23.6-2-35.26-1.17A198.05,198.05,0,0,0,437.79,273c-11.42,3.14-22.48,8-33.24,13-11.36,5.34-21.52,12.76-31.33,20.68-15.88,12.83-28.71,28.26-39.51,45.39a200.64,200.64,0,0,0-24.37,56.79c-2.57,9.87-4.52,19.92-6.3,30-1,5.57-1.14,11.3-1.52,17-.43,6.63-.7,13.27-1,19.94-8.32-1.53-16.7-3.23-25.15-4.6s-16.62-2.79-25-3.41c-14.16-1.06-28.38-2.18-42.55-2-11.87.15-23.73,2-35.57,3.32a188.26,188.26,0,0,0-42.43,10.2C108.12,487,88,497.61,69.87,512.11A185.82,185.82,0,0,0,21.5,570.39a189.22,189.22,0,0,0-18.56,53C1.7,629.75,1.43,636.27.68,642.7A7.93,7.93,0,0,1,0,644.48v26.76c.47,3.13,1.1,6.24,1.38,9.39,1.39,15.92,5.4,31.25,11,46.12a212.08,212.08,0,0,0,26.08,48.87,231.6,231.6,0,0,0,35.09,38.6,175.75,175.75,0,0,0,40.4,27,193.21,193.21,0,0,0,53.85,17.37c13,2.07,26,3.7,39.12,4.91,10.66,1,21.41,1.32,32.12,1.44,19.51.22,39,.08,58.53.06q437.51-.35,875-.85c12.21,0,24.43-2,36.62-3.39,17.53-2,34.44-6.7,51-12.63a276.59,276.59,0,0,0,109-72.14,245.24,245.24,0,0,0,31.8-41.8c5.59-9.37,10.91-19,15.64-28.79a253.39,253.39,0,0,0,20.46-61.89c2.5-13,4.65-25.91,4.91-39.13,0-.48.44-1,.67-1.43V574A13.87,13.87,0,0,1,1442,571.2Z"/><path class="cls-1" d="M1232.3,412.83c-8.9,9.84-17.76,19.71-26.7,29.5-8.33,9.12-16.77,18.14-25.09,27.26-2.82,3.07-5.28,6.48-8.18,9.46-4,4.12-8,8.46-12.59,11.84-6,4.4-13.19,4.18-20.3,2.93-3.3,9.4-6.51,18.71-9.82,28-7.14,20-14.35,39.92-21.42,59.91a4.53,4.53,0,0,0,.62,3.81c2.27,2.48,4.91,4.62,7.42,6.87l33.51,30,14.52,13c29-13.53,57.86-27,86.88-40.55-2.68-9-2.35-17.34,3-24.81,2.85-3.93,6.29-7.44,9.52-11.08q11.7-13.17,23.45-26.27,15.36-17.14,30.74-34.27c7.83-8.75,15.6-17.54,23.46-26.26q17.07-18.92,34.21-37.77c3.34-3.7,6.61-7.48,9.82-11.29a2.08,2.08,0,0,0,.15-2c-2.83-3.61-5.79-7.14-9-11-3.83,4.36-7.29,8.38-10.83,12.33q-13.18,14.66-26.43,29.26l-20.14,22.25c-9,9.92-17.93,19.87-27,29.75-8.33,9.12-16.76,18.14-25.1,27.25-2.89,3.17-5.5,6.59-8.45,9.69-6.07,6.38-12.05,12.74-20.64,16.13A48.28,48.28,0,0,1,1216.2,560a41.86,41.86,0,0,1-25.31-10.59c-7.65-6.81-11.39-15.56-13.25-25.54a47.37,47.37,0,0,1,3.4-28.2c3-7,8.26-12.26,13.11-17.77,11.3-12.84,22.93-25.38,34.41-38.06,6.4-7.07,12.76-14.18,19.15-21.25q16.86-18.65,33.74-37.25c5.73-6.29,11.58-12.47,17.3-18.76,3-3.28,5.78-6.71,9-10.45-4.41-2.4-8.3-4.62-12.32-6.57-.69-.34-2.24.2-2.9.85-2.31,2.28-4.41,4.78-6.6,7.2l-26.68,29.5Q1245.77,398,1232.3,412.83Z"/></g><g id="Ordner_Schatten" data-name="Ordner Schatten"><path class="cls-2" d="M822.76,823.85a7.41,7.41,0,0,0-.79-2.15,6.82,6.82,0,0,0-.39-.64,7.81,7.81,0,0,0-6.49-3.46h-7.92a16,16,0,0,0-14.29-8.83H672.72V805.3a7.85,7.85,0,0,0-7.83-7.82H604.38a7.85,7.85,0,0,0-7.83,7.82v12.3h.06V964.1a10.83,10.83,0,0,0,10.82,10.82H812.67a10.25,10.25,0,0,0,10.25-10.26V825.43A7.5,7.5,0,0,0,822.76,823.85Z"/></g><g id="Ordner"><path class="cls-3" d="M593,794.84H773.67a16,16,0,0,1,16,16V951.27a9.65,9.65,0,0,1-9.65,9.65H593a0,0,0,0,1,0,0V794.84A0,0,0,0,1,593,794.84Z"/><path class="cls-4" d="M803.71,950.73V811.5a7.85,7.85,0,0,0-7.83-7.83H577.4v146.5A10.81,10.81,0,0,0,588.22,961H793.45A10.26,10.26,0,0,0,803.71,950.73Z"/><path class="cls-5" d="M803.71,898.57V811.5a7.85,7.85,0,0,0-7.83-7.83H653.51V791.38a7.85,7.85,0,0,0-7.83-7.83H585.16a7.85,7.85,0,0,0-7.83,7.83v12.29h.07v63Z"/><rect class="cls-3" x="591.6" y="792.53" width="48.96" height="10.67"/></g><g id="Bild_1_Schatten" data-name="Bild 1 Schatten" class="cls-6"><rect class="cls-7" x="368.26" y="94.21" width="281.99" height="216.39" rx="12.22" ry="12.22"/></g><g id="Bild_1" data-name="Bild 1"><rect class="cls-3" x="355.77" y="81.72" width="281.99" height="216.39" rx="12.22" ry="12.22"/><rect class="cls-8" x="364.73" y="92.4" width="264.06" height="195.03" rx="11.23" ry="11.23"/><path class="cls-9" d="M617.57,92.4h-125v195h125a11.22,11.22,0,0,0,11.22-11.23V103.62A11.22,11.22,0,0,0,617.57,92.4Z"/><circle class="cls-3" cx="417.49" cy="131.65" r="22.38"/><path class="cls-10" d="M616.08,274.21H418.53L514,149.76Z"/><polygon class="cls-11" points="512.33 274.2 616.08 274.2 513.96 149.76 512.33 151.88 512.33 274.2"/><path class="cls-12" d="M508.93,274.21H375.27L439.84,190Z"/><polygon class="cls-13" points="438.32 274.2 508.93 274.2 439.84 190.01 438.32 191.99 438.32 274.2"/></g><g id="Bild_2_Schatte" data-name="Bild 2 Schatte"><rect class="cls-2" x="968.3" y="458.46" width="281.99" height="216.39" rx="12.22" ry="12.22"/></g><g id="Bild_2" data-name="Bild 2"><rect class="cls-3" x="952.93" y="441.17" width="281.99" height="216.39" rx="12.22" ry="12.22"/><rect class="cls-8" x="961.89" y="451.84" width="264.06" height="195.03" rx="11.23" ry="11.23"/><path class="cls-9" d="M1226,533.31V463.07a11.22,11.22,0,0,0-11.22-11.23H973.12a11.23,11.23,0,0,0-11.23,11.23V576.23Z"/><path class="cls-14" d="M1002.88,529.76h32.32a0,0,0,0,1,0,0V585.6a0,0,0,0,1,0,0h-32.32A10.64,10.64,0,0,1,992.24,575V540.4A10.64,10.64,0,0,1,1002.88,529.76Z"/><path class="cls-15" d="M1076.84,614.87,1034.2,585.6V529.76l42.64-29.27c5.4-3.7,13.7-.61,13.7,5.1V609.77C1090.54,615.48,1082.24,618.57,1076.84,614.87Z"/><path class="cls-15" d="M992.24,559v16a10.64,10.64,0,0,0,10.64,10.64h32.32V559Z"/><path class="cls-16" d="M1034.2,559V585.6l42.64,29.27c5.4,3.7,13.7.61,13.7-5.1V559Z"/><path class="cls-17" d="M1112,583.7a40.44,40.44,0,0,0,1.52-60.62"/><path class="cls-17" d="M1135.76,607.44a73.91,73.91,0,0,0,1.38-108.12"/><path class="cls-17" d="M1157.76,629.44a105,105,0,0,0,1.32-152.19"/></g><g id="Bild_2_Schatten" data-name="Bild 2 Schatten"><path class="cls-2" d="M478,669.52a11.27,11.27,0,0,0,1.74-6v-202a11.37,11.37,0,0,0-11.37-11.37H200a11.37,11.37,0,0,0-11.37,11.37V663.5A11.37,11.37,0,0,0,200,674.87H468.33a11.36,11.36,0,0,0,7.24-2.6A12,12,0,0,0,477,670.8l.29-.37A9.79,9.79,0,0,0,478,669.52Z"/></g><g id="Ebene_12" data-name="Ebene 12"><rect class="cls-18" x="174.56" y="432.51" width="291.09" height="224.78" rx="11.37" ry="11.37"/><path class="cls-19" d="M454.28,432.51H322V657.29H454.28a11.37,11.37,0,0,0,11.36-11.37v-202A11.37,11.37,0,0,0,454.28,432.51Z"/><rect class="cls-3" x="186.2" y="628.89" width="267.05" height="8.92" rx="4.46" ry="4.46"/><circle class="cls-20" cx="225.42" cy="633.31" r="13.1"/><rect class="cls-3" x="192.34" y="445.03" width="258.06" height="166.71"/><polygon class="cls-21" points="450.4 611.75 193.23 611.75 192.63 563.54 450.4 488 450.4 611.75"/><circle class="cls-22" cx="323.79" cy="531.4" r="52.61"/><path class="cls-3" d="M311.26,501.79l48.49,28a3,3,0,0,1,0,5.17l-48.49,28a3,3,0,0,1-4.47-2.59v-56A3,3,0,0,1,311.26,501.79Z"/></g><g id="Doc_Schatten" data-name="Doc Schatten"><path class="cls-2" d="M1022.8,79.83,989.62,49.76H842.71a11.63,11.63,0,0,0-11.63,11.62V294.63a11.63,11.63,0,0,0,11.63,11.63H1021.2a11.63,11.63,0,0,0,11.63-11.63V88.92Z"/></g><g id="Doc_2" data-name="Doc 2"><path class="cls-3" d="M1009.67,287.05H831.18a11.63,11.63,0,0,1-11.62-11.63V42.17a11.63,11.63,0,0,1,11.62-11.63H978.09l43.21,39.17V275.42A11.63,11.63,0,0,1,1009.67,287.05Z"/><path class="cls-23" d="M978.09,30.54H922.83V287.05h86.84a11.63,11.63,0,0,0,11.63-11.63V69.71Z"/><polygon class="cls-24" points="1021.3 69.7 977.96 69.7 977.91 30.54 1021.3 69.7"/><rect class="cls-22" x="845.77" y="99.33" width="95.29" height="15"/><rect class="cls-22" x="845.77" y="139.04" width="150.28" height="15"/><rect class="cls-22" x="845.77" y="177.86" width="150.28" height="15"/><rect class="cls-22" x="845.77" y="216.68" width="150.28" height="15"/></g></g></svg>