<?xml version="1.0" encoding="UTF-8"?>
<svg width="262px" height="212px" viewBox="0 0 262 212" version="1.1" xmlns="http://www.w3.org/2000/svg" xmlns:xlink="http://www.w3.org/1999/xlink">
    <!-- Generator: Sketch 53 (72520) - https://sketchapp.com -->
    <title>letter owl</title>
    <desc>Created with Sketch.</desc>
    <g id="Create-Course-Flow" stroke="none" stroke-width="1" fill="none" fill-rule="evenodd">
        <g id="Neuigkeiten-Landing" transform="translate(-712.000000, -155.000000)">
            <g id="letter-owl" transform="translate(860.786180, 266.057677) rotate(-13.000000) translate(-860.786180, -266.057677) translate(727.286180, 169.557677)">
                <path d="M202.682702,59.6137031 L62.0887632,59.6137031 C60.316203,59.6137031 58.8741284,61.0492847 58.8741284,62.8151182 L58.8741284,159.412288 C58.8741284,161.194383 60.3116835,162.613703 62.1065965,162.613703 L202.64166,162.613703 C204.433524,162.613703 205.874128,161.182707 205.874128,159.412288 L205.874128,62.8151182 C205.874128,61.0317754 204.45363,59.6137031 202.682702,59.6137031 Z" id="Rectangle-31" stroke="#000000"></path>
                <path d="M61.3741284,62.1137031 L116.32693,100.038876 M147.425112,121.501002 L203.374128,160.113703" id="Path-43" stroke="#000000" stroke-linecap="round"></path>
                <path d="M61.3741284,62.1137031 L117.500673,100.848924 M148.213626,122.045187 L203.374128,160.113703" id="Path-43" stroke="#000000" stroke-linecap="round" transform="translate(132.374128, 111.113703) scale(-1, 1) translate(-132.374128, -111.113703) "></path>
                <path d="M206.116493,128.066746 L239.417754,128.029408" id="Path-22" stroke="#000000" stroke-linecap="round" transform="translate(222.767123, 128.048077) rotate(-20.000000) translate(-222.767123, -128.048077) "></path>
                <path d="M219.380269,126.411604 L233.909854,119.330469" id="Path-22" stroke="#000000" stroke-linecap="round" transform="translate(226.645062, 122.871037) rotate(-20.000000) translate(-226.645062, -122.871037) "></path>
                <path d="M221.918182,133.370733 L236.431966,126.322161" id="Path-22" stroke="#000000" stroke-linecap="round" transform="translate(229.175074, 129.846447) scale(1, -1) rotate(20.000000) translate(-229.175074, -129.846447) "></path>
                <path d="M25.9327987,128.066746 L59.2340598,128.029408" id="Path-22" stroke="#000000" stroke-linecap="round" transform="translate(42.583429, 128.048077) scale(-1, 1) rotate(-20.000000) translate(-42.583429, -128.048077) "></path>
                <path d="M31.4406988,126.411604 L45.9702831,119.330469" id="Path-22" stroke="#000000" stroke-linecap="round" transform="translate(38.705491, 122.871037) scale(-1, 1) rotate(-20.000000) translate(-38.705491, -122.871037) "></path>
                <path d="M28.9185869,133.370733 L43.432371,126.322161" id="Path-22" stroke="#000000" stroke-linecap="round" transform="translate(36.175479, 129.846447) scale(-1, -1) rotate(20.000000) translate(-36.175479, -129.846447) "></path>
                <circle id="Oval" stroke="#000000" cx="131.774468" cy="111.488413" r="18.5"></circle>
                <path d="M176.410861,61.5248413 C176.621172,59.7702488 176.729384,57.9842697 176.729384,56.1730165 C176.729384,31.5963451 156.806055,11.6730165 132.229384,11.6730165 C107.652713,11.6730165 87.729384,31.5963451 87.729384,56.1730165 C87.729384,58.2092267 87.8661446,60.2134947 88.1309814,62.1771363" id="Oval-21" stroke="#000000"></path>
                <path d="M148.132937,52.6233441 C147.525972,50.1607907 147.198656,47.5394109 147.198656,44.820203 C147.198656,34.8086505 151.635616,26.1232148 158.130501,21.8082402 C158.6952,21.4330739 176.58629,0.689701067 177.18054,0.382612357 M148.167082,52.7605373 C148.159388,52.7299185 148.151737,52.6992749 148.144129,52.6686065 L132.759586,81.3826124 L117.59206,52.7956142 M148.132937,52.6233441 L148.132937,52.6233441 M88.1805396,0.409625985 C88.405287,0.525768163 106.411511,21.0211535 106.632171,21.1472113 C113.705396,25.1879834 118.635067,34.2674041 118.635067,44.820203 C118.635067,47.4479208 118.329406,49.9842827 117.761101,52.3742428" id="Combined-Shape" stroke="#0D0D0D" stroke-linecap="round" stroke-linejoin="round"></path>
                <path d="M117.019891,37.5760192 C115.887098,37.2803227 114.7012,37.1232708 113.47994,37.1232708 C105.493875,37.1232708 99.0198908,43.8389995 99.0198908,52.1232708 C99.0198908,55.3615697 100.00912,58.3601943 101.691207,60.8117064" id="Oval-22" stroke="#000000"></path>
                <circle id="Oval-22" stroke="#000000" cx="113.716353" cy="51.8989465" r="3.5"></circle>
                <circle id="Oval-22" stroke="#000000" cx="151.567654" cy="52.427175" r="3.5"></circle>
                <path d="M163.145205,61.5584503 C165.091187,59.0111563 166.251301,55.8021806 166.251301,52.3153262 C166.251301,44.0310549 159.702805,37.3153262 151.624826,37.3153262 C150.816667,37.3153262 150.023817,37.3825435 149.251301,37.511824" id="Oval-22-Copy" stroke="#000000"></path>
                <path d="M183.858171,61.1324759 L255.080508,16.9055173 C265.513516,10.4269291 269.880525,14.3168845 264.630074,25.4225273 C264.630074,25.4225273 235.99333,94.1603998 204.715247,109.765777" id="Path-44" stroke="#000000"></path>
                <path d="M0.123275875,60.6548991 L70.3429854,17.439327 C80.781166,11.0153195 85.1591298,14.8535806 79.877665,25.9268321 C79.877665,25.9268321 51.5107136,93.4135154 20.384505,109.323421" id="Path-44" stroke="#000000" transform="translate(41.123276, 61.823421) scale(-1, 1) translate(-41.123276, -61.823421) "></path>
                <path d="M111.592922,160.135517 L100.000612,190.017031 C99.5279409,191.235436 100.143559,192.135517 101.449113,192.135517 L162.018792,192.135517 C163.323511,192.135517 163.939778,191.234955 163.467293,190.017031 L151.874983,160.135517 L111.592922,160.135517 Z" id="Rectangle-32" stroke="#000000"></path>
            </g>
        </g>
    </g>
</svg>