<svg xmlns="http://www.w3.org/2000/svg" xmlns:xlink="http://www.w3.org/1999/xlink" width="239" height="60" xmlns:v="https://vecta.io/nano"><defs><path id="A" d="M.001.135h93.911v36.966H.001z"/></defs><g fill="none" fill-rule="evenodd"><g transform="translate(8 13)"><path d="M31.356 31.341a2.12 2.12 0 0 0-.796-1.714c-.531-.44-1.198-.84-2-1.203l-2.612-1.121c-.938-.385-1.808-.857-2.61-1.418a7.31 7.31 0 0 1-1.998-2.094c-.531-.835-.797-1.901-.797-3.198 0-1.121.192-2.093.576-2.917s.931-1.512 1.645-2.061 1.554-.956 2.525-1.22S27.346 14 28.542 14c1.379 0 2.678.116 3.898.347s2.226.565 3.017 1.005L34 19.143c-.497-.308-1.243-.589-2.237-.84s-2.068-.38-3.22-.38c-1.085 0-1.916.209-2.491.628s-.865.978-.865 1.681c0 .659.266 1.207.797 1.648s1.198.846 2 1.218l2.609 1.154a14.29 14.29 0 0 1 2.612 1.433c.802.562 1.469 1.254 2 2.078S36 29.615 36 30.848s-.208 2.29-.628 3.181a6.07 6.07 0 0 1-1.763 2.226c-.755.593-1.672 1.031-2.746 1.319S28.61 38 27.322 38c-1.695 0-3.186-.152-4.475-.462s-2.237-.614-2.847-.923l1.493-3.857c.247.132.568.275.964.43a12.52 12.52 0 0 0 1.34.427 15.33 15.33 0 0 0 1.577.33 10.76 10.76 0 0 0 1.711.132c1.379 0 2.434-.224 3.169-.677s1.103-1.135 1.103-2.06m20.946 6.33c-1.137.221-2.306.33-3.502.33a13.14 13.14 0 0 1-4.125-.642 8.9 8.9 0 0 1-3.433-2.077c-.989-.956-1.778-2.198-2.365-3.727S38 28.176 38 26c0-2.264.327-4.159.984-5.688s1.507-2.757 2.552-3.691a9.5 9.5 0 0 1 3.504-2.011 12.76 12.76 0 0 1 3.865-.611c1.379 0 1.448 4.022.414 4.022-1.911 0-3.446.648-4.606 1.947S42.969 23.275 42.969 26c0 1.187.138 2.27.414 3.248s.695 1.813 1.26 2.504 1.264 1.232 2.103 1.617 1.813.576 2.917.576c1.034 0 1.91-.099 2.623-.297s1.155 3.802.016 4.022" fill="#5284b8"/><mask id="B" fill="#fff"><use xlink:href="#A"/></mask><path d="M86.267 14.23l-.032-.103C84.818 4.309 78.592.134 72.323.134a15.05 15.05 0 0 0-.601.013C65.257.42 58.901 5.091 57.896 12.552c-1.44-.718-2.859-1.051-4.188-1.051-.686 0-1.334.116-1.962.284.149.244.286.5.399.783.412 1.032.499 2.094.499 2.803a7.85 7.85 0 0 1-.089 1.204c.35-.162.732-.252 1.154-.252.636 0 1.328.185 2.055.548a4.77 4.77 0 0 0 2.132.503c.773 0 1.545-.188 2.245-.563 1.366-.728 2.298-2.072 2.507-3.612.697-5.177 5.195-8.062 9.276-8.234.133-.006.265-.01.398-.01h.002c4.922 0 8.262 3.597 9.169 9.864a4.64 4.64 0 0 0 .163.726c.013.048.037.122.048.158a4.81 4.81 0 0 0 2.926 3.057c2.681.982 4.486 3.599 4.489 6.505 0 3.838-3.033 6.961-6.763 6.961-.037 0-.074 0-.112.002l-.922.01c-.404 0-.82-.005-1.242-.008l-1.409-.01-.641.003H54.941c.252.577.455 1.267.543 2.165.104 1.037.043 1.909-.123 2.657h22.668l.641-.003 2.651.018 1.036-.011c6.389 0 11.555-5.296 11.555-11.783-.005-4.946-3.062-9.358-7.645-11.036h0zm-67.945 3.364h-6.846v19.507H6.878V17.594H.001v-4.119h18.321v4.119z" fill="#185888" mask="url(#B)"/></g><path d="M118.136 22.447h-2.929v10.356h-1.277V22.447H111v-1.132h7.136v1.132zm10.119 5.055h-4.394v5.301h-1.277V21.314h1.277v5.055h4.394v-5.055h1.277v11.489h-1.277v-5.301zm12.043-6.188h1.226v7.698c0 1.39-.281 2.394-.843 3.012s-1.36.927-2.393.927c-1.203 0-2.08-.301-2.631-.903s-.826-1.526-.826-2.774v-7.96h1.277v7.32c0 .591.04 1.089.119 1.494s.21.733.392.985a1.54 1.54 0 0 0 .681.542c.272.11.607.164 1.005.164.749 0 1.269-.252 1.558-.755s.434-1.313.434-2.429v-7.32zm-4.257-1.543c0-.23.071-.416.213-.558s.338-.213.588-.213c.238 0 .429.071.571.213s.213.328.213.558-.071.413-.213.55-.332.205-.571.205c-.25 0-.446-.068-.588-.205s-.213-.32-.213-.55zm2.691 0c0-.23.071-.416.213-.558s.332-.213.571-.213c.25 0 .446.071.588.213s.213.328.213.558-.071.413-.213.55-.338.205-.588.205c-.238 0-.429-.068-.571-.205s-.213-.32-.213-.55zm8.092 1.658a8.69 8.69 0 0 1 1.235-.189l1.235-.057a4.96 4.96 0 0 1 1.26.156 2.64 2.64 0 0 1 1.039.525 2.6 2.6 0 0 1 .707.968c.176.399.264.9.264 1.502 0 .908-.196 1.636-.588 2.183s-.911.914-1.558 1.1l.647.607 2.35 4.579h-1.482l-2.554-5.006-1.277-.246v5.252h-1.277V21.429zm1.277 5.301h1.022c.647 0 1.158-.191 1.533-.574s.562-.968.562-1.756c0-.602-.156-1.1-.468-1.494s-.775-.591-1.388-.591l-.707.025c-.244.016-.429.041-.553.074v4.317zm10.272-5.416h1.277v11.489h-1.277V21.314zm8.654 4.202l-.732-1.805h-.051l.187 1.805v7.287h-1.226V21.134h.766l4.411 7.451.698 1.723h.068l-.187-1.723v-7.271h1.226v11.669h-.783l-4.377-7.468zm13.746 1.559h3.287v5.055c-.318.284-.727.501-1.226.648a5.32 5.32 0 0 1-1.516.222c-.636 0-1.212-.115-1.729-.345s-.957-.588-1.32-1.075-.644-1.102-.843-1.846-.298-1.636-.298-2.675c0-1.072.119-1.983.358-2.733s.559-1.362.962-1.838a3.69 3.69 0 0 1 1.379-1.042 4.04 4.04 0 0 1 1.592-.328c.545 0 1.002.036 1.371.107a4.15 4.15 0 0 1 .945.287l-.307 1.116c-.227-.12-.497-.213-.809-.279s-.673-.098-1.081-.098a2.74 2.74 0 0 0-1.141.246c-.363.164-.69.435-.979.812s-.519.873-.69 1.485-.255 1.368-.255 2.265c0 1.641.27 2.853.809 3.635s1.28 1.174 2.222 1.174c.59 0 1.079-.137 1.465-.41V28.11l-2.197-.312v-.722zm8.211-5.761h5.296v1.132h-4.019v3.89h3.696v1.132h-3.696v4.202h4.104v1.132h-5.381V21.314zm10.425.115a8.69 8.69 0 0 1 1.235-.189l1.235-.057a4.96 4.96 0 0 1 1.26.156 2.64 2.64 0 0 1 1.039.525 2.6 2.6 0 0 1 .707.968c.176.399.264.9.264 1.502 0 .908-.196 1.636-.588 2.183s-.911.914-1.558 1.1l.647.607 2.35 4.579h-1.482l-2.554-5.006-1.277-.246v5.252h-1.277V21.429zm1.277 5.301h1.022c.647 0 1.158-.191 1.533-.574s.562-.968.562-1.756c0-.602-.156-1.1-.468-1.494s-.775-.591-1.388-.591l-.707.025c-.244.016-.429.041-.553.074v4.317zm-85.084 20.072a1.32 1.32 0 0 0-.323-.898c-.215-.247-.484-.481-.807-.701l-1.053-.676a6.19 6.19 0 0 1-1.053-.808c-.323-.308-.592-.67-.807-1.088s-.323-.929-.323-1.533c0-.56.088-1.036.263-1.426s.416-.709.722-.956a2.95 2.95 0 0 1 1.087-.544 5.05 5.05 0 0 1 1.342-.173c.577 0 1.115.055 1.613.165s.911.258 1.24.445l-.662 1.83c-.192-.132-.478-.253-.858-.363a4.41 4.41 0 0 0-1.231-.165c-.441 0-.781.088-1.019.264s-.357.434-.357.775c0 .308.108.58.323.816a4.55 4.55 0 0 0 .807.684l1.053.684a6.26 6.26 0 0 1 1.053.824 4.14 4.14 0 0 1 .807 1.104c.215.423.323.926.323 1.508s-.088 1.088-.263 1.516-.425.783-.747 1.063a3.23 3.23 0 0 1-1.163.635c-.453.143-.957.214-1.511.214-.702 0-1.316-.066-1.843-.198s-.931-.28-1.214-.445l.696-1.863c.226.132.538.264.934.396a4.01 4.01 0 0 0 1.274.198c1.132 0 1.698-.429 1.698-1.286zm11.942 2.505c-.294.242-.688.418-1.18.527a6.73 6.73 0 0 1-1.469.165c-.611 0-1.18-.102-1.707-.305s-.988-.541-1.384-1.014-.708-1.093-.934-1.863-.34-1.714-.34-2.835c0-1.165.127-2.132.382-2.901s.589-1.382 1.002-1.838.886-.777 1.418-.964a4.84 4.84 0 0 1 1.613-.28c.555 0 1.039.044 1.452.132s.75.187 1.01.297l-.425 1.83c-.215-.11-.467-.195-.756-.255s-.631-.091-1.027-.091c-.781 0-1.381.33-1.8.989s-.628 1.692-.628 3.099c0 .604.048 1.157.144 1.657s.249.931.459 1.294.475.643.798.841.71.297 1.163.297c.396 0 .736-.052 1.019-.157s.538-.228.764-.371l.425 1.747zm8.308-4.418h-3.244v4.879h-2.14V38.231h2.14v4.747h3.244v-4.747h2.14v11.538h-2.14V44.89zm10.821-6.659h2.021v7.484c0 1.495-.314 2.577-.943 3.247s-1.497 1.005-2.607 1.005c-1.302 0-2.256-.327-2.861-.981s-.909-1.651-.909-2.992v-7.764h2.14v7.401c0 .901.125 1.53.374 1.887s.662.536 1.24.536c.555 0 .951-.19 1.189-.569s.357-.997.357-1.854v-7.401zm11.721 11.538h-6.317V38.231h2.14v9.626h4.178v1.912zm8.172-.462c-.294.242-.688.418-1.18.527a6.73 6.73 0 0 1-1.469.165c-.611 0-1.18-.102-1.707-.305s-.988-.541-1.384-1.014-.708-1.093-.934-1.863-.34-1.714-.34-2.835c0-1.165.127-2.132.382-2.901s.589-1.382 1.002-1.838.886-.777 1.418-.964a4.84 4.84 0 0 1 1.613-.28c.555 0 1.039.044 1.452.132s.75.187 1.01.297l-.425 1.83c-.215-.11-.467-.195-.756-.255s-.631-.091-1.027-.091c-.781 0-1.381.33-1.8.989s-.628 1.692-.628 3.099c0 .604.048 1.157.144 1.657s.249.931.459 1.294.475.643.798.841.71.297 1.163.297c.396 0 .736-.052 1.019-.157s.538-.228.764-.371l.425 1.747zm9.242.462h-6.317V38.231h2.14v9.626h4.178v1.912zm1.16-5.768c0-1.956.345-3.445 1.036-4.467S179.747 38 181.163 38c.736 0 1.37.14 1.902.42s.968.681 1.308 1.203.592 1.154.756 1.896.246 1.569.246 2.481c0 1.956-.354 3.445-1.061 4.467S182.555 50 181.163 50c-.747 0-1.384-.14-1.91-.42a3.49 3.49 0 0 1-1.299-1.203c-.34-.522-.589-1.154-.747-1.896s-.238-1.569-.238-2.481zm2.242 0a12.09 12.09 0 0 0 .102 1.624c.068.5.181.931.34 1.294s.359.648.603.857.546.313.909.313c.657 0 1.149-.324 1.477-.973s.492-1.687.492-3.115a11.82 11.82 0 0 0-.102-1.591c-.068-.5-.178-.934-.331-1.302s-.354-.659-.603-.874-.56-.321-.934-.321c-1.302 0-1.953 1.363-1.953 4.088zm14.574-5.769h2.021v7.484c0 1.495-.314 2.577-.943 3.247s-1.497 1.005-2.607 1.005c-1.302 0-2.256-.327-2.861-.981s-.909-1.651-.909-2.992V38.23h2.14v7.401c0 .901.125 1.53.374 1.887s.662.536 1.24.536c.555 0 .951-.19 1.189-.569s.357-.997.357-1.854V38.23zm5.404 0c.204-.033.433-.058.688-.074l.781-.049.773-.033.662-.008c.94 0 1.724.14 2.352.42a3.73 3.73 0 0 1 1.511 1.187c.379.511.648 1.124.807 1.838s.238 1.511.238 2.39a11.21 11.21 0 0 1-.229 2.299c-.153.731-.422 1.374-.807 1.929s-.906.997-1.562 1.327-1.483.495-2.479.495a14.03 14.03 0 0 1-.594-.016l-.781-.041-.781-.049-.577-.058V38.231zm3.125 1.747l-.552.008a2.53 2.53 0 0 0-.433.041v7.945c.034.011.093.019.178.025l.272.016.272.016.178.008c.509 0 .928-.115 1.257-.346a2.37 2.37 0 0 0 .773-.923c.187-.385.317-.827.391-1.327a10.81 10.81 0 0 0 .11-1.574 11.27 11.27 0 0 0-.093-1.467c-.062-.472-.181-.887-.357-1.245s-.425-.643-.747-.857-.739-.321-1.248-.321z" fill="#185888" fill-rule="nonzero"/></g></svg>