<svg xmlns="http://www.w3.org/2000/svg" width="59" height="60" fill-rule="evenodd" xmlns:v="https://vecta.io/nano"><path fill="#185888" d="M7 28v1.916h3.379V39h2.258v-9.084H16V28z"/><path d="M22.435 36.137a1.06 1.06 0 0 0-.367-.837c-.245-.215-.553-.41-.923-.587l-1.205-.547a6.11 6.11 0 0 1-1.204-.692 3.5 3.5 0 0 1-.922-1.022c-.245-.408-.368-.928-.368-1.561 0-.547.089-1.021.266-1.423s.43-.738.759-1.006.717-.467 1.165-.595a5.46 5.46 0 0 1 1.501-.193 9.16 9.16 0 0 1 1.798.169c.563.113 1.027.276 1.392.49l-.672 1.85c-.229-.15-.573-.287-1.032-.41s-.954-.185-1.486-.185c-.5 0-.884.102-1.149.306s-.399.477-.399.821c0 .322.123.59.368.804a4.24 4.24 0 0 0 .923.595l1.203.563a6.47 6.47 0 0 1 1.205.7 3.52 3.52 0 0 1 .923 1.014c.245.402.367.903.367 1.505s-.096 1.118-.29 1.552a2.94 2.94 0 0 1-.813 1.086c-.349.29-.771.504-1.267.644a6 6 0 0 1-1.634.208c-.782 0-1.47-.074-2.064-.225s-1.032-.3-1.314-.45l.689-1.882a4.12 4.12 0 0 0 .445.209 5.63 5.63 0 0 0 .618.209c.229.064.471.119.728.161s.518.064.789.064c.636 0 1.123-.11 1.462-.33s.509-.555.509-1.005m9.703 3.089a7.77 7.77 0 0 1-1.587.161c-.657 0-1.28-.105-1.869-.313a3.99 3.99 0 0 1-1.556-1.014c-.448-.467-.806-1.073-1.072-1.819s-.398-1.649-.398-2.711c0-1.105.148-2.029.446-2.776s.683-1.345 1.156-1.802 1.004-.783 1.588-.981a5.41 5.41 0 0 1 1.751-.298c.625 0 .656 1.963.188 1.963-.866 0-1.562.316-2.087.949s-.79 1.614-.79 2.944a6.25 6.25 0 0 0 .188 1.585 3.44 3.44 0 0 0 .571 1.222 2.64 2.64 0 0 0 .953.789c.381.188.821.281 1.322.281.468 0 .865-.048 1.189-.145s.524 1.856.007 1.963" fill="#5284b8"/><path d="M48.265 28.259l-.015-.049c-.661-4.679-3.562-6.669-6.483-6.669l-.28.006c-3.013.13-5.975 2.357-6.443 5.912-.671-.342-1.332-.501-1.952-.501-.319 0-.622.056-.914.136.069.116.133.239.186.373.192.493.232.999.232 1.336 0 .206-.015.397-.042.574.163-.077.341-.12.538-.12.296 0 .619.088.958.261a2.18 2.18 0 0 0 .993.24c.36 0 .72-.09 1.046-.268.637-.346 1.071-.988 1.168-1.721.325-2.468 2.421-3.842 4.323-3.925l.185-.004h.001c2.294 0 3.85 1.714 4.273 4.701.016.118.042.234.076.347l.022.074a2.27 2.27 0 0 0 1.364 1.457c1.25.468 2.09 1.715 2.092 3.101 0 1.83-1.413 3.319-3.151 3.319h-.052l-.43.005c-.188 0-.382-.002-.579-.003l-.657-.005-.299.002H33.667c.118.274.212.604.253 1.031.048.494.02.911-.057 1.267h10.563l.299-.002 1.235.008.483-.005c2.977 0 5.385-2.524 5.385-5.617-.002-2.357-1.427-4.46-3.563-5.26" fill="#185888"/></svg>
