<svg xmlns="http://www.w3.org/2000/svg" xmlns:xlink="http://www.w3.org/1999/xlink" width="239" height="60" xmlns:v="https://vecta.io/nano"><defs><path id="A" d="M.001.124h86.918v34.048H.001z"/></defs><g fill="none" fill-rule="evenodd"><g transform="translate(13 16)"><path d="M28.646 28.896c0-.643-.248-1.168-.746-1.571s-1.123-.77-1.875-1.102l-2.449-1.027c-.879-.353-1.695-.786-2.447-1.299a6.77 6.77 0 0 1-1.873-1.92c-.498-.766-.748-1.743-.748-2.931 0-1.027.18-1.918.54-2.674a5.05 5.05 0 0 1 1.542-1.889c.666-.502 1.457-.876 2.367-1.118S24.887 13 26.008 13a20.09 20.09 0 0 1 3.655.318c1.144.212 2.087.518 2.828.921l-1.367 3.475c-.466-.282-1.165-.54-2.097-.77s-1.939-.348-3.019-.348c-1.017 0-1.796.191-2.335.576a1.79 1.79 0 0 0-.811 1.541c0 .604.25 1.107.748 1.511s1.123.776 1.875 1.117l2.446 1.058a13.49 13.49 0 0 1 2.449 1.314 6.88 6.88 0 0 1 1.875 1.905c.498.755.745 1.696.745 2.826s-.195 2.1-.589 2.915a5.62 5.62 0 0 1-1.653 2.041c-.71.546-1.568.945-2.574 1.209s-2.113.391-3.32.391c-1.589 0-2.987-.14-4.195-.423s-2.097-.563-2.669-.846l1.4-3.536a8.93 8.93 0 0 0 .903.394 12.46 12.46 0 0 0 1.256.391 14.66 14.66 0 0 0 1.479.302 10.26 10.26 0 0 0 1.604.121c1.292 0 2.282-.206 2.971-.62s1.034-1.04 1.034-1.888m19.703 5.803c-1.061.203-2.152.302-3.268.302-1.353 0-2.637-.197-3.85-.589a8.3 8.3 0 0 1-3.204-1.904c-.923-.877-1.66-2.015-2.207-3.416S35 25.995 35 24c0-2.075.305-3.812.919-5.214s1.406-2.527 2.382-3.383 2.068-1.472 3.27-1.843a12.12 12.12 0 0 1 3.607-.56c1.287 0 1.351 3.687.387 3.687-1.784 0-3.216.594-4.299 1.784S39.638 21.502 39.638 24c0 1.088.129 2.081.387 2.977s.649 1.662 1.176 2.295a5.39 5.39 0 0 0 1.963 1.482c.784.352 1.692.528 2.722.528.965 0 1.782-.091 2.448-.272s1.078 3.485.015 3.687" fill="#5284b8"/><mask id="B" fill="#fff"><use xlink:href="#A"/></mask><path d="M79.843 13.106l-.03-.095C78.501 3.969 72.739.123 66.937.123c-.185 0-.37.004-.556.012-5.984.252-11.866 4.554-12.796 11.426-1.333-.662-2.646-.968-3.876-.968-.634 0-1.235.107-1.816.262.138.225.265.46.37.721.382.95.461 1.929.461 2.582 0 .398-.03.767-.083 1.109.324-.15.677-.232 1.068-.232.589 0 1.229.17 1.902.505a4.43 4.43 0 0 0 1.973.463 4.42 4.42 0 0 0 2.078-.518c1.265-.671 2.127-1.908 2.321-3.326.645-4.768 4.808-7.426 8.586-7.584a7.64 7.64 0 0 1 .368-.009h.001c4.555 0 7.646 3.313 8.487 9.085.033.228.083.452.151.669.012.044.034.113.044.145a4.44 4.44 0 0 0 2.708 2.816c2.482.905 4.152 3.315 4.155 5.991 0 3.535-2.807 6.412-6.259 6.412-.034 0-.068 0-.104.001l-.853.009c-.374 0-.759-.004-1.149-.007l-1.304-.009-.593.003H50.85c.234.531.422 1.167.503 1.994.096.955.04 1.759-.114 2.447h20.98l.593-.003 2.454.016.958-.01c5.913 0 10.695-4.878 10.695-10.853-.004-4.555-2.834-8.619-7.076-10.164h0zm-62.886 3.098h-6.336v17.967H6.366V16.205H.001V12.41h16.957v3.794z" fill="#185888" mask="url(#B)"/></g><path d="M114.136 22.447h-2.929v10.356h-1.277V22.447H107v-1.132h7.136v1.132zm10.119 5.055h-4.394v5.301h-1.277V21.314h1.277v5.055h4.394v-5.055h1.277v11.489h-1.277v-5.301zm12.043-6.188h1.226v7.698c0 1.39-.281 2.394-.843 3.012s-1.36.927-2.393.927c-1.203 0-2.08-.301-2.631-.903s-.826-1.526-.826-2.774v-7.96h1.277v7.32c0 .591.04 1.089.119 1.494s.21.733.392.985a1.54 1.54 0 0 0 .681.542c.272.11.607.164 1.005.164.749 0 1.269-.252 1.558-.755s.434-1.313.434-2.429v-7.32zm-4.257-1.543c0-.23.071-.416.213-.558s.338-.213.588-.213c.238 0 .429.071.571.213s.213.328.213.558-.071.413-.213.55-.332.205-.571.205c-.25 0-.446-.068-.588-.205s-.213-.32-.213-.55zm2.691 0c0-.23.071-.416.213-.558s.332-.213.571-.213c.25 0 .446.071.588.213s.213.328.213.558-.071.413-.213.55-.338.205-.588.205c-.238 0-.429-.068-.571-.205s-.213-.32-.213-.55zm8.092 1.658a8.69 8.69 0 0 1 1.235-.189l1.235-.057a4.96 4.96 0 0 1 1.26.156 2.64 2.64 0 0 1 1.039.525 2.6 2.6 0 0 1 .707.968c.176.399.264.9.264 1.502 0 .908-.196 1.636-.588 2.183s-.911.914-1.558 1.1l.647.607 2.35 4.579h-1.482l-2.554-5.006-1.277-.246v5.252h-1.277V21.429zm1.277 5.301h1.022c.647 0 1.158-.191 1.533-.574s.562-.968.562-1.756c0-.602-.156-1.1-.468-1.494s-.775-.591-1.388-.591l-.707.025c-.244.016-.429.041-.553.074v4.317zm10.272-5.416h1.277v11.489h-1.277V21.314zm8.654 4.202l-.732-1.805h-.051l.187 1.805v7.287h-1.226V21.134h.766l4.411 7.451.698 1.723h.068l-.187-1.723v-7.271h1.226v11.669h-.783l-4.377-7.468zm13.746 1.559h3.287v5.055c-.318.284-.727.501-1.226.648a5.32 5.32 0 0 1-1.516.222c-.636 0-1.212-.115-1.729-.345s-.957-.588-1.32-1.075-.644-1.102-.843-1.846-.298-1.636-.298-2.675c0-1.072.119-1.983.358-2.733s.559-1.362.962-1.838a3.69 3.69 0 0 1 1.379-1.042 4.04 4.04 0 0 1 1.592-.328c.545 0 1.002.036 1.371.107a4.15 4.15 0 0 1 .945.287l-.307 1.116c-.227-.12-.497-.213-.809-.279s-.673-.098-1.081-.098a2.74 2.74 0 0 0-1.141.246c-.363.164-.69.435-.979.812s-.519.873-.69 1.485-.255 1.368-.255 2.265c0 1.641.27 2.853.809 3.635s1.28 1.174 2.222 1.174c.59 0 1.079-.137 1.465-.41V28.11l-2.197-.312v-.722zm8.211-5.761h5.296v1.132h-4.019v3.89h3.696v1.132h-3.696v4.202h4.104v1.132h-5.381V21.314zm10.425.115a8.69 8.69 0 0 1 1.235-.189l1.235-.057a4.96 4.96 0 0 1 1.26.156 2.64 2.64 0 0 1 1.039.525 2.6 2.6 0 0 1 .707.968c.176.399.264.9.264 1.502 0 .908-.196 1.636-.588 2.183s-.911.914-1.558 1.1l.647.607 2.35 4.579h-1.482l-2.554-5.006-1.277-.246v5.252h-1.277V21.429zm1.277 5.301h1.022c.647 0 1.158-.191 1.533-.574s.562-.968.562-1.756c0-.602-.156-1.1-.468-1.494s-.775-.591-1.388-.591l-.707.025c-.244.016-.429.041-.553.074v4.317zm-85.084 20.072a1.32 1.32 0 0 0-.323-.898c-.215-.247-.484-.481-.807-.701l-1.053-.676a6.19 6.19 0 0 1-1.053-.808c-.323-.308-.592-.67-.807-1.088s-.323-.929-.323-1.533c0-.56.088-1.036.263-1.426s.416-.709.722-.956a2.95 2.95 0 0 1 1.087-.544 5.05 5.05 0 0 1 1.342-.173c.577 0 1.115.055 1.613.165s.911.258 1.24.445l-.662 1.83c-.192-.132-.478-.253-.858-.363a4.41 4.41 0 0 0-1.231-.165c-.441 0-.781.088-1.019.264s-.357.434-.357.775c0 .308.108.58.323.816a4.55 4.55 0 0 0 .807.684l1.053.684a6.26 6.26 0 0 1 1.053.824 4.14 4.14 0 0 1 .807 1.104c.215.423.323.926.323 1.508s-.088 1.088-.263 1.516-.425.783-.747 1.063a3.23 3.23 0 0 1-1.163.635c-.453.143-.957.214-1.511.214-.702 0-1.316-.066-1.843-.198s-.931-.28-1.214-.445l.696-1.863c.226.132.538.264.934.396a4.01 4.01 0 0 0 1.274.198c1.132 0 1.698-.429 1.698-1.286zm11.942 2.505c-.294.242-.688.418-1.18.527a6.73 6.73 0 0 1-1.469.165c-.611 0-1.18-.102-1.707-.305s-.988-.541-1.384-1.014-.708-1.093-.934-1.863-.34-1.714-.34-2.835c0-1.165.127-2.132.382-2.901s.589-1.382 1.002-1.838.886-.777 1.418-.964a4.84 4.84 0 0 1 1.613-.28c.555 0 1.039.044 1.452.132s.75.187 1.01.297l-.425 1.83c-.215-.11-.467-.195-.756-.255s-.631-.091-1.027-.091c-.781 0-1.381.33-1.8.989s-.628 1.692-.628 3.099c0 .604.048 1.157.144 1.657s.249.931.459 1.294.475.643.798.841.71.297 1.163.297c.396 0 .736-.052 1.019-.157s.538-.228.764-.371l.425 1.747zm8.308-4.418h-3.244v4.879h-2.14V38.231h2.14v4.747h3.244v-4.747h2.14v11.538h-2.14V44.89zm10.821-6.659h2.021v7.484c0 1.495-.314 2.577-.943 3.247s-1.497 1.005-2.607 1.005c-1.302 0-2.256-.327-2.861-.981s-.909-1.651-.909-2.992v-7.764h2.14v7.401c0 .901.125 1.53.374 1.887s.662.536 1.24.536c.555 0 .951-.19 1.189-.569s.357-.997.357-1.854v-7.401zm11.721 11.538h-6.317V38.231h2.14v9.626h4.178v1.912zm8.172-.462c-.294.242-.688.418-1.18.527a6.73 6.73 0 0 1-1.469.165c-.611 0-1.18-.102-1.707-.305s-.988-.541-1.384-1.014-.708-1.093-.934-1.863-.34-1.714-.34-2.835c0-1.165.127-2.132.382-2.901s.589-1.382 1.002-1.838.886-.777 1.418-.964a4.84 4.84 0 0 1 1.613-.28c.555 0 1.039.044 1.452.132s.75.187 1.01.297l-.425 1.83c-.215-.11-.467-.195-.756-.255s-.631-.091-1.027-.091c-.781 0-1.381.33-1.8.989s-.628 1.692-.628 3.099c0 .604.048 1.157.144 1.657s.249.931.459 1.294.475.643.798.841.71.297 1.163.297c.396 0 .736-.052 1.019-.157s.538-.228.764-.371l.425 1.747zm9.242.462h-6.317V38.231h2.14v9.626h4.178v1.912zm1.16-5.768c0-1.956.345-3.445 1.036-4.467S175.747 38 177.163 38c.736 0 1.37.14 1.902.42s.968.681 1.308 1.203.592 1.154.756 1.896.246 1.569.246 2.481c0 1.956-.354 3.445-1.061 4.467S178.555 50 177.163 50c-.747 0-1.384-.14-1.91-.42a3.49 3.49 0 0 1-1.299-1.203c-.34-.522-.589-1.154-.747-1.896s-.238-1.569-.238-2.481zm2.242 0a12.09 12.09 0 0 0 .102 1.624c.068.5.181.931.34 1.294s.359.648.603.857.546.313.909.313c.657 0 1.149-.324 1.477-.973s.492-1.687.492-3.115a11.82 11.82 0 0 0-.102-1.591c-.068-.5-.178-.934-.331-1.302s-.354-.659-.603-.874-.56-.321-.934-.321c-1.302 0-1.953 1.363-1.953 4.088zm14.574-5.769h2.021v7.484c0 1.495-.314 2.577-.943 3.247s-1.497 1.005-2.607 1.005c-1.302 0-2.256-.327-2.861-.981s-.909-1.651-.909-2.992V38.23h2.14v7.401c0 .901.125 1.53.374 1.887s.662.536 1.24.536c.555 0 .951-.19 1.189-.569s.357-.997.357-1.854V38.23zm5.404 0c.204-.033.433-.058.688-.074l.781-.049.773-.033.662-.008c.94 0 1.724.14 2.352.42a3.73 3.73 0 0 1 1.511 1.187c.379.511.648 1.124.807 1.838s.238 1.511.238 2.39a11.21 11.21 0 0 1-.229 2.299c-.153.731-.422 1.374-.807 1.929s-.906.997-1.562 1.327-1.483.495-2.479.495a14.03 14.03 0 0 1-.594-.016l-.781-.041-.781-.049-.577-.058V38.231zm3.125 1.747l-.552.008a2.53 2.53 0 0 0-.433.041v7.945c.034.011.093.019.178.025l.272.016.272.016.178.008c.509 0 .928-.115 1.257-.346a2.37 2.37 0 0 0 .773-.923c.187-.385.317-.827.391-1.327a10.81 10.81 0 0 0 .11-1.574 11.27 11.27 0 0 0-.093-1.467c-.062-.472-.181-.887-.357-1.245s-.425-.643-.747-.857-.739-.321-1.248-.321z" fill="#185888" fill-rule="nonzero"/></g></svg>