<?xml version="1.0" encoding="UTF-8"?>
<svg width="239px" height="60px" viewBox="0 0 239 60" version="1.1" xmlns="http://www.w3.org/2000/svg" xmlns:xlink="http://www.w3.org/1999/xlink">
    <!-- Generator: Sketch 55.2 (78181) - https://sketchapp.com -->
    <title>Artboard Copy 2</title>
    <desc>Created with Sketch.</desc>
    <defs>
        <polygon id="path-1" points="0.000544 0.96016 79.925024 0.96016 79.925024 32.239344 0.000544 32.239344"></polygon>
    </defs>
    <g id="Artboard-Copy-2" stroke="none" stroke-width="1" fill="none" fill-rule="evenodd">
        <g id="Logo" transform="translate(22.000000, 11.000000)">
            <g id="Bildmarke" transform="translate(0.000000, 2.000000)">
                <path d="M26.246368,27.270176 C26.246368,26.662256 26.023328,26.165856 25.575888,25.785056 C25.128448,25.404256 24.566768,25.057456 23.890848,24.743296 C23.214928,24.429136 22.480528,24.105456 21.690368,23.772256 C20.900208,23.439056 20.167168,23.029696 19.491248,22.544176 C18.816688,22.058656 18.255008,21.454816 17.807568,20.729936 C17.360128,20.006416 17.135728,19.082976 17.135728,17.959616 C17.135728,16.988576 17.297568,16.146736 17.621248,15.432736 C17.944928,14.718736 18.405968,14.123056 19.007088,13.647056 C19.605488,13.172416 20.316768,12.818816 21.134128,12.590336 C21.952848,12.361856 22.868128,12.247616 23.875888,12.247616 C25.037328,12.247616 26.132128,12.348256 27.160288,12.548176 C28.188448,12.748096 29.035728,13.037776 29.702128,13.418576 L28.474048,16.702976 C28.055168,16.436416 27.426848,16.192976 26.589088,15.975376 C25.751328,15.756416 24.846928,15.646256 23.875888,15.646256 C22.961968,15.646256 22.261568,15.827136 21.777408,16.190256 C21.290528,16.550656 21.048448,17.037536 21.048448,17.646816 C21.048448,18.218016 21.272848,18.692656 21.720288,19.074816 C22.167728,19.454256 22.729408,19.807856 23.405328,20.130176 C24.079888,20.453856 24.812928,20.787056 25.603088,21.129776 C26.393248,21.472496 27.126288,21.887296 27.803568,22.371456 C28.479488,22.858336 29.041168,23.458096 29.488608,24.172096 C29.936048,24.886096 30.159088,25.775536 30.159088,26.843136 C30.159088,27.909376 29.983648,28.827376 29.630048,29.598496 C29.277808,30.369616 28.782768,31.011536 28.144928,31.526976 C27.508448,32.041056 26.735968,32.420496 25.831568,32.669376 C24.927168,32.915536 23.933008,33.039296 22.847728,33.039296 C21.419728,33.039296 20.163088,32.907376 19.077808,32.639456 C17.993888,32.372896 17.192848,32.107696 16.678768,31.839776 L17.936768,28.498256 C18.144848,28.612496 18.415488,28.736256 18.748688,28.870896 C19.081888,29.002816 19.458608,29.126576 19.877488,29.240816 C20.296368,29.355056 20.738368,29.451616 21.206208,29.526416 C21.672688,29.603936 22.152768,29.640656 22.647808,29.640656 C23.809248,29.640656 24.698688,29.446176 25.317488,29.054496 C25.936288,28.665536 26.246368,28.071216 26.246368,27.270176" id="Fill-1" fill="#5284B8"></path>
                <path d="M43.967576,32.753968 C43.026456,32.945728 42.059496,33.039568 41.069416,33.039568 C39.869896,33.039568 38.731576,32.853248 37.655816,32.483328 C36.580056,32.110688 35.633496,31.512288 34.814776,30.684048 C33.996056,29.855808 33.343256,28.780048 32.857736,27.455408 C32.373576,26.133488 32.130136,24.528688 32.130136,22.643728 C32.130136,20.682608 32.400776,19.041088 32.944776,17.716448 C33.486056,16.394528 34.191896,15.328288 35.056856,14.519088 C35.923176,13.709888 36.890136,13.127808 37.956376,12.776928 C39.022616,12.424688 40.087496,12.247888 41.155096,12.247888 C42.296136,12.247888 42.353256,15.732208 41.497816,15.732208 C39.916136,15.732208 38.645896,16.293888 37.685736,17.418608 C36.724216,18.540608 36.242776,20.282768 36.242776,22.643728 C36.242776,23.671888 36.357016,24.610288 36.585496,25.457568 C36.813976,26.304848 37.160776,27.028368 37.628616,27.626768 C38.095096,28.227888 38.674456,28.694368 39.369416,29.027568 C40.065736,29.360768 40.869496,29.526688 41.783416,29.526688 C42.638856,29.526688 43.363736,29.441008 43.953976,29.269648 C44.5441109,29.098288 44.910056,32.563568 43.967576,32.753968" id="Fill-3" fill="#5284B8"></path>
                <g id="Group-7" transform="translate(0.000000, 0.399840)">
                    <mask id="mask-2" fill="white">
                        <use xlink:href="#path-1"></use>
                    </mask>
                    <g id="Clip-6"></g>
                    <path d="M73.418784,12.886544 C73.409264,12.857984 73.401104,12.826704 73.391584,12.799504 C72.185264,4.492624 66.886704,0.959344 61.551424,0.959344 C61.381424,0.959344 61.211424,0.963424 61.040064,0.970224 C55.537504,1.201424 50.128784,5.153584 49.273344,11.466704 C48.047984,10.858784 46.840304,10.577264 45.708784,10.577264 C45.125344,10.577264 44.573184,10.675184 44.038704,10.817984 C44.165184,11.024704 44.282144,11.240944 44.378704,11.480304 C44.729584,12.353424 44.803024,13.252384 44.803024,13.852144 C44.803024,14.217984 44.775824,14.556624 44.726864,14.870784 C45.024704,14.733424 45.349744,14.657264 45.708784,14.657264 C46.250064,14.657264 46.838944,14.813664 47.457744,15.121024 C48.030304,15.405264 48.651824,15.546704 49.271984,15.546704 C49.930224,15.546704 50.587104,15.387584 51.182784,15.070704 C52.345584,14.454624 53.138464,13.317664 53.316624,12.014784 C53.909584,7.634224 57.737984,5.193024 61.211424,5.047504 C61.324304,5.042064 61.437184,5.039344 61.550064,5.039344 L61.551424,5.039344 C65.740224,5.039344 68.582624,8.083024 69.355104,13.385664 C69.385024,13.595104 69.431264,13.800464 69.493824,14.000384 C69.504704,14.041184 69.525104,14.103744 69.534624,14.133664 C69.920864,15.334544 70.838864,16.289264 72.024784,16.720384 C74.306864,17.551344 75.842304,19.765424 75.845024,22.224304 C75.845024,25.471984 73.263744,28.114464 70.089504,28.114464 C70.058224,28.114464 70.026944,28.114464 69.994304,28.115824 C69.741344,28.121264 69.478864,28.123984 69.209584,28.123984 C68.865504,28.123984 68.511904,28.119904 68.152864,28.117184 C67.758464,28.113104 67.357264,28.109024 66.953344,28.109024 L66.407984,28.111744 L46.758704,28.111744 C46.973584,28.599984 47.146304,29.183424 47.221104,29.943664 C47.309504,30.820864 47.257824,31.559344 47.116384,32.191744 L66.407984,32.191744 C66.590224,32.190384 66.772464,32.189024 66.953344,32.189024 C67.724464,32.189024 68.486064,32.203984 69.209584,32.203984 C69.510144,32.203984 69.805264,32.201264 70.090864,32.194464 C75.528144,32.194464 79.925024,27.713264 79.925024,22.224304 C79.920944,18.039584 77.319264,14.306384 73.418784,12.886544 L73.418784,12.886544 Z M15.592944,15.733024 L9.766704,15.733024 L9.766704,32.239344 L5.853984,32.239344 L5.853984,15.733024 L0.000544,15.733024 L0.000544,12.247344 L15.592944,12.247344 L15.592944,15.733024 Z" id="Fill-5" fill="#185888" mask="url(#mask-2)"></path>
                </g>
            </g>
            <path d="M95.794,4.642 L92.698,4.642 L92.698,16 L91.348,16 L91.348,4.642 L88.252,4.642 L88.252,3.4 L95.794,3.4 L95.794,4.642 Z M106.489143,10.186 L101.845143,10.186 L101.845143,16 L100.495143,16 L100.495143,3.4 L101.845143,3.4 L101.845143,8.944 L106.489143,8.944 L106.489143,3.4 L107.839143,3.4 L107.839143,16 L106.489143,16 L106.489143,10.186 Z M119.218286,3.4 L120.514286,3.4 L120.514286,11.842 C120.514286,13.3660076 120.217289,14.4669966 119.623286,15.145 C119.029283,15.8230034 118.186291,16.162 117.094286,16.162 C115.82228,16.162 114.895289,15.8320033 114.313286,15.172 C113.731283,14.5119967 113.440286,13.4980068 113.440286,12.13 L113.440286,3.4 L114.790286,3.4 L114.790286,11.428 C114.790286,12.0760032 114.832286,12.6219978 114.916286,13.066 C115.000286,13.5100022 115.138285,13.8699986 115.330286,14.146 C115.522287,14.4220014 115.762285,14.6199994 116.050286,14.74 C116.338287,14.8600006 116.692284,14.92 117.112286,14.92 C117.90429,14.92 118.453284,14.6440028 118.759286,14.092 C119.065288,13.5399972 119.218286,12.6520061 119.218286,11.428 L119.218286,3.4 Z M114.718286,1.708 C114.718286,1.45599874 114.793285,1.25200078 114.943286,1.096 C115.093287,0.93999922 115.300285,0.862 115.564286,0.862 C115.816287,0.862 116.017285,0.93999922 116.167286,1.096 C116.317287,1.25200078 116.392286,1.45599874 116.392286,1.708 C116.392286,1.96000126 116.317287,2.16099925 116.167286,2.311 C116.017285,2.46100075 115.816287,2.536 115.564286,2.536 C115.300285,2.536 115.093287,2.46100075 114.943286,2.311 C114.793285,2.16099925 114.718286,1.96000126 114.718286,1.708 Z M117.562286,1.708 C117.562286,1.45599874 117.637285,1.25200078 117.787286,1.096 C117.937287,0.93999922 118.138285,0.862 118.390286,0.862 C118.654287,0.862 118.861285,0.93999922 119.011286,1.096 C119.161287,1.25200078 119.236286,1.45599874 119.236286,1.708 C119.236286,1.96000126 119.161287,2.16099925 119.011286,2.311 C118.861285,2.46100075 118.654287,2.536 118.390286,2.536 C118.138285,2.536 117.937287,2.46100075 117.787286,2.311 C117.637285,2.16099925 117.562286,1.96000126 117.562286,1.708 Z M126.115429,3.526 C126.511431,3.42999952 126.946427,3.36100021 127.420429,3.319 C127.894431,3.27699979 128.329427,3.256 128.725429,3.256 C129.193431,3.256 129.637427,3.31299943 130.057429,3.427 C130.477431,3.54100057 130.843427,3.73299865 131.155429,4.003 C131.467431,4.27300135 131.716428,4.62699781 131.902429,5.065 C132.08843,5.50300219 132.181429,6.0519967 132.181429,6.712 C132.181429,7.70800498 131.974431,8.505997 131.560429,9.106 C131.146427,9.706003 130.597432,10.107999 129.913429,10.312 L130.597429,10.978 L133.081429,16 L131.515429,16 L128.815429,10.51 L127.465429,10.24 L127.465429,16 L126.115429,16 L126.115429,3.526 Z M127.465429,9.34 L128.545429,9.34 C129.229432,9.34 129.769427,9.1300021 130.165429,8.71 C130.561431,8.2899979 130.759429,7.64800432 130.759429,6.784 C130.759429,6.1239967 130.594431,5.57800216 130.264429,5.146 C129.934427,4.71399784 129.445432,4.498 128.797429,4.498 C128.557428,4.498 128.30843,4.50699991 128.050429,4.525 C127.792428,4.54300009 127.59743,4.56999982 127.465429,4.606 L127.465429,9.34 Z M138.322572,3.4 L139.672572,3.4 L139.672572,16 L138.322572,16 L138.322572,3.4 Z M147.469715,8.008 L146.695715,6.028 L146.641715,6.028 L146.839715,8.008 L146.839715,16 L145.543715,16 L145.543715,3.202 L146.353715,3.202 L151.015715,11.374 L151.753715,13.264 L151.825715,13.264 L151.627715,11.374 L151.627715,3.4 L152.923715,3.4 L152.923715,16.198 L152.095715,16.198 L147.469715,8.008 Z M161.998858,9.718 L165.472858,9.718 L165.472858,15.262 C165.136856,15.5740016 164.704861,15.8109992 164.176858,15.973 C163.648855,16.1350008 163.114861,16.216 162.574858,16.216 C161.902855,16.216 161.293861,16.0900013 160.747858,15.838 C160.201855,15.5859987 159.73686,15.1930027 159.352858,14.659 C158.968856,14.1249973 158.671859,13.4500041 158.461858,12.634 C158.251857,11.8179959 158.146858,10.8400057 158.146858,9.7 C158.146858,8.52399412 158.272857,7.52500411 158.524858,6.703 C158.776859,5.88099589 159.115856,5.20900261 159.541858,4.687 C159.96786,4.16499739 160.453855,3.7840012 160.999858,3.544 C161.545861,3.3039988 162.106855,3.184 162.682858,3.184 C163.258861,3.184 163.741856,3.22299961 164.131858,3.301 C164.52186,3.37900039 164.854857,3.48399934 165.130858,3.616 L164.806858,4.84 C164.566857,4.70799934 164.28186,4.60600036 163.951858,4.534 C163.621856,4.46199964 163.24086,4.426 162.808858,4.426 C162.388856,4.426 161.98686,4.5159991 161.602858,4.696 C161.218856,4.8760009 160.87386,5.17299793 160.567858,5.587 C160.261856,6.00100207 160.018859,6.54399664 159.838858,7.216 C159.658857,7.88800336 159.568858,8.71599508 159.568858,9.7 C159.568858,11.500009 159.853855,12.8289957 160.423858,13.687 C160.993861,14.5450043 161.776853,14.974 162.772858,14.974 C163.396861,14.974 163.912856,14.8240015 164.320858,14.524 L164.320858,10.852 L161.998858,10.51 L161.998858,9.718 Z M170.678001,3.4 L176.276001,3.4 L176.276001,4.642 L172.028001,4.642 L172.028001,8.908 L175.934001,8.908 L175.934001,10.15 L172.028001,10.15 L172.028001,14.758 L176.366001,14.758 L176.366001,16 L170.678001,16 L170.678001,3.4 Z M181.697144,3.526 C182.093146,3.42999952 182.528142,3.36100021 183.002144,3.319 C183.476146,3.27699979 183.911142,3.256 184.307144,3.256 C184.775146,3.256 185.219142,3.31299943 185.639144,3.427 C186.059146,3.54100057 186.425142,3.73299865 186.737144,4.003 C187.049146,4.27300135 187.298143,4.62699781 187.484144,5.065 C187.670145,5.50300219 187.763144,6.0519967 187.763144,6.712 C187.763144,7.70800498 187.556146,8.505997 187.142144,9.106 C186.728142,9.706003 186.179147,10.107999 185.495144,10.312 L186.179144,10.978 L188.663144,16 L187.097144,16 L184.397144,10.51 L183.047144,10.24 L183.047144,16 L181.697144,16 L181.697144,3.526 Z M183.047144,9.34 L184.127144,9.34 C184.811147,9.34 185.351142,9.1300021 185.747144,8.71 C186.143146,8.2899979 186.341144,7.64800432 186.341144,6.784 C186.341144,6.1239967 186.176146,5.57800216 185.846144,5.146 C185.516142,4.71399784 185.027147,4.498 184.379144,4.498 C184.139143,4.498 183.890145,4.50699991 183.632144,4.525 C183.374143,4.54300009 183.179145,4.56999982 183.047144,4.606 L183.047144,9.34 Z" id="THÜRINGER" fill="#185888" fill-rule="nonzero"></path>
            <path d="M93.22,30.76 C93.22,30.3759981 93.1060011,30.0490014 92.878,29.779 C92.6499989,29.5089987 92.3650017,29.2540012 92.023,29.014 C91.6809983,28.7739988 91.309002,28.5280013 90.907,28.276 C90.504998,28.0239987 90.1330017,27.7300017 89.791,27.394 C89.4489983,27.0579983 89.1640011,26.6620023 88.936,26.206 C88.7079989,25.7499977 88.594,25.1920033 88.594,24.532 C88.594,23.9199969 88.6869991,23.4010021 88.873,22.975 C89.0590009,22.5489979 89.3139984,22.2010014 89.638,21.931 C89.9620016,21.6609986 90.3459978,21.4630006 90.79,21.337 C91.2340022,21.2109994 91.7079975,21.148 92.212,21.148 C92.8240031,21.148 93.3939974,21.2079994 93.922,21.328 C94.4500026,21.4480006 94.8879983,21.609999 95.236,21.814 L94.534,23.812 C94.329999,23.6679993 94.027002,23.5360006 93.625,23.416 C93.222998,23.2959994 92.7880023,23.236 92.32,23.236 C91.8519977,23.236 91.4920013,23.331999 91.24,23.524 C90.9879987,23.716001 90.862,23.9979981 90.862,24.37 C90.862,24.7060017 90.9759989,25.0029987 91.204,25.261 C91.4320011,25.5190013 91.7169983,25.7679988 92.059,26.008 C92.4010017,26.2480012 92.772998,26.4969987 93.175,26.755 C93.577002,27.0130013 93.9489983,27.3129983 94.291,27.655 C94.6330017,27.9970017 94.9179989,28.3989977 95.146,28.861 C95.3740011,29.3230023 95.488,29.8719968 95.488,30.508 C95.488,31.1440032 95.3950009,31.6959977 95.209,32.164 C95.0229991,32.6320023 94.7590017,33.0189985 94.417,33.325 C94.0749983,33.6310015 93.6640024,33.8619992 93.184,34.018 C92.7039976,34.1740008 92.1700029,34.252 91.582,34.252 C90.8379963,34.252 90.1870028,34.1800007 89.629,34.036 C89.0709972,33.8919993 88.6420015,33.7300009 88.342,33.55 L89.08,31.516 C89.3200012,31.6600007 89.6499979,31.8039993 90.07,31.948 C90.4900021,32.0920007 90.9399976,32.164 91.42,32.164 C92.620006,32.164 93.22,31.6960047 93.22,30.76 Z M105.878,33.496 C105.565998,33.7600013 105.149003,33.9519994 104.627,34.072 C104.104997,34.1920006 103.586003,34.252 103.07,34.252 C102.421997,34.252 101.819003,34.1410011 101.261,33.919 C100.702997,33.6969989 100.214002,33.3280026 99.794,32.812 C99.3739979,32.2959974 99.0440012,31.6180042 98.804,30.778 C98.5639988,29.9379958 98.444,28.9060061 98.444,27.682 C98.444,26.4099936 98.5789986,25.3540042 98.849,24.514 C99.1190013,23.6739958 99.4729978,23.0050025 99.911,22.507 C100.349002,22.0089975 100.849997,21.658001 101.414,21.454 C101.978003,21.249999 102.547997,21.148 103.124,21.148 C103.712003,21.148 104.224998,21.1959995 104.663,21.292 C105.101002,21.3880005 105.457999,21.4959994 105.734,21.616 L105.284,23.614 C105.055999,23.4939994 104.789002,23.4010003 104.483,23.335 C104.176998,23.2689997 103.814002,23.236 103.394,23.236 C102.565996,23.236 101.930002,23.5959964 101.486,24.316 C101.041998,25.0360036 100.82,26.1639923 100.82,27.7 C100.82,28.3600033 100.870999,28.9629973 100.973,29.509 C101.075001,30.0550027 101.236999,30.525998 101.459,30.922 C101.681001,31.318002 101.962998,31.6239989 102.305,31.84 C102.647002,32.0560011 103.057998,32.164 103.538,32.164 C103.958002,32.164 104.317998,32.1070006 104.618,31.993 C104.918001,31.8789994 105.187999,31.7440008 105.428,31.588 L105.878,33.496 Z M114.684,28.672 L111.246,28.672 L111.246,34 L108.978,34 L108.978,21.4 L111.246,21.4 L111.246,26.584 L114.684,26.584 L114.684,21.4 L116.952,21.4 L116.952,34 L114.684,34 L114.684,28.672 Z M126.154,21.4 L128.296,21.4 L128.296,29.572 C128.296,31.2040082 127.963003,32.3859963 127.297,33.118 C126.630997,33.8500037 125.710006,34.216 124.534,34.216 C123.153993,34.216 122.143003,33.8590036 121.501,33.145 C120.858997,32.4309964 120.538,31.3420073 120.538,29.878 L120.538,21.4 L122.806,21.4 L122.806,29.482 C122.806,30.4660049 122.937999,31.1529981 123.202,31.543 C123.466001,31.9330019 123.903997,32.128 124.516,32.128 C125.104003,32.128 125.523999,31.9210021 125.776,31.507 C126.028001,31.0929979 126.154,30.4180047 126.154,29.482 L126.154,21.4 Z M138.578,34 L131.882,34 L131.882,21.4 L134.15,21.4 L134.15,31.912 L138.578,31.912 L138.578,34 Z M147.24,33.496 C146.927998,33.7600013 146.511003,33.9519994 145.989,34.072 C145.466997,34.1920006 144.948003,34.252 144.432,34.252 C143.783997,34.252 143.181003,34.1410011 142.623,33.919 C142.064997,33.6969989 141.576002,33.3280026 141.156,32.812 C140.735998,32.2959974 140.406001,31.6180042 140.166,30.778 C139.925999,29.9379958 139.806,28.9060061 139.806,27.682 C139.806,26.4099936 139.940999,25.3540042 140.211,24.514 C140.481001,23.6739958 140.834998,23.0050025 141.273,22.507 C141.711002,22.0089975 142.211997,21.658001 142.776,21.454 C143.340003,21.249999 143.909997,21.148 144.486,21.148 C145.074003,21.148 145.586998,21.1959995 146.025,21.292 C146.463002,21.3880005 146.819999,21.4959994 147.096,21.616 L146.646,23.614 C146.417999,23.4939994 146.151002,23.4010003 145.845,23.335 C145.538998,23.2689997 145.176002,23.236 144.756,23.236 C143.927996,23.236 143.292002,23.5959964 142.848,24.316 C142.403998,25.0360036 142.182,26.1639923 142.182,27.7 C142.182,28.3600033 142.232999,28.9629973 142.335,29.509 C142.437001,30.0550027 142.598999,30.525998 142.821,30.922 C143.043001,31.318002 143.324998,31.6239989 143.667,31.84 C144.009002,32.0560011 144.419998,32.164 144.9,32.164 C145.320002,32.164 145.679999,32.1070006 145.98,31.993 C146.280002,31.8789994 146.549999,31.7440008 146.79,31.588 L147.24,33.496 Z M157.036,34 L150.34,34 L150.34,21.4 L152.608,21.4 L152.608,31.912 L157.036,31.912 L157.036,34 Z M158.264,27.7 C158.264,25.5639893 158.629996,23.9380056 159.362,22.822 C160.094004,21.7059944 161.209992,21.148 162.71,21.148 C163.490004,21.148 164.161997,21.3009985 164.726,21.607 C165.290003,21.9130015 165.751998,22.3509972 166.112,22.921 C166.472002,23.4910029 166.738999,24.180996 166.913,24.991 C167.087001,25.8010041 167.174,26.703995 167.174,27.7 C167.174,29.8360107 166.799004,31.4619944 166.049,32.578 C165.298996,33.6940056 164.186007,34.252 162.71,34.252 C161.917996,34.252 161.243003,34.0990015 160.685,33.793 C160.126997,33.4869985 159.668002,33.0490029 159.308,32.479 C158.947998,31.9089972 158.684001,31.219004 158.516,30.409 C158.347999,29.598996 158.264,28.696005 158.264,27.7 Z M160.64,27.7 C160.64,28.3360032 160.676,28.9269973 160.748,29.473 C160.82,30.0190027 160.939999,30.489998 161.108,30.886 C161.276001,31.282002 161.488999,31.5939989 161.747,31.822 C162.005001,32.0500011 162.325998,32.164 162.71,32.164 C163.406003,32.164 163.927998,31.8100035 164.276,31.102 C164.624002,30.3939965 164.798,29.2600078 164.798,27.7 C164.798,27.0879969 164.762,26.5090027 164.69,25.963 C164.618,25.4169973 164.501001,24.943002 164.339,24.541 C164.176999,24.138998 163.964001,23.8210012 163.7,23.587 C163.435999,23.3529988 163.106002,23.236 162.71,23.236 C161.329993,23.236 160.64,24.7239851 160.64,27.7 Z M176.088,21.4 L178.23,21.4 L178.23,29.572 C178.23,31.2040082 177.897003,32.3859963 177.231,33.118 C176.564997,33.8500037 175.644006,34.216 174.468,34.216 C173.087993,34.216 172.077003,33.8590036 171.435,33.145 C170.792997,32.4309964 170.472,31.3420073 170.472,29.878 L170.472,21.4 L172.74,21.4 L172.74,29.482 C172.74,30.4660049 172.871999,31.1529981 173.136,31.543 C173.400001,31.9330019 173.837997,32.128 174.45,32.128 C175.038003,32.128 175.457999,31.9210021 175.71,31.507 C175.962001,31.0929979 176.088,30.4180047 176.088,29.482 L176.088,21.4 Z M181.816,21.4 C182.032001,21.3639998 182.274999,21.3370001 182.545,21.319 C182.815001,21.3009999 183.090999,21.2830001 183.373,21.265 C183.655001,21.2469999 183.927999,21.235 184.192,21.229 C184.456001,21.223 184.689999,21.22 184.894,21.22 C185.890005,21.22 186.720997,21.3729985 187.387,21.679 C188.053003,21.9850015 188.586998,22.4169972 188.989,22.975 C189.391002,23.5330028 189.675999,24.2019961 189.844,24.982 C190.012001,25.7620039 190.096,26.6319952 190.096,27.592 C190.096,28.4680044 190.015001,29.304996 189.853,30.103 C189.690999,30.901004 189.406002,31.602997 188.998,32.209 C188.589998,32.815003 188.038003,33.2979982 187.342,33.658 C186.645997,34.0180018 185.770005,34.198 184.714,34.198 C184.557999,34.198 184.348001,34.1920001 184.084,34.18 C183.819999,34.1679999 183.544001,34.1530001 183.256,34.135 C182.967999,34.1169999 182.692001,34.0990001 182.428,34.081 C182.163999,34.0629999 181.960001,34.0420001 181.816,34.018 L181.816,21.4 Z M185.128,23.308 C184.935999,23.308 184.741001,23.311 184.543,23.317 C184.344999,23.323 184.192001,23.3379999 184.084,23.362 L184.084,32.038 C184.12,32.0500001 184.183,32.059 184.273,32.065 C184.363,32.071 184.458999,32.077 184.561,32.083 C184.663001,32.089 184.759,32.095 184.849,32.101 C184.939,32.107 185.002,32.11 185.038,32.11 C185.578003,32.11 186.021998,31.9840013 186.37,31.732 C186.718002,31.4799987 186.990999,31.1440021 187.189,30.724 C187.387001,30.3039979 187.525,29.8210027 187.603,29.275 C187.681,28.7289973 187.72,28.156003 187.72,27.556 C187.72,27.0039972 187.687,26.4700026 187.621,25.954 C187.555,25.4379974 187.429001,24.985002 187.243,24.595 C187.056999,24.2049981 186.793002,23.8930012 186.451,23.659 C186.108998,23.4249988 185.668003,23.308 185.128,23.308 Z" id="SCHULCLOUD" fill="#185888" fill-rule="nonzero"></path>
        </g>
    </g>
</svg>