<?xml version="1.0" encoding="UTF-8"?>
<svg width="239px" height="60px" viewBox="0 0 239 60" version="1.1" xmlns="http://www.w3.org/2000/svg" xmlns:xlink="http://www.w3.org/1999/xlink">
    <title>TH</title>
    <defs>
        <polygon id="path-1" points="0.0006392 0.134734545 93.9119032 0.134734545 93.9119032 37.1010429 0.0006392 37.1010429"></polygon>
    </defs>
    <g id="TH" stroke="none" stroke-width="1" fill="none" fill-rule="evenodd">
        <g id="Bildmarke" transform="translate(8.000000, 13.000000)">
            <path d="M31.3559322,31.3406593 C31.3559322,30.6389325 31.0912026,30.0659341 30.5601291,29.6263736 C30.0290557,29.1868132 29.362389,28.7864992 28.5601291,28.4238619 C27.7578692,28.0612245 26.8861985,27.6875981 25.9483454,27.3029827 C25.0104923,26.9183673 24.1404358,26.4458399 23.3381759,25.8854003 C22.5375303,25.3249608 21.8708636,24.6279435 21.3397902,23.7912088 C20.8087167,22.956044 20.5423729,21.8901099 20.5423729,20.5934066 C20.5423729,19.4725275 20.7344633,18.5007849 21.1186441,17.6766091 C21.5028249,16.8524333 22.0500404,16.1648352 22.763519,15.6153846 C23.4737692,15.0675039 24.3179984,14.6593407 25.2881356,14.3956044 C26.259887,14.1318681 27.346247,14 28.5423729,14 C29.920904,14 31.220339,14.1161695 32.440678,14.3469388 C33.6610169,14.577708 34.6666667,14.9120879 35.4576271,15.3516484 L34,19.1428571 C33.5028249,18.8351648 32.7570621,18.5541601 31.7627119,18.3029827 C30.7683616,18.0502355 29.6949153,17.9230769 28.5423729,17.9230769 C27.4576271,17.9230769 26.6263115,18.1318681 26.0516546,18.5510204 C25.4737692,18.967033 25.1864407,19.5290424 25.1864407,20.2323391 C25.1864407,20.8916797 25.4527845,21.4395604 25.9838579,21.8806907 C26.5149314,22.3186813 27.1815981,22.7268446 27.9838579,23.0989011 C28.7845036,23.4725275 29.6545601,23.8571429 30.5924132,24.2527473 C31.5302663,24.6483516 32.4003228,25.1271586 33.2041969,25.6860283 C34.0064568,26.2480377 34.6731235,26.9403454 35.2041969,27.7645212 C35.7352704,28.588697 36,29.6153846 36,30.8477237 C36,32.0784929 35.7917676,33.1381476 35.3720743,34.0282575 C34.9539952,34.9183673 34.3664245,35.6593407 33.6093624,36.2543171 C32.8539144,36.8477237 31.937046,37.2857143 30.8635997,37.5729984 C29.7901533,37.8571429 28.6101695,38 27.3220339,38 C25.6271186,38 24.1355932,37.8477237 22.8474576,37.5384615 C21.5609362,37.2307692 20.6101695,36.9246468 20,36.6153846 L21.4931396,32.7582418 C21.740113,32.8901099 22.0613398,33.032967 22.45682,33.188383 C22.8523002,33.3406593 23.299435,33.4835165 23.7966102,33.6153846 C24.2937853,33.7472527 24.8184019,33.8587127 25.3736885,33.9450549 C25.9273608,34.0345369 26.4971751,34.0769231 27.0847458,34.0769231 C28.4632768,34.0769231 29.5189669,33.8524333 30.2534302,33.400314 C30.9878935,32.9513344 31.3559322,32.2653061 31.3559322,31.3406593" id="Fill-1" fill="#5284B8"></path>
            <path d="M52.3033639,37.6703297 C51.1661939,37.8916797 49.997801,38 48.8014718,38 C47.352073,38 45.9766232,37.7849294 44.6767656,37.3579278 C43.3769079,36.9277865 42.2331647,36.2370487 41.2438925,35.2810047 C40.2546203,34.3249608 39.4658319,33.0832025 38.8791705,31.5541601 C38.2941524,30.0282575 38,28.1758242 38,26 C38,23.7362637 38.3270185,21.8414443 38.9843423,20.3124019 C39.6383793,18.7864992 40.4912569,17.55573 41.5364015,16.6216641 C42.5831895,15.6875981 43.7515824,15.0156986 45.0399369,14.610675 C46.3282914,14.2040816 47.6150025,14 48.9050003,14 C50.2837368,14 50.3527558,18.021978 49.3191142,18.021978 C47.4079456,18.021978 45.8730947,18.6703297 44.7129184,19.9686028 C43.5510987,21.2637363 42.9693672,23.2747253 42.9693672,26 C42.9693672,27.1868132 43.1074052,28.2700157 43.3834812,29.2480377 C43.6595571,30.2260597 44.078601,31.0612245 44.6438994,31.7519623 C45.2075544,32.4458399 45.9076042,32.9843014 46.7473352,33.3689168 C47.5887096,33.7535322 48.5599054,33.9450549 49.6642092,33.9450549 C50.6978507,33.9450549 51.5737346,33.8461538 52.2869308,33.6483516 C53,33.4505495 53.4421772,37.4505495 52.3033639,37.6703297" id="Fill-3" fill="#5284B8"></path>
            <g id="Group-7">
                <mask id="mask-2" fill="white">
                    <use xlink:href="#path-1"></use>
                </mask>
                <g id="Clip-6"></g>
                <path d="M86.2670712,14.229552 C86.2558852,14.1957993 86.2462972,14.158832 86.2351112,14.1266865 C84.8176852,4.30946473 78.5918772,0.133770182 72.3229232,0.133770182 C72.1231732,0.133770182 71.9234232,0.138592 71.7220752,0.146628364 C65.2565672,0.419864727 58.9013212,5.09059927 57.8961792,12.5515593 C56.4563812,11.8331084 55.0373572,11.5004029 53.7078212,11.5004029 C53.0222792,11.5004029 52.3734912,11.6161265 51.7454772,11.7848902 C51.8940912,12.0291956 52.0315192,12.284752 52.1449772,12.567632 C52.5572612,13.5995011 52.6435532,14.6619084 52.6435532,15.3707156 C52.6435532,15.803072 52.6115932,16.2032829 52.5540652,16.5745629 C52.9040272,16.4122284 53.2859492,16.3222211 53.7078212,16.3222211 C54.3438252,16.3222211 55.0357592,16.5070575 55.7628492,16.8703011 C56.4356072,17.2062211 57.1658932,17.3733775 57.8945812,17.3733775 C58.6680132,17.3733775 59.4398472,17.1853265 60.1397712,16.810832 C61.5060612,16.0827375 62.4376952,14.7390575 62.6470332,13.1992902 C63.3437612,8.02226473 67.8421312,5.13721018 71.9234232,4.965232 C72.0560572,4.95880291 72.1886912,4.95558836 72.3213252,4.95558836 L72.3229232,4.95558836 C77.2447632,4.95558836 80.5845832,8.55266473 81.4922472,14.8194211 C81.5274032,15.0669411 81.5817352,15.3096393 81.6552432,15.5459084 C81.6680272,15.5941265 81.6919972,15.6680611 81.7031832,15.7034211 C82.1570152,17.1226429 83.2356652,18.2509484 84.6291212,18.7604538 C87.3105652,19.7424975 89.1147072,22.3591375 89.1179032,25.2650865 C89.1179032,29.1032538 86.0848992,32.2261847 82.3551672,32.2261847 C82.3184132,32.2261847 82.2816592,32.2261847 82.2433072,32.227792 C81.9460792,32.2342211 81.6376652,32.2374356 81.3212612,32.2374356 C80.9169672,32.2374356 80.5014872,32.2326138 80.0796152,32.2293993 C79.6161952,32.2245775 79.1447852,32.2197556 78.6701792,32.2197556 L78.0293812,32.2229702 L54.9414772,32.2229702 C55.1939612,32.7999811 55.3969072,33.4895011 55.4847972,34.3879665 C55.5886672,35.4246575 55.5279432,36.2974065 55.3617512,37.0447884 L78.0293812,37.0447884 C78.2435132,37.0431811 78.4576452,37.0415738 78.6701792,37.0415738 C79.5762452,37.0415738 80.4711252,37.0592538 81.3212612,37.0592538 C81.6744192,37.0592538 82.0211852,37.0560393 82.3567652,37.0480029 C88.7455692,37.0480029 93.9119032,31.7520393 93.9119032,25.2650865 C93.9071092,20.3195084 90.8501352,15.9075447 86.2670712,14.229552 L86.2670712,14.229552 Z M18.3217092,17.5935738 L11.4758772,17.5935738 L11.4758772,37.1010429 L6.8784312,37.1010429 L6.8784312,17.5935738 L0.0006392,17.5935738 L0.0006392,13.4741338 L18.3217092,13.4741338 L18.3217092,17.5935738 Z" id="Fill-5" fill="#185888" mask="url(#mask-2)"></path>
            </g>
        </g>
        <g id="Group" transform="translate(110.252000, 18.862000)" fill="#185888" fill-rule="nonzero">
            <path d="M7.88356256,3.58465885 L4.95440562,3.58465885 L4.95440562,13.9410481 L3.67715695,13.9410481 L3.67715695,3.58465885 L0.748,3.58465885 L0.748,2.45218523 L7.88356256,2.45218523 L7.88356256,3.58465885 Z M18.0023456,8.6397585 L13.6086102,8.6397585 L13.6086102,13.9410481 L12.3313616,13.9410481 L12.3313616,2.45218523 L13.6086102,2.45218523 L13.6086102,7.50728488 L18.0023456,7.50728488 L18.0023456,2.45218523 L19.2795943,2.45218523 L19.2795943,13.9410481 L18.0023456,13.9410481 L18.0023456,8.6397585 Z M30.0455167,2.45218523 L31.2716754,2.45218523 L31.2716754,10.1497233 C31.2716754,11.5393356 30.9906835,12.5432333 30.4286913,13.1614467 C29.8666991,13.77966 29.0691362,14.088762 28.0359788,14.088762 C26.8325207,14.088762 25.9554854,13.7878662 25.4048466,13.1860657 C24.8542077,12.5842651 24.5788924,11.6596944 24.5788924,10.4123259 L24.5788924,2.45218523 L25.8561411,2.45218523 L25.8561411,9.77223212 C25.8561411,10.3630909 25.8958773,10.8609366 25.975351,11.2657843 C26.0548246,11.670632 26.1853865,11.9988819 26.3670406,12.250544 C26.5486946,12.502206 26.7757588,12.6827435 27.0482398,12.7921618 C27.3207209,12.9015801 27.6556406,12.9562884 28.0530088,12.9562884 C28.8023318,12.9562884 29.321741,12.7046301 29.6112522,12.201306 C29.9007633,11.6979819 30.0455167,10.8882987 30.0455167,9.77223212 L30.0455167,2.45218523 Z M25.7880212,0.909395076 C25.7880212,0.679616671 25.8589787,0.49360837 26.0008959,0.351364596 C26.1428132,0.209120821 26.338656,0.138 26.5884303,0.138 C26.8268513,0.138 27.0170175,0.209120821 27.1589347,0.351364596 C27.300852,0.49360837 27.3718095,0.679616671 27.3718095,0.909395076 C27.3718095,1.13917348 27.300852,1.32244637 27.1589347,1.45921923 C27.0170175,1.59599209 26.8268513,1.66437749 26.5884303,1.66437749 C26.338656,1.66437749 26.1428132,1.59599209 26.0008959,1.45921923 C25.8589787,1.32244637 25.7880212,1.13917348 25.7880212,0.909395076 Z M28.4787584,0.909395076 C28.4787584,0.679616671 28.5497159,0.49360837 28.6916331,0.351364596 C28.8335504,0.209120821 29.0237166,0.138 29.2621375,0.138 C29.5119119,0.138 29.7077547,0.209120821 29.8496719,0.351364596 C29.9915892,0.49360837 30.0625467,0.679616671 30.0625467,0.909395076 C30.0625467,1.13917348 29.9915892,1.32244637 29.8496719,1.45921923 C29.7077547,1.59599209 29.5119119,1.66437749 29.2621375,1.66437749 C29.0237166,1.66437749 28.8335504,1.59599209 28.6916331,1.45921923 C28.5497159,1.32244637 28.4787584,1.13917348 28.4787584,0.909395076 Z M36.5709735,2.56707386 C36.945635,2.47953923 37.3571888,2.41662465 37.8056473,2.37832825 C38.2541057,2.34003185 38.6656595,2.32088394 39.040321,2.32088394 C39.4831027,2.32088394 39.9031714,2.37285685 40.3005397,2.47680422 C40.6979079,2.58075159 41.0441807,2.75581823 41.3393686,3.00200938 C41.6345564,3.24820053 41.8701355,3.57097964 42.0461128,3.97035639 C42.2220902,4.36973314 42.3100776,4.8703143 42.3100776,5.47211489 C42.3100776,6.38028668 42.1142347,7.10790739 41.7225432,7.65499883 C41.3308516,8.20209027 40.8114424,8.56863604 40.1642998,8.75464713 L40.8114391,9.36191559 L43.1615767,13.9410481 L41.6799682,13.9410481 L39.1254709,8.9351864 L37.8482222,8.68899648 L37.8482222,13.9410481 L36.5709735,13.9410481 L36.5709735,2.56707386 Z M37.8482222,7.86836342 L38.8700211,7.86836342 C39.5171637,7.86836342 40.0280581,7.67688429 40.4027195,7.29392028 C40.777381,6.91095627 40.964709,6.32557721 40.964709,5.53776553 C40.964709,4.93596495 40.8086024,4.4381192 40.4963845,4.04421336 C40.1841665,3.65030753 39.7215233,3.45335756 39.1084409,3.45335756 C38.8813733,3.45335756 38.6457943,3.46156381 38.4016966,3.47797655 C38.157599,3.4943893 37.9731094,3.51900804 37.8482222,3.55183353 L37.8482222,7.86836342 Z M48.1202751,2.45218523 L49.3975238,2.45218523 L49.3975238,13.9410481 L48.1202751,13.9410481 L48.1202751,2.45218523 Z M56.7744797,6.65382649 L56.0421905,4.84843376 L55.9911006,4.84843376 L56.1784304,6.65382649 L56.1784304,13.9410481 L54.9522716,13.9410481 L54.9522716,2.27164596 L55.7186208,2.27164596 L60.1293862,9.72299414 L60.8276155,11.4463236 L60.8957354,11.4463236 L60.7084056,9.72299414 L60.7084056,2.45218523 L61.9345644,2.45218523 L61.9345644,14.1215873 L61.1511852,14.1215873 L56.7744797,6.65382649 Z M70.520649,8.21302931 L73.8074356,8.21302931 L73.8074356,13.268129 C73.489541,13.5526165 73.0808255,13.7687144 72.5812769,13.9164291 C72.0817282,14.0641438 71.5765105,14.138 71.0656085,14.138 C70.4298193,14.138 69.853644,14.0231125 69.3370653,13.7933341 C68.8204866,13.5635557 68.3805498,13.2052162 68.0172416,12.7183048 C67.6539335,12.2313934 67.3729416,11.6159248 67.1742575,10.8718804 C66.9755734,10.1278361 66.8762328,9.23609039 66.8762328,8.19661665 C66.8762328,7.12431742 66.9954415,6.21342383 67.2338625,5.46390856 C67.4722834,4.71439328 67.7930115,4.10166006 68.1960565,3.6256905 C68.5991014,3.14972095 69.0589063,2.80232309 69.575485,2.58348652 C70.0920637,2.36464994 70.6228262,2.25523329 71.1677884,2.25523329 C71.7127505,2.25523329 72.1697171,2.2907937 72.5387019,2.36191559 C72.9076867,2.43303748 73.2227383,2.52877705 73.483866,2.64913716 L73.1773263,3.76519812 C72.9502587,3.64483801 72.68062,3.55183386 72.3684021,3.48618288 C72.0561842,3.42053191 71.6957199,3.38770692 71.2869982,3.38770692 C70.88963,3.38770692 70.5092975,3.4697694 70.1459894,3.63389683 C69.7826813,3.79802427 69.4562766,4.06883047 69.1667655,4.44632356 C68.8772543,4.82381666 68.6473518,5.31892699 68.4770512,5.9316694 C68.3067505,6.54441182 68.2216014,7.29938668 68.2216014,8.19661665 C68.2216014,9.83789097 68.4912401,11.0496803 69.0305256,11.8320211 C69.5698111,12.6143619 70.3106079,13.0055264 71.2529383,13.0055264 C71.8433139,13.0055264 72.3315019,12.8687556 72.7175168,12.5952098 L72.7175168,9.24702696 L70.520649,8.9351864 L70.520649,8.21302931 Z M78.7320741,2.45218523 L84.0283986,2.45218523 L84.0283986,3.58465885 L80.0093228,3.58465885 L80.0093228,7.47445955 L83.7048289,7.47445955 L83.7048289,8.60693318 L80.0093228,8.60693318 L80.0093228,12.8085744 L84.1135485,12.8085744 L84.1135485,13.9410481 L78.7320741,13.9410481 L78.7320741,2.45218523 Z M89.1573969,2.56707386 C89.5320584,2.47953923 89.9436121,2.41662465 90.3920706,2.37832825 C90.840529,2.34003185 91.2520828,2.32088394 91.6267443,2.32088394 C92.069526,2.32088394 92.4895947,2.37285685 92.886963,2.47680422 C93.2843312,2.58075159 93.6306041,2.75581823 93.9257919,3.00200938 C94.2209797,3.24820053 94.4565588,3.57097964 94.6325362,3.97035639 C94.8085135,4.36973314 94.8965009,4.8703143 94.8965009,5.47211489 C94.8965009,6.38028668 94.7006581,7.10790739 94.3089665,7.65499883 C93.9172749,8.20209027 93.3978657,8.56863604 92.7507231,8.75464713 L93.3978624,9.36191559 L95.748,13.9410481 L94.2663915,13.9410481 L91.7118942,8.9351864 L90.4346455,8.68899648 L90.4346455,13.9410481 L89.1573969,13.9410481 L89.1573969,2.56707386 Z M90.4346455,7.86836342 L91.4564445,7.86836342 C92.103587,7.86836342 92.6144814,7.67688429 92.9891429,7.29392028 C93.3638044,6.91095627 93.5511323,6.32557721 93.5511323,5.53776553 C93.5511323,4.93596495 93.3950257,4.4381192 93.0828078,4.04421336 C92.7705899,3.65030753 92.3079467,3.45335756 91.6948642,3.45335756 C91.4677967,3.45335756 91.2322176,3.46156381 90.98812,3.47797655 C90.7440223,3.4943893 90.5595327,3.51900804 90.4346455,3.55183353 L90.4346455,7.86836342 Z" id="THÜRINGER"></path>
            <path d="M5.35015815,27.9401978 C5.35015815,27.5885477 5.24260571,27.2891001 5.02749761,27.0418462 C4.81238951,26.7945922 4.54350842,26.561078 4.22084628,26.3412967 C3.89818413,26.1215154 3.54722355,25.8962429 3.16795401,25.6654725 C2.78868446,25.4347021 2.43772388,25.1654741 2.11506174,24.8577802 C1.79239959,24.5500864 1.5235185,24.1874526 1.3084104,23.7698681 C1.0933023,23.3522836 0.985749867,22.8412997 0.985749867,22.2369011 C0.985749867,21.6764587 1.07349001,21.2011888 1.24897293,20.8110769 C1.42445586,20.4209651 1.66503367,20.102287 1.9707136,19.855033 C2.27639353,19.607779 2.63867542,19.4264621 3.05757014,19.3110769 C3.47646486,19.1956917 3.92365656,19.138 4.39915868,19.138 C4.9765541,19.138 5.51431628,19.1929445 6.01246135,19.3028352 C6.51060642,19.4127258 6.9238342,19.561076 7.25215708,19.7478901 L6.58985388,21.5775604 C6.39738874,21.4456916 6.11152569,21.3248137 5.73225615,21.2149231 C5.35298661,21.1050324 4.94258915,21.0500879 4.50105148,21.0500879 C4.0595138,21.0500879 3.71987453,21.138 3.48212347,21.3138242 C3.24437242,21.4896492 3.12549867,21.7478884 3.12549867,22.0885495 C3.12549867,22.3962433 3.23305111,22.6682186 3.44815921,22.9044835 C3.66326731,23.1407484 3.9321484,23.3687681 4.25481054,23.5885495 C4.57747269,23.8083308 4.92843327,24.0363505 5.30770281,24.2726154 C5.68697235,24.5088803 6.03793293,24.7836028 6.36059508,25.0967912 C6.68325723,25.4099796 6.95213832,25.7781078 7.16724642,26.2011868 C7.38235452,26.6242659 7.48990695,27.1270081 7.48990695,27.7094286 C7.48990695,28.2918491 7.40216681,28.7973385 7.22668388,29.2259121 C7.05120096,29.6544857 6.80213216,30.0088777 6.47947002,30.2890989 C6.15680787,30.5693201 5.76905303,30.7808564 5.31619388,30.9237143 C4.86333472,31.0665721 4.35953647,31.138 3.80478401,31.138 C3.10285232,31.138 2.4886713,31.0720666 1.96222254,30.9401978 C1.43577377,30.808329 1.03103697,30.6599788 0.748,30.4951429 L1.44426747,28.6325055 C1.67069705,28.7643743 1.98203304,28.8962411 2.3782848,29.0281099 C2.77453656,29.1599787 3.19908565,29.2259121 3.65194481,29.2259121 C4.78409269,29.2259121 5.35015815,28.7973449 5.35015815,27.9401978 Z M17.2923717,30.4456923 C16.9980133,30.6874518 16.6045978,30.8632742 16.1121135,30.9731648 C15.6196291,31.0830555 15.1299825,31.138 14.6431589,31.138 C14.0317991,31.138 13.4629033,31.0363527 12.9364545,30.8330549 C12.4100057,30.6297572 11.9486624,30.2918485 11.5524106,29.8193187 C11.1561589,29.3467888 10.8448229,28.7259159 10.6183933,27.9566813 C10.3919637,27.1874467 10.2787506,26.2424012 10.2787506,25.1215165 C10.2787506,23.9566755 10.4061154,22.9896522 10.6608486,22.2204176 C10.9155819,21.451183 11.2495605,20.8385517 11.6627945,20.3825055 C12.0760285,19.9264593 12.5486931,19.6050339 13.0808026,19.4182198 C13.6129121,19.2314057 14.1506743,19.138 14.6941053,19.138 C15.2488578,19.138 15.7328437,19.1819556 16.1460777,19.2698681 C16.5593117,19.3577807 16.8961206,19.4566808 17.1565147,19.5665714 L16.7319613,21.3962418 C16.5168532,21.2863511 16.2649541,21.2011871 15.9762564,21.1407473 C15.6875587,21.0803074 15.3450891,21.0500879 14.9488373,21.0500879 C14.1676553,21.0500879 13.5676259,21.3797549 13.1487312,22.0390989 C12.7298365,22.6984429 12.5203922,23.7313996 12.5203922,25.138 C12.5203922,25.7423986 12.5685078,26.2945909 12.6647404,26.7945934 C12.7609729,27.2945959 12.9138106,27.7259103 13.123258,28.0885495 C13.3327053,28.4511886 13.5987561,28.7314056 13.9214182,28.9292088 C14.2440804,29.127012 14.6318352,29.2259121 15.0846944,29.2259121 C15.4809461,29.2259121 15.8205854,29.1737148 16.1036224,29.0693187 C16.3866594,28.9649226 16.6413888,28.8412974 16.8678184,28.6984396 L17.2923717,30.4456923 Z M25.6004088,26.0281099 L22.3568213,26.0281099 L22.3568213,30.9072308 L20.2170725,30.9072308 L20.2170725,19.3687692 L22.3568213,19.3687692 L22.3568213,24.116022 L25.6004088,24.116022 L25.6004088,19.3687692 L27.7401576,19.3687692 L27.7401576,30.9072308 L25.6004088,30.9072308 L25.6004088,26.0281099 Z M36.4218015,19.3687692 L38.4426754,19.3687692 L38.4426754,26.8522857 C38.4426754,28.3467987 38.1285091,29.4292054 37.500167,30.0995385 C36.8718249,30.7698715 36.0029144,31.105033 34.8934095,31.105033 C33.5914394,31.105033 32.6376192,30.7781132 32.03192,30.1242637 C31.4262209,29.4704143 31.1233759,28.4731715 31.1233759,27.1325055 L31.1233759,19.3687692 L33.2631247,19.3687692 L33.2631247,26.7698681 C33.2631247,27.6709715 33.3876591,28.3000861 33.6367316,28.6572308 C33.8858042,29.0143754 34.299032,29.1929451 34.8764274,29.1929451 C35.4311798,29.1929451 35.8274257,29.0033865 36.0651767,28.6242637 C36.3029278,28.245141 36.4218015,27.6270153 36.4218015,26.7698681 L36.4218015,19.3687692 Z M48.1432474,30.9072308 L41.8258937,30.9072308 L41.8258937,19.3687692 L43.9656425,19.3687692 L43.9656425,28.9951429 L48.1432474,28.9951429 L48.1432474,30.9072308 Z M56.3154273,30.4456923 C56.0210689,30.6874518 55.6276534,30.8632742 55.1351691,30.9731648 C54.6426847,31.0830555 54.1530381,31.138 53.6662145,31.138 C53.0548547,31.138 52.4859589,31.0363527 51.9595101,30.8330549 C51.4330613,30.6297572 50.971718,30.2918485 50.5754662,29.8193187 C50.1792145,29.3467888 49.8678785,28.7259159 49.6414489,27.9566813 C49.4150193,27.1874467 49.3018062,26.2424012 49.3018062,25.1215165 C49.3018062,23.9566755 49.429171,22.9896522 49.6839042,22.2204176 C49.9386375,21.451183 50.2726161,20.8385517 50.6858501,20.3825055 C51.0990841,19.9264593 51.5717487,19.6050339 52.1038582,19.4182198 C52.6359678,19.2314057 53.1737299,19.138 53.7171609,19.138 C54.2719134,19.138 54.7558993,19.1819556 55.1691333,19.2698681 C55.5823673,19.3577807 55.9191762,19.4566808 56.1795703,19.5665714 L55.7550169,21.3962418 C55.5399088,21.2863511 55.2880097,21.2011871 54.999312,21.1407473 C54.7106143,21.0803074 54.3681447,21.0500879 53.9718929,21.0500879 C53.1907109,21.0500879 52.5906815,21.3797549 52.1717868,22.0390989 C51.7528921,22.6984429 51.5434478,23.7313996 51.5434478,25.138 C51.5434478,25.7423986 51.5915634,26.2945909 51.687796,26.7945934 C51.7840285,27.2945959 51.9368662,27.7259103 52.1463136,28.0885495 C52.3557609,28.4511886 52.6218117,28.7314056 52.9444738,28.9292088 C53.267136,29.127012 53.6548908,29.2259121 54.10775,29.2259121 C54.5040017,29.2259121 54.843641,29.1737148 55.126678,29.0693187 C55.409715,28.9649226 55.6644444,28.8412974 55.890874,28.6984396 L56.3154273,30.4456923 Z M65.5574817,30.9072308 L59.2401281,30.9072308 L59.2401281,19.3687692 L61.3798769,19.3687692 L61.3798769,28.9951429 L65.5574817,28.9951429 L65.5574817,30.9072308 Z M66.7160406,25.138 C66.7160406,23.1819463 67.0613405,21.6929502 67.7519507,20.670967 C68.4425609,19.6489839 69.4954427,19.138 70.9106275,19.138 C71.6465236,19.138 72.2805169,19.2781085 72.8126265,19.5583297 C73.344736,19.8385509 73.7806064,20.2396457 74.1202507,20.7616264 C74.4598951,21.283607 74.7117942,21.9154688 74.8759557,22.6572308 C75.0401171,23.3989927 75.1221966,24.2259075 75.1221966,25.138 C75.1221966,27.0940537 74.7684057,28.5830498 74.0608133,29.605033 C73.3532208,30.6270161 72.3031694,31.138 70.9106275,31.138 C70.1634099,31.138 69.5265863,30.9978915 69.0001375,30.7176703 C68.4736887,30.4374491 68.0406487,30.0363543 67.7010043,29.5143736 C67.3613599,28.992393 67.1122911,28.3605312 66.9537904,27.6187692 C66.7952897,26.8770073 66.7160406,26.0500925 66.7160406,25.138 Z M68.9576822,25.138 C68.9576822,25.7204205 68.9916461,26.2616239 69.059575,26.7616264 C69.1275038,27.2616289 69.2407169,27.6929432 69.3992176,28.0555824 C69.5577183,28.4182216 69.7586716,28.703933 70.0020834,28.9127253 C70.2454952,29.1215175 70.5483402,29.2259121 70.9106275,29.2259121 C71.5672733,29.2259121 72.0597502,28.9017395 72.3880731,28.2533846 C72.716396,27.6050297 72.880555,26.5665786 72.880555,25.138 C72.880555,24.5775576 72.8465911,24.0473432 72.7786622,23.5473407 C72.7107333,23.0473382 72.6003505,22.6132766 72.4475106,22.2451429 C72.2946706,21.8770091 72.0937174,21.5858033 71.8446448,21.3715165 C71.5955723,21.1572297 71.2842363,21.0500879 70.9106275,21.0500879 C69.6086574,21.0500879 68.9576822,22.4127116 68.9576822,25.138 Z M83.5321264,19.3687692 L85.5530003,19.3687692 L85.5530003,26.8522857 C85.5530003,28.3467987 85.238834,29.4292054 84.6104919,30.0995385 C83.9821498,30.7698715 83.1132393,31.105033 82.0037344,31.105033 C80.7017643,31.105033 79.7479441,30.7781132 79.1422449,30.1242637 C78.5365458,29.4704143 78.2337008,28.4731715 78.2337008,27.1325055 L78.2337008,19.3687692 L80.3734496,19.3687692 L80.3734496,26.7698681 C80.3734496,27.6709715 80.497984,28.3000861 80.7470565,28.6572308 C80.9961291,29.0143754 81.4093569,29.1929451 81.9867523,29.1929451 C82.5415047,29.1929451 82.9377506,29.0033865 83.1755016,28.6242637 C83.4132527,28.245141 83.5321264,27.6270153 83.5321264,26.7698681 L83.5321264,19.3687692 Z M88.9362186,19.3687692 C89.1400053,19.335802 89.3692618,19.311077 89.623995,19.2945934 C89.8787283,19.2781098 90.1391184,19.2616265 90.4051732,19.2451429 C90.6712279,19.2286593 90.9287877,19.2176704 91.1778603,19.2121758 C91.4269328,19.2066813 91.6476983,19.2039341 91.8401635,19.2039341 C92.7798462,19.2039341 93.5638468,19.3440426 94.1921889,19.6242637 C94.820531,19.9044849 95.3243293,20.3000854 95.7035988,20.8110769 C96.0828683,21.3220685 96.3517494,21.9346997 96.5102501,22.648989 C96.6687508,23.3632783 96.748,24.1599736 96.748,25.0390989 C96.748,25.8413007 96.6715812,26.6077766 96.5187412,27.3385495 C96.3659012,28.0693223 96.0970201,28.712173 95.7120899,29.2671209 C95.3271596,29.8220687 94.8063794,30.264372 94.1497336,30.594044 C93.4930878,30.9237159 92.6666323,31.0885495 91.6703421,31.0885495 C91.5231629,31.0885495 91.32504,31.083055 91.0759675,31.0720659 C90.8268949,31.0610769 90.5665048,31.0473407 90.2947893,31.0308571 C90.0230738,31.0143735 89.7626837,30.9978902 89.5136112,30.9814066 C89.2645386,30.964923 89.0720764,30.9456924 88.9362186,30.9237143 L88.9362186,19.3687692 Z M92.0609312,21.116022 C91.8797875,21.116022 91.6958163,21.1187692 91.5090119,21.1242637 C91.3222075,21.1297583 91.1778608,21.1434944 91.0759675,21.1654725 L91.0759675,29.1105275 C91.1099319,29.1215165 91.1693688,29.1297582 91.2542799,29.1352527 C91.3391909,29.1407473 91.4297614,29.1462417 91.525994,29.1517363 C91.6222266,29.1572308 91.712797,29.1627252 91.7977081,29.1682198 C91.8826192,29.1737143 91.9420561,29.1764615 91.9760205,29.1764615 C92.4854871,29.1764615 92.9043755,29.0610781 93.2326984,28.8303077 C93.5610213,28.5995373 93.8185811,28.2918481 94.0053855,27.9072308 C94.1921899,27.5226135 94.3223849,27.0803102 94.3959745,26.5803077 C94.4695641,26.0803052 94.5063584,25.5555852 94.5063584,25.0061319 C94.5063584,24.5006348 94.4752248,24.0116287 94.4129567,23.5390989 C94.3506885,23.0665691 94.2318148,22.651738 94.0563319,22.2945934 C93.8808489,21.9374488 93.6317801,21.6517373 93.309118,21.4374505 C92.9864558,21.2231638 92.5703977,21.116022 92.0609312,21.116022 Z" id="SCHULCLOUD"></path>
        </g>
    </g>
</svg>