<?xml version="1.0" encoding="UTF-8"?>
<svg width="60px" height="60px" viewBox="0 0 60 60" version="1.1" xmlns="http://www.w3.org/2000/svg" xmlns:xlink="http://www.w3.org/1999/xlink">
    <!-- Generator: Sketch 55.2 (78181) - https://sketchapp.com -->
    <title>Artboard</title>
    <desc>Created with Sketch.</desc>
    <g id="Artboard" stroke="none" stroke-width="1" fill="none" fill-rule="evenodd">
        <g id="Group-9" transform="translate(7.000000, 21.000000)" fill="#FFFFFF">
            <polygon id="Fill-1" points="0 7 0 8.91639456 3.37912088 8.91639456 3.37912088 18 5.63736264 18 5.63736264 8.91639456 9 8.91639456 9 7"></polygon>
            <g id="Group-8" transform="translate(10.000000, 0.000000)">
                <path d="M5.4352766,15.1370242 C5.4352766,14.7937984 5.31314894,14.5149274 5.06814894,14.3004113 C4.82314894,14.0858952 4.51559574,13.8905323 4.14548936,13.7135565 C3.77538298,13.5365806 3.37325532,13.3542419 2.94059574,13.1665403 C2.50793617,12.9788387 2.10655319,12.7482339 1.73644681,12.4747258 C1.36708511,12.2012177 1.05953191,11.8602903 0.814531915,11.4527097 C0.569531915,11.045129 0.446659574,10.5249274 0.446659574,9.89210484 C0.446659574,9.34508871 0.535276596,8.87085484 0.712510638,8.4686371 C0.889744681,8.06641935 1.14219149,7.73085484 1.47134043,7.46270968 C1.799,7.19456452 2.18846809,6.9961371 2.63602128,6.86742742 C3.08431915,6.73871774 3.58548936,6.6743629 4.13729787,6.6743629 C4.77325532,6.6743629 5.3727234,6.73105645 5.93570213,6.84367742 C6.49868085,6.95629839 6.96261702,7.11948387 7.32751064,7.334 L6.65506383,9.18420161 C6.42570213,9.03404032 6.08165957,8.89766935 5.62293617,8.77432258 C5.16421277,8.65097581 4.669,8.58891935 4.13729787,8.58891935 C3.63687234,8.58891935 3.2533617,8.69081452 2.98825532,8.89460484 C2.72165957,9.09839516 2.58910638,9.37190323 2.58910638,9.71512903 C2.58910638,10.0369032 2.71197872,10.3050484 2.95697872,10.5195645 C3.20197872,10.7340806 3.50953191,10.9325081 3.8796383,11.1148468 C4.249,11.2971855 4.65038298,11.4848871 5.08304255,11.6779516 C5.51570213,11.8710161 5.91708511,12.1046855 6.28793617,12.3781935 C6.65804255,12.6517016 6.96559574,12.9887984 7.21059574,13.3917823 C7.45559574,13.794 7.5777234,14.2950484 7.5777234,14.8964597 C7.5777234,15.4971048 7.48165957,16.0142419 7.28804255,16.4486371 C7.09517021,16.8822661 6.82410638,17.2446452 6.47485106,17.5342419 C6.12634043,17.8238387 5.7033617,18.0383548 5.20814894,18.1785565 C4.71293617,18.3172258 4.16857447,18.3869435 3.57431915,18.3869435 C2.79240426,18.3869435 2.10431915,18.312629 1.51006383,18.1617016 C0.916553191,18.0115403 0.47793617,17.8621452 0.196446809,17.7112177 L0.885276596,15.8288387 C0.999212766,15.8931935 1.14740426,15.9629113 1.32985106,16.0379919 C1.51229787,16.1130726 1.71857447,16.1827903 1.94793617,16.2471452 C2.17729787,16.3115 2.41931915,16.3658952 2.67548936,16.4080323 C2.93091489,16.4509355 3.19378723,16.4723871 3.46485106,16.4723871 C4.10080851,16.4723871 4.58782979,16.3628306 4.92665957,16.1421855 C5.26548936,15.9223065 5.4352766,15.5875081 5.4352766,15.1370242" id="Fill-2" opacity="0.7"></path>
                <path d="M15.1386915,18.2262097 C14.6233723,18.3334677 14.0939043,18.3870968 13.5517766,18.3870968 C12.8949681,18.3870968 12.2716702,18.2821371 11.6826277,18.07375 C11.0935851,17.8638306 10.5752872,17.5267339 10.1269894,17.0601613 C9.67869149,16.5928226 9.32124468,15.9868145 9.05539362,15.241371 C8.79028723,14.4966935 8.65698936,13.5926613 8.65698936,12.5308065 C8.65698936,11.4260484 8.80518085,10.5013306 9.10305319,9.75512097 C9.39943617,9.01044355 9.78592553,8.40979839 10.2595426,7.95318548 C10.7339043,7.49810484 11.2633723,7.17020161 11.8472021,6.97254032 C12.4310319,6.7741129 13.014117,6.67451613 13.5986915,6.67451613 C14.2234787,6.67451613 14.2547553,8.63733871 13.7863511,8.63733871 C12.9202872,8.63733871 12.2247553,8.95375 11.6990106,9.58657258 C11.1725213,10.2193952 10.9089043,11.2008065 10.9089043,12.5308065 C10.9089043,13.11 10.9714574,13.638629 11.0965638,14.1159274 C11.2216702,14.5932258 11.4115638,15.0000403 11.667734,15.3379032 C11.9231596,15.6765323 12.2403936,15.9393145 12.6209255,16.1270161 C13.0022021,16.3147177 13.4423085,16.4081855 13.942734,16.4081855 C14.4111383,16.4081855 14.8080532,16.3599194 15.1312447,16.2633871 C15.4543786,16.1668548 15.6547553,18.1189516 15.1386915,18.2262097" id="Fill-4" opacity="0.7"></path>
                <path d="M31.2649787,7.25907258 C31.259766,7.24298387 31.2552979,7.22612903 31.2500851,7.21004032 C30.5895532,2.53129032 27.6882766,0.540887097 24.7668936,0.540887097 C24.6738085,0.540887097 24.5807234,0.542419355 24.4868936,0.547016129 C21.4739149,0.677258065 18.5123191,2.90362903 18.0439149,6.45923387 C17.3729574,6.11677419 16.7116809,5.95818548 16.0921064,5.95818548 C15.7726383,5.95818548 15.4702979,6.0141129 15.1776383,6.09379032 C15.2468936,6.21024194 15.3109362,6.33282258 15.3638085,6.46689516 C15.5559362,6.95951613 15.5961489,7.46592742 15.5961489,7.80302419 C15.5961489,8.0091129 15.5812553,8.19987903 15.5544468,8.37685484 C15.7175319,8.29947581 15.8955106,8.25657258 16.0921064,8.25657258 C16.3884894,8.25657258 16.7109362,8.34467742 17.049766,8.51782258 C17.3632766,8.67794355 17.7035957,8.75762097 18.0431702,8.75762097 C18.4035957,8.75762097 18.7632766,8.66798387 19.0894468,8.48947581 C19.7261489,8.14318548 20.1602979,7.50193548 20.2578511,6.76798387 C20.5825319,4.30028226 22.6788085,2.92584677 24.5807234,2.84310484 C24.6425319,2.84080645 24.7043404,2.83927419 24.7661489,2.83927419 L24.7668936,2.83927419 C27.0605106,2.83927419 28.6168936,4.55310484 29.0398723,7.54024194 C29.0562553,7.65822581 29.0815745,7.77391129 29.1158298,7.88729839 C29.1217872,7.90951613 29.1329574,7.94475806 29.1381702,7.9616129 C29.3496596,8.63810484 29.8523191,9.17592742 30.5016809,9.41879032 C31.7512553,9.88689516 32.592,11.1341532 32.5934894,12.5193145 C32.5934894,14.3488306 31.1800851,15.8381855 29.442,15.8381855 L29.3898723,15.8381855 C29.2513617,15.8420161 29.1076383,15.8427823 28.9601915,15.8427823 C28.7717872,15.8427823 28.5781702,15.84125 28.3815745,15.8397177 C28.165617,15.8374194 27.9459362,15.835121 27.724766,15.835121 L27.4261489,15.8366532 L16.667,15.8366532 C16.7846596,16.1109274 16.879234,16.4403629 16.9201915,16.8678629 C16.9685957,17.3620161 16.9402979,17.7787903 16.8628511,18.1350403 L27.4261489,18.1350403 C27.5259362,18.1342742 27.6257234,18.1335081 27.724766,18.1335081 C28.147,18.1335081 28.5640213,18.1411694 28.9601915,18.1411694 C29.124766,18.1411694 29.2863617,18.1404032 29.4427447,18.1365726 C32.4199787,18.1365726 34.8275319,15.6121774 34.8275319,12.5193145 C34.8252979,10.1619355 33.4007234,8.05891129 31.2649787,7.25907258" id="Fill-6"></path>
            </g>
        </g>
    </g>
</svg>