<svg width="160" height="29" viewBox="0 0 160 29" fill="none" xmlns="http://www.w3.org/2000/svg">
<path fill-rule="evenodd" clip-rule="evenodd" d="M22.0907 23.9543C22.0907 23.4426 21.9029 23.0248 21.5263 22.7043C21.1497 22.3838 20.677 22.0919 20.1081 21.8275C19.5392 21.563 18.921 21.2906 18.256 21.0101C17.5909 20.7297 16.9739 20.3851 16.405 19.9765C15.8372 19.5678 15.3645 19.0596 14.9879 18.4495C14.6113 17.8405 14.4224 17.0633 14.4224 16.1177C14.4224 15.3004 14.5586 14.5919 14.831 13.9909C15.1035 13.39 15.4915 12.8886 15.9975 12.4879C16.5011 12.0884 17.0998 11.7908 17.7878 11.5985C18.4769 11.4062 19.2473 11.3101 20.0955 11.3101C21.073 11.3101 21.9945 11.3948 22.8599 11.563C23.7253 11.7313 24.4384 11.9751 24.9993 12.2956L23.9657 15.0601C23.6131 14.8357 23.0843 14.6308 22.3791 14.4476C21.674 14.2634 20.9128 14.1706 20.0955 14.1706C19.3262 14.1706 18.7367 14.3229 18.3292 14.6285C17.9194 14.9319 17.7157 15.3417 17.7157 15.8545C17.7157 16.3352 17.9045 16.7347 18.2811 17.0564C18.6577 17.3758 19.1305 17.6734 19.6994 17.9447C20.2672 18.2171 20.8842 18.4976 21.5492 18.786C22.2143 19.0745 22.8313 19.4236 23.4013 19.8311C23.9702 20.2409 24.443 20.7457 24.8196 21.3467C25.1962 21.9476 25.3839 22.6963 25.3839 23.5949C25.3839 24.4923 25.2363 25.2649 24.9386 25.914C24.6422 26.563 24.2255 27.1033 23.6886 27.5372C23.1529 27.9698 22.5027 28.2892 21.7415 28.4987C20.9803 28.7059 20.1435 28.81 19.2301 28.81C18.0282 28.81 16.9705 28.699 16.057 28.4735C15.1447 28.2492 14.4705 28.0259 14.0378 27.8004L15.0966 24.9879C15.2718 25.0841 15.4995 25.1883 15.78 25.3016C16.0604 25.4126 16.3775 25.5168 16.7301 25.6129C17.0827 25.7091 17.4547 25.7904 17.8484 25.8533C18.2411 25.9186 18.6452 25.9495 19.0618 25.9495C20.0394 25.9495 20.788 25.7858 21.3088 25.4561C21.8297 25.1287 22.0907 24.6285 22.0907 23.9543Z" fill="#5284B8"/>
<path fill-rule="evenodd" clip-rule="evenodd" d="M37.0063 28.5697C36.2142 28.7311 35.4003 28.81 34.567 28.81C33.5574 28.81 32.5993 28.6532 31.6938 28.3419C30.7884 28.0282 29.9917 27.5246 29.3026 26.8274C28.6135 26.1303 28.064 25.2249 27.6554 24.11C27.2479 22.9973 27.043 21.6466 27.043 20.0601C27.043 18.4094 27.2708 17.0278 27.7286 15.9128C28.1842 14.8002 28.7783 13.9028 29.5063 13.2217C30.2355 12.5406 31.0494 12.0507 31.9468 11.7553C32.8442 11.4589 33.7405 11.3101 34.6391 11.3101C35.5995 11.3101 35.6476 14.2427 34.9276 14.2427C33.5963 14.2427 32.5272 14.7155 31.719 15.6622C30.9097 16.6065 30.5045 18.0729 30.5045 20.0601C30.5045 20.9254 30.6007 21.7153 30.793 22.4284C30.9853 23.1416 31.2772 23.7505 31.6709 24.2542C32.0636 24.7601 32.5512 25.1528 33.1361 25.4332C33.7222 25.7137 34.3987 25.8533 35.168 25.8533C35.888 25.8533 36.4981 25.7812 36.9949 25.637C37.4917 25.4927 37.7996 28.4094 37.0063 28.5697Z" fill="#5284B8"/>
<mask id="mask0_416_6393" style="mask-type:luminance" maskUnits="userSpaceOnUse" x="0" y="2" width="68" height="27">
<path fill-rule="evenodd" clip-rule="evenodd" d="M0 2.146H67.271V28.4731H0V2.146Z" fill="white"/>
</mask>
<g mask="url(#mask0_416_6393)">
<path fill-rule="evenodd" clip-rule="evenodd" d="M61.7949 12.1844C61.7869 12.1604 61.78 12.1341 61.772 12.1112C60.7566 5.11941 56.2969 2.14551 51.8063 2.14551C51.6632 2.14551 51.5202 2.14894 51.3759 2.15467C46.7445 2.34926 42.1921 5.67573 41.4721 10.9894C40.4407 10.4777 39.4242 10.2407 38.4719 10.2407C37.9808 10.2407 37.516 10.3232 37.0662 10.4434C37.1726 10.6173 37.2711 10.7993 37.3524 11.0008C37.6477 11.7357 37.7095 12.4923 37.7095 12.9972C37.7095 13.3051 37.6866 13.5901 37.6454 13.8545C37.8961 13.7389 38.1697 13.6748 38.4719 13.6748C38.9274 13.6748 39.4231 13.8064 39.9439 14.0651C40.4258 14.3044 40.949 14.4234 41.4709 14.4234C42.025 14.4234 42.5779 14.2895 43.0792 14.0228C44.0579 13.5042 44.7253 12.5473 44.8752 11.4507C45.3743 7.76364 48.5966 5.70892 51.5202 5.58644C51.6152 5.58186 51.7102 5.57957 51.8052 5.57957H51.8063C55.332 5.57957 57.7244 8.14138 58.3746 12.6045C58.3997 12.7808 58.4387 12.9537 58.4913 13.1219C58.5005 13.1563 58.5176 13.2089 58.5257 13.2341C58.8507 14.2449 59.6234 15.0484 60.6216 15.4113C62.5424 16.1107 63.8347 17.9743 63.837 20.0438C63.837 22.7774 61.6644 25.0015 58.9927 25.0015C58.9664 25.0015 58.94 25.0015 58.9126 25.0026C58.6996 25.0072 58.4787 25.0095 58.2521 25.0095C57.9625 25.0095 57.6648 25.0061 57.3626 25.0038C57.0307 25.0003 56.693 24.9969 56.353 24.9969L55.894 24.9992H39.3556C39.5364 25.4101 39.6818 25.9012 39.7448 26.5411C39.8192 27.2794 39.7757 27.901 39.6566 28.4333H55.894C56.0474 28.4321 56.2008 28.431 56.353 28.431C57.0021 28.431 57.6431 28.4436 58.2521 28.4436C58.505 28.4436 58.7534 28.4413 58.9938 28.4356C63.5703 28.4356 67.2711 24.6638 67.2711 20.0438C67.2676 16.5216 65.0778 13.3795 61.7949 12.1844ZM13.1238 14.5803H8.22001V28.4734H4.92674V14.5803H0V11.6465H13.1238V14.5803Z" fill="#185888"/>
</g>
<path fill-rule="evenodd" clip-rule="evenodd" d="M96.556 0.75552C96.556 0.543415 96.6191 0.371714 96.7453 0.240411C96.8716 0.109108 97.0458 0.043457 97.268 0.043457C97.4801 0.043457 97.6493 0.109108 97.7755 0.240411C97.9018 0.371714 97.9649 0.543415 97.9649 0.75552C97.9649 0.967625 97.9018 1.1368 97.7755 1.26305C97.6493 1.38931 97.4801 1.45243 97.268 1.45243C97.0458 1.45243 96.8716 1.38931 96.7453 1.26305C96.6191 1.1368 96.556 0.967625 96.556 0.75552ZM80.6277 3.22509H78.0218V12.7849H76.8856V3.22509H74.2797V2.17972H80.6277V3.22509ZM89.6296 7.89138H85.7209V12.7849H84.5846V2.17972H85.7209V6.84601H89.6296V2.17972H90.7659V12.7849H89.6296V7.89138ZM101.434 2.17972H100.343V8.93675C100.343 9.96697 100.215 10.7144 99.9571 11.179C99.6996 11.6436 99.2375 11.8759 98.5709 11.8759C98.2174 11.8759 97.9194 11.8254 97.677 11.7244C97.4346 11.6234 97.2326 11.4567 97.071 11.2244C96.9094 10.9921 96.7932 10.6891 96.7225 10.3154C96.6518 9.94171 96.6165 9.48216 96.6165 8.93675V2.17972H95.4802V9.52761C95.4802 10.679 95.7251 11.5325 96.215 12.088C96.7049 12.6435 97.4851 12.9213 98.5557 12.9213C99.4748 12.9213 100.184 12.6359 100.684 12.0653C101.184 11.4946 101.434 10.5679 101.434 9.2852V2.17972ZM99.1391 0.240411C99.0128 0.371714 98.9497 0.543415 98.9497 0.75552C98.9497 0.967625 99.0128 1.1368 99.1391 1.26305C99.2653 1.38931 99.4345 1.45243 99.6466 1.45243C99.8688 1.45243 100.043 1.38931 100.169 1.26305C100.296 1.1368 100.359 0.967625 100.359 0.75552C100.359 0.543415 100.296 0.371714 100.169 0.240411C100.043 0.109108 99.8688 0.043457 99.6466 0.043457C99.4345 0.043457 99.2653 0.109108 99.1391 0.240411ZM106.149 2.28574C106.482 2.20493 106.848 2.14686 107.247 2.11151C107.646 2.07616 108.012 2.05848 108.346 2.05848C108.739 2.05848 109.113 2.10646 109.467 2.20241C109.82 2.29836 110.128 2.45996 110.391 2.68722C110.653 2.91447 110.863 3.21243 111.02 3.58108C111.176 3.94974 111.254 4.41182 111.254 4.96734C111.254 5.80566 111.08 6.47731 110.732 6.98232C110.383 7.48733 109.921 7.82569 109.345 7.99739L109.921 8.55795L112.012 12.7849H110.694L108.421 8.16405L107.285 7.93679V12.7849H106.149V2.28574ZM108.194 7.17923H107.285V3.1947C107.396 3.1644 107.56 3.14168 107.777 3.12653C107.994 3.11138 108.204 3.1038 108.406 3.1038C108.951 3.1038 109.363 3.2856 109.641 3.64921C109.919 4.01282 110.057 4.47238 110.057 5.02789C110.057 5.75511 109.891 6.29546 109.557 6.64897C109.224 7.00248 108.77 7.17923 108.194 7.17923ZM116.423 2.17972H117.56V12.7849H116.423V2.17972ZM123.471 4.39166L124.122 6.05819L128.016 12.9516H128.713V2.17972H127.622V8.8913L127.789 10.4821H127.728L127.107 8.8913L123.183 2.01307H122.501V12.7849H123.592V6.05819L123.425 4.39166H123.471ZM136.351 7.49741H139.275V12.1637C138.992 12.4263 138.629 12.6258 138.184 12.7621C137.74 12.8985 137.29 12.9667 136.836 12.9667C136.27 12.9667 135.758 12.8606 135.298 12.6485C134.839 12.4364 134.447 12.1056 134.124 11.6562C133.801 11.2067 133.551 10.6386 133.374 9.95176C133.197 9.26494 133.109 8.44179 133.109 7.48226C133.109 6.49244 133.215 5.65161 133.427 4.95974C133.639 4.26788 133.925 3.70227 134.283 3.26291C134.642 2.82355 135.051 2.50287 135.51 2.30087C135.97 2.09886 136.442 1.99786 136.927 1.99786C137.412 1.99786 137.818 2.03069 138.146 2.09634C138.475 2.16199 138.755 2.25037 138.987 2.36147L138.715 3.39169C138.513 3.28059 138.273 3.19473 137.995 3.13413C137.717 3.07353 137.396 3.04323 137.033 3.04323C136.679 3.04323 136.341 3.11898 136.018 3.27049C135.695 3.42199 135.404 3.67197 135.147 4.02042C134.889 4.36888 134.685 4.82591 134.533 5.39153C134.382 5.95714 134.306 6.65404 134.306 7.48226C134.306 8.9973 134.546 10.1159 135.025 10.8381C135.505 11.5602 136.164 11.9213 137.003 11.9213C137.528 11.9213 137.962 11.795 138.305 11.5425V8.45188L136.351 8.16403V7.49741ZM148.368 2.17972H143.656V12.7849H148.444V11.7395H144.793V7.86108H148.08V6.81571H144.793V3.22509H148.368V2.17972ZM152.931 2.28574C153.264 2.20493 153.63 2.14686 154.029 2.11151C154.428 2.07616 154.794 2.05848 155.128 2.05848C155.521 2.05848 155.895 2.10646 156.249 2.20241C156.602 2.29836 156.91 2.45996 157.173 2.68722C157.435 2.91447 157.645 3.21243 157.802 3.58108C157.958 3.94974 158.036 4.41182 158.036 4.96734C158.036 5.80566 157.862 6.47731 157.514 6.98232C157.165 7.48733 156.703 7.82569 156.128 7.99739L156.703 8.55795L158.794 12.7849H157.476L155.203 8.16405L154.067 7.93679V12.7849H152.931V2.28574ZM154.976 7.17923H154.067V3.1947C154.178 3.1644 154.342 3.14168 154.56 3.12653C154.777 3.11138 154.986 3.1038 155.188 3.1038C155.734 3.1038 156.145 3.2856 156.423 3.64921C156.701 4.01282 156.84 4.47238 156.84 5.02789C156.84 5.75511 156.673 6.29546 156.34 6.64897C156.006 7.00248 155.552 7.17923 154.976 7.17923Z" fill="#185888"/>
<path fill-rule="evenodd" clip-rule="evenodd" d="M78.1733 24.3822C78.3652 24.6095 78.4611 24.8847 78.4611 25.2079C78.4611 25.9957 77.9561 26.3896 76.9461 26.3896C76.5421 26.3896 76.1633 26.329 75.8098 26.2078C75.4563 26.0866 75.1786 25.9654 74.9766 25.8442L74.3554 27.5562C74.6079 27.7077 74.969 27.8441 75.4387 27.9653C75.9083 28.0865 76.4562 28.1471 77.0825 28.1471C77.5774 28.1471 78.0268 28.0814 78.4308 27.9501C78.8348 27.8188 79.1808 27.6244 79.4686 27.3668C79.7565 27.1093 79.9787 26.7836 80.1352 26.3896C80.2918 25.9957 80.3701 25.5311 80.3701 24.9958C80.3701 24.4605 80.2741 23.9984 80.0822 23.6096C79.8903 23.2207 79.6504 22.8824 79.3626 22.5945C79.0747 22.3066 78.7616 22.0541 78.4233 21.837C78.0849 21.6198 77.7718 21.4103 77.4839 21.2083C77.1961 21.0062 76.9562 20.7967 76.7643 20.5795C76.5724 20.3624 76.4764 20.1124 76.4764 19.8296C76.4764 19.5165 76.5825 19.2791 76.7946 19.1175C77.0067 18.9559 77.3097 18.8751 77.7036 18.8751C78.0975 18.8751 78.4637 18.9256 78.802 19.0266C79.1404 19.1276 79.3954 19.2387 79.5671 19.3599L80.158 17.6782C79.8651 17.5065 79.4964 17.3702 79.052 17.2692C78.6076 17.1682 78.1278 17.1177 77.6127 17.1177C77.1885 17.1177 76.7896 17.1707 76.4158 17.2768C76.0421 17.3828 75.7189 17.5495 75.4462 17.7767C75.1735 18.004 74.9589 18.2969 74.8023 18.6554C74.6458 19.014 74.5675 19.4508 74.5675 19.9659C74.5675 20.5214 74.6635 20.9911 74.8554 21.3749C75.0473 21.7587 75.2871 22.092 75.575 22.3748C75.8629 22.6576 76.176 22.9051 76.5143 23.1172C76.8527 23.3293 77.1658 23.5363 77.4536 23.7383C77.7415 23.9404 77.9814 24.155 78.1733 24.3822ZM88.0622 27.9957C88.5016 27.8947 88.8525 27.7331 89.1152 27.5108L88.7364 25.9049C88.5344 26.0362 88.3071 26.1498 88.0546 26.2458C87.8021 26.3418 87.4991 26.3897 87.1456 26.3897C86.7416 26.3897 86.3957 26.2988 86.1078 26.117C85.82 25.9352 85.5826 25.6777 85.3958 25.3444C85.2089 25.0111 85.0726 24.6146 84.9867 24.1551C84.9008 23.6955 84.8579 23.188 84.8579 22.6325C84.8579 21.3396 85.0448 20.3902 85.4185 19.7842C85.7922 19.1782 86.3275 18.8752 87.0244 18.8752C87.3779 18.8752 87.6834 18.903 87.941 18.9585C88.1986 19.0141 88.4233 19.0923 88.6152 19.1933L88.9939 17.5117C88.7616 17.4107 88.4612 17.3198 88.0925 17.239C87.7238 17.1582 87.2921 17.1178 86.7972 17.1178C86.3123 17.1178 85.8326 17.2036 85.3579 17.3753C84.8832 17.547 84.4615 17.8424 84.0928 18.2616C83.7242 18.6808 83.4262 19.2438 83.199 19.9509C82.9717 20.6579 82.8581 21.5467 82.8581 22.6173C82.8581 23.6475 82.9591 24.5161 83.1611 25.2232C83.3631 25.9302 83.6408 26.5008 83.9944 26.9351C84.3479 27.3694 84.7594 27.68 85.2291 27.8669C85.6988 28.0537 86.2063 28.1472 86.7517 28.1472C87.186 28.1472 87.6228 28.0967 88.0622 27.9957ZM96.5271 23.4505H93.6334V27.935H91.7244V17.3298H93.6334V21.6931H96.5271V17.3298H98.436V27.935H96.5271V23.4505ZM107.984 17.3298H106.181V24.1323C106.181 24.9201 106.075 25.4882 105.863 25.8367C105.651 26.1852 105.297 26.3594 104.802 26.3594C104.287 26.3594 103.919 26.1953 103.696 25.867C103.474 25.5387 103.363 24.9605 103.363 24.1323V17.3298H101.454V24.4656C101.454 25.6978 101.724 26.6144 102.265 27.2154C102.805 27.8163 103.656 28.1168 104.817 28.1168C105.807 28.1168 106.582 27.8088 107.143 27.1927C107.704 26.5765 107.984 25.5817 107.984 24.208V17.3298ZM116.638 27.935H111.002V17.3298H112.911V26.1776H116.638V27.935ZM122.876 27.9957C123.315 27.8947 123.666 27.7331 123.929 27.5108L123.55 25.9049C123.348 26.0362 123.121 26.1498 122.868 26.2458C122.616 26.3418 122.313 26.3897 121.959 26.3897C121.555 26.3897 121.209 26.2988 120.921 26.117C120.634 25.9352 120.396 25.6777 120.209 25.3444C120.023 25.0111 119.886 24.6146 119.8 24.1551C119.714 23.6955 119.672 23.188 119.672 22.6325C119.672 21.3396 119.858 20.3902 120.232 19.7842C120.606 19.1782 121.141 18.8752 121.838 18.8752C122.192 18.8752 122.497 18.903 122.755 18.9585C123.012 19.0141 123.237 19.0923 123.429 19.1933L123.808 17.5117C123.575 17.4107 123.275 17.3198 122.906 17.239C122.537 17.1582 122.106 17.1178 121.611 17.1178C121.126 17.1178 120.646 17.2036 120.171 17.3753C119.697 17.547 119.275 17.8424 118.906 18.2616C118.538 18.6808 118.24 19.2438 118.013 19.9509C117.785 20.6579 117.672 21.5467 117.672 22.6173C117.672 23.6475 117.773 24.5161 117.975 25.2232C118.177 25.9302 118.454 26.5008 118.808 26.9351C119.161 27.3694 119.573 27.68 120.043 27.8669C120.512 28.0537 121.02 28.1472 121.565 28.1472C122 28.1472 122.436 28.0967 122.876 27.9957ZM132.174 27.935H126.538V17.3298H128.447V26.1776H132.174V27.935ZM134.132 18.5267C133.516 19.4661 133.207 20.8346 133.207 22.6325C133.207 23.4708 133.278 24.2308 133.42 24.9126C133.561 25.5943 133.783 26.1751 134.086 26.6549C134.389 27.1346 134.776 27.5033 135.245 27.7608C135.715 28.0184 136.283 28.1472 136.95 28.1472C138.192 28.1472 139.129 27.6775 139.76 26.7382C140.391 25.7989 140.707 24.4303 140.707 22.6325C140.707 21.7941 140.634 21.0341 140.487 20.3523C140.341 19.6706 140.116 19.0898 139.813 18.6101C139.51 18.1303 139.121 17.7616 138.646 17.5041C138.172 17.2465 137.606 17.1178 136.95 17.1178C135.687 17.1178 134.748 17.5874 134.132 18.5267ZM135.207 22.6324C135.207 23.1677 135.238 23.6651 135.298 24.1247C135.359 24.5842 135.46 24.9807 135.601 25.314C135.743 25.6473 135.922 25.9099 136.139 26.1018C136.356 26.2937 136.626 26.3896 136.95 26.3896C137.535 26.3896 137.975 26.0917 138.268 25.4958C138.561 24.8999 138.707 23.9454 138.707 22.6324C138.707 22.1173 138.677 21.6299 138.616 21.1704C138.556 20.7108 138.457 20.3118 138.321 19.9735C138.184 19.6351 138.005 19.3675 137.783 19.1705C137.561 18.9736 137.283 18.8751 136.95 18.8751C135.788 18.8751 135.207 20.1275 135.207 22.6324ZM150.013 17.3298H148.21V24.1323C148.21 24.9201 148.104 25.4882 147.891 25.8367C147.679 26.1852 147.326 26.3594 146.831 26.3594C146.316 26.3594 145.947 26.1953 145.725 25.867C145.503 25.5387 145.392 24.9605 145.392 24.1323V17.3298H143.483V24.4656C143.483 25.6978 143.753 26.6144 144.293 27.2154C144.834 27.8163 145.685 28.1168 146.846 28.1168C147.836 28.1168 148.611 27.8088 149.172 27.1927C149.732 26.5765 150.013 25.5817 150.013 24.208V17.3298ZM153.031 17.3299C153.213 17.2996 153.417 17.2769 153.644 17.2617C153.872 17.2465 154.104 17.2314 154.341 17.2162C154.579 17.2011 154.808 17.191 155.031 17.1859C155.253 17.1809 155.45 17.1784 155.621 17.1784C156.46 17.1784 157.159 17.3071 157.72 17.5647C158.28 17.8223 158.73 18.1859 159.068 18.6555C159.407 19.1252 159.646 19.6883 159.788 20.3448C159.929 21.0013 160 21.7336 160 22.5416C160 23.2789 159.932 23.9834 159.795 24.655C159.659 25.3267 159.419 25.9176 159.076 26.4276C158.732 26.9377 158.268 27.3442 157.682 27.6472C157.096 27.9502 156.359 28.1017 155.47 28.1017C155.339 28.1017 155.162 28.0967 154.94 28.0866C154.718 28.0765 154.485 28.0639 154.243 28.0487C154 28.0336 153.768 28.0184 153.546 28.0033C153.324 27.9881 153.152 27.9704 153.031 27.9502V17.3299ZM155.326 18.9433C155.493 18.9382 155.657 18.9357 155.818 18.9357C156.273 18.9357 156.644 19.0342 156.932 19.2311C157.22 19.4281 157.442 19.6907 157.599 20.019C157.755 20.3472 157.861 20.7285 157.917 21.1628C157.972 21.5971 158 22.0466 158 22.5112C158 23.0162 157.967 23.4985 157.902 23.958C157.836 24.4176 157.72 24.8241 157.553 25.1776C157.387 25.5311 157.157 25.8139 156.864 26.026C156.571 26.2382 156.197 26.3442 155.743 26.3442C155.712 26.3442 155.659 26.3417 155.584 26.3366C155.508 26.3316 155.427 26.3265 155.341 26.3215C155.255 26.3164 155.175 26.3114 155.099 26.3063C155.023 26.3013 154.97 26.2937 154.94 26.2836V18.9812C155.031 18.961 155.159 18.9483 155.326 18.9433Z" fill="#185888"/>
</svg>
