<svg xmlns="http://www.w3.org/2000/svg" viewBox="0 0 157.89 153.99"><defs><style>.cls-1{fill:#e6e6e6;}.cls-2{font-size:67.79px;fill:#333;font-family:PTSans-Bold, PT Sans;font-weight:700;}</style></defs><title>welcome_2_help</title><g id="Layer_2" data-name="Layer 2"><g id="Layer_1-2" data-name="Layer 1"><circle class="cls-1" cx="76.99" cy="76.49" r="44.5"/><text class="cls-2" transform="translate(62.85 100.33)">?</text><path d="M154.69,111.08,143.89,117l13.21,10.76a2.16,2.16,0,0,1,.36,3l-3.82,4.9a2,2,0,0,1-2.91.3l-12.55-10.22-3.9,13.88a2,2,0,0,1-3.79.36L106.72,96.14a2,2,0,0,1,2.37-3l45.15,14.06a2.12,2.12,0,0,1,.45,3.86Z"/><path class="cls-1" d="M124.1,16.49,115.46,28a1.34,1.34,0,1,1-2.11-1.64L122,14.85a1.34,1.34,0,1,1,2.11,1.64Z"/><path class="cls-1" d="M40.57,127.63l-8.64,11.46a1.34,1.34,0,1,1-2.11-1.64L38.45,126a1.32,1.32,0,0,1,1.88-.25A1.36,1.36,0,0,1,40.57,127.63Z"/><path class="cls-1" d="M28.55,40.61a1.32,1.32,0,0,1-1.88.25L15.29,32.28a1.35,1.35,0,0,1,1.65-2.13l11.38,8.58A1.34,1.34,0,0,1,28.55,40.61Z"/><path class="cls-1" d="M88.48,153.46a1.44,1.44,0,0,1-.86.52,1.33,1.33,0,0,1-1.51-1.11l-2-14.15a1.35,1.35,0,0,1,1.12-1.51,1.33,1.33,0,0,1,1.51,1.11l1.95,14.15A1.43,1.43,0,0,1,88.48,153.46Z"/><path class="cls-1" d="M69.56,16.26a1.5,1.5,0,0,1-.86.53,1.32,1.32,0,0,1-1.5-1.11l-2-14.15A1.35,1.35,0,0,1,66.36,0a1.32,1.32,0,0,1,1.51,1.11l1.95,14.15A2,2,0,0,1,69.56,16.26Z"/><path class="cls-1" d="M16.58,86.74a1.44,1.44,0,0,1-.86.52L1.52,89.32A1.33,1.33,0,0,1,0,88.21a1.36,1.36,0,0,1,1.12-1.52l14.14-2a1.32,1.32,0,0,1,1.5,1.11A1.36,1.36,0,0,1,16.58,86.74Z"/><path class="cls-1" d="M153.65,66.78a1.42,1.42,0,0,1-.86.53l-14.13,2a1.33,1.33,0,0,1-1.51-1.11,1.36,1.36,0,0,1,1.12-1.52l14.13-2a1.32,1.32,0,0,1,1.51,1.11A1.27,1.27,0,0,1,153.65,66.78Z"/></g></g></svg>