<svg xmlns="http://www.w3.org/2000/svg" xmlns:xlink="http://www.w3.org/1999/xlink" viewBox="0 0 160.36 139.32"><defs><linearGradient id="linear-gradient" x1="77" y1="35.22" x2="94.76" y2="129.45" gradientUnits="userSpaceOnUse"><stop offset="0" stop-color="#c1e5ef"/><stop offset="1" stop-color="#5591a8"/></linearGradient><linearGradient id="linear-gradient-2" x1="103.62" y1="57.32" x2="103.62" y2="96.14" gradientTransform="translate(-31.28 -1.74)" gradientUnits="userSpaceOnUse"><stop offset="0" stop-color="#e87601"/><stop offset="1" stop-color="#201e1d"/></linearGradient><linearGradient id="linear-gradient-3" x1="-205.06" y1="56.92" x2="-205.06" y2="47.15" gradientTransform="matrix(1 0 -.01 1 278.12 -2.5)" gradientUnits="userSpaceOnUse"><stop offset="0" stop-color="#fff5f1"/><stop offset=".82" stop-color="#ffa285"/></linearGradient><linearGradient id="linear-gradient-4" x1="-209.41" y1="42.43" x2="-209.41" y2="54.38" gradientTransform="translate(281.77 -3.83)" gradientUnits="userSpaceOnUse"><stop offset="0" stop-color="#ffe0d4"/><stop offset=".97" stop-color="#ffa082"/></linearGradient><linearGradient id="linear-gradient-5" x1="-628.45" y1="-251.91" x2="-625.35" y2="-251.91" gradientTransform="matrix(.8 0 0 .8 576.9 245.36)" gradientUnits="userSpaceOnUse"><stop offset="0" stop-color="#fb3847"/><stop offset="1" stop-color="#86283c"/></linearGradient><linearGradient id="linear-gradient-6" x1="104.23" y1="60.62" x2="104.23" y2="-30.09" gradientTransform="matrix(1 0 0 .6 -30.97 65.51)" xlink:href="#linear-gradient-2"/><clipPath id="clip-path"><path fill="none" d="M45.33 30.34h69.7v47.15h-69.7z"/></clipPath><style>.cls-28{fill:none}.cls-24,.cls-26{fill:#fff}.cls-3{fill:#e6e6e6}.cls-14{opacity:.1}.cls-18{fill:#e09226}.cls-19{fill:#db7f00}.cls-25{fill:#006192}.cls-26,.cls-28{stroke:#006192;stroke-width:.5px;stroke-linecap:round;stroke-linejoin:round}.cls-28{stroke:#e87601;stroke-width:4px}.cls-32{fill:#ffd8ca}</style></defs><g id="Layer_2" data-name="Layer 2"><g id="Layer_1-2" data-name="Layer 1"><path d="M145.78 20.94L17.23 38a9.26 9.26 0 01-10.47-9.17V11.77A9.25 9.25 0 0116 2.53h128.56a9.25 9.25 0 019.25 9.24 9.25 9.25 0 01-8.03 9.17z" opacity=".38" fill="#fff"/><ellipse class="cls-3" cx="80.85" cy="129.57" rx="65.81" ry="9.75"/><path fill="#201e1d" d="M58.95 53.51h42.44v66.69H58.95z"/><path d="M53 118.31h54.41a7.59 7.59 0 017.59 7.59v3.67H45.38v-3.67a7.59 7.59 0 017.62-7.59z" fill="#256272"/><path d="M141.66 103H18.75C-1.26 103 .32 86.76.32 66.75V31.61C.32 14.15-3.33 0 14.13 0h132.16C163.75 0 160 14.15 160 31.61v35.14c0 20.01 1.67 36.25-18.34 36.25z" fill="#105364"/><rect x="6.65" y="6.5" width="147.04" height="90" rx="10.56" ry="10.56" fill="#f2f2f2"/><rect x="5.9" y="5.65" width="148.14" height="90.67" rx="10.64" ry="10.64" fill="url(#linear-gradient)"/><text transform="translate(19.46 24.08)" fill="#5591a8" font-size="14.65" font-family="PTSans-Regular,PT Sans">Online-Fo<tspan x="62.38" y="0" letter-spacing=".03em">r</tspan><tspan x="67.8" y="0">tbildung</tspan></text><g clip-path="url(#clip-path)"><path fill="#41545b" d="M47 31.76h66.28v43.62H47z"/><path d="M112.55 75.24h-64.7v-42.6h64.69zm1.93-44.9H45.34v46.6l.53.53h69.14V30.84z" fill="#bf977b"/><path class="cls-14" d="M113.71 56.47a1.3 1.3 0 000-.27zm-67.62 6.92a18.46 18.46 0 00-.27 2.75c.09.08 0 .69.15.37 0 1.09-.07.41-.11 1.12 0-.23.13-.36.15-.22 0-.36.07-.48.08-.73l-.09.22c0-.58 0-1.6.11-1a2.91 2.91 0 010-.9s0-.19-.09-.18c0-1.1.16-2.83 0-2.88a9.91 9.91 0 010 1c-.02.84.08-.24.07.45zm67.51-6.93a1 1 0 000-.22 1.18 1.18 0 000 .22zm-.43-12.34v-.07zm0 2c.1 0 0-.4.1-1-.12-.12-.13.62-.13 1.02zm.63-3v-.79l-.09.52c0 1 .11.08.16.46s0 1.79.13 2.37v-.69c.05 0 .07.19.11.08V46c.14-.83 0-2.19.06-3-.17-1.72-.3.4-.4.12zm-.55 15.29a6.13 6.13 0 00-.14 1.42c0 .5.07 1.69 0 1.4 0 .19.08.09.12.38a6.7 6.7 0 000 1.61 10.88 10.88 0 00.25-2.55c-.03-1.81-.33-.45-.26-2.26zm.15-15c.06-.31 0-1.3-.07-1.08a2.7 2.7 0 010 .61zm-.12 1l-.08-.31c.01.28 0 1.13.05.33zm.8 21.76v-.1.81zm.21 6.54c-.06-.09-.1-1.77-.19-.56 0 .4.06-.81.11 0l-.05.91zm-.14-11.62v1.8c-.05-.58-.02-1.48-.03-1.78zm0-15.66c0-.51.13 2 .18.26v-.09c0-1.12 0-2.91.09-3.66 0 .1-.08.15-.08-.23s0-1 .07-1.38a13.16 13.16 0 00-.2 2.11c-.08.11-.06 2-.13 3.01zm.22-5.1c0-.09 0-.18.06-.25a.56.56 0 00-.13.27zm-.36 1v.6-.5.09zm.31-4.33v.1-.81zm.08 4.75a.61.61 0 000 .15c-.07-.02-.05-.14-.07-.09zM45.52 54.37c-.08-.08 0 1.32-.06 1.83v.09a5.66 5.66 0 01.1.77 3.07 3.07 0 01.1-1.07c0 .11-.06.06-.08.06v-.79l.14-.12c-.07-.5-.22.43-.2-.77zm.14 1.63a.51.51 0 000-.16c.01.05.01.16 0 .16zm68.65 9.25a20.75 20.75 0 00-.12 2.32l.07.68-.13.33v2.89c.06-.91 0 1.19 0-.81 0 .34.08.79.11 1.28zm-68.67-11v-1.22a4.54 4.54 0 000 1.24zm0 9.26v-1.53 1.54a9.44 9.44 0 000 1.24c0-2.67.28.67.37-1.8-.07.9-.24.04-.33.57zm0-9.26v.18a.92.92 0 000-.16zm-.16-2.39v.26-.29s.01.04 0 .05zm.2.26v.41l.12.18c-.05.42-.04-1.28-.12-.57zm0 8.86c0 .3 0-.21.06-.31-.07-.69 0-1.1-.08-1.58-.03.63.08 1.51.04 1.91zm-.22-9.51v-.18c0 .34.06.56.15.44 0-.5.14-.43.14 0l.1-1.52a42.84 42.84 0 01-.16-4.55l.09-.71v1.28c.15-.43-.08-.88 0-1.5a4.93 4.93 0 00-.2 1.74v.09a4.66 4.66 0 01-.12.63c-.05-.39.07-.61 0-.89-.09.2 0 1-.08 1v.19c0 .17.07.18.15.23a3.92 3.92 0 010 .81l-.12-.38a3.56 3.56 0 010 .92zm67.43 6.76c0-.09-.13.13-.14.63.09.01.12.14.16-.61zm0-2.39v-.7h-.14zm-.08 5.8a14.75 14.75 0 000-1.48l-.08.91.07-.42zM112.5 75v.26-.07c.03-.19.02-.19 0-.19zm.55-17.32c0 .62 0 1.76-.11 2v-.15a1.09 1.09 0 000 .17v.1c0 .16.06 0 .06.3v-.33a8.51 8.51 0 00.12-1.1zm-.24-.35c0 .78.12 0 .2-.15-.06-.28-.07.62-.12-.17v-.41c-.04-.53 0 .76-.08.68zm-.18-5.33a12.62 12.62 0 00.06-1.5l-.07-.05V52zm.37 11.83a1.47 1.47 0 00.09-.61 6 6 0 00-.09.61zm-.29-10.9c0-.44-.08-.5-.12-.39v1.73c.12.06.25.45.14-1.34zm.81 4.11l-.06-.68c-.07.61 0 1 0 2l.2-.74-.05-.59.08-.55c0 .13-.08.11-.11 0 .03.24-.06.08-.04.52zm.73 16.2l-.16.81a2.35 2.35 0 01-.12-.77v-.9l-.12.22v-1.39l-.23.85v2.58a14.32 14.32 0 00-.08 1.66l.66.67zm0-41.38c0-.34.1-.32.17-.38v-1.1l-.09.09a5.14 5.14 0 00-.02 1.39zm-1.12 37l.11.68.1-.32zm.08-12a5.4 5.4 0 000 .7v-.41c.13-.28.09-.28.06-.27zm.1 18.33c0-.2-.08-.89-.16-.17.16-.7.11 1.6.22.19zm.07-25.14l.06-.91-.07.81zm0 6.68a6.89 6.89 0 010-1.3l-.14.43c.12.21.11.5.19.89zm0-21.42zm-.02 3.69a2.69 2.69 0 000-.47c.03.15.02.31 0 .47zm-.36-3.17c0-.2.06-.31.08-.31a7.64 7.64 0 010 2.09l.18-.13v1.09a.41.41 0 010-.09v.05a4 4 0 01-.05.54l-.07-.58a13 13 0 00.09 1.48 2.78 2.78 0 00.06-.34c0 .67 0 1.51-.09 2.3 0-.12.09.2.11-.51v-1.81c0-.18 0-.39.07-.61 0 .19-.07.35-.11.36v-.72a.84.84 0 010 .19c.06-.52 0-1.7.09-2.41l.06.48v-.5a1 1 0 010-.23c0 .35-.08.17-.11.08V36c.09.44.06-.21.08-.5v.26-1.04.71s0 .06 0 0c0-.6.1-1.32.18-1.13-.09-.68 0-2.48-.12-2.67s0 2-.16 2.23v-1.21c-.13-.67-.09.82-.1 1.32l.06.09c0 .5-.09.42-.09.81 0-1.17-.08-2.11-.13-3.1l-.15.15c.02 1.32.12 2.52.12 3.91zm.31 7.69a10.69 10.69 0 000-1.09c0 .1 0 .11 0 0v-.33c0 .45-.07.88-.1 1.26zm-.64 30.94v.9-.62zm.63 1.54l.1.1c-.02-.37-.07-.31-.1-.1zm.37-37.64a.29.29 0 000 .1.23.23 0 000-.09zm-.2-2.2v-.17.18zm.06 2.92a3.44 3.44 0 000-.61c0 .07.07-.17.1-.11 0-.28 0-1.06-.07-1.48v.66a8.47 8.47 0 010-1.07l-.11-.08.07.19c-.03.82.05 2.1.01 2.51zm0 13.48c0 .09.06-.11.07.18v-1.49zm-.29-10.64a.67.67 0 000 .17 1 1 0 01-.04-.16zm1.08-3.92l.07.58v-1zm.13-.52a.19.19 0 000 .08zm0 0v-.69c-.02.28-.03.54-.02.71zm0-1.39a4.39 4.39 0 010 .7c0-.45.02-.89-.05-.68zm-.1 15l-.08-.09v-1.5s-.08-.29-.07-.59l-.08.72.06.09c0 .39-.06.7-.07 1a12.22 12.22 0 01.19 1.77c.03-.41-.02-1.1 0-1.4zm0 1.49v-.08.12zm0 7.38v-.39c0 .75 0 .74.07.61v-.25zm.07-17.87v-.55a3.2 3.2 0 00-.03.55zm-.14 10.7a.61.61 0 000-.17l-.06.07zm0 12.56v-1.69l-.09.3a5.35 5.35 0 01.07 1.39zm-.68-6a.55.55 0 000-.13zm.34-1.37V58a13.05 13.05 0 010-2 8.55 8.55 0 00-.23 1.69c0 .21-.06.36-.12.38a4.09 4.09 0 000 1.06c0-1.14.13-.19.12-1.11a10.55 10.55 0 01.12 1.79v-.39.79c0-.11.05-.51.08-.12s-.09 1.22-.22 1.74v-.41a4.15 4.15 0 00.23 1.24v-2c0 .21-.05.31-.1.12l.13-.92a18.79 18.79 0 01-.03-1.92zm-.19 4.13zm.07-6.47c.12-.93-.13-1 0-1.61-.06.11-.07-.58-.11-.08.15.64-.11 1.49.09 1.65zm.07 13.62a3.5 3.5 0 00-.11-1.27c.01.85.07.14.09 1.23zm.47-36.48c-.07.21.06.88 0 1.58.09-.32-.06-1.29.07-1.21s0 0 0 .07v-1.47c-.02.05-.08.18-.09.99zm0 2.27v-.28.9zm-.25 19.6c0 .59 0 .9-.07.61 0 .79.1 2.18.15 2.76l.08-.91c-.07 0 0 .6-.09.41s0-1.29.12-1a9.53 9.53 0 010-2.2c-.11-.27-.26-.34-.26.66.02-.36.06-.26.09-.37zm0-20.81c0-.11 0-.51.1-.52l-.08-1.32a8.91 8.91 0 00-.04 1.8zm-68.64 19.5v.07l.08.06v-.2zm1.64-11.67v.12a.4.4 0 000-.12zm-.32-1.52c-.15 2.13.24 2.54.06 4.57-.06.29.06 0 .08-.49.15-.23-.07-2.77.13-1.52V43c.08-.51 0-.49 0-1 0-.33.05-.38.07-.32a3.79 3.79 0 010-.39h.16v1-2.27l-.06.28v-1.92a5.9 5.9 0 00-.06-1.38 1.88 1.88 0 010 .51l-.08-.68c.11.47 0-1.11.15-1.13 0-.94.08-2 .13-3.23v-.31L47.2 32c0 .51-.13-.11-.18.32l.06.09-.09.82v.91c0-.11.05-.41.08-.32a4.32 4.32 0 01-.05.87 19.42 19.42 0 010 2.41v-.32a9.69 9.69 0 000 1.72c.15-.13 0-.89 0-1.2l.08-.12a25.15 25.15 0 010 2.9c0-.58-.1-1-.09-1.28-.17.2-.09 2.02-.22 1.35zm.14 4.08v-.13a.53.53 0 010 .13zm.31-2c0-.57-.05-.41-.09-.46a2.72 2.72 0 00.09.48zM47 46.1v-1.21h-.07c-.01.41-.06 1.22.07 1.21zm0-11.22v-.2a.59.59 0 000 .2zm0 0a4.63 4.63 0 00-.06.55c.06.48.06-.2.06-.55zm0 1.92a2.31 2.31 0 000-.37zM46.5 55l.1.28v-.69c.14-.23.06.88.08 1.48a11.5 11.5 0 000-2.27c0 .13-.07 1-.13.7a3.51 3.51 0 010-.6c-.07.17-.05.67-.05 1.1zm.21 2.12a12.13 12.13 0 00.2 1.55c.14.37 0-1.1.17-1.13a7.41 7.41 0 01-.08-1.62c0-.7 0 .41-.06.71a3.47 3.47 0 01-.06-1.08l-.07.21v-.7c-.18.04.03 2.09-.1 2.02zm.23 16.83c0 .13 0 .76-.1.45a2.53 2.53 0 010-.6c-.13.32 0 1.49-.12 1.22l.16.26a11.09 11.09 0 01.06-1.37zm0-26.61l.07-.61s-.09-.09-.1.22a1 1 0 00.02.35zm0 15.25v1l.16-.24a2.16 2.16 0 01-.17-.8zM47 73.31v-.71l-.05.71zM47 64c0 1-.05 2.3 0 3 0-1.07.1-2 0-3zm-1 3.66a1.07 1.07 0 000-.28v.31zm1 2.16v.9l.05-.41zm-.31-16.06zm-.41-2.93v-.18c-.03-.14-.03-.14-.03.18zm.13 10.74c0-.36 0-1.48-.08-1.38a4.66 4.66 0 01-.09 1.21c0 .71.06.49.06 1.09.02-.01.03-.79.08-.92zM46 30.88s0 .01 0 0zm67.21 39.78h-.04zm.06.89c.06-.32 0-1.41 0-1.7-.1 0 0 .84-.07.86.02.17-.02.76.03.84zM45.54 57.66v.09l-.06.51zM113 63.71a11.47 11.47 0 00-.07-2.27c0 1.09-.11.32-.14 1s0-.06 0 .18c0 1.9-.24-.15-.27 1.55a12.06 12.06 0 010 1.9c.12.18.35-.17.27-1.55l.07-.22v1.4c.21-.7-.08-2.43.14-1.99zM46.71 36.59v.19zm-.2 2.11v-.08.28zm-.57 4c0-.89.07-1.21 0-2.2l.08.58c.08-1.11-.1-.77 0-2.28l-.08.11v-.51a4.08 4.08 0 01-.09-1.37l-.13.13c0-.51.12-.33.12-.93 0-.39-.09-.58-.13-.27a21.79 21.79 0 000-3.3c.07.18.06-.71.09-.42v.2a4.58 4.58 0 00.2-1.5v-.06a.29.29 0 000-.1l.68.68v.05c.05.37.09.29.12.06l.09.09v2.7-.19c-.06.65 0 1.26 0 2v.42c0 .21 0 .59-.06.86 0 .08.08-.12.09.24 0 .06-.08 0-.12 0s0 .08 0 .07v.38c.15.56 0 2 .13 2.76l-.09 1-.1-.77v.4c-.2-.66.09-.82 0-1.79l-.16-.06V39c-.06-.09-.14.22-.15.53a7.43 7.43 0 00.18 1.05 1.16 1.16 0 000-.4c.13 1-.08.12 0 .91.06-.31.09.38.13.67a9.37 9.37 0 000 2.1l-.1.82.09.48c-.13.51.15 2.56 0 3.31a8 8 0 01.08 1c0 .7-.12 0-.13.92.13-.33 0 1 .07 1.49-.09.08-.14-.86-.16-1.15l.06-.83c-.08.21 0-.59-.11-.28 0-1.21 0-1.8.12-3.51 0 .1-.07 0-.1.22v-1.32a7.17 7.17 0 00-.18 1.84v-1.18.1L45.83 43c0-.36.06-.47.11-.28zm.27 17.16c0-.4-.08-.08-.12-.18a14.12 14.12 0 00.08-1.41 3.55 3.55 0 000-.49v-1.51s-.06.11-.07-.19v-.4c-.09-.38-.05.71-.11.62a7.8 7.8 0 01.11 1.27.15.15 0 010 .07l-.06-.16a3.47 3.47 0 010-.38 2.65 2.65 0 00-.05.79 5 5 0 00-.07.75l.08-.59a14 14 0 01.06 1.74zm-.13 9.49v.81s.07.38.08-.12c-.16.14.01-.78-.08-.67zM46.21 48h-.11c0 .87.09.05.11 0zm.22 13.62v-.09c0 .04-.03.17 0 .13zm-.32 11.23c-.1-.38 0-.51 0-1.2l-.1.72a2.18 2.18 0 010 .6zm-.61-11.8l.08.78c0-1.09.1-2.51 0-3.49v1.5l-.06-.68c-.08.12.06 1.08 0 1.5a1.32 1.32 0 010 .23v.82zm0-8.15v.22-.08zm.11 17.29a2.89 2.89 0 010 .29 1 1 0 00-.03-.29zm0-1.31a4.11 4.11 0 000 1.31 20.3 20.3 0 000-2.71c.05-.91 0-1.1 0-1.9l.08-.12c0-.8-.12-.18-.13-.08.1 1.18-.14 1.43-.06 2.41a3.37 3.37 0 01-.08-1.18.35.35 0 000-.06v1.95zm.86-16.2a1.57 1.57 0 00-.17.71c.12.07.12.15.16-.5a7.09 7.09 0 000 1.09c.08-.91-.08-1.18 0-2a3.92 3.92 0 00-.04.7zm-.13-.16v-.31l-.09-.28zM46.43 64l-.09.41a8.11 8.11 0 00-.14 2.22c.1.38 0 1.2 0 1.68.14 0 0-2.08.16-2.22.08-.68.1-1.48.07-2.09zm0-8.15V56v-.11.21c0 .14 0 .29-.06.23a3.77 3.77 0 000-.63 9 9 0 000 1v-.58.06V56zm-.74 16.39zm.69-15.61v.33a2 2 0 00.03-.31zm.06-.19v.17zm-.12-.85a.92.92 0 010-.16zm-.12.71l.12-.71a1 1 0 01-.07-.2zM45.75 43v.41h.07zM46 62.91zm.13 3a.34.34 0 010 .1.31.31 0 000-.14zm-.54-33.28a.14.14 0 000-.07v.54a.31.31 0 010 .13zm-.13 40.32a1.26 1.26 0 01.08.88c.12.57 0-1.09.07-1l-.08-.48c0-.09.12 0 .16 0 0-.3.09-1.11.13-.92v-1.58a18.65 18.65 0 00-.36 3.06zM45.62 42a1 1 0 000 .26zm-.06 1.75l.09-.81v-.1l-.09.82zm.19-2.73c0 .21 0 .32-.08.52v.1l-.07.36c.1-.21.21.13.15-.94zm.94 5.98c0-.61.07-.42.12-.56-.06.03-.14-.59-.12.56zm.12 11.9a13.27 13.27 0 000 2 13.12 13.12 0 000-2.05zm.27-9.71v-.43a2.69 2.69 0 000 .38zm0 0v.22a1.12 1.12 0 000-.27zm.06-1.69c-.07-.18-.11.13-.14.43 0 .44.06-.56.14-.48zm-.34 6.42l.13.07c-.04-.54-.1-.63-.13-.12zm.32-9.5c-.07 1.4.11.87 0 2.28.05.36.08 0 .1-.09v-3.59.47l-.14.23a3.09 3.09 0 010 .68zm.2-8.85v-.94.88a.14.14 0 000 .01zM47.05 45c0-.19 0-.41.06-.63a1.64 1.64 0 00-.06.63zm-.51 10.14v.41c0 .4.09.48.14.47-.01-.63-.1-.41-.14-.9zM47.2 50v.34c-.01-.14 0-.26 0-.34zm-.5 3.62a6.63 6.63 0 000-1.09 8.08 8.08 0 000 1.08zm.11-7.22a.71.71 0 000-.27.94.94 0 010 .26zm-.2 12.4l-.12 1s.06-.09.09-.12a5.73 5.73 0 00.03-.89zm0 1.4v-.49a2.79 2.79 0 00-.02.48zm.33-7.2v-2a10.11 10.11 0 000 2zm.21 17.41v-.37a1.46 1.46 0 000 .41zm0-21.8c0 1.17.09.54.06 1.34a5 5 0 000-1h-.05l.05-.81v.08-.99a9.88 9.88 0 00-.16 1.48c.06-.05.08-.08.09-.06zm0 6.49c.06-1.11.07-2 0-3a2.17 2.17 0 01.1-.28v3.9c-.05-.45-.07-.72-.15-.58zm25.32 20.73c.7 0 .48-.06 1.08-.06 0-.06-.79-.06-.92-.11-.35 0-1.48 0-1.38.08a4.73 4.73 0 011.22.09zm-.41.51c.3 0-.21 0-.31-.06-.68.07-1.1 0-1.58.08.61.05 1.49-.06 1.89-.02zm30.41.61h-.24.62zm-.89 0c-.6 0-1.62-.11-2.51-.07.72.1-.32 0-.55.08h3.06zm-28.86-1.34h-.09c.04 0 .14.03.09 0zm11 1.2c-.22-.09-.08.09-.79 0 0 0 .39-.07.58-.1h-.9c.51.12-.11.18-.62.24h1.81c-.28-.01-.35-.06-.1-.14zM86 75.26l.08-.05H86s.06.02 0 .05zm8 0c.81.07.28-.06 1.09 0 .06 0-.07 0-.2-.06h-.44zm-22.07 0c-.34 0-.59 0-.94-.06h-1.06a13.14 13.14 0 001.99.07zm41.34.7h-.2l-.28.06h.51zm-46.2-.56c-.61 0-.38 0-.87.09h.4c.4.03.47-.03.46-.08zm31-.2h-.17a.26.26 0 00.15.01zm8.71 1.08l.2.07s-.09-.05-.22-.06zM103 76h.46a1.77 1.77 0 00-.46 0zm.5 0h.05zm7.46.25v-.06c-.1.02-.13.04-.04.06zm-3.22.41a16.24 16.24 0 001.74.2h-.21c-.09 0 .22 0 .42.07h-2.5c1.23-.3-2.23-.16-1.68-.4l-1.08.06.18-.09h.88a24.8 24.8 0 00-3.16-.07l.49-.07a5.71 5.71 0 00-1.16 0c-.32 0-1.55 0-1.75-.09.9 0 1.17-.1 1.79 0 .19 0 .16-.17-.23-.14.3 0 .67-.13 1.46-.16h1.23H103l.41.07h1.28-.17.07a.55.55 0 01.31 0c-1.09.06-1.62-.09-2.51-.1h-.3c.82.07.33.15 1.35.22.78-.07-.51-.06 0-.12.32.11 1.61.07 1.92.13-.2 0 .09-.09-.52-.09l.58-.09c.61 0-.09 0 .12.08s.54.07.84.07h.3-.55.63s.06-.09-.43-.07L107 76a10.24 10.24 0 00-1.43-.14h.65l-.77.12c.39-.05-.64-.16-1-.11l.39-.08h.16-.21.69c.69 0 .58-.1.27-.15a2.31 2.31 0 01-1.12-.11h-1.29c-1.51-.05-1.23-.16-2.44-.21-.09 0 .21 0 .41.07-1.1 0-2.18.06-3.3-.07h.11a5.9 5.9 0 00-1.41 0c-1.13-.2 2.48 0 1.37-.19h.35-.15 4.77c-.21 0-.18 0-.06-.06h8.02c.19 0 .3 0 .49.06h1.01l.2.2a6.48 6.48 0 01-.75 0l-.43.07v-.09c-.35 0-.63-.07-1.07-.09h-.09.6c-.2 0-.59 0-.48.08h.59c-.78.08-1.88.07-2.57.13 1.6 0 .16.23 1.46.28a13.58 13.58 0 011.66 0 4 4 0 01.6 0h-2.33a8 8 0 001.11.17h.9-.55l1.09.12h1.12l.31.31h-.32c-.5-.08-1.88 0-2-.08a35.55 35.55 0 01-3.83-.18 13.6 13.6 0 00-2.26.08c.68 0 1.2.12 2.28.14.5 0 .28-.06.58 0s-.64.34-.63.39zm2.92-1h.9-.61zm0 1.17h-.84c.28 0 .38.08.72.1h.42c-.13-.02.42-.03-.33-.08zm-3.66-.3c.19 0 .49 0 .68-.07h-.9zm-53.48-1.32h-2.16a.34.34 0 01-.15 0 11.84 11.84 0 002.31 0zm51.26.61zm-3.09.54h-.07.07zm8.1.51zm-6.88-.42h.8l-.11-.06zm10.76.2v.06s.04-.04 0-.06zm-1.77-.49h.5c-.15.01-.32.01-.5 0zm-30.9.78zm-5.32 0zM74 76zm3-.13zm9.87-.51l.22.12c.33.04.5-.1-.29-.08zm-8 .62a.78.78 0 00-.28 0zm-4.42.02a18.61 18.61 0 002.75.27c.08-.09.69 0 .37-.15 1.09 0 .41.07 1.12.11-.23-.05-.36-.13-.22-.15-.36 0-.48-.07-.73-.08H78c-.58 0-1.6 0-1-.11a2.55 2.55 0 01-.9 0s-.19 0-.18.1c-1.1 0-2.82-.16-2.88 0h1c.8.01-.28-.05.41.01zm20.7.65c-.29 0-.18.05-.27.08.8-.03.38-.1.27-.13zm.21-.42H95c-.16 0-.62-.06-.62-.07a3.13 3.13 0 00-.6 0c-.1 0 .9.08 1.22.13.07 0 .06 0 0 0h.79zm-4.18-.41h1.1zm1.76.69l-.34-.18-1.07.14a5 5 0 011.41-.01zm-2 0l-.42-.09-.08.08c.31-.03.42.03.56-.01zm-11.38.11l.38-.12a4 4 0 001.3 0 20.3 20.3 0 00-2.71 0c-.91-.06-1.09 0-1.9 0l-.12-.08c-.8 0-.18.12-.08.13 1.18-.1 1.43.14 2.41.06a3.33 3.33 0 01-1.17.08c-.49.08 1.5 0 1 .16h-.49c.3 0 .6 0 .41.09a4.78 4.78 0 00-1.28 0h.3-.05 3.23c-.14-.07-.7 0-1.11-.14h.7c.38-.07 1.48 0 1.47-.11a11.77 11.77 0 01-2.28-.09zm6.06.34a.71.71 0 00-.31 0h-.89a11.19 11.19 0 001.21-.02zm-2.31-.62zM80.43 76h.81s.38-.07-.12-.08c.12.08-.8-.05-.69.08zm3.65.08l-.08-.15c-.38.09-.5 0-1.2 0l.72.1a2.26 2.26 0 01.56-.03zm-11 .32h1.55a9.24 9.24 0 001.23 0c-2.67 0 .68-.28-1.8-.37.88.06 0 .23.55.32h-1.34zm11.8.13c.57-.12-1.09 0-1-.06l-.48.08c-.09-.05 0-.12 0-.16-.3 0-1.11-.09-.92-.13H80.9a18.79 18.79 0 003.16.31 1.29 1.29 0 01.8-.08zm-7.15-.68c.38-.1 1.21 0 1.69 0 0-.14-2.09 0-2.23-.16H75.1l.41.1a8.21 8.21 0 002.2.02zM65 75.21h-.29.27zm12.4 1.7a1.69 1.69 0 00-.4.09zm3.63 0h-.09.06v.03zm-4.29 0zm4.56-.51h.29a.92.92 0 00-.34.06zm1.21-45.61h.2l-.71-.05zm8 1.14h-.89.71c.16.13.55.07.15.07zm-1.55.12a10.24 10.24 0 001.1 0L88.79 32c-.48 0 .02.05.14.11zm2.9-.39h.7-1.41zm-3.13.37c.06.08.1.07-.03.06zm-.18-.28s.01.06-.03.06zm19.28 0h-.22l-.47.08zm-58.58.37h.71c-.65-.04-.69-.01-.74.02zm16.11 0h.36-.29zm22.33-.33a2.47 2.47 0 00.86 0 4.79 4.79 0 00-.89.02zm26.72-1.33a.64.64 0 000-.09h-.14c-.18.04-.27.09.11.11zm-25.82 1.68h.13zm10.59 0h-.49c-.62-.09-.13-.13-.83-.14l.33.15h1.42zm-48.53-1.4h.79-.6zm35 .39h-.57a3.37 3.37 0 00.59-.05zm10.57-.66a1.57 1.57 0 01.61 0l.11-.06h-2.45l2.06.09c-.2-.05-.3-.06-.31-.08zm-16.47 1.16c-.69 0 .12.08.23.12.49-.02.08-.09-.23-.12zm-5.08-1.25zM93.5 76.32c.79-.08.53.1 1.41.06a4.31 4.31 0 00-1.41-.06zm-7.83-45.24a5.15 5.15 0 001.45.09c.59-.05-.63-.15.57-.15l-1.32-.1c-.69-.01-.37.14-.7.16zm-5.46.9c-1 0 .08-.08-.12-.1H78.9c0 .15.91.08 1.53.2h-.41.61a1.39 1.39 0 01.38 0h-.38c.86-.18 1.62.13 2.68 0C82.5 32 81 32 80.21 32zm5.46-.1a4.59 4.59 0 00-.8 0 4.2 4.2 0 00.8 0zm-4.5.26h-.16.15zm1.83 0zM53.21 76.71c-1.23.28-1.31-.06-2.75.2l-.61-.07.27.06a8.88 8.88 0 01-1.18-.07l.22.09h-.71.12-.25 5.74c-.52-.05.75-.16-.85-.21zm15.61-.18l.52.06-.62-.09zm-9.69-.59c.8 0 0-.09 0-.12zm10.84 1h-.35 2.22a18.4 18.4 0 00-1.84-.01zm-12.65-.14h.13zm.3-.47c.2 0 .41.07.62.11a8.07 8.07 0 00-.89 0c.22.09 1.19 0 .91.1.4 0 .39-.07.47-.18a3.67 3.67 0 01.8 0l-.38.12a3.32 3.32 0 011.54.19c-.14-.1.22-.14.68-.15s.73 0 1.27 0h-.27c.34 0 .56-.06.44-.15-.5 0-.42-.14 0-.14l-1.51-.1a40.45 40.45 0 01-4.56.15l-.74-.07h1.28c-.42-.14-.87.09-1.49 0a4.82 4.82 0 001.73.2zm9.73.27a2.84 2.84 0 01.77-.12 3 3 0 01-1.06-.1c.1 0 0 .06.06.07a4.74 4.74 0 01-.79 0l-.13-.13c-.49 0 .43.17-.77.15-.08.13 1.5.03 1.92.13zm41.29-45.06a5.62 5.62 0 01-.91-.1l-.28.08a9.45 9.45 0 001.19.02zM63 75.82l.58-.07h-.31zm1-.19a8.56 8.56 0 001.09 0c-.91-.08-1.18.08-2 0a3.79 3.79 0 00.7.07 1.62 1.62 0 00.71.17c.02-.2.1-.2-.5-.24zm3.11.75h-.17zm-9.26.39h-.35zm5.41-.41h.41l.17-.12c.35.04-1.35.04-.63.12zm-6.18.5a7.86 7.86 0 01-1.74 0c-.07 0-.39.12.07.13h.43zm-1.81-.06h.07-.12zm57.7-44.87l.16-.16c-.13.04-.46.11-.21.16zM64.68 75.34a6.75 6.75 0 00-1.1 0 8.22 8.22 0 001.1 0zm44.71-43.48v-.09h-.69zM57.32 76.8c-.21 0-.4.07-.19.1s.15-.07.19-.1zm3 .1h.47a2.83 2.83 0 00-.52 0zm.44-.08h-1.94c.21.07.11.09-.49.06a10.2 10.2 0 001.94 0h-.14zm4.41.15zm-1.56-.11h.28zm1.12-.08zm-3.89.22h-.1.26c-.22-.09.89 0 .27-.13a18.32 18.32 0 012.14 0h.13c-.24 0-.49-.07-.61-.1l1 .07c.16-.19-1-.09-1.05-.28l.72.11.48-.09c.1 0 .32.11 0 .14 1.32.11 1.38-.07 3 0-1 .12 1.81.06 1.13.17a3.39 3.39 0 01.71 0c-.71-.07-.82 0-1 0h.25zm-12.52 0h-.23a.71.71 0 00.23-.06zm-.75 0h.52c-.09-.1-.09-.15-.52-.1zm-2-.14l-.09.09c.22 0 .31.08.38.07.27-.15-.04-.21-.25-.26zm18.92-.27h-.19l.11.06zm2.61-44.91zm1.1 0h-.83a2.09 2.09 0 00.83.01zm7.29.3zm-23.61-.08c0 .05-.68.09-.07.13a7.35 7.35 0 011.13-.1 3.48 3.48 0 00-1.06-.03zm5.59-.41l-.11-.08-.28.08zm42.46-1.07h-.7c-.09 0 .11.06.21.07zm-42 .66l-.28.08h-1.3l.71.08a13.66 13.66 0 011.7 0c-.53-.06.03-.18-.86-.16zm1.89 1L59 32l.71.06zm-1.41-.53h1.79c-.22 0-.43-.12-.14-.18h-1.3.41c-.17-.01-1.17.04-.79.13zm17.08.45h-.25.25zm22.2-.39a3.05 3.05 0 00.82 0 4.11 4.11 0 00-.82-.01zm.82 0zm1.13-.17c0 .05-.49 0-.48.08h1zm-2.3.42zm-10.51.26zM76.24 32h-.69c.18 0-.3.06-.39.09 1.1.03.38-.09 1.08-.09zm-1.8 0a5.38 5.38 0 011.09 0l-.42-.07h.49a3.07 3.07 0 00-1.16.07zm25.11-.1l-1.12-.1a6.43 6.43 0 01-1.09.07 17.11 17.11 0 002.21.03zM85.8 32l1.35.07h.36-.23.47c-.35 0 0-.06.07-.11L88 32h-.18a1.46 1.46 0 00-.34 0 2.65 2.65 0 01-.38.05H87a4.84 4.84 0 01-1.08-.09c.17.04-.92.04-.12.04zm1.68-.52s-.48.08.22.07c-.01-.02.09-.05-.22-.06zm-34.54.44a4.47 4.47 0 00.52 0 3 3 0 00-.52.01zm7.32-1.06h.07c-.12-.01-.12 0-.07.01zm-9.34.2a2 2 0 00.51 0h-.51zm-2.07.12zm-.62-.12c-.21.07.06.1.47.11-.46-.04.54-.09-.47-.1zm22.71.75zm6.72-.61zm-3.2-.48c.12.06-1 .1-.07.13-.31-.07 1.09-.05.07-.12zm-.09.5l.77-.1a4.52 4.52 0 00-.9 0zm-4.94-.79h-1.2c-.09 0 .22.07.52.1-.32-.12.6-.03.68-.09zm2.2.55h-.7l.61.07zm19.37.67h-.8c1.19-.06-.32-.11-.14-.18l1.12.08c.39 0-.32-.11.47-.11l-1.61-.12.12.11h-1.4c.81.05-.08.06-.37.1a9.31 9.31 0 002.61.12zm5.22-.29h-.3c-.22-.07.29-.06.58-.07l.72.11c.22.09-1.19 0-.88.06.52.1 1.68 0 1-.1h1.19c-.1 0-.5 0-.31-.06h.39c-.92-.1-3.19 0-4.49 0h.7l-1.07.13c.87-.13 1.68-.06 2.48-.07zm-46 .65h.89l-.5-.06c.18-.03-.81.05-.4.05zm42.5-1.32h.8-.8zm-28.24-.08h.77a4.84 4.84 0 00-.78 0zm-14.89-.18a2.34 2.34 0 01-.89 0l.12.1c1.11 0 1.13-.09.93-.17h-.15s.01.05-.02.07zm12.93.08l.17.13.47-.05h.43c-.03-.11-.53-.1-1.08-.08zm1.38.1c.31 0 .58.07.53.1.55-.07.56.15 1.37 0l-.55-.07a10.34 10.34 0 001.57 0c-.95-.02-2.09-.05-2.93-.03zm9.77.95c.18 0 .27 0 .12.09 1.23 0 .44-.07.34-.13a2.32 2.32 0 00-.47.04zm4.8-.06h-.67l-.05.08c.25-.03.47-.06.71-.08zm-2.06.05h-.06.07zM62 31a4.31 4.31 0 01-1-.17 2.45 2.45 0 001 .17zm-1.71-.14h.1c.08 0 .1-.07 0-.1-.32 0-.52 0-.52.07a1.93 1.93 0 00.41 0zm-.29-.08zm-.42 0zm3.94-.13h-.37.6zm-14.34.45h.13zm12.3-.69h2.71l-.08.09c1.46.16.7 0 1-.1h1c0 .06-.43.13.18.16a3.23 3.23 0 00.69 0 3.59 3.59 0 011.08 0h-.77c-.44 0-.09.15-.08.23.7 0 .56-.17 1.38 0-.31-.11-.24-.21.35-.29l1.81.09c-.59 0-1.39 0-2.18.08 0 .1.76.3-.22.37a11.19 11.19 0 002.12.13l-.11-.06.71.17c.19 0 .46-.06.16-.07.29 0 .28.05 0 .09h-.33c.71 0 1.82.11 2.41.06H73h3.6c.17-.12-.44-.17-.95-.23a8.15 8.15 0 011.6.06 8.27 8.27 0 002 .15h-.5.26a12.1 12.1 0 011.65 0c.31.08 1.8 0 1.72.12-1.42-.11-3 .16-4.29 0a8.32 8.32 0 01.83.14l-.87.11c-2.24-.21-2.68 0-4.81-.11 0 .12 1.14.2.56.28a5.37 5.37 0 01-1.21-.05h1.2a26.32 26.32 0 00-2.79-.1l-.06.09c-.06-.09-1.82-.07-2.06-.15h-.09l-.71-.06c.5 0 .29-.06.38-.1h-1l-.61.07a9.73 9.73 0 00-2.11-.1h-.12c-1.14 0-.81-.07-.49-.13-.73 0-1.52-.05-2.14-.1l.32.08h-1 .39a19.57 19.57 0 00-2.42-.12c-.32-.1.4 0 .7 0-.24-.07 0-.13.23-.2h-.09a6.08 6.08 0 01-1.88.07c-.21-.05.19-.05.18-.1a9.43 9.43 0 011.2 0l-.09-.09h-3.8l.18-.09c-.29.06-1.7 0-2.08.06l-.13-.15a1.33 1.33 0 00-.68.11l-.21-.07c.23.14-1.05.23-.23.34h1.19c.51 0-.69 0-.68.09h2c.89 0 1.12.11.74.18-.8 0-1.91-.05-2.61 0-2 0-.6-.14-1.8-.17.37-.14-1.23 0-1.06-.17-.4 0-1.26.15-1.39 0h.6a3.19 3.19 0 00-.51-.15h-2.72c.55.27 3.32.14 4.06.37v-.05c.39.07.22.06 0 .06h.12-1.47c-.17 0-.17-.06 0-.12-.6 0-1.49 0-1.07.11a7.35 7.35 0 00-.92-.09H47l.42.07c-.07 0-.43 0-.55-.07h-.63l-.22-.21-.16-.16h2.86v-.07c.7 0 .92.12 1.72.17 1.79-.05 2.44-.26 4.34-.25h-.41l1.32.05c.57-.12-.72-.06-1.23-.14a20.05 20.05 0 01-2.69 0c-1.07.08-1.22 0-1.33-.05h9a1.67 1.67 0 00.6.13H59a3.86 3.86 0 00.82.08h.08c.7 0 .69 0 .68-.08h1.12a2 2 0 01-.52-.07zm29.36.15h.5c.18-.07-.41-.07-.82-.09.36.01.26.05.27.07zm-27.64.05h-.07zM85.21 32h-.62s-.06-.05-.4-.05l.16.07-.22.08a2.73 2.73 0 00.8 0l.36.06h.76c.04-.08-.75-.16-.84-.16zm-31.52 0l-.12-.09v.05h-.12a.85.85 0 01.24.04zM99 76.11a5.39 5.39 0 00.79-.07c-.47-.04-.66.01-.79.07zm-31.33-.48h-.58.39a1.52 1.52 0 01-.33 0h-.29.45a4.07 4.07 0 00-.63 0c.48.07.73 0 1.03 0zM58 75.35c-.61 0-.42-.07-.56-.12.09.06-.52.14.56.12zm9.7.28h.33zm-15.59.65l.52.09h.1l.36.07c-.24-.1.1-.21-.97-.16zm13.21.12H64.1a4.54 4.54 0 001.23 0zm-14.42.33l-.28.08h.19zm14.42-.33zm1-1a5.82 5.82 0 01-.69 0c-.23-.14.89-.06 1.48-.09a12.26 12.26 0 00-2.27 0c.13 0 1 .07.7.13a3.46 3.46 0 01-.6 0h1.11zm1.88.55a2.39 2.39 0 00.8.05 3.64 3.64 0 00.75.08l-.62-.08a12.38 12.38 0 011.74 0l.07-.13c-.4 0-.08.08-.18.12a14.12 14.12 0 00-1.41-.08 2.29 2.29 0 00-.48 0h-1.52s.11.06-.18.07h-.41c-.38.09.71 0 .62.11a7.8 7.8 0 011.27-.11h.07l-.15.06zm-3.36-.6zm2.56.43l-.7-.12a.79.79 0 01-.21.06zm2-.6h-3.28c0 .19 2.09 0 2 .12.37-.03.88-.04 1.26-.09zm-2.83.46h.13-.13zm1-.11zm2.34-.13l1 .11c.05 0-.08-.05-.12-.08a5.65 5.65 0 00-.93 0zm2.67 1.44h-.55a2.36 2.36 0 00.5.03zm-1.27-1.42h-.5a2.91 2.91 0 00.45.03zm-13.89-.24h.08-.05zM71.85 77h1.55s-.09-.07-.51-.09a1.63 1.63 0 011 .06h-.27 1.12c.25-.06.31-.1.17-.16a6.9 6.9 0 01-1.2 0h.69l-.92-.1-1.32-.16.78-.07c-1.09 0-2.51-.1-3.5 0h1.51l-.69.06c.12.08 1.09-.06 1.5 0a5 5 0 001.29.2c-.3 0-.25.1-.48.11h.26c-.53.07-.71.15-.98.15zm25.22-.87h.57l-.41-.13c-.07.05-.02.08-.16.1zm16.26-44.58zm-.46.46c-.65-.06-1.41 0-2.11 0l-.27.16a3.11 3.11 0 011-.1v.07h.51l-.5-.08c.42-.06.89-.06 1.37-.06zm-6.2-1.15h-.09c-.3 0-1 0-1 .07a2.61 2.61 0 01.45 0c-.42.09.28.1.67.16h-.49a13.65 13.65 0 002.11.07h-.09 1.17a7.61 7.61 0 001.07 0 1.17 1.17 0 01-.27 0h.41a4.69 4.69 0 00.75 0c.1 0 .11.11 1.06.09a5.72 5.72 0 00.9-.09h.58l.36-.36h-1.12c-.21-.05-.91-.08-.23-.17-.86-.05-2.63.18-3.12 0l-.85.05c1.09 0 1.42.11 2.22.13-1.8-.09-2.84 0-4.49.02zm3.75.22zm-1.09 0zm-12.26 45zm12.56-45.56h.2zM98.22 76.61c.82.11 2.08-.07 1.37-.13-.38.1-1.71 0-1.37.13zm2.53-46.12c-.39 0 .62.11.41.07.09-.04.18-.1-.41-.07zM54.48 76.55zm7.41-.76zm33.34.68a6.22 6.22 0 00-1.3 0c.41.01.9 0 1.3 0zm.51-.92c0 .07.23.17-.67.16-.21-.07-.13-.16.35-.22a3 3 0 00-1.16.15c-1.21-.09-3.29 0-4.2-.06v-.1l-.38.07c.52.13 1.39 0 2 .12s.9 0 2-.06c-.19 0 0 .1-.59.08a7.38 7.38 0 001.19 0c.7 0 .52.08.73.13h-1.9c.83.12-1 .08-.87.11a7.69 7.69 0 002 .07c-.4 0-.61 0-.52-.08.8 0 1.63.16 2.62.13.08-.11-.52-.13-.74-.2 1.8 0 2.79 0 4.4.06h-.11H101a33.56 33.56 0 00-4-.2c.5 0 .11 0-.09.06s-1.06-.14-1.17-.22zm-45.74 0h-.28zm-2.22-.2h.1-.19zm9 .67l-2.66.19c-.4 0-.51-.06-.32-.11-.89 0-1.21-.07-2.19 0l.58-.07c-1.12-.08-.78.1-2.29 0l.12.08h-.51a4.17 4.17 0 01-1.38.09l.13.13c-.5 0-.33-.12-.93-.12-.39 0-.58.09-.27.13h-1l1-1h.55c.22 0 .59 0 .86.06.09 0-.12-.08.25-.09.06 0 0 .08 0 .12s.07 0 .06 0h.38c.56-.15 2-.06 2.76-.13l1 .09-.78.1h.4c-.66.2-.82-.09-1.79 0l-.06.16H50c-.09.06.23.14.53.15a7.83 7.83 0 001.06-.18 1.27 1.27 0 00-.41 0c1-.13.12.08.91 0-.31-.06.38-.09.67-.13a9.44 9.44 0 002.11.05l.81.1.48-.09c.51.12 2.57-.15 3.31 0a8 8 0 011-.08c.7 0 0 .12.92.13-.32-.13 1 0 1.49-.07.08.09-.85.14-1.15.16l-.83-.06c.22.07-.59 0-.28.11-1.2 0-1.8 0-3.51-.12.11 0 0 .07.22.1h-1.32a7.2 7.2 0 001.85.18l-1.21.1zm55.37-44.45a5.72 5.72 0 001.17-.05 2.86 2.86 0 00-1.19.05zM54.86 76.48l-.86-.09h-.1l.82.09zm-.45-.21h-.39.41zm-1 .2h-.26a1.08 1.08 0 00.21 0zm.7.09c-.2 0-.16.08-.36.09-.5-.07-.09-.08.31-.09z"/><path d="M56.93 74.85c0 .2-.12.36-.27.36h-5.88c-.15 0-.27-.16-.27-.36a.5.5 0 01.14-.36h5.88a.35.35 0 01.4.36z" fill="#eebdb5"/><path d="M73.25 74.85c0 .2-.12.36-.27.36H67.1c-.15 0-.27-.16-.27-.36s.12-.36.27-.36H73c.13 0 .25.16.25.36z" fill="#bae2df"/><ellipse class="cls-14" cx="63.96" cy="74.84" rx=".24" ry=".35"/><path class="cls-14" d="M73.25 74.85c0 .23-.09.35-.25.35s-.25-.12-.25-.35.08-.36.25-.36.25.12.25.36z"/><path d="M45.36 77l.52.53H115l-.76-.53zm2-1.73h.53V32.66l-.53-.52zm65.23-43.12H47.37l.53.51h64.69zm1.93-1.74l.53.52V77.5l-.76-.53z" opacity=".2"/></g><g id="Lehrerin_2" data-name="Lehrerin 2"><path class="cls-18" d="M75.77 30.54A3 3 0 0172.65 33a3 3 0 01-3.13-2.4c-.43-2.05 1.37-2.68 3.09-2.69s3.66.55 3.16 2.63z"/><path class="cls-19" d="M75.32 31.11A2.43 2.43 0 0172.81 33a2.39 2.39 0 01-2.53-1.83c-.35-1.57 1.11-2.05 2.5-2.05s2.95.4 2.54 1.99z"/><path d="M77.23 42.9a.44.44 0 01-.38-.53l.69-2.37a.54.54 0 01.64-.32.44.44 0 01.38.53l-.69 2.34a.54.54 0 01-.64.35zm-9.38.1a.55.55 0 01-.64-.31l-.73-2.33a.44.44 0 01.38-.54.54.54 0 01.64.31l.73 2.33a.44.44 0 01-.38.54z" fill="#ffcbba"/><path class="cls-19" d="M68 43.55A23.76 23.76 0 0166.75 37a4.07 4.07 0 014-4.65h3.75a4.07 4.07 0 014 4.75 23.27 23.27 0 01-1.45 6.35z"/><path d="M76.73 49.29l-8.1-.29-2.51 1c-1.35.56-2.29 2.17-1.6 3.46 1.73 3.2 2.72 14.36 1.41 17.47l14.31-.07c-2.29-3.1-1.38-14 .4-17.07.71-1.24-.22-2.83-1.51-3.44z" fill="url(#linear-gradient-2)"/><path d="M72.8 53.75s-2.76-2.5-2.75-4.11v-4.29h5.24v4.3c-.01 1.57-2.49 4.1-2.49 4.1z" fill="url(#linear-gradient-3)"/><path d="M73.83 47.65a2.23 2.23 0 01-2.27 0c-1.47-.86-3.75-3.38-3.73-5.67L67.68 39a4.09 4.09 0 014.06-4.1h1.55a4.09 4.09 0 014.09 4.1l-.2 2.88a7.15 7.15 0 01-3.35 5.77z" fill="url(#linear-gradient-4)"/><path class="cls-3" d="M70.03 47.64l-1.69 1.57 2.32 7.85 2.01-3.55-2.64-5.87z"/><path class="cls-24" d="M75.27 47.78l-2.89 5.86L75 56.81l1.91-7.53-1.64-1.5z"/><path class="cls-25" d="M68.72 40.46l-1.17.01-.41-1.06h1.58v1.05z"/><path class="cls-25" transform="rotate(-.26 74.835 39.836)" d="M71.75 39.61h1.58v.6h-1.58z"/><path class="cls-26" d="M71.33 41.55h-2.42a.68.68 0 01-.67-.7v-1a.58.58 0 01.56-.6h2.34a.91.91 0 01.89.94v.58a.72.72 0 01-.7.78z"/><path class="cls-25" d="M76.73 40.48l.99-.01.59-1.06-1.58.01v1.06z"/><path class="cls-26" d="M74.5 39.25h1.4a1.06 1.06 0 011.1 1.06 1.22 1.22 0 01-1.22 1.22H74a.84.84 0 01-.84-.84v-.13a1.32 1.32 0 011.34-1.31z" transform="rotate(180 75.17 40.215)"/><path d="M71.1 40.76a.59.59 0 000-.14c0-.32-.38-.57-.85-.57s-.84.26-.84.58a.59.59 0 000 .14zm4.74-.02a.32.32 0 000-.14c0-.32-.39-.58-.85-.57s-.85.26-.85.58a.32.32 0 000 .14z" fill="#a9dff9"/><path class="cls-28" d="M78.58 52.24l6.88 7 5.37-10.6"/><path class="cls-18" d="M73.73 33.85a8.24 8.24 0 00-.79.67 3.2 3.2 0 012.21 3 3.46 3.46 0 01-.13.92 3.19 3.19 0 00-1.29-4.62z"/><path d="M70.67 44.38c0 .78.91 1.4 2 1.39s2-.63 2-1.4z" fill="#86283c"/><path d="M72.94 45.25a4.53 4.53 0 00-1 .22l-.29.13a2.73 2.73 0 002.48-.22 2.73 2.73 0 00-1.19-.13z" fill="url(#linear-gradient-5)"/><path d="M65.85 70.92c-2.84 5.12.38 13.16.38 13.16L80.66 84a15.5 15.5 0 00-.41-13.15z" fill="url(#linear-gradient-6)"/><path class="cls-32" d="M94.36 43.63l-3.2 1.22a.55.55 0 00-.22.14 2.32 2.32 0 00-1.24.7 2.66 2.66 0 00.11 3.62 2.37 2.37 0 003.46 0 2.49 2.49 0 00.65-1.94l1.13-.37a.77.77 0 00.32-1 .81.81 0 00-.82-.62l.41-.16a.79.79 0 00.35-1 .79.79 0 00-.95-.59z"/><ellipse class="cls-18" cx="72.66" cy="33.83" rx="4.72" ry="1.83" transform="rotate(-.27 72.07 34.123)"/><path class="cls-32" d="M62.41 76l3-.72a.62.62 0 00.22-.1 2.35 2.35 0 001.39-.6 2 2 0 00.43-2.58 2.29 2.29 0 00-3.24-.49 2.13 2.13 0 00-.87 1.5l-1.06.21a.63.63 0 00-.43.77.64.64 0 00.63.57l-.38.09a.67.67 0 00-.47.81.67.67 0 00.78.54z"/><path class="cls-28" d="M65.95 52.37l-5.53 9.48 4.91 9.22"/></g><rect x="23.44" y="81.86" width="114.21" height="5.67" rx="1.41" ry="1.41" fill="#5591a8"/><path d="M26.48 83h33.3v3.53h-33.3a.87.87 0 01-.87-.87v-1.78a.87.87 0 01.87-.87z" fill="#ec9134"/><circle class="cls-24" cx="80.49" cy="57.28" r="10.54"/><path fill="#666" d="M78.42 51.55l7.15 6.12-7.15 6.13"/></g></g></svg>