<svg xmlns="http://www.w3.org/2000/svg" viewBox="0 0 368.45 253.74"><defs><linearGradient id="linear-gradient" x1="-460.12" y1="141.46" x2="-460.12" y2="277.87" gradientTransform="matrix(-1 0 0 1 -206.58 0)" gradientUnits="userSpaceOnUse"><stop offset=".11" stop-color="#006192"/><stop offset="1" stop-color="#201e1d"/></linearGradient><linearGradient id="linear-gradient-2" x1="-153.88" y1="218.33" x2="-153.88" y2="141.69" gradientTransform="matrix(-1.02 -.01 0 1 91.3 -18.58)" gradientUnits="userSpaceOnUse"><stop offset=".36" stop-color="#ffd8ca"/><stop offset="1" stop-color="#ff9676"/></linearGradient><linearGradient id="linear-gradient-3" x1="2007.19" y1="26.5" x2="2007.19" y2="259.59" gradientTransform="translate(-1766.86)" gradientUnits="userSpaceOnUse"><stop offset="0" stop-color="#ffe6dc"/><stop offset=".81" stop-color="#ff9676"/></linearGradient><linearGradient id="linear-gradient-4" x1="-449.99" y1="122.02" x2="-430.56" y2="122.02" gradientTransform="matrix(-1 0 0 1 -206.58 0)" gradientUnits="userSpaceOnUse"><stop offset="0" stop-color="#fb3847"/><stop offset="1" stop-color="#86283c"/></linearGradient><style>.cls-2{fill:#f2b271}.cls-3{fill:#e87601;opacity:.59}.cls-4{fill:#f9bc3d}.cls-5{fill:#fcd466}.cls-6{fill:#201e1d;opacity:.07}.cls-7{fill:#ed973e}.cls-12{fill:#fed9ae}.cls-21{fill:none;stroke-linecap:round;stroke-linejoin:round}.cls-18{fill:#78acc5}.cls-20{fill:#5495b6}.cls-21{stroke:#006192;stroke-width:24.7px}.cls-23{fill:#ffb299}.cls-26{fill:#bc5a21}.cls-28{fill:#86283c}.cls-29{fill:#fff;stroke:#86283c;stroke-miterlimit:10;stroke-width:4.19px}.cls-31{fill:#ffc9b8}.cls-32{fill:#6eb9e0}</style></defs><g id="Layer_2" data-name="Layer 2"><g id="Kid_1" data-name="Kid 1"><path d="M72.75 20.06h12.14a2.76 2.76 0 012.76 2.76v52.55H70V22.81a2.76 2.76 0 012.75-2.75z" fill="#ec8d2c"/><path class="cls-2" d="M74.47 29.68h8.71v8.55h-8.71z"/><path class="cls-3" d="M86 20.06h-6.8v55.31h8.49V22A1.82 1.82 0 0086 20.06z"/><path class="cls-4" d="M118 26.85h12.14a2.76 2.76 0 012.76 2.76v52.55h-17.65V29.61a2.76 2.76 0 012.75-2.76z" transform="rotate(-25.52 124.068 54.51)"/><path class="cls-5" transform="rotate(-25.52 118.129 42.094)" d="M113.79 37.81h8.71v8.55h-8.71z"/><path class="cls-6" d="M118.59 26.48l-6.13 2.92 23.83 49.92 7.71-3.66-23-48.17a1.82 1.82 0 00-2.41-1.01z"/><path class="cls-4" d="M137.24 26.85h12.14a2.76 2.76 0 012.76 2.76v52.55h-17.65V29.61a2.76 2.76 0 012.75-2.76z" transform="rotate(-25.52 143.311 54.505)"/><path class="cls-5" transform="rotate(-25.52 137.372 42.088)" d="M133.03 37.81h8.71v8.55h-8.71z"/><path class="cls-6" d="M137.83 26.48l-6.13 2.92 23.83 49.92 7.66-3.66-23-48.17a1.81 1.81 0 00-2.36-1.01z"/><path class="cls-7" d="M89.91 9.28h14.5a3.29 3.29 0 013.29 3.29v62.8H86.62v-62.8a3.29 3.29 0 013.29-3.29z"/><path class="cls-2" d="M91.96 20.77h10.4v20.3h-10.4z"/><path class="cls-3" d="M105.68 9.28h-8.12v66.09h10.15V11.58a2.18 2.18 0 00-2.03-2.3z"/><circle cx="97.31" cy="65.09" r="4.36" fill="#ce741d"/><circle cx="97.31" cy="65.09" r="2.8" fill="#c86301"/><path d="M58.43 32.06h9.5a2.16 2.16 0 012.16 2.16v41.15H56.28V34.22a2.16 2.16 0 012.15-2.16z" fill="#f2b16e"/><path class="cls-7" d="M59.78 40.66h6.82v14.67h-6.82z"/><path d="M68.76 32.06h-5.31v43.31h6.64v-41.8a1.42 1.42 0 00-1.33-1.51z" fill="#e87906" opacity=".47"/><path class="cls-12" d="M46.31 75.38h137.56v1.51a10.17 10.17 0 01-10.17 10.17H56.48a10.17 10.17 0 01-10.17-10.17v-1.51z"/><rect x="299.77" y="48.91" width="63.52" height="79.78" rx="3.99" ry="3.99" transform="rotate(180 331.525 88.795)" fill="#ee9841"/><rect class="cls-12" x="307.34" y="58.42" width="48.37" height="60.75" rx="2.26" ry="2.26" transform="rotate(180 331.525 88.795)"/><path d="M307.34 66.8v-6.12a2.26 2.26 0 012.26-2.26h43.85a2.26 2.26 0 012.26 2.26v22z" fill="#fee6ca"/><path d="M64 224.17c-43.84-29.56-49.39-103.47 1.19-112.43" stroke="#4c91b3" stroke-width="7.78" fill="none" stroke-linecap="round" stroke-linejoin="round"/><circle cx="109.62" cy="150.4" r="12.11" transform="rotate(-7.12 109.643 150.43)" fill="#fedfbb"/><path d="M65.33 100.69h32.89v28.25a16.44 16.44 0 01-16.44 16.44 16.44 16.44 0 01-16.44-16.44v-28.25h-.01z" transform="rotate(134.44 81.769 123.042)" fill="#4a8fb2"/><path class="cls-18" d="M84 176.78c-.25-.22-.51-.45-.75-.68-10-9.83-6.58-29.56 7.66-44.09s33.92-18.35 43.93-8.53c.25.24.48.49.71.74z"/><path d="M65.76 107.46l31.91 31.29-11.46 11.68L66 130.65a16.44 16.44 0 01-.24-23.19z" fill="#3381a8"/><path class="cls-20" d="M90.86 132.07l18.86 18.49L84 176.78c-.25-.22-.51-.45-.75-.68-10-9.81-6.59-29.51 7.61-44.03z"/><path class="cls-18" d="M27.35 240.23c0-.23 0-.46-.05-.69-.09-9.62 16.33-17.54 36.7-17.77s36.92 7.43 37 17v.7z"/><path class="cls-20" d="M63.89 221.77l.18 18.11-36.72.35c0-.23 0-.46-.05-.69-.09-9.61 16.28-17.54 36.59-17.77z"/><path class="cls-21" d="M217.13 154.08v70.15l-34.52 5.01"/><path d="M149.4 232.85l13.48-14.46a3.4 3.4 0 011.22-.83 14 14 0 115.47 20.44l-4.44 5.2c-1.29 1.5-3.92 1.36-5.85-.32-1.82-1.58-2.37-4-1.36-5.5l-1.7 1.82c-1.51 1.62-4.27 1.52-6.15-.22-1.88-1.77-2.18-4.51-.67-6.13z" fill="#ffd8ca"/><rect class="cls-23" x="278.29" y="72.42" width="10.63" height="29.13" rx="5.32" ry="5.32" transform="rotate(-175.7 283.61 86.985)"/><rect class="cls-23" x="192.3" y="72.42" width="10.63" height="29.13" rx="5.32" ry="5.32" transform="rotate(180 197.221 87.253)"/><path d="M209.05 170.38c-4.6-16.8-3.56-32.62 14.86-33.79h48.61c15.16 0 24.23 6.9 27.81 21.65v89h-68.74z" fill="url(#linear-gradient)"/><path d="M234 165.84l22.94-16.61a17.28 17.28 0 007.14-14.29l-.55-30.56-29.53-.64z" fill="url(#linear-gradient-2)"/><ellipse class="cls-26" cx="208.93" cy="59.04" rx="16.93" ry="15.94"/><ellipse class="cls-26" cx="273.99" cy="58.34" rx="16.93" ry="15.94"/><path d="M199 41.49v52.59c0 18.75 15.19 36.33 33.25 40.33a54.57 54.57 0 0017 0c18.06-4 32.41-21.58 32.41-40.33V41.49a12.85 12.85 0 00-12.6-13.09h-57.45A12.85 12.85 0 00199 41.49z" fill="url(#linear-gradient-3)"/><path class="cls-26" d="M198.2 26.42h6.75v48.69h-6.75zm77.31 0h6.75v48h-6.75z"/><rect class="cls-28" x="263.26" y="71.09" width="19.04" height="7.98" rx="3.99" ry="3.99"/><rect class="cls-28" x="221.79" y="63.2" width="19.04" height="7.98" rx="3.99" ry="3.99"/><path class="cls-29" d="M207 65.17h19.48a2 2 0 012 2v10.25A11.37 11.37 0 01217 88.8h-8.52a11.37 11.37 0 01-11.37-11.37V75a9.81 9.81 0 019.89-9.83z"/><path class="cls-29" d="M246.81 65.17h8.52a11.37 11.37 0 0111.37 11.37v10.29a2 2 0 01-2 2h-19.45a9.81 9.81 0 01-9.82-9.83v-2.46a11.37 11.37 0 0111.37-11.37z" transform="rotate(180 251.065 76.98)"/><ellipse class="cls-26" cx="278.51" cy="33.57" rx="18.86" ry="17.75"/><ellipse class="cls-26" cx="204.73" cy="31.4" rx="21.61" ry="18.84"/><ellipse class="cls-26" cx="228.36" cy="15.23" rx="17.47" ry="15.23"/><ellipse class="cls-26" cx="256.48" cy="15.23" rx="17.47" ry="15.23"/><ellipse class="cls-26" cx="234.32" cy="27.7" rx="17.23" ry="15.02"/><ellipse class="cls-26" cx="254.18" cy="27.7" rx="17.23" ry="15.02"/><path class="cls-21" d="M287 155.27l29.59 71.19H271.3"/><path class="cls-28" d="M244 83.67a4.5 4.5 0 01-.18-1.22c0-2.8 2.71-5.07 6.06-5.07s6.06 2.27 6.06 5.07a4.5 4.5 0 01-.18 1.22zm-37.1-.11a4.08 4.08 0 01-.19-1.21c0-2.8 2.72-5.08 6.07-5.08s6.06 2.28 6.06 5.08a4.08 4.08 0 01-.19 1.21zM250.8 113v.26c0 6-7 10.94-15.64 10.94s-15.65-4.89-15.65-10.93V113z"/><path d="M233.12 119.9a33 33 0 018 1.72 20.73 20.73 0 012.3 1 20.69 20.69 0 01-8.25 1.65 19.4 19.4 0 01-11.17-3.33 21.69 21.69 0 019.12-1.04z" fill="url(#linear-gradient-4)"/><rect class="cls-31" x="228.83" y="218.31" width="31.01" height="8.97" rx="4.48" ry="4.48" transform="rotate(154.96 244.334 222.792)"/><circle class="cls-31" cx="259.7" cy="225.76" r="13.5" transform="rotate(-.78 259.975 225.818)"/><rect class="cls-31" x="235.84" y="224.4" width="31.01" height="8.97" rx="4.48" ry="4.48" transform="rotate(152.86 251.355 228.875)"/><rect class="cls-32" x="235.49" y="230.45" width="46.45" height="10.67" rx="5.34" ry="5.34" transform="rotate(180 258.715 235.785)"/><path class="cls-32" d="M143.93 245.87l-22.31-62.82a11.44 11.44 0 0110.77-15.27l94.42-.08a11.42 11.42 0 0110.79 7.61l25 70.45z"/><path d="M255.33 245.9l-28.39-78.2v.15a11.43 11.43 0 0110.76 7.61l25 70.48z" fill="#86c5e5"/><path d="M238.91 205.13H129.76L118.94 231c-1.46 4.51.35 8.74 5.09 8.73l96-.54c3.41 0 7.24-3.78 9.35-8.19z" fill="#a2d2eb"/><path d="M0 238.32h368.45v3.54a11.89 11.89 0 01-11.89 11.89H11.89A11.89 11.89 0 010 241.86v-3.54z" transform="rotate(180 184.225 246.03)" fill="#f4f4f4"/></g></g></svg>