<svg xmlns="http://www.w3.org/2000/svg" xmlns:xlink="http://www.w3.org/1999/xlink" viewBox="0 0 368.45 253.74"><defs><style>.cls-1{fill:#ec8d2c;}.cls-2{fill:#f2b271;}.cls-3{fill:#e87601;opacity:0.59;}.cls-4{fill:#f9bc3d;}.cls-5{fill:#fcd466;}.cls-6{fill:#201e1d;opacity:0.07;}.cls-7{fill:#ed973e;}.cls-8{fill:#ce741d;}.cls-9{fill:#c86301;}.cls-10{fill:#f2b16e;}.cls-11{fill:#e87906;opacity:0.47;}.cls-12{fill:#fed9ae;}.cls-13{fill:#ee9841;}.cls-14{fill:#fee6ca;}.cls-15,.cls-21{fill:none;stroke-linecap:round;stroke-linejoin:round;}.cls-15{stroke:#4c91b3;stroke-width:7.78px;}.cls-16{fill:#fedfbb;}.cls-17{fill:#4a8fb2;}.cls-18{fill:#78acc5;}.cls-19{fill:#3381a8;}.cls-20{fill:#5495b6;}.cls-21{stroke:#006192;stroke-width:24.7px;}.cls-22{fill:#ffd8ca;}.cls-23{fill:#ffb299;}.cls-24{fill:url(#linear-gradient);}.cls-25{fill:url(#linear-gradient-2);}.cls-26{fill:#bc5a21;}.cls-27{fill:url(#linear-gradient-3);}.cls-28{fill:#86283c;}.cls-29{fill:#fff;stroke:#86283c;stroke-miterlimit:10;stroke-width:4.19px;}.cls-30{fill:url(#linear-gradient-4);}.cls-31{fill:#ffc9b8;}.cls-32{fill:#6eb9e0;}.cls-33{fill:#86c5e5;}.cls-34{fill:#a2d2eb;}.cls-35{fill:#f4f4f4;}</style><linearGradient id="linear-gradient" x1="-460.12" y1="141.46" x2="-460.12" y2="277.87" gradientTransform="matrix(-1, 0, 0, 1, -206.58, 0)" gradientUnits="userSpaceOnUse"><stop offset="0.11" stop-color="#006192"/><stop offset="1" stop-color="#201e1d"/></linearGradient><linearGradient id="linear-gradient-2" x1="-153.88" y1="218.33" x2="-153.88" y2="141.69" gradientTransform="matrix(-1.02, -0.01, 0, 1, 91.3, -18.58)" gradientUnits="userSpaceOnUse"><stop offset="0.36" stop-color="#ffd8ca"/><stop offset="1" stop-color="#ff9676"/></linearGradient><linearGradient id="linear-gradient-3" x1="2007.19" y1="26.5" x2="2007.19" y2="259.59" gradientTransform="translate(-1766.86)" gradientUnits="userSpaceOnUse"><stop offset="0" stop-color="#ffe6dc"/><stop offset="0.81" stop-color="#ff9676"/></linearGradient><linearGradient id="linear-gradient-4" x1="-449.99" y1="122.02" x2="-430.56" y2="122.02" gradientTransform="matrix(-1, 0, 0, 1, -206.58, 0)" gradientUnits="userSpaceOnUse"><stop offset="0" stop-color="#fb3847"/><stop offset="1" stop-color="#86283c"/></linearGradient></defs><title>student_desk_1_1</title><g id="Layer_2" data-name="Layer 2"><g id="Kid_1" data-name="Kid 1"><path class="cls-1" d="M72.75,20.06H84.89a2.76,2.76,0,0,1,2.76,2.76V75.37a0,0,0,0,1,0,0H70a0,0,0,0,1,0,0V22.81A2.76,2.76,0,0,1,72.75,20.06Z"/><rect class="cls-2" x="74.47" y="29.68" width="8.71" height="8.55"/><path class="cls-3" d="M86,20.06h-6.8V75.37h8.49V22A1.82,1.82,0,0,0,86,20.06Z"/><path class="cls-4" d="M118,26.85h12.14a2.76,2.76,0,0,1,2.76,2.76V82.16a0,0,0,0,1,0,0H115.25a0,0,0,0,1,0,0V29.61A2.76,2.76,0,0,1,118,26.85Z" transform="translate(-11.38 58.77) rotate(-25.52)"/><rect class="cls-5" x="113.79" y="37.81" width="8.71" height="8.55" transform="translate(-6.61 55) rotate(-25.52)"/><path class="cls-6" d="M118.59,26.48l-6.13,2.92,23.83,49.92L144,75.66,121,27.49A1.82,1.82,0,0,0,118.59,26.48Z"/><path class="cls-4" d="M137.24,26.85h12.14a2.76,2.76,0,0,1,2.76,2.76V82.16a0,0,0,0,1,0,0H134.49a0,0,0,0,1,0,0V29.61A2.76,2.76,0,0,1,137.24,26.85Z" transform="translate(-9.5 67.06) rotate(-25.52)"/><rect class="cls-5" x="133.03" y="37.81" width="8.71" height="8.55" transform="translate(-4.73 63.29) rotate(-25.52)"/><path class="cls-6" d="M137.83,26.48,131.7,29.4l23.83,49.92,7.66-3.66-23-48.17A1.81,1.81,0,0,0,137.83,26.48Z"/><path class="cls-7" d="M89.91,9.28h14.5a3.29,3.29,0,0,1,3.29,3.29v62.8a0,0,0,0,1,0,0H86.62a0,0,0,0,1,0,0V12.57a3.29,3.29,0,0,1,3.29-3.29Z"/><rect class="cls-2" x="91.96" y="20.77" width="10.4" height="20.3"/><path class="cls-3" d="M105.68,9.28H97.56V75.37h10.15V11.58A2.18,2.18,0,0,0,105.68,9.28Z"/><circle class="cls-8" cx="97.31" cy="65.09" r="4.36"/><circle class="cls-9" cx="97.31" cy="65.09" r="2.8"/><path class="cls-10" d="M58.43,32.06h9.5a2.16,2.16,0,0,1,2.16,2.16V75.37a0,0,0,0,1,0,0H56.28a0,0,0,0,1,0,0V34.22A2.16,2.16,0,0,1,58.43,32.06Z"/><rect class="cls-7" x="59.78" y="40.66" width="6.82" height="14.67"/><path class="cls-11" d="M68.76,32.06H63.45V75.37h6.64V33.57A1.42,1.42,0,0,0,68.76,32.06Z"/><path class="cls-12" d="M46.31,75.38H183.87a0,0,0,0,1,0,0v1.51A10.17,10.17,0,0,1,173.7,87.06H56.48A10.17,10.17,0,0,1,46.31,76.89V75.38a0,0,0,0,1,0,0Z"/><rect class="cls-13" x="299.77" y="48.91" width="63.52" height="79.78" rx="3.99" ry="3.99" transform="translate(663.05 177.59) rotate(180)"/><rect class="cls-12" x="307.34" y="58.42" width="48.37" height="60.75" rx="2.26" ry="2.26" transform="translate(663.05 177.59) rotate(180)"/><path class="cls-14" d="M307.34,66.8V60.68a2.26,2.26,0,0,1,2.26-2.26h43.85a2.26,2.26,0,0,1,2.26,2.26v22Z"/><path class="cls-15" d="M64,224.17C20.16,194.61,14.61,120.7,65.19,111.74"/><circle class="cls-16" cx="109.62" cy="150.4" r="12.11" transform="translate(-17.8 14.75) rotate(-7.12)"/><path class="cls-17" d="M65.33,100.69H98.22a0,0,0,0,1,0,0v28.25a16.44,16.44,0,0,1-16.44,16.44h0a16.44,16.44,0,0,1-16.44-16.44V100.69A0,0,0,0,1,65.33,100.69Z" transform="translate(226.87 150.81) rotate(134.44)"/><path class="cls-18" d="M84,176.78c-.25-.22-.51-.45-.75-.68-10-9.83-6.58-29.56,7.66-44.09s33.92-18.35,43.93-8.53c.25.24.48.49.71.74Z"/><path class="cls-19" d="M65.76,107.46l31.91,31.29L86.21,150.43,66,130.65A16.44,16.44,0,0,1,65.76,107.46Z"/><path class="cls-20" d="M90.86,132.07l18.86,18.49L84,176.78c-.25-.22-.51-.45-.75-.68C73.25,166.29,76.66,146.59,90.86,132.07Z"/><path class="cls-18" d="M27.35,240.23c0-.23,0-.46-.05-.69C27.21,229.92,43.63,222,64,221.77s36.92,7.43,37,17c0,.23,0,.46,0,.7Z"/><path class="cls-20" d="M63.89,221.77l.18,18.11-36.72.35c0-.23,0-.46-.05-.69C27.21,229.93,43.58,222,63.89,221.77Z"/><polyline class="cls-21" points="217.13 154.08 217.13 224.23 182.61 229.24"/><path class="cls-22" d="M149.4,232.85l13.48-14.46a3.4,3.4,0,0,1,1.22-.83A14,14,0,1,1,169.57,238l-4.44,5.2c-1.29,1.5-3.92,1.36-5.85-.32h0c-1.82-1.58-2.37-4-1.36-5.5l-1.7,1.82c-1.51,1.62-4.27,1.52-6.15-.22h0C148.19,237.21,147.89,234.47,149.4,232.85Z"/><rect class="cls-23" x="278.29" y="72.42" width="10.63" height="29.13" rx="5.32" ry="5.32" transform="translate(559.9 194.99) rotate(-175.7)"/><rect class="cls-23" x="192.3" y="72.42" width="10.63" height="29.13" rx="5.32" ry="5.32" transform="matrix(-1, 0.07, -0.07, -1, 400.55, 160.7)"/><path class="cls-24" d="M209.05,170.38c-4.6-16.8-3.56-32.62,14.86-33.79h48.61c15.16,0,24.23,6.9,27.81,21.65v89H231.59Z"/><path class="cls-25" d="M234,165.84l22.94-16.61a17.28,17.28,0,0,0,7.14-14.29l-.55-30.56L234,103.74Z"/><ellipse class="cls-26" cx="208.93" cy="59.04" rx="16.93" ry="15.94"/><ellipse class="cls-26" cx="273.99" cy="58.34" rx="16.93" ry="15.94"/><path class="cls-27" d="M199,41.49V94.08c0,18.75,15.19,36.33,33.25,40.33a54.57,54.57,0,0,0,17,0c18.06-4,32.41-21.58,32.41-40.33V41.49a12.85,12.85,0,0,0-12.6-13.09H211.61A12.85,12.85,0,0,0,199,41.49Z"/><rect class="cls-26" x="198.2" y="26.42" width="6.75" height="48.69"/><rect class="cls-26" x="275.51" y="26.42" width="6.75" height="48"/><rect class="cls-28" x="263.26" y="71.09" width="19.04" height="7.98" rx="3.99" ry="3.99"/><rect class="cls-28" x="221.79" y="63.2" width="19.04" height="7.98" rx="3.99" ry="3.99"/><path class="cls-29" d="M207,65.17h19.48a2,2,0,0,1,2,2V77.42A11.37,11.37,0,0,1,217,88.8h-8.52a11.37,11.37,0,0,1-11.37-11.37V75A9.81,9.81,0,0,1,207,65.17Z"/><path class="cls-29" d="M246.81,65.17h8.52A11.37,11.37,0,0,1,266.7,76.54V86.83a2,2,0,0,1-2,2H245.25A9.81,9.81,0,0,1,235.43,79V76.54a11.37,11.37,0,0,1,11.37-11.37Z" transform="matrix(-1, 0, 0, -1, 502.13, 153.96)"/><ellipse class="cls-26" cx="278.51" cy="33.57" rx="18.86" ry="17.75"/><ellipse class="cls-26" cx="204.73" cy="31.4" rx="21.61" ry="18.84"/><ellipse class="cls-26" cx="228.36" cy="15.23" rx="17.47" ry="15.23"/><ellipse class="cls-26" cx="256.48" cy="15.23" rx="17.47" ry="15.23"/><ellipse class="cls-26" cx="234.32" cy="27.7" rx="17.23" ry="15.02"/><ellipse class="cls-26" cx="254.18" cy="27.7" rx="17.23" ry="15.02"/><polyline class="cls-21" points="287 155.27 316.59 226.46 271.3 226.46"/><path class="cls-28" d="M244,83.67a4.5,4.5,0,0,1-.18-1.22c0-2.8,2.71-5.07,6.06-5.07s6.06,2.27,6.06,5.07a4.5,4.5,0,0,1-.18,1.22Z"/><path class="cls-28" d="M206.9,83.56a4.08,4.08,0,0,1-.19-1.21c0-2.8,2.72-5.08,6.07-5.08s6.06,2.28,6.06,5.08a4.08,4.08,0,0,1-.19,1.21Z"/><path class="cls-28" d="M250.8,113c0,.09,0,.18,0,.26,0,6-7,10.94-15.64,10.94s-15.65-4.89-15.65-10.93c0-.09,0-.18,0-.27Z"/><path class="cls-30" d="M233.12,119.9a33,33,0,0,1,8,1.72,20.73,20.73,0,0,1,2.3,1,20.69,20.69,0,0,1-8.25,1.65A19.4,19.4,0,0,1,224,120.94,21.69,21.69,0,0,1,233.12,119.9Z"/><rect class="cls-31" x="228.83" y="218.31" width="31.01" height="8.97" rx="4.48" ry="4.48" transform="translate(560 321.23) rotate(154.96)"/><circle class="cls-31" cx="259.7" cy="225.76" r="13.5" transform="translate(-3.05 3.56) rotate(-0.78)"/><rect class="cls-31" x="235.84" y="224.4" width="31.01" height="8.97" rx="4.48" ry="4.48" transform="translate(579.44 317.89) rotate(152.86)"/><rect class="cls-32" x="235.49" y="230.45" width="46.45" height="10.67" rx="5.34" ry="5.34" transform="translate(517.43 471.57) rotate(180)"/><path class="cls-32" d="M143.93,245.87l-22.31-62.82a11.44,11.44,0,0,1,10.77-15.27l94.42-.08a11.42,11.42,0,0,1,10.79,7.61l25,70.45Z"/><path class="cls-33" d="M255.33,245.9l-28.39-78.2,0,.15a11.43,11.43,0,0,1,10.76,7.61l25,70.48Z"/><path class="cls-34" d="M238.91,205.13H129.76L118.94,231c-1.46,4.51.35,8.74,5.09,8.73l96-.54c3.41,0,7.24-3.78,9.35-8.19Z"/><path class="cls-35" d="M0,238.32H368.45a0,0,0,0,1,0,0v3.54a11.89,11.89,0,0,1-11.89,11.89H11.89A11.89,11.89,0,0,1,0,241.86v-3.54a0,0,0,0,1,0,0Z" transform="translate(368.45 492.06) rotate(180)"/></g></g></svg>
