<svg xmlns="http://www.w3.org/2000/svg" xmlns:xlink="http://www.w3.org/1999/xlink" viewBox="0 0 589.76 240.73"><defs><style>.cls-1{fill:#006192;}.cls-16,.cls-18,.cls-2{fill:none;stroke-linecap:round;stroke-linejoin:round;}.cls-2{stroke:#68aa61;stroke-width:15px;}.cls-3{fill:#ffc9b8;}.cls-4{fill:#f2f2f2;}.cls-5{fill:url(#linear-gradient);}.cls-6{fill:url(#linear-gradient-2);}.cls-7{fill:#97c492;}.cls-8{fill:#56380d;}.cls-9{fill:#68aa61;}.cls-10{fill:#ffcbba;}.cls-11{fill:url(#linear-gradient-3);}.cls-12{fill:url(#linear-gradient-4);}.cls-13{fill:#6d4a16;}.cls-14{fill:#86283c;}.cls-15{fill:url(#linear-gradient-5);}.cls-16{stroke:#86283c;stroke-width:0.25px;}.cls-17{fill:url(#linear-gradient-6);}.cls-18{stroke:#fb3847;stroke-width:20px;}.cls-19{fill:#ffd8ca;}.cls-20{fill:#66a0be;}.cls-21{fill:url(#linear-gradient-7);}.cls-22{fill:#ffb69f;}.cls-23{fill:url(#linear-gradient-8);}.cls-24{fill:#9e5363;}.cls-25{fill:url(#linear-gradient-9);}.cls-26{fill:url(#linear-gradient-10);}.cls-27{fill:#af1e3d;}.cls-28{fill:#ba3b54;}.cls-29{font-size:38px;fill:#fff;font-family:PTSans-Regular, PT Sans;}.cls-30{letter-spacing:-0.01em;}</style><linearGradient id="linear-gradient" x1="377.63" y1="218.08" x2="308.37" y2="178.09" gradientUnits="userSpaceOnUse"><stop offset="0" stop-color="#cce0f4"/><stop offset="0" stop-color="#c3d9ec"/><stop offset="0" stop-color="#a9c4d8"/><stop offset="0" stop-color="#80a4b6"/><stop offset="0" stop-color="#467688"/><stop offset="0" stop-color="#003f4f"/><stop offset="0.26" stop-color="#00445d"/><stop offset="0.75" stop-color="#005382"/><stop offset="0.99" stop-color="#005b97"/></linearGradient><linearGradient id="linear-gradient-2" x1="341.61" y1="138.49" x2="341.61" y2="-22.12" gradientUnits="userSpaceOnUse"><stop offset="0" stop-color="#68aa61"/><stop offset="0.1" stop-color="#7cb576"/><stop offset="0.41" stop-color="#b4d5b0"/><stop offset="0.67" stop-color="#ddecdb"/><stop offset="0.88" stop-color="#f6faf5"/><stop offset="1" stop-color="#fff"/></linearGradient><linearGradient id="linear-gradient-3" x1="342.62" y1="103.06" x2="342.62" y2="72.12" gradientTransform="matrix(1, 0, -0.01, 1, 1.01, -0.25)" gradientUnits="userSpaceOnUse"><stop offset="0.47" stop-color="#ffd8ca"/><stop offset="1" stop-color="#ffa183"/></linearGradient><linearGradient id="linear-gradient-4" x1="327.87" y1="66.87" x2="357.15" y2="16.16" gradientUnits="userSpaceOnUse"><stop offset="0" stop-color="#ffede6"/><stop offset="0.97" stop-color="#ff9676"/></linearGradient><linearGradient id="linear-gradient-5" x1="338.16" y1="62.74" x2="349.56" y2="62.74" gradientUnits="userSpaceOnUse"><stop offset="0" stop-color="#fb3847"/><stop offset="1" stop-color="#86283c"/></linearGradient><linearGradient id="linear-gradient-6" x1="251.73" y1="148.33" x2="251.73" y2="227.53" gradientTransform="translate(-2.41 7.9) rotate(-0.17)" xlink:href="#linear-gradient-5"/><linearGradient id="linear-gradient-7" x1="251.69" y1="117.11" x2="251.69" y2="75.48" gradientTransform="translate(-2.41 7.9) rotate(-0.17)" gradientUnits="userSpaceOnUse"><stop offset="0.12" stop-color="#ffd8ca"/><stop offset="0.66" stop-color="#ffa183"/></linearGradient><linearGradient id="linear-gradient-8" x1="251.53" y1="34.9" x2="251.53" y2="185.37" gradientTransform="translate(-2.41 7.9) rotate(-0.17)" xlink:href="#linear-gradient-4"/><linearGradient id="linear-gradient-9" x1="246.66" y1="81.57" x2="259.65" y2="81.57" gradientTransform="translate(-2.41 7.9) rotate(-0.17)" xlink:href="#linear-gradient-5"/><linearGradient id="linear-gradient-10" x1="252.59" y1="159.32" x2="252.59" y2="240.27" gradientTransform="translate(-2.41 7.9) rotate(-0.17)" xlink:href="#linear-gradient-5"/></defs><title>welcome_banner</title><g id="Layer_2" data-name="Layer 2"><g id="Layer_1-2" data-name="Layer 1"><g id="Kid4"><path class="cls-1" d="M219.37,104.09h55.36A34.22,34.22,0,0,1,309,138.31v35.43a26.44,26.44,0,0,1-26.44,26.44H208.34A10.38,10.38,0,0,1,198,189.79V125.5a21.41,21.41,0,0,1,21.41-21.41Z"/><path class="cls-2" d="M220.1,105.15c18.61-14,67.69,5.41,90.18-11.73"/><path class="cls-3" d="M223.48,108.78c-.48-.94-1-1.88-1.48-2.8-1-1.78-2.11-3.47-3.06-5.3a20.3,20.3,0,0,1-1.13-2.55c-2.92,1.9-5.81,4-8.64,6.24A6.93,6.93,0,0,0,207,110.8a7.61,7.61,0,0,0,.72,2.27c1.51,3,4.62,3.88,6.94,2A105.76,105.76,0,0,1,223.48,108.78Z"/><path class="cls-2" d="M382.56,181c5.42-28,12.57-55.83-9.52-87.54"/><path class="cls-4" d="M214.57,104.09c3.21,4.17,6.35,8.41,9.28,12.83a43.67,43.67,0,0,0,9.47-7.08L220.69,94.33a40.19,40.19,0,0,1-9.11,5.93Q213.08,102.17,214.57,104.09Z"/><path class="cls-5" d="M380.38,212.94c.57-8.92-1.73-28.2-5.57-34.73a2.83,2.83,0,0,0-2.45-1.4H310.79a2.89,2.89,0,0,0-2.38,1.28c-4.9,7.25-6,26-5.27,34.88.13,1.48,1.71,1.6,3.19,1.6h71C378.82,214.57,380.28,214.42,380.38,212.94Z"/><path class="cls-3" d="M388.43,189.54c-5.42,3.13-9.2,7.93-14.15,11.45-.82-1.37-1.62-2.76-2.37-4.17-1.45-2.75-4.17-3.23-5.72-5.93a26.6,26.6,0,0,0-2.34-3.46c4.91-3.43,8.46-6.56,13.75-9.63"/><path class="cls-4" d="M379.25,175.47c5.7,2.42,9.9,4.11,14.71,7.22a48.89,48.89,0,0,1-7.33,10.79L369,182.6c2.25-2.75,5.94-4.35,7.74-8.41C378.09,175.26,377.61,174.78,379.25,175.47Z"/><path class="cls-6" d="M373.78,176.81c-10.7-32.17-5.74-69.95,5-92.33-16.6-16.06-62.43-10.81-74.43,0,12.7,19.91,14.72,61.55,5.05,92.33Z"/><path class="cls-7" d="M313,162.56a125.18,125.18,0,0,1-3.52,14.25h64.34a110.78,110.78,0,0,1-3.68-14.25Z"/><path class="cls-8" d="M314.61,62.49V24.55C314.61,11.5,327,.83,342.2.83h1c15.18,0,27.6,10.67,27.6,23.72V62.49Z"/><path class="cls-9" d="M366.24,77.57c0,10.36-23.49,17.6-23.49,17.6s-23.48-7.24-23.48-17.6,10.26-12,23.23-12S366.24,67.21,366.24,77.57Z"/><path class="cls-10" d="M323.83,54.55l-3.47.43a1.09,1.09,0,0,1-1.26-.84l-1.85-11.58a1,1,0,0,1,.95-1.13l3.46-.44a1.13,1.13,0,0,1,1.27.85l1.85,11.58A1,1,0,0,1,323.83,54.55Z"/><path class="cls-10" d="M361.77,54.55l3.46.43a1.11,1.11,0,0,0,1.27-.84l1.85-11.58a1,1,0,0,0-1-1.13L363.93,41a1.11,1.11,0,0,0-1.26.85l-1.85,11.58A1,1,0,0,0,361.77,54.55Z"/><path class="cls-11" d="M342.55,95s-9.82-11.61-9.76-16.46l.15-10.19h19.71l-.14,10.19C352.44,83.41,342.55,95,342.55,95Z"/><path class="cls-12" d="M346.45,72.89a8.67,8.67,0,0,1-7.09.09c-5.92-2.59-17.1-7.44-17.1-21V29.36c0-9.89,9.09-18,20.19-18h.48c11.11,0,20.19,8.09,20.19,18V52C363.12,65,352.23,70.18,346.45,72.89Z"/><path class="cls-13" d="M320.79,9.76C309,34,341.74,32.3,341.74,32.3l-.28-12.21c4.26,8.46,13,13.4,29.25,16.36.85-13.91-.55-21.91-4.55-26.61C348.66-8.21,326.05,2.77,320.79,9.76Z"/><path class="cls-14" d="M338.38,44a2.25,2.25,0,0,0,.11-.68c0-1.56-1.69-2.83-3.79-2.83s-3.79,1.27-3.79,2.83A2.26,2.26,0,0,0,331,44Z"/><path class="cls-14" d="M355.66,43.9a2.21,2.21,0,0,0,.12-.68c0-1.56-1.7-2.82-3.79-2.82s-3.79,1.26-3.79,2.82a2.2,2.2,0,0,0,.11.68Z"/><path class="cls-14" d="M333.83,58c0,.05,0,.1,0,.14,0,3.16,4.11,5.72,9.18,5.72s9.17-2.56,9.17-5.72V58Z"/><path class="cls-15" d="M344.2,61.63a22,22,0,0,0-4.69.9,11,11,0,0,0-1.35.51,13.55,13.55,0,0,0,4.84.86,12.32,12.32,0,0,0,6.56-1.73A14.3,14.3,0,0,0,344.2,61.63Z"/><path class="cls-16" d="M348.66,38.13a6.77,6.77,0,0,1,8,1.25"/><path class="cls-16" d="M329.88,39.66c1.5-2.06,5.27-2.94,7.89-1.59"/></g><g id="Kid2"><path class="cls-3" d="M147.45,117.62c1.14-1,2.27-1.93,3.36-2.94,2.11-2,4.08-4.07,6.27-6a24.76,24.76,0,0,1,3.14-2.36c-3.61-4-7.46-8-11.52-11.79a9.5,9.5,0,0,0-9.6-1.82,9.61,9.61,0,0,0-2.89,1.66,7.33,7.33,0,0,0-.45,11.16C139.91,109.46,143.83,113.51,147.45,117.62Z"/><path class="cls-17" d="M280.24,108.42,263.89,102v1l-28.54-.38v-.32L219,108.53c-7,2.79-11.36,9.16-10.9,16l6,88.11a2.85,2.85,0,0,0,2.85,2.66l12.89,0,5.77,0,28.62-.08h5.33l15-.31a2.86,2.86,0,0,0,2.79-2.73l3.85-88C291.49,117.34,287.15,111.14,280.24,108.42Z"/><path class="cls-18" d="M213.74,125.24c-10.32,6.35-42.82,10.08-56.07-11"/><polygon class="cls-14" points="152.93 126.29 168.83 111.4 158.1 100.16 141.99 115.7 152.93 126.29"/><path class="cls-18" d="M286.64,125c12.93,8.84,26.68,38.86,5.74,62.68"/><path class="cls-19" d="M283.91,180.83s0,0,0,0c-.08.92-1,19.94-1,19.94l-26.94.12c-5.28,0-9.72-3.22-10.94-7.59a9,9,0,0,1-.31-3c.32-5.36,5.52-9.47,11.55-9.48Z"/><polygon class="cls-14" points="279.48 201.63 274.2 180.5 289.31 176.88 294.41 198.68 279.48 201.63"/><path class="cls-20" d="M211.47,174.36,208,123.91c0-9.2,6.49-15,15-17Z"/><path class="cls-20" d="M289.2,174.13l3.22-50.46c0-9.21-6.58-14.94-15.12-17Z"/><path class="cls-14" d="M276.31,100.43c0,11.8-26.68,27.22-26.68,27.22s-26.8-15.27-26.84-27.07,12-12.73,26.72-12.78S276.27,88.63,276.31,100.43Z"/><path class="cls-21" d="M249.62,126.15S235.41,112,235.39,105l0-14.59,28.36-.08,0,14.59C263.76,111.92,249.62,126.15,249.62,126.15Z"/><path class="cls-22" d="M277.86,81.09l-.39,0A2.83,2.83,0,0,1,275,77.92l1.06-10.58a2.8,2.8,0,0,1,3-2.55l.4,0A2.84,2.84,0,0,1,282,68l-1.06,10.58A2.81,2.81,0,0,1,277.86,81.09Z"/><path class="cls-22" d="M220.6,81l.4,0a2.84,2.84,0,0,0,2.46-3.14l-1.12-10.58a2.81,2.81,0,0,0-3.06-2.52l-.4,0a2.84,2.84,0,0,0-2.46,3.14l1.12,10.58A2.8,2.8,0,0,0,220.6,81Z"/><path class="cls-23" d="M227.71,33.05c-3.26,0-5.89,2.38-5.87,5.28l.23,38.52c0,12.82,12.08,18.88,17.38,23.13a8.83,8.83,0,0,0,5.53,1.89l8.36,0a10.42,10.42,0,0,0,6.56-2.29c5.48-4.51,16.82-10,16.78-22.86l-.11-38.14c0-3.12-2.85-5.63-6.34-5.62Z"/><path class="cls-24" d="M276.65,65.71l-5.82,0V34.4h2.37a3.2,3.2,0,0,1,3.38,3.06Z"/><rect class="cls-24" x="221.86" y="38.6" width="5.82" height="27.26" transform="translate(-0.15 0.65) rotate(-0.17)"/><path class="cls-14" d="M276.55,41.61,276.8,37c0-9.09-5.76-12.44-11.48-12.43l-28.54.09c-4.87,0-11.09,1.58-11.08,6.84C220,32,221.78,39.58,222,41.88Z"/><path class="cls-14" d="M281.07,37c0-9.09-10-12.43-15.75-12.42l-28.54.09c-4.87,0-11.09,1.58-11.08,6.84-7.94.67-5.61,8.48-5.61,8.48,1.06,5.69,16,11.77,27.88,12,0,0-3.15-7-2.71-6.92,7.25,6.11,20.81,9.22,35.83,8.46Z"/><path class="cls-14" d="M239.54,83.42c0,.06,0,.11,0,.16,0,3.6,4.7,6.5,10.47,6.48s10.44-2.94,10.43-6.54v-.16Z"/><path class="cls-25" d="M251.36,87.48a24.26,24.26,0,0,0-5.34,1,11.74,11.74,0,0,0-1.53.58,15.37,15.37,0,0,0,5.51,1,14.16,14.16,0,0,0,7.47-2A16.17,16.17,0,0,0,251.36,87.48Z"/><path class="cls-14" d="M244.67,67.36a2.22,2.22,0,0,0,.13-.77c0-1.78-1.94-3.21-4.33-3.21s-4.31,1.46-4.3,3.23a2.55,2.55,0,0,0,.13.78Z"/><path class="cls-14" d="M264.36,67.24a2.27,2.27,0,0,0,.13-.77c0-1.78-1.94-3.22-4.33-3.21s-4.31,1.45-4.3,3.23a2.44,2.44,0,0,0,.13.77Z"/><path class="cls-14" d="M267.39,62.08l-10.7-2.33a.57.57,0,0,1-.47-.68l.48-1.72a.63.63,0,0,1,.76-.41l10.7,2.32a.58.58,0,0,1,.47.69l-.47,1.71A.66.66,0,0,1,267.39,62.08Z"/><path class="cls-14" d="M244.07,59.82,233.31,62a.64.64,0,0,1-.75-.43l-.43-1.73a.56.56,0,0,1,.48-.67L243.37,57a.63.63,0,0,1,.75.43l.43,1.72A.57.57,0,0,1,244.07,59.82Z"/><polygon class="cls-26" points="227.15 172.64 219.62 205.93 281.88 205.75 275.22 172.5 227.15 172.64"/></g><rect class="cls-3" x="150.94" y="92.16" width="5.84" height="10.04" rx="2.92" ry="2.92" transform="translate(19.97 -26.07) rotate(10.35)"/><g id="_Rectangle_" data-name="&lt;Rectangle&gt;"><rect class="cls-27" x="2.8" y="158.3" width="583.83" height="79.77"/><path class="cls-28" d="M589.07,236.52c0,2,.38,1.25.46,1.55C589.43,234.79,589,236.6,589.07,236.52Z"/><polygon class="cls-28" points="588.12 204.17 588.29 204.74 587.87 199.98 588.12 204.17"/><path class="cls-28" d="M588.13,173.92c-.72,2.86.11,11-.14,16.35l-.16.89.57,2.43C588.31,187,587.93,178.54,588.13,173.92Z"/><path class="cls-28" d="M588.78,155.26c1.15.22-3.23.24.72.17,0,1,0,2.82.08,5.67,0-.65,0-.84.07-1.23,0-1,0-2.25,0-4.6Z"/><path class="cls-28" d="M589.65,159.87c0,2.84.07,1.92.1.72S589.77,158,589.65,159.87Z"/><path class="cls-28" d="M574.5,155.44l4.2-.25c-.88-.17-4.61-.2-3.22-.32C571.17,155,572.06,155.17,574.5,155.44Z"/><path class="cls-28" d="M570.53,156l2.17-.11A6.38,6.38,0,0,0,570.53,156Z"/><path class="cls-28" d="M577.31,155.63l-4.61.22a2.74,2.74,0,0,0,2.12-.08C574.44,156,575.35,155.78,577.31,155.63Z"/><path class="cls-28" d="M579.92,155.74l1.77.11,1.41.11c.94.07-.08.16-2,.28l3.09-.05,2.75-.08c1.44-.06,2.09-.13,1.91-.19a21.4,21.4,0,0,0-3-.16l-3.22,0Z"/><path class="cls-28" d="M587.39,172.38l-.21,3.15.24,2.72C587.3,176.89,587.61,172.18,587.39,172.38Z"/><path class="cls-28" d="M548.37,155.07c-.27.15,1.41.4,1.72.6l3.1-.18A31.19,31.19,0,0,1,548.37,155.07Z"/><path class="cls-28" d="M550.09,155.67l-4.64.26C549.59,156,550.35,155.83,550.09,155.67Z"/><polygon class="cls-28" points="569.78 156.75 577.39 156.2 568.31 156.76 569.78 156.75"/><polygon class="cls-28" points="530.65 155.05 533.28 154.7 528.6 155.23 530.65 155.05"/><path class="cls-28" d="M518.91,155.11c1.94-.29-2.67-.49-.61-.67-3.19.05-5.92.3-8.37.52A77.85,77.85,0,0,1,518.91,155.11Z"/><path class="cls-28" d="M505.81,155.29c1.3-.07,2.65-.19,4.12-.33C508.54,155,507.18,155.13,505.81,155.29Z"/><path class="cls-28" d="M537.55,155.85a14.24,14.24,0,0,0-3.65-.43l1.83.43Z"/><path class="cls-28" d="M535.79,155.86h-.06l-3.94,0Z"/><path class="cls-28" d="M538,155.85h-.46A.72.72,0,0,0,538,155.85Z"/><path class="cls-28" d="M557.62,156.36c-2.72.24-8.4.5-2.91.86C556.67,156.93,553.52,156.72,557.62,156.36Z"/><path class="cls-28" d="M540.28,156.39l4.92.1c-.09-.12-1-.28.37-.4Z"/><polygon class="cls-28" points="537.87 156.52 540.28 156.39 538.45 156.35 537.87 156.52"/><path class="cls-28" d="M514.25,155.69c-2.13.19-4.46.2-7.09.23,2.82.09,5.73.13,8.5.13C516.05,155.92,517.26,155.68,514.25,155.69Z"/><path class="cls-28" d="M524.72,155.81l-.48,0C524.53,155.87,524.77,155.88,524.72,155.81Z"/><path class="cls-28" d="M481.28,155.92l.41.08.1-.08Z"/><path class="cls-28" d="M516.13,156.13a28.7,28.7,0,0,0,4.59-.15c-1.58,0-3.26.07-5.06.07C515.48,156.11,515.45,156.15,516.13,156.13Z"/><path class="cls-28" d="M498.59,155.49c1.1.09,2.35.17,3.67.24A21.64,21.64,0,0,0,498.59,155.49Z"/><path class="cls-28" d="M523.53,155.72l.32,0C523.15,155.61,523.24,155.65,523.53,155.72Z"/><path class="cls-28" d="M523.53,155.72c-1.09.06-1.95.16-2.81.26,1.29,0,2.49-.08,3.52-.14Z"/><path class="cls-28" d="M473.44,158.66c.37-.39,5.94-.76,10.75-.33,4.73-.3,1.63-1.6-2.5-2.33-.14.17-.14.33-5,.56,1.7.22,10.8.51,6.69.87-6.44.2-5.28-.14-8.41-.35,2.66.49-8.21.72-6.8,1.44l5.65-.25C473.92,158.38,471.87,158.56,473.44,158.66Z"/><path class="cls-28" d="M491,156l2,0c-2.28-.07-3.92-.23-6.93-.54-3.33.2-4,.34-4.25.47l9.86.06Z"/><path class="cls-28" d="M502,156c-1.56.43-6.37.61-3.42,1.08,5.87,0,4.11-.36,7.63-.55-9.49.11,2.72-.24-4.13-.48,1.86-.08,3.54-.1,5.12-.12-1.71,0-3.35-.11-4.9-.19l.21,0h0c.41.05.54.09.08.05h-.2a1.21,1.21,0,0,1-.43.17c-2.74-.09-.43-.12.43-.17,0,0,.11,0,.12-.06h0L493,156C495,156.05,497.5,156,502,156Z"/><path class="cls-28" d="M549.65,158.15c-.3,0-.29-.07-.31-.1C548.73,158.1,548.49,158.14,549.65,158.15Z"/><path class="cls-28" d="M545.74,157.89a20,20,0,0,1,3.51-.19c2,.13,0,.21.09.35,1.35-.11,4.74-.31.49-.52l-.67.06c-3.82-.15-8.74-.69-8.07-.75A22.27,22.27,0,0,0,545.74,157.89Z"/><path class="cls-28" d="M523.58,157.05l-7.91.21,4,.37-.2-.22C524,157.5,523,157.22,523.58,157.05Z"/><polygon class="cls-28" points="480.37 155.71 481.42 155.25 476.85 155.89 480.37 155.71"/><polygon class="cls-28" points="470.09 155.76 470.47 155.37 467.76 155.6 470.09 155.76"/><path class="cls-28" d="M36,235.69l2.32-.11C37.18,235.62,36.48,235.65,36,235.69Z"/><path class="cls-28" d="M19.13,235.67l-.42.19C19.49,235.75,19.81,235.68,19.13,235.67Z"/><path class="cls-28" d="M217.57,155.81c-3.39-.37-7.17-.95-6.76-.5l1,.43A56.78,56.78,0,0,1,217.57,155.81Z"/><path class="cls-28" d="M44.63,158.4l1,.13,2.28-.42Z"/><path class="cls-28" d="M42.24,160.19l-4.47-.28C38.78,160,40.21,160.1,42.24,160.19Z"/><path class="cls-28" d="M127.88,235.23l2.72-.44C126.35,234.79,128.22,235,127.88,235.23Z"/><path class="cls-28" d="M364.78,155.92c-2.92-.17-5.24-.24-7.29-.26C361,155.91,363.85,156.28,364.78,155.92Z"/><path class="cls-28" d="M29.33,240.3c1.43-.08,2-.17,2-.27C29.86,240.11,29,240.19,29.33,240.3Z"/><path class="cls-28" d="M349.05,155.66l1.55.1c2.13-.07,4.28-.13,6.89-.1A48.52,48.52,0,0,0,349.05,155.66Z"/><path class="cls-28" d="M461.27,235.59l.75.06C462.1,235.59,461.76,235.58,461.27,235.59Z"/><path class="cls-28" d="M558.4,240c-1,0-2.52,0-4,0C555.12,240,556.33,240,558.4,240Z"/><path class="cls-28" d="M428.72,155.57c2.18,0,.35,0,0,0Z"/><path class="cls-28" d="M439.33,157.29c-.47.05-.82.11-.87.21A2.24,2.24,0,0,1,439.33,157.29Z"/><path class="cls-28" d="M327.33,158.36h-.19C327.79,158.44,327.68,158.43,327.33,158.36Z"/><path class="cls-28" d="M432,155.77c-.82-.05-1.76-.1-2.79-.13C429.66,155.67,430.51,155.72,432,155.77Z"/><path class="cls-28" d="M431.56,155.56l1.91.05C433.74,155.53,433.5,155.49,431.56,155.56Z"/><path class="cls-28" d="M425.68,155.59c1.25,0,2.41,0,3.53,0-.42,0-.6,0-.49-.07Z"/><path class="cls-28" d="M282.64,236.75l.47.05C285.31,236.62,284.34,236.64,282.64,236.75Z"/><path class="cls-28" d="M160.81,160.31l.25,0-.32,0Z"/><path class="cls-28" d="M153,160.63a32.78,32.78,0,0,1,7.76-.36L158.15,159Z"/><path class="cls-28" d="M76.26,235.57l-5.5-.39c6.64-.64,11.44-.42,6.28-1-.78,1.36-21.38.14-22.15,1.5l-3.62-.29c1,0,1.2-.07,2.23,0-7-.65-5.24,1-14.33.79-3.16-.11-5.37-.3-3.21-.47L28.9,236c-2,0-1.55-.26.49-.24l-10.76.11.08,0c-1.53.22-5,.54-6.71.68-2.73-.19,1.37-.14.67-.31l-6,.33c-.41-.09-.43-.18-.33-.26a1.15,1.15,0,0,1,.28-.11c.24,0,.55-.07.91-.1,1.45-.13,3.71-.2,5.77-.17a15.13,15.13,0,0,0-4.77-.53l-1.09.08a7.33,7.33,0,0,0-1,.09,8.14,8.14,0,0,1-1.33.13c0-.31,0-.68,0-1.08,0-.07.09-1.69.18-3l.09,2.64.09.78.41-.83s0,0,0,0l0-.2,0-.39,0-.81c0-.54,0-1.11.07-1.69.09-2.35.14-5,.38-8.22-.25,1.51-1.21,12.74-1.55,6.27a56.15,56.15,0,0,0-.12-7.71c.48,0,.36-3.44.33-7.7l.64.29c-.18-4.61-.51-4.25-.79-7,.06-5.14.55-6.2,1-7.41.1-8.23-.79,5.68-.91-4.06.24-6.84,0-11.64-.4-19.82.22-4.79.39.83.57-.88l-.51-4.25c0-1,.17-.7.25-.53-.2-3.58-.64-.3-.81-5.92a5.71,5.71,0,0,1-.17-2.09c0-.7.12-1.55.23-2.36a53.68,53.68,0,0,0,11.1.17c1.71.18-.83.39-.31.64,9.55-.53,8.19-.38,16-1.09l6.67.42c-4.9-.48,1.37-1,6.86-1.51-1.74-.24-3.23-.44-4.23-.54l8.76-.34c1.06.11.18.33-1.26.59l1.61-.15c3.13.24,1.51.6-.74,1l-3.15-.39c-2.17.39-4.19.82-3.74,1.19.57-.07,1.66-.14,2.87-.17-.56.1-.93.2-.66.26a15.43,15.43,0,0,0,2.64-.24l2,.72.49-.29,11.46.45c8.2-.72,15.34-1.77,28.36-2.07-3.23.52-.7.86-.87,1.48-3.55-.66-10.08.27-16.83.14,3.52.07,2.74.36,1.85.47l12-.6c-.27.51,2.56.38,5.7.59-2.37-1,9-.67,13.87-1,.3.33-.87.68-6.84.6,6.59.75,8.51-1.18,15-.54a12.59,12.59,0,0,0-2.82.13c3.41-.3,11.74-.07,9.78.23h-1.46c9.69.12,29.48,0,30.93-.84a5,5,0,0,1-1.86,1.2l17.28-2.86c-1.52.73,4.32,2.47-3.71,2.88a91.59,91.59,0,0,0,10,0c-1.57-.11-3.92-1.06-1.77-1.13,5.9.82,4.1.44,11.37,1.13-2.36-.15.26-1.3,4-1.26-.58.17.31,1.13-1,1.25l9.27-1.13c-2.31.21-.41,1,1.67,1.27-1-.22,8,0,10.49-.09l-3.93-.26c10.47.17,10.34-1.58,20.73-1.52-1.26.23-3.11,1.43,2.17,1.57a104.92,104.92,0,0,1,19.91-3.21l1.77.33,7.05-.38c-4.39.87-16.71,2.69-23.44,3.4,3.91.26,1.09.39,7,.36,2.07.31-3.2.47-4.93.49l13.66.2c-.6-.68,10.45-.68,9.93-1.24l-14.84.7c-.6-.67,8.58-1.91,18.26-1.79,2.46.27-1.84,1.19-1.64,1.42a89.3,89.3,0,0,1,10.08-.28l-4.11.36c5.39.25,8.8-.89,15.27-.25,2.24,0,6.68.87,7.06.47-3.64-.77-4.35-3.14-1.92-3.72.78.05,11.73.74,14.29,1.11,3.68.61-5.53,1.44-2.4,1.95a13.81,13.81,0,0,1,3-.48c2.35.16-1,.57,4.13.49.85-.68,10.37.06,2.41-.58,5-.19,5.3.14,11.16.11-1.86-.44,5.26-1.5,10.26-1.69-.29.17.83.4,1.37.5,10.23.06,15.72.37,25.26.38.88.16,5.48.36,3.52.66a46.49,46.49,0,0,1,5.57-.37c5.7.59-6.56.09-2.22.8.37-.4,7.61-.55,11.8-.8-1.29-.61-9.68-.11-13.88.13,0-.84,7.29-1.72,17.26-2.11,7.92-.21,3.43.54,4.81.42,14.88.15,12.68-1.47,25-.86,4.91.53.22,1.07,1.31,1.45-6.45.21-9.91-.34-14.28-.32l5.38.26a75.29,75.29,0,0,1-8.7.16c4.1.48,25.14.09,36.62.54,2-.18,5.56-.37,3.89-.59l-3.63.08c-3.34-.44,6.84-.6,2.24-.8a157.41,157.41,0,0,1,17.19-.54l1.29.61a31.3,31.3,0,0,0-6.41-.18c2.86-.27,10.52.83,13.65,0l-4.81-.43c4.9-.3,10.94-1,17-.76-2.76-.61-1.4.07-5.72-.64,3.75.88-15.55,0-9.53.89-4.44-.82-7.68-.35-13.47-1.05.18.2,2.05.39-3,.29-.23,0-.78.13-1.12.17H432l.28,0c-.22,0-.24,0,.11,0a18.51,18.51,0,0,1,2.6.31c-2.53.46-10.65.45-13.39.69-3-.1,1.26-.23-.39-.45l-4.1.36c-.41-.45-8.05-.75-.91-1l-6.42,0a114.49,114.49,0,0,0-12.19-.16c-3-.1-7.65.49-5,.14l-10.07.28-.1-.11c-9.93-.06-20.45.74-31.81-.07-3.35.12-6.8.25-12.4.13l-1.09-.39c-4.3.13-12.9-.39-14.75,0-4.63-1-20.84-.22-28.39-.41l-.29.51c-5.2,0-10.18.11-16.64.32l.4.45c-5.57.36-14.31-.32-23.11-.28a23,23,0,0,1,4.41,0c-10.51-1-22.18.74-31.72,0a39,39,0,0,1-5.76,0l.59,0h-1l-3.3-.23c1,.1,2,.19,2.78.24-1.84,0-4.62.06-7.34.17l-1.16-.48-.63,0c-2.67-.18-2.15.22-.72.59-1.38.07-2.63.17-3.61.29-2.17-.78-7.15.26-10.11-.57-1.84.4-13.7.3-15.15,1.15-.09-.11-.9-.16.58-.17a77.8,77.8,0,0,0-8.8,0l-1.29-.61-6.63.82c-4-.37-5.7-.59-1.7-1.06-9.66.72-7.84.27-16.06,1l.4-.4c-2.93,0-7.63.55-9.4.22-6.57-.75-32.51-.1-49.37-.8,3.27,1.16-7.84-.52-8.51.38-1-.28-3.33-.43-.6-.67-8.6.27-12.93-.44-18.87.32-1-.27,1.84-.4,1-.56a18.81,18.81,0,0,1-3.63.07c-.88-.16,1.26-.23,2.62-.35-8.79.05-9.68.9-10.32,1.69a35.59,35.59,0,0,0-9.9.2c-1.55-.26-4.13-.53,1.33-.63-3.07,0-18.77-.38-19.09.26a36,36,0,0,0-5.1,0l-7.19-.06-8,0,2.55.11a16.86,16.86,0,0,1-3.64.39c0,1.25,0,2.57-.08,4.19,0,.69,0,1.43,0,2.22s0,1.57,0,2.45l-.08-.15c-.56,12.51.26,5.4-.37,17.75l.48-.67c1,1.15-.61,10.94-.21,18.11l.27-2.59c.35,3.91-1.4,10.94-1.53,14.87-.09.86-.15-1.35-.21-2.55-.61,10.29.63,1.33.77,9-.34,1.42-.86-1.82-.92,3.34a50.47,50.47,0,0,0,.16,5.66c.07,1.33.15,2.8.24,4.32,0,.56.07,2,.1,3.21s.06,2.42.08,3.63c2.12,0,4.18-.05,6.08,0,1.24,0,2.42.07,3.48.16-1.55-.26-3.09-.52.47-.71,5.46-.1,14.76,1,19.69.16.69.07.95.14,1,.2,4.18-.21,13.57-.35,16.08-.79,3.86,1.65,25.95-.81,25.85.72l12.84-.08-.33.15a85,85,0,0,0,14-.63c1.89.1.51.25.35.33,12,.3,13.18.24,23.24-.52l1,.49c2.73-.28,17.34.78,29.1.2a3.48,3.48,0,0,1-1.3.23c13.23-.59,31.68,1.37,36.52-.43l8.74-.45c-11.3-.14,1.68-.78-3-1.08,4.44-.11,11.49.54,6,.63l-.86-.09c-2,.95,14,.34,13.73,1,22.23-.05,43.9.47,64.72.51l-2.4-.73,7.26,0c1.91.17,2.56.58-2.62.55a34.79,34.79,0,0,0,8.83-.51c10.15.3-4,.85-.85.87l4.23,0-1-.09a63,63,0,0,1,10-.58c3.94.15,2,.45,3.57.48a9.86,9.86,0,0,0,2.38,0l9.15.06-3.66-.57c4.06-.29,8.61,0,4.38-.63,6.2,1,34.14.36,37.94.68,5.68-.42,11.29-.42,18.23-.37-1.72-.12-2.76-.77,3.23-.69-2.19,1.34,11,.59,15.81,1.55-4.32-.64,17-.16,10.24-1.07,5,.11.31.51,4.1.82,11.9-.52,26.22.34,40.92.16.23-.17-2.23-.44.93-.7l7.76.88c2.9-.09,2.67-1,8-.41-.75-.15-1.87-.37.08-.43,28.81.86,58.87-.7,88.12.91-4-.34-1.32-.37,1.71-.39-2-.08,0-.43-.34-.67l12.24.66c2.24-.66,13.14,0,14.41-.67l-3.87.11c5.15-.75-7.22-1.66-6.47-2.62-5.77.85-15.23-1.25-24.7,0-2.09-.19,1.78-.31.66-.53a53.2,53.2,0,0,1-10.68.31l.61-.1c-15.1.1-21.58-.3-38.54-.57l1.25.47c-3.64-.06-4.41-.21-6.12-.33-4.18.72,10.24,0,6.43.83-4.83-1-25.71,0-29-1.11-5.61,0,1.65.55-4,.54l-1.49-.29-1.41.38c-3.68-.06-5.54-.43-5.67-.68.89,0,2.53-.07,3.49-.1-4.77-.35-13.45.12-15.08,0l5.39.18c-15.31.28-34-.11-48.79.49l1.13.23c-11.3.41-9.05-.25-21.45-.06l.45-.05c-2.48.22-5.79.33-9.19.31,3.13-.26-5.89-.51-1.78-.8-12.25.44-6.06.35-14.14,1.18l-1.87-.37a57.09,57.09,0,0,1-9.18.61c5.08-.32-3.95-.57,1.74-1-13-.81-19.3.82-25.26-.37-6,1,11.25.57,7.91.79,2.79.34-4.93.77-9,.67s-7.06-1.32-17.5-1.3c1,0,1.11-.07,2.15-.06-3.91-.27-7.66.35-12.45-.08-2.69.63-6.23,0-7,.76l9.58-.18c-5.43.2-10.52,1.13-19.47.68.7-.16,3.36-.37,5.19-.49-2.62-.23-5,.16-7.75-.08.77-.79,11.64-.17,17.46-.78-2.81-.33-11,.58-8.08-.28-4.2,1.09-10.29-.14-17.36.69l.46-.47c-1.11.07-3.43.3-5.49.29l3.73-.62c-5.73.53-11-.46-16.53-.17,11.5,0,2.58.57,7.44.92-14.18.63-8.15-1.25-24-1,2.15-.06,8.07.29,4.71.51-3-.1-7-.28-8.87-.53-10.52.1,1.61.49-2.86.78-3.58-.58-5.17.23-9.78.42l0-.48c-12-.31-3.18,1-14,.63l4.56-.67-5.63.17,1.16-.55a117.39,117.39,0,0,1-14,.15c1.4.34-.78.88-6.09.89-3.62-.29,2-.46-5.5-.39a19,19,0,0,1,6.84-.23c.33-.16,1.67-.31,2-.46-3.9-.33-9.8-.08-12.53-.07,1.05,0,2.31,0,2.95.11l-10.91.67c-1.72-.18-.35-.33,1-.47-2.21,0-3.73.27-7,.31.84-.39.64-.79,5.24-1l-10.4.44c-.69-.17-5.33-.47-4-.62-5.77-.23-14.14.77-21.78.46a21.45,21.45,0,0,1-2.82.21c-7.18-.09-13.54-.57-22,0l-4.83-.7c-6.66.16,6.54.89-4.56,1.15-7.85.23-2.93-.6-5.69-.79a104,104,0,0,1-17.92.5C72.15,235.52,74,235.62,76.26,235.57ZM5,229.33c0,.79.15,2,.21,3.12,0,.57,0,1.13,0,1.61a1,1,0,0,1,0,.23l0,.12a1.43,1.43,0,0,1-.08.22.85.85,0,0,1-.17-.25l-.06-.14s0-.2,0-.29a9.53,9.53,0,0,1,0-1.32C4.8,231.71,4.91,230.68,5,229.33Zm51.74-70a26.27,26.27,0,0,1-5.08-.1C53.15,159.18,54.84,159.2,56.73,159.32ZM404.82,156l-.17,0C401.1,155.8,402.36,155.87,404.82,156Zm7.38.21c.74-.06.69-.13.37-.2a27.91,27.91,0,0,1-4.05.1A14.52,14.52,0,0,0,412.2,156.17ZM305.93,240l-1.43-.12C307.74,239.74,306.83,239.86,305.93,240Z"/><path class="cls-28" d="M42.56,160a1.2,1.2,0,0,1-.68-.26C41.25,159.8,41.24,159.9,42.56,160Z"/><path class="cls-28" d="M127.38,235.32h.25a.65.65,0,0,0,.25-.09Z"/><path class="cls-28" d="M297.91,160.26A24.56,24.56,0,0,1,295,160C294.9,160.13,295.59,160.23,297.91,160.26Z"/><path class="cls-28" d="M451.29,155.35l-4.72.13a40.69,40.69,0,0,1,4.25.16C450.72,155.52,449.82,155.36,451.29,155.35Z"/><path class="cls-28" d="M492.31,158.34c.69-.06,1.47,0,2.15-.07l-.19-.22C491.33,158.06,489.27,158.24,492.31,158.34Z"/><path class="cls-28" d="M455.67,157c.37.4,3.34.26,6.65.19h-.59C462.71,156.58,459.18,156.77,455.67,157Z"/><path class="cls-28" d="M463.09,157.14c1,0,2.06,0,3.06,0C466.53,156.9,464.91,157.08,463.09,157.14Z"/><path class="cls-28" d="M421.56,155.9c1.56.11,1-.51,1.87-.35C425.18,155,413,156.18,421.56,155.9Z"/><polygon class="cls-28" points="458.35 158.29 457.16 157.79 455.31 158.2 458.35 158.29"/><path class="cls-28" d="M432.21,157.93l5.29.13c-.08-.08.59-.13,1.42-.17C435.66,157.88,432.09,157.78,432.21,157.93Z"/><path class="cls-28" d="M438.92,157.89c1.69,0,3.31,0,4.25-.08C442.26,157.82,440.28,157.83,438.92,157.89Z"/><polygon class="cls-28" points="451.12 158.44 449.55 158.34 445.82 158.3 451.12 158.44"/><path class="cls-28" d="M375.35,157.83l-5.77.14c-.59.17,1,.28,3.13.21C374.09,158.06,376.23,158,375.35,157.83Z"/><path class="cls-28" d="M392.81,159.2a12.62,12.62,0,0,1-2.55-.38l-.17.62Z"/><path class="cls-28" d="M376,159.35c-.57.17-8.38.49-1.06.45C375.5,159.63,381.28,159.49,376,159.35Z"/><polygon class="cls-28" points="288.99 158.56 290.45 158.55 290.24 157.53 288.99 158.56"/><path class="cls-28" d="M212.32,161c6.84.24,1.62-.63,7.81-.33,1.6-.24-5.06-.25-3.41-.45C212.59,160.47,210.42,160.33,212.32,161Z"/><path class="cls-28" d="M216.72,160.22c.66,0,1.36-.09,2.11-.16C217.63,160.13,217.07,160.17,216.72,160.22Z"/><polygon class="cls-28" points="574.51 240.52 578.91 240.73 576.07 240.39 574.51 240.52"/><path class="cls-28" d="M583,239.76l1,.65,2.65-.59A24.51,24.51,0,0,1,583,239.76Z"/><path class="cls-28" d="M6.3,217.11l-.16-.34a20.37,20.37,0,0,0-.21,3.77Z"/><polygon class="cls-28" points="41.5 235.06 40.47 235.05 42.39 235.63 41.5 235.06"/><path class="cls-28" d="M91.57,234.31c-2,0-4.44.11-6.5.08C89.53,234.29,92.13,235,91.57,234.31Z"/></g><text class="cls-29" transform="translate(30.4 211.69)">Will<tspan class="cls-30" x="63.84" y="0">k</tspan><tspan x="81.58" y="0">ommen in der Schul-Cloud !</tspan></text></g></g></svg>