<svg xmlns="http://www.w3.org/2000/svg" xmlns:xlink="http://www.w3.org/1999/xlink" viewBox="0 0 573 272.32"><defs><linearGradient id="linear-gradient-12" x1="210.8" y1="159.28" x2="210.8" y2="240.23" xlink:href="#linear-gradient-6"/><linearGradient id="linear-gradient" x1="335.8" y1="218.08" x2="266.54" y2="178.09" gradientUnits="userSpaceOnUse"><stop offset="0" stop-color="#cce0f4"/><stop offset="0" stop-color="#c3d9ec"/><stop offset="0" stop-color="#a9c4d8"/><stop offset="0" stop-color="#80a4b6"/><stop offset="0" stop-color="#467688"/><stop offset="0" stop-color="#003f4f"/><stop offset=".26" stop-color="#00445d"/><stop offset=".75" stop-color="#005382"/><stop offset=".99" stop-color="#005b97"/></linearGradient><linearGradient id="linear-gradient-2" x1="299.78" y1="138.49" x2="299.78" y2="-22.12" gradientUnits="userSpaceOnUse"><stop offset="0" stop-color="#68aa61"/><stop offset=".1" stop-color="#7cb576"/><stop offset=".41" stop-color="#b4d5b0"/><stop offset=".67" stop-color="#ddecdb"/><stop offset=".88" stop-color="#f6faf5"/><stop offset="1" stop-color="#fff"/></linearGradient><linearGradient id="linear-gradient-3" x1="300.65" y1="103.1" x2="300.65" y2="72.16" gradientTransform="matrix(1 0 -.01 1 1.16 -.29)" gradientUnits="userSpaceOnUse"><stop offset=".47" stop-color="#ffd8ca"/><stop offset="1" stop-color="#ffa183"/></linearGradient><linearGradient id="linear-gradient-4" x1="286.04" y1="66.87" x2="315.32" y2="16.16" gradientUnits="userSpaceOnUse"><stop offset="0" stop-color="#ffede6"/><stop offset=".97" stop-color="#ff9676"/></linearGradient><linearGradient id="linear-gradient-5" x1="296.33" y1="62.74" x2="307.73" y2="62.74" gradientUnits="userSpaceOnUse"><stop offset="0" stop-color="#fb3847"/><stop offset="1" stop-color="#86283c"/></linearGradient><linearGradient id="linear-gradient-6" x1="209.94" y1="148.29" x2="209.94" y2="227.49" gradientTransform="rotate(-.17 2634.379 829.643)" gradientUnits="userSpaceOnUse"><stop offset="0" stop-color="#fd9da4"/><stop offset="1" stop-color="#86283c"/></linearGradient><linearGradient id="linear-gradient-7" x1="108.65" y1="124.22" x2="176.37" y2="124.22" xlink:href="#linear-gradient-6"/><linearGradient id="linear-gradient-8" x1="240.01" y1="157.1" x2="269.68" y2="157.1" xlink:href="#linear-gradient-6"/><linearGradient id="linear-gradient-9" x1="209.9" y1="117.07" x2="209.9" y2="75.44" gradientTransform="rotate(-.17 2634.379 829.643)" gradientUnits="userSpaceOnUse"><stop offset=".12" stop-color="#ffd8ca"/><stop offset=".66" stop-color="#ffa183"/></linearGradient><linearGradient id="linear-gradient-10" x1="209.73" y1="34.86" x2="209.73" y2="185.33" gradientTransform="rotate(-.17 2634.379 829.643)" xlink:href="#linear-gradient-4"/><linearGradient id="linear-gradient-11" x1="204.87" y1="81.52" x2="217.85" y2="81.52" gradientTransform="rotate(-.17 2634.379 829.643)" xlink:href="#linear-gradient-5"/><style>.cls-2{fill:none;stroke:#68aa61;stroke-width:15px;stroke-linecap:round;stroke-linejoin:round}.cls-3{fill:#ffc9b8}.cls-4{fill:#f2f2f2}.cls-14{fill:#86283c}.cls-25{fill:#9e5363}</style></defs><g id="Layer_2" data-name="Layer 2"><g id="Layer_1-2" data-name="Layer 1"><g id="Kid4"><path d="M177.54 104.09h55.36a34.22 34.22 0 0134.22 34.22v35.43a26.44 26.44 0 01-26.44 26.44h-74.17a10.38 10.38 0 01-10.38-10.38v-64.3a21.41 21.41 0 0121.41-21.41z" fill="#006192"/><path class="cls-2" d="M178.27 105.15c18.61-14 67.69 5.41 90.18-11.73"/><path class="cls-3" d="M181.65 108.78c-.48-.94-1-1.88-1.48-2.8-1-1.78-2.11-3.47-3.06-5.3a20.3 20.3 0 01-1.11-2.55c-2.92 1.9-5.81 4-8.64 6.24a6.93 6.93 0 00-2.18 6.43 7.61 7.61 0 00.72 2.27c1.51 3 4.62 3.88 6.94 2a104.13 104.13 0 018.81-6.29z"/><path class="cls-2" d="M340.73 181c5.42-28 12.57-55.83-9.52-87.54"/><path class="cls-4" d="M172.74 104.09c3.21 4.17 6.35 8.41 9.28 12.83a43.67 43.67 0 009.47-7.08l-12.63-15.51a40.42 40.42 0 01-9.11 5.93q1.5 1.91 2.99 3.83z"/><path d="M338.55 212.94c.57-8.92-1.73-28.2-5.57-34.73a2.83 2.83 0 00-2.45-1.4H269a2.89 2.89 0 00-2.38 1.28c-4.9 7.25-6 26-5.27 34.88.13 1.48 1.71 1.6 3.19 1.6h71c1.46 0 2.91-.15 3.01-1.63z" fill="url(#linear-gradient)"/><path class="cls-3" d="M346.6 189.54c-5.42 3.13-9.2 7.93-14.15 11.45-.82-1.37-1.62-2.76-2.37-4.17-1.45-2.75-4.17-3.23-5.73-5.93a25.56 25.56 0 00-2.33-3.46c4.91-3.43 8.46-6.56 13.75-9.63"/><path class="cls-4" d="M337.42 175.47c5.7 2.42 9.9 4.11 14.71 7.22a48.89 48.89 0 01-7.33 10.79l-17.67-10.88c2.25-2.75 5.94-4.35 7.73-8.41 1.4 1.07.92.59 2.56 1.28z"/><path d="M332 176.81c-10.7-32.17-5.74-69.95 5-92.33-16.6-16.06-62.43-10.81-74.43 0 12.7 19.91 14.72 61.55 5 92.33z" fill="url(#linear-gradient-2)"/><path d="M271.13 162.56a123.11 123.11 0 01-3.53 14.25H332a110.78 110.78 0 01-3.68-14.25z" fill="#97c492"/><path d="M272.78 62.49V24.55c0-13 12.42-23.72 27.59-23.72h1c15.18 0 27.6 10.67 27.6 23.72v37.94z" fill="#56380d"/><path d="M324.41 77.57c0 10.36-23.49 17.6-23.49 17.6s-23.49-7.24-23.49-17.6 10.27-12 23.24-12 23.74 1.64 23.74 12z" fill="#68aa61"/><path d="M282 54.55l-3.47.43a1.09 1.09 0 01-1.26-.84l-1.85-11.58a1 1 0 01.95-1.13l3.46-.44a1.13 1.13 0 011.27.85l1.9 11.58a1 1 0 01-1 1.13zm37.94 0l3.46.43a1.11 1.11 0 001.27-.84l1.85-11.58a1 1 0 00-.95-1.13L322.1 41a1.11 1.11 0 00-1.26.85L319 53.42a1 1 0 00.94 1.13z" fill="#ffcbba"/><path d="M300.72 95S290.9 83.41 291 78.56l.14-10.19h19.72l-.14 10.19c-.11 4.85-10 16.44-10 16.44z" fill="url(#linear-gradient-3)"/><path d="M304.62 72.89a8.67 8.67 0 01-7.09.09c-5.92-2.59-17.1-7.44-17.1-21V29.36c0-9.89 9.09-18 20.19-18h.48c11.11 0 20.19 8.09 20.19 18V52c0 13-10.89 18.18-16.67 20.89z" fill="url(#linear-gradient-4)"/><path d="M279 9.76c-11.79 24.26 21 22.54 21 22.54l-.28-12.21c4.26 8.46 13 13.4 29.25 16.36.85-13.91-.55-21.91-4.55-26.61-17.59-18.05-40.2-7.07-45.42-.08z" fill="#6d4a16"/><path class="cls-14" d="M296.55 44a2.25 2.25 0 00.11-.68c0-1.56-1.69-2.83-3.79-2.83s-3.79 1.27-3.79 2.83a2 2 0 00.12.68zm17.28-.1a2.21 2.21 0 00.12-.68c0-1.56-1.7-2.82-3.79-2.82s-3.79 1.26-3.79 2.82a2.2 2.2 0 00.11.68zM292 58v.14c0 3.16 4.11 5.72 9.18 5.72s9.17-2.56 9.17-5.72V58z"/><path d="M302.36 61.63a22 22 0 00-4.68.9 11 11 0 00-1.35.51 13.55 13.55 0 004.84.86 12.32 12.32 0 006.56-1.73 14.33 14.33 0 00-5.37-.54z" fill="url(#linear-gradient-5)"/><path d="M306.83 38.13a6.77 6.77 0 018 1.25m-26.78.28c1.5-2.06 5.27-2.94 7.89-1.59" stroke="#86283c" stroke-width=".25" stroke-linecap="round" stroke-linejoin="round" fill="none"/></g><g id="Kid2"><path class="cls-3" d="M105.62 117.62c1.14-1 2.27-1.93 3.36-2.94 2.11-2 4.07-4.07 6.27-6a24.76 24.76 0 013.14-2.36c-3.61-4-7.46-8-11.52-11.79a9.5 9.5 0 00-9.6-1.82 9.61 9.61 0 00-2.89 1.66 7.32 7.32 0 00-.45 11.16c4.15 3.93 8.07 7.98 11.69 12.09z"/><path d="M238.41 108.42L222.06 102v1l-28.54-.38v-.32l-16.32 6.21c-7 2.79-11.36 9.16-10.9 16l6 88.11a2.85 2.85 0 002.85 2.66h18.66l28.62-.08h5.33l15-.31a2.86 2.86 0 002.79-2.73l3.85-88c.26-6.82-4.08-13.02-10.99-15.74z" fill="url(#linear-gradient-6)"/><path d="M171.91 125.24c-10.32 6.35-42.82 10.08-56.07-11" stroke="url(#linear-gradient-7)" stroke-width="17" stroke-miterlimit="10" fill="none"/><path class="cls-14" d="M111.1 126.29L127 111.4l-10.73-11.24-16.11 15.54 10.94 10.59z"/><path d="M244.81 125c12.93 8.84 28.19 47 2.19 64" stroke="url(#linear-gradient-8)" stroke-width="17" stroke-miterlimit="10" fill="none"/><path d="M242.08 180.83c-.09.92-1 19.94-1 19.94l-26.94.12c-5.28 0-9.72-3.22-10.94-7.59a9 9 0 01-.31-3c.32-5.36 5.52-9.47 11.55-9.48z" fill="#ffd8ca"/><path class="cls-14" d="M237.65 201.63l-5.27-21.13 15.1-3.62 5.1 21.8-14.93 2.95z"/><path d="M169.64 174.36l-3.51-50.45c0-9.2 6.49-15 15-17zm77.73-.23l3.21-50.46c0-9.21-6.58-14.94-15.12-17z" fill="#66a0be"/><path class="cls-14" d="M234.48 100.43c0 11.8-26.68 27.22-26.68 27.22S181 112.38 181 100.58s11.9-12.73 26.68-12.78 26.76.83 26.8 12.63z"/><path d="M207.79 126.15S193.58 112 193.56 105l-.05-14.59 28.36-.08v14.59c.06 7-14.08 21.23-14.08 21.23z" fill="url(#linear-gradient-9)"/><path d="M236 81.09h-.39a2.83 2.83 0 01-2.48-3.12l1.06-10.58a2.8 2.8 0 013-2.55h.4a2.84 2.84 0 012.55 3.16l-1.06 10.58a2.81 2.81 0 01-3.08 2.51zM178.77 81h.4a2.85 2.85 0 002.46-3.14l-1.12-10.58a2.81 2.81 0 00-3.06-2.52h-.4a2.84 2.84 0 00-2.46 3.14l1.12 10.58a2.8 2.8 0 003.06 2.52z" fill="#ffb69f"/><path d="M185.88 33.05c-3.26 0-5.89 2.38-5.87 5.28l.23 38.52c0 12.82 12.08 18.88 17.38 23.13a8.83 8.83 0 005.53 1.89h8.36a10.42 10.42 0 006.56-2.29c5.48-4.51 16.82-10 16.78-22.86l-.11-38.14c0-3.12-2.85-5.63-6.34-5.62z" fill="url(#linear-gradient-10)"/><path class="cls-25" d="M234.82 65.71H229V34.4h2.37a3.2 3.2 0 013.38 3.06z"/><path class="cls-25" transform="rotate(-.17 178.553 50.82)" d="M180.03 38.6h5.82v27.26h-5.82z"/><path class="cls-14" d="M234.72 41.61L235 37c0-9.09-5.76-12.44-11.48-12.43l-28.52.09c-4.87 0-11.09 1.58-11.08 6.84-5.74.49-3.92 8.08-3.69 10.38z"/><path class="cls-14" d="M239.24 37c0-9.09-10-12.43-15.75-12.42l-28.49.08c-4.87 0-11.09 1.58-11.08 6.84-7.94.67-5.62 8.48-5.62 8.48 1.07 5.69 16 11.77 27.89 12 0 0-3.15-7-2.71-6.92 7.25 6.11 20.81 9.22 35.83 8.46zm-41.53 46.42v.16c0 3.6 4.7 6.5 10.47 6.48s10.44-2.94 10.43-6.54v-.16z"/><path d="M209.53 87.48a24.26 24.26 0 00-5.34 1 11.74 11.74 0 00-1.53.58 15.37 15.37 0 005.51 1 14.19 14.19 0 007.47-2 16.17 16.17 0 00-6.11-.58z" fill="url(#linear-gradient-11)"/><path class="cls-14" d="M202.84 67.36a2.49 2.49 0 00.13-.77c0-1.78-1.94-3.21-4.33-3.21s-4.31 1.46-4.3 3.23a2.55 2.55 0 00.13.78zm19.69-.12a2.54 2.54 0 00.13-.77c0-1.78-1.94-3.22-4.33-3.21S214 64.71 214 66.49a2.44 2.44 0 00.13.77zm3.03-5.16l-10.7-2.33a.57.57 0 01-.47-.68l.48-1.72a.63.63 0 01.76-.41l10.7 2.32a.58.58 0 01.47.69l-.47 1.71a.66.66 0 01-.77.42zm-23.32-2.26L191.48 62a.64.64 0 01-.75-.43l-.43-1.73a.56.56 0 01.48-.67L201.54 57a.63.63 0 01.75.43l.43 1.72a.57.57 0 01-.48.67z"/><path fill="url(#linear-gradient-12)" d="M185.32 172.64l-7.53 33.29 62.26-.18-6.66-33.25-48.07.14z"/></g><rect class="cls-3" x="109.1" y="92.16" width="5.84" height="10.04" rx="2.92" ry="2.92" transform="rotate(10.35 112.055 97.22)"/><rect y="206.07" width="573" height="66" rx="12" ry="12" fill="#fff"/><text transform="translate(21.57 251.69)" font-size="38" font-family="PTSans-Regular,PT Sans">Will<tspan x="63.84" y="0" letter-spacing="-.01em">k</tspan><tspan x="81.58" y="0">ommen in der Schul-Cloud !</tspan></text><path d="M74.5 272.07h376m-357-66h339" stroke="#000" stroke-width=".5" stroke-miterlimit="10" fill="none"/></g></g></svg>