<svg xmlns="http://www.w3.org/2000/svg" viewBox="0 0 157.89 153.99"><defs><style>.cls-1{fill:#e6e6e6}</style></defs><g id="Layer_2" data-name="Layer 2"><g id="Layer_1-2" data-name="Layer 1"><circle class="cls-1" cx="76.99" cy="76.49" r="44.5"/><text transform="translate(62.85 100.33)" font-size="67.79" fill="#333" font-family="PTSans-Bold,PT Sans" font-weight="700">?</text><path d="M154.69 111.08l-10.8 5.92 13.21 10.76a2.16 2.16 0 01.36 3l-3.82 4.9a2 2 0 01-2.91.3l-12.55-10.22-3.9 13.88a2 2 0 01-3.79.36l-23.77-43.84a2 2 0 012.37-3l45.15 14.06a2.12 2.12 0 01.45 3.86z"/><path class="cls-1" d="M124.1 16.49L115.46 28a1.34 1.34 0 11-2.11-1.64L122 14.85a1.34 1.34 0 112.11 1.64zM40.57 127.63l-8.64 11.46a1.34 1.34 0 11-2.11-1.64L38.45 126a1.32 1.32 0 011.88-.25 1.36 1.36 0 01.24 1.88zM28.55 40.61a1.32 1.32 0 01-1.88.25l-11.38-8.58a1.35 1.35 0 011.65-2.13l11.38 8.58a1.34 1.34 0 01.23 1.88zm59.93 112.85a1.44 1.44 0 01-.86.52 1.33 1.33 0 01-1.51-1.11l-2-14.15a1.35 1.35 0 011.12-1.51 1.33 1.33 0 011.51 1.11l1.95 14.15a1.43 1.43 0 01-.21.99zM69.56 16.26a1.5 1.5 0 01-.86.53 1.32 1.32 0 01-1.5-1.11l-2-14.15A1.35 1.35 0 0166.36 0a1.32 1.32 0 011.51 1.11l1.95 14.15a2 2 0 01-.26 1zM16.58 86.74a1.44 1.44 0 01-.86.52l-14.2 2.06A1.33 1.33 0 010 88.21a1.36 1.36 0 011.12-1.52l14.14-2a1.32 1.32 0 011.5 1.11 1.36 1.36 0 01-.18.94zm137.07-19.96a1.42 1.42 0 01-.86.53l-14.13 2a1.33 1.33 0 01-1.51-1.11 1.36 1.36 0 011.12-1.52l14.13-2a1.32 1.32 0 011.51 1.11 1.27 1.27 0 01-.26.99z"/></g></g></svg>