<svg xmlns="http://www.w3.org/2000/svg" xmlns:xlink="http://www.w3.org/1999/xlink" viewBox="0 0 321.33 274.83"><defs><linearGradient id="linear-gradient-10" x1="135.77" y1="-1995.02" x2="135.77" y2="-2098.36" gradientTransform="matrix(1 0 0 -1 -3.39 -1782.13)" gradientUnits="userSpaceOnUse"><stop offset="0" stop-color="#86283c"/><stop offset="1" stop-color="#86283c"/></linearGradient><linearGradient id="linear-gradient" x1="300.41" y1="-2062.67" x2="212.01" y2="-2011.63" gradientTransform="matrix(1 0 0 -1 0 -1784.3)" gradientUnits="userSpaceOnUse"><stop offset="0" stop-color="#cce0f4"/><stop offset="0" stop-color="#c3d9ec"/><stop offset="0" stop-color="#a9c4d8"/><stop offset="0" stop-color="#80a4b6"/><stop offset="0" stop-color="#467688"/><stop offset="0" stop-color="#003f4f"/><stop offset=".26" stop-color="#00445d"/><stop offset=".75" stop-color="#005382"/><stop offset=".99" stop-color="#005b97"/></linearGradient><linearGradient id="linear-gradient-2" x1="254.38" y1="-1961.08" x2="254.38" y2="-1756.07" gradientTransform="matrix(1 0 0 -1 0 -1784.3)" gradientUnits="userSpaceOnUse"><stop offset="0" stop-color="#68aa61"/><stop offset=".1" stop-color="#7cb576"/><stop offset=".41" stop-color="#b4d5b0"/><stop offset=".67" stop-color="#ddecdb"/><stop offset=".88" stop-color="#f6faf5"/><stop offset="1" stop-color="#fff"/></linearGradient><linearGradient id="linear-gradient-3" x1="270.33" y1="-1915.79" x2="270.33" y2="-1876.29" gradientTransform="matrix(1 0 .01 -1 4.3 -1784.55)" gradientUnits="userSpaceOnUse"><stop offset=".47" stop-color="#ffd8ca"/><stop offset="1" stop-color="#ffa183"/></linearGradient><linearGradient id="linear-gradient-4" x1="236.9" y1="-1869.67" x2="274.29" y2="-1804.91" gradientTransform="matrix(1 0 0 -1 0 -1784.3)" gradientUnits="userSpaceOnUse"><stop offset="0" stop-color="#ffede6"/><stop offset=".97" stop-color="#ff9676"/></linearGradient><linearGradient id="linear-gradient-5" x1="250.03" y1="-1864.39" x2="264.58" y2="-1864.39" gradientTransform="matrix(1 0 0 -1 0 -1784.3)" gradientUnits="userSpaceOnUse"><stop offset="0" stop-color="#fb3847"/><stop offset="1" stop-color="#86283c"/></linearGradient><linearGradient id="linear-gradient-6" x1="134.67" y1="-1981" x2="134.67" y2="-2082.09" gradientTransform="matrix(1 0 0 -1 -3.39 -1782.13)" gradientUnits="userSpaceOnUse"><stop offset="0" stop-color="#c21d47"/><stop offset="1" stop-color="#86283c"/></linearGradient><linearGradient id="linear-gradient-7" x1="134.68" y1="-1941.14" x2="134.68" y2="-1888" gradientTransform="matrix(1 0 0 -1 -3.39 -1782.13)" gradientUnits="userSpaceOnUse"><stop offset=".12" stop-color="#ffd8ca"/><stop offset=".66" stop-color="#ffa183"/></linearGradient><linearGradient id="linear-gradient-8" x1="134.44" y1="-1836.2" x2="134.44" y2="-2028.28" gradientTransform="matrix(1 0 0 -1 -3.39 -1782.13)" xlink:href="#linear-gradient-4"/><linearGradient id="linear-gradient-9" x1="128.23" y1="-1895.8" x2="144.8" y2="-1895.8" gradientTransform="matrix(1 0 0 -1 -3.39 -1782.13)" xlink:href="#linear-gradient-5"/><style>.cls-18,.cls-2{fill:none;stroke-linecap:round;stroke-linejoin:round}.cls-2{stroke:#68aa61;stroke-width:15px}.cls-3{fill:#ffc9b8}.cls-4{fill:#f2f2f2}.cls-14{fill:#86283c}.cls-18{stroke:#c44958;stroke-width:20px}.cls-24{fill:#9e5363}</style></defs><g id="Layer_2" data-name="Layer 2"><g id="Layer_1-2" data-name="Layer 1"><g id="Kid4"><path d="M98.4 132.87h70.66a43.68 43.68 0 0143.75 43.62v45.28a33.76 33.76 0 01-33.75 33.76H84.32a13.25 13.25 0 01-13.2-13.27V160.2a27.33 27.33 0 0127.33-27.33z" fill="#006192"/><path class="cls-2" d="M99.33 134.22c23.76-17.87 86.41 6.91 115.11-15"/><path class="cls-3" d="M103.65 138.85c-.62-1.2-1.28-2.39-1.89-3.57-1.28-2.27-2.7-4.43-3.91-6.76a26.25 26.25 0 01-1.44-3.26c-3.73 2.43-7.42 5.11-11 8a8.83 8.83 0 00-2.77 8.2 9.53 9.53 0 00.92 2.9c1.93 3.83 5.9 4.95 8.86 2.55a137.55 137.55 0 0111.23-8.06z"/><path class="cls-2" d="M306.71 231c6.92-35.74 16-71.26-12.15-111.74"/><path class="cls-4" d="M92.27 132.87c4.1 5.32 8.11 10.73 11.85 16.38a56.52 56.52 0 0012.09-9l-16.13-19.8A51.26 51.26 0 0188.46 128q1.91 2.41 3.81 4.87z"/><path d="M303.93 271.81c.72-11.38-2.21-36-7.11-44.33a3.63 3.63 0 00-3.13-1.79h-78.6a3.67 3.67 0 00-3 1.64c-6.26 9.25-7.66 33.19-6.73 44.52.17 1.89 2.18 2 4.07 2H300c1.93.04 3.8-.15 3.93-2.04z" fill="url(#linear-gradient)"/><path class="cls-3" d="M314.2 241.94c-6.92 4-11.74 10.13-18.06 14.62-1.05-1.75-2.07-3.52-3-5.32-1.85-3.51-5.32-4.13-7.3-7.57a33.93 33.93 0 00-3-4.42c6.27-4.38 10.8-8.37 17.56-12.29"/><path class="cls-4" d="M302.48 224c7.28 3.09 12.64 5.25 18.78 9.22A62.32 62.32 0 01311.9 247l-22.5-13.89c2.87-3.51 7.58-5.55 9.88-10.73 1.72 1.34 1.11.72 3.2 1.62z"/><path d="M295.5 225.69c-13.66-41.06-7.33-89.29 6.38-117.85-21.19-20.5-79.69-13.8-95 0 16.22 25.41 18.79 78.56 6.45 117.85z" fill="url(#linear-gradient-2)"/><path d="M217.92 207.5a159.93 159.93 0 01-4.5 18.19h82.13a140.76 140.76 0 01-4.7-18.19z" fill="#97c492"/><path d="M220 79.77V31.34c0-16.66 15.82-30.28 35.22-30.28h1.28c19.37 0 35.23 13.62 35.23 30.28v48.43z" fill="#56380d"/><path d="M285.88 99c0 13.22-30 22.46-30 22.46s-30-9.24-30-22.46S239 83.7 255.57 83.7s30.31 2.09 30.31 15.3z" fill="#68aa61"/><path d="M231.74 69.63l-4.43.55a1.4 1.4 0 01-1.61-1.07l-2.36-14.78a1.29 1.29 0 011.1-1.44h.11l4.42-.56a1.45 1.45 0 011.62 1.09L233 68.19a1.27 1.27 0 01-1.1 1.43zm48.43 0l4.42.55a1.41 1.41 0 001.62-1.07l2.36-14.78a1.29 1.29 0 00-1.1-1.44h-.18l-4.36-.55a1.43 1.43 0 00-1.61 1.09L279 68.2a1.27 1.27 0 001.11 1.42z" fill="#ffcbba"/><path d="M255.64 121.26s-12.54-14.82-12.46-21l.19-13h25.16l-.18 13c-.09 6.21-12.71 21-12.71 21z" fill="url(#linear-gradient-3)"/><path d="M260.61 93a11.07 11.07 0 01-9.05.12c-7.55-3.31-21.82-9.5-21.82-26.81V37.48c0-12.63 11.6-23 25.77-23h.61c14.18 0 25.77 10.33 25.77 23v28.9C281.89 83 268 89.58 260.61 93z" fill="url(#linear-gradient-4)"/><path d="M227.86 12.46C212.81 43.4 254.6 41.23 254.6 41.23l-.36-15.59c5.44 10.8 16.6 17.11 37.34 20.89 1.09-17.76-.7-28-5.81-34-22.33-23.01-51.2-8.99-57.91-.07z" fill="#6d4a16"/><path class="cls-14" d="M250.31 56.16a2.82 2.82 0 00.14-.86c0-2-2.15-3.62-4.83-3.62s-4.84 1.63-4.84 3.62a2.78 2.78 0 00.11.86zm22.06-.16a2.61 2.61 0 00.15-.87c0-2-2.17-3.6-4.83-3.6s-4.84 1.61-4.84 3.6a2.88 2.88 0 00.15.87zM244.5 74v.17c0 4 5.25 7.31 11.72 7.31s11.71-3.27 11.71-7.31V74z"/><path d="M257.74 78.67a27.61 27.61 0 00-6 1.15 13.34 13.34 0 00-1.73.65 17.4 17.4 0 006.18 1.1 15.79 15.79 0 008.37-2.21 18.16 18.16 0 00-6.82-.69z" fill="url(#linear-gradient-5)"/><path d="M263.44 48.67a8.63 8.63 0 0110.21 1.6m-34.19.35c1.92-2.63 6.73-3.75 10.07-2" stroke="#86283c" stroke-width=".25" fill="none" stroke-linecap="round" stroke-linejoin="round"/></g><g id="Kid2"><path class="cls-3" d="M16 147.68c1.56-1.15 3.1-2.21 4.6-3.37 2.9-2.31 5.63-4.73 8.63-6.95a31.48 31.48 0 014.25-2.65c-4.15-5.49-8.61-11-13.36-16.26a12.28 12.28 0 00-15.87-1.57 9.37 9.37 0 00-2.72 13 9.75 9.75 0 00.92 1.12c4.85 5.48 9.39 11.06 13.55 16.68z"/><path d="M176.1 138.4l-20.87-8.2v1.28L118.8 131v-.41l-20.87 8C89 142.1 83.43 150.23 84 159l7.66 112.47a3.65 3.65 0 003.64 3.4h23.82l36.53-.11h6.81l19.14-.39a3.65 3.65 0 003.56-3.49l4.92-112.33c.38-8.77-5.16-16.68-13.98-20.15z" fill="url(#linear-gradient-6)"/><path class="cls-18" d="M89.5 163.77c-13.82 6.94-45.59 9-60.14-19.27"/><path class="cls-14" d="M22.01 159.31l21.85-17.2-12.41-15.47-22.19 18 12.75 14.67z"/><path class="cls-18" d="M184.27 159.56c16.5 11.28 34 49.6 7.32 80"/><path d="M180.78 230.83c-.1 1.17-1.27 25.45-1.27 25.45l-34.39.15c-6.74 0-12.41-4.11-14-9.69a11.49 11.49 0 01-.39-3.83c.41-6.84 7-12.08 14.74-12.1z" fill="#ffd8ca"/><path class="cls-14" d="M175.13 257.38l-6.74-26.98 19.29-4.62 6.51 27.83-19.06 3.77z"/><path d="M88.31 222.57l-4.42-64.4c0-11.75 8.28-19.15 19.14-21.7zm99.23-.3l4.11-64.41c0-11.75-8.4-19.07-19.3-21.7z" fill="#66a0be"/><path class="cls-14" d="M171.08 128.2c0 15.06-34.05 34.74-34.05 34.74s-34.21-19.49-34.27-34.55 15.32-16.25 34.11-16.32 34.13 1.06 34.21 16.13z"/><path d="M137 161s-18.13-18-18.15-27v-18.59l36.2-.11v18.63C155.06 142.86 137 161 137 161z" fill="url(#linear-gradient-7)"/><path d="M173.06 103.51h-.5a3.61 3.61 0 01-3.15-4L170.76 86a3.59 3.59 0 013.83-3.26h.51a3.63 3.63 0 013.26 4 .68.68 0 010 .14L177 100.31a3.58 3.58 0 01-3.94 3.2zm-73.06-.12h.51a3.61 3.61 0 003.14-4l-1.43-13.51a3.59 3.59 0 00-3.91-3.22h-.51a3.64 3.64 0 00-3.14 4l1.43 13.51a3.58 3.58 0 003.9 3.21z" fill="#ffb69f"/><path d="M109 42.19c-4.16 0-7.51 3-7.49 6.74l.3 49.17c0 16.36 15.42 24.1 22.18 29.52a11.28 11.28 0 007.06 2.41h10.67a13.26 13.26 0 008.37-2.92c7-5.76 21.48-12.76 21.42-29.18l-.14-48.68c0-4-3.63-7.19-8.09-7.18z" fill="url(#linear-gradient-8)"/><path class="cls-24" d="M171.52 83.88h-7.43v-40h3a4.08 4.08 0 014.31 3.84v.07z"/><path class="cls-24" transform="rotate(-.17 104.38 67.562)" d="M101.58 49.25h7.43v34.8h-7.43z"/><path class="cls-14" d="M171.39 53.11l.32-5.88c0-11.6-7.36-15.88-14.66-15.87l-36.43.12c-6.21 0-14.15 2-14.14 8.73-7.28.64-5 10.31-4.72 13.25z"/><path class="cls-14" d="M177.16 47.23c0-11.6-12.77-15.87-20.11-15.85l-36.43.11c-6.21 0-14.15 2-14.14 8.73-10.14.86-7.16 10.83-7.16 10.83 1.35 7.26 20.42 15 35.59 15.31 0 0-4-8.93-3.46-8.83 9.25 7.8 26.56 11.77 45.73 10.8zm-53.01 59.25v.21c0 4.59 6 8.29 13.36 8.27s13.33-3.75 13.31-8.35v-.2z"/><path d="M139.23 111.67a30.31 30.31 0 00-6.81 1.27 15.45 15.45 0 00-2 .74 19.46 19.46 0 007 1.28 18.06 18.06 0 009.53-2.55 20.35 20.35 0 00-7.72-.74z" fill="url(#linear-gradient-9)"/><path class="cls-14" d="M130.69 86a2.73 2.73 0 00.17-1c0-2.27-2.48-4.1-5.53-4.1s-5.5 1.87-5.49 4.13a3.37 3.37 0 00.17 1zm25.14-.17a2.76 2.76 0 00.16-1c0-2.28-2.47-4.11-5.52-4.1S145 82.6 145 84.87a3.31 3.31 0 00.16 1zm3.87-6.59l-13.66-3a.73.73 0 01-.61-.83l.61-2.19a.8.8 0 011-.53l13.66 3a.75.75 0 01.6.86l-.6 2.19a.84.84 0 01-1 .5zm-29.77-2.88l-13.74 2.78a.8.8 0 01-1-.55l-.55-2.21a.71.71 0 01.55-.84h.06L129 72.76a.8.8 0 011 .55l.55 2.19a.72.72 0 01-.58.85z"/><path fill="url(#linear-gradient-10)" d="M108.33 220.37l-9.61 42.5 79.47-.24-8.5-42.44-61.36.18z"/></g><path class="cls-3" d="M28.08 116.19a3.73 3.73 0 012.61 4.58l-1.41 5.17a3.73 3.73 0 01-4.58 2.62 3.73 3.73 0 01-2.61-4.56l1.41-5.17a3.73 3.73 0 014.58-2.64z"/></g></g></svg>